<svg width="3840" height="2160" viewBox="0 0 3840 2160" fill="none" xmlns="http://www.w3.org/2000/svg">
<g clip-path="url(#clip0_2498_7277)">
<rect width="3840" height="2160" fill="#F5F0EE"/>
<rect x="320" width="1760" height="760" fill="url(#paint0_linear_2498_7277)"/>
<g filter="url(#filter0_d_2498_7277)">
<rect width="320" height="2160" fill="white"/>
<g clip-path="url(#clip1_2498_7277)">
<path d="M160 169.5C164.4 169.5 168 165.9 168 161.5H152C152 165.9 155.6 169.5 160 169.5ZM184 145.5V125.5C184 113.22 177.48 102.94 166 100.22V97.5C166 94.18 163.32 91.5 160 91.5C156.68 91.5 154 94.18 154 97.5V100.22C142.56 102.94 136 113.18 136 125.5V145.5L128 153.5V157.5H192V153.5L184 145.5ZM176 149.5H144V125.5C144 115.58 150.04 107.5 160 107.5C169.96 107.5 176 115.58 176 125.5V149.5Z" fill="#ADB5BD"/>
</g>
<path d="M102.723 220.844C111.059 220.844 116.322 223.486 116.344 227.977C116.322 232.445 111.059 235.088 102.723 235.066C94.4727 235.088 89.1875 232.445 89.1875 227.977C89.1875 223.486 94.4727 220.844 102.723 220.844ZM85.4062 217.664V214.355H99.457V207.137H103.453V214.355H120.426V217.664H85.4062ZM89.4883 201.809V198.543H116.043V201.766C116.064 204.838 116.064 208.018 114.969 211.992L110.973 211.562C112.004 207.631 112.004 204.795 112.004 201.809H89.4883ZM93.2695 227.977C93.2266 230.469 96.9004 231.908 102.723 231.93C108.609 231.908 112.262 230.469 112.305 227.977C112.262 225.441 108.609 223.959 102.723 223.938C96.9004 223.959 93.2266 225.441 93.2695 227.977ZM137.57 207.996C137.549 214.441 141.781 221.102 147.711 223.637L145.477 226.816C140.943 224.818 137.334 220.564 135.551 215.43C133.768 220.93 130.158 225.613 125.668 227.805L123.305 224.582C129.105 221.854 133.402 214.635 133.445 207.996V203.914H124.637V200.52H146.336V203.914H137.57V207.996ZM151.191 235.152V196.652H155.273V235.152H151.191ZM174.781 206.449C174.738 213.26 178.713 220.242 184.449 223.035L181.914 226.301C177.725 224.109 174.48 219.812 172.783 214.678C171.064 220.135 167.691 224.754 163.309 227.031L160.773 223.723C166.682 220.887 170.678 213.496 170.699 206.449V199.875H174.781V206.449ZM187.328 235.152V196.652H191.41V211.992H197.598V215.473H191.41V235.152H187.328ZM229.695 196.652V207.094H235.281V210.531H229.695V221.359H225.613V196.652H229.695ZM199.488 204V200.777H208.941V196.352H213.023V200.777H222.434V204H199.488ZM201.594 212.637C201.572 208.49 205.354 205.783 210.961 205.762C216.504 205.783 220.285 208.49 220.285 212.637C220.285 216.762 216.504 219.447 210.961 219.426C205.354 219.447 201.572 216.762 201.594 212.637ZM204.645 228.406C204.602 224.152 209.457 221.66 217.406 221.66C225.248 221.66 230.125 224.152 230.125 228.406C230.125 232.596 225.248 235.088 217.406 235.066C209.457 235.088 204.602 232.596 204.645 228.406ZM205.547 212.637C205.504 214.914 207.695 216.332 210.961 216.332C214.227 216.332 216.418 214.914 216.461 212.637C216.418 210.295 214.227 208.812 210.961 208.812C207.695 208.812 205.504 210.295 205.547 212.637ZM208.684 228.406C208.662 230.662 211.863 231.973 217.406 231.973C222.863 231.973 226.064 230.662 226.086 228.406C226.064 226.064 222.863 224.818 217.406 224.797C211.863 224.818 208.662 226.064 208.684 228.406Z" fill="#ADB5BD"/>
<path d="M137.48 259.359V273.5H135.801L128.145 262.484H128.008V273.5H126.25V259.359H127.949L135.605 270.395H135.742V259.359H137.48ZM152.559 266.43C152.568 270.902 149.932 273.695 146.309 273.695C142.676 273.695 140.049 270.902 140.059 266.43C140.049 261.957 142.676 259.164 146.309 259.164C149.932 259.164 152.568 261.957 152.559 266.43ZM141.758 266.43C141.768 270.072 143.75 272.045 146.309 272.055C148.867 272.045 150.85 270.072 150.859 266.43C150.85 262.777 148.867 260.805 146.309 260.805C143.75 260.805 141.768 262.777 141.758 266.43ZM153.77 260.922V259.359H164.434V260.922H160V273.5H158.223V260.922H153.77ZM168.535 259.359V273.5H166.777V259.359H168.535ZM181.309 263.812C180.898 261.859 179.229 260.805 177.363 260.805C174.805 260.805 172.822 262.777 172.812 266.43C172.822 270.072 174.805 272.045 177.363 272.055C179.229 272.045 180.889 271 181.309 269.066H183.066C182.559 271.957 180.234 273.695 177.363 273.695C173.73 273.695 171.104 270.902 171.113 266.43C171.104 261.957 173.73 259.164 177.363 259.164C180.225 259.164 182.539 260.873 183.066 263.812H181.309ZM185.527 273.5V259.359H194.102V260.922H187.285V265.648H193.652V267.191H187.285V271.938H194.199V273.5H185.527Z" fill="#6B7684"/>
<g clip-path="url(#clip2_2498_7277)">
<path d="M141.579 485.958H134.211V511.858H141.579V485.958ZM163.684 485.958H156.316V511.858H163.684V485.958ZM195 519.258H125V526.658H195V519.258ZM185.789 485.958H178.421V511.858H185.789V485.958ZM160 461.02L179.195 471.158H140.805L160 461.02ZM160 452.658L125 471.158V478.558H195V471.158L160 452.658Z" fill="#ADB5BD"/>
</g>
<path d="M117.246 556.652V595.238H113.164V556.652H117.246ZM86.6953 573.023C86.6953 564.795 90.8418 559.553 96.6641 559.531C102.379 559.553 106.59 564.795 106.59 573.023C106.59 581.338 102.379 586.58 96.6641 586.559C90.8418 586.58 86.6953 581.338 86.6953 573.023ZM90.6484 573.023C90.627 579.146 93.0762 582.906 96.6641 582.906C100.188 582.906 102.637 579.146 102.637 573.023C102.637 566.986 100.188 563.205 96.6641 563.184C93.0762 563.205 90.627 566.986 90.6484 573.023ZM158.496 575.43V578.738H123.391V575.43H131.812V570.252C128.826 569.049 127.15 567.115 127.172 564.559C127.15 559.982 132.457 557.318 140.922 557.34C149.365 557.318 154.65 559.982 154.672 564.559C154.65 567.115 152.975 569.049 149.988 570.273V575.43H158.496ZM127.559 588.191C127.559 583.787 132.543 581.359 140.922 581.359C149.193 581.359 154.178 583.787 154.199 588.191C154.178 592.639 149.193 595.066 140.922 595.066C132.543 595.066 127.559 592.639 127.559 588.191ZM131.383 564.559C131.361 567.137 134.928 568.576 140.922 568.598C146.873 568.576 150.482 567.137 150.461 564.559C150.482 561.98 146.873 560.498 140.922 560.477C134.928 560.498 131.361 561.98 131.383 564.559ZM131.684 588.191C131.662 590.598 135.035 591.973 140.922 591.93C146.723 591.973 150.117 590.598 150.117 588.191C150.117 585.828 146.723 584.496 140.922 584.496C135.035 584.496 131.662 585.828 131.684 588.191ZM135.938 575.43H145.949V571.326C144.445 571.562 142.748 571.691 140.922 571.691C139.117 571.691 137.441 571.562 135.938 571.348V575.43ZM191.668 556.609V568.125H197.254V571.562H191.668V584.926H187.586V556.609H191.668ZM162.02 568.855C161.977 563.248 166.445 559.295 172.246 559.273C178.068 559.295 182.473 563.248 182.516 568.855C182.473 574.463 178.068 578.459 172.246 578.438C166.445 578.459 161.977 574.463 162.02 568.855ZM166.016 568.855C165.973 572.443 168.723 574.871 172.246 574.871C175.812 574.871 178.498 572.443 178.52 568.855C178.498 565.268 175.812 562.84 172.246 562.84C168.723 562.84 165.973 565.268 166.016 568.855ZM167.262 594.336V581.961H171.344V591.027H193.301V594.336H167.262ZM232.402 556.652V595.152H228.492V575.43H223.551V593.176H219.727V557.426H223.551V572.078H228.492V556.652H232.402ZM201.25 585.355V561.207H205.332V581.768C208.877 581.725 212.766 581.445 217.148 580.586L217.578 584.152C212.293 585.098 207.889 585.377 203.742 585.355H201.25Z" fill="#ADB5BD"/>
<path d="M97.6367 619.359V633.5H95.8789V619.359H97.6367ZM111.992 619.359V633.5H110.312L102.656 622.484H102.52V633.5H100.762V619.359H102.461L110.117 630.395H110.254V619.359H111.992ZM115.117 633.5V619.359H123.633V620.922H116.875V625.648H122.988V627.191H116.875V633.5H115.117ZM138.203 626.43C138.213 630.902 135.576 633.695 131.953 633.695C128.32 633.695 125.693 630.902 125.703 626.43C125.693 621.957 128.32 619.164 131.953 619.164C135.576 619.164 138.213 621.957 138.203 626.43ZM127.402 626.43C127.412 630.072 129.395 632.045 131.953 632.055C134.512 632.045 136.494 630.072 136.504 626.43C136.494 622.777 134.512 620.805 131.953 620.805C129.395 620.805 127.412 622.777 127.402 626.43ZM140.781 633.5V619.359H145.586C148.896 619.359 150.41 621.195 150.41 623.715C150.41 625.59 149.57 627.055 147.773 627.68L150.957 633.5H148.906L145.947 628.002C145.84 628.012 145.723 628.012 145.605 628.012H142.539V633.5H140.781ZM142.539 626.41H145.527C147.783 626.41 148.662 625.395 148.672 623.715C148.662 622.025 147.783 620.922 145.508 620.922H142.539V626.41ZM152.949 619.359H155.059L159.824 631H160L164.766 619.359H166.875V633.5H165.215V622.816H165.078L160.684 633.5H159.121L154.727 622.816H154.609V633.5H152.949V619.359ZM170.625 633.5H168.789L173.965 619.359H175.82L180.996 633.5H179.141L177.725 629.516H172.041L170.625 633.5ZM172.578 627.973H177.188L174.941 621.645H174.824L172.578 627.973ZM180.469 620.922V619.359H191.133V620.922H186.699V633.5H184.922V620.922H180.469ZM195.234 619.359V633.5H193.477V619.359H195.234ZM210.312 626.43C210.322 630.902 207.686 633.695 204.062 633.695C200.43 633.695 197.803 630.902 197.812 626.43C197.803 621.957 200.43 619.164 204.062 619.164C207.686 619.164 210.322 621.957 210.312 626.43ZM199.512 626.43C199.521 630.072 201.504 632.045 204.062 632.055C206.621 632.045 208.604 630.072 208.613 626.43C208.604 622.777 206.621 620.805 204.062 620.805C201.504 620.805 199.521 622.777 199.512 626.43ZM224.121 619.359V633.5H222.441L214.785 622.484H214.648V633.5H212.891V619.359H214.59L222.246 630.395H222.383V619.359H224.121Z" fill="#ADB5BD"/>
<g clip-path="url(#clip3_2498_7277)">
<path d="M160 809.5C144.52 809.5 132 822.02 132 837.5C132 858.5 160 889.5 160 889.5C160 889.5 188 858.5 188 837.5C188 822.02 175.48 809.5 160 809.5ZM140 837.5C140 826.46 148.96 817.5 160 817.5C171.04 817.5 180 826.46 180 837.5C180 849.02 168.48 866.26 160 877.02C151.68 866.34 140 848.9 140 837.5Z" fill="#ADB5BD"/>
<path d="M160 847.5C165.523 847.5 170 843.023 170 837.5C170 831.977 165.523 827.5 160 827.5C154.477 827.5 150 831.977 150 837.5C150 843.023 154.477 847.5 160 847.5Z" fill="#ADB5BD"/>
</g>
<path d="M99.5 926.449C99.457 933.475 103.711 940.564 109.684 943.207L107.234 946.43C102.809 944.324 99.3066 940.006 97.502 934.742C95.7188 940.393 92.1738 945.033 87.5547 947.289L85.0625 943.852C91.1211 941.166 95.375 933.797 95.375 926.449V919.875H99.5V926.449ZM113.164 955.238V916.652H117.246V955.238H113.164ZM155.488 916.652V936.461H151.406V926.578H143.285V923.27H151.406V916.652H155.488ZM123.262 933.367C129.277 931.455 132.865 926.664 132.887 921.25V917.898H136.926V921.25C136.926 926.148 140.449 930.703 146.25 932.551L144.102 935.73C139.869 934.27 136.668 931.369 134.971 927.695C133.295 931.842 130.008 935.064 125.453 936.633L123.262 933.367ZM130.309 941.488V938.266H155.488V947.848H134.391V951.414H156.82V954.68H130.395V944.754H151.449V941.488H130.309ZM191.668 916.609V928.125H197.254V931.562H191.668V944.926H187.586V916.609H191.668ZM162.02 928.855C161.977 923.248 166.445 919.295 172.246 919.273C178.068 919.295 182.473 923.248 182.516 928.855C182.473 934.463 178.068 938.459 172.246 938.438C166.445 938.459 161.977 934.463 162.02 928.855ZM166.016 928.855C165.973 932.443 168.723 934.871 172.246 934.871C175.812 934.871 178.498 932.443 178.52 928.855C178.498 925.268 175.812 922.84 172.246 922.84C168.723 922.84 165.973 925.268 166.016 928.855ZM167.262 954.336V941.961H171.344V951.027H193.301V954.336H167.262ZM232.402 916.652V955.152H228.492V935.43H223.551V953.176H219.727V917.426H223.551V932.078H228.492V916.652H232.402ZM201.25 945.355V921.207H205.332V941.768C208.877 941.725 212.766 941.445 217.148 940.586L217.578 944.152C212.293 945.098 207.889 945.377 203.742 945.355H201.25Z" fill="#ADB5BD"/>
<path d="M121.162 993.5V979.359H129.678V980.922H122.92V985.648H129.033V987.191H122.92V993.5H121.162ZM131.143 993.5H129.307L134.482 979.359H136.338L141.514 993.5H139.658L138.242 989.516H132.559L131.143 993.5ZM133.096 987.973H137.705L135.459 981.645H135.342L133.096 987.973ZM152.412 983.812C152.002 981.859 150.332 980.805 148.467 980.805C145.908 980.805 143.926 982.777 143.916 986.43C143.926 990.072 145.908 992.045 148.467 992.055C150.332 992.045 151.992 991 152.412 989.066H154.17C153.662 991.957 151.338 993.695 148.467 993.695C144.834 993.695 142.207 990.902 142.217 986.43C142.207 981.957 144.834 979.164 148.467 979.164C151.328 979.164 153.643 980.873 154.17 983.812H152.412ZM158.389 979.359V993.5H156.631V979.359H158.389ZM161.514 993.5V979.359H163.271V991.938H169.834V993.5H161.514ZM173.936 979.359V993.5H172.178V979.359H173.936ZM176.279 980.922V979.359H186.943V980.922H182.51V993.5H180.732V980.922H176.279ZM188.076 979.359H190.088L193.975 985.922H194.15L198.037 979.359H200.068L194.951 987.699V993.5H193.174V987.699L188.076 979.359Z" fill="#ADB5BD"/>
<path d="M196.68 1155.74C193.813 1155.25 190.91 1154.99 188 1154.98C178.074 1154.97 168.354 1157.82 160 1163.18C151.625 1157.89 141.907 1155.11 132 1155.18C129.091 1155.19 126.188 1155.45 123.32 1155.94C122.381 1156.1 121.531 1156.59 120.922 1157.33C120.313 1158.06 119.986 1158.99 120 1159.94V1207.94C119.992 1208.53 120.113 1209.11 120.355 1209.65C120.597 1210.18 120.954 1210.66 121.401 1211.04C121.848 1211.42 122.373 1211.7 122.94 1211.86C123.507 1212.01 124.101 1212.04 124.68 1211.94C130.412 1210.95 136.285 1211.11 141.953 1212.42C147.62 1213.74 152.968 1216.17 157.68 1219.58L158.16 1219.86H158.6C159.044 1220.04 159.52 1220.14 160 1220.14C160.481 1220.14 160.957 1220.04 161.4 1219.86H161.84L162.32 1219.58C167 1216.09 172.332 1213.58 178.001 1212.19C183.669 1210.81 189.559 1210.57 195.32 1211.5C195.9 1211.6 196.494 1211.57 197.061 1211.42C197.627 1211.26 198.153 1210.98 198.6 1210.6C199.046 1210.22 199.404 1209.74 199.646 1209.21C199.888 1208.67 200.009 1208.09 200 1207.5V1159.5C199.959 1158.59 199.607 1157.72 199.003 1157.03C198.399 1156.35 197.58 1155.89 196.68 1155.74ZM156 1208.9C148.6 1205.01 140.362 1202.97 132 1202.98C130.68 1202.98 129.36 1202.98 128 1202.98V1162.98C129.333 1162.9 130.668 1162.9 132 1162.98C140.534 1162.97 148.881 1165.47 156 1170.18V1208.9ZM192 1203.14C190.64 1203.14 189.32 1203.14 188 1203.14C179.638 1203.13 171.401 1205.17 164 1209.06V1170.18C171.119 1165.47 179.467 1162.97 188 1162.98C189.333 1162.9 190.668 1162.9 192 1162.98V1203.14ZM196.68 1219.74C193.813 1219.25 190.91 1218.99 188 1218.98C178.074 1218.97 168.354 1221.82 160 1227.18C151.646 1221.82 141.927 1218.97 132 1218.98C129.091 1218.99 126.188 1219.25 123.32 1219.74C122.8 1219.82 122.3 1220.01 121.851 1220.28C121.402 1220.56 121.012 1220.92 120.704 1221.35C120.395 1221.78 120.174 1222.26 120.054 1222.77C119.933 1223.29 119.915 1223.82 120 1224.34C120.204 1225.38 120.81 1226.29 121.688 1226.89C122.565 1227.48 123.641 1227.7 124.68 1227.5C130.412 1226.51 136.285 1226.67 141.953 1227.98C147.62 1229.3 152.968 1231.73 157.68 1235.14C158.358 1235.62 159.169 1235.88 160 1235.88C160.832 1235.88 161.643 1235.62 162.32 1235.14C167.033 1231.73 172.381 1229.3 178.048 1227.98C183.716 1226.67 189.588 1226.51 195.32 1227.5C196.36 1227.7 197.436 1227.48 198.313 1226.89C199.19 1226.29 199.797 1225.38 200 1224.34C200.086 1223.82 200.068 1223.29 199.947 1222.77C199.826 1222.26 199.605 1221.78 199.297 1221.35C198.988 1220.92 198.598 1220.56 198.149 1220.28C197.7 1220.01 197.201 1219.82 196.68 1219.74Z" fill="#191F28"/>
<path d="M117.59 1262.52V1290.88H112.777V1262.52H117.59ZM85.2773 1281.73C91.5723 1279.52 94.7949 1274.04 94.7734 1268.45V1264.67H99.7148V1268.45C99.6934 1273.87 102.873 1278.98 109.039 1281.04L106.59 1284.82C102.164 1283.28 99.0059 1280.18 97.2871 1276.21C95.5684 1280.46 92.3457 1283.86 87.7695 1285.51L85.2773 1281.73ZM91.8945 1300.55V1288.18H96.707V1296.68H118.664V1300.55H91.8945ZM137.227 1270.9C137.205 1275.16 140.363 1279.41 146.508 1281.09L144.273 1284.91C139.826 1283.62 136.646 1280.94 134.885 1277.54C133.188 1281.26 129.965 1284.18 125.41 1285.55L123.09 1281.82C129.213 1280.05 132.457 1275.54 132.457 1270.9V1270.6H124.336V1266.82H132.457V1262.35H137.27V1266.82H145.348V1270.6H137.227V1270.9ZM128.031 1291.83V1288H153.898V1301.37H149.129V1291.83H128.031ZM149.129 1286.24V1262.48H153.898V1272.32H159.312V1276.36H153.898V1286.24H149.129ZM192.828 1280.14V1283.92H181.312V1292.82H196.781V1296.73H161.289V1292.82H176.586V1283.92H165.586V1265.36H192.527V1269.18H170.355V1280.14H192.828ZM213.668 1271.8C213.646 1279.02 217.105 1286.11 223.293 1288.82L220.414 1292.64C216.031 1290.5 212.938 1286.37 211.283 1281.28C209.586 1286.65 206.406 1291.12 201.938 1293.38L198.93 1289.51C205.268 1286.54 208.791 1279.07 208.812 1271.8V1265.62H213.668V1271.8ZM218.996 1278.89V1275.03H227.16V1262.48H231.887V1301.37H227.16V1278.89H218.996Z" fill="#191F28"/>
<path d="M68.0176 1325.36V1339.5H66.3379L58.6816 1328.48H58.5449V1339.5H56.7871V1325.36H58.4863L66.1426 1336.39H66.2793V1325.36H68.0176ZM71.1426 1339.5V1325.36H79.7168V1326.92H72.9004V1331.65H79.2676V1333.19H72.9004V1337.94H79.8145V1339.5H71.1426ZM85.1074 1339.5L81.2402 1325.36H83.0176L85.9668 1336.8H86.1035L89.0918 1325.36H91.0645L94.0723 1336.8H94.1895L97.1387 1325.36H98.916L95.0488 1339.5H93.2324L90.1465 1328.31H90.0293L86.9238 1339.5H85.1074ZM106.436 1339.5H104.6L109.775 1325.36H111.631L116.807 1339.5H114.951L113.535 1335.52H107.852L106.436 1339.5ZM108.389 1333.97H112.998L110.752 1327.64H110.635L108.389 1333.97ZM118.721 1339.5V1325.36H123.525C126.836 1325.36 128.35 1327.2 128.35 1329.71C128.35 1331.59 127.51 1333.05 125.713 1333.68L128.896 1339.5H126.846L123.887 1334C123.779 1334.01 123.662 1334.01 123.545 1334.01H120.479V1339.5H118.721ZM120.479 1332.41H123.467C125.723 1332.41 126.602 1331.39 126.611 1329.71C126.602 1328.03 125.723 1326.92 123.447 1326.92H120.479V1332.41ZM130.889 1339.5V1325.36H135.693C139.004 1325.36 140.518 1327.2 140.518 1329.71C140.518 1331.59 139.678 1333.05 137.881 1333.68L141.064 1339.5H139.014L136.055 1334C135.947 1334.01 135.83 1334.01 135.713 1334.01H132.646V1339.5H130.889ZM132.646 1332.41H135.635C137.891 1332.41 138.77 1331.39 138.779 1329.71C138.77 1328.03 137.891 1326.92 135.615 1326.92H132.646V1332.41ZM144.814 1325.36V1339.5H143.057V1325.36H144.814ZM148.584 1325.36L152.744 1337.21H152.9L157.08 1325.36H158.936L153.76 1339.5H151.904L146.729 1325.36H148.584ZM160.225 1339.5H158.389L163.564 1325.36H165.42L170.596 1339.5H168.74L167.324 1335.52H161.641L160.225 1339.5ZM162.178 1333.97H166.787L164.541 1327.64H164.424L162.178 1333.97ZM172.51 1339.5V1325.36H174.268V1337.94H180.83V1339.5H172.51ZM190.889 1328.91C190.742 1327.53 189.453 1326.73 187.764 1326.73C185.889 1326.73 184.668 1327.7 184.658 1329.05C184.668 1330.54 186.318 1331.09 187.393 1331.36L188.799 1331.75C190.312 1332.14 192.803 1333.01 192.803 1335.65C192.803 1337.96 190.947 1339.74 187.666 1339.75C184.619 1339.74 182.734 1338.17 182.568 1335.83H184.365C184.512 1337.41 185.986 1338.16 187.666 1338.15C189.619 1338.16 191.084 1337.16 191.084 1335.61C191.084 1334.24 189.775 1333.71 188.291 1333.29L186.553 1332.82C184.336 1332.18 182.949 1331.04 182.959 1329.13C182.949 1326.74 185.078 1325.16 187.822 1325.16C190.566 1325.16 192.539 1326.77 192.607 1328.91H190.889ZM200.342 1339.5V1325.36H205.303C208.271 1325.36 209.668 1327.03 209.658 1329.11C209.668 1330.93 208.584 1331.74 207.354 1332.08V1332.21C208.672 1332.29 210.215 1333.5 210.225 1335.75C210.215 1337.87 208.818 1339.5 205.479 1339.5H200.342ZM202.1 1337.94H205.459C207.676 1337.94 208.535 1336.96 208.525 1335.73C208.535 1334.29 207.373 1333.07 205.557 1333.07H202.1V1337.94ZM202.1 1331.55H205.244C206.777 1331.56 207.979 1330.6 207.979 1329.13C207.979 1327.9 207.148 1326.92 205.303 1326.92H202.1V1331.55ZM224.678 1332.43C224.688 1336.9 222.051 1339.7 218.428 1339.7C214.795 1339.7 212.168 1336.9 212.178 1332.43C212.168 1327.96 214.795 1325.16 218.428 1325.16C222.051 1325.16 224.688 1327.96 224.678 1332.43ZM213.877 1332.43C213.887 1336.07 215.869 1338.04 218.428 1338.05C220.986 1338.04 222.969 1336.07 222.979 1332.43C222.969 1328.78 220.986 1326.8 218.428 1326.8C215.869 1326.8 213.887 1328.78 213.877 1332.43ZM239.209 1332.43C239.219 1336.9 236.582 1339.7 232.959 1339.7C229.326 1339.7 226.699 1336.9 226.709 1332.43C226.699 1327.96 229.326 1325.16 232.959 1325.16C236.582 1325.16 239.219 1327.96 239.209 1332.43ZM228.408 1332.43C228.418 1336.07 230.4 1338.04 232.959 1338.05C235.518 1338.04 237.5 1336.07 237.51 1332.43C237.5 1328.78 235.518 1326.8 232.959 1326.8C230.4 1326.8 228.418 1328.78 228.408 1332.43ZM241.787 1339.5V1325.36H243.545V1332.35H243.721L250.01 1325.36H252.314L246.396 1331.75L252.314 1339.5H250.166L245.303 1332.96L243.545 1334.95V1339.5H241.787ZM261.904 1328.91C261.758 1327.53 260.469 1326.73 258.779 1326.73C256.904 1326.73 255.684 1327.7 255.674 1329.05C255.684 1330.54 257.334 1331.09 258.408 1331.36L259.814 1331.75C261.328 1332.14 263.818 1333.01 263.818 1335.65C263.818 1337.96 261.963 1339.74 258.682 1339.75C255.635 1339.74 253.75 1338.17 253.584 1335.83H255.381C255.527 1337.41 257.002 1338.16 258.682 1338.15C260.635 1338.16 262.1 1337.16 262.1 1335.61C262.1 1334.24 260.791 1333.71 259.307 1333.29L257.568 1332.82C255.352 1332.18 253.965 1331.04 253.975 1329.13C253.965 1326.74 256.094 1325.16 258.838 1325.16C261.582 1325.16 263.555 1326.77 263.623 1328.91H261.904Z" fill="#191F28"/>
<path d="M100 1372.5C146.863 1372.5 173.137 1372.5 220 1372.5" stroke="#191F28" stroke-width="7" stroke-linecap="round"/>
<path d="M196 1537.5H184V1533.5C184 1532.44 183.579 1531.42 182.828 1530.67C182.078 1529.92 181.061 1529.5 180 1529.5H140C138.939 1529.5 137.922 1529.92 137.172 1530.67C136.421 1531.42 136 1532.44 136 1533.5V1537.5H124C122.939 1537.5 121.922 1537.92 121.172 1538.67C120.421 1539.42 120 1540.44 120 1541.5V1553.5C120 1557.74 121.686 1561.81 124.686 1564.81C127.687 1567.81 131.757 1569.5 136 1569.5H142.16C145.778 1573.54 150.656 1576.23 156 1577.14V1585.5H152C148.817 1585.5 145.765 1586.76 143.515 1589.01C141.264 1591.27 140 1594.32 140 1597.5V1605.5C140 1606.56 140.421 1607.58 141.172 1608.33C141.922 1609.08 142.939 1609.5 144 1609.5H176C177.061 1609.5 178.078 1609.08 178.828 1608.33C179.579 1607.58 180 1606.56 180 1605.5V1597.5C180 1594.32 178.736 1591.27 176.485 1589.01C174.235 1586.76 171.183 1585.5 168 1585.5H164V1577.14C169.344 1576.23 174.222 1573.54 177.84 1569.5H184C188.243 1569.5 192.313 1567.81 195.314 1564.81C198.314 1561.81 200 1557.74 200 1553.5V1541.5C200 1540.44 199.579 1539.42 198.828 1538.67C198.078 1537.92 197.061 1537.5 196 1537.5ZM136 1561.5C133.878 1561.5 131.843 1560.66 130.343 1559.16C128.843 1557.66 128 1555.62 128 1553.5V1545.5H136V1553.5C136.009 1556.23 136.482 1558.93 137.4 1561.5H136ZM168 1593.5C169.061 1593.5 170.078 1593.92 170.828 1594.67C171.579 1595.42 172 1596.44 172 1597.5V1601.5H148V1597.5C148 1596.44 148.421 1595.42 149.172 1594.67C149.922 1593.92 150.939 1593.5 152 1593.5H168ZM176 1553.5C176 1557.74 174.314 1561.81 171.314 1564.81C168.313 1567.81 164.243 1569.5 160 1569.5C155.757 1569.5 151.687 1567.81 148.686 1564.81C145.686 1561.81 144 1557.74 144 1553.5V1537.5H176V1553.5ZM192 1553.5C192 1555.62 191.157 1557.66 189.657 1559.16C188.157 1560.66 186.122 1561.5 184 1561.5H182.6C183.518 1558.93 183.991 1556.23 184 1553.5V1545.5H192V1553.5Z" fill="#ADB5BD"/>
<path d="M99.3926 1636.65V1675.15H95.4824V1655.26H90.498V1673.18H86.7598V1637.43H90.498V1651.91H95.4824V1636.65H99.3926ZM67.6387 1665.91V1641.29H82.0762V1644.6H71.7207V1662.43C76.4473 1662.41 80.0137 1662.2 84.1387 1661.4L84.4395 1664.75C79.8203 1665.72 75.8242 1665.87 70.2168 1665.91H67.6387ZM139.439 1653.54V1656.59H123.928V1659.81H135.057V1668.49H112.627V1671.67H136.131V1674.77H108.631V1665.66H131.018V1662.78H108.588V1659.81H119.889V1656.59H104.42V1653.54H139.439ZM106.139 1648.94C113.508 1648.53 118.707 1646.28 119.545 1643.01H107.9V1639.88H119.889V1636.48H123.928V1639.88H135.959V1643.01H124.25C125.066 1646.28 130.266 1648.53 137.721 1648.94L136.475 1652.04C129.771 1651.54 124.314 1649.59 121.908 1646.21C119.502 1649.59 114.045 1651.54 107.299 1652.04L106.139 1648.94ZM147.561 1640.35V1649.59H154.951V1640.35H158.689V1651.09H163.803V1637.43H167.713V1673.3H163.803V1654.48H158.689V1665.66H143.693V1640.35H147.561ZM147.561 1662.26H154.951V1652.89H147.561V1662.26ZM171.623 1675.15V1636.65H175.533V1675.15H171.623ZM199.982 1642.11C199.982 1648.38 206.664 1654.31 214.076 1655.64L212.186 1659.04C206.02 1657.71 200.369 1653.67 197.877 1648.25C195.342 1653.65 189.691 1657.66 183.525 1659.04L181.721 1655.64C189.025 1654.27 195.664 1648.38 195.686 1642.11V1639.19H199.982V1642.11ZM180.432 1670.08V1666.69H215.666V1670.08H180.432ZM249.697 1657.15V1660.41H222.885V1639.83H249.311V1643.14H227.01V1648.34H248.494V1651.56H227.01V1657.15H249.697ZM218.459 1670.3V1666.95H253.693V1670.3H218.459Z" fill="#ADB5BD"/>
<path d="M69.5508 1713.5V1699.36H74.5117C77.4805 1699.36 78.877 1701.03 78.8672 1703.11C78.877 1704.93 77.793 1705.74 76.5625 1706.08V1706.21C77.8809 1706.29 79.4238 1707.5 79.4336 1709.75C79.4238 1711.87 78.0273 1713.5 74.6875 1713.5H69.5508ZM71.3086 1711.94H74.668C76.8848 1711.94 77.7441 1710.96 77.7344 1709.73C77.7441 1708.29 76.582 1707.07 74.7656 1707.07H71.3086V1711.94ZM71.3086 1705.55H74.4531C75.9863 1705.56 77.1875 1704.6 77.1875 1703.13C77.1875 1701.9 76.3574 1700.92 74.5117 1700.92H71.3086V1705.55ZM81.9336 1713.5V1699.36H90.5078V1700.92H83.6914V1705.65H90.0586V1707.19H83.6914V1711.94H90.6055V1713.5H81.9336ZM100.996 1702.91C100.85 1701.53 99.5605 1700.73 97.8711 1700.73C95.9961 1700.73 94.7754 1701.7 94.7656 1703.05C94.7754 1704.54 96.4258 1705.09 97.5 1705.36L98.9062 1705.75C100.42 1706.14 102.91 1707.01 102.91 1709.65C102.91 1711.96 101.055 1713.74 97.7734 1713.75C94.7266 1713.74 92.8418 1712.17 92.6758 1709.83H94.4727C94.6191 1711.41 96.0938 1712.16 97.7734 1712.15C99.7266 1712.16 101.191 1711.16 101.191 1709.61C101.191 1708.24 99.8828 1707.71 98.3984 1707.29L96.6602 1706.82C94.4434 1706.18 93.0566 1705.04 93.0664 1703.13C93.0566 1700.74 95.1855 1699.16 97.9297 1699.16C100.674 1699.16 102.646 1700.77 102.715 1702.91H100.996ZM104.648 1700.92V1699.36H115.312V1700.92H110.879V1713.5H109.102V1700.92H104.648ZM122.676 1713.5V1699.36H127.48C130.791 1699.36 132.305 1701.2 132.305 1703.71C132.305 1705.59 131.465 1707.05 129.668 1707.68L132.852 1713.5H130.801L127.842 1708C127.734 1708.01 127.617 1708.01 127.5 1708.01H124.434V1713.5H122.676ZM124.434 1706.41H127.422C129.678 1706.41 130.557 1705.39 130.566 1703.71C130.557 1702.03 129.678 1700.92 127.402 1700.92H124.434V1706.41ZM134.844 1713.5V1699.36H143.418V1700.92H136.602V1705.65H142.969V1707.19H136.602V1711.94H143.516V1713.5H134.844ZM157.422 1699.36V1713.5H155.742L148.086 1702.48H147.949V1713.5H146.191V1699.36H147.891L155.547 1710.39H155.684V1699.36H157.422ZM159.766 1700.92V1699.36H170.43V1700.92H165.996V1713.5H164.219V1700.92H159.766ZM171.738 1713.5H169.902L175.078 1699.36H176.934L182.109 1713.5H180.254L178.838 1709.52H173.154L171.738 1713.5ZM173.691 1707.97H178.301L176.055 1701.64H175.938L173.691 1707.97ZM184.023 1713.5V1699.36H185.781V1711.94H192.344V1713.5H184.023ZM199.707 1713.5V1699.36H204.668C207.637 1699.36 209.033 1701.03 209.023 1703.11C209.033 1704.93 207.949 1705.74 206.719 1706.08V1706.21C208.037 1706.29 209.58 1707.5 209.59 1709.75C209.58 1711.87 208.184 1713.5 204.844 1713.5H199.707ZM201.465 1711.94H204.824C207.041 1711.94 207.9 1710.96 207.891 1709.73C207.9 1708.29 206.738 1707.07 204.922 1707.07H201.465V1711.94ZM201.465 1705.55H204.609C206.143 1705.56 207.344 1704.6 207.344 1703.13C207.344 1701.9 206.514 1700.92 204.668 1700.92H201.465V1705.55ZM224.043 1706.43C224.053 1710.9 221.416 1713.7 217.793 1713.7C214.16 1713.7 211.533 1710.9 211.543 1706.43C211.533 1701.96 214.16 1699.16 217.793 1699.16C221.416 1699.16 224.053 1701.96 224.043 1706.43ZM213.242 1706.43C213.252 1710.07 215.234 1712.04 217.793 1712.05C220.352 1712.04 222.334 1710.07 222.344 1706.43C222.334 1702.78 220.352 1700.8 217.793 1700.8C215.234 1700.8 213.252 1702.78 213.242 1706.43ZM238.574 1706.43C238.584 1710.9 235.947 1713.7 232.324 1713.7C228.691 1713.7 226.064 1710.9 226.074 1706.43C226.064 1701.96 228.691 1699.16 232.324 1699.16C235.947 1699.16 238.584 1701.96 238.574 1706.43ZM227.773 1706.43C227.783 1710.07 229.766 1712.04 232.324 1712.05C234.883 1712.04 236.865 1710.07 236.875 1706.43C236.865 1702.78 234.883 1700.8 232.324 1700.8C229.766 1700.8 227.783 1702.78 227.773 1706.43ZM241.152 1713.5V1699.36H242.91V1706.35H243.086L249.375 1699.36H251.68L245.762 1705.75L251.68 1713.5H249.531L244.668 1706.96L242.91 1708.95V1713.5H241.152Z" fill="#ADB5BD"/>
<g clip-path="url(#clip4_2498_7277)">
<path d="M148 1929.5C155.72 1929.5 162 1923.22 162 1915.5C162 1907.78 155.72 1901.5 148 1901.5C140.28 1901.5 134 1907.78 134 1915.5C134 1923.22 140.28 1929.5 148 1929.5ZM148 1909.5C151.32 1909.5 154 1912.18 154 1915.5C154 1918.82 151.32 1921.5 148 1921.5C144.68 1921.5 142 1918.82 142 1915.5C142 1912.18 144.68 1909.5 148 1909.5ZM148.2 1949.5H131.08C135.04 1947.5 141.88 1945.5 148 1945.5C148.44 1945.5 148.92 1945.54 149.36 1945.54C150.72 1942.62 153.08 1940.22 155.92 1938.3C153 1937.78 150.24 1937.5 148 1937.5C138.64 1937.5 120 1942.18 120 1951.5V1957.5H148V1951.5C148 1950.82 148.08 1950.14 148.2 1949.5ZM178 1939.5C170.64 1939.5 156 1943.54 156 1951.5V1957.5H200V1951.5C200 1943.54 185.36 1939.5 178 1939.5ZM182.84 1932.22C185.88 1930.5 188 1927.26 188 1923.5C188 1917.98 183.52 1913.5 178 1913.5C172.48 1913.5 168 1917.98 168 1923.5C168 1927.26 170.12 1930.5 173.16 1932.22C174.6 1933.02 176.24 1933.5 178 1933.5C179.76 1933.5 181.4 1933.02 182.84 1932.22Z" fill="#ADB5BD"/>
</g>
<path d="M115.613 1996.65V2006.36H121.199V2009.67H115.613V2019.51H111.531V1996.65H115.613ZM85.3203 2016.5C94.3438 2013.97 99.8652 2008.94 100.617 2002.71H87.0391V1999.4H105.043C105.043 2009.35 98.2754 2016.55 86.9961 2019.81L85.3203 2016.5ZM90.5625 2027.5C90.5195 2022.82 95.5898 2019.92 103.324 2019.94C111.08 2019.92 116.043 2022.82 116.043 2027.5C116.043 2032.23 111.08 2035.09 103.324 2035.11C95.5898 2035.09 90.5195 2032.23 90.5625 2027.5ZM94.6016 2027.5C94.5801 2030.21 97.9316 2031.87 103.324 2031.89C108.674 2031.87 112.047 2030.21 112.047 2027.5C112.047 2024.8 108.674 2023.14 103.324 2023.16C97.9316 2023.14 94.5801 2024.8 94.6016 2027.5ZM137.184 2003.48C137.184 2008.17 140.75 2012.42 146.551 2014.14L144.617 2017.36C140.17 2016.01 136.883 2013.2 135.186 2009.54C133.467 2013.52 130.051 2016.57 125.496 2018.01L123.434 2014.83C129.385 2013 133.037 2008.53 133.059 2003.48V2003.44H124.68V2000.05H145.562V2003.44H137.184V2003.48ZM122.918 2023.94C125.926 2023.94 129.449 2023.96 133.102 2023.85V2016.42H137.184V2023.72C140.514 2023.55 143.887 2023.29 147.023 2022.86L147.324 2025.83C139.074 2027.33 130.137 2027.31 123.52 2027.33L122.918 2023.94ZM149.344 2035.15V1996.65H153.426V2012.38H159.355V2015.82H153.426V2035.15H149.344ZM191.668 1996.61V2008.12H197.254V2011.56H191.668V2024.93H187.586V1996.61H191.668ZM162.02 2008.86C161.977 2003.25 166.445 1999.29 172.246 1999.27C178.068 1999.29 182.473 2003.25 182.516 2008.86C182.473 2014.46 178.068 2018.46 172.246 2018.44C166.445 2018.46 161.977 2014.46 162.02 2008.86ZM166.016 2008.86C165.973 2012.44 168.723 2014.87 172.246 2014.87C175.812 2014.87 178.498 2012.44 178.52 2008.86C178.498 2005.27 175.812 2002.84 172.246 2002.84C168.723 2002.84 165.973 2005.27 166.016 2008.86ZM167.262 2034.34V2021.96H171.344V2031.03H193.301V2034.34H167.262ZM232.402 1996.65V2035.15H228.492V2015.43H223.551V2033.18H219.727V1997.43H223.551V2012.08H228.492V1996.65H232.402ZM201.25 2025.36V2001.21H205.332V2021.77C208.877 2021.72 212.766 2021.45 217.148 2020.59L217.578 2024.15C212.293 2025.1 207.889 2025.38 203.742 2025.36H201.25Z" fill="#ADB5BD"/>
<path d="M121.758 2063.81C121.348 2061.86 119.678 2060.8 117.812 2060.8C115.254 2060.8 113.271 2062.78 113.262 2066.43C113.271 2070.07 115.254 2072.04 117.812 2072.05C119.678 2072.04 121.338 2071 121.758 2069.07H123.516C123.008 2071.96 120.684 2073.7 117.812 2073.7C114.18 2073.7 111.553 2070.9 111.562 2066.43C111.553 2061.96 114.18 2059.16 117.812 2059.16C120.674 2059.16 122.988 2060.87 123.516 2063.81H121.758ZM135.234 2059.36H136.992V2068.71C136.992 2071.62 134.814 2073.74 131.484 2073.75C128.145 2073.74 125.977 2071.62 125.977 2068.71V2059.36H127.734V2068.58C127.725 2070.63 129.15 2072.1 131.484 2072.11C133.818 2072.1 135.225 2070.63 135.234 2068.58V2059.36ZM140.117 2073.5V2059.36H141.875V2071.94H148.438V2073.5H140.117ZM148.125 2060.92V2059.36H158.789V2060.92H154.355V2073.5H152.578V2060.92H148.125ZM170.391 2059.36H172.148V2068.71C172.148 2071.62 169.971 2073.74 166.641 2073.75C163.301 2073.74 161.133 2071.62 161.133 2068.71V2059.36H162.891V2068.58C162.881 2070.63 164.307 2072.1 166.641 2072.11C168.975 2072.1 170.381 2070.63 170.391 2068.58V2059.36ZM175.273 2073.5V2059.36H180.078C183.389 2059.36 184.902 2061.2 184.902 2063.71C184.902 2065.59 184.062 2067.05 182.266 2067.68L185.449 2073.5H183.398L180.439 2068C180.332 2068.01 180.215 2068.01 180.098 2068.01H177.031V2073.5H175.273ZM177.031 2066.41H180.02C182.275 2066.41 183.154 2065.39 183.164 2063.71C183.154 2062.03 182.275 2060.92 180 2060.92H177.031V2066.41ZM188.066 2073.5H186.23L191.406 2059.36H193.262L198.438 2073.5H196.582L195.166 2069.52H189.482L188.066 2073.5ZM190.02 2067.97H194.629L192.383 2061.64H192.266L190.02 2067.97ZM200.352 2073.5V2059.36H202.109V2071.94H208.672V2073.5H200.352Z" fill="#ADB5BD"/>
</g>
<path d="M534.956 107.375V130H531.331L520.613 114.531H520.425V130H516.363V107.375H520.05L530.706 122.844H530.925V107.375H534.956ZM545.544 130V107.375H560.263V110.781H549.606V116.969H559.481V120.375H549.606V126.562H560.325V130H545.544ZM575.35 130L568.975 107.375H573.35L577.444 124.031H577.662L582.006 107.375H586.006L590.381 124.062H590.569L594.662 107.375H599.037L592.662 130H588.631L584.1 114.094H583.944L579.381 130H575.35ZM622.025 130V107.375H630.681C635.588 107.375 638.009 109.875 638.025 113.25C638.009 116 636.275 117.531 634.056 118.062V118.281C636.463 118.406 638.9 120.406 638.9 123.844C638.9 127.359 636.353 130 631.181 130H622.025ZM626.088 126.594H630.556C633.525 126.594 634.759 125.328 634.775 123.531C634.759 121.5 633.181 119.953 630.65 119.938H626.088V126.594ZM626.088 117H630.181C632.322 117 633.947 115.766 633.963 113.75C633.947 112.016 632.697 110.75 630.275 110.75H626.088V117ZM668.8 118.688C668.816 126 664.347 130.312 658.425 130.312C652.472 130.312 648.034 125.984 648.05 118.688C648.034 111.375 652.472 107.062 658.425 107.062C664.347 107.062 668.816 111.375 668.8 118.688ZM652.144 118.688C652.128 123.859 654.737 126.656 658.425 126.656C662.128 126.656 664.722 123.859 664.706 118.688C664.722 113.516 662.128 110.719 658.425 110.719C654.737 110.719 652.128 113.516 652.144 118.688ZM699.013 118.688C699.028 126 694.559 130.312 688.638 130.312C682.684 130.312 678.247 125.984 678.263 118.688C678.247 111.375 682.684 107.062 688.638 107.062C694.559 107.062 699.028 111.375 699.013 118.688ZM682.356 118.688C682.341 123.859 684.95 126.656 688.638 126.656C692.341 126.656 694.934 123.859 694.919 118.688C694.934 113.516 692.341 110.719 688.638 110.719C684.95 110.719 682.341 113.516 682.356 118.688ZM709.038 130V107.375H713.1V117.781H713.413L722.256 107.375H727.225L718.475 117.531L727.319 130H722.413L715.631 120.281L713.1 123.25V130H709.038Z" fill="#ADB5BD"/>
<path d="M570.824 168.867V228.164H560.762V168.867H570.824ZM503.262 209.027C516.424 204.4 523.162 192.945 523.117 181.266V173.359H533.449V181.266C533.404 192.586 540.053 203.277 552.945 207.59L547.824 215.496C538.57 212.262 531.967 205.793 528.373 197.482C524.779 206.377 518.041 213.475 508.473 216.934L503.262 209.027ZM517.098 248.379V222.504H527.16V240.293H573.07V248.379H517.098ZM611.883 186.387C611.838 195.281 618.441 204.176 631.289 207.68L626.617 215.676C617.318 212.98 610.67 207.365 606.986 200.268C603.438 208.039 596.699 214.148 587.176 217.023L582.324 209.207C595.127 205.523 601.91 196.09 601.91 186.387V185.758H584.93V177.852H601.91V168.508H611.973V177.852H628.863V185.758H611.883V186.387ZM592.656 230.141V222.145H646.742V250.086H636.77V230.141H592.656ZM636.77 218.461V168.777H646.742V189.352H658.062V197.797H646.742V218.461H636.77ZM728.141 205.703V213.609H704.062V232.207H736.406V240.383H662.195V232.207H694.18V213.609H671.18V174.797H727.512V182.793H681.152V205.703H728.141ZM771.715 188.273C771.67 203.367 778.902 218.191 791.84 223.852L785.82 231.848C776.656 227.355 770.188 218.73 766.729 208.084C763.18 219.314 756.531 228.658 747.188 233.375L740.898 225.289C754.15 219.09 761.518 203.457 761.562 188.273V175.336H771.715V188.273ZM782.855 203.098V195.012H799.926V168.777H809.809V250.086H799.926V203.098H782.855Z" fill="white"/>
</g>
<defs>
<filter id="filter0_d_2498_7277" x="-38" y="-40" width="400" height="2240" filterUnits="userSpaceOnUse" color-interpolation-filters="sRGB">
<feFlood flood-opacity="0" result="BackgroundImageFix"/>
<feColorMatrix in="SourceAlpha" type="matrix" values="0 0 0 0 0 0 0 0 0 0 0 0 0 0 0 0 0 0 127 0" result="hardAlpha"/>
<feOffset dx="2"/>
<feGaussianBlur stdDeviation="20"/>
<feComposite in2="hardAlpha" operator="out"/>
<feColorMatrix type="matrix" values="0 0 0 0 0 0 0 0 0 0 0 0 0 0 0 0 0 0 0.1 0"/>
<feBlend mode="normal" in2="BackgroundImageFix" result="effect1_dropShadow_2498_7277"/>
<feBlend mode="normal" in="SourceGraphic" in2="effect1_dropShadow_2498_7277" result="shape"/>
</filter>
<linearGradient id="paint0_linear_2498_7277" x1="968" y1="-1.28119e-05" x2="1061.11" y2="809.069" gradientUnits="userSpaceOnUse">
<stop stop-color="#315FAD"/>
<stop offset="1" stop-color="#2A4F8C"/>
</linearGradient>
<clipPath id="clip0_2498_7277">
<rect width="3840" height="2160" fill="white"/>
</clipPath>
<clipPath id="clip1_2498_7277">
<rect width="96" height="96" fill="white" transform="translate(112 81.5)"/>
</clipPath>
<clipPath id="clip2_2498_7277">
<rect width="96" height="96" fill="white" transform="translate(112 441.5)"/>
</clipPath>
<clipPath id="clip3_2498_7277">
<rect width="96" height="96" fill="white" transform="translate(112 801.5)"/>
</clipPath>
<clipPath id="clip4_2498_7277">
<rect width="96" height="96" fill="white" transform="translate(112 1881.5)"/>
</clipPath>
</defs>
</svg>
