<svg width="2160" height="3840" viewBox="0 0 2160 3840" fill="none" xmlns="http://www.w3.org/2000/svg">
<g clip-path="url(#clip0_2498_5085)">
<rect width="2160" height="3840" fill="#F5F0EE"/>
<rect width="2160" height="2900" fill="url(#paint0_linear_2498_5085)"/>
<g filter="url(#filter0_d_2498_5085)">
<rect width="2160" height="320" transform="translate(0 3520)" fill="white"/>
<g clip-path="url(#clip1_2498_5085)">
<path d="M180 3669.5C184.4 3669.5 188 3665.9 188 3661.5H172C172 3665.9 175.6 3669.5 180 3669.5ZM204 3645.5V3625.5C204 3613.22 197.48 3602.94 186 3600.22V3597.5C186 3594.18 183.32 3591.5 180 3591.5C176.68 3591.5 174 3594.18 174 3597.5V3600.22C162.56 3602.94 156 3613.18 156 3625.5V3645.5L148 3653.5V3657.5H212V3653.5L204 3645.5ZM196 3649.5H164V3625.5C164 3615.58 170.04 3607.5 180 3607.5C189.96 3607.5 196 3615.58 196 3625.5V3649.5Z" fill="#ADB5BD"/>
</g>
<path d="M122.723 3720.76C131.166 3720.78 136.494 3723.44 136.516 3728.06C136.494 3732.57 131.166 3735.28 122.723 3735.28C114.365 3735.28 108.973 3732.57 108.973 3728.06C108.973 3723.44 114.365 3720.78 122.723 3720.76ZM105.32 3717.96V3714.1H118.984V3707.05H123.711V3714.1H140.555V3717.96H105.32ZM109.359 3702.11V3698.33H136.258V3701.55C136.279 3704.62 136.279 3707.89 135.184 3711.86L130.457 3711.43C131.424 3707.67 131.488 3704.92 131.488 3702.11H109.359ZM113.785 3728.06C113.742 3730.34 117.115 3731.59 122.723 3731.59C128.352 3731.59 131.746 3730.34 131.789 3728.06C131.746 3725.7 128.352 3724.37 122.723 3724.37C117.115 3724.37 113.742 3725.7 113.785 3728.06ZM157.914 3707.52C157.914 3713.88 161.652 3720.59 167.926 3723.21L165.305 3726.99C160.707 3724.99 157.355 3720.93 155.572 3715.99C153.789 3721.32 150.373 3725.79 145.84 3727.93L143.09 3724.2C149.213 3721.36 153.037 3714.12 153.059 3707.52V3704.26H144.508V3700.3H166.422V3704.26H157.914V3707.52ZM170.762 3735.32V3696.48H175.574V3735.32H170.762ZM195.168 3705.8C195.125 3712.74 198.605 3719.75 204.621 3722.65L201.699 3726.47C197.488 3724.35 194.459 3720.24 192.805 3715.3C191.107 3720.59 187.928 3724.97 183.48 3727.2L180.559 3723.38C186.811 3720.41 190.377 3712.98 190.398 3705.8V3699.62H195.168V3705.8ZM206.941 3735.32V3696.48H211.711V3711.69H217.684V3715.77H211.711V3735.32H206.941ZM249.953 3696.48V3706.71H255.367V3710.7H249.953V3721.27H245.184V3696.48H249.953ZM219.359 3704.17V3700.43H228.512V3696.22H233.281V3700.43H242.391V3704.17H219.359ZM221.336 3712.68C221.336 3708.51 225.203 3705.74 230.875 3705.72C236.482 3705.74 240.35 3708.51 240.371 3712.68C240.35 3716.85 236.482 3719.6 230.875 3719.6C225.203 3719.6 221.336 3716.85 221.336 3712.68ZM224.43 3728.45C224.387 3724.13 229.35 3721.6 237.406 3721.62C245.377 3721.6 250.383 3724.13 250.383 3728.45C250.383 3732.72 245.377 3735.28 237.406 3735.28C229.35 3735.28 224.387 3732.72 224.43 3728.45ZM225.977 3712.68C225.955 3714.79 227.932 3716.01 230.875 3715.99C233.818 3716.01 235.816 3714.79 235.816 3712.68C235.816 3710.53 233.818 3709.24 230.875 3709.24C227.932 3709.24 225.955 3710.53 225.977 3712.68ZM229.156 3728.45C229.135 3730.51 232.1 3731.67 237.406 3731.67C242.648 3731.67 245.592 3730.51 245.613 3728.45C245.592 3726.32 242.648 3725.27 237.406 3725.27C232.1 3725.27 229.135 3726.32 229.156 3728.45Z" fill="#ADB5BD"/>
<path d="M157.48 3759.36V3773.5H155.801L148.145 3762.48H148.008V3773.5H146.25V3759.36H147.949L155.605 3770.39H155.742V3759.36H157.48ZM172.559 3766.43C172.568 3770.9 169.932 3773.7 166.309 3773.7C162.676 3773.7 160.049 3770.9 160.059 3766.43C160.049 3761.96 162.676 3759.16 166.309 3759.16C169.932 3759.16 172.568 3761.96 172.559 3766.43ZM161.758 3766.43C161.768 3770.07 163.75 3772.04 166.309 3772.05C168.867 3772.04 170.85 3770.07 170.859 3766.43C170.85 3762.78 168.867 3760.8 166.309 3760.8C163.75 3760.8 161.768 3762.78 161.758 3766.43ZM173.77 3760.92V3759.36H184.434V3760.92H180V3773.5H178.223V3760.92H173.77ZM188.535 3759.36V3773.5H186.777V3759.36H188.535ZM201.309 3763.81C200.898 3761.86 199.229 3760.8 197.363 3760.8C194.805 3760.8 192.822 3762.78 192.812 3766.43C192.822 3770.07 194.805 3772.04 197.363 3772.05C199.229 3772.04 200.889 3771 201.309 3769.07H203.066C202.559 3771.96 200.234 3773.7 197.363 3773.7C193.73 3773.7 191.104 3770.9 191.113 3766.43C191.104 3761.96 193.73 3759.16 197.363 3759.16C200.225 3759.16 202.539 3760.87 203.066 3763.81H201.309ZM205.527 3773.5V3759.36H214.102V3760.92H207.285V3765.65H213.652V3767.19H207.285V3771.94H214.199V3773.5H205.527Z" fill="#ADB5BD"/>
<g clip-path="url(#clip2_2498_5085)">
<path d="M521.579 3625.96H514.211V3651.86H521.579V3625.96ZM543.684 3625.96H536.316V3651.86H543.684V3625.96ZM575 3659.26H505V3666.66H575V3659.26ZM565.789 3625.96H558.421V3651.86H565.789V3625.96ZM540 3601.02L559.195 3611.16H520.805L540 3601.02ZM540 3592.66L505 3611.16V3618.56H575V3611.16L540 3592.66Z" fill="#ADB5BD"/>
</g>
<path d="M497.246 3696.65V3735.24H493.164V3696.65H497.246ZM466.695 3713.02C466.695 3704.79 470.842 3699.55 476.664 3699.53C482.379 3699.55 486.59 3704.79 486.59 3713.02C486.59 3721.34 482.379 3726.58 476.664 3726.56C470.842 3726.58 466.695 3721.34 466.695 3713.02ZM470.648 3713.02C470.627 3719.15 473.076 3722.91 476.664 3722.91C480.188 3722.91 482.637 3719.15 482.637 3713.02C482.637 3706.99 480.188 3703.21 476.664 3703.18C473.076 3703.21 470.627 3706.99 470.648 3713.02ZM538.496 3715.43V3718.74H503.391V3715.43H511.812V3710.25C508.826 3709.05 507.15 3707.12 507.172 3704.56C507.15 3699.98 512.457 3697.32 520.922 3697.34C529.365 3697.32 534.65 3699.98 534.672 3704.56C534.65 3707.12 532.975 3709.05 529.988 3710.27V3715.43H538.496ZM507.559 3728.19C507.559 3723.79 512.543 3721.36 520.922 3721.36C529.193 3721.36 534.178 3723.79 534.199 3728.19C534.178 3732.64 529.193 3735.07 520.922 3735.07C512.543 3735.07 507.559 3732.64 507.559 3728.19ZM511.383 3704.56C511.361 3707.14 514.928 3708.58 520.922 3708.6C526.873 3708.58 530.482 3707.14 530.461 3704.56C530.482 3701.98 526.873 3700.5 520.922 3700.48C514.928 3700.5 511.361 3701.98 511.383 3704.56ZM511.684 3728.19C511.662 3730.6 515.035 3731.97 520.922 3731.93C526.723 3731.97 530.117 3730.6 530.117 3728.19C530.117 3725.83 526.723 3724.5 520.922 3724.5C515.035 3724.5 511.662 3725.83 511.684 3728.19ZM515.938 3715.43H525.949V3711.33C524.445 3711.56 522.748 3711.69 520.922 3711.69C519.117 3711.69 517.441 3711.56 515.938 3711.35V3715.43ZM571.668 3696.61V3708.12H577.254V3711.56H571.668V3724.93H567.586V3696.61H571.668ZM542.02 3708.86C541.977 3703.25 546.445 3699.29 552.246 3699.27C558.068 3699.29 562.473 3703.25 562.516 3708.86C562.473 3714.46 558.068 3718.46 552.246 3718.44C546.445 3718.46 541.977 3714.46 542.02 3708.86ZM546.016 3708.86C545.973 3712.44 548.723 3714.87 552.246 3714.87C555.812 3714.87 558.498 3712.44 558.52 3708.86C558.498 3705.27 555.812 3702.84 552.246 3702.84C548.723 3702.84 545.973 3705.27 546.016 3708.86ZM547.262 3734.34V3721.96H551.344V3731.03H573.301V3734.34H547.262ZM612.402 3696.65V3735.15H608.492V3715.43H603.551V3733.18H599.727V3697.43H603.551V3712.08H608.492V3696.65H612.402ZM581.25 3725.36V3701.21H585.332V3721.77C588.877 3721.72 592.766 3721.45 597.148 3720.59L597.578 3724.15C592.293 3725.1 587.889 3725.38 583.742 3725.36H581.25Z" fill="#ADB5BD"/>
<path d="M477.637 3759.36V3773.5H475.879V3759.36H477.637ZM491.992 3759.36V3773.5H490.312L482.656 3762.48H482.52V3773.5H480.762V3759.36H482.461L490.117 3770.39H490.254V3759.36H491.992ZM495.117 3773.5V3759.36H503.633V3760.92H496.875V3765.65H502.988V3767.19H496.875V3773.5H495.117ZM518.203 3766.43C518.213 3770.9 515.576 3773.7 511.953 3773.7C508.32 3773.7 505.693 3770.9 505.703 3766.43C505.693 3761.96 508.32 3759.16 511.953 3759.16C515.576 3759.16 518.213 3761.96 518.203 3766.43ZM507.402 3766.43C507.412 3770.07 509.395 3772.04 511.953 3772.05C514.512 3772.04 516.494 3770.07 516.504 3766.43C516.494 3762.78 514.512 3760.8 511.953 3760.8C509.395 3760.8 507.412 3762.78 507.402 3766.43ZM520.781 3773.5V3759.36H525.586C528.896 3759.36 530.41 3761.2 530.41 3763.71C530.41 3765.59 529.57 3767.05 527.773 3767.68L530.957 3773.5H528.906L525.947 3768C525.84 3768.01 525.723 3768.01 525.605 3768.01H522.539V3773.5H520.781ZM522.539 3766.41H525.527C527.783 3766.41 528.662 3765.39 528.672 3763.71C528.662 3762.03 527.783 3760.92 525.508 3760.92H522.539V3766.41ZM532.949 3759.36H535.059L539.824 3771H540L544.766 3759.36H546.875V3773.5H545.215V3762.82H545.078L540.684 3773.5H539.121L534.727 3762.82H534.609V3773.5H532.949V3759.36ZM550.625 3773.5H548.789L553.965 3759.36H555.82L560.996 3773.5H559.141L557.725 3769.52H552.041L550.625 3773.5ZM552.578 3767.97H557.188L554.941 3761.64H554.824L552.578 3767.97ZM560.469 3760.92V3759.36H571.133V3760.92H566.699V3773.5H564.922V3760.92H560.469ZM575.234 3759.36V3773.5H573.477V3759.36H575.234ZM590.312 3766.43C590.322 3770.9 587.686 3773.7 584.062 3773.7C580.43 3773.7 577.803 3770.9 577.812 3766.43C577.803 3761.96 580.43 3759.16 584.062 3759.16C587.686 3759.16 590.322 3761.96 590.312 3766.43ZM579.512 3766.43C579.521 3770.07 581.504 3772.04 584.062 3772.05C586.621 3772.04 588.604 3770.07 588.613 3766.43C588.604 3762.78 586.621 3760.8 584.062 3760.8C581.504 3760.8 579.521 3762.78 579.512 3766.43ZM604.121 3759.36V3773.5H602.441L594.785 3762.48H594.648V3773.5H592.891V3759.36H594.59L602.246 3770.39H602.383V3759.36H604.121Z" fill="#ADB5BD"/>
<g clip-path="url(#clip3_2498_5085)">
<path d="M900 3589.5C884.52 3589.5 872 3602.02 872 3617.5C872 3638.5 900 3669.5 900 3669.5C900 3669.5 928 3638.5 928 3617.5C928 3602.02 915.48 3589.5 900 3589.5ZM880 3617.5C880 3606.46 888.96 3597.5 900 3597.5C911.04 3597.5 920 3606.46 920 3617.5C920 3629.02 908.48 3646.26 900 3657.02C891.68 3646.34 880 3628.9 880 3617.5Z" fill="#ADB5BD"/>
<path d="M900 3627.5C905.523 3627.5 910 3623.02 910 3617.5C910 3611.98 905.523 3607.5 900 3607.5C894.477 3607.5 890 3611.98 890 3617.5C890 3623.02 894.477 3627.5 900 3627.5Z" fill="#ADB5BD"/>
</g>
<path d="M839.5 3706.45C839.457 3713.47 843.711 3720.56 849.684 3723.21L847.234 3726.43C842.809 3724.32 839.307 3720.01 837.502 3714.74C835.719 3720.39 832.174 3725.03 827.555 3727.29L825.062 3723.85C831.121 3721.17 835.375 3713.8 835.375 3706.45V3699.88H839.5V3706.45ZM853.164 3735.24V3696.65H857.246V3735.24H853.164ZM895.488 3696.65V3716.46H891.406V3706.58H883.285V3703.27H891.406V3696.65H895.488ZM863.262 3713.37C869.277 3711.46 872.865 3706.66 872.887 3701.25V3697.9H876.926V3701.25C876.926 3706.15 880.449 3710.7 886.25 3712.55L884.102 3715.73C879.869 3714.27 876.668 3711.37 874.971 3707.7C873.295 3711.84 870.008 3715.06 865.453 3716.63L863.262 3713.37ZM870.309 3721.49V3718.27H895.488V3727.85H874.391V3731.41H896.82V3734.68H870.395V3724.75H891.449V3721.49H870.309ZM931.668 3696.61V3708.12H937.254V3711.56H931.668V3724.93H927.586V3696.61H931.668ZM902.02 3708.86C901.977 3703.25 906.445 3699.29 912.246 3699.27C918.068 3699.29 922.473 3703.25 922.516 3708.86C922.473 3714.46 918.068 3718.46 912.246 3718.44C906.445 3718.46 901.977 3714.46 902.02 3708.86ZM906.016 3708.86C905.973 3712.44 908.723 3714.87 912.246 3714.87C915.812 3714.87 918.498 3712.44 918.52 3708.86C918.498 3705.27 915.812 3702.84 912.246 3702.84C908.723 3702.84 905.973 3705.27 906.016 3708.86ZM907.262 3734.34V3721.96H911.344V3731.03H933.301V3734.34H907.262ZM972.402 3696.65V3735.15H968.492V3715.43H963.551V3733.18H959.727V3697.43H963.551V3712.08H968.492V3696.65H972.402ZM941.25 3725.36V3701.21H945.332V3721.77C948.877 3721.72 952.766 3721.45 957.148 3720.59L957.578 3724.15C952.293 3725.1 947.889 3725.38 943.742 3725.36H941.25Z" fill="#ADB5BD"/>
<path d="M861.162 3773.5V3759.36H869.678V3760.92H862.92V3765.65H869.033V3767.19H862.92V3773.5H861.162ZM871.143 3773.5H869.307L874.482 3759.36H876.338L881.514 3773.5H879.658L878.242 3769.52H872.559L871.143 3773.5ZM873.096 3767.97H877.705L875.459 3761.64H875.342L873.096 3767.97ZM892.412 3763.81C892.002 3761.86 890.332 3760.8 888.467 3760.8C885.908 3760.8 883.926 3762.78 883.916 3766.43C883.926 3770.07 885.908 3772.04 888.467 3772.05C890.332 3772.04 891.992 3771 892.412 3769.07H894.17C893.662 3771.96 891.338 3773.7 888.467 3773.7C884.834 3773.7 882.207 3770.9 882.217 3766.43C882.207 3761.96 884.834 3759.16 888.467 3759.16C891.328 3759.16 893.643 3760.87 894.17 3763.81H892.412ZM898.389 3759.36V3773.5H896.631V3759.36H898.389ZM901.514 3773.5V3759.36H903.271V3771.94H909.834V3773.5H901.514ZM913.936 3759.36V3773.5H912.178V3759.36H913.936ZM916.279 3760.92V3759.36H926.943V3760.92H922.51V3773.5H920.732V3760.92H916.279ZM928.076 3759.36H930.088L933.975 3765.92H934.15L938.037 3759.36H940.068L934.951 3767.7V3773.5H933.174V3767.7L928.076 3759.36Z" fill="#ADB5BD"/>
<path d="M1296.68 3575.74C1293.81 3575.25 1290.91 3574.99 1288 3574.98C1278.07 3574.97 1268.35 3577.82 1260 3583.18C1251.62 3577.89 1241.9 3575.11 1232 3575.18C1229.09 3575.19 1226.19 3575.45 1223.32 3575.94C1222.38 3576.1 1221.53 3576.59 1220.92 3577.33C1220.31 3578.06 1219.98 3578.99 1220 3579.94V3627.94C1219.99 3628.53 1220.11 3629.11 1220.35 3629.65C1220.6 3630.18 1220.95 3630.66 1221.4 3631.04C1221.85 3631.42 1222.37 3631.7 1222.94 3631.86C1223.51 3632.01 1224.1 3632.04 1224.68 3631.94C1230.41 3630.95 1236.28 3631.11 1241.95 3632.42C1247.62 3633.74 1252.97 3636.17 1257.68 3639.58L1258.16 3639.86H1258.6C1259.04 3640.05 1259.52 3640.14 1260 3640.14C1260.48 3640.14 1260.95 3640.05 1261.4 3639.86H1261.84L1262.32 3639.58C1267 3636.09 1272.33 3633.58 1278 3632.19C1283.67 3630.81 1289.56 3630.57 1295.32 3631.5C1295.9 3631.6 1296.49 3631.57 1297.06 3631.42C1297.63 3631.26 1298.15 3630.98 1298.6 3630.6C1299.04 3630.22 1299.4 3629.74 1299.64 3629.21C1299.89 3628.67 1300.01 3628.09 1300 3627.5V3579.5C1299.96 3578.59 1299.6 3577.72 1299 3577.04C1298.4 3576.35 1297.58 3575.89 1296.68 3575.74ZM1256 3628.9C1248.6 3625.01 1240.36 3622.98 1232 3622.98C1230.68 3622.98 1229.36 3622.98 1228 3622.98V3582.98C1229.33 3582.9 1230.67 3582.9 1232 3582.98C1240.53 3582.97 1248.88 3585.48 1256 3590.18V3628.9ZM1292 3623.14C1290.64 3623.14 1289.32 3623.14 1288 3623.14C1279.64 3623.14 1271.4 3625.17 1264 3629.06V3590.18C1271.12 3585.48 1279.46 3582.97 1288 3582.98C1289.33 3582.9 1290.67 3582.9 1292 3582.98V3623.14ZM1296.68 3639.74C1293.81 3639.25 1290.91 3638.99 1288 3638.98C1278.07 3638.97 1268.35 3641.82 1260 3647.18C1251.64 3641.82 1241.92 3638.97 1232 3638.98C1229.09 3638.99 1226.19 3639.25 1223.32 3639.74C1222.8 3639.82 1222.3 3640.01 1221.85 3640.28C1221.4 3640.56 1221.01 3640.92 1220.7 3641.35C1220.39 3641.78 1220.17 3642.26 1220.05 3642.78C1219.93 3643.29 1219.91 3643.82 1220 3644.34C1220.2 3645.38 1220.81 3646.3 1221.69 3646.89C1222.56 3647.48 1223.64 3647.7 1224.68 3647.5C1230.41 3646.51 1236.28 3646.67 1241.95 3647.98C1247.62 3649.3 1252.97 3651.73 1257.68 3655.14C1258.36 3655.62 1259.17 3655.88 1260 3655.88C1260.83 3655.88 1261.64 3655.62 1262.32 3655.14C1267.03 3651.73 1272.38 3649.3 1278.05 3647.98C1283.71 3646.67 1289.59 3646.51 1295.32 3647.5C1296.36 3647.7 1297.43 3647.48 1298.31 3646.89C1299.19 3646.3 1299.8 3645.38 1300 3644.34C1300.08 3643.82 1300.07 3643.29 1299.95 3642.78C1299.82 3642.26 1299.6 3641.78 1299.29 3641.35C1298.99 3640.92 1298.6 3640.56 1298.15 3640.28C1297.7 3640.01 1297.2 3639.82 1296.68 3639.74Z" fill="#191F28"/>
<path d="M1217.59 3682.52V3710.88H1212.78V3682.52H1217.59ZM1185.28 3701.73C1191.57 3699.52 1194.79 3694.04 1194.77 3688.45V3684.67H1199.71V3688.45C1199.69 3693.87 1202.87 3698.98 1209.04 3701.04L1206.59 3704.82C1202.16 3703.28 1199.01 3700.18 1197.29 3696.21C1195.57 3700.46 1192.35 3703.86 1187.77 3705.51L1185.28 3701.73ZM1191.89 3720.55V3708.18H1196.71V3716.68H1218.66V3720.55H1191.89ZM1237.23 3690.9C1237.21 3695.16 1240.36 3699.41 1246.51 3701.09L1244.27 3704.91C1239.83 3703.62 1236.65 3700.94 1234.88 3697.54C1233.19 3701.26 1229.96 3704.18 1225.41 3705.55L1223.09 3701.82C1229.21 3700.05 1232.46 3695.54 1232.46 3690.9V3690.6H1224.34V3686.82H1232.46V3682.35H1237.27V3686.82H1245.35V3690.6H1237.23V3690.9ZM1228.03 3711.83V3708H1253.9V3721.37H1249.13V3711.83H1228.03ZM1249.13 3706.24V3682.48H1253.9V3692.32H1259.31V3696.36H1253.9V3706.24H1249.13ZM1292.83 3700.14V3703.92H1281.31V3712.82H1296.78V3716.73H1261.29V3712.82H1276.59V3703.92H1265.59V3685.36H1292.53V3689.18H1270.36V3700.14H1292.83ZM1313.67 3691.8C1313.65 3699.02 1317.11 3706.11 1323.29 3708.82L1320.41 3712.64C1316.03 3710.5 1312.94 3706.37 1311.28 3701.28C1309.59 3706.65 1306.41 3711.12 1301.94 3713.38L1298.93 3709.51C1305.27 3706.54 1308.79 3699.07 1308.81 3691.8V3685.62H1313.67V3691.8ZM1319 3698.89V3695.03H1327.16V3682.48H1331.89V3721.37H1327.16V3698.89H1319Z" fill="#191F28"/>
<path d="M1168.02 3745.36V3759.5H1166.34L1158.68 3748.48H1158.54V3759.5H1156.79V3745.36H1158.49L1166.14 3756.39H1166.28V3745.36H1168.02ZM1171.14 3759.5V3745.36H1179.72V3746.92H1172.9V3751.65H1179.27V3753.19H1172.9V3757.94H1179.81V3759.5H1171.14ZM1185.11 3759.5L1181.24 3745.36H1183.02L1185.97 3756.8H1186.1L1189.09 3745.36H1191.06L1194.07 3756.8H1194.19L1197.14 3745.36H1198.92L1195.05 3759.5H1193.23L1190.15 3748.31H1190.03L1186.92 3759.5H1185.11ZM1206.44 3759.5H1204.6L1209.78 3745.36H1211.63L1216.81 3759.5H1214.95L1213.54 3755.52H1207.85L1206.44 3759.5ZM1208.39 3753.97H1213L1210.75 3747.64H1210.63L1208.39 3753.97ZM1218.72 3759.5V3745.36H1223.53C1226.84 3745.36 1228.35 3747.2 1228.35 3749.71C1228.35 3751.59 1227.51 3753.05 1225.71 3753.68L1228.9 3759.5H1226.85L1223.89 3754C1223.78 3754.01 1223.66 3754.01 1223.54 3754.01H1220.48V3759.5H1218.72ZM1220.48 3752.41H1223.47C1225.72 3752.41 1226.6 3751.39 1226.61 3749.71C1226.6 3748.03 1225.72 3746.92 1223.45 3746.92H1220.48V3752.41ZM1230.89 3759.5V3745.36H1235.69C1239 3745.36 1240.52 3747.2 1240.52 3749.71C1240.52 3751.59 1239.68 3753.05 1237.88 3753.68L1241.06 3759.5H1239.01L1236.05 3754C1235.95 3754.01 1235.83 3754.01 1235.71 3754.01H1232.65V3759.5H1230.89ZM1232.65 3752.41H1235.63C1237.89 3752.41 1238.77 3751.39 1238.78 3749.71C1238.77 3748.03 1237.89 3746.92 1235.62 3746.92H1232.65V3752.41ZM1244.81 3745.36V3759.5H1243.06V3745.36H1244.81ZM1248.58 3745.36L1252.74 3757.21H1252.9L1257.08 3745.36H1258.94L1253.76 3759.5H1251.9L1246.73 3745.36H1248.58ZM1260.22 3759.5H1258.39L1263.56 3745.36H1265.42L1270.6 3759.5H1268.74L1267.32 3755.52H1261.64L1260.22 3759.5ZM1262.18 3753.97H1266.79L1264.54 3747.64H1264.42L1262.18 3753.97ZM1272.51 3759.5V3745.36H1274.27V3757.94H1280.83V3759.5H1272.51ZM1290.89 3748.91C1290.74 3747.53 1289.45 3746.73 1287.76 3746.73C1285.89 3746.73 1284.67 3747.7 1284.66 3749.05C1284.67 3750.54 1286.32 3751.09 1287.39 3751.36L1288.8 3751.75C1290.31 3752.14 1292.8 3753.01 1292.8 3755.65C1292.8 3757.96 1290.95 3759.74 1287.67 3759.75C1284.62 3759.74 1282.73 3758.17 1282.57 3755.83H1284.37C1284.51 3757.41 1285.99 3758.16 1287.67 3758.15C1289.62 3758.16 1291.08 3757.16 1291.08 3755.61C1291.08 3754.24 1289.78 3753.71 1288.29 3753.29L1286.55 3752.82C1284.34 3752.18 1282.95 3751.04 1282.96 3749.13C1282.95 3746.74 1285.08 3745.16 1287.82 3745.16C1290.57 3745.16 1292.54 3746.77 1292.61 3748.91H1290.89ZM1300.34 3759.5V3745.36H1305.3C1308.27 3745.36 1309.67 3747.03 1309.66 3749.11C1309.67 3750.93 1308.58 3751.74 1307.35 3752.08V3752.21C1308.67 3752.29 1310.21 3753.5 1310.22 3755.75C1310.21 3757.87 1308.82 3759.5 1305.48 3759.5H1300.34ZM1302.1 3757.94H1305.46C1307.68 3757.94 1308.54 3756.96 1308.53 3755.73C1308.54 3754.29 1307.37 3753.07 1305.56 3753.07H1302.1V3757.94ZM1302.1 3751.55H1305.24C1306.78 3751.56 1307.98 3750.6 1307.98 3749.13C1307.98 3747.9 1307.15 3746.92 1305.3 3746.92H1302.1V3751.55ZM1324.68 3752.43C1324.69 3756.9 1322.05 3759.7 1318.43 3759.7C1314.79 3759.7 1312.17 3756.9 1312.18 3752.43C1312.17 3747.96 1314.79 3745.16 1318.43 3745.16C1322.05 3745.16 1324.69 3747.96 1324.68 3752.43ZM1313.88 3752.43C1313.89 3756.07 1315.87 3758.04 1318.43 3758.05C1320.99 3758.04 1322.97 3756.07 1322.98 3752.43C1322.97 3748.78 1320.99 3746.8 1318.43 3746.8C1315.87 3746.8 1313.89 3748.78 1313.88 3752.43ZM1339.21 3752.43C1339.22 3756.9 1336.58 3759.7 1332.96 3759.7C1329.33 3759.7 1326.7 3756.9 1326.71 3752.43C1326.7 3747.96 1329.33 3745.16 1332.96 3745.16C1336.58 3745.16 1339.22 3747.96 1339.21 3752.43ZM1328.41 3752.43C1328.42 3756.07 1330.4 3758.04 1332.96 3758.05C1335.52 3758.04 1337.5 3756.07 1337.51 3752.43C1337.5 3748.78 1335.52 3746.8 1332.96 3746.8C1330.4 3746.8 1328.42 3748.78 1328.41 3752.43ZM1341.79 3759.5V3745.36H1343.54V3752.35H1343.72L1350.01 3745.36H1352.31L1346.4 3751.75L1352.31 3759.5H1350.17L1345.3 3752.96L1343.54 3754.95V3759.5H1341.79ZM1361.9 3748.91C1361.76 3747.53 1360.47 3746.73 1358.78 3746.73C1356.9 3746.73 1355.68 3747.7 1355.67 3749.05C1355.68 3750.54 1357.33 3751.09 1358.41 3751.36L1359.81 3751.75C1361.33 3752.14 1363.82 3753.01 1363.82 3755.65C1363.82 3757.96 1361.96 3759.74 1358.68 3759.75C1355.63 3759.74 1353.75 3758.17 1353.58 3755.83H1355.38C1355.53 3757.41 1357 3758.16 1358.68 3758.15C1360.63 3758.16 1362.1 3757.16 1362.1 3755.61C1362.1 3754.24 1360.79 3753.71 1359.31 3753.29L1357.57 3752.82C1355.35 3752.18 1353.96 3751.04 1353.97 3749.13C1353.96 3746.74 1356.09 3745.16 1358.84 3745.16C1361.58 3745.16 1363.55 3746.77 1363.62 3748.91H1361.9Z" fill="#191F28"/>
<path d="M1200 3792.5C1246.86 3792.5 1273.14 3792.5 1320 3792.5" stroke="#191F28" stroke-width="7" stroke-linecap="round"/>
<path d="M1656 3597.5H1644V3593.5C1644 3592.44 1643.58 3591.42 1642.83 3590.67C1642.08 3589.92 1641.06 3589.5 1640 3589.5H1600C1598.94 3589.5 1597.92 3589.92 1597.17 3590.67C1596.42 3591.42 1596 3592.44 1596 3593.5V3597.5H1584C1582.94 3597.5 1581.92 3597.92 1581.17 3598.67C1580.42 3599.42 1580 3600.44 1580 3601.5V3613.5C1580 3617.74 1581.69 3621.81 1584.69 3624.81C1587.69 3627.81 1591.76 3629.5 1596 3629.5H1602.16C1605.78 3633.54 1610.66 3636.23 1616 3637.14V3645.5H1612C1608.82 3645.5 1605.77 3646.76 1603.51 3649.01C1601.26 3651.27 1600 3654.32 1600 3657.5V3665.5C1600 3666.56 1600.42 3667.58 1601.17 3668.33C1601.92 3669.08 1602.94 3669.5 1604 3669.5H1636C1637.06 3669.5 1638.08 3669.08 1638.83 3668.33C1639.58 3667.58 1640 3666.56 1640 3665.5V3657.5C1640 3654.32 1638.74 3651.27 1636.49 3649.01C1634.23 3646.76 1631.18 3645.5 1628 3645.5H1624V3637.14C1629.34 3636.23 1634.22 3633.54 1637.84 3629.5H1644C1648.24 3629.5 1652.31 3627.81 1655.31 3624.81C1658.31 3621.81 1660 3617.74 1660 3613.5V3601.5C1660 3600.44 1659.58 3599.42 1658.83 3598.67C1658.08 3597.92 1657.06 3597.5 1656 3597.5ZM1596 3621.5C1593.88 3621.5 1591.84 3620.66 1590.34 3619.16C1588.84 3617.66 1588 3615.62 1588 3613.5V3605.5H1596V3613.5C1596.01 3616.23 1596.48 3618.93 1597.4 3621.5H1596ZM1628 3653.5C1629.06 3653.5 1630.08 3653.92 1630.83 3654.67C1631.58 3655.42 1632 3656.44 1632 3657.5V3661.5H1608V3657.5C1608 3656.44 1608.42 3655.42 1609.17 3654.67C1609.92 3653.92 1610.94 3653.5 1612 3653.5H1628ZM1636 3613.5C1636 3617.74 1634.31 3621.81 1631.31 3624.81C1628.31 3627.81 1624.24 3629.5 1620 3629.5C1615.76 3629.5 1611.69 3627.81 1608.69 3624.81C1605.69 3621.81 1604 3617.74 1604 3613.5V3597.5H1636V3613.5ZM1652 3613.5C1652 3615.62 1651.16 3617.66 1649.66 3619.16C1648.16 3620.66 1646.12 3621.5 1644 3621.5H1642.6C1643.52 3618.93 1643.99 3616.23 1644 3613.5V3605.5H1652V3613.5Z" fill="#ADB5BD"/>
<path d="M1559.39 3696.65V3735.15H1555.48V3715.26H1550.5V3733.18H1546.76V3697.43H1550.5V3711.91H1555.48V3696.65H1559.39ZM1527.64 3725.91V3701.29H1542.08V3704.6H1531.72V3722.43C1536.45 3722.41 1540.01 3722.2 1544.14 3721.4L1544.44 3724.75C1539.82 3725.72 1535.82 3725.87 1530.22 3725.91H1527.64ZM1599.44 3713.54V3716.59H1583.93V3719.81H1595.06V3728.49H1572.63V3731.67H1596.13V3734.77H1568.63V3725.66H1591.02V3722.78H1568.59V3719.81H1579.89V3716.59H1564.42V3713.54H1599.44ZM1566.14 3708.94C1573.51 3708.53 1578.71 3706.28 1579.54 3703.01H1567.9V3699.88H1579.89V3696.48H1583.93V3699.88H1595.96V3703.01H1584.25C1585.07 3706.28 1590.27 3708.53 1597.72 3708.94L1596.47 3712.04C1589.77 3711.54 1584.31 3709.59 1581.91 3706.21C1579.5 3709.59 1574.04 3711.54 1567.3 3712.04L1566.14 3708.94ZM1607.56 3700.35V3709.59H1614.95V3700.35H1618.69V3711.09H1623.8V3697.43H1627.71V3733.3H1623.8V3714.48H1618.69V3725.66H1603.69V3700.35H1607.56ZM1607.56 3722.26H1614.95V3712.89H1607.56V3722.26ZM1631.62 3735.15V3696.65H1635.53V3735.15H1631.62ZM1659.98 3702.11C1659.98 3708.38 1666.66 3714.31 1674.08 3715.64L1672.19 3719.04C1666.02 3717.71 1660.37 3713.67 1657.88 3708.25C1655.34 3713.65 1649.69 3717.66 1643.53 3719.04L1641.72 3715.64C1649.03 3714.27 1655.66 3708.38 1655.69 3702.11V3699.19H1659.98V3702.11ZM1640.43 3730.08V3726.69H1675.67V3730.08H1640.43ZM1709.7 3717.15V3720.41H1682.88V3699.83H1709.31V3703.14H1687.01V3708.34H1708.49V3711.56H1687.01V3717.15H1709.7ZM1678.46 3730.3V3726.95H1713.69V3730.3H1678.46Z" fill="#ADB5BD"/>
<path d="M1529.55 3773.5V3759.36H1534.51C1537.48 3759.36 1538.88 3761.03 1538.87 3763.11C1538.88 3764.93 1537.79 3765.74 1536.56 3766.08V3766.21C1537.88 3766.29 1539.42 3767.5 1539.43 3769.75C1539.42 3771.87 1538.03 3773.5 1534.69 3773.5H1529.55ZM1531.31 3771.94H1534.67C1536.88 3771.94 1537.74 3770.96 1537.73 3769.73C1537.74 3768.29 1536.58 3767.07 1534.77 3767.07H1531.31V3771.94ZM1531.31 3765.55H1534.45C1535.99 3765.56 1537.19 3764.6 1537.19 3763.13C1537.19 3761.9 1536.36 3760.92 1534.51 3760.92H1531.31V3765.55ZM1541.93 3773.5V3759.36H1550.51V3760.92H1543.69V3765.65H1550.06V3767.19H1543.69V3771.94H1550.61V3773.5H1541.93ZM1561 3762.91C1560.85 3761.53 1559.56 3760.73 1557.87 3760.73C1556 3760.73 1554.78 3761.7 1554.77 3763.05C1554.78 3764.54 1556.43 3765.09 1557.5 3765.36L1558.91 3765.75C1560.42 3766.14 1562.91 3767.01 1562.91 3769.65C1562.91 3771.96 1561.05 3773.74 1557.77 3773.75C1554.73 3773.74 1552.84 3772.17 1552.68 3769.83H1554.47C1554.62 3771.41 1556.09 3772.16 1557.77 3772.15C1559.73 3772.16 1561.19 3771.16 1561.19 3769.61C1561.19 3768.24 1559.88 3767.71 1558.4 3767.29L1556.66 3766.82C1554.44 3766.18 1553.06 3765.04 1553.07 3763.13C1553.06 3760.74 1555.19 3759.16 1557.93 3759.16C1560.67 3759.16 1562.65 3760.77 1562.71 3762.91H1561ZM1564.65 3760.92V3759.36H1575.31V3760.92H1570.88V3773.5H1569.1V3760.92H1564.65ZM1582.68 3773.5V3759.36H1587.48C1590.79 3759.36 1592.3 3761.2 1592.3 3763.71C1592.3 3765.59 1591.46 3767.05 1589.67 3767.68L1592.85 3773.5H1590.8L1587.84 3768C1587.73 3768.01 1587.62 3768.01 1587.5 3768.01H1584.43V3773.5H1582.68ZM1584.43 3766.41H1587.42C1589.68 3766.41 1590.56 3765.39 1590.57 3763.71C1590.56 3762.03 1589.68 3760.92 1587.4 3760.92H1584.43V3766.41ZM1594.84 3773.5V3759.36H1603.42V3760.92H1596.6V3765.65H1602.97V3767.19H1596.6V3771.94H1603.52V3773.5H1594.84ZM1617.42 3759.36V3773.5H1615.74L1608.09 3762.48H1607.95V3773.5H1606.19V3759.36H1607.89L1615.55 3770.39H1615.68V3759.36H1617.42ZM1619.77 3760.92V3759.36H1630.43V3760.92H1626V3773.5H1624.22V3760.92H1619.77ZM1631.74 3773.5H1629.9L1635.08 3759.36H1636.93L1642.11 3773.5H1640.25L1638.84 3769.52H1633.15L1631.74 3773.5ZM1633.69 3767.97H1638.3L1636.05 3761.64H1635.94L1633.69 3767.97ZM1644.02 3773.5V3759.36H1645.78V3771.94H1652.34V3773.5H1644.02ZM1659.71 3773.5V3759.36H1664.67C1667.64 3759.36 1669.03 3761.03 1669.02 3763.11C1669.03 3764.93 1667.95 3765.74 1666.72 3766.08V3766.21C1668.04 3766.29 1669.58 3767.5 1669.59 3769.75C1669.58 3771.87 1668.18 3773.5 1664.84 3773.5H1659.71ZM1661.46 3771.94H1664.82C1667.04 3771.94 1667.9 3770.96 1667.89 3769.73C1667.9 3768.29 1666.74 3767.07 1664.92 3767.07H1661.46V3771.94ZM1661.46 3765.55H1664.61C1666.14 3765.56 1667.34 3764.6 1667.34 3763.13C1667.34 3761.9 1666.51 3760.92 1664.67 3760.92H1661.46V3765.55ZM1684.04 3766.43C1684.05 3770.9 1681.42 3773.7 1677.79 3773.7C1674.16 3773.7 1671.53 3770.9 1671.54 3766.43C1671.53 3761.96 1674.16 3759.16 1677.79 3759.16C1681.42 3759.16 1684.05 3761.96 1684.04 3766.43ZM1673.24 3766.43C1673.25 3770.07 1675.23 3772.04 1677.79 3772.05C1680.35 3772.04 1682.33 3770.07 1682.34 3766.43C1682.33 3762.78 1680.35 3760.8 1677.79 3760.8C1675.23 3760.8 1673.25 3762.78 1673.24 3766.43ZM1698.57 3766.43C1698.58 3770.9 1695.95 3773.7 1692.32 3773.7C1688.69 3773.7 1686.06 3770.9 1686.07 3766.43C1686.06 3761.96 1688.69 3759.16 1692.32 3759.16C1695.95 3759.16 1698.58 3761.96 1698.57 3766.43ZM1687.77 3766.43C1687.78 3770.07 1689.77 3772.04 1692.32 3772.05C1694.88 3772.04 1696.87 3770.07 1696.88 3766.43C1696.87 3762.78 1694.88 3760.8 1692.32 3760.8C1689.77 3760.8 1687.78 3762.78 1687.77 3766.43ZM1701.15 3773.5V3759.36H1702.91V3766.35H1703.09L1709.38 3759.36H1711.68L1705.76 3765.75L1711.68 3773.5H1709.53L1704.67 3766.96L1702.91 3768.95V3773.5H1701.15Z" fill="#ADB5BD"/>
<g clip-path="url(#clip4_2498_5085)">
<path d="M1968 3629.5C1975.72 3629.5 1982 3623.22 1982 3615.5C1982 3607.78 1975.72 3601.5 1968 3601.5C1960.28 3601.5 1954 3607.78 1954 3615.5C1954 3623.22 1960.28 3629.5 1968 3629.5ZM1968 3609.5C1971.32 3609.5 1974 3612.18 1974 3615.5C1974 3618.82 1971.32 3621.5 1968 3621.5C1964.68 3621.5 1962 3618.82 1962 3615.5C1962 3612.18 1964.68 3609.5 1968 3609.5ZM1968.2 3649.5H1951.08C1955.04 3647.5 1961.88 3645.5 1968 3645.5C1968.44 3645.5 1968.92 3645.54 1969.36 3645.54C1970.72 3642.62 1973.08 3640.22 1975.92 3638.3C1973 3637.78 1970.24 3637.5 1968 3637.5C1958.64 3637.5 1940 3642.18 1940 3651.5V3657.5H1968V3651.5C1968 3650.82 1968.08 3650.14 1968.2 3649.5ZM1998 3639.5C1990.64 3639.5 1976 3643.54 1976 3651.5V3657.5H2020V3651.5C2020 3643.54 2005.36 3639.5 1998 3639.5ZM2002.84 3632.22C2005.88 3630.5 2008 3627.26 2008 3623.5C2008 3617.98 2003.52 3613.5 1998 3613.5C1992.48 3613.5 1988 3617.98 1988 3623.5C1988 3627.26 1990.12 3630.5 1993.16 3632.22C1994.6 3633.02 1996.24 3633.5 1998 3633.5C1999.76 3633.5 2001.4 3633.02 2002.84 3632.22Z" fill="#ADB5BD"/>
</g>
<path d="M1935.61 3696.65V3706.36H1941.2V3709.67H1935.61V3719.51H1931.53V3696.65H1935.61ZM1905.32 3716.5C1914.34 3713.97 1919.87 3708.94 1920.62 3702.71H1907.04V3699.4H1925.04C1925.04 3709.35 1918.28 3716.55 1907 3719.81L1905.32 3716.5ZM1910.56 3727.5C1910.52 3722.82 1915.59 3719.92 1923.32 3719.94C1931.08 3719.92 1936.04 3722.82 1936.04 3727.5C1936.04 3732.23 1931.08 3735.09 1923.32 3735.11C1915.59 3735.09 1910.52 3732.23 1910.56 3727.5ZM1914.6 3727.5C1914.58 3730.21 1917.93 3731.87 1923.32 3731.89C1928.67 3731.87 1932.05 3730.21 1932.05 3727.5C1932.05 3724.8 1928.67 3723.14 1923.32 3723.16C1917.93 3723.14 1914.58 3724.8 1914.6 3727.5ZM1957.18 3703.48C1957.18 3708.17 1960.75 3712.42 1966.55 3714.14L1964.62 3717.36C1960.17 3716.01 1956.88 3713.2 1955.19 3709.54C1953.47 3713.52 1950.05 3716.57 1945.5 3718.01L1943.43 3714.83C1949.38 3713 1953.04 3708.53 1953.06 3703.48V3703.44H1944.68V3700.05H1965.56V3703.44H1957.18V3703.48ZM1942.92 3723.94C1945.93 3723.94 1949.45 3723.96 1953.1 3723.85V3716.42H1957.18V3723.72C1960.51 3723.55 1963.89 3723.29 1967.02 3722.86L1967.32 3725.83C1959.07 3727.33 1950.14 3727.31 1943.52 3727.33L1942.92 3723.94ZM1969.34 3735.15V3696.65H1973.43V3712.38H1979.36V3715.82H1973.43V3735.15H1969.34ZM2011.67 3696.61V3708.12H2017.25V3711.56H2011.67V3724.93H2007.59V3696.61H2011.67ZM1982.02 3708.86C1981.98 3703.25 1986.45 3699.29 1992.25 3699.27C1998.07 3699.29 2002.47 3703.25 2002.52 3708.86C2002.47 3714.46 1998.07 3718.46 1992.25 3718.44C1986.45 3718.46 1981.98 3714.46 1982.02 3708.86ZM1986.02 3708.86C1985.97 3712.44 1988.72 3714.87 1992.25 3714.87C1995.81 3714.87 1998.5 3712.44 1998.52 3708.86C1998.5 3705.27 1995.81 3702.84 1992.25 3702.84C1988.72 3702.84 1985.97 3705.27 1986.02 3708.86ZM1987.26 3734.34V3721.96H1991.34V3731.03H2013.3V3734.34H1987.26ZM2052.4 3696.65V3735.15H2048.49V3715.43H2043.55V3733.18H2039.73V3697.43H2043.55V3712.08H2048.49V3696.65H2052.4ZM2021.25 3725.36V3701.21H2025.33V3721.77C2028.88 3721.72 2032.77 3721.45 2037.15 3720.59L2037.58 3724.15C2032.29 3725.1 2027.89 3725.38 2023.74 3725.36H2021.25Z" fill="#ADB5BD"/>
<path d="M1941.76 3763.81C1941.35 3761.86 1939.68 3760.8 1937.81 3760.8C1935.25 3760.8 1933.27 3762.78 1933.26 3766.43C1933.27 3770.07 1935.25 3772.04 1937.81 3772.05C1939.68 3772.04 1941.34 3771 1941.76 3769.07H1943.52C1943.01 3771.96 1940.68 3773.7 1937.81 3773.7C1934.18 3773.7 1931.55 3770.9 1931.56 3766.43C1931.55 3761.96 1934.18 3759.16 1937.81 3759.16C1940.67 3759.16 1942.99 3760.87 1943.52 3763.81H1941.76ZM1955.23 3759.36H1956.99V3768.71C1956.99 3771.62 1954.81 3773.74 1951.48 3773.75C1948.14 3773.74 1945.98 3771.62 1945.98 3768.71V3759.36H1947.73V3768.58C1947.72 3770.63 1949.15 3772.1 1951.48 3772.11C1953.82 3772.1 1955.22 3770.63 1955.23 3768.58V3759.36ZM1960.12 3773.5V3759.36H1961.88V3771.94H1968.44V3773.5H1960.12ZM1968.12 3760.92V3759.36H1978.79V3760.92H1974.36V3773.5H1972.58V3760.92H1968.12ZM1990.39 3759.36H1992.15V3768.71C1992.15 3771.62 1989.97 3773.74 1986.64 3773.75C1983.3 3773.74 1981.13 3771.62 1981.13 3768.71V3759.36H1982.89V3768.58C1982.88 3770.63 1984.31 3772.1 1986.64 3772.11C1988.97 3772.1 1990.38 3770.63 1990.39 3768.58V3759.36ZM1995.27 3773.5V3759.36H2000.08C2003.39 3759.36 2004.9 3761.2 2004.9 3763.71C2004.9 3765.59 2004.06 3767.05 2002.27 3767.68L2005.45 3773.5H2003.4L2000.44 3768C2000.33 3768.01 2000.21 3768.01 2000.1 3768.01H1997.03V3773.5H1995.27ZM1997.03 3766.41H2000.02C2002.28 3766.41 2003.15 3765.39 2003.16 3763.71C2003.15 3762.03 2002.28 3760.92 2000 3760.92H1997.03V3766.41ZM2008.07 3773.5H2006.23L2011.41 3759.36H2013.26L2018.44 3773.5H2016.58L2015.17 3769.52H2009.48L2008.07 3773.5ZM2010.02 3767.97H2014.63L2012.38 3761.64H2012.27L2010.02 3767.97ZM2020.35 3773.5V3759.36H2022.11V3771.94H2028.67V3773.5H2020.35Z" fill="#ADB5BD"/>
</g>
<path d="M182.797 170V147.375H190.734C195.484 147.375 197.719 150.047 197.703 153.375C197.719 156.281 195.984 157.578 194.016 158.125V158.344C196.125 158.469 198.594 160.406 198.609 164C198.594 167.391 196.359 170 191.016 170H182.797ZM185.609 167.5H190.984C194.531 167.5 195.906 165.938 195.891 163.969C195.906 161.672 194.047 159.719 191.141 159.719H185.609V167.5ZM185.609 157.281H190.641C193.094 157.297 195.016 155.766 195.016 153.406C195.016 151.438 193.688 149.875 190.734 149.875H185.609V157.281ZM228.134 158.688C228.15 165.844 223.931 170.312 218.134 170.312C212.322 170.312 208.119 165.844 208.134 158.688C208.119 151.531 212.322 147.062 218.134 147.062C223.931 147.062 228.15 151.531 228.134 158.688ZM210.853 158.688C210.869 164.516 214.041 167.672 218.134 167.688C222.228 167.672 225.4 164.516 225.416 158.688C225.4 152.844 222.228 149.688 218.134 149.688C214.041 149.688 210.869 152.844 210.853 158.688ZM257.784 158.688C257.8 165.844 253.581 170.312 247.784 170.312C241.972 170.312 237.769 165.844 237.784 158.688C237.769 151.531 241.972 147.062 247.784 147.062C253.581 147.062 257.8 151.531 257.784 158.688ZM240.503 158.688C240.519 164.516 243.691 167.672 247.784 167.688C251.878 167.672 255.05 164.516 255.066 158.688C255.05 152.844 251.878 149.688 247.784 149.688C243.691 149.688 240.519 152.844 240.503 158.688ZM268.309 170V147.375H271.122V158.562H271.403L281.466 147.375H285.153L275.684 157.594L285.153 170H281.716L273.934 159.531L271.122 162.719V170H268.309ZM311.828 147.375V170H309.016V147.375H311.828ZM341.197 147.375V170H338.509L326.259 152.375H326.041V170H323.228V147.375H325.947L338.197 165.031H338.416V147.375H341.197ZM352.597 170V147.375H366.222V149.875H355.409V157.438H365.191V159.906H355.409V170H352.597ZM395.934 158.688C395.95 165.844 391.731 170.312 385.934 170.312C380.122 170.312 375.919 165.844 375.934 158.688C375.919 151.531 380.122 147.062 385.934 147.062C391.731 147.062 395.95 151.531 395.934 158.688ZM378.653 158.688C378.669 164.516 381.841 167.672 385.934 167.688C390.028 167.672 393.2 164.516 393.216 158.688C393.2 152.844 390.028 149.688 385.934 149.688C381.841 149.688 378.669 152.844 378.653 158.688ZM406.459 170V147.375H414.147C419.444 147.375 421.866 150.312 421.866 154.344C421.866 157.344 420.522 159.688 417.647 160.688L422.741 170H419.459L414.725 161.203C414.553 161.219 414.366 161.219 414.178 161.219H409.272V170H406.459ZM409.272 158.656H414.053C417.663 158.656 419.069 157.031 419.084 154.344C419.069 151.641 417.663 149.875 414.022 149.875H409.272V158.656ZM432.328 147.375H435.703L443.328 166H443.609L451.234 147.375H454.609V170H451.953V152.906H451.734L444.703 170H442.203L435.172 152.906H434.984V170H432.328V147.375ZM467.009 170H464.072L472.353 147.375H475.322L483.603 170H480.634L478.369 163.625H469.275L467.009 170ZM470.134 161.156H477.509L473.916 151.031H473.728L470.134 161.156ZM489.159 149.875V147.375H506.222V149.875H499.128V170H496.284V149.875H489.159ZM519.184 147.375V170H516.372V147.375H519.184ZM549.709 158.688C549.725 165.844 545.506 170.312 539.709 170.312C533.897 170.312 529.694 165.844 529.709 158.688C529.694 151.531 533.897 147.062 539.709 147.062C545.506 147.062 549.725 151.531 549.709 158.688ZM532.428 158.688C532.444 164.516 535.616 167.672 539.709 167.688C543.803 167.672 546.975 164.516 546.991 158.688C546.975 152.844 543.803 149.688 539.709 149.688C535.616 149.688 532.444 152.844 532.428 158.688ZM578.203 147.375V170H575.516L563.266 152.375H563.047V170H560.234V147.375H562.953L575.203 165.031H575.422V147.375H578.203Z" fill="#ADB5BD"/>
<path d="M249.117 253.609H225.039V272.207H257.383V280.383H183.172V272.207H215.156V253.609H192.156V214.797H248.488V222.793H202.129V245.703H249.117V253.609ZM292.691 228.273C292.661 233.365 293.44 238.276 295.027 243.008C296.615 247.74 298.921 251.947 301.945 255.631C305 259.285 308.624 262.025 312.816 263.852L306.797 271.848C302.305 269.661 298.441 266.517 295.207 262.414C291.973 258.311 289.472 253.535 287.705 248.084C285.878 253.864 283.303 258.955 279.979 263.357C276.654 267.73 272.716 271.069 268.164 273.375L261.875 265.289C266.158 263.283 269.856 260.348 272.971 256.484C276.085 252.621 278.451 248.234 280.068 243.322C281.686 238.411 282.509 233.395 282.539 228.273V215.336H292.691V228.273ZM303.832 235.012H320.902V208.777H330.785V290.086H320.902V243.098H303.832V235.012ZM410.207 257.023H400.234V237.168H386.398V228.992H400.234V208.777H410.207V257.023ZM341.926 248.938C346.148 247.5 349.757 245.419 352.752 242.693C355.777 239.968 358.053 236.883 359.58 233.439C361.107 229.995 361.871 226.447 361.871 222.793V222.164H344.98V214.078H388.824V222.164H372.023V222.703C372.023 226.057 372.757 229.322 374.225 232.496C375.692 235.641 377.863 238.471 380.738 240.986C383.613 243.472 387.087 245.404 391.16 246.781L386.129 254.688C381.727 253.19 377.923 250.989 374.719 248.084C371.514 245.149 368.984 241.72 367.127 237.797C365.3 242.229 362.695 246.092 359.311 249.387C355.926 252.681 351.868 255.167 347.137 256.844L341.926 248.938ZM355.133 274.543C355.103 271.339 356.196 268.583 358.412 266.277C360.628 263.941 363.803 262.16 367.936 260.932C372.098 259.704 377.025 259.09 382.715 259.09C388.435 259.09 393.376 259.704 397.539 260.932C401.702 262.16 404.891 263.926 407.107 266.232C409.354 268.538 410.477 271.309 410.477 274.543C410.477 277.777 409.354 280.548 407.107 282.854C404.891 285.16 401.702 286.926 397.539 288.154C393.376 289.382 388.435 289.996 382.715 289.996C377.025 289.996 372.098 289.382 367.936 288.154C363.803 286.926 360.628 285.145 358.412 282.809C356.196 280.503 355.103 277.747 355.133 274.543ZM365.016 274.543C364.986 277.029 366.483 278.945 369.508 280.293C372.562 281.611 376.875 282.27 382.445 282.27C388.255 282.27 392.717 281.611 395.832 280.293C398.947 278.975 400.504 277.059 400.504 274.543C400.504 272.027 398.962 270.096 395.877 268.748C392.822 267.4 388.435 266.727 382.715 266.727C377.055 266.727 372.682 267.4 369.598 268.748C366.513 270.096 364.986 272.027 365.016 274.543ZM495.918 280.203H421.707V272.027H453.691V256.215H429.883V214.168H439.855V227.465H477.5V214.168H487.473V256.215H463.574V272.027H495.918V280.203ZM477.5 248.129V235.461H439.855V248.129H477.5Z" fill="#191F28"/>
</g>
<defs>
<filter id="filter0_d_2498_5085" x="-40" y="3478" width="2240" height="400" filterUnits="userSpaceOnUse" color-interpolation-filters="sRGB">
<feFlood flood-opacity="0" result="BackgroundImageFix"/>
<feColorMatrix in="SourceAlpha" type="matrix" values="0 0 0 0 0 0 0 0 0 0 0 0 0 0 0 0 0 0 127 0" result="hardAlpha"/>
<feOffset dy="-2"/>
<feGaussianBlur stdDeviation="20"/>
<feComposite in2="hardAlpha" operator="out"/>
<feColorMatrix type="matrix" values="0 0 0 0 0 0 0 0 0 0 0 0 0 0 0 0 0 0 0.1 0"/>
<feBlend mode="normal" in2="BackgroundImageFix" result="effect1_dropShadow_2498_5085"/>
<feBlend mode="normal" in="SourceGraphic" in2="effect1_dropShadow_2498_5085" result="shape"/>
</filter>
<linearGradient id="paint0_linear_2498_5085" x1="97" y1="6.72194e-06" x2="1080" y2="2900" gradientUnits="userSpaceOnUse">
<stop stop-color="#EDE3DA"/>
<stop offset="1" stop-color="#D9D0C9"/>
</linearGradient>
<clipPath id="clip0_2498_5085">
<rect width="2160" height="3840" fill="white"/>
</clipPath>
<clipPath id="clip1_2498_5085">
<rect width="96" height="96" fill="white" transform="translate(132 3581.5)"/>
</clipPath>
<clipPath id="clip2_2498_5085">
<rect width="96" height="96" fill="white" transform="translate(492 3581.5)"/>
</clipPath>
<clipPath id="clip3_2498_5085">
<rect width="96" height="96" fill="white" transform="translate(852 3581.5)"/>
</clipPath>
<clipPath id="clip4_2498_5085">
<rect width="96" height="96" fill="white" transform="translate(1932 3581.5)"/>
</clipPath>
</defs>
</svg>
