<svg width="2160" height="3840" viewBox="0 0 2160 3840" fill="none" xmlns="http://www.w3.org/2000/svg">
<g clip-path="url(#clip0_2498_4468)">
<g filter="url(#filter0_b_2498_4468)">
<path d="M0 0H2160V3840H0V0Z" fill="url(#paint0_linear_2498_4468)"/>
</g>
<g filter="url(#filter1_d_2498_4468)">
<path d="M2160 1840L0 1840L0 3840L2160 3840L2160 1840Z" fill="#F5F0EE"/>
</g>
<path d="M196.316 170V147.375H210.816V150.781H200.378V156.969H209.816V160.375H200.378V170H196.316ZM220.684 170H216.341L224.309 147.375H229.309L237.309 170H232.966L231.075 164.406H222.559L220.684 170ZM223.653 161.125H229.981L226.903 152H226.716L223.653 161.125ZM260.584 155C260.1 152.281 257.928 150.719 255.178 150.719C251.475 150.719 248.85 153.562 248.866 158.688C248.85 163.891 251.491 166.656 255.178 166.656C257.866 166.656 260.038 165.156 260.584 162.5H264.678C264.053 166.844 260.475 170.312 255.116 170.312C249.147 170.312 244.756 165.984 244.772 158.688C244.756 151.375 249.194 147.062 255.116 147.062C260.116 147.062 263.975 149.969 264.678 155H260.584ZM278.641 147.375V170H274.578V147.375H278.641ZM289.259 170V147.375H293.322V166.562H303.322V170H289.259ZM317.034 147.375V170H312.972V147.375H317.034ZM326.653 150.781V147.375H344.684V150.781H337.716V170H333.653V150.781H326.653ZM352.709 147.375H357.303L362.866 157.375H363.084L368.647 147.375H373.241L365.022 161.531V170H360.959V161.531L352.709 147.375Z" fill="#ADB5BD"/>
<path d="M213.898 228.273C213.809 243.188 221.67 258.102 234.832 263.762L228.902 271.758C219.559 267.445 212.73 258.865 208.957 248.264C205.229 259.674 198.221 269.018 188.383 273.645L182.273 265.289C195.795 259.449 203.701 243.951 203.746 228.273V215.336H213.898V228.273ZM240.672 290.086V208.777H250.734V290.086H240.672ZM330.695 208.777V250.375H320.723V229.801H304.551V221.805H320.723V208.777H330.695ZM262.234 242.828C275.307 238.875 282.09 228.857 282.09 217.941V211.473H292.152V217.941C292.107 227.959 298.666 237.438 311.289 241.301L305.988 249.027C297.184 246.107 290.805 240.357 287.211 232.99C283.707 241.211 277.014 247.68 267.445 250.824L262.234 242.828ZM277.238 261.695V253.879H330.695V274.902H287.121V281.102H333.301V289.008H277.328V267.445H320.812V261.695H277.238ZM406.254 208.777V232.586H417.574V240.852H406.254V268.164H396.281V208.777H406.254ZM343.094 234.652C343.049 222.658 352.662 214.213 365.016 214.168C377.369 214.213 386.848 222.658 386.938 234.652C386.848 246.467 377.369 255.047 365.016 255.047C352.662 255.047 343.049 246.467 343.094 234.652ZM352.887 234.652C352.842 241.66 358.232 246.287 365.016 246.242C371.889 246.287 377.1 241.66 377.145 234.652C377.1 227.465 371.889 222.883 365.016 222.883C358.232 222.883 352.842 227.465 352.887 234.652ZM354.234 288.379V261.965H364.207V280.293H409.488V288.379H354.234ZM491.426 208.777V289.996H481.812V248.938H472.828V285.863H463.484V210.305H472.828V240.762H481.812V208.777H491.426ZM425.211 269.781V218.121H435.273V260.977C442.281 260.842 449.918 260.213 458.453 258.551L459.441 267.266C448.48 269.197 439.182 269.781 430.602 269.781H425.211Z" fill="white"/>
<g filter="url(#filter2_d_2498_4468)">
<rect width="2160" height="320" transform="translate(0 3520)" fill="white"/>
<g clip-path="url(#clip1_2498_4468)">
<path d="M180 3669.5C184.4 3669.5 188 3665.9 188 3661.5H172C172 3665.9 175.6 3669.5 180 3669.5ZM204 3645.5V3625.5C204 3613.22 197.48 3602.94 186 3600.22V3597.5C186 3594.18 183.32 3591.5 180 3591.5C176.68 3591.5 174 3594.18 174 3597.5V3600.22C162.56 3602.94 156 3613.18 156 3625.5V3645.5L148 3653.5V3657.5H212V3653.5L204 3645.5ZM196 3649.5H164V3625.5C164 3615.58 170.04 3607.5 180 3607.5C189.96 3607.5 196 3615.58 196 3625.5V3649.5Z" fill="#ADB5BD"/>
</g>
<path d="M122.723 3720.76C131.166 3720.78 136.494 3723.44 136.516 3728.06C136.494 3732.57 131.166 3735.28 122.723 3735.28C114.365 3735.28 108.973 3732.57 108.973 3728.06C108.973 3723.44 114.365 3720.78 122.723 3720.76ZM105.32 3717.96V3714.1H118.984V3707.05H123.711V3714.1H140.555V3717.96H105.32ZM109.359 3702.11V3698.33H136.258V3701.55C136.279 3704.62 136.279 3707.89 135.184 3711.86L130.457 3711.43C131.424 3707.67 131.488 3704.92 131.488 3702.11H109.359ZM113.785 3728.06C113.742 3730.34 117.115 3731.59 122.723 3731.59C128.352 3731.59 131.746 3730.34 131.789 3728.06C131.746 3725.7 128.352 3724.37 122.723 3724.37C117.115 3724.37 113.742 3725.7 113.785 3728.06ZM157.914 3707.52C157.914 3713.88 161.652 3720.59 167.926 3723.21L165.305 3726.99C160.707 3724.99 157.355 3720.93 155.572 3715.99C153.789 3721.32 150.373 3725.79 145.84 3727.93L143.09 3724.2C149.213 3721.36 153.037 3714.12 153.059 3707.52V3704.26H144.508V3700.3H166.422V3704.26H157.914V3707.52ZM170.762 3735.32V3696.48H175.574V3735.32H170.762ZM195.168 3705.8C195.125 3712.74 198.605 3719.75 204.621 3722.65L201.699 3726.47C197.488 3724.35 194.459 3720.24 192.805 3715.3C191.107 3720.59 187.928 3724.97 183.48 3727.2L180.559 3723.38C186.811 3720.41 190.377 3712.98 190.398 3705.8V3699.62H195.168V3705.8ZM206.941 3735.32V3696.48H211.711V3711.69H217.684V3715.77H211.711V3735.32H206.941ZM249.953 3696.48V3706.71H255.367V3710.7H249.953V3721.27H245.184V3696.48H249.953ZM219.359 3704.17V3700.43H228.512V3696.22H233.281V3700.43H242.391V3704.17H219.359ZM221.336 3712.68C221.336 3708.51 225.203 3705.74 230.875 3705.72C236.482 3705.74 240.35 3708.51 240.371 3712.68C240.35 3716.85 236.482 3719.6 230.875 3719.6C225.203 3719.6 221.336 3716.85 221.336 3712.68ZM224.43 3728.45C224.387 3724.13 229.35 3721.6 237.406 3721.62C245.377 3721.6 250.383 3724.13 250.383 3728.45C250.383 3732.72 245.377 3735.28 237.406 3735.28C229.35 3735.28 224.387 3732.72 224.43 3728.45ZM225.977 3712.68C225.955 3714.79 227.932 3716.01 230.875 3715.99C233.818 3716.01 235.816 3714.79 235.816 3712.68C235.816 3710.53 233.818 3709.24 230.875 3709.24C227.932 3709.24 225.955 3710.53 225.977 3712.68ZM229.156 3728.45C229.135 3730.51 232.1 3731.67 237.406 3731.67C242.648 3731.67 245.592 3730.51 245.613 3728.45C245.592 3726.32 242.648 3725.27 237.406 3725.27C232.1 3725.27 229.135 3726.32 229.156 3728.45Z" fill="#ADB5BD"/>
<path d="M157.48 3759.36V3773.5H155.801L148.145 3762.48H148.008V3773.5H146.25V3759.36H147.949L155.605 3770.39H155.742V3759.36H157.48ZM172.559 3766.43C172.568 3770.9 169.932 3773.7 166.309 3773.7C162.676 3773.7 160.049 3770.9 160.059 3766.43C160.049 3761.96 162.676 3759.16 166.309 3759.16C169.932 3759.16 172.568 3761.96 172.559 3766.43ZM161.758 3766.43C161.768 3770.07 163.75 3772.04 166.309 3772.05C168.867 3772.04 170.85 3770.07 170.859 3766.43C170.85 3762.78 168.867 3760.8 166.309 3760.8C163.75 3760.8 161.768 3762.78 161.758 3766.43ZM173.77 3760.92V3759.36H184.434V3760.92H180V3773.5H178.223V3760.92H173.77ZM188.535 3759.36V3773.5H186.777V3759.36H188.535ZM201.309 3763.81C200.898 3761.86 199.229 3760.8 197.363 3760.8C194.805 3760.8 192.822 3762.78 192.812 3766.43C192.822 3770.07 194.805 3772.04 197.363 3772.05C199.229 3772.04 200.889 3771 201.309 3769.07H203.066C202.559 3771.96 200.234 3773.7 197.363 3773.7C193.73 3773.7 191.104 3770.9 191.113 3766.43C191.104 3761.96 193.73 3759.16 197.363 3759.16C200.225 3759.16 202.539 3760.87 203.066 3763.81H201.309ZM205.527 3773.5V3759.36H214.102V3760.92H207.285V3765.65H213.652V3767.19H207.285V3771.94H214.199V3773.5H205.527Z" fill="#ADB5BD"/>
<g clip-path="url(#clip2_2498_4468)">
<path d="M521.579 3625.96H514.211V3651.86H521.579V3625.96ZM543.684 3625.96H536.316V3651.86H543.684V3625.96ZM575 3659.26H505V3666.66H575V3659.26ZM565.789 3625.96H558.421V3651.86H565.789V3625.96ZM540 3601.02L559.195 3611.16H520.805L540 3601.02ZM540 3592.66L505 3611.16V3618.56H575V3611.16L540 3592.66Z" fill="#ADB5BD"/>
</g>
<path d="M497.246 3696.65V3735.24H493.164V3696.65H497.246ZM466.695 3713.02C466.695 3704.79 470.842 3699.55 476.664 3699.53C482.379 3699.55 486.59 3704.79 486.59 3713.02C486.59 3721.34 482.379 3726.58 476.664 3726.56C470.842 3726.58 466.695 3721.34 466.695 3713.02ZM470.648 3713.02C470.627 3719.15 473.076 3722.91 476.664 3722.91C480.188 3722.91 482.637 3719.15 482.637 3713.02C482.637 3706.99 480.188 3703.21 476.664 3703.18C473.076 3703.21 470.627 3706.99 470.648 3713.02ZM538.496 3715.43V3718.74H503.391V3715.43H511.812V3710.25C508.826 3709.05 507.15 3707.12 507.172 3704.56C507.15 3699.98 512.457 3697.32 520.922 3697.34C529.365 3697.32 534.65 3699.98 534.672 3704.56C534.65 3707.12 532.975 3709.05 529.988 3710.27V3715.43H538.496ZM507.559 3728.19C507.559 3723.79 512.543 3721.36 520.922 3721.36C529.193 3721.36 534.178 3723.79 534.199 3728.19C534.178 3732.64 529.193 3735.07 520.922 3735.07C512.543 3735.07 507.559 3732.64 507.559 3728.19ZM511.383 3704.56C511.361 3707.14 514.928 3708.58 520.922 3708.6C526.873 3708.58 530.482 3707.14 530.461 3704.56C530.482 3701.98 526.873 3700.5 520.922 3700.48C514.928 3700.5 511.361 3701.98 511.383 3704.56ZM511.684 3728.19C511.662 3730.6 515.035 3731.97 520.922 3731.93C526.723 3731.97 530.117 3730.6 530.117 3728.19C530.117 3725.83 526.723 3724.5 520.922 3724.5C515.035 3724.5 511.662 3725.83 511.684 3728.19ZM515.938 3715.43H525.949V3711.33C524.445 3711.56 522.748 3711.69 520.922 3711.69C519.117 3711.69 517.441 3711.56 515.938 3711.35V3715.43ZM571.668 3696.61V3708.12H577.254V3711.56H571.668V3724.93H567.586V3696.61H571.668ZM542.02 3708.86C541.977 3703.25 546.445 3699.29 552.246 3699.27C558.068 3699.29 562.473 3703.25 562.516 3708.86C562.473 3714.46 558.068 3718.46 552.246 3718.44C546.445 3718.46 541.977 3714.46 542.02 3708.86ZM546.016 3708.86C545.973 3712.44 548.723 3714.87 552.246 3714.87C555.812 3714.87 558.498 3712.44 558.52 3708.86C558.498 3705.27 555.812 3702.84 552.246 3702.84C548.723 3702.84 545.973 3705.27 546.016 3708.86ZM547.262 3734.34V3721.96H551.344V3731.03H573.301V3734.34H547.262ZM612.402 3696.65V3735.15H608.492V3715.43H603.551V3733.18H599.727V3697.43H603.551V3712.08H608.492V3696.65H612.402ZM581.25 3725.36V3701.21H585.332V3721.77C588.877 3721.72 592.766 3721.45 597.148 3720.59L597.578 3724.15C592.293 3725.1 587.889 3725.38 583.742 3725.36H581.25Z" fill="#ADB5BD"/>
<path d="M477.637 3759.36V3773.5H475.879V3759.36H477.637ZM491.992 3759.36V3773.5H490.312L482.656 3762.48H482.52V3773.5H480.762V3759.36H482.461L490.117 3770.39H490.254V3759.36H491.992ZM495.117 3773.5V3759.36H503.633V3760.92H496.875V3765.65H502.988V3767.19H496.875V3773.5H495.117ZM518.203 3766.43C518.213 3770.9 515.576 3773.7 511.953 3773.7C508.32 3773.7 505.693 3770.9 505.703 3766.43C505.693 3761.96 508.32 3759.16 511.953 3759.16C515.576 3759.16 518.213 3761.96 518.203 3766.43ZM507.402 3766.43C507.412 3770.07 509.395 3772.04 511.953 3772.05C514.512 3772.04 516.494 3770.07 516.504 3766.43C516.494 3762.78 514.512 3760.8 511.953 3760.8C509.395 3760.8 507.412 3762.78 507.402 3766.43ZM520.781 3773.5V3759.36H525.586C528.896 3759.36 530.41 3761.2 530.41 3763.71C530.41 3765.59 529.57 3767.05 527.773 3767.68L530.957 3773.5H528.906L525.947 3768C525.84 3768.01 525.723 3768.01 525.605 3768.01H522.539V3773.5H520.781ZM522.539 3766.41H525.527C527.783 3766.41 528.662 3765.39 528.672 3763.71C528.662 3762.03 527.783 3760.92 525.508 3760.92H522.539V3766.41ZM532.949 3759.36H535.059L539.824 3771H540L544.766 3759.36H546.875V3773.5H545.215V3762.82H545.078L540.684 3773.5H539.121L534.727 3762.82H534.609V3773.5H532.949V3759.36ZM550.625 3773.5H548.789L553.965 3759.36H555.82L560.996 3773.5H559.141L557.725 3769.52H552.041L550.625 3773.5ZM552.578 3767.97H557.188L554.941 3761.64H554.824L552.578 3767.97ZM560.469 3760.92V3759.36H571.133V3760.92H566.699V3773.5H564.922V3760.92H560.469ZM575.234 3759.36V3773.5H573.477V3759.36H575.234ZM590.312 3766.43C590.322 3770.9 587.686 3773.7 584.062 3773.7C580.43 3773.7 577.803 3770.9 577.812 3766.43C577.803 3761.96 580.43 3759.16 584.062 3759.16C587.686 3759.16 590.322 3761.96 590.312 3766.43ZM579.512 3766.43C579.521 3770.07 581.504 3772.04 584.062 3772.05C586.621 3772.04 588.604 3770.07 588.613 3766.43C588.604 3762.78 586.621 3760.8 584.062 3760.8C581.504 3760.8 579.521 3762.78 579.512 3766.43ZM604.121 3759.36V3773.5H602.441L594.785 3762.48H594.648V3773.5H592.891V3759.36H594.59L602.246 3770.39H602.383V3759.36H604.121Z" fill="#ADB5BD"/>
<g clip-path="url(#clip3_2498_4468)">
<path d="M900 3575.5C884.52 3575.5 872 3588.02 872 3603.5C872 3624.5 900 3655.5 900 3655.5C900 3655.5 928 3624.5 928 3603.5C928 3588.02 915.48 3575.5 900 3575.5ZM880 3603.5C880 3592.46 888.96 3583.5 900 3583.5C911.04 3583.5 920 3592.46 920 3603.5C920 3615.02 908.48 3632.26 900 3643.02C891.68 3632.34 880 3614.9 880 3603.5Z" fill="#191F28"/>
<path d="M900 3613.5C905.523 3613.5 910 3609.02 910 3603.5C910 3597.98 905.523 3593.5 900 3593.5C894.477 3593.5 890 3597.98 890 3603.5C890 3609.02 894.477 3613.5 900 3613.5Z" fill="#191F28"/>
</g>
<path d="M839.93 3691.8C839.887 3698.94 843.646 3706.07 849.941 3708.78L847.105 3712.6C842.637 3710.54 839.371 3706.44 837.566 3701.37C835.783 3706.82 832.432 3711.29 827.727 3713.5L824.805 3709.51C831.271 3706.71 835.053 3699.3 835.074 3691.8V3685.62H839.93V3691.8ZM852.734 3721.37V3682.48H857.547V3721.37H852.734ZM895.789 3682.48V3702.38H891.02V3692.54H883.285V3688.71H891.02V3682.48H895.789ZM863.047 3698.77C869.299 3696.88 872.543 3692.08 872.543 3686.86V3683.77H877.355V3686.86C877.334 3691.65 880.471 3696.19 886.508 3698.04L883.973 3701.73C879.762 3700.33 876.711 3697.58 874.992 3694.06C873.316 3697.99 870.115 3701.09 865.539 3702.59L863.047 3698.77ZM870.223 3707.79V3704.05H895.789V3714.11H874.949V3717.07H897.035V3720.85H870.266V3710.54H891.062V3707.79H870.223ZM931.926 3682.48V3693.87H937.34V3697.82H931.926V3710.88H927.156V3682.48H931.926ZM901.719 3694.86C901.697 3689.12 906.295 3685.08 912.203 3685.06C918.111 3685.08 922.645 3689.12 922.688 3694.86C922.645 3700.51 918.111 3704.61 912.203 3704.61C906.295 3704.61 901.697 3700.51 901.719 3694.86ZM906.402 3694.86C906.381 3698.21 908.959 3700.42 912.203 3700.4C915.49 3700.42 917.982 3698.21 918.004 3694.86C917.982 3691.42 915.49 3689.23 912.203 3689.23C908.959 3689.23 906.381 3691.42 906.402 3694.86ZM907.047 3720.55V3707.92H911.816V3716.68H933.473V3720.55H907.047ZM972.66 3682.48V3721.32H968.062V3701.69H963.766V3719.35H959.297V3683.21H963.766V3697.78H968.062V3682.48H972.66ZM940.992 3711.66V3686.95H945.805V3707.45C949.156 3707.38 952.809 3707.08 956.891 3706.29L957.363 3710.45C952.121 3711.38 947.674 3711.66 943.57 3711.66H940.992Z" fill="#191F28"/>
<path d="M861.162 3759.5V3745.36H869.678V3746.92H862.92V3751.65H869.033V3753.19H862.92V3759.5H861.162ZM871.143 3759.5H869.307L874.482 3745.36H876.338L881.514 3759.5H879.658L878.242 3755.52H872.559L871.143 3759.5ZM873.096 3753.97H877.705L875.459 3747.64H875.342L873.096 3753.97ZM892.412 3749.81C892.002 3747.86 890.332 3746.8 888.467 3746.8C885.908 3746.8 883.926 3748.78 883.916 3752.43C883.926 3756.07 885.908 3758.04 888.467 3758.05C890.332 3758.04 891.992 3757 892.412 3755.07H894.17C893.662 3757.96 891.338 3759.7 888.467 3759.7C884.834 3759.7 882.207 3756.9 882.217 3752.43C882.207 3747.96 884.834 3745.16 888.467 3745.16C891.328 3745.16 893.643 3746.87 894.17 3749.81H892.412ZM898.389 3745.36V3759.5H896.631V3745.36H898.389ZM901.514 3759.5V3745.36H903.271V3757.94H909.834V3759.5H901.514ZM913.936 3745.36V3759.5H912.178V3745.36H913.936ZM916.279 3746.92V3745.36H926.943V3746.92H922.51V3759.5H920.732V3746.92H916.279ZM928.076 3745.36H930.088L933.975 3751.92H934.15L938.037 3745.36H940.068L934.951 3753.7V3759.5H933.174V3753.7L928.076 3745.36Z" fill="#191F28"/>
<path d="M840 3792.5C886.863 3792.5 913.137 3792.5 960 3792.5" stroke="#0C152D" stroke-width="7" stroke-linecap="round"/>
<path d="M1296.68 3589.74C1293.81 3589.25 1290.91 3588.99 1288 3588.98C1278.07 3588.97 1268.35 3591.82 1260 3597.18C1251.62 3591.89 1241.9 3589.11 1232 3589.18C1229.09 3589.19 1226.19 3589.45 1223.32 3589.94C1222.38 3590.1 1221.53 3590.59 1220.92 3591.33C1220.31 3592.06 1219.98 3592.99 1220 3593.94V3641.94C1219.99 3642.53 1220.11 3643.11 1220.35 3643.65C1220.6 3644.18 1220.95 3644.66 1221.4 3645.04C1221.85 3645.42 1222.37 3645.7 1222.94 3645.86C1223.51 3646.01 1224.1 3646.04 1224.68 3645.94C1230.41 3644.95 1236.28 3645.11 1241.95 3646.42C1247.62 3647.74 1252.97 3650.17 1257.68 3653.58L1258.16 3653.86H1258.6C1259.04 3654.05 1259.52 3654.14 1260 3654.14C1260.48 3654.14 1260.95 3654.05 1261.4 3653.86H1261.84L1262.32 3653.58C1267 3650.09 1272.33 3647.58 1278 3646.19C1283.67 3644.81 1289.56 3644.57 1295.32 3645.5C1295.9 3645.6 1296.49 3645.57 1297.06 3645.42C1297.63 3645.26 1298.15 3644.98 1298.6 3644.6C1299.04 3644.22 1299.4 3643.74 1299.64 3643.21C1299.89 3642.67 1300.01 3642.09 1300 3641.5V3593.5C1299.96 3592.59 1299.6 3591.72 1299 3591.04C1298.4 3590.35 1297.58 3589.89 1296.68 3589.74ZM1256 3642.9C1248.6 3639.01 1240.36 3636.98 1232 3636.98C1230.68 3636.98 1229.36 3636.98 1228 3636.98V3596.98C1229.33 3596.9 1230.67 3596.9 1232 3596.98C1240.53 3596.97 1248.88 3599.48 1256 3604.18V3642.9ZM1292 3637.14C1290.64 3637.14 1289.32 3637.14 1288 3637.14C1279.64 3637.14 1271.4 3639.17 1264 3643.06V3604.18C1271.12 3599.48 1279.46 3596.97 1288 3596.98C1289.33 3596.9 1290.67 3596.9 1292 3596.98V3637.14ZM1296.68 3653.74C1293.81 3653.25 1290.91 3652.99 1288 3652.98C1278.07 3652.97 1268.35 3655.82 1260 3661.18C1251.64 3655.82 1241.92 3652.97 1232 3652.98C1229.09 3652.99 1226.19 3653.25 1223.32 3653.74C1222.8 3653.82 1222.3 3654.01 1221.85 3654.28C1221.4 3654.56 1221.01 3654.92 1220.7 3655.35C1220.39 3655.78 1220.17 3656.26 1220.05 3656.78C1219.93 3657.29 1219.91 3657.82 1220 3658.34C1220.2 3659.38 1220.81 3660.3 1221.69 3660.89C1222.56 3661.48 1223.64 3661.7 1224.68 3661.5C1230.41 3660.51 1236.28 3660.67 1241.95 3661.98C1247.62 3663.3 1252.97 3665.73 1257.68 3669.14C1258.36 3669.62 1259.17 3669.88 1260 3669.88C1260.83 3669.88 1261.64 3669.62 1262.32 3669.14C1267.03 3665.73 1272.38 3663.3 1278.05 3661.98C1283.71 3660.67 1289.59 3660.51 1295.32 3661.5C1296.36 3661.7 1297.43 3661.48 1298.31 3660.89C1299.19 3660.3 1299.8 3659.38 1300 3658.34C1300.08 3657.82 1300.07 3657.29 1299.95 3656.78C1299.82 3656.26 1299.6 3655.78 1299.29 3655.35C1298.99 3654.92 1298.6 3654.56 1298.15 3654.28C1297.7 3654.01 1297.2 3653.82 1296.68 3653.74Z" fill="#ADB5BD"/>
<path d="M1217.59 3696.52V3724.88H1212.78V3696.52H1217.59ZM1185.28 3715.73C1191.57 3713.52 1194.79 3708.04 1194.77 3702.45V3698.67H1199.71V3702.45C1199.69 3707.87 1202.87 3712.98 1209.04 3715.04L1206.59 3718.82C1202.16 3717.28 1199.01 3714.18 1197.29 3710.21C1195.57 3714.46 1192.35 3717.86 1187.77 3719.51L1185.28 3715.73ZM1191.89 3734.55V3722.18H1196.71V3730.68H1218.66V3734.55H1191.89ZM1237.23 3704.9C1237.21 3709.16 1240.36 3713.41 1246.51 3715.09L1244.27 3718.91C1239.83 3717.62 1236.65 3714.94 1234.88 3711.54C1233.19 3715.26 1229.96 3718.18 1225.41 3719.55L1223.09 3715.82C1229.21 3714.05 1232.46 3709.54 1232.46 3704.9V3704.6H1224.34V3700.82H1232.46V3696.35H1237.27V3700.82H1245.35V3704.6H1237.23V3704.9ZM1228.03 3725.83V3722H1253.9V3735.37H1249.13V3725.83H1228.03ZM1249.13 3720.24V3696.48H1253.9V3706.32H1259.31V3710.36H1253.9V3720.24H1249.13ZM1292.83 3714.14V3717.92H1281.31V3726.82H1296.78V3730.73H1261.29V3726.82H1276.59V3717.92H1265.59V3699.36H1292.53V3703.18H1270.36V3714.14H1292.83ZM1313.67 3705.8C1313.65 3713.02 1317.11 3720.11 1323.29 3722.82L1320.41 3726.64C1316.03 3724.5 1312.94 3720.37 1311.28 3715.28C1309.59 3720.65 1306.41 3725.12 1301.94 3727.38L1298.93 3723.51C1305.27 3720.54 1308.79 3713.07 1308.81 3705.8V3699.62H1313.67V3705.8ZM1319 3712.89V3709.03H1327.16V3696.48H1331.89V3735.37H1327.16V3712.89H1319Z" fill="#ADB5BD"/>
<path d="M1168.02 3759.36V3773.5H1166.34L1158.68 3762.48H1158.54V3773.5H1156.79V3759.36H1158.49L1166.14 3770.39H1166.28V3759.36H1168.02ZM1171.14 3773.5V3759.36H1179.72V3760.92H1172.9V3765.65H1179.27V3767.19H1172.9V3771.94H1179.81V3773.5H1171.14ZM1185.11 3773.5L1181.24 3759.36H1183.02L1185.97 3770.8H1186.1L1189.09 3759.36H1191.06L1194.07 3770.8H1194.19L1197.14 3759.36H1198.92L1195.05 3773.5H1193.23L1190.15 3762.31H1190.03L1186.92 3773.5H1185.11ZM1206.44 3773.5H1204.6L1209.78 3759.36H1211.63L1216.81 3773.5H1214.95L1213.54 3769.52H1207.85L1206.44 3773.5ZM1208.39 3767.97H1213L1210.75 3761.64H1210.63L1208.39 3767.97ZM1218.72 3773.5V3759.36H1223.53C1226.84 3759.36 1228.35 3761.2 1228.35 3763.71C1228.35 3765.59 1227.51 3767.05 1225.71 3767.68L1228.9 3773.5H1226.85L1223.89 3768C1223.78 3768.01 1223.66 3768.01 1223.54 3768.01H1220.48V3773.5H1218.72ZM1220.48 3766.41H1223.47C1225.72 3766.41 1226.6 3765.39 1226.61 3763.71C1226.6 3762.03 1225.72 3760.92 1223.45 3760.92H1220.48V3766.41ZM1230.89 3773.5V3759.36H1235.69C1239 3759.36 1240.52 3761.2 1240.52 3763.71C1240.52 3765.59 1239.68 3767.05 1237.88 3767.68L1241.06 3773.5H1239.01L1236.05 3768C1235.95 3768.01 1235.83 3768.01 1235.71 3768.01H1232.65V3773.5H1230.89ZM1232.65 3766.41H1235.63C1237.89 3766.41 1238.77 3765.39 1238.78 3763.71C1238.77 3762.03 1237.89 3760.92 1235.62 3760.92H1232.65V3766.41ZM1244.81 3759.36V3773.5H1243.06V3759.36H1244.81ZM1248.58 3759.36L1252.74 3771.21H1252.9L1257.08 3759.36H1258.94L1253.76 3773.5H1251.9L1246.73 3759.36H1248.58ZM1260.22 3773.5H1258.39L1263.56 3759.36H1265.42L1270.6 3773.5H1268.74L1267.32 3769.52H1261.64L1260.22 3773.5ZM1262.18 3767.97H1266.79L1264.54 3761.64H1264.42L1262.18 3767.97ZM1272.51 3773.5V3759.36H1274.27V3771.94H1280.83V3773.5H1272.51ZM1290.89 3762.91C1290.74 3761.53 1289.45 3760.73 1287.76 3760.73C1285.89 3760.73 1284.67 3761.7 1284.66 3763.05C1284.67 3764.54 1286.32 3765.09 1287.39 3765.36L1288.8 3765.75C1290.31 3766.14 1292.8 3767.01 1292.8 3769.65C1292.8 3771.96 1290.95 3773.74 1287.67 3773.75C1284.62 3773.74 1282.73 3772.17 1282.57 3769.83H1284.37C1284.51 3771.41 1285.99 3772.16 1287.67 3772.15C1289.62 3772.16 1291.08 3771.16 1291.08 3769.61C1291.08 3768.24 1289.78 3767.71 1288.29 3767.29L1286.55 3766.82C1284.34 3766.18 1282.95 3765.04 1282.96 3763.13C1282.95 3760.74 1285.08 3759.16 1287.82 3759.16C1290.57 3759.16 1292.54 3760.77 1292.61 3762.91H1290.89ZM1300.34 3773.5V3759.36H1305.3C1308.27 3759.36 1309.67 3761.03 1309.66 3763.11C1309.67 3764.93 1308.58 3765.74 1307.35 3766.08V3766.21C1308.67 3766.29 1310.21 3767.5 1310.22 3769.75C1310.21 3771.87 1308.82 3773.5 1305.48 3773.5H1300.34ZM1302.1 3771.94H1305.46C1307.68 3771.94 1308.54 3770.96 1308.53 3769.73C1308.54 3768.29 1307.37 3767.07 1305.56 3767.07H1302.1V3771.94ZM1302.1 3765.55H1305.24C1306.78 3765.56 1307.98 3764.6 1307.98 3763.13C1307.98 3761.9 1307.15 3760.92 1305.3 3760.92H1302.1V3765.55ZM1324.68 3766.43C1324.69 3770.9 1322.05 3773.7 1318.43 3773.7C1314.79 3773.7 1312.17 3770.9 1312.18 3766.43C1312.17 3761.96 1314.79 3759.16 1318.43 3759.16C1322.05 3759.16 1324.69 3761.96 1324.68 3766.43ZM1313.88 3766.43C1313.89 3770.07 1315.87 3772.04 1318.43 3772.05C1320.99 3772.04 1322.97 3770.07 1322.98 3766.43C1322.97 3762.78 1320.99 3760.8 1318.43 3760.8C1315.87 3760.8 1313.89 3762.78 1313.88 3766.43ZM1339.21 3766.43C1339.22 3770.9 1336.58 3773.7 1332.96 3773.7C1329.33 3773.7 1326.7 3770.9 1326.71 3766.43C1326.7 3761.96 1329.33 3759.16 1332.96 3759.16C1336.58 3759.16 1339.22 3761.96 1339.21 3766.43ZM1328.41 3766.43C1328.42 3770.07 1330.4 3772.04 1332.96 3772.05C1335.52 3772.04 1337.5 3770.07 1337.51 3766.43C1337.5 3762.78 1335.52 3760.8 1332.96 3760.8C1330.4 3760.8 1328.42 3762.78 1328.41 3766.43ZM1341.79 3773.5V3759.36H1343.54V3766.35H1343.72L1350.01 3759.36H1352.31L1346.4 3765.75L1352.31 3773.5H1350.17L1345.3 3766.96L1343.54 3768.95V3773.5H1341.79ZM1361.9 3762.91C1361.76 3761.53 1360.47 3760.73 1358.78 3760.73C1356.9 3760.73 1355.68 3761.7 1355.67 3763.05C1355.68 3764.54 1357.33 3765.09 1358.41 3765.36L1359.81 3765.75C1361.33 3766.14 1363.82 3767.01 1363.82 3769.65C1363.82 3771.96 1361.96 3773.74 1358.68 3773.75C1355.63 3773.74 1353.75 3772.17 1353.58 3769.83H1355.38C1355.53 3771.41 1357 3772.16 1358.68 3772.15C1360.63 3772.16 1362.1 3771.16 1362.1 3769.61C1362.1 3768.24 1360.79 3767.71 1359.31 3767.29L1357.57 3766.82C1355.35 3766.18 1353.96 3765.04 1353.97 3763.13C1353.96 3760.74 1356.09 3759.16 1358.84 3759.16C1361.58 3759.16 1363.55 3760.77 1363.62 3762.91H1361.9Z" fill="#ADB5BD"/>
<path d="M1656 3597.5H1644V3593.5C1644 3592.44 1643.58 3591.42 1642.83 3590.67C1642.08 3589.92 1641.06 3589.5 1640 3589.5H1600C1598.94 3589.5 1597.92 3589.92 1597.17 3590.67C1596.42 3591.42 1596 3592.44 1596 3593.5V3597.5H1584C1582.94 3597.5 1581.92 3597.92 1581.17 3598.67C1580.42 3599.42 1580 3600.44 1580 3601.5V3613.5C1580 3617.74 1581.69 3621.81 1584.69 3624.81C1587.69 3627.81 1591.76 3629.5 1596 3629.5H1602.16C1605.78 3633.54 1610.66 3636.23 1616 3637.14V3645.5H1612C1608.82 3645.5 1605.77 3646.76 1603.51 3649.01C1601.26 3651.27 1600 3654.32 1600 3657.5V3665.5C1600 3666.56 1600.42 3667.58 1601.17 3668.33C1601.92 3669.08 1602.94 3669.5 1604 3669.5H1636C1637.06 3669.5 1638.08 3669.08 1638.83 3668.33C1639.58 3667.58 1640 3666.56 1640 3665.5V3657.5C1640 3654.32 1638.74 3651.27 1636.49 3649.01C1634.23 3646.76 1631.18 3645.5 1628 3645.5H1624V3637.14C1629.34 3636.23 1634.22 3633.54 1637.84 3629.5H1644C1648.24 3629.5 1652.31 3627.81 1655.31 3624.81C1658.31 3621.81 1660 3617.74 1660 3613.5V3601.5C1660 3600.44 1659.58 3599.42 1658.83 3598.67C1658.08 3597.92 1657.06 3597.5 1656 3597.5ZM1596 3621.5C1593.88 3621.5 1591.84 3620.66 1590.34 3619.16C1588.84 3617.66 1588 3615.62 1588 3613.5V3605.5H1596V3613.5C1596.01 3616.23 1596.48 3618.93 1597.4 3621.5H1596ZM1628 3653.5C1629.06 3653.5 1630.08 3653.92 1630.83 3654.67C1631.58 3655.42 1632 3656.44 1632 3657.5V3661.5H1608V3657.5C1608 3656.44 1608.42 3655.42 1609.17 3654.67C1609.92 3653.92 1610.94 3653.5 1612 3653.5H1628ZM1636 3613.5C1636 3617.74 1634.31 3621.81 1631.31 3624.81C1628.31 3627.81 1624.24 3629.5 1620 3629.5C1615.76 3629.5 1611.69 3627.81 1608.69 3624.81C1605.69 3621.81 1604 3617.74 1604 3613.5V3597.5H1636V3613.5ZM1652 3613.5C1652 3615.62 1651.16 3617.66 1649.66 3619.16C1648.16 3620.66 1646.12 3621.5 1644 3621.5H1642.6C1643.52 3618.93 1643.99 3616.23 1644 3613.5V3605.5H1652V3613.5Z" fill="#ADB5BD"/>
<path d="M1559.39 3696.65V3735.15H1555.48V3715.26H1550.5V3733.18H1546.76V3697.43H1550.5V3711.91H1555.48V3696.65H1559.39ZM1527.64 3725.91V3701.29H1542.08V3704.6H1531.72V3722.43C1536.45 3722.41 1540.01 3722.2 1544.14 3721.4L1544.44 3724.75C1539.82 3725.72 1535.82 3725.87 1530.22 3725.91H1527.64ZM1599.44 3713.54V3716.59H1583.93V3719.81H1595.06V3728.49H1572.63V3731.67H1596.13V3734.77H1568.63V3725.66H1591.02V3722.78H1568.59V3719.81H1579.89V3716.59H1564.42V3713.54H1599.44ZM1566.14 3708.94C1573.51 3708.53 1578.71 3706.28 1579.54 3703.01H1567.9V3699.88H1579.89V3696.48H1583.93V3699.88H1595.96V3703.01H1584.25C1585.07 3706.28 1590.27 3708.53 1597.72 3708.94L1596.47 3712.04C1589.77 3711.54 1584.31 3709.59 1581.91 3706.21C1579.5 3709.59 1574.04 3711.54 1567.3 3712.04L1566.14 3708.94ZM1607.56 3700.35V3709.59H1614.95V3700.35H1618.69V3711.09H1623.8V3697.43H1627.71V3733.3H1623.8V3714.48H1618.69V3725.66H1603.69V3700.35H1607.56ZM1607.56 3722.26H1614.95V3712.89H1607.56V3722.26ZM1631.62 3735.15V3696.65H1635.53V3735.15H1631.62ZM1659.98 3702.11C1659.98 3708.38 1666.66 3714.31 1674.08 3715.64L1672.19 3719.04C1666.02 3717.71 1660.37 3713.67 1657.88 3708.25C1655.34 3713.65 1649.69 3717.66 1643.53 3719.04L1641.72 3715.64C1649.03 3714.27 1655.66 3708.38 1655.69 3702.11V3699.19H1659.98V3702.11ZM1640.43 3730.08V3726.69H1675.67V3730.08H1640.43ZM1709.7 3717.15V3720.41H1682.88V3699.83H1709.31V3703.14H1687.01V3708.34H1708.49V3711.56H1687.01V3717.15H1709.7ZM1678.46 3730.3V3726.95H1713.69V3730.3H1678.46Z" fill="#ADB5BD"/>
<path d="M1529.55 3773.5V3759.36H1534.51C1537.48 3759.36 1538.88 3761.03 1538.87 3763.11C1538.88 3764.93 1537.79 3765.74 1536.56 3766.08V3766.21C1537.88 3766.29 1539.42 3767.5 1539.43 3769.75C1539.42 3771.87 1538.03 3773.5 1534.69 3773.5H1529.55ZM1531.31 3771.94H1534.67C1536.88 3771.94 1537.74 3770.96 1537.73 3769.73C1537.74 3768.29 1536.58 3767.07 1534.77 3767.07H1531.31V3771.94ZM1531.31 3765.55H1534.45C1535.99 3765.56 1537.19 3764.6 1537.19 3763.13C1537.19 3761.9 1536.36 3760.92 1534.51 3760.92H1531.31V3765.55ZM1541.93 3773.5V3759.36H1550.51V3760.92H1543.69V3765.65H1550.06V3767.19H1543.69V3771.94H1550.61V3773.5H1541.93ZM1561 3762.91C1560.85 3761.53 1559.56 3760.73 1557.87 3760.73C1556 3760.73 1554.78 3761.7 1554.77 3763.05C1554.78 3764.54 1556.43 3765.09 1557.5 3765.36L1558.91 3765.75C1560.42 3766.14 1562.91 3767.01 1562.91 3769.65C1562.91 3771.96 1561.05 3773.74 1557.77 3773.75C1554.73 3773.74 1552.84 3772.17 1552.68 3769.83H1554.47C1554.62 3771.41 1556.09 3772.16 1557.77 3772.15C1559.73 3772.16 1561.19 3771.16 1561.19 3769.61C1561.19 3768.24 1559.88 3767.71 1558.4 3767.29L1556.66 3766.82C1554.44 3766.18 1553.06 3765.04 1553.07 3763.13C1553.06 3760.74 1555.19 3759.16 1557.93 3759.16C1560.67 3759.16 1562.65 3760.77 1562.71 3762.91H1561ZM1564.65 3760.92V3759.36H1575.31V3760.92H1570.88V3773.5H1569.1V3760.92H1564.65ZM1582.68 3773.5V3759.36H1587.48C1590.79 3759.36 1592.3 3761.2 1592.3 3763.71C1592.3 3765.59 1591.46 3767.05 1589.67 3767.68L1592.85 3773.5H1590.8L1587.84 3768C1587.73 3768.01 1587.62 3768.01 1587.5 3768.01H1584.43V3773.5H1582.68ZM1584.43 3766.41H1587.42C1589.68 3766.41 1590.56 3765.39 1590.57 3763.71C1590.56 3762.03 1589.68 3760.92 1587.4 3760.92H1584.43V3766.41ZM1594.84 3773.5V3759.36H1603.42V3760.92H1596.6V3765.65H1602.97V3767.19H1596.6V3771.94H1603.52V3773.5H1594.84ZM1617.42 3759.36V3773.5H1615.74L1608.09 3762.48H1607.95V3773.5H1606.19V3759.36H1607.89L1615.55 3770.39H1615.68V3759.36H1617.42ZM1619.77 3760.92V3759.36H1630.43V3760.92H1626V3773.5H1624.22V3760.92H1619.77ZM1631.74 3773.5H1629.9L1635.08 3759.36H1636.93L1642.11 3773.5H1640.25L1638.84 3769.52H1633.15L1631.74 3773.5ZM1633.69 3767.97H1638.3L1636.05 3761.64H1635.94L1633.69 3767.97ZM1644.02 3773.5V3759.36H1645.78V3771.94H1652.34V3773.5H1644.02ZM1659.71 3773.5V3759.36H1664.67C1667.64 3759.36 1669.03 3761.03 1669.02 3763.11C1669.03 3764.93 1667.95 3765.74 1666.72 3766.08V3766.21C1668.04 3766.29 1669.58 3767.5 1669.59 3769.75C1669.58 3771.87 1668.18 3773.5 1664.84 3773.5H1659.71ZM1661.46 3771.94H1664.82C1667.04 3771.94 1667.9 3770.96 1667.89 3769.73C1667.9 3768.29 1666.74 3767.07 1664.92 3767.07H1661.46V3771.94ZM1661.46 3765.55H1664.61C1666.14 3765.56 1667.34 3764.6 1667.34 3763.13C1667.34 3761.9 1666.51 3760.92 1664.67 3760.92H1661.46V3765.55ZM1684.04 3766.43C1684.05 3770.9 1681.42 3773.7 1677.79 3773.7C1674.16 3773.7 1671.53 3770.9 1671.54 3766.43C1671.53 3761.96 1674.16 3759.16 1677.79 3759.16C1681.42 3759.16 1684.05 3761.96 1684.04 3766.43ZM1673.24 3766.43C1673.25 3770.07 1675.23 3772.04 1677.79 3772.05C1680.35 3772.04 1682.33 3770.07 1682.34 3766.43C1682.33 3762.78 1680.35 3760.8 1677.79 3760.8C1675.23 3760.8 1673.25 3762.78 1673.24 3766.43ZM1698.57 3766.43C1698.58 3770.9 1695.95 3773.7 1692.32 3773.7C1688.69 3773.7 1686.06 3770.9 1686.07 3766.43C1686.06 3761.96 1688.69 3759.16 1692.32 3759.16C1695.95 3759.16 1698.58 3761.96 1698.57 3766.43ZM1687.77 3766.43C1687.78 3770.07 1689.77 3772.04 1692.32 3772.05C1694.88 3772.04 1696.87 3770.07 1696.88 3766.43C1696.87 3762.78 1694.88 3760.8 1692.32 3760.8C1689.77 3760.8 1687.78 3762.78 1687.77 3766.43ZM1701.15 3773.5V3759.36H1702.91V3766.35H1703.09L1709.38 3759.36H1711.68L1705.76 3765.75L1711.68 3773.5H1709.53L1704.67 3766.96L1702.91 3768.95V3773.5H1701.15Z" fill="#ADB5BD"/>
<g clip-path="url(#clip4_2498_4468)">
<path d="M1968 3629.5C1975.72 3629.5 1982 3623.22 1982 3615.5C1982 3607.78 1975.72 3601.5 1968 3601.5C1960.28 3601.5 1954 3607.78 1954 3615.5C1954 3623.22 1960.28 3629.5 1968 3629.5ZM1968 3609.5C1971.32 3609.5 1974 3612.18 1974 3615.5C1974 3618.82 1971.32 3621.5 1968 3621.5C1964.68 3621.5 1962 3618.82 1962 3615.5C1962 3612.18 1964.68 3609.5 1968 3609.5ZM1968.2 3649.5H1951.08C1955.04 3647.5 1961.88 3645.5 1968 3645.5C1968.44 3645.5 1968.92 3645.54 1969.36 3645.54C1970.72 3642.62 1973.08 3640.22 1975.92 3638.3C1973 3637.78 1970.24 3637.5 1968 3637.5C1958.64 3637.5 1940 3642.18 1940 3651.5V3657.5H1968V3651.5C1968 3650.82 1968.08 3650.14 1968.2 3649.5ZM1998 3639.5C1990.64 3639.5 1976 3643.54 1976 3651.5V3657.5H2020V3651.5C2020 3643.54 2005.36 3639.5 1998 3639.5ZM2002.84 3632.22C2005.88 3630.5 2008 3627.26 2008 3623.5C2008 3617.98 2003.52 3613.5 1998 3613.5C1992.48 3613.5 1988 3617.98 1988 3623.5C1988 3627.26 1990.12 3630.5 1993.16 3632.22C1994.6 3633.02 1996.24 3633.5 1998 3633.5C1999.76 3633.5 2001.4 3633.02 2002.84 3632.22Z" fill="#ADB5BD"/>
</g>
<path d="M1935.61 3696.65V3706.36H1941.2V3709.67H1935.61V3719.51H1931.53V3696.65H1935.61ZM1905.32 3716.5C1914.34 3713.97 1919.87 3708.94 1920.62 3702.71H1907.04V3699.4H1925.04C1925.04 3709.35 1918.28 3716.55 1907 3719.81L1905.32 3716.5ZM1910.56 3727.5C1910.52 3722.82 1915.59 3719.92 1923.32 3719.94C1931.08 3719.92 1936.04 3722.82 1936.04 3727.5C1936.04 3732.23 1931.08 3735.09 1923.32 3735.11C1915.59 3735.09 1910.52 3732.23 1910.56 3727.5ZM1914.6 3727.5C1914.58 3730.21 1917.93 3731.87 1923.32 3731.89C1928.67 3731.87 1932.05 3730.21 1932.05 3727.5C1932.05 3724.8 1928.67 3723.14 1923.32 3723.16C1917.93 3723.14 1914.58 3724.8 1914.6 3727.5ZM1957.18 3703.48C1957.18 3708.17 1960.75 3712.42 1966.55 3714.14L1964.62 3717.36C1960.17 3716.01 1956.88 3713.2 1955.19 3709.54C1953.47 3713.52 1950.05 3716.57 1945.5 3718.01L1943.43 3714.83C1949.38 3713 1953.04 3708.53 1953.06 3703.48V3703.44H1944.68V3700.05H1965.56V3703.44H1957.18V3703.48ZM1942.92 3723.94C1945.93 3723.94 1949.45 3723.96 1953.1 3723.85V3716.42H1957.18V3723.72C1960.51 3723.55 1963.89 3723.29 1967.02 3722.86L1967.32 3725.83C1959.07 3727.33 1950.14 3727.31 1943.52 3727.33L1942.92 3723.94ZM1969.34 3735.15V3696.65H1973.43V3712.38H1979.36V3715.82H1973.43V3735.15H1969.34ZM2011.67 3696.61V3708.12H2017.25V3711.56H2011.67V3724.93H2007.59V3696.61H2011.67ZM1982.02 3708.86C1981.98 3703.25 1986.45 3699.29 1992.25 3699.27C1998.07 3699.29 2002.47 3703.25 2002.52 3708.86C2002.47 3714.46 1998.07 3718.46 1992.25 3718.44C1986.45 3718.46 1981.98 3714.46 1982.02 3708.86ZM1986.02 3708.86C1985.97 3712.44 1988.72 3714.87 1992.25 3714.87C1995.81 3714.87 1998.5 3712.44 1998.52 3708.86C1998.5 3705.27 1995.81 3702.84 1992.25 3702.84C1988.72 3702.84 1985.97 3705.27 1986.02 3708.86ZM1987.26 3734.34V3721.96H1991.34V3731.03H2013.3V3734.34H1987.26ZM2052.4 3696.65V3735.15H2048.49V3715.43H2043.55V3733.18H2039.73V3697.43H2043.55V3712.08H2048.49V3696.65H2052.4ZM2021.25 3725.36V3701.21H2025.33V3721.77C2028.88 3721.72 2032.77 3721.45 2037.15 3720.59L2037.58 3724.15C2032.29 3725.1 2027.89 3725.38 2023.74 3725.36H2021.25Z" fill="#ADB5BD"/>
<path d="M1941.76 3763.81C1941.35 3761.86 1939.68 3760.8 1937.81 3760.8C1935.25 3760.8 1933.27 3762.78 1933.26 3766.43C1933.27 3770.07 1935.25 3772.04 1937.81 3772.05C1939.68 3772.04 1941.34 3771 1941.76 3769.07H1943.52C1943.01 3771.96 1940.68 3773.7 1937.81 3773.7C1934.18 3773.7 1931.55 3770.9 1931.56 3766.43C1931.55 3761.96 1934.18 3759.16 1937.81 3759.16C1940.67 3759.16 1942.99 3760.87 1943.52 3763.81H1941.76ZM1955.23 3759.36H1956.99V3768.71C1956.99 3771.62 1954.81 3773.74 1951.48 3773.75C1948.14 3773.74 1945.98 3771.62 1945.98 3768.71V3759.36H1947.73V3768.58C1947.72 3770.63 1949.15 3772.1 1951.48 3772.11C1953.82 3772.1 1955.22 3770.63 1955.23 3768.58V3759.36ZM1960.12 3773.5V3759.36H1961.88V3771.94H1968.44V3773.5H1960.12ZM1968.12 3760.92V3759.36H1978.79V3760.92H1974.36V3773.5H1972.58V3760.92H1968.12ZM1990.39 3759.36H1992.15V3768.71C1992.15 3771.62 1989.97 3773.74 1986.64 3773.75C1983.3 3773.74 1981.13 3771.62 1981.13 3768.71V3759.36H1982.89V3768.58C1982.88 3770.63 1984.31 3772.1 1986.64 3772.11C1988.97 3772.1 1990.38 3770.63 1990.39 3768.58V3759.36ZM1995.27 3773.5V3759.36H2000.08C2003.39 3759.36 2004.9 3761.2 2004.9 3763.71C2004.9 3765.59 2004.06 3767.05 2002.27 3767.68L2005.45 3773.5H2003.4L2000.44 3768C2000.33 3768.01 2000.21 3768.01 2000.1 3768.01H1997.03V3773.5H1995.27ZM1997.03 3766.41H2000.02C2002.28 3766.41 2003.15 3765.39 2003.16 3763.71C2003.15 3762.03 2002.28 3760.92 2000 3760.92H1997.03V3766.41ZM2008.07 3773.5H2006.23L2011.41 3759.36H2013.26L2018.44 3773.5H2016.58L2015.17 3769.52H2009.48L2008.07 3773.5ZM2010.02 3767.97H2014.63L2012.38 3761.64H2012.27L2010.02 3767.97ZM2020.35 3773.5V3759.36H2022.11V3771.94H2028.67V3773.5H2020.35Z" fill="#ADB5BD"/>
</g>
</g>
<defs>
<filter id="filter0_b_2498_4468" x="-10" y="-10" width="2180" height="3860" filterUnits="userSpaceOnUse" color-interpolation-filters="sRGB">
<feFlood flood-opacity="0" result="BackgroundImageFix"/>
<feGaussianBlur in="BackgroundImageFix" stdDeviation="5"/>
<feComposite in2="SourceAlpha" operator="in" result="effect1_backgroundBlur_2498_4468"/>
<feBlend mode="normal" in="SourceGraphic" in2="effect1_backgroundBlur_2498_4468" result="shape"/>
</filter>
<filter id="filter1_d_2498_4468" x="-60" y="1790" width="2260" height="2100" filterUnits="userSpaceOnUse" color-interpolation-filters="sRGB">
<feFlood flood-opacity="0" result="BackgroundImageFix"/>
<feColorMatrix in="SourceAlpha" type="matrix" values="0 0 0 0 0 0 0 0 0 0 0 0 0 0 0 0 0 0 127 0" result="hardAlpha"/>
<feOffset dx="-10"/>
<feGaussianBlur stdDeviation="25"/>
<feComposite in2="hardAlpha" operator="out"/>
<feColorMatrix type="matrix" values="0 0 0 0 0 0 0 0 0 0 0 0 0 0 0 0 0 0 0.2 0"/>
<feBlend mode="multiply" in2="BackgroundImageFix" result="effect1_dropShadow_2498_4468"/>
<feBlend mode="normal" in="SourceGraphic" in2="effect1_dropShadow_2498_4468" result="shape"/>
</filter>
<filter id="filter2_d_2498_4468" x="-40" y="3478" width="2240" height="400" filterUnits="userSpaceOnUse" color-interpolation-filters="sRGB">
<feFlood flood-opacity="0" result="BackgroundImageFix"/>
<feColorMatrix in="SourceAlpha" type="matrix" values="0 0 0 0 0 0 0 0 0 0 0 0 0 0 0 0 0 0 127 0" result="hardAlpha"/>
<feOffset dy="-2"/>
<feGaussianBlur stdDeviation="20"/>
<feComposite in2="hardAlpha" operator="out"/>
<feColorMatrix type="matrix" values="0 0 0 0 0 0 0 0 0 0 0 0 0 0 0 0 0 0 0.1 0"/>
<feBlend mode="normal" in2="BackgroundImageFix" result="effect1_dropShadow_2498_4468"/>
<feBlend mode="normal" in="SourceGraphic" in2="effect1_dropShadow_2498_4468" result="shape"/>
</filter>
<linearGradient id="paint0_linear_2498_4468" x1="946" y1="-1.15293e-05" x2="1359" y2="1761.5" gradientUnits="userSpaceOnUse">
<stop stop-color="#3970B0"/>
<stop offset="0.884091" stop-color="#364063"/>
</linearGradient>
<clipPath id="clip0_2498_4468">
<rect width="2160" height="3840" fill="white"/>
</clipPath>
<clipPath id="clip1_2498_4468">
<rect width="96" height="96" fill="white" transform="translate(132 3581.5)"/>
</clipPath>
<clipPath id="clip2_2498_4468">
<rect width="96" height="96" fill="white" transform="translate(492 3581.5)"/>
</clipPath>
<clipPath id="clip3_2498_4468">
<rect width="96" height="96" fill="white" transform="translate(852 3567.5)"/>
</clipPath>
<clipPath id="clip4_2498_4468">
<rect width="96" height="96" fill="white" transform="translate(1932 3581.5)"/>
</clipPath>
</defs>
</svg>
