<svg width="3840" height="2160" viewBox="0 0 3840 2160" fill="none" xmlns="http://www.w3.org/2000/svg">
<g clip-path="url(#clip0_2498_6215)">
<rect width="3840" height="2160" fill="#F5F0EE"/>
<rect width="3840" height="1400" fill="url(#paint0_linear_2498_6215)"/>
<path d="M534.903 107.375V130H531.278L520.559 114.531H520.372V130H516.309V107.375H519.997L530.653 122.844H530.872V107.375H534.903ZM565.678 118.688C565.694 126 561.225 130.312 555.303 130.312C549.35 130.312 544.913 125.984 544.928 118.688C544.913 111.375 549.35 107.062 555.303 107.062C561.225 107.062 565.694 111.375 565.678 118.688ZM549.022 118.688C549.006 123.859 551.616 126.656 555.303 126.656C559.006 126.656 561.6 123.859 561.584 118.688C561.6 113.516 559.006 110.719 555.303 110.719C551.616 110.719 549.006 113.516 549.022 118.688ZM573.703 110.781V107.375H591.734V110.781H584.766V130H580.703V110.781H573.703ZM605.384 107.375V130H601.322V107.375H605.384ZM631.253 115C630.769 112.281 628.597 110.719 625.847 110.719C622.144 110.719 619.519 113.562 619.534 118.688C619.519 123.891 622.159 126.656 625.847 126.656C628.534 126.656 630.706 125.156 631.253 122.5H635.347C634.722 126.844 631.144 130.312 625.784 130.312C619.816 130.312 615.425 125.984 615.441 118.688C615.425 111.375 619.863 107.062 625.784 107.062C630.784 107.062 634.644 109.969 635.347 115H631.253ZM645.247 130V107.375H659.966V110.781H649.309V116.969H659.184V120.375H649.309V126.562H660.028V130H645.247Z" fill="#ADB5BD"/>
<path d="M539.738 219.539C557.393 219.584 568.533 225.154 568.578 234.812C568.533 244.246 557.393 249.906 539.738 249.906C522.264 249.906 510.988 244.246 510.988 234.812C510.988 225.154 522.264 219.584 539.738 219.539ZM503.352 213.699V205.613H531.922V190.879H541.805V205.613H577.023V213.699H503.352ZM511.797 180.547V172.641H568.039V179.379C568.084 185.803 568.084 192.631 565.793 200.941L555.91 200.043C557.932 192.182 558.066 186.432 558.066 180.547H511.797ZM521.051 234.812C520.961 239.574 528.014 242.18 539.738 242.18C551.508 242.18 558.605 239.574 558.695 234.812C558.605 229.871 551.508 227.086 539.738 227.086C528.014 227.086 520.961 229.871 521.051 234.812ZM613.32 191.867C613.32 205.164 621.137 219.18 634.254 224.66L628.773 232.566C619.16 228.389 612.152 219.898 608.424 209.566C604.695 220.707 597.553 230.051 588.074 234.543L582.324 226.727C595.127 220.797 603.123 205.658 603.168 191.867V185.039H585.289V176.773H631.109V185.039H613.32V191.867ZM640.184 249.996V168.777H650.246V249.996H640.184ZM691.215 188.273C691.125 202.783 698.402 217.428 710.98 223.492L704.871 231.488C696.066 227.041 689.732 218.461 686.273 208.129C682.725 219.18 676.076 228.344 666.777 233.016L660.668 225.02C673.74 218.82 681.197 203.277 681.242 188.273V175.336H691.215V188.273ZM715.832 249.996V168.777H725.805V200.582H738.293V209.117H725.805V249.996H715.832ZM805.766 168.777V190.16H817.086V198.516H805.766V220.617H795.793V168.777H805.766ZM741.797 184.859V177.043H760.934V168.238H770.906V177.043H789.953V184.859H741.797ZM745.93 202.648C745.93 193.934 754.016 188.139 765.875 188.094C777.6 188.139 785.686 193.934 785.73 202.648C785.686 211.363 777.6 217.113 765.875 217.113C754.016 217.113 745.93 211.363 745.93 202.648ZM752.398 235.621C752.309 226.592 762.686 221.291 779.531 221.336C796.197 221.291 806.664 226.592 806.664 235.621C806.664 244.561 796.197 249.906 779.531 249.906C762.686 249.906 752.309 244.561 752.398 235.621ZM755.633 202.648C755.588 207.051 759.721 209.611 765.875 209.566C772.029 209.611 776.207 207.051 776.207 202.648C776.207 198.156 772.029 195.461 765.875 195.461C759.721 195.461 755.588 198.156 755.633 202.648ZM762.281 235.621C762.236 239.934 768.436 242.359 779.531 242.359C790.492 242.359 796.646 239.934 796.691 235.621C796.646 231.174 790.492 228.973 779.531 228.973C768.436 228.973 762.236 231.174 762.281 235.621Z" fill="white"/>
<g filter="url(#filter0_d_2498_6215)">
<rect width="320" height="2160" fill="white"/>
<g clip-path="url(#clip1_2498_6215)">
<path d="M160 155.5C164.4 155.5 168 151.9 168 147.5H152C152 151.9 155.6 155.5 160 155.5ZM184 131.5V111.5C184 99.22 177.48 88.94 166 86.22V83.5C166 80.18 163.32 77.5 160 77.5C156.68 77.5 154 80.18 154 83.5V86.22C142.56 88.94 136 99.18 136 111.5V131.5L128 139.5V143.5H192V139.5L184 131.5ZM176 135.5H144V111.5C144 101.58 150.04 93.5 160 93.5C169.96 93.5 176 101.58 176 111.5V135.5Z" fill="#191F28"/>
</g>
<path d="M102.723 206.758C111.166 206.779 116.494 209.443 116.516 214.062C116.494 218.574 111.166 221.281 102.723 221.281C94.3652 221.281 88.9727 218.574 88.9727 214.062C88.9727 209.443 94.3652 206.779 102.723 206.758ZM85.3203 203.965V200.098H98.9844V193.051H103.711V200.098H120.555V203.965H85.3203ZM89.3594 188.109V184.328H116.258V187.551C116.279 190.623 116.279 193.889 115.184 197.863L110.457 197.434C111.424 193.674 111.488 190.924 111.488 188.109H89.3594ZM93.7852 214.062C93.7422 216.34 97.1152 217.586 102.723 217.586C108.352 217.586 111.746 216.34 111.789 214.062C111.746 211.699 108.352 210.367 102.723 210.367C97.1152 210.367 93.7422 211.699 93.7852 214.062ZM137.914 193.523C137.914 199.883 141.652 206.586 147.926 209.207L145.305 212.988C140.707 210.99 137.355 206.93 135.572 201.988C133.789 207.316 130.373 211.785 125.84 213.934L123.09 210.195C129.213 207.359 133.037 200.119 133.059 193.523V190.258H124.508V186.305H146.422V190.258H137.914V193.523ZM150.762 221.324V182.48H155.574V221.324H150.762ZM175.168 191.805C175.125 198.744 178.605 205.748 184.621 208.648L181.699 212.473C177.488 210.346 174.459 206.242 172.805 201.301C171.107 206.586 167.928 210.969 163.48 213.203L160.559 209.379C166.811 206.414 170.377 198.98 170.398 191.805V185.617H175.168V191.805ZM186.941 221.324V182.48H191.711V197.691H197.684V201.773H191.711V221.324H186.941ZM229.953 182.48V192.707H235.367V196.703H229.953V207.273H225.184V182.48H229.953ZM199.359 190.172V186.434H208.512V182.223H213.281V186.434H222.391V190.172H199.359ZM201.336 198.68C201.336 194.512 205.203 191.74 210.875 191.719C216.482 191.74 220.35 194.512 220.371 198.68C220.35 202.848 216.482 205.598 210.875 205.598C205.203 205.598 201.336 202.848 201.336 198.68ZM204.43 214.449C204.387 210.131 209.35 207.596 217.406 207.617C225.377 207.596 230.383 210.131 230.383 214.449C230.383 218.725 225.377 221.281 217.406 221.281C209.35 221.281 204.387 218.725 204.43 214.449ZM205.977 198.68C205.955 200.785 207.932 202.01 210.875 201.988C213.818 202.01 215.816 200.785 215.816 198.68C215.816 196.531 213.818 195.242 210.875 195.242C207.932 195.242 205.955 196.531 205.977 198.68ZM209.156 214.449C209.135 216.512 212.1 217.672 217.406 217.672C222.648 217.672 225.592 216.512 225.613 214.449C225.592 212.322 222.648 211.27 217.406 211.27C212.1 211.27 209.135 212.322 209.156 214.449Z" fill="#191F28"/>
<path d="M137.48 245.359V259.5H135.801L128.145 248.484H128.008V259.5H126.25V245.359H127.949L135.605 256.395H135.742V245.359H137.48ZM152.559 252.43C152.568 256.902 149.932 259.695 146.309 259.695C142.676 259.695 140.049 256.902 140.059 252.43C140.049 247.957 142.676 245.164 146.309 245.164C149.932 245.164 152.568 247.957 152.559 252.43ZM141.758 252.43C141.768 256.072 143.75 258.045 146.309 258.055C148.867 258.045 150.85 256.072 150.859 252.43C150.85 248.777 148.867 246.805 146.309 246.805C143.75 246.805 141.768 248.777 141.758 252.43ZM153.77 246.922V245.359H164.434V246.922H160V259.5H158.223V246.922H153.77ZM168.535 245.359V259.5H166.777V245.359H168.535ZM181.309 249.812C180.898 247.859 179.229 246.805 177.363 246.805C174.805 246.805 172.822 248.777 172.812 252.43C172.822 256.072 174.805 258.045 177.363 258.055C179.229 258.045 180.889 257 181.309 255.066H183.066C182.559 257.957 180.234 259.695 177.363 259.695C173.73 259.695 171.104 256.902 171.113 252.43C171.104 247.957 173.73 245.164 177.363 245.164C180.225 245.164 182.539 246.873 183.066 249.812H181.309ZM185.527 259.5V245.359H194.102V246.922H187.285V251.648H193.652V253.191H187.285V257.938H194.199V259.5H185.527Z" fill="#191F28"/>
<path d="M100 292.5C146.863 292.5 173.137 292.5 220 292.5" stroke="#0C152D" stroke-width="7" stroke-linecap="round"/>
<g clip-path="url(#clip2_2498_6215)">
<path d="M141.579 485.958H134.211V511.858H141.579V485.958ZM163.684 485.958H156.316V511.858H163.684V485.958ZM195 519.258H125V526.658H195V519.258ZM185.789 485.958H178.421V511.858H185.789V485.958ZM160 461.02L179.195 471.158H140.805L160 461.02ZM160 452.658L125 471.158V478.558H195V471.158L160 452.658Z" fill="#ADB5BD"/>
</g>
<path d="M117.246 556.652V595.238H113.164V556.652H117.246ZM86.6953 573.023C86.6953 564.795 90.8418 559.553 96.6641 559.531C102.379 559.553 106.59 564.795 106.59 573.023C106.59 581.338 102.379 586.58 96.6641 586.559C90.8418 586.58 86.6953 581.338 86.6953 573.023ZM90.6484 573.023C90.627 579.146 93.0762 582.906 96.6641 582.906C100.188 582.906 102.637 579.146 102.637 573.023C102.637 566.986 100.188 563.205 96.6641 563.184C93.0762 563.205 90.627 566.986 90.6484 573.023ZM158.496 575.43V578.738H123.391V575.43H131.812V570.252C128.826 569.049 127.15 567.115 127.172 564.559C127.15 559.982 132.457 557.318 140.922 557.34C149.365 557.318 154.65 559.982 154.672 564.559C154.65 567.115 152.975 569.049 149.988 570.273V575.43H158.496ZM127.559 588.191C127.559 583.787 132.543 581.359 140.922 581.359C149.193 581.359 154.178 583.787 154.199 588.191C154.178 592.639 149.193 595.066 140.922 595.066C132.543 595.066 127.559 592.639 127.559 588.191ZM131.383 564.559C131.361 567.137 134.928 568.576 140.922 568.598C146.873 568.576 150.482 567.137 150.461 564.559C150.482 561.98 146.873 560.498 140.922 560.477C134.928 560.498 131.361 561.98 131.383 564.559ZM131.684 588.191C131.662 590.598 135.035 591.973 140.922 591.93C146.723 591.973 150.117 590.598 150.117 588.191C150.117 585.828 146.723 584.496 140.922 584.496C135.035 584.496 131.662 585.828 131.684 588.191ZM135.938 575.43H145.949V571.326C144.445 571.562 142.748 571.691 140.922 571.691C139.117 571.691 137.441 571.562 135.938 571.348V575.43ZM191.668 556.609V568.125H197.254V571.562H191.668V584.926H187.586V556.609H191.668ZM162.02 568.855C161.977 563.248 166.445 559.295 172.246 559.273C178.068 559.295 182.473 563.248 182.516 568.855C182.473 574.463 178.068 578.459 172.246 578.438C166.445 578.459 161.977 574.463 162.02 568.855ZM166.016 568.855C165.973 572.443 168.723 574.871 172.246 574.871C175.812 574.871 178.498 572.443 178.52 568.855C178.498 565.268 175.812 562.84 172.246 562.84C168.723 562.84 165.973 565.268 166.016 568.855ZM167.262 594.336V581.961H171.344V591.027H193.301V594.336H167.262ZM232.402 556.652V595.152H228.492V575.43H223.551V593.176H219.727V557.426H223.551V572.078H228.492V556.652H232.402ZM201.25 585.355V561.207H205.332V581.768C208.877 581.725 212.766 581.445 217.148 580.586L217.578 584.152C212.293 585.098 207.889 585.377 203.742 585.355H201.25Z" fill="#ADB5BD"/>
<path d="M97.6367 619.359V633.5H95.8789V619.359H97.6367ZM111.992 619.359V633.5H110.312L102.656 622.484H102.52V633.5H100.762V619.359H102.461L110.117 630.395H110.254V619.359H111.992ZM115.117 633.5V619.359H123.633V620.922H116.875V625.648H122.988V627.191H116.875V633.5H115.117ZM138.203 626.43C138.213 630.902 135.576 633.695 131.953 633.695C128.32 633.695 125.693 630.902 125.703 626.43C125.693 621.957 128.32 619.164 131.953 619.164C135.576 619.164 138.213 621.957 138.203 626.43ZM127.402 626.43C127.412 630.072 129.395 632.045 131.953 632.055C134.512 632.045 136.494 630.072 136.504 626.43C136.494 622.777 134.512 620.805 131.953 620.805C129.395 620.805 127.412 622.777 127.402 626.43ZM140.781 633.5V619.359H145.586C148.896 619.359 150.41 621.195 150.41 623.715C150.41 625.59 149.57 627.055 147.773 627.68L150.957 633.5H148.906L145.947 628.002C145.84 628.012 145.723 628.012 145.605 628.012H142.539V633.5H140.781ZM142.539 626.41H145.527C147.783 626.41 148.662 625.395 148.672 623.715C148.662 622.025 147.783 620.922 145.508 620.922H142.539V626.41ZM152.949 619.359H155.059L159.824 631H160L164.766 619.359H166.875V633.5H165.215V622.816H165.078L160.684 633.5H159.121L154.727 622.816H154.609V633.5H152.949V619.359ZM170.625 633.5H168.789L173.965 619.359H175.82L180.996 633.5H179.141L177.725 629.516H172.041L170.625 633.5ZM172.578 627.973H177.188L174.941 621.645H174.824L172.578 627.973ZM180.469 620.922V619.359H191.133V620.922H186.699V633.5H184.922V620.922H180.469ZM195.234 619.359V633.5H193.477V619.359H195.234ZM210.312 626.43C210.322 630.902 207.686 633.695 204.062 633.695C200.43 633.695 197.803 630.902 197.812 626.43C197.803 621.957 200.43 619.164 204.062 619.164C207.686 619.164 210.322 621.957 210.312 626.43ZM199.512 626.43C199.521 630.072 201.504 632.045 204.062 632.055C206.621 632.045 208.604 630.072 208.613 626.43C208.604 622.777 206.621 620.805 204.062 620.805C201.504 620.805 199.521 622.777 199.512 626.43ZM224.121 619.359V633.5H222.441L214.785 622.484H214.648V633.5H212.891V619.359H214.59L222.246 630.395H222.383V619.359H224.121Z" fill="#ADB5BD"/>
<g clip-path="url(#clip3_2498_6215)">
<path d="M160 809.5C144.52 809.5 132 822.02 132 837.5C132 858.5 160 889.5 160 889.5C160 889.5 188 858.5 188 837.5C188 822.02 175.48 809.5 160 809.5ZM140 837.5C140 826.46 148.96 817.5 160 817.5C171.04 817.5 180 826.46 180 837.5C180 849.02 168.48 866.26 160 877.02C151.68 866.34 140 848.9 140 837.5Z" fill="#ADB5BD"/>
<path d="M160 847.5C165.523 847.5 170 843.023 170 837.5C170 831.977 165.523 827.5 160 827.5C154.477 827.5 150 831.977 150 837.5C150 843.023 154.477 847.5 160 847.5Z" fill="#ADB5BD"/>
</g>
<path d="M99.5 926.449C99.457 933.475 103.711 940.564 109.684 943.207L107.234 946.43C102.809 944.324 99.3066 940.006 97.502 934.742C95.7188 940.393 92.1738 945.033 87.5547 947.289L85.0625 943.852C91.1211 941.166 95.375 933.797 95.375 926.449V919.875H99.5V926.449ZM113.164 955.238V916.652H117.246V955.238H113.164ZM155.488 916.652V936.461H151.406V926.578H143.285V923.27H151.406V916.652H155.488ZM123.262 933.367C129.277 931.455 132.865 926.664 132.887 921.25V917.898H136.926V921.25C136.926 926.148 140.449 930.703 146.25 932.551L144.102 935.73C139.869 934.27 136.668 931.369 134.971 927.695C133.295 931.842 130.008 935.064 125.453 936.633L123.262 933.367ZM130.309 941.488V938.266H155.488V947.848H134.391V951.414H156.82V954.68H130.395V944.754H151.449V941.488H130.309ZM191.668 916.609V928.125H197.254V931.562H191.668V944.926H187.586V916.609H191.668ZM162.02 928.855C161.977 923.248 166.445 919.295 172.246 919.273C178.068 919.295 182.473 923.248 182.516 928.855C182.473 934.463 178.068 938.459 172.246 938.438C166.445 938.459 161.977 934.463 162.02 928.855ZM166.016 928.855C165.973 932.443 168.723 934.871 172.246 934.871C175.812 934.871 178.498 932.443 178.52 928.855C178.498 925.268 175.812 922.84 172.246 922.84C168.723 922.84 165.973 925.268 166.016 928.855ZM167.262 954.336V941.961H171.344V951.027H193.301V954.336H167.262ZM232.402 916.652V955.152H228.492V935.43H223.551V953.176H219.727V917.426H223.551V932.078H228.492V916.652H232.402ZM201.25 945.355V921.207H205.332V941.768C208.877 941.725 212.766 941.445 217.148 940.586L217.578 944.152C212.293 945.098 207.889 945.377 203.742 945.355H201.25Z" fill="#ADB5BD"/>
<path d="M121.162 993.5V979.359H129.678V980.922H122.92V985.648H129.033V987.191H122.92V993.5H121.162ZM131.143 993.5H129.307L134.482 979.359H136.338L141.514 993.5H139.658L138.242 989.516H132.559L131.143 993.5ZM133.096 987.973H137.705L135.459 981.645H135.342L133.096 987.973ZM152.412 983.812C152.002 981.859 150.332 980.805 148.467 980.805C145.908 980.805 143.926 982.777 143.916 986.43C143.926 990.072 145.908 992.045 148.467 992.055C150.332 992.045 151.992 991 152.412 989.066H154.17C153.662 991.957 151.338 993.695 148.467 993.695C144.834 993.695 142.207 990.902 142.217 986.43C142.207 981.957 144.834 979.164 148.467 979.164C151.328 979.164 153.643 980.873 154.17 983.812H152.412ZM158.389 979.359V993.5H156.631V979.359H158.389ZM161.514 993.5V979.359H163.271V991.938H169.834V993.5H161.514ZM173.936 979.359V993.5H172.178V979.359H173.936ZM176.279 980.922V979.359H186.943V980.922H182.51V993.5H180.732V980.922H176.279ZM188.076 979.359H190.088L193.975 985.922H194.15L198.037 979.359H200.068L194.951 987.699V993.5H193.174V987.699L188.076 979.359Z" fill="#ADB5BD"/>
<path d="M196.68 1169.74C193.813 1169.25 190.91 1168.99 188 1168.98C178.074 1168.97 168.354 1171.82 160 1177.18C151.625 1171.89 141.907 1169.11 132 1169.18C129.091 1169.19 126.188 1169.45 123.32 1169.94C122.381 1170.1 121.531 1170.59 120.922 1171.33C120.313 1172.06 119.986 1172.99 120 1173.94V1221.94C119.992 1222.53 120.113 1223.11 120.355 1223.65C120.597 1224.18 120.954 1224.66 121.401 1225.04C121.848 1225.42 122.373 1225.7 122.94 1225.86C123.507 1226.01 124.101 1226.04 124.68 1225.94C130.412 1224.95 136.285 1225.11 141.953 1226.42C147.62 1227.74 152.968 1230.17 157.68 1233.58L158.16 1233.86H158.6C159.044 1234.04 159.52 1234.14 160 1234.14C160.481 1234.14 160.957 1234.04 161.4 1233.86H161.84L162.32 1233.58C167 1230.09 172.332 1227.58 178.001 1226.19C183.669 1224.81 189.559 1224.57 195.32 1225.5C195.9 1225.6 196.494 1225.57 197.061 1225.42C197.627 1225.26 198.153 1224.98 198.6 1224.6C199.046 1224.22 199.404 1223.74 199.646 1223.21C199.888 1222.67 200.009 1222.09 200 1221.5V1173.5C199.959 1172.59 199.607 1171.72 199.003 1171.03C198.399 1170.35 197.58 1169.89 196.68 1169.74ZM156 1222.9C148.6 1219.01 140.362 1216.97 132 1216.98C130.68 1216.98 129.36 1216.98 128 1216.98V1176.98C129.333 1176.9 130.668 1176.9 132 1176.98C140.534 1176.97 148.881 1179.47 156 1184.18V1222.9ZM192 1217.14C190.64 1217.14 189.32 1217.14 188 1217.14C179.638 1217.13 171.401 1219.17 164 1223.06V1184.18C171.119 1179.47 179.467 1176.97 188 1176.98C189.333 1176.9 190.668 1176.9 192 1176.98V1217.14ZM196.68 1233.74C193.813 1233.25 190.91 1232.99 188 1232.98C178.074 1232.97 168.354 1235.82 160 1241.18C151.646 1235.82 141.927 1232.97 132 1232.98C129.091 1232.99 126.188 1233.25 123.32 1233.74C122.8 1233.82 122.3 1234.01 121.851 1234.28C121.402 1234.56 121.012 1234.92 120.704 1235.35C120.395 1235.78 120.174 1236.26 120.054 1236.77C119.933 1237.29 119.915 1237.82 120 1238.34C120.204 1239.38 120.81 1240.29 121.688 1240.89C122.565 1241.48 123.641 1241.7 124.68 1241.5C130.412 1240.51 136.285 1240.67 141.953 1241.98C147.62 1243.3 152.968 1245.73 157.68 1249.14C158.358 1249.62 159.169 1249.88 160 1249.88C160.832 1249.88 161.643 1249.62 162.32 1249.14C167.033 1245.73 172.381 1243.3 178.048 1241.98C183.716 1240.67 189.588 1240.51 195.32 1241.5C196.36 1241.7 197.436 1241.48 198.313 1240.89C199.19 1240.29 199.797 1239.38 200 1238.34C200.086 1237.82 200.068 1237.29 199.947 1236.77C199.826 1236.26 199.605 1235.78 199.297 1235.35C198.988 1234.92 198.598 1234.56 198.149 1234.28C197.7 1234.01 197.201 1233.82 196.68 1233.74Z" fill="#ADB5BD"/>
<path d="M117.289 1276.7V1304.88H113.207V1276.7H117.289ZM85.5781 1296.2C91.6152 1293.97 95.1816 1288.43 95.2031 1282.62V1278.8H99.3711V1282.62C99.3496 1288.25 102.916 1293.41 108.867 1295.47L106.762 1298.74C102.314 1297.08 99.0273 1293.82 97.3086 1289.65C95.6113 1294.12 92.2812 1297.69 87.7695 1299.43L85.5781 1296.2ZM92.1094 1314.34V1302.22H96.2344V1311.03H118.449V1314.34H92.1094ZM136.883 1284.99C136.883 1289.52 140.363 1293.82 146.25 1295.47L144.316 1298.74C139.912 1297.41 136.625 1294.59 134.928 1291.03C133.23 1294.94 129.879 1297.99 125.367 1299.43L123.348 1296.25C129.234 1294.46 132.844 1289.91 132.844 1284.99V1284.43H124.465V1281.16H132.844V1276.52H136.926V1281.16H145.262V1284.43H136.883V1284.99ZM128.203 1305.36V1302.05H153.641V1315.2H149.559V1305.36H128.203ZM149.559 1300.2V1276.65H153.641V1286.66H159.227V1290.14H153.641V1300.2H149.559ZM192.613 1294.4V1297.66H180.969V1307.07H196.652V1310.43H161.418V1307.07H176.93V1297.66H165.801V1279.62H192.27V1282.93H169.883V1294.4H192.613ZM213.324 1286.45C213.324 1293.5 217.277 1300.52 223.164 1303.16L220.672 1306.43C216.311 1304.24 213.002 1299.9 211.305 1294.63C209.607 1300.18 206.256 1304.86 201.809 1307.16L199.23 1303.85C205.203 1300.99 209.178 1293.58 209.199 1286.45V1279.88H213.324V1286.45ZM218.91 1292.77V1289.46H227.504V1276.65H231.543V1315.24H227.504V1292.77H218.91Z" fill="#ADB5BD"/>
<path d="M68.0176 1339.36V1353.5H66.3379L58.6816 1342.48H58.5449V1353.5H56.7871V1339.36H58.4863L66.1426 1350.39H66.2793V1339.36H68.0176ZM71.1426 1353.5V1339.36H79.7168V1340.92H72.9004V1345.65H79.2676V1347.19H72.9004V1351.94H79.8145V1353.5H71.1426ZM85.1074 1353.5L81.2402 1339.36H83.0176L85.9668 1350.8H86.1035L89.0918 1339.36H91.0645L94.0723 1350.8H94.1895L97.1387 1339.36H98.916L95.0488 1353.5H93.2324L90.1465 1342.31H90.0293L86.9238 1353.5H85.1074ZM106.436 1353.5H104.6L109.775 1339.36H111.631L116.807 1353.5H114.951L113.535 1349.52H107.852L106.436 1353.5ZM108.389 1347.97H112.998L110.752 1341.64H110.635L108.389 1347.97ZM118.721 1353.5V1339.36H123.525C126.836 1339.36 128.35 1341.2 128.35 1343.71C128.35 1345.59 127.51 1347.05 125.713 1347.68L128.896 1353.5H126.846L123.887 1348C123.779 1348.01 123.662 1348.01 123.545 1348.01H120.479V1353.5H118.721ZM120.479 1346.41H123.467C125.723 1346.41 126.602 1345.39 126.611 1343.71C126.602 1342.03 125.723 1340.92 123.447 1340.92H120.479V1346.41ZM130.889 1353.5V1339.36H135.693C139.004 1339.36 140.518 1341.2 140.518 1343.71C140.518 1345.59 139.678 1347.05 137.881 1347.68L141.064 1353.5H139.014L136.055 1348C135.947 1348.01 135.83 1348.01 135.713 1348.01H132.646V1353.5H130.889ZM132.646 1346.41H135.635C137.891 1346.41 138.77 1345.39 138.779 1343.71C138.77 1342.03 137.891 1340.92 135.615 1340.92H132.646V1346.41ZM144.814 1339.36V1353.5H143.057V1339.36H144.814ZM148.584 1339.36L152.744 1351.21H152.9L157.08 1339.36H158.936L153.76 1353.5H151.904L146.729 1339.36H148.584ZM160.225 1353.5H158.389L163.564 1339.36H165.42L170.596 1353.5H168.74L167.324 1349.52H161.641L160.225 1353.5ZM162.178 1347.97H166.787L164.541 1341.64H164.424L162.178 1347.97ZM172.51 1353.5V1339.36H174.268V1351.94H180.83V1353.5H172.51ZM190.889 1342.91C190.742 1341.53 189.453 1340.73 187.764 1340.73C185.889 1340.73 184.668 1341.7 184.658 1343.05C184.668 1344.54 186.318 1345.09 187.393 1345.36L188.799 1345.75C190.312 1346.14 192.803 1347.01 192.803 1349.65C192.803 1351.96 190.947 1353.74 187.666 1353.75C184.619 1353.74 182.734 1352.17 182.568 1349.83H184.365C184.512 1351.41 185.986 1352.16 187.666 1352.15C189.619 1352.16 191.084 1351.16 191.084 1349.61C191.084 1348.24 189.775 1347.71 188.291 1347.29L186.553 1346.82C184.336 1346.18 182.949 1345.04 182.959 1343.13C182.949 1340.74 185.078 1339.16 187.822 1339.16C190.566 1339.16 192.539 1340.77 192.607 1342.91H190.889ZM200.342 1353.5V1339.36H205.303C208.271 1339.36 209.668 1341.03 209.658 1343.11C209.668 1344.93 208.584 1345.74 207.354 1346.08V1346.21C208.672 1346.29 210.215 1347.5 210.225 1349.75C210.215 1351.87 208.818 1353.5 205.479 1353.5H200.342ZM202.1 1351.94H205.459C207.676 1351.94 208.535 1350.96 208.525 1349.73C208.535 1348.29 207.373 1347.07 205.557 1347.07H202.1V1351.94ZM202.1 1345.55H205.244C206.777 1345.56 207.979 1344.6 207.979 1343.13C207.979 1341.9 207.148 1340.92 205.303 1340.92H202.1V1345.55ZM224.678 1346.43C224.688 1350.9 222.051 1353.7 218.428 1353.7C214.795 1353.7 212.168 1350.9 212.178 1346.43C212.168 1341.96 214.795 1339.16 218.428 1339.16C222.051 1339.16 224.688 1341.96 224.678 1346.43ZM213.877 1346.43C213.887 1350.07 215.869 1352.04 218.428 1352.05C220.986 1352.04 222.969 1350.07 222.979 1346.43C222.969 1342.78 220.986 1340.8 218.428 1340.8C215.869 1340.8 213.887 1342.78 213.877 1346.43ZM239.209 1346.43C239.219 1350.9 236.582 1353.7 232.959 1353.7C229.326 1353.7 226.699 1350.9 226.709 1346.43C226.699 1341.96 229.326 1339.16 232.959 1339.16C236.582 1339.16 239.219 1341.96 239.209 1346.43ZM228.408 1346.43C228.418 1350.07 230.4 1352.04 232.959 1352.05C235.518 1352.04 237.5 1350.07 237.51 1346.43C237.5 1342.78 235.518 1340.8 232.959 1340.8C230.4 1340.8 228.418 1342.78 228.408 1346.43ZM241.787 1353.5V1339.36H243.545V1346.35H243.721L250.01 1339.36H252.314L246.396 1345.75L252.314 1353.5H250.166L245.303 1346.96L243.545 1348.95V1353.5H241.787ZM261.904 1342.91C261.758 1341.53 260.469 1340.73 258.779 1340.73C256.904 1340.73 255.684 1341.7 255.674 1343.05C255.684 1344.54 257.334 1345.09 258.408 1345.36L259.814 1345.75C261.328 1346.14 263.818 1347.01 263.818 1349.65C263.818 1351.96 261.963 1353.74 258.682 1353.75C255.635 1353.74 253.75 1352.17 253.584 1349.83H255.381C255.527 1351.41 257.002 1352.16 258.682 1352.15C260.635 1352.16 262.1 1351.16 262.1 1349.61C262.1 1348.24 260.791 1347.71 259.307 1347.29L257.568 1346.82C255.352 1346.18 253.965 1345.04 253.975 1343.13C253.965 1340.74 256.094 1339.16 258.838 1339.16C261.582 1339.16 263.555 1340.77 263.623 1342.91H261.904Z" fill="#ADB5BD"/>
<path d="M196 1537.5H184V1533.5C184 1532.44 183.579 1531.42 182.828 1530.67C182.078 1529.92 181.061 1529.5 180 1529.5H140C138.939 1529.5 137.922 1529.92 137.172 1530.67C136.421 1531.42 136 1532.44 136 1533.5V1537.5H124C122.939 1537.5 121.922 1537.92 121.172 1538.67C120.421 1539.42 120 1540.44 120 1541.5V1553.5C120 1557.74 121.686 1561.81 124.686 1564.81C127.687 1567.81 131.757 1569.5 136 1569.5H142.16C145.778 1573.54 150.656 1576.23 156 1577.14V1585.5H152C148.817 1585.5 145.765 1586.76 143.515 1589.01C141.264 1591.27 140 1594.32 140 1597.5V1605.5C140 1606.56 140.421 1607.58 141.172 1608.33C141.922 1609.08 142.939 1609.5 144 1609.5H176C177.061 1609.5 178.078 1609.08 178.828 1608.33C179.579 1607.58 180 1606.56 180 1605.5V1597.5C180 1594.32 178.736 1591.27 176.485 1589.01C174.235 1586.76 171.183 1585.5 168 1585.5H164V1577.14C169.344 1576.23 174.222 1573.54 177.84 1569.5H184C188.243 1569.5 192.313 1567.81 195.314 1564.81C198.314 1561.81 200 1557.74 200 1553.5V1541.5C200 1540.44 199.579 1539.42 198.828 1538.67C198.078 1537.92 197.061 1537.5 196 1537.5ZM136 1561.5C133.878 1561.5 131.843 1560.66 130.343 1559.16C128.843 1557.66 128 1555.62 128 1553.5V1545.5H136V1553.5C136.009 1556.23 136.482 1558.93 137.4 1561.5H136ZM168 1593.5C169.061 1593.5 170.078 1593.92 170.828 1594.67C171.579 1595.42 172 1596.44 172 1597.5V1601.5H148V1597.5C148 1596.44 148.421 1595.42 149.172 1594.67C149.922 1593.92 150.939 1593.5 152 1593.5H168ZM176 1553.5C176 1557.74 174.314 1561.81 171.314 1564.81C168.313 1567.81 164.243 1569.5 160 1569.5C155.757 1569.5 151.687 1567.81 148.686 1564.81C145.686 1561.81 144 1557.74 144 1553.5V1537.5H176V1553.5ZM192 1553.5C192 1555.62 191.157 1557.66 189.657 1559.16C188.157 1560.66 186.122 1561.5 184 1561.5H182.6C183.518 1558.93 183.991 1556.23 184 1553.5V1545.5H192V1553.5Z" fill="#ADB5BD"/>
<path d="M99.3926 1636.65V1675.15H95.4824V1655.26H90.498V1673.18H86.7598V1637.43H90.498V1651.91H95.4824V1636.65H99.3926ZM67.6387 1665.91V1641.29H82.0762V1644.6H71.7207V1662.43C76.4473 1662.41 80.0137 1662.2 84.1387 1661.4L84.4395 1664.75C79.8203 1665.72 75.8242 1665.87 70.2168 1665.91H67.6387ZM139.439 1653.54V1656.59H123.928V1659.81H135.057V1668.49H112.627V1671.67H136.131V1674.77H108.631V1665.66H131.018V1662.78H108.588V1659.81H119.889V1656.59H104.42V1653.54H139.439ZM106.139 1648.94C113.508 1648.53 118.707 1646.28 119.545 1643.01H107.9V1639.88H119.889V1636.48H123.928V1639.88H135.959V1643.01H124.25C125.066 1646.28 130.266 1648.53 137.721 1648.94L136.475 1652.04C129.771 1651.54 124.314 1649.59 121.908 1646.21C119.502 1649.59 114.045 1651.54 107.299 1652.04L106.139 1648.94ZM147.561 1640.35V1649.59H154.951V1640.35H158.689V1651.09H163.803V1637.43H167.713V1673.3H163.803V1654.48H158.689V1665.66H143.693V1640.35H147.561ZM147.561 1662.26H154.951V1652.89H147.561V1662.26ZM171.623 1675.15V1636.65H175.533V1675.15H171.623ZM199.982 1642.11C199.982 1648.38 206.664 1654.31 214.076 1655.64L212.186 1659.04C206.02 1657.71 200.369 1653.67 197.877 1648.25C195.342 1653.65 189.691 1657.66 183.525 1659.04L181.721 1655.64C189.025 1654.27 195.664 1648.38 195.686 1642.11V1639.19H199.982V1642.11ZM180.432 1670.08V1666.69H215.666V1670.08H180.432ZM249.697 1657.15V1660.41H222.885V1639.83H249.311V1643.14H227.01V1648.34H248.494V1651.56H227.01V1657.15H249.697ZM218.459 1670.3V1666.95H253.693V1670.3H218.459Z" fill="#ADB5BD"/>
<path d="M69.5508 1713.5V1699.36H74.5117C77.4805 1699.36 78.877 1701.03 78.8672 1703.11C78.877 1704.93 77.793 1705.74 76.5625 1706.08V1706.21C77.8809 1706.29 79.4238 1707.5 79.4336 1709.75C79.4238 1711.87 78.0273 1713.5 74.6875 1713.5H69.5508ZM71.3086 1711.94H74.668C76.8848 1711.94 77.7441 1710.96 77.7344 1709.73C77.7441 1708.29 76.582 1707.07 74.7656 1707.07H71.3086V1711.94ZM71.3086 1705.55H74.4531C75.9863 1705.56 77.1875 1704.6 77.1875 1703.13C77.1875 1701.9 76.3574 1700.92 74.5117 1700.92H71.3086V1705.55ZM81.9336 1713.5V1699.36H90.5078V1700.92H83.6914V1705.65H90.0586V1707.19H83.6914V1711.94H90.6055V1713.5H81.9336ZM100.996 1702.91C100.85 1701.53 99.5605 1700.73 97.8711 1700.73C95.9961 1700.73 94.7754 1701.7 94.7656 1703.05C94.7754 1704.54 96.4258 1705.09 97.5 1705.36L98.9062 1705.75C100.42 1706.14 102.91 1707.01 102.91 1709.65C102.91 1711.96 101.055 1713.74 97.7734 1713.75C94.7266 1713.74 92.8418 1712.17 92.6758 1709.83H94.4727C94.6191 1711.41 96.0938 1712.16 97.7734 1712.15C99.7266 1712.16 101.191 1711.16 101.191 1709.61C101.191 1708.24 99.8828 1707.71 98.3984 1707.29L96.6602 1706.82C94.4434 1706.18 93.0566 1705.04 93.0664 1703.13C93.0566 1700.74 95.1855 1699.16 97.9297 1699.16C100.674 1699.16 102.646 1700.77 102.715 1702.91H100.996ZM104.648 1700.92V1699.36H115.312V1700.92H110.879V1713.5H109.102V1700.92H104.648ZM122.676 1713.5V1699.36H127.48C130.791 1699.36 132.305 1701.2 132.305 1703.71C132.305 1705.59 131.465 1707.05 129.668 1707.68L132.852 1713.5H130.801L127.842 1708C127.734 1708.01 127.617 1708.01 127.5 1708.01H124.434V1713.5H122.676ZM124.434 1706.41H127.422C129.678 1706.41 130.557 1705.39 130.566 1703.71C130.557 1702.03 129.678 1700.92 127.402 1700.92H124.434V1706.41ZM134.844 1713.5V1699.36H143.418V1700.92H136.602V1705.65H142.969V1707.19H136.602V1711.94H143.516V1713.5H134.844ZM157.422 1699.36V1713.5H155.742L148.086 1702.48H147.949V1713.5H146.191V1699.36H147.891L155.547 1710.39H155.684V1699.36H157.422ZM159.766 1700.92V1699.36H170.43V1700.92H165.996V1713.5H164.219V1700.92H159.766ZM171.738 1713.5H169.902L175.078 1699.36H176.934L182.109 1713.5H180.254L178.838 1709.52H173.154L171.738 1713.5ZM173.691 1707.97H178.301L176.055 1701.64H175.938L173.691 1707.97ZM184.023 1713.5V1699.36H185.781V1711.94H192.344V1713.5H184.023ZM199.707 1713.5V1699.36H204.668C207.637 1699.36 209.033 1701.03 209.023 1703.11C209.033 1704.93 207.949 1705.74 206.719 1706.08V1706.21C208.037 1706.29 209.58 1707.5 209.59 1709.75C209.58 1711.87 208.184 1713.5 204.844 1713.5H199.707ZM201.465 1711.94H204.824C207.041 1711.94 207.9 1710.96 207.891 1709.73C207.9 1708.29 206.738 1707.07 204.922 1707.07H201.465V1711.94ZM201.465 1705.55H204.609C206.143 1705.56 207.344 1704.6 207.344 1703.13C207.344 1701.9 206.514 1700.92 204.668 1700.92H201.465V1705.55ZM224.043 1706.43C224.053 1710.9 221.416 1713.7 217.793 1713.7C214.16 1713.7 211.533 1710.9 211.543 1706.43C211.533 1701.96 214.16 1699.16 217.793 1699.16C221.416 1699.16 224.053 1701.96 224.043 1706.43ZM213.242 1706.43C213.252 1710.07 215.234 1712.04 217.793 1712.05C220.352 1712.04 222.334 1710.07 222.344 1706.43C222.334 1702.78 220.352 1700.8 217.793 1700.8C215.234 1700.8 213.252 1702.78 213.242 1706.43ZM238.574 1706.43C238.584 1710.9 235.947 1713.7 232.324 1713.7C228.691 1713.7 226.064 1710.9 226.074 1706.43C226.064 1701.96 228.691 1699.16 232.324 1699.16C235.947 1699.16 238.584 1701.96 238.574 1706.43ZM227.773 1706.43C227.783 1710.07 229.766 1712.04 232.324 1712.05C234.883 1712.04 236.865 1710.07 236.875 1706.43C236.865 1702.78 234.883 1700.8 232.324 1700.8C229.766 1700.8 227.783 1702.78 227.773 1706.43ZM241.152 1713.5V1699.36H242.91V1706.35H243.086L249.375 1699.36H251.68L245.762 1705.75L251.68 1713.5H249.531L244.668 1706.96L242.91 1708.95V1713.5H241.152Z" fill="#ADB5BD"/>
<g clip-path="url(#clip4_2498_6215)">
<path d="M148 1929.5C155.72 1929.5 162 1923.22 162 1915.5C162 1907.78 155.72 1901.5 148 1901.5C140.28 1901.5 134 1907.78 134 1915.5C134 1923.22 140.28 1929.5 148 1929.5ZM148 1909.5C151.32 1909.5 154 1912.18 154 1915.5C154 1918.82 151.32 1921.5 148 1921.5C144.68 1921.5 142 1918.82 142 1915.5C142 1912.18 144.68 1909.5 148 1909.5ZM148.2 1949.5H131.08C135.04 1947.5 141.88 1945.5 148 1945.5C148.44 1945.5 148.92 1945.54 149.36 1945.54C150.72 1942.62 153.08 1940.22 155.92 1938.3C153 1937.78 150.24 1937.5 148 1937.5C138.64 1937.5 120 1942.18 120 1951.5V1957.5H148V1951.5C148 1950.82 148.08 1950.14 148.2 1949.5ZM178 1939.5C170.64 1939.5 156 1943.54 156 1951.5V1957.5H200V1951.5C200 1943.54 185.36 1939.5 178 1939.5ZM182.84 1932.22C185.88 1930.5 188 1927.26 188 1923.5C188 1917.98 183.52 1913.5 178 1913.5C172.48 1913.5 168 1917.98 168 1923.5C168 1927.26 170.12 1930.5 173.16 1932.22C174.6 1933.02 176.24 1933.5 178 1933.5C179.76 1933.5 181.4 1933.02 182.84 1932.22Z" fill="#ADB5BD"/>
</g>
<path d="M115.613 1996.65V2006.36H121.199V2009.67H115.613V2019.51H111.531V1996.65H115.613ZM85.3203 2016.5C94.3438 2013.97 99.8652 2008.94 100.617 2002.71H87.0391V1999.4H105.043C105.043 2009.35 98.2754 2016.55 86.9961 2019.81L85.3203 2016.5ZM90.5625 2027.5C90.5195 2022.82 95.5898 2019.92 103.324 2019.94C111.08 2019.92 116.043 2022.82 116.043 2027.5C116.043 2032.23 111.08 2035.09 103.324 2035.11C95.5898 2035.09 90.5195 2032.23 90.5625 2027.5ZM94.6016 2027.5C94.5801 2030.21 97.9316 2031.87 103.324 2031.89C108.674 2031.87 112.047 2030.21 112.047 2027.5C112.047 2024.8 108.674 2023.14 103.324 2023.16C97.9316 2023.14 94.5801 2024.8 94.6016 2027.5ZM137.184 2003.48C137.184 2008.17 140.75 2012.42 146.551 2014.14L144.617 2017.36C140.17 2016.01 136.883 2013.2 135.186 2009.54C133.467 2013.52 130.051 2016.57 125.496 2018.01L123.434 2014.83C129.385 2013 133.037 2008.53 133.059 2003.48V2003.44H124.68V2000.05H145.562V2003.44H137.184V2003.48ZM122.918 2023.94C125.926 2023.94 129.449 2023.96 133.102 2023.85V2016.42H137.184V2023.72C140.514 2023.55 143.887 2023.29 147.023 2022.86L147.324 2025.83C139.074 2027.33 130.137 2027.31 123.52 2027.33L122.918 2023.94ZM149.344 2035.15V1996.65H153.426V2012.38H159.355V2015.82H153.426V2035.15H149.344ZM191.668 1996.61V2008.12H197.254V2011.56H191.668V2024.93H187.586V1996.61H191.668ZM162.02 2008.86C161.977 2003.25 166.445 1999.29 172.246 1999.27C178.068 1999.29 182.473 2003.25 182.516 2008.86C182.473 2014.46 178.068 2018.46 172.246 2018.44C166.445 2018.46 161.977 2014.46 162.02 2008.86ZM166.016 2008.86C165.973 2012.44 168.723 2014.87 172.246 2014.87C175.812 2014.87 178.498 2012.44 178.52 2008.86C178.498 2005.27 175.812 2002.84 172.246 2002.84C168.723 2002.84 165.973 2005.27 166.016 2008.86ZM167.262 2034.34V2021.96H171.344V2031.03H193.301V2034.34H167.262ZM232.402 1996.65V2035.15H228.492V2015.43H223.551V2033.18H219.727V1997.43H223.551V2012.08H228.492V1996.65H232.402ZM201.25 2025.36V2001.21H205.332V2021.77C208.877 2021.72 212.766 2021.45 217.148 2020.59L217.578 2024.15C212.293 2025.1 207.889 2025.38 203.742 2025.36H201.25Z" fill="#ADB5BD"/>
<path d="M121.758 2063.81C121.348 2061.86 119.678 2060.8 117.812 2060.8C115.254 2060.8 113.271 2062.78 113.262 2066.43C113.271 2070.07 115.254 2072.04 117.812 2072.05C119.678 2072.04 121.338 2071 121.758 2069.07H123.516C123.008 2071.96 120.684 2073.7 117.812 2073.7C114.18 2073.7 111.553 2070.9 111.562 2066.43C111.553 2061.96 114.18 2059.16 117.812 2059.16C120.674 2059.16 122.988 2060.87 123.516 2063.81H121.758ZM135.234 2059.36H136.992V2068.71C136.992 2071.62 134.814 2073.74 131.484 2073.75C128.145 2073.74 125.977 2071.62 125.977 2068.71V2059.36H127.734V2068.58C127.725 2070.63 129.15 2072.1 131.484 2072.11C133.818 2072.1 135.225 2070.63 135.234 2068.58V2059.36ZM140.117 2073.5V2059.36H141.875V2071.94H148.438V2073.5H140.117ZM148.125 2060.92V2059.36H158.789V2060.92H154.355V2073.5H152.578V2060.92H148.125ZM170.391 2059.36H172.148V2068.71C172.148 2071.62 169.971 2073.74 166.641 2073.75C163.301 2073.74 161.133 2071.62 161.133 2068.71V2059.36H162.891V2068.58C162.881 2070.63 164.307 2072.1 166.641 2072.11C168.975 2072.1 170.381 2070.63 170.391 2068.58V2059.36ZM175.273 2073.5V2059.36H180.078C183.389 2059.36 184.902 2061.2 184.902 2063.71C184.902 2065.59 184.062 2067.05 182.266 2067.68L185.449 2073.5H183.398L180.439 2068C180.332 2068.01 180.215 2068.01 180.098 2068.01H177.031V2073.5H175.273ZM177.031 2066.41H180.02C182.275 2066.41 183.154 2065.39 183.164 2063.71C183.154 2062.03 182.275 2060.92 180 2060.92H177.031V2066.41ZM188.066 2073.5H186.23L191.406 2059.36H193.262L198.438 2073.5H196.582L195.166 2069.52H189.482L188.066 2073.5ZM190.02 2067.97H194.629L192.383 2061.64H192.266L190.02 2067.97ZM200.352 2073.5V2059.36H202.109V2071.94H208.672V2073.5H200.352Z" fill="#ADB5BD"/>
</g>
</g>
<defs>
<filter id="filter0_d_2498_6215" x="-38" y="-40" width="400" height="2240" filterUnits="userSpaceOnUse" color-interpolation-filters="sRGB">
<feFlood flood-opacity="0" result="BackgroundImageFix"/>
<feColorMatrix in="SourceAlpha" type="matrix" values="0 0 0 0 0 0 0 0 0 0 0 0 0 0 0 0 0 0 127 0" result="hardAlpha"/>
<feOffset dx="2"/>
<feGaussianBlur stdDeviation="20"/>
<feComposite in2="hardAlpha" operator="out"/>
<feColorMatrix type="matrix" values="0 0 0 0 0 0 0 0 0 0 0 0 0 0 0 0 0 0 0.1 0"/>
<feBlend mode="normal" in2="BackgroundImageFix" result="effect1_dropShadow_2498_6215"/>
<feBlend mode="normal" in="SourceGraphic" in2="effect1_dropShadow_2498_6215" result="shape"/>
</filter>
<linearGradient id="paint0_linear_2498_6215" x1="576.889" y1="-5.47443e-07" x2="907.993" y2="1608.34" gradientUnits="userSpaceOnUse">
<stop stop-color="#6559AC"/>
<stop offset="1" stop-color="#31427E"/>
</linearGradient>
<clipPath id="clip0_2498_6215">
<rect width="3840" height="2160" fill="white"/>
</clipPath>
<clipPath id="clip1_2498_6215">
<rect width="96" height="96" fill="white" transform="translate(112 67.5)"/>
</clipPath>
<clipPath id="clip2_2498_6215">
<rect width="96" height="96" fill="white" transform="translate(112 441.5)"/>
</clipPath>
<clipPath id="clip3_2498_6215">
<rect width="96" height="96" fill="white" transform="translate(112 801.5)"/>
</clipPath>
<clipPath id="clip4_2498_6215">
<rect width="96" height="96" fill="white" transform="translate(112 1881.5)"/>
</clipPath>
</defs>
</svg>
