<svg width="2160" height="3840" viewBox="0 0 2160 3840" fill="none" xmlns="http://www.w3.org/2000/svg">
<g clip-path="url(#clip0_2498_5491)">
<g filter="url(#filter0_b_2498_5491)">
<path d="M0 0H2160V3840H0V0Z" fill="#F5F0EE"/>
</g>
<rect width="2160" height="2000" fill="url(#paint0_linear_2498_5491)"/>
<path d="M214.903 147.375V170H211.278L200.559 154.531H200.372V170H196.309V147.375H199.997L210.653 162.844H210.872V147.375H214.903ZM245.678 158.688C245.694 166 241.225 170.312 235.303 170.312C229.35 170.312 224.913 165.984 224.928 158.688C224.913 151.375 229.35 147.062 235.303 147.062C241.225 147.062 245.694 151.375 245.678 158.688ZM229.022 158.688C229.006 163.859 231.616 166.656 235.303 166.656C239.006 166.656 241.6 163.859 241.584 158.688C241.6 153.516 239.006 150.719 235.303 150.719C231.616 150.719 229.006 153.516 229.022 158.688ZM253.703 150.781V147.375H271.734V150.781H264.766V170H260.703V150.781H253.703ZM285.384 147.375V170H281.322V147.375H285.384ZM311.253 155C310.769 152.281 308.597 150.719 305.847 150.719C302.144 150.719 299.519 153.562 299.534 158.688C299.519 163.891 302.159 166.656 305.847 166.656C308.534 166.656 310.706 165.156 311.253 162.5H315.347C314.722 166.844 311.144 170.312 305.784 170.312C299.816 170.312 295.425 165.984 295.441 158.688C295.425 151.375 299.863 147.062 305.784 147.062C310.784 147.062 314.644 149.969 315.347 155H311.253ZM325.247 170V147.375H339.966V150.781H329.309V156.969H339.184V160.375H329.309V166.562H340.028V170H325.247Z" fill="#ADB5BD"/>
<path d="M219.738 259.539C237.393 259.584 248.533 265.154 248.578 274.812C248.533 284.246 237.393 289.906 219.738 289.906C202.264 289.906 190.988 284.246 190.988 274.812C190.988 265.154 202.264 259.584 219.738 259.539ZM183.352 253.699V245.613H211.922V230.879H221.805V245.613H257.023V253.699H183.352ZM191.797 220.547V212.641H248.039V219.379C248.084 225.803 248.084 232.631 245.793 240.941L235.91 240.043C237.932 232.182 238.066 226.432 238.066 220.547H191.797ZM201.051 274.812C200.961 279.574 208.014 282.18 219.738 282.18C231.508 282.18 238.605 279.574 238.695 274.812C238.605 269.871 231.508 267.086 219.738 267.086C208.014 267.086 200.961 269.871 201.051 274.812ZM293.32 231.867C293.32 245.164 301.137 259.18 314.254 264.66L308.773 272.566C299.16 268.389 292.152 259.898 288.424 249.566C284.695 260.707 277.553 270.051 268.074 274.543L262.324 266.727C275.127 260.797 283.123 245.658 283.168 231.867V225.039H265.289V216.773H311.109V225.039H293.32V231.867ZM320.184 289.996V208.777H330.246V289.996H320.184ZM371.215 228.273C371.125 242.783 378.402 257.428 390.98 263.492L384.871 271.488C376.066 267.041 369.732 258.461 366.273 248.129C362.725 259.18 356.076 268.344 346.777 273.016L340.668 265.02C353.74 258.82 361.197 243.277 361.242 228.273V215.336H371.215V228.273ZM395.832 289.996V208.777H405.805V240.582H418.293V249.117H405.805V289.996H395.832ZM485.766 208.777V230.16H497.086V238.516H485.766V260.617H475.793V208.777H485.766ZM421.797 224.859V217.043H440.934V208.238H450.906V217.043H469.953V224.859H421.797ZM425.93 242.648C425.93 233.934 434.016 228.139 445.875 228.094C457.6 228.139 465.686 233.934 465.73 242.648C465.686 251.363 457.6 257.113 445.875 257.113C434.016 257.113 425.93 251.363 425.93 242.648ZM432.398 275.621C432.309 266.592 442.686 261.291 459.531 261.336C476.197 261.291 486.664 266.592 486.664 275.621C486.664 284.561 476.197 289.906 459.531 289.906C442.686 289.906 432.309 284.561 432.398 275.621ZM435.633 242.648C435.588 247.051 439.721 249.611 445.875 249.566C452.029 249.611 456.207 247.051 456.207 242.648C456.207 238.156 452.029 235.461 445.875 235.461C439.721 235.461 435.588 238.156 435.633 242.648ZM442.281 275.621C442.236 279.934 448.436 282.359 459.531 282.359C470.492 282.359 476.646 279.934 476.691 275.621C476.646 271.174 470.492 268.973 459.531 268.973C448.436 268.973 442.236 271.174 442.281 275.621Z" fill="white"/>
<g filter="url(#filter1_d_2498_5491)">
<rect width="2160" height="320" transform="translate(0 3520)" fill="white"/>
<g clip-path="url(#clip1_2498_5491)">
<path d="M180 3655.5C184.4 3655.5 188 3651.9 188 3647.5H172C172 3651.9 175.6 3655.5 180 3655.5ZM204 3631.5V3611.5C204 3599.22 197.48 3588.94 186 3586.22V3583.5C186 3580.18 183.32 3577.5 180 3577.5C176.68 3577.5 174 3580.18 174 3583.5V3586.22C162.56 3588.94 156 3599.18 156 3611.5V3631.5L148 3639.5V3643.5H212V3639.5L204 3631.5ZM196 3635.5H164V3611.5C164 3601.58 170.04 3593.5 180 3593.5C189.96 3593.5 196 3601.58 196 3611.5V3635.5Z" fill="#191F28"/>
</g>
<path d="M122.723 3706.76C131.166 3706.78 136.494 3709.44 136.516 3714.06C136.494 3718.57 131.166 3721.28 122.723 3721.28C114.365 3721.28 108.973 3718.57 108.973 3714.06C108.973 3709.44 114.365 3706.78 122.723 3706.76ZM105.32 3703.96V3700.1H118.984V3693.05H123.711V3700.1H140.555V3703.96H105.32ZM109.359 3688.11V3684.33H136.258V3687.55C136.279 3690.62 136.279 3693.89 135.184 3697.86L130.457 3697.43C131.424 3693.67 131.488 3690.92 131.488 3688.11H109.359ZM113.785 3714.06C113.742 3716.34 117.115 3717.59 122.723 3717.59C128.352 3717.59 131.746 3716.34 131.789 3714.06C131.746 3711.7 128.352 3710.37 122.723 3710.37C117.115 3710.37 113.742 3711.7 113.785 3714.06ZM157.914 3693.52C157.914 3699.88 161.652 3706.59 167.926 3709.21L165.305 3712.99C160.707 3710.99 157.355 3706.93 155.572 3701.99C153.789 3707.32 150.373 3711.79 145.84 3713.93L143.09 3710.2C149.213 3707.36 153.037 3700.12 153.059 3693.52V3690.26H144.508V3686.3H166.422V3690.26H157.914V3693.52ZM170.762 3721.32V3682.48H175.574V3721.32H170.762ZM195.168 3691.8C195.125 3698.74 198.605 3705.75 204.621 3708.65L201.699 3712.47C197.488 3710.35 194.459 3706.24 192.805 3701.3C191.107 3706.59 187.928 3710.97 183.48 3713.2L180.559 3709.38C186.811 3706.41 190.377 3698.98 190.398 3691.8V3685.62H195.168V3691.8ZM206.941 3721.32V3682.48H211.711V3697.69H217.684V3701.77H211.711V3721.32H206.941ZM249.953 3682.48V3692.71H255.367V3696.7H249.953V3707.27H245.184V3682.48H249.953ZM219.359 3690.17V3686.43H228.512V3682.22H233.281V3686.43H242.391V3690.17H219.359ZM221.336 3698.68C221.336 3694.51 225.203 3691.74 230.875 3691.72C236.482 3691.74 240.35 3694.51 240.371 3698.68C240.35 3702.85 236.482 3705.6 230.875 3705.6C225.203 3705.6 221.336 3702.85 221.336 3698.68ZM224.43 3714.45C224.387 3710.13 229.35 3707.6 237.406 3707.62C245.377 3707.6 250.383 3710.13 250.383 3714.45C250.383 3718.72 245.377 3721.28 237.406 3721.28C229.35 3721.28 224.387 3718.72 224.43 3714.45ZM225.977 3698.68C225.955 3700.79 227.932 3702.01 230.875 3701.99C233.818 3702.01 235.816 3700.79 235.816 3698.68C235.816 3696.53 233.818 3695.24 230.875 3695.24C227.932 3695.24 225.955 3696.53 225.977 3698.68ZM229.156 3714.45C229.135 3716.51 232.1 3717.67 237.406 3717.67C242.648 3717.67 245.592 3716.51 245.613 3714.45C245.592 3712.32 242.648 3711.27 237.406 3711.27C232.1 3711.27 229.135 3712.32 229.156 3714.45Z" fill="#191F28"/>
<path d="M157.48 3745.36V3759.5H155.801L148.145 3748.48H148.008V3759.5H146.25V3745.36H147.949L155.605 3756.39H155.742V3745.36H157.48ZM172.559 3752.43C172.568 3756.9 169.932 3759.7 166.309 3759.7C162.676 3759.7 160.049 3756.9 160.059 3752.43C160.049 3747.96 162.676 3745.16 166.309 3745.16C169.932 3745.16 172.568 3747.96 172.559 3752.43ZM161.758 3752.43C161.768 3756.07 163.75 3758.04 166.309 3758.05C168.867 3758.04 170.85 3756.07 170.859 3752.43C170.85 3748.78 168.867 3746.8 166.309 3746.8C163.75 3746.8 161.768 3748.78 161.758 3752.43ZM173.77 3746.92V3745.36H184.434V3746.92H180V3759.5H178.223V3746.92H173.77ZM188.535 3745.36V3759.5H186.777V3745.36H188.535ZM201.309 3749.81C200.898 3747.86 199.229 3746.8 197.363 3746.8C194.805 3746.8 192.822 3748.78 192.812 3752.43C192.822 3756.07 194.805 3758.04 197.363 3758.05C199.229 3758.04 200.889 3757 201.309 3755.07H203.066C202.559 3757.96 200.234 3759.7 197.363 3759.7C193.73 3759.7 191.104 3756.9 191.113 3752.43C191.104 3747.96 193.73 3745.16 197.363 3745.16C200.225 3745.16 202.539 3746.87 203.066 3749.81H201.309ZM205.527 3759.5V3745.36H214.102V3746.92H207.285V3751.65H213.652V3753.19H207.285V3757.94H214.199V3759.5H205.527Z" fill="#191F28"/>
<path d="M120 3792.5C166.863 3792.5 193.137 3792.5 240 3792.5" stroke="#0C152D" stroke-width="7" stroke-linecap="round"/>
<g clip-path="url(#clip2_2498_5491)">
<path d="M521.579 3625.96H514.211V3651.86H521.579V3625.96ZM543.684 3625.96H536.316V3651.86H543.684V3625.96ZM575 3659.26H505V3666.66H575V3659.26ZM565.789 3625.96H558.421V3651.86H565.789V3625.96ZM540 3601.02L559.195 3611.16H520.805L540 3601.02ZM540 3592.66L505 3611.16V3618.56H575V3611.16L540 3592.66Z" fill="#ADB5BD"/>
</g>
<path d="M497.246 3696.65V3735.24H493.164V3696.65H497.246ZM466.695 3713.02C466.695 3704.79 470.842 3699.55 476.664 3699.53C482.379 3699.55 486.59 3704.79 486.59 3713.02C486.59 3721.34 482.379 3726.58 476.664 3726.56C470.842 3726.58 466.695 3721.34 466.695 3713.02ZM470.648 3713.02C470.627 3719.15 473.076 3722.91 476.664 3722.91C480.188 3722.91 482.637 3719.15 482.637 3713.02C482.637 3706.99 480.188 3703.21 476.664 3703.18C473.076 3703.21 470.627 3706.99 470.648 3713.02ZM538.496 3715.43V3718.74H503.391V3715.43H511.812V3710.25C508.826 3709.05 507.15 3707.12 507.172 3704.56C507.15 3699.98 512.457 3697.32 520.922 3697.34C529.365 3697.32 534.65 3699.98 534.672 3704.56C534.65 3707.12 532.975 3709.05 529.988 3710.27V3715.43H538.496ZM507.559 3728.19C507.559 3723.79 512.543 3721.36 520.922 3721.36C529.193 3721.36 534.178 3723.79 534.199 3728.19C534.178 3732.64 529.193 3735.07 520.922 3735.07C512.543 3735.07 507.559 3732.64 507.559 3728.19ZM511.383 3704.56C511.361 3707.14 514.928 3708.58 520.922 3708.6C526.873 3708.58 530.482 3707.14 530.461 3704.56C530.482 3701.98 526.873 3700.5 520.922 3700.48C514.928 3700.5 511.361 3701.98 511.383 3704.56ZM511.684 3728.19C511.662 3730.6 515.035 3731.97 520.922 3731.93C526.723 3731.97 530.117 3730.6 530.117 3728.19C530.117 3725.83 526.723 3724.5 520.922 3724.5C515.035 3724.5 511.662 3725.83 511.684 3728.19ZM515.938 3715.43H525.949V3711.33C524.445 3711.56 522.748 3711.69 520.922 3711.69C519.117 3711.69 517.441 3711.56 515.938 3711.35V3715.43ZM571.668 3696.61V3708.12H577.254V3711.56H571.668V3724.93H567.586V3696.61H571.668ZM542.02 3708.86C541.977 3703.25 546.445 3699.29 552.246 3699.27C558.068 3699.29 562.473 3703.25 562.516 3708.86C562.473 3714.46 558.068 3718.46 552.246 3718.44C546.445 3718.46 541.977 3714.46 542.02 3708.86ZM546.016 3708.86C545.973 3712.44 548.723 3714.87 552.246 3714.87C555.812 3714.87 558.498 3712.44 558.52 3708.86C558.498 3705.27 555.812 3702.84 552.246 3702.84C548.723 3702.84 545.973 3705.27 546.016 3708.86ZM547.262 3734.34V3721.96H551.344V3731.03H573.301V3734.34H547.262ZM612.402 3696.65V3735.15H608.492V3715.43H603.551V3733.18H599.727V3697.43H603.551V3712.08H608.492V3696.65H612.402ZM581.25 3725.36V3701.21H585.332V3721.77C588.877 3721.72 592.766 3721.45 597.148 3720.59L597.578 3724.15C592.293 3725.1 587.889 3725.38 583.742 3725.36H581.25Z" fill="#ADB5BD"/>
<path d="M477.637 3759.36V3773.5H475.879V3759.36H477.637ZM491.992 3759.36V3773.5H490.312L482.656 3762.48H482.52V3773.5H480.762V3759.36H482.461L490.117 3770.39H490.254V3759.36H491.992ZM495.117 3773.5V3759.36H503.633V3760.92H496.875V3765.65H502.988V3767.19H496.875V3773.5H495.117ZM518.203 3766.43C518.213 3770.9 515.576 3773.7 511.953 3773.7C508.32 3773.7 505.693 3770.9 505.703 3766.43C505.693 3761.96 508.32 3759.16 511.953 3759.16C515.576 3759.16 518.213 3761.96 518.203 3766.43ZM507.402 3766.43C507.412 3770.07 509.395 3772.04 511.953 3772.05C514.512 3772.04 516.494 3770.07 516.504 3766.43C516.494 3762.78 514.512 3760.8 511.953 3760.8C509.395 3760.8 507.412 3762.78 507.402 3766.43ZM520.781 3773.5V3759.36H525.586C528.896 3759.36 530.41 3761.2 530.41 3763.71C530.41 3765.59 529.57 3767.05 527.773 3767.68L530.957 3773.5H528.906L525.947 3768C525.84 3768.01 525.723 3768.01 525.605 3768.01H522.539V3773.5H520.781ZM522.539 3766.41H525.527C527.783 3766.41 528.662 3765.39 528.672 3763.71C528.662 3762.03 527.783 3760.92 525.508 3760.92H522.539V3766.41ZM532.949 3759.36H535.059L539.824 3771H540L544.766 3759.36H546.875V3773.5H545.215V3762.82H545.078L540.684 3773.5H539.121L534.727 3762.82H534.609V3773.5H532.949V3759.36ZM550.625 3773.5H548.789L553.965 3759.36H555.82L560.996 3773.5H559.141L557.725 3769.52H552.041L550.625 3773.5ZM552.578 3767.97H557.188L554.941 3761.64H554.824L552.578 3767.97ZM560.469 3760.92V3759.36H571.133V3760.92H566.699V3773.5H564.922V3760.92H560.469ZM575.234 3759.36V3773.5H573.477V3759.36H575.234ZM590.312 3766.43C590.322 3770.9 587.686 3773.7 584.062 3773.7C580.43 3773.7 577.803 3770.9 577.812 3766.43C577.803 3761.96 580.43 3759.16 584.062 3759.16C587.686 3759.16 590.322 3761.96 590.312 3766.43ZM579.512 3766.43C579.521 3770.07 581.504 3772.04 584.062 3772.05C586.621 3772.04 588.604 3770.07 588.613 3766.43C588.604 3762.78 586.621 3760.8 584.062 3760.8C581.504 3760.8 579.521 3762.78 579.512 3766.43ZM604.121 3759.36V3773.5H602.441L594.785 3762.48H594.648V3773.5H592.891V3759.36H594.59L602.246 3770.39H602.383V3759.36H604.121Z" fill="#ADB5BD"/>
<g clip-path="url(#clip3_2498_5491)">
<path d="M900 3589.5C884.52 3589.5 872 3602.02 872 3617.5C872 3638.5 900 3669.5 900 3669.5C900 3669.5 928 3638.5 928 3617.5C928 3602.02 915.48 3589.5 900 3589.5ZM880 3617.5C880 3606.46 888.96 3597.5 900 3597.5C911.04 3597.5 920 3606.46 920 3617.5C920 3629.02 908.48 3646.26 900 3657.02C891.68 3646.34 880 3628.9 880 3617.5Z" fill="#ADB5BD"/>
<path d="M900 3627.5C905.523 3627.5 910 3623.02 910 3617.5C910 3611.98 905.523 3607.5 900 3607.5C894.477 3607.5 890 3611.98 890 3617.5C890 3623.02 894.477 3627.5 900 3627.5Z" fill="#ADB5BD"/>
</g>
<path d="M839.5 3706.45C839.457 3713.47 843.711 3720.56 849.684 3723.21L847.234 3726.43C842.809 3724.32 839.307 3720.01 837.502 3714.74C835.719 3720.39 832.174 3725.03 827.555 3727.29L825.062 3723.85C831.121 3721.17 835.375 3713.8 835.375 3706.45V3699.88H839.5V3706.45ZM853.164 3735.24V3696.65H857.246V3735.24H853.164ZM895.488 3696.65V3716.46H891.406V3706.58H883.285V3703.27H891.406V3696.65H895.488ZM863.262 3713.37C869.277 3711.46 872.865 3706.66 872.887 3701.25V3697.9H876.926V3701.25C876.926 3706.15 880.449 3710.7 886.25 3712.55L884.102 3715.73C879.869 3714.27 876.668 3711.37 874.971 3707.7C873.295 3711.84 870.008 3715.06 865.453 3716.63L863.262 3713.37ZM870.309 3721.49V3718.27H895.488V3727.85H874.391V3731.41H896.82V3734.68H870.395V3724.75H891.449V3721.49H870.309ZM931.668 3696.61V3708.12H937.254V3711.56H931.668V3724.93H927.586V3696.61H931.668ZM902.02 3708.86C901.977 3703.25 906.445 3699.29 912.246 3699.27C918.068 3699.29 922.473 3703.25 922.516 3708.86C922.473 3714.46 918.068 3718.46 912.246 3718.44C906.445 3718.46 901.977 3714.46 902.02 3708.86ZM906.016 3708.86C905.973 3712.44 908.723 3714.87 912.246 3714.87C915.812 3714.87 918.498 3712.44 918.52 3708.86C918.498 3705.27 915.812 3702.84 912.246 3702.84C908.723 3702.84 905.973 3705.27 906.016 3708.86ZM907.262 3734.34V3721.96H911.344V3731.03H933.301V3734.34H907.262ZM972.402 3696.65V3735.15H968.492V3715.43H963.551V3733.18H959.727V3697.43H963.551V3712.08H968.492V3696.65H972.402ZM941.25 3725.36V3701.21H945.332V3721.77C948.877 3721.72 952.766 3721.45 957.148 3720.59L957.578 3724.15C952.293 3725.1 947.889 3725.38 943.742 3725.36H941.25Z" fill="#ADB5BD"/>
<path d="M861.162 3773.5V3759.36H869.678V3760.92H862.92V3765.65H869.033V3767.19H862.92V3773.5H861.162ZM871.143 3773.5H869.307L874.482 3759.36H876.338L881.514 3773.5H879.658L878.242 3769.52H872.559L871.143 3773.5ZM873.096 3767.97H877.705L875.459 3761.64H875.342L873.096 3767.97ZM892.412 3763.81C892.002 3761.86 890.332 3760.8 888.467 3760.8C885.908 3760.8 883.926 3762.78 883.916 3766.43C883.926 3770.07 885.908 3772.04 888.467 3772.05C890.332 3772.04 891.992 3771 892.412 3769.07H894.17C893.662 3771.96 891.338 3773.7 888.467 3773.7C884.834 3773.7 882.207 3770.9 882.217 3766.43C882.207 3761.96 884.834 3759.16 888.467 3759.16C891.328 3759.16 893.643 3760.87 894.17 3763.81H892.412ZM898.389 3759.36V3773.5H896.631V3759.36H898.389ZM901.514 3773.5V3759.36H903.271V3771.94H909.834V3773.5H901.514ZM913.936 3759.36V3773.5H912.178V3759.36H913.936ZM916.279 3760.92V3759.36H926.943V3760.92H922.51V3773.5H920.732V3760.92H916.279ZM928.076 3759.36H930.088L933.975 3765.92H934.15L938.037 3759.36H940.068L934.951 3767.7V3773.5H933.174V3767.7L928.076 3759.36Z" fill="#ADB5BD"/>
<path d="M1296.68 3589.74C1293.81 3589.25 1290.91 3588.99 1288 3588.98C1278.07 3588.97 1268.35 3591.82 1260 3597.18C1251.62 3591.89 1241.9 3589.11 1232 3589.18C1229.09 3589.19 1226.19 3589.45 1223.32 3589.94C1222.38 3590.1 1221.53 3590.59 1220.92 3591.33C1220.31 3592.06 1219.98 3592.99 1220 3593.94V3641.94C1219.99 3642.53 1220.11 3643.11 1220.35 3643.65C1220.6 3644.18 1220.95 3644.66 1221.4 3645.04C1221.85 3645.42 1222.37 3645.7 1222.94 3645.86C1223.51 3646.01 1224.1 3646.04 1224.68 3645.94C1230.41 3644.95 1236.28 3645.11 1241.95 3646.42C1247.62 3647.74 1252.97 3650.17 1257.68 3653.58L1258.16 3653.86H1258.6C1259.04 3654.05 1259.52 3654.14 1260 3654.14C1260.48 3654.14 1260.95 3654.05 1261.4 3653.86H1261.84L1262.32 3653.58C1267 3650.09 1272.33 3647.58 1278 3646.19C1283.67 3644.81 1289.56 3644.57 1295.32 3645.5C1295.9 3645.6 1296.49 3645.57 1297.06 3645.42C1297.63 3645.26 1298.15 3644.98 1298.6 3644.6C1299.04 3644.22 1299.4 3643.74 1299.64 3643.21C1299.89 3642.67 1300.01 3642.09 1300 3641.5V3593.5C1299.96 3592.59 1299.6 3591.72 1299 3591.04C1298.4 3590.35 1297.58 3589.89 1296.68 3589.74ZM1256 3642.9C1248.6 3639.01 1240.36 3636.98 1232 3636.98C1230.68 3636.98 1229.36 3636.98 1228 3636.98V3596.98C1229.33 3596.9 1230.67 3596.9 1232 3596.98C1240.53 3596.97 1248.88 3599.48 1256 3604.18V3642.9ZM1292 3637.14C1290.64 3637.14 1289.32 3637.14 1288 3637.14C1279.64 3637.14 1271.4 3639.17 1264 3643.06V3604.18C1271.12 3599.48 1279.46 3596.97 1288 3596.98C1289.33 3596.9 1290.67 3596.9 1292 3596.98V3637.14ZM1296.68 3653.74C1293.81 3653.25 1290.91 3652.99 1288 3652.98C1278.07 3652.97 1268.35 3655.82 1260 3661.18C1251.64 3655.82 1241.92 3652.97 1232 3652.98C1229.09 3652.99 1226.19 3653.25 1223.32 3653.74C1222.8 3653.82 1222.3 3654.01 1221.85 3654.28C1221.4 3654.56 1221.01 3654.92 1220.7 3655.35C1220.39 3655.78 1220.17 3656.26 1220.05 3656.78C1219.93 3657.29 1219.91 3657.82 1220 3658.34C1220.2 3659.38 1220.81 3660.3 1221.69 3660.89C1222.56 3661.48 1223.64 3661.7 1224.68 3661.5C1230.41 3660.51 1236.28 3660.67 1241.95 3661.98C1247.62 3663.3 1252.97 3665.73 1257.68 3669.14C1258.36 3669.62 1259.17 3669.88 1260 3669.88C1260.83 3669.88 1261.64 3669.62 1262.32 3669.14C1267.03 3665.73 1272.38 3663.3 1278.05 3661.98C1283.71 3660.67 1289.59 3660.51 1295.32 3661.5C1296.36 3661.7 1297.43 3661.48 1298.31 3660.89C1299.19 3660.3 1299.8 3659.38 1300 3658.34C1300.08 3657.82 1300.07 3657.29 1299.95 3656.78C1299.82 3656.26 1299.6 3655.78 1299.29 3655.35C1298.99 3654.92 1298.6 3654.56 1298.15 3654.28C1297.7 3654.01 1297.2 3653.82 1296.68 3653.74Z" fill="#ADB5BD"/>
<path d="M1217.59 3696.52V3724.88H1212.78V3696.52H1217.59ZM1185.28 3715.73C1191.57 3713.52 1194.79 3708.04 1194.77 3702.45V3698.67H1199.71V3702.45C1199.69 3707.87 1202.87 3712.98 1209.04 3715.04L1206.59 3718.82C1202.16 3717.28 1199.01 3714.18 1197.29 3710.21C1195.57 3714.46 1192.35 3717.86 1187.77 3719.51L1185.28 3715.73ZM1191.89 3734.55V3722.18H1196.71V3730.68H1218.66V3734.55H1191.89ZM1237.23 3704.9C1237.21 3709.16 1240.36 3713.41 1246.51 3715.09L1244.27 3718.91C1239.83 3717.62 1236.65 3714.94 1234.88 3711.54C1233.19 3715.26 1229.96 3718.18 1225.41 3719.55L1223.09 3715.82C1229.21 3714.05 1232.46 3709.54 1232.46 3704.9V3704.6H1224.34V3700.82H1232.46V3696.35H1237.27V3700.82H1245.35V3704.6H1237.23V3704.9ZM1228.03 3725.83V3722H1253.9V3735.37H1249.13V3725.83H1228.03ZM1249.13 3720.24V3696.48H1253.9V3706.32H1259.31V3710.36H1253.9V3720.24H1249.13ZM1292.83 3714.14V3717.92H1281.31V3726.82H1296.78V3730.73H1261.29V3726.82H1276.59V3717.92H1265.59V3699.36H1292.53V3703.18H1270.36V3714.14H1292.83ZM1313.67 3705.8C1313.65 3713.02 1317.11 3720.11 1323.29 3722.82L1320.41 3726.64C1316.03 3724.5 1312.94 3720.37 1311.28 3715.28C1309.59 3720.65 1306.41 3725.12 1301.94 3727.38L1298.93 3723.51C1305.27 3720.54 1308.79 3713.07 1308.81 3705.8V3699.62H1313.67V3705.8ZM1319 3712.89V3709.03H1327.16V3696.48H1331.89V3735.37H1327.16V3712.89H1319Z" fill="#ADB5BD"/>
<path d="M1168.02 3759.36V3773.5H1166.34L1158.68 3762.48H1158.54V3773.5H1156.79V3759.36H1158.49L1166.14 3770.39H1166.28V3759.36H1168.02ZM1171.14 3773.5V3759.36H1179.72V3760.92H1172.9V3765.65H1179.27V3767.19H1172.9V3771.94H1179.81V3773.5H1171.14ZM1185.11 3773.5L1181.24 3759.36H1183.02L1185.97 3770.8H1186.1L1189.09 3759.36H1191.06L1194.07 3770.8H1194.19L1197.14 3759.36H1198.92L1195.05 3773.5H1193.23L1190.15 3762.31H1190.03L1186.92 3773.5H1185.11ZM1206.44 3773.5H1204.6L1209.78 3759.36H1211.63L1216.81 3773.5H1214.95L1213.54 3769.52H1207.85L1206.44 3773.5ZM1208.39 3767.97H1213L1210.75 3761.64H1210.63L1208.39 3767.97ZM1218.72 3773.5V3759.36H1223.53C1226.84 3759.36 1228.35 3761.2 1228.35 3763.71C1228.35 3765.59 1227.51 3767.05 1225.71 3767.68L1228.9 3773.5H1226.85L1223.89 3768C1223.78 3768.01 1223.66 3768.01 1223.54 3768.01H1220.48V3773.5H1218.72ZM1220.48 3766.41H1223.47C1225.72 3766.41 1226.6 3765.39 1226.61 3763.71C1226.6 3762.03 1225.72 3760.92 1223.45 3760.92H1220.48V3766.41ZM1230.89 3773.5V3759.36H1235.69C1239 3759.36 1240.52 3761.2 1240.52 3763.71C1240.52 3765.59 1239.68 3767.05 1237.88 3767.68L1241.06 3773.5H1239.01L1236.05 3768C1235.95 3768.01 1235.83 3768.01 1235.71 3768.01H1232.65V3773.5H1230.89ZM1232.65 3766.41H1235.63C1237.89 3766.41 1238.77 3765.39 1238.78 3763.71C1238.77 3762.03 1237.89 3760.92 1235.62 3760.92H1232.65V3766.41ZM1244.81 3759.36V3773.5H1243.06V3759.36H1244.81ZM1248.58 3759.36L1252.74 3771.21H1252.9L1257.08 3759.36H1258.94L1253.76 3773.5H1251.9L1246.73 3759.36H1248.58ZM1260.22 3773.5H1258.39L1263.56 3759.36H1265.42L1270.6 3773.5H1268.74L1267.32 3769.52H1261.64L1260.22 3773.5ZM1262.18 3767.97H1266.79L1264.54 3761.64H1264.42L1262.18 3767.97ZM1272.51 3773.5V3759.36H1274.27V3771.94H1280.83V3773.5H1272.51ZM1290.89 3762.91C1290.74 3761.53 1289.45 3760.73 1287.76 3760.73C1285.89 3760.73 1284.67 3761.7 1284.66 3763.05C1284.67 3764.54 1286.32 3765.09 1287.39 3765.36L1288.8 3765.75C1290.31 3766.14 1292.8 3767.01 1292.8 3769.65C1292.8 3771.96 1290.95 3773.74 1287.67 3773.75C1284.62 3773.74 1282.73 3772.17 1282.57 3769.83H1284.37C1284.51 3771.41 1285.99 3772.16 1287.67 3772.15C1289.62 3772.16 1291.08 3771.16 1291.08 3769.61C1291.08 3768.24 1289.78 3767.71 1288.29 3767.29L1286.55 3766.82C1284.34 3766.18 1282.95 3765.04 1282.96 3763.13C1282.95 3760.74 1285.08 3759.16 1287.82 3759.16C1290.57 3759.16 1292.54 3760.77 1292.61 3762.91H1290.89ZM1300.34 3773.5V3759.36H1305.3C1308.27 3759.36 1309.67 3761.03 1309.66 3763.11C1309.67 3764.93 1308.58 3765.74 1307.35 3766.08V3766.21C1308.67 3766.29 1310.21 3767.5 1310.22 3769.75C1310.21 3771.87 1308.82 3773.5 1305.48 3773.5H1300.34ZM1302.1 3771.94H1305.46C1307.68 3771.94 1308.54 3770.96 1308.53 3769.73C1308.54 3768.29 1307.37 3767.07 1305.56 3767.07H1302.1V3771.94ZM1302.1 3765.55H1305.24C1306.78 3765.56 1307.98 3764.6 1307.98 3763.13C1307.98 3761.9 1307.15 3760.92 1305.3 3760.92H1302.1V3765.55ZM1324.68 3766.43C1324.69 3770.9 1322.05 3773.7 1318.43 3773.7C1314.79 3773.7 1312.17 3770.9 1312.18 3766.43C1312.17 3761.96 1314.79 3759.16 1318.43 3759.16C1322.05 3759.16 1324.69 3761.96 1324.68 3766.43ZM1313.88 3766.43C1313.89 3770.07 1315.87 3772.04 1318.43 3772.05C1320.99 3772.04 1322.97 3770.07 1322.98 3766.43C1322.97 3762.78 1320.99 3760.8 1318.43 3760.8C1315.87 3760.8 1313.89 3762.78 1313.88 3766.43ZM1339.21 3766.43C1339.22 3770.9 1336.58 3773.7 1332.96 3773.7C1329.33 3773.7 1326.7 3770.9 1326.71 3766.43C1326.7 3761.96 1329.33 3759.16 1332.96 3759.16C1336.58 3759.16 1339.22 3761.96 1339.21 3766.43ZM1328.41 3766.43C1328.42 3770.07 1330.4 3772.04 1332.96 3772.05C1335.52 3772.04 1337.5 3770.07 1337.51 3766.43C1337.5 3762.78 1335.52 3760.8 1332.96 3760.8C1330.4 3760.8 1328.42 3762.78 1328.41 3766.43ZM1341.79 3773.5V3759.36H1343.54V3766.35H1343.72L1350.01 3759.36H1352.31L1346.4 3765.75L1352.31 3773.5H1350.17L1345.3 3766.96L1343.54 3768.95V3773.5H1341.79ZM1361.9 3762.91C1361.76 3761.53 1360.47 3760.73 1358.78 3760.73C1356.9 3760.73 1355.68 3761.7 1355.67 3763.05C1355.68 3764.54 1357.33 3765.09 1358.41 3765.36L1359.81 3765.75C1361.33 3766.14 1363.82 3767.01 1363.82 3769.65C1363.82 3771.96 1361.96 3773.74 1358.68 3773.75C1355.63 3773.74 1353.75 3772.17 1353.58 3769.83H1355.38C1355.53 3771.41 1357 3772.16 1358.68 3772.15C1360.63 3772.16 1362.1 3771.16 1362.1 3769.61C1362.1 3768.24 1360.79 3767.71 1359.31 3767.29L1357.57 3766.82C1355.35 3766.18 1353.96 3765.04 1353.97 3763.13C1353.96 3760.74 1356.09 3759.16 1358.84 3759.16C1361.58 3759.16 1363.55 3760.77 1363.62 3762.91H1361.9Z" fill="#ADB5BD"/>
<path d="M1656 3597.5H1644V3593.5C1644 3592.44 1643.58 3591.42 1642.83 3590.67C1642.08 3589.92 1641.06 3589.5 1640 3589.5H1600C1598.94 3589.5 1597.92 3589.92 1597.17 3590.67C1596.42 3591.42 1596 3592.44 1596 3593.5V3597.5H1584C1582.94 3597.5 1581.92 3597.92 1581.17 3598.67C1580.42 3599.42 1580 3600.44 1580 3601.5V3613.5C1580 3617.74 1581.69 3621.81 1584.69 3624.81C1587.69 3627.81 1591.76 3629.5 1596 3629.5H1602.16C1605.78 3633.54 1610.66 3636.23 1616 3637.14V3645.5H1612C1608.82 3645.5 1605.77 3646.76 1603.51 3649.01C1601.26 3651.27 1600 3654.32 1600 3657.5V3665.5C1600 3666.56 1600.42 3667.58 1601.17 3668.33C1601.92 3669.08 1602.94 3669.5 1604 3669.5H1636C1637.06 3669.5 1638.08 3669.08 1638.83 3668.33C1639.58 3667.58 1640 3666.56 1640 3665.5V3657.5C1640 3654.32 1638.74 3651.27 1636.49 3649.01C1634.23 3646.76 1631.18 3645.5 1628 3645.5H1624V3637.14C1629.34 3636.23 1634.22 3633.54 1637.84 3629.5H1644C1648.24 3629.5 1652.31 3627.81 1655.31 3624.81C1658.31 3621.81 1660 3617.74 1660 3613.5V3601.5C1660 3600.44 1659.58 3599.42 1658.83 3598.67C1658.08 3597.92 1657.06 3597.5 1656 3597.5ZM1596 3621.5C1593.88 3621.5 1591.84 3620.66 1590.34 3619.16C1588.84 3617.66 1588 3615.62 1588 3613.5V3605.5H1596V3613.5C1596.01 3616.23 1596.48 3618.93 1597.4 3621.5H1596ZM1628 3653.5C1629.06 3653.5 1630.08 3653.92 1630.83 3654.67C1631.58 3655.42 1632 3656.44 1632 3657.5V3661.5H1608V3657.5C1608 3656.44 1608.42 3655.42 1609.17 3654.67C1609.92 3653.92 1610.94 3653.5 1612 3653.5H1628ZM1636 3613.5C1636 3617.74 1634.31 3621.81 1631.31 3624.81C1628.31 3627.81 1624.24 3629.5 1620 3629.5C1615.76 3629.5 1611.69 3627.81 1608.69 3624.81C1605.69 3621.81 1604 3617.74 1604 3613.5V3597.5H1636V3613.5ZM1652 3613.5C1652 3615.62 1651.16 3617.66 1649.66 3619.16C1648.16 3620.66 1646.12 3621.5 1644 3621.5H1642.6C1643.52 3618.93 1643.99 3616.23 1644 3613.5V3605.5H1652V3613.5Z" fill="#ADB5BD"/>
<path d="M1559.39 3696.65V3735.15H1555.48V3715.26H1550.5V3733.18H1546.76V3697.43H1550.5V3711.91H1555.48V3696.65H1559.39ZM1527.64 3725.91V3701.29H1542.08V3704.6H1531.72V3722.43C1536.45 3722.41 1540.01 3722.2 1544.14 3721.4L1544.44 3724.75C1539.82 3725.72 1535.82 3725.87 1530.22 3725.91H1527.64ZM1599.44 3713.54V3716.59H1583.93V3719.81H1595.06V3728.49H1572.63V3731.67H1596.13V3734.77H1568.63V3725.66H1591.02V3722.78H1568.59V3719.81H1579.89V3716.59H1564.42V3713.54H1599.44ZM1566.14 3708.94C1573.51 3708.53 1578.71 3706.28 1579.54 3703.01H1567.9V3699.88H1579.89V3696.48H1583.93V3699.88H1595.96V3703.01H1584.25C1585.07 3706.28 1590.27 3708.53 1597.72 3708.94L1596.47 3712.04C1589.77 3711.54 1584.31 3709.59 1581.91 3706.21C1579.5 3709.59 1574.04 3711.54 1567.3 3712.04L1566.14 3708.94ZM1607.56 3700.35V3709.59H1614.95V3700.35H1618.69V3711.09H1623.8V3697.43H1627.71V3733.3H1623.8V3714.48H1618.69V3725.66H1603.69V3700.35H1607.56ZM1607.56 3722.26H1614.95V3712.89H1607.56V3722.26ZM1631.62 3735.15V3696.65H1635.53V3735.15H1631.62ZM1659.98 3702.11C1659.98 3708.38 1666.66 3714.31 1674.08 3715.64L1672.19 3719.04C1666.02 3717.71 1660.37 3713.67 1657.88 3708.25C1655.34 3713.65 1649.69 3717.66 1643.53 3719.04L1641.72 3715.64C1649.03 3714.27 1655.66 3708.38 1655.69 3702.11V3699.19H1659.98V3702.11ZM1640.43 3730.08V3726.69H1675.67V3730.08H1640.43ZM1709.7 3717.15V3720.41H1682.88V3699.83H1709.31V3703.14H1687.01V3708.34H1708.49V3711.56H1687.01V3717.15H1709.7ZM1678.46 3730.3V3726.95H1713.69V3730.3H1678.46Z" fill="#ADB5BD"/>
<path d="M1529.55 3773.5V3759.36H1534.51C1537.48 3759.36 1538.88 3761.03 1538.87 3763.11C1538.88 3764.93 1537.79 3765.74 1536.56 3766.08V3766.21C1537.88 3766.29 1539.42 3767.5 1539.43 3769.75C1539.42 3771.87 1538.03 3773.5 1534.69 3773.5H1529.55ZM1531.31 3771.94H1534.67C1536.88 3771.94 1537.74 3770.96 1537.73 3769.73C1537.74 3768.29 1536.58 3767.07 1534.77 3767.07H1531.31V3771.94ZM1531.31 3765.55H1534.45C1535.99 3765.56 1537.19 3764.6 1537.19 3763.13C1537.19 3761.9 1536.36 3760.92 1534.51 3760.92H1531.31V3765.55ZM1541.93 3773.5V3759.36H1550.51V3760.92H1543.69V3765.65H1550.06V3767.19H1543.69V3771.94H1550.61V3773.5H1541.93ZM1561 3762.91C1560.85 3761.53 1559.56 3760.73 1557.87 3760.73C1556 3760.73 1554.78 3761.7 1554.77 3763.05C1554.78 3764.54 1556.43 3765.09 1557.5 3765.36L1558.91 3765.75C1560.42 3766.14 1562.91 3767.01 1562.91 3769.65C1562.91 3771.96 1561.05 3773.74 1557.77 3773.75C1554.73 3773.74 1552.84 3772.17 1552.68 3769.83H1554.47C1554.62 3771.41 1556.09 3772.16 1557.77 3772.15C1559.73 3772.16 1561.19 3771.16 1561.19 3769.61C1561.19 3768.24 1559.88 3767.71 1558.4 3767.29L1556.66 3766.82C1554.44 3766.18 1553.06 3765.04 1553.07 3763.13C1553.06 3760.74 1555.19 3759.16 1557.93 3759.16C1560.67 3759.16 1562.65 3760.77 1562.71 3762.91H1561ZM1564.65 3760.92V3759.36H1575.31V3760.92H1570.88V3773.5H1569.1V3760.92H1564.65ZM1582.68 3773.5V3759.36H1587.48C1590.79 3759.36 1592.3 3761.2 1592.3 3763.71C1592.3 3765.59 1591.46 3767.05 1589.67 3767.68L1592.85 3773.5H1590.8L1587.84 3768C1587.73 3768.01 1587.62 3768.01 1587.5 3768.01H1584.43V3773.5H1582.68ZM1584.43 3766.41H1587.42C1589.68 3766.41 1590.56 3765.39 1590.57 3763.71C1590.56 3762.03 1589.68 3760.92 1587.4 3760.92H1584.43V3766.41ZM1594.84 3773.5V3759.36H1603.42V3760.92H1596.6V3765.65H1602.97V3767.19H1596.6V3771.94H1603.52V3773.5H1594.84ZM1617.42 3759.36V3773.5H1615.74L1608.09 3762.48H1607.95V3773.5H1606.19V3759.36H1607.89L1615.55 3770.39H1615.68V3759.36H1617.42ZM1619.77 3760.92V3759.36H1630.43V3760.92H1626V3773.5H1624.22V3760.92H1619.77ZM1631.74 3773.5H1629.9L1635.08 3759.36H1636.93L1642.11 3773.5H1640.25L1638.84 3769.52H1633.15L1631.74 3773.5ZM1633.69 3767.97H1638.3L1636.05 3761.64H1635.94L1633.69 3767.97ZM1644.02 3773.5V3759.36H1645.78V3771.94H1652.34V3773.5H1644.02ZM1659.71 3773.5V3759.36H1664.67C1667.64 3759.36 1669.03 3761.03 1669.02 3763.11C1669.03 3764.93 1667.95 3765.74 1666.72 3766.08V3766.21C1668.04 3766.29 1669.58 3767.5 1669.59 3769.75C1669.58 3771.87 1668.18 3773.5 1664.84 3773.5H1659.71ZM1661.46 3771.94H1664.82C1667.04 3771.94 1667.9 3770.96 1667.89 3769.73C1667.9 3768.29 1666.74 3767.07 1664.92 3767.07H1661.46V3771.94ZM1661.46 3765.55H1664.61C1666.14 3765.56 1667.34 3764.6 1667.34 3763.13C1667.34 3761.9 1666.51 3760.92 1664.67 3760.92H1661.46V3765.55ZM1684.04 3766.43C1684.05 3770.9 1681.42 3773.7 1677.79 3773.7C1674.16 3773.7 1671.53 3770.9 1671.54 3766.43C1671.53 3761.96 1674.16 3759.16 1677.79 3759.16C1681.42 3759.16 1684.05 3761.96 1684.04 3766.43ZM1673.24 3766.43C1673.25 3770.07 1675.23 3772.04 1677.79 3772.05C1680.35 3772.04 1682.33 3770.07 1682.34 3766.43C1682.33 3762.78 1680.35 3760.8 1677.79 3760.8C1675.23 3760.8 1673.25 3762.78 1673.24 3766.43ZM1698.57 3766.43C1698.58 3770.9 1695.95 3773.7 1692.32 3773.7C1688.69 3773.7 1686.06 3770.9 1686.07 3766.43C1686.06 3761.96 1688.69 3759.16 1692.32 3759.16C1695.95 3759.16 1698.58 3761.96 1698.57 3766.43ZM1687.77 3766.43C1687.78 3770.07 1689.77 3772.04 1692.32 3772.05C1694.88 3772.04 1696.87 3770.07 1696.88 3766.43C1696.87 3762.78 1694.88 3760.8 1692.32 3760.8C1689.77 3760.8 1687.78 3762.78 1687.77 3766.43ZM1701.15 3773.5V3759.36H1702.91V3766.35H1703.09L1709.38 3759.36H1711.68L1705.76 3765.75L1711.68 3773.5H1709.53L1704.67 3766.96L1702.91 3768.95V3773.5H1701.15Z" fill="#ADB5BD"/>
<g clip-path="url(#clip4_2498_5491)">
<path d="M1968 3629.5C1975.72 3629.5 1982 3623.22 1982 3615.5C1982 3607.78 1975.72 3601.5 1968 3601.5C1960.28 3601.5 1954 3607.78 1954 3615.5C1954 3623.22 1960.28 3629.5 1968 3629.5ZM1968 3609.5C1971.32 3609.5 1974 3612.18 1974 3615.5C1974 3618.82 1971.32 3621.5 1968 3621.5C1964.68 3621.5 1962 3618.82 1962 3615.5C1962 3612.18 1964.68 3609.5 1968 3609.5ZM1968.2 3649.5H1951.08C1955.04 3647.5 1961.88 3645.5 1968 3645.5C1968.44 3645.5 1968.92 3645.54 1969.36 3645.54C1970.72 3642.62 1973.08 3640.22 1975.92 3638.3C1973 3637.78 1970.24 3637.5 1968 3637.5C1958.64 3637.5 1940 3642.18 1940 3651.5V3657.5H1968V3651.5C1968 3650.82 1968.08 3650.14 1968.2 3649.5ZM1998 3639.5C1990.64 3639.5 1976 3643.54 1976 3651.5V3657.5H2020V3651.5C2020 3643.54 2005.36 3639.5 1998 3639.5ZM2002.84 3632.22C2005.88 3630.5 2008 3627.26 2008 3623.5C2008 3617.98 2003.52 3613.5 1998 3613.5C1992.48 3613.5 1988 3617.98 1988 3623.5C1988 3627.26 1990.12 3630.5 1993.16 3632.22C1994.6 3633.02 1996.24 3633.5 1998 3633.5C1999.76 3633.5 2001.4 3633.02 2002.84 3632.22Z" fill="#ADB5BD"/>
</g>
<path d="M1935.61 3696.65V3706.36H1941.2V3709.67H1935.61V3719.51H1931.53V3696.65H1935.61ZM1905.32 3716.5C1914.34 3713.97 1919.87 3708.94 1920.62 3702.71H1907.04V3699.4H1925.04C1925.04 3709.35 1918.28 3716.55 1907 3719.81L1905.32 3716.5ZM1910.56 3727.5C1910.52 3722.82 1915.59 3719.92 1923.32 3719.94C1931.08 3719.92 1936.04 3722.82 1936.04 3727.5C1936.04 3732.23 1931.08 3735.09 1923.32 3735.11C1915.59 3735.09 1910.52 3732.23 1910.56 3727.5ZM1914.6 3727.5C1914.58 3730.21 1917.93 3731.87 1923.32 3731.89C1928.67 3731.87 1932.05 3730.21 1932.05 3727.5C1932.05 3724.8 1928.67 3723.14 1923.32 3723.16C1917.93 3723.14 1914.58 3724.8 1914.6 3727.5ZM1957.18 3703.48C1957.18 3708.17 1960.75 3712.42 1966.55 3714.14L1964.62 3717.36C1960.17 3716.01 1956.88 3713.2 1955.19 3709.54C1953.47 3713.52 1950.05 3716.57 1945.5 3718.01L1943.43 3714.83C1949.38 3713 1953.04 3708.53 1953.06 3703.48V3703.44H1944.68V3700.05H1965.56V3703.44H1957.18V3703.48ZM1942.92 3723.94C1945.93 3723.94 1949.45 3723.96 1953.1 3723.85V3716.42H1957.18V3723.72C1960.51 3723.55 1963.89 3723.29 1967.02 3722.86L1967.32 3725.83C1959.07 3727.33 1950.14 3727.31 1943.52 3727.33L1942.92 3723.94ZM1969.34 3735.15V3696.65H1973.43V3712.38H1979.36V3715.82H1973.43V3735.15H1969.34ZM2011.67 3696.61V3708.12H2017.25V3711.56H2011.67V3724.93H2007.59V3696.61H2011.67ZM1982.02 3708.86C1981.98 3703.25 1986.45 3699.29 1992.25 3699.27C1998.07 3699.29 2002.47 3703.25 2002.52 3708.86C2002.47 3714.46 1998.07 3718.46 1992.25 3718.44C1986.45 3718.46 1981.98 3714.46 1982.02 3708.86ZM1986.02 3708.86C1985.97 3712.44 1988.72 3714.87 1992.25 3714.87C1995.81 3714.87 1998.5 3712.44 1998.52 3708.86C1998.5 3705.27 1995.81 3702.84 1992.25 3702.84C1988.72 3702.84 1985.97 3705.27 1986.02 3708.86ZM1987.26 3734.34V3721.96H1991.34V3731.03H2013.3V3734.34H1987.26ZM2052.4 3696.65V3735.15H2048.49V3715.43H2043.55V3733.18H2039.73V3697.43H2043.55V3712.08H2048.49V3696.65H2052.4ZM2021.25 3725.36V3701.21H2025.33V3721.77C2028.88 3721.72 2032.77 3721.45 2037.15 3720.59L2037.58 3724.15C2032.29 3725.1 2027.89 3725.38 2023.74 3725.36H2021.25Z" fill="#ADB5BD"/>
<path d="M1941.76 3763.81C1941.35 3761.86 1939.68 3760.8 1937.81 3760.8C1935.25 3760.8 1933.27 3762.78 1933.26 3766.43C1933.27 3770.07 1935.25 3772.04 1937.81 3772.05C1939.68 3772.04 1941.34 3771 1941.76 3769.07H1943.52C1943.01 3771.96 1940.68 3773.7 1937.81 3773.7C1934.18 3773.7 1931.55 3770.9 1931.56 3766.43C1931.55 3761.96 1934.18 3759.16 1937.81 3759.16C1940.67 3759.16 1942.99 3760.87 1943.52 3763.81H1941.76ZM1955.23 3759.36H1956.99V3768.71C1956.99 3771.62 1954.81 3773.74 1951.48 3773.75C1948.14 3773.74 1945.98 3771.62 1945.98 3768.71V3759.36H1947.73V3768.58C1947.72 3770.63 1949.15 3772.1 1951.48 3772.11C1953.82 3772.1 1955.22 3770.63 1955.23 3768.58V3759.36ZM1960.12 3773.5V3759.36H1961.88V3771.94H1968.44V3773.5H1960.12ZM1968.12 3760.92V3759.36H1978.79V3760.92H1974.36V3773.5H1972.58V3760.92H1968.12ZM1990.39 3759.36H1992.15V3768.71C1992.15 3771.62 1989.97 3773.74 1986.64 3773.75C1983.3 3773.74 1981.13 3771.62 1981.13 3768.71V3759.36H1982.89V3768.58C1982.88 3770.63 1984.31 3772.1 1986.64 3772.11C1988.97 3772.1 1990.38 3770.63 1990.39 3768.58V3759.36ZM1995.27 3773.5V3759.36H2000.08C2003.39 3759.36 2004.9 3761.2 2004.9 3763.71C2004.9 3765.59 2004.06 3767.05 2002.27 3767.68L2005.45 3773.5H2003.4L2000.44 3768C2000.33 3768.01 2000.21 3768.01 2000.1 3768.01H1997.03V3773.5H1995.27ZM1997.03 3766.41H2000.02C2002.28 3766.41 2003.15 3765.39 2003.16 3763.71C2003.15 3762.03 2002.28 3760.92 2000 3760.92H1997.03V3766.41ZM2008.07 3773.5H2006.23L2011.41 3759.36H2013.26L2018.44 3773.5H2016.58L2015.17 3769.52H2009.48L2008.07 3773.5ZM2010.02 3767.97H2014.63L2012.38 3761.64H2012.27L2010.02 3767.97ZM2020.35 3773.5V3759.36H2022.11V3771.94H2028.67V3773.5H2020.35Z" fill="#ADB5BD"/>
</g>
</g>
<defs>
<filter id="filter0_b_2498_5491" x="-10" y="-10" width="2180" height="3860" filterUnits="userSpaceOnUse" color-interpolation-filters="sRGB">
<feFlood flood-opacity="0" result="BackgroundImageFix"/>
<feGaussianBlur in="BackgroundImageFix" stdDeviation="5"/>
<feComposite in2="SourceAlpha" operator="in" result="effect1_backgroundBlur_2498_5491"/>
<feBlend mode="normal" in="SourceGraphic" in2="effect1_backgroundBlur_2498_5491" result="shape"/>
</filter>
<filter id="filter1_d_2498_5491" x="-40" y="3478" width="2240" height="400" filterUnits="userSpaceOnUse" color-interpolation-filters="sRGB">
<feFlood flood-opacity="0" result="BackgroundImageFix"/>
<feColorMatrix in="SourceAlpha" type="matrix" values="0 0 0 0 0 0 0 0 0 0 0 0 0 0 0 0 0 0 127 0" result="hardAlpha"/>
<feOffset dy="-2"/>
<feGaussianBlur stdDeviation="20"/>
<feComposite in2="hardAlpha" operator="out"/>
<feColorMatrix type="matrix" values="0 0 0 0 0 0 0 0 0 0 0 0 0 0 0 0 0 0 0.1 0"/>
<feBlend mode="normal" in2="BackgroundImageFix" result="effect1_dropShadow_2498_5491"/>
<feBlend mode="normal" in="SourceGraphic" in2="effect1_dropShadow_2498_5491" result="shape"/>
</filter>
<linearGradient id="paint0_linear_2498_5491" x1="324.5" y1="-7.82062e-07" x2="1307.88" y2="1880.86" gradientUnits="userSpaceOnUse">
<stop stop-color="#6559AC"/>
<stop offset="1" stop-color="#31427E"/>
</linearGradient>
<clipPath id="clip0_2498_5491">
<rect width="2160" height="3840" fill="white"/>
</clipPath>
<clipPath id="clip1_2498_5491">
<rect width="96" height="96" fill="white" transform="translate(132 3567.5)"/>
</clipPath>
<clipPath id="clip2_2498_5491">
<rect width="96" height="96" fill="white" transform="translate(492 3581.5)"/>
</clipPath>
<clipPath id="clip3_2498_5491">
<rect width="96" height="96" fill="white" transform="translate(852 3581.5)"/>
</clipPath>
<clipPath id="clip4_2498_5491">
<rect width="96" height="96" fill="white" transform="translate(1932 3581.5)"/>
</clipPath>
</defs>
</svg>
