<svg width="2160" height="3840" viewBox="0 0 2160 3840" fill="none" xmlns="http://www.w3.org/2000/svg">
<g clip-path="url(#clip0_4347_12916)">
<rect width="2160" height="3840" fill="#E4E3E5"/>
<g filter="url(#filter0_d_4347_12916)">
<path d="M0 0L2160 0L2160 3840L0 3840L0 0Z" fill="url(#paint0_linear_4347_12916)"/>
<path d="M0 0L2160 0L2160 3840L0 3840L0 0Z" fill="url(#paint1_linear_4347_12916)"/>
<path d="M0 0L2160 0L2160 3840L0 3840L0 0Z" fill="url(#paint2_linear_4347_12916)"/>
<path d="M0 0L2160 0L2160 3840L0 3840L0 0Z" fill="#E3DED6"/>
<path d="M0 0L2160 0L2160 3840L0 3840L0 0Z" fill="url(#paint3_linear_4347_12916)"/>
<path d="M0 0L2160 0L2160 3840L0 3840L0 0Z" fill="url(#paint4_linear_4347_12916)"/>
<path d="M0 0L2160 0L2160 3840L0 3840L0 0Z" fill="url(#paint5_linear_4347_12916)"/>
</g>
<g filter="url(#filter1_d_4347_12916)">
<rect width="2160" height="320" transform="translate(0 3520)" fill="white"/>
<g clip-path="url(#clip1_4347_12916)">
<path d="M180 3669.5C184.4 3669.5 188 3665.9 188 3661.5H172C172 3665.9 175.6 3669.5 180 3669.5ZM204 3645.5V3625.5C204 3613.22 197.48 3602.94 186 3600.22V3597.5C186 3594.18 183.32 3591.5 180 3591.5C176.68 3591.5 174 3594.18 174 3597.5V3600.22C162.56 3602.94 156 3613.18 156 3625.5V3645.5L148 3653.5V3657.5H212V3653.5L204 3645.5ZM196 3649.5H164V3625.5C164 3615.58 170.04 3607.5 180 3607.5C189.96 3607.5 196 3615.58 196 3625.5V3649.5Z" fill="#ADB5BD"/>
</g>
<path d="M122.723 3720.76C131.166 3720.78 136.494 3723.44 136.516 3728.06C136.494 3732.57 131.166 3735.28 122.723 3735.28C114.365 3735.28 108.973 3732.57 108.973 3728.06C108.973 3723.44 114.365 3720.78 122.723 3720.76ZM105.32 3717.96V3714.1H118.984V3707.05H123.711V3714.1H140.555V3717.96H105.32ZM109.359 3702.11V3698.33H136.258V3701.55C136.279 3704.62 136.279 3707.89 135.184 3711.86L130.457 3711.43C131.424 3707.67 131.488 3704.92 131.488 3702.11H109.359ZM113.785 3728.06C113.742 3730.34 117.115 3731.59 122.723 3731.59C128.352 3731.59 131.746 3730.34 131.789 3728.06C131.746 3725.7 128.352 3724.37 122.723 3724.37C117.115 3724.37 113.742 3725.7 113.785 3728.06ZM157.914 3707.52C157.914 3713.88 161.652 3720.59 167.926 3723.21L165.305 3726.99C160.707 3724.99 157.355 3720.93 155.572 3715.99C153.789 3721.32 150.373 3725.79 145.84 3727.93L143.09 3724.2C149.213 3721.36 153.037 3714.12 153.059 3707.52V3704.26H144.508V3700.3H166.422V3704.26H157.914V3707.52ZM170.762 3735.32V3696.48H175.574V3735.32H170.762ZM195.168 3705.8C195.125 3712.74 198.605 3719.75 204.621 3722.65L201.699 3726.47C197.488 3724.35 194.459 3720.24 192.805 3715.3C191.107 3720.59 187.928 3724.97 183.48 3727.2L180.559 3723.38C186.811 3720.41 190.377 3712.98 190.398 3705.8V3699.62H195.168V3705.8ZM206.941 3735.32V3696.48H211.711V3711.69H217.684V3715.77H211.711V3735.32H206.941ZM249.953 3696.48V3706.71H255.367V3710.7H249.953V3721.27H245.184V3696.48H249.953ZM219.359 3704.17V3700.43H228.512V3696.22H233.281V3700.43H242.391V3704.17H219.359ZM221.336 3712.68C221.336 3708.51 225.203 3705.74 230.875 3705.72C236.482 3705.74 240.35 3708.51 240.371 3712.68C240.35 3716.85 236.482 3719.6 230.875 3719.6C225.203 3719.6 221.336 3716.85 221.336 3712.68ZM224.43 3728.45C224.387 3724.13 229.35 3721.6 237.406 3721.62C245.377 3721.6 250.383 3724.13 250.383 3728.45C250.383 3732.72 245.377 3735.28 237.406 3735.28C229.35 3735.28 224.387 3732.72 224.43 3728.45ZM225.977 3712.68C225.955 3714.79 227.932 3716.01 230.875 3715.99C233.818 3716.01 235.816 3714.79 235.816 3712.68C235.816 3710.53 233.818 3709.24 230.875 3709.24C227.932 3709.24 225.955 3710.53 225.977 3712.68ZM229.156 3728.45C229.135 3730.51 232.1 3731.67 237.406 3731.67C242.648 3731.67 245.592 3730.51 245.613 3728.45C245.592 3726.32 242.648 3725.27 237.406 3725.27C232.1 3725.27 229.135 3726.32 229.156 3728.45Z" fill="#ADB5BD"/>
<path d="M157.48 3759.36V3773.5H155.801L148.145 3762.48H148.008V3773.5H146.25V3759.36H147.949L155.605 3770.39H155.742V3759.36H157.48ZM172.559 3766.43C172.568 3770.9 169.932 3773.7 166.309 3773.7C162.676 3773.7 160.049 3770.9 160.059 3766.43C160.049 3761.96 162.676 3759.16 166.309 3759.16C169.932 3759.16 172.568 3761.96 172.559 3766.43ZM161.758 3766.43C161.768 3770.07 163.75 3772.04 166.309 3772.05C168.867 3772.04 170.85 3770.07 170.859 3766.43C170.85 3762.78 168.867 3760.8 166.309 3760.8C163.75 3760.8 161.768 3762.78 161.758 3766.43ZM173.77 3760.92V3759.36H184.434V3760.92H180V3773.5H178.223V3760.92H173.77ZM188.535 3759.36V3773.5H186.777V3759.36H188.535ZM201.309 3763.81C200.898 3761.86 199.229 3760.8 197.363 3760.8C194.805 3760.8 192.822 3762.78 192.812 3766.43C192.822 3770.07 194.805 3772.04 197.363 3772.05C199.229 3772.04 200.889 3771 201.309 3769.07H203.066C202.559 3771.96 200.234 3773.7 197.363 3773.7C193.73 3773.7 191.104 3770.9 191.113 3766.43C191.104 3761.96 193.73 3759.16 197.363 3759.16C200.225 3759.16 202.539 3760.87 203.066 3763.81H201.309ZM205.527 3773.5V3759.36H214.102V3760.92H207.285V3765.65H213.652V3767.19H207.285V3771.94H214.199V3773.5H205.527Z" fill="#ADB5BD"/>
<g clip-path="url(#clip2_4347_12916)">
<path d="M521.579 3625.96H514.211V3651.86H521.579V3625.96ZM543.684 3625.96H536.316V3651.86H543.684V3625.96ZM575 3659.26H505V3666.66H575V3659.26ZM565.789 3625.96H558.421V3651.86H565.789V3625.96ZM540 3601.02L559.195 3611.16H520.805L540 3601.02ZM540 3592.66L505 3611.16V3618.56H575V3611.16L540 3592.66Z" fill="#ADB5BD"/>
</g>
<path d="M497.246 3696.65V3735.24H493.164V3696.65H497.246ZM466.695 3713.02C466.695 3704.79 470.842 3699.55 476.664 3699.53C482.379 3699.55 486.59 3704.79 486.59 3713.02C486.59 3721.34 482.379 3726.58 476.664 3726.56C470.842 3726.58 466.695 3721.34 466.695 3713.02ZM470.648 3713.02C470.627 3719.15 473.076 3722.91 476.664 3722.91C480.188 3722.91 482.637 3719.15 482.637 3713.02C482.637 3706.99 480.188 3703.21 476.664 3703.18C473.076 3703.21 470.627 3706.99 470.648 3713.02ZM538.496 3715.43V3718.74H503.391V3715.43H511.812V3710.25C508.826 3709.05 507.15 3707.12 507.172 3704.56C507.15 3699.98 512.457 3697.32 520.922 3697.34C529.365 3697.32 534.65 3699.98 534.672 3704.56C534.65 3707.12 532.975 3709.05 529.988 3710.27V3715.43H538.496ZM507.559 3728.19C507.559 3723.79 512.543 3721.36 520.922 3721.36C529.193 3721.36 534.178 3723.79 534.199 3728.19C534.178 3732.64 529.193 3735.07 520.922 3735.07C512.543 3735.07 507.559 3732.64 507.559 3728.19ZM511.383 3704.56C511.361 3707.14 514.928 3708.58 520.922 3708.6C526.873 3708.58 530.482 3707.14 530.461 3704.56C530.482 3701.98 526.873 3700.5 520.922 3700.48C514.928 3700.5 511.361 3701.98 511.383 3704.56ZM511.684 3728.19C511.662 3730.6 515.035 3731.97 520.922 3731.93C526.723 3731.97 530.117 3730.6 530.117 3728.19C530.117 3725.83 526.723 3724.5 520.922 3724.5C515.035 3724.5 511.662 3725.83 511.684 3728.19ZM515.938 3715.43H525.949V3711.33C524.445 3711.56 522.748 3711.69 520.922 3711.69C519.117 3711.69 517.441 3711.56 515.938 3711.35V3715.43ZM571.668 3696.61V3708.12H577.254V3711.56H571.668V3724.93H567.586V3696.61H571.668ZM542.02 3708.86C541.977 3703.25 546.445 3699.29 552.246 3699.27C558.068 3699.29 562.473 3703.25 562.516 3708.86C562.473 3714.46 558.068 3718.46 552.246 3718.44C546.445 3718.46 541.977 3714.46 542.02 3708.86ZM546.016 3708.86C545.973 3712.44 548.723 3714.87 552.246 3714.87C555.812 3714.87 558.498 3712.44 558.52 3708.86C558.498 3705.27 555.812 3702.84 552.246 3702.84C548.723 3702.84 545.973 3705.27 546.016 3708.86ZM547.262 3734.34V3721.96H551.344V3731.03H573.301V3734.34H547.262ZM612.402 3696.65V3735.15H608.492V3715.43H603.551V3733.18H599.727V3697.43H603.551V3712.08H608.492V3696.65H612.402ZM581.25 3725.36V3701.21H585.332V3721.77C588.877 3721.72 592.766 3721.45 597.148 3720.59L597.578 3724.15C592.293 3725.1 587.889 3725.38 583.742 3725.36H581.25Z" fill="#ADB5BD"/>
<path d="M477.637 3759.36V3773.5H475.879V3759.36H477.637ZM491.992 3759.36V3773.5H490.312L482.656 3762.48H482.52V3773.5H480.762V3759.36H482.461L490.117 3770.39H490.254V3759.36H491.992ZM495.117 3773.5V3759.36H503.633V3760.92H496.875V3765.65H502.988V3767.19H496.875V3773.5H495.117ZM518.203 3766.43C518.213 3770.9 515.576 3773.7 511.953 3773.7C508.32 3773.7 505.693 3770.9 505.703 3766.43C505.693 3761.96 508.32 3759.16 511.953 3759.16C515.576 3759.16 518.213 3761.96 518.203 3766.43ZM507.402 3766.43C507.412 3770.07 509.395 3772.04 511.953 3772.05C514.512 3772.04 516.494 3770.07 516.504 3766.43C516.494 3762.78 514.512 3760.8 511.953 3760.8C509.395 3760.8 507.412 3762.78 507.402 3766.43ZM520.781 3773.5V3759.36H525.586C528.896 3759.36 530.41 3761.2 530.41 3763.71C530.41 3765.59 529.57 3767.05 527.773 3767.68L530.957 3773.5H528.906L525.947 3768C525.84 3768.01 525.723 3768.01 525.605 3768.01H522.539V3773.5H520.781ZM522.539 3766.41H525.527C527.783 3766.41 528.662 3765.39 528.672 3763.71C528.662 3762.03 527.783 3760.92 525.508 3760.92H522.539V3766.41ZM532.949 3759.36H535.059L539.824 3771H540L544.766 3759.36H546.875V3773.5H545.215V3762.82H545.078L540.684 3773.5H539.121L534.727 3762.82H534.609V3773.5H532.949V3759.36ZM550.625 3773.5H548.789L553.965 3759.36H555.82L560.996 3773.5H559.141L557.725 3769.52H552.041L550.625 3773.5ZM552.578 3767.97H557.188L554.941 3761.64H554.824L552.578 3767.97ZM560.469 3760.92V3759.36H571.133V3760.92H566.699V3773.5H564.922V3760.92H560.469ZM575.234 3759.36V3773.5H573.477V3759.36H575.234ZM590.312 3766.43C590.322 3770.9 587.686 3773.7 584.062 3773.7C580.43 3773.7 577.803 3770.9 577.812 3766.43C577.803 3761.96 580.43 3759.16 584.062 3759.16C587.686 3759.16 590.322 3761.96 590.312 3766.43ZM579.512 3766.43C579.521 3770.07 581.504 3772.04 584.062 3772.05C586.621 3772.04 588.604 3770.07 588.613 3766.43C588.604 3762.78 586.621 3760.8 584.062 3760.8C581.504 3760.8 579.521 3762.78 579.512 3766.43ZM604.121 3759.36V3773.5H602.441L594.785 3762.48H594.648V3773.5H592.891V3759.36H594.59L602.246 3770.39H602.383V3759.36H604.121Z" fill="#ADB5BD"/>
<g clip-path="url(#clip3_4347_12916)">
<path d="M900 3589.5C884.52 3589.5 872 3602.02 872 3617.5C872 3638.5 900 3669.5 900 3669.5C900 3669.5 928 3638.5 928 3617.5C928 3602.02 915.48 3589.5 900 3589.5ZM880 3617.5C880 3606.46 888.96 3597.5 900 3597.5C911.04 3597.5 920 3606.46 920 3617.5C920 3629.02 908.48 3646.26 900 3657.02C891.68 3646.34 880 3628.9 880 3617.5Z" fill="#ADB5BD"/>
<path d="M900 3627.5C905.523 3627.5 910 3623.02 910 3617.5C910 3611.98 905.523 3607.5 900 3607.5C894.477 3607.5 890 3611.98 890 3617.5C890 3623.02 894.477 3627.5 900 3627.5Z" fill="#ADB5BD"/>
</g>
<path d="M839.5 3706.45C839.457 3713.47 843.711 3720.56 849.684 3723.21L847.234 3726.43C842.809 3724.32 839.307 3720.01 837.502 3714.74C835.719 3720.39 832.174 3725.03 827.555 3727.29L825.062 3723.85C831.121 3721.17 835.375 3713.8 835.375 3706.45V3699.88H839.5V3706.45ZM853.164 3735.24V3696.65H857.246V3735.24H853.164ZM895.488 3696.65V3716.46H891.406V3706.58H883.285V3703.27H891.406V3696.65H895.488ZM863.262 3713.37C869.277 3711.46 872.865 3706.66 872.887 3701.25V3697.9H876.926V3701.25C876.926 3706.15 880.449 3710.7 886.25 3712.55L884.102 3715.73C879.869 3714.27 876.668 3711.37 874.971 3707.7C873.295 3711.84 870.008 3715.06 865.453 3716.63L863.262 3713.37ZM870.309 3721.49V3718.27H895.488V3727.85H874.391V3731.41H896.82V3734.68H870.395V3724.75H891.449V3721.49H870.309ZM931.668 3696.61V3708.12H937.254V3711.56H931.668V3724.93H927.586V3696.61H931.668ZM902.02 3708.86C901.977 3703.25 906.445 3699.29 912.246 3699.27C918.068 3699.29 922.473 3703.25 922.516 3708.86C922.473 3714.46 918.068 3718.46 912.246 3718.44C906.445 3718.46 901.977 3714.46 902.02 3708.86ZM906.016 3708.86C905.973 3712.44 908.723 3714.87 912.246 3714.87C915.812 3714.87 918.498 3712.44 918.52 3708.86C918.498 3705.27 915.812 3702.84 912.246 3702.84C908.723 3702.84 905.973 3705.27 906.016 3708.86ZM907.262 3734.34V3721.96H911.344V3731.03H933.301V3734.34H907.262ZM972.402 3696.65V3735.15H968.492V3715.43H963.551V3733.18H959.727V3697.43H963.551V3712.08H968.492V3696.65H972.402ZM941.25 3725.36V3701.21H945.332V3721.77C948.877 3721.72 952.766 3721.45 957.148 3720.59L957.578 3724.15C952.293 3725.1 947.889 3725.38 943.742 3725.36H941.25Z" fill="#ADB5BD"/>
<path d="M861.162 3773.5V3759.36H869.678V3760.92H862.92V3765.65H869.033V3767.19H862.92V3773.5H861.162ZM871.143 3773.5H869.307L874.482 3759.36H876.338L881.514 3773.5H879.658L878.242 3769.52H872.559L871.143 3773.5ZM873.096 3767.97H877.705L875.459 3761.64H875.342L873.096 3767.97ZM892.412 3763.81C892.002 3761.86 890.332 3760.8 888.467 3760.8C885.908 3760.8 883.926 3762.78 883.916 3766.43C883.926 3770.07 885.908 3772.04 888.467 3772.05C890.332 3772.04 891.992 3771 892.412 3769.07H894.17C893.662 3771.96 891.338 3773.7 888.467 3773.7C884.834 3773.7 882.207 3770.9 882.217 3766.43C882.207 3761.96 884.834 3759.16 888.467 3759.16C891.328 3759.16 893.643 3760.87 894.17 3763.81H892.412ZM898.389 3759.36V3773.5H896.631V3759.36H898.389ZM901.514 3773.5V3759.36H903.271V3771.94H909.834V3773.5H901.514ZM913.936 3759.36V3773.5H912.178V3759.36H913.936ZM916.279 3760.92V3759.36H926.943V3760.92H922.51V3773.5H920.732V3760.92H916.279ZM928.076 3759.36H930.088L933.975 3765.92H934.15L938.037 3759.36H940.068L934.951 3767.7V3773.5H933.174V3767.7L928.076 3759.36Z" fill="#ADB5BD"/>
<path d="M1296.69 3589.74C1293.82 3589.25 1290.92 3588.99 1288.01 3588.98C1278.08 3588.97 1268.36 3591.82 1260.01 3597.18C1251.63 3591.89 1241.91 3589.11 1232.01 3589.18C1229.1 3589.19 1226.19 3589.45 1223.33 3589.94C1222.39 3590.1 1221.54 3590.59 1220.93 3591.33C1220.32 3592.06 1219.99 3592.99 1220.01 3593.94V3641.94C1220 3642.53 1220.12 3643.11 1220.36 3643.65C1220.6 3644.18 1220.96 3644.66 1221.41 3645.04C1221.85 3645.42 1222.38 3645.7 1222.95 3645.86C1223.51 3646.01 1224.11 3646.04 1224.69 3645.94C1230.42 3644.95 1236.29 3645.11 1241.96 3646.42C1247.63 3647.74 1252.97 3650.17 1257.69 3653.58L1258.17 3653.86H1258.61C1259.05 3654.05 1259.53 3654.14 1260.01 3654.14C1260.49 3654.14 1260.96 3654.05 1261.41 3653.86H1261.85L1262.33 3653.58C1267.01 3650.09 1272.34 3647.58 1278.01 3646.19C1283.68 3644.81 1289.56 3644.57 1295.33 3645.5C1295.91 3645.6 1296.5 3645.57 1297.07 3645.42C1297.63 3645.26 1298.16 3644.98 1298.61 3644.6C1299.05 3644.22 1299.41 3643.74 1299.65 3643.21C1299.89 3642.67 1300.01 3642.09 1300.01 3641.5V3593.5C1299.96 3592.59 1299.61 3591.72 1299.01 3591.04C1298.4 3590.35 1297.59 3589.89 1296.69 3589.74ZM1256.01 3642.9C1248.61 3639.01 1240.37 3636.98 1232.01 3636.98C1230.69 3636.98 1229.37 3636.98 1228.01 3636.98V3596.98C1229.34 3596.9 1230.67 3596.9 1232.01 3596.98C1240.54 3596.97 1248.89 3599.48 1256.01 3604.18V3642.9ZM1292.01 3637.14C1290.65 3637.14 1289.33 3637.14 1288.01 3637.14C1279.64 3637.14 1271.41 3639.17 1264.01 3643.06V3604.18C1271.13 3599.48 1279.47 3596.97 1288.01 3596.98C1289.34 3596.9 1290.67 3596.9 1292.01 3596.98V3637.14ZM1296.69 3653.74C1293.82 3653.25 1290.92 3652.99 1288.01 3652.98C1278.08 3652.97 1268.36 3655.82 1260.01 3661.18C1251.65 3655.82 1241.93 3652.97 1232.01 3652.98C1229.1 3652.99 1226.19 3653.25 1223.33 3653.74C1222.81 3653.82 1222.31 3654.01 1221.86 3654.28C1221.41 3654.56 1221.02 3654.92 1220.71 3655.35C1220.4 3655.78 1220.18 3656.26 1220.06 3656.78C1219.94 3657.29 1219.92 3657.82 1220.01 3658.34C1220.21 3659.38 1220.82 3660.3 1221.69 3660.89C1222.57 3661.48 1223.65 3661.7 1224.69 3661.5C1230.42 3660.51 1236.29 3660.67 1241.96 3661.98C1247.63 3663.3 1252.97 3665.73 1257.69 3669.14C1258.36 3669.62 1259.17 3669.88 1260.01 3669.88C1260.84 3669.88 1261.65 3669.62 1262.33 3669.14C1267.04 3665.73 1272.39 3663.3 1278.05 3661.98C1283.72 3660.67 1289.59 3660.51 1295.33 3661.5C1296.37 3661.7 1297.44 3661.48 1298.32 3660.89C1299.2 3660.3 1299.8 3659.38 1300.01 3658.34C1300.09 3657.82 1300.07 3657.29 1299.95 3656.78C1299.83 3656.26 1299.61 3655.78 1299.3 3655.35C1298.99 3654.92 1298.6 3654.56 1298.16 3654.28C1297.71 3654.01 1297.21 3653.82 1296.69 3653.74Z" fill="#ADB5BD"/>
<path d="M1217.59 3696.52V3724.88H1212.78V3696.52H1217.59ZM1185.28 3715.73C1191.57 3713.52 1194.79 3708.04 1194.77 3702.45V3698.67H1199.71V3702.45C1199.69 3707.87 1202.87 3712.98 1209.04 3715.04L1206.59 3718.82C1202.16 3717.28 1199.01 3714.18 1197.29 3710.21C1195.57 3714.46 1192.35 3717.86 1187.77 3719.51L1185.28 3715.73ZM1191.89 3734.55V3722.18H1196.71V3730.68H1218.66V3734.55H1191.89ZM1237.23 3704.9C1237.21 3709.16 1240.36 3713.41 1246.51 3715.09L1244.27 3718.91C1239.83 3717.62 1236.65 3714.94 1234.88 3711.54C1233.19 3715.26 1229.96 3718.18 1225.41 3719.55L1223.09 3715.82C1229.21 3714.05 1232.46 3709.54 1232.46 3704.9V3704.6H1224.34V3700.82H1232.46V3696.35H1237.27V3700.82H1245.35V3704.6H1237.23V3704.9ZM1228.03 3725.83V3722H1253.9V3735.37H1249.13V3725.83H1228.03ZM1249.13 3720.24V3696.48H1253.9V3706.32H1259.31V3710.36H1253.9V3720.24H1249.13ZM1292.83 3714.14V3717.92H1281.31V3726.82H1296.78V3730.73H1261.29V3726.82H1276.59V3717.92H1265.59V3699.36H1292.53V3703.18H1270.36V3714.14H1292.83ZM1313.67 3705.8C1313.65 3713.02 1317.11 3720.11 1323.29 3722.82L1320.41 3726.64C1316.03 3724.5 1312.94 3720.37 1311.28 3715.28C1309.59 3720.65 1306.41 3725.12 1301.94 3727.38L1298.93 3723.51C1305.27 3720.54 1308.79 3713.07 1308.81 3705.8V3699.62H1313.67V3705.8ZM1319 3712.89V3709.03H1327.16V3696.48H1331.89V3735.37H1327.16V3712.89H1319Z" fill="#ADB5BD"/>
<path d="M1168.02 3759.36V3773.5H1166.34L1158.68 3762.48H1158.54V3773.5H1156.79V3759.36H1158.49L1166.14 3770.39H1166.28V3759.36H1168.02ZM1171.14 3773.5V3759.36H1179.72V3760.92H1172.9V3765.65H1179.27V3767.19H1172.9V3771.94H1179.81V3773.5H1171.14ZM1185.11 3773.5L1181.24 3759.36H1183.02L1185.97 3770.8H1186.1L1189.09 3759.36H1191.06L1194.07 3770.8H1194.19L1197.14 3759.36H1198.92L1195.05 3773.5H1193.23L1190.15 3762.31H1190.03L1186.92 3773.5H1185.11ZM1206.44 3773.5H1204.6L1209.78 3759.36H1211.63L1216.81 3773.5H1214.95L1213.54 3769.52H1207.85L1206.44 3773.5ZM1208.39 3767.97H1213L1210.75 3761.64H1210.63L1208.39 3767.97ZM1218.72 3773.5V3759.36H1223.53C1226.84 3759.36 1228.35 3761.2 1228.35 3763.71C1228.35 3765.59 1227.51 3767.05 1225.71 3767.68L1228.9 3773.5H1226.85L1223.89 3768C1223.78 3768.01 1223.66 3768.01 1223.54 3768.01H1220.48V3773.5H1218.72ZM1220.48 3766.41H1223.47C1225.72 3766.41 1226.6 3765.39 1226.61 3763.71C1226.6 3762.03 1225.72 3760.92 1223.45 3760.92H1220.48V3766.41ZM1230.89 3773.5V3759.36H1235.69C1239 3759.36 1240.52 3761.2 1240.52 3763.71C1240.52 3765.59 1239.68 3767.05 1237.88 3767.68L1241.06 3773.5H1239.01L1236.05 3768C1235.95 3768.01 1235.83 3768.01 1235.71 3768.01H1232.65V3773.5H1230.89ZM1232.65 3766.41H1235.63C1237.89 3766.41 1238.77 3765.39 1238.78 3763.71C1238.77 3762.03 1237.89 3760.92 1235.62 3760.92H1232.65V3766.41ZM1244.81 3759.36V3773.5H1243.06V3759.36H1244.81ZM1248.58 3759.36L1252.74 3771.21H1252.9L1257.08 3759.36H1258.94L1253.76 3773.5H1251.9L1246.73 3759.36H1248.58ZM1260.22 3773.5H1258.39L1263.56 3759.36H1265.42L1270.6 3773.5H1268.74L1267.32 3769.52H1261.64L1260.22 3773.5ZM1262.18 3767.97H1266.79L1264.54 3761.64H1264.42L1262.18 3767.97ZM1272.51 3773.5V3759.36H1274.27V3771.94H1280.83V3773.5H1272.51ZM1290.89 3762.91C1290.74 3761.53 1289.45 3760.73 1287.76 3760.73C1285.89 3760.73 1284.67 3761.7 1284.66 3763.05C1284.67 3764.54 1286.32 3765.09 1287.39 3765.36L1288.8 3765.75C1290.31 3766.14 1292.8 3767.01 1292.8 3769.65C1292.8 3771.96 1290.95 3773.74 1287.67 3773.75C1284.62 3773.74 1282.73 3772.17 1282.57 3769.83H1284.37C1284.51 3771.41 1285.99 3772.16 1287.67 3772.15C1289.62 3772.16 1291.08 3771.16 1291.08 3769.61C1291.08 3768.24 1289.78 3767.71 1288.29 3767.29L1286.55 3766.82C1284.34 3766.18 1282.95 3765.04 1282.96 3763.13C1282.95 3760.74 1285.08 3759.16 1287.82 3759.16C1290.57 3759.16 1292.54 3760.77 1292.61 3762.91H1290.89ZM1300.34 3773.5V3759.36H1305.3C1308.27 3759.36 1309.67 3761.03 1309.66 3763.11C1309.67 3764.93 1308.58 3765.74 1307.35 3766.08V3766.21C1308.67 3766.29 1310.21 3767.5 1310.22 3769.75C1310.21 3771.87 1308.82 3773.5 1305.48 3773.5H1300.34ZM1302.1 3771.94H1305.46C1307.68 3771.94 1308.54 3770.96 1308.53 3769.73C1308.54 3768.29 1307.37 3767.07 1305.56 3767.07H1302.1V3771.94ZM1302.1 3765.55H1305.24C1306.78 3765.56 1307.98 3764.6 1307.98 3763.13C1307.98 3761.9 1307.15 3760.92 1305.3 3760.92H1302.1V3765.55ZM1324.68 3766.43C1324.69 3770.9 1322.05 3773.7 1318.43 3773.7C1314.79 3773.7 1312.17 3770.9 1312.18 3766.43C1312.17 3761.96 1314.79 3759.16 1318.43 3759.16C1322.05 3759.16 1324.69 3761.96 1324.68 3766.43ZM1313.88 3766.43C1313.89 3770.07 1315.87 3772.04 1318.43 3772.05C1320.99 3772.04 1322.97 3770.07 1322.98 3766.43C1322.97 3762.78 1320.99 3760.8 1318.43 3760.8C1315.87 3760.8 1313.89 3762.78 1313.88 3766.43ZM1339.21 3766.43C1339.22 3770.9 1336.58 3773.7 1332.96 3773.7C1329.33 3773.7 1326.7 3770.9 1326.71 3766.43C1326.7 3761.96 1329.33 3759.16 1332.96 3759.16C1336.58 3759.16 1339.22 3761.96 1339.21 3766.43ZM1328.41 3766.43C1328.42 3770.07 1330.4 3772.04 1332.96 3772.05C1335.52 3772.04 1337.5 3770.07 1337.51 3766.43C1337.5 3762.78 1335.52 3760.8 1332.96 3760.8C1330.4 3760.8 1328.42 3762.78 1328.41 3766.43ZM1341.79 3773.5V3759.36H1343.54V3766.35H1343.72L1350.01 3759.36H1352.31L1346.4 3765.75L1352.31 3773.5H1350.17L1345.3 3766.96L1343.54 3768.95V3773.5H1341.79ZM1361.9 3762.91C1361.76 3761.53 1360.47 3760.73 1358.78 3760.73C1356.9 3760.73 1355.68 3761.7 1355.67 3763.05C1355.68 3764.54 1357.33 3765.09 1358.41 3765.36L1359.81 3765.75C1361.33 3766.14 1363.82 3767.01 1363.82 3769.65C1363.82 3771.96 1361.96 3773.74 1358.68 3773.75C1355.63 3773.74 1353.75 3772.17 1353.58 3769.83H1355.38C1355.53 3771.41 1357 3772.16 1358.68 3772.15C1360.63 3772.16 1362.1 3771.16 1362.1 3769.61C1362.1 3768.24 1360.79 3767.71 1359.31 3767.29L1357.57 3766.82C1355.35 3766.18 1353.96 3765.04 1353.97 3763.13C1353.96 3760.74 1356.09 3759.16 1358.84 3759.16C1361.58 3759.16 1363.55 3760.77 1363.62 3762.91H1361.9Z" fill="#ADB5BD"/>
<path d="M1656 3597.5H1644V3593.5C1644 3592.44 1643.58 3591.42 1642.83 3590.67C1642.08 3589.92 1641.06 3589.5 1640 3589.5H1600C1598.94 3589.5 1597.92 3589.92 1597.17 3590.67C1596.42 3591.42 1596 3592.44 1596 3593.5V3597.5H1584C1582.94 3597.5 1581.92 3597.92 1581.17 3598.67C1580.42 3599.42 1580 3600.44 1580 3601.5V3613.5C1580 3617.74 1581.69 3621.81 1584.69 3624.81C1587.69 3627.81 1591.76 3629.5 1596 3629.5H1602.16C1605.78 3633.54 1610.66 3636.23 1616 3637.14V3645.5H1612C1608.82 3645.5 1605.77 3646.76 1603.51 3649.01C1601.26 3651.27 1600 3654.32 1600 3657.5V3665.5C1600 3666.56 1600.42 3667.58 1601.17 3668.33C1601.92 3669.08 1602.94 3669.5 1604 3669.5H1636C1637.06 3669.5 1638.08 3669.08 1638.83 3668.33C1639.58 3667.58 1640 3666.56 1640 3665.5V3657.5C1640 3654.32 1638.74 3651.27 1636.49 3649.01C1634.23 3646.76 1631.18 3645.5 1628 3645.5H1624V3637.14C1629.34 3636.23 1634.22 3633.54 1637.84 3629.5H1644C1648.24 3629.5 1652.31 3627.81 1655.31 3624.81C1658.31 3621.81 1660 3617.74 1660 3613.5V3601.5C1660 3600.44 1659.58 3599.42 1658.83 3598.67C1658.08 3597.92 1657.06 3597.5 1656 3597.5ZM1596 3621.5C1593.88 3621.5 1591.84 3620.66 1590.34 3619.16C1588.84 3617.66 1588 3615.62 1588 3613.5V3605.5H1596V3613.5C1596.01 3616.23 1596.48 3618.93 1597.4 3621.5H1596ZM1628 3653.5C1629.06 3653.5 1630.08 3653.92 1630.83 3654.67C1631.58 3655.42 1632 3656.44 1632 3657.5V3661.5H1608V3657.5C1608 3656.44 1608.42 3655.42 1609.17 3654.67C1609.92 3653.92 1610.94 3653.5 1612 3653.5H1628ZM1636 3613.5C1636 3617.74 1634.31 3621.81 1631.31 3624.81C1628.31 3627.81 1624.24 3629.5 1620 3629.5C1615.76 3629.5 1611.69 3627.81 1608.69 3624.81C1605.69 3621.81 1604 3617.74 1604 3613.5V3597.5H1636V3613.5ZM1652 3613.5C1652 3615.62 1651.16 3617.66 1649.66 3619.16C1648.16 3620.66 1646.12 3621.5 1644 3621.5H1642.6C1643.52 3618.93 1643.99 3616.23 1644 3613.5V3605.5H1652V3613.5Z" fill="#ADB5BD"/>
<path d="M1559.39 3696.65V3735.15H1555.48V3715.26H1550.5V3733.18H1546.76V3697.43H1550.5V3711.91H1555.48V3696.65H1559.39ZM1527.64 3725.91V3701.29H1542.08V3704.6H1531.72V3722.43C1536.45 3722.41 1540.01 3722.2 1544.14 3721.4L1544.44 3724.75C1539.82 3725.72 1535.82 3725.87 1530.22 3725.91H1527.64ZM1599.44 3713.54V3716.59H1583.93V3719.81H1595.06V3728.49H1572.63V3731.67H1596.13V3734.77H1568.63V3725.66H1591.02V3722.78H1568.59V3719.81H1579.89V3716.59H1564.42V3713.54H1599.44ZM1566.14 3708.94C1573.51 3708.53 1578.71 3706.28 1579.54 3703.01H1567.9V3699.88H1579.89V3696.48H1583.93V3699.88H1595.96V3703.01H1584.25C1585.07 3706.28 1590.27 3708.53 1597.72 3708.94L1596.47 3712.04C1589.77 3711.54 1584.31 3709.59 1581.91 3706.21C1579.5 3709.59 1574.04 3711.54 1567.3 3712.04L1566.14 3708.94ZM1607.56 3700.35V3709.59H1614.95V3700.35H1618.69V3711.09H1623.8V3697.43H1627.71V3733.3H1623.8V3714.48H1618.69V3725.66H1603.69V3700.35H1607.56ZM1607.56 3722.26H1614.95V3712.89H1607.56V3722.26ZM1631.62 3735.15V3696.65H1635.53V3735.15H1631.62ZM1659.98 3702.11C1659.98 3708.38 1666.66 3714.31 1674.08 3715.64L1672.19 3719.04C1666.02 3717.71 1660.37 3713.67 1657.88 3708.25C1655.34 3713.65 1649.69 3717.66 1643.53 3719.04L1641.72 3715.64C1649.03 3714.27 1655.66 3708.38 1655.69 3702.11V3699.19H1659.98V3702.11ZM1640.43 3730.08V3726.69H1675.67V3730.08H1640.43ZM1709.7 3717.15V3720.41H1682.88V3699.83H1709.31V3703.14H1687.01V3708.34H1708.49V3711.56H1687.01V3717.15H1709.7ZM1678.46 3730.3V3726.95H1713.69V3730.3H1678.46Z" fill="#ADB5BD"/>
<path d="M1529.55 3773.5V3759.36H1534.51C1537.48 3759.36 1538.88 3761.03 1538.87 3763.11C1538.88 3764.93 1537.79 3765.74 1536.56 3766.08V3766.21C1537.88 3766.29 1539.42 3767.5 1539.43 3769.75C1539.42 3771.87 1538.03 3773.5 1534.69 3773.5H1529.55ZM1531.31 3771.94H1534.67C1536.88 3771.94 1537.74 3770.96 1537.73 3769.73C1537.74 3768.29 1536.58 3767.07 1534.77 3767.07H1531.31V3771.94ZM1531.31 3765.55H1534.45C1535.99 3765.56 1537.19 3764.6 1537.19 3763.13C1537.19 3761.9 1536.36 3760.92 1534.51 3760.92H1531.31V3765.55ZM1541.93 3773.5V3759.36H1550.51V3760.92H1543.69V3765.65H1550.06V3767.19H1543.69V3771.94H1550.61V3773.5H1541.93ZM1561 3762.91C1560.85 3761.53 1559.56 3760.73 1557.87 3760.73C1556 3760.73 1554.78 3761.7 1554.77 3763.05C1554.78 3764.54 1556.43 3765.09 1557.5 3765.36L1558.91 3765.75C1560.42 3766.14 1562.91 3767.01 1562.91 3769.65C1562.91 3771.96 1561.05 3773.74 1557.77 3773.75C1554.73 3773.74 1552.84 3772.17 1552.68 3769.83H1554.47C1554.62 3771.41 1556.09 3772.16 1557.77 3772.15C1559.73 3772.16 1561.19 3771.16 1561.19 3769.61C1561.19 3768.24 1559.88 3767.71 1558.4 3767.29L1556.66 3766.82C1554.44 3766.18 1553.06 3765.04 1553.07 3763.13C1553.06 3760.74 1555.19 3759.16 1557.93 3759.16C1560.67 3759.16 1562.65 3760.77 1562.71 3762.91H1561ZM1564.65 3760.92V3759.36H1575.31V3760.92H1570.88V3773.5H1569.1V3760.92H1564.65ZM1582.68 3773.5V3759.36H1587.48C1590.79 3759.36 1592.3 3761.2 1592.3 3763.71C1592.3 3765.59 1591.46 3767.05 1589.67 3767.68L1592.85 3773.5H1590.8L1587.84 3768C1587.73 3768.01 1587.62 3768.01 1587.5 3768.01H1584.43V3773.5H1582.68ZM1584.43 3766.41H1587.42C1589.68 3766.41 1590.56 3765.39 1590.57 3763.71C1590.56 3762.03 1589.68 3760.92 1587.4 3760.92H1584.43V3766.41ZM1594.84 3773.5V3759.36H1603.42V3760.92H1596.6V3765.65H1602.97V3767.19H1596.6V3771.94H1603.52V3773.5H1594.84ZM1617.42 3759.36V3773.5H1615.74L1608.09 3762.48H1607.95V3773.5H1606.19V3759.36H1607.89L1615.55 3770.39H1615.68V3759.36H1617.42ZM1619.77 3760.92V3759.36H1630.43V3760.92H1626V3773.5H1624.22V3760.92H1619.77ZM1631.74 3773.5H1629.9L1635.08 3759.36H1636.93L1642.11 3773.5H1640.25L1638.84 3769.52H1633.15L1631.74 3773.5ZM1633.69 3767.97H1638.3L1636.05 3761.64H1635.94L1633.69 3767.97ZM1644.02 3773.5V3759.36H1645.78V3771.94H1652.34V3773.5H1644.02ZM1659.71 3773.5V3759.36H1664.67C1667.64 3759.36 1669.03 3761.03 1669.02 3763.11C1669.03 3764.93 1667.95 3765.74 1666.72 3766.08V3766.21C1668.04 3766.29 1669.58 3767.5 1669.59 3769.75C1669.58 3771.87 1668.18 3773.5 1664.84 3773.5H1659.71ZM1661.46 3771.94H1664.82C1667.04 3771.94 1667.9 3770.96 1667.89 3769.73C1667.9 3768.29 1666.74 3767.07 1664.92 3767.07H1661.46V3771.94ZM1661.46 3765.55H1664.61C1666.14 3765.56 1667.34 3764.6 1667.34 3763.13C1667.34 3761.9 1666.51 3760.92 1664.67 3760.92H1661.46V3765.55ZM1684.04 3766.43C1684.05 3770.9 1681.42 3773.7 1677.79 3773.7C1674.16 3773.7 1671.53 3770.9 1671.54 3766.43C1671.53 3761.96 1674.16 3759.16 1677.79 3759.16C1681.42 3759.16 1684.05 3761.96 1684.04 3766.43ZM1673.24 3766.43C1673.25 3770.07 1675.23 3772.04 1677.79 3772.05C1680.35 3772.04 1682.33 3770.07 1682.34 3766.43C1682.33 3762.78 1680.35 3760.8 1677.79 3760.8C1675.23 3760.8 1673.25 3762.78 1673.24 3766.43ZM1698.57 3766.43C1698.58 3770.9 1695.95 3773.7 1692.32 3773.7C1688.69 3773.7 1686.06 3770.9 1686.07 3766.43C1686.06 3761.96 1688.69 3759.16 1692.32 3759.16C1695.95 3759.16 1698.58 3761.96 1698.57 3766.43ZM1687.77 3766.43C1687.78 3770.07 1689.77 3772.04 1692.32 3772.05C1694.88 3772.04 1696.87 3770.07 1696.88 3766.43C1696.87 3762.78 1694.88 3760.8 1692.32 3760.8C1689.77 3760.8 1687.78 3762.78 1687.77 3766.43ZM1701.15 3773.5V3759.36H1702.91V3766.35H1703.09L1709.38 3759.36H1711.68L1705.76 3765.75L1711.68 3773.5H1709.53L1704.67 3766.96L1702.91 3768.95V3773.5H1701.15Z" fill="#ADB5BD"/>
<g clip-path="url(#clip4_4347_12916)">
<path d="M1968 3615.5C1975.72 3615.5 1982 3609.22 1982 3601.5C1982 3593.78 1975.72 3587.5 1968 3587.5C1960.28 3587.5 1954 3593.78 1954 3601.5C1954 3609.22 1960.28 3615.5 1968 3615.5ZM1968 3595.5C1971.32 3595.5 1974 3598.18 1974 3601.5C1974 3604.82 1971.32 3607.5 1968 3607.5C1964.68 3607.5 1962 3604.82 1962 3601.5C1962 3598.18 1964.68 3595.5 1968 3595.5ZM1968.2 3635.5H1951.08C1955.04 3633.5 1961.88 3631.5 1968 3631.5C1968.44 3631.5 1968.92 3631.54 1969.36 3631.54C1970.72 3628.62 1973.08 3626.22 1975.92 3624.3C1973 3623.78 1970.24 3623.5 1968 3623.5C1958.64 3623.5 1940 3628.18 1940 3637.5V3643.5H1968V3637.5C1968 3636.82 1968.08 3636.14 1968.2 3635.5ZM1998 3625.5C1990.64 3625.5 1976 3629.54 1976 3637.5V3643.5H2020V3637.5C2020 3629.54 2005.36 3625.5 1998 3625.5ZM2002.84 3618.22C2005.88 3616.5 2008 3613.26 2008 3609.5C2008 3603.98 2003.52 3599.5 1998 3599.5C1992.48 3599.5 1988 3603.98 1988 3609.5C1988 3613.26 1990.12 3616.5 1993.16 3618.22C1994.6 3619.02 1996.24 3619.5 1998 3619.5C1999.76 3619.5 2001.4 3619.02 2002.84 3618.22Z" fill="#191F28"/>
</g>
<path d="M1935.87 3682.48V3691.93H1941.29V3695.84H1935.87V3705.25H1931.1V3682.48H1935.87ZM1905.11 3701.99C1913.89 3699.58 1919.13 3694.83 1919.95 3689.01H1906.87V3685.14H1925.13C1925.15 3695.35 1918.49 3702.61 1907 3705.86L1905.11 3701.99ZM1910.35 3713.5C1910.3 3708.71 1915.5 3705.73 1923.32 3705.73C1931.21 3705.73 1936.3 3708.71 1936.3 3713.5C1936.3 3718.34 1931.21 3721.3 1923.32 3721.28C1915.5 3721.3 1910.3 3718.34 1910.35 3713.5ZM1915.07 3713.5C1915.05 3716.04 1918.19 3717.54 1923.32 3717.54C1928.44 3717.54 1931.6 3716.04 1931.62 3713.5C1931.6 3710.95 1928.44 3709.46 1923.32 3709.46C1918.19 3709.46 1915.05 3710.95 1915.07 3713.5ZM1965.61 3685.79V3689.7H1957.48C1957.63 3694 1960.79 3698.08 1966.68 3699.8L1964.4 3703.54C1959.98 3702.22 1956.82 3699.52 1955.1 3696.06C1953.38 3699.86 1950.14 3702.8 1945.58 3704.22L1943.13 3700.48C1949.17 3698.68 1952.44 3694.38 1952.63 3689.7H1944.46V3685.79H1965.61ZM1942.79 3709.77C1945.73 3709.77 1949.13 3709.77 1952.67 3709.68V3702.59H1957.44V3709.51C1960.62 3709.36 1963.82 3709.1 1966.81 3708.69L1967.15 3712.13C1958.92 3713.68 1950.05 3713.65 1943.43 3713.68L1942.79 3709.77ZM1969.04 3721.32V3682.48H1973.81V3698.08H1979.44V3702.07H1973.81V3721.32H1969.04ZM2011.93 3682.48V3693.87H2017.34V3697.82H2011.93V3710.88H2007.16V3682.48H2011.93ZM1981.72 3694.86C1981.7 3689.12 1986.29 3685.08 1992.2 3685.06C1998.11 3685.08 2002.64 3689.12 2002.69 3694.86C2002.64 3700.51 1998.11 3704.61 1992.2 3704.61C1986.29 3704.61 1981.7 3700.51 1981.72 3694.86ZM1986.4 3694.86C1986.38 3698.21 1988.96 3700.42 1992.2 3700.4C1995.49 3700.42 1997.98 3698.21 1998 3694.86C1997.98 3691.42 1995.49 3689.23 1992.2 3689.23C1988.96 3689.23 1986.38 3691.42 1986.4 3694.86ZM1987.05 3720.55V3707.92H1991.82V3716.68H2013.47V3720.55H1987.05ZM2052.66 3682.48V3721.32H2048.06V3701.69H2043.77V3719.35H2039.3V3683.21H2043.77V3697.78H2048.06V3682.48H2052.66ZM2020.99 3711.66V3686.95H2025.8V3707.45C2029.16 3707.38 2032.81 3707.08 2036.89 3706.29L2037.36 3710.45C2032.12 3711.38 2027.67 3711.66 2023.57 3711.66H2020.99Z" fill="#191F28"/>
<path d="M1941.76 3749.81C1941.35 3747.86 1939.68 3746.8 1937.81 3746.8C1935.25 3746.8 1933.27 3748.78 1933.26 3752.43C1933.27 3756.07 1935.25 3758.04 1937.81 3758.05C1939.68 3758.04 1941.34 3757 1941.76 3755.07H1943.52C1943.01 3757.96 1940.68 3759.7 1937.81 3759.7C1934.18 3759.7 1931.55 3756.9 1931.56 3752.43C1931.55 3747.96 1934.18 3745.16 1937.81 3745.16C1940.67 3745.16 1942.99 3746.87 1943.52 3749.81H1941.76ZM1955.23 3745.36H1956.99V3754.71C1956.99 3757.62 1954.81 3759.74 1951.48 3759.75C1948.14 3759.74 1945.98 3757.62 1945.98 3754.71V3745.36H1947.73V3754.58C1947.72 3756.63 1949.15 3758.1 1951.48 3758.11C1953.82 3758.1 1955.22 3756.63 1955.23 3754.58V3745.36ZM1960.12 3759.5V3745.36H1961.88V3757.94H1968.44V3759.5H1960.12ZM1968.12 3746.92V3745.36H1978.79V3746.92H1974.36V3759.5H1972.58V3746.92H1968.12ZM1990.39 3745.36H1992.15V3754.71C1992.15 3757.62 1989.97 3759.74 1986.64 3759.75C1983.3 3759.74 1981.13 3757.62 1981.13 3754.71V3745.36H1982.89V3754.58C1982.88 3756.63 1984.31 3758.1 1986.64 3758.11C1988.97 3758.1 1990.38 3756.63 1990.39 3754.58V3745.36ZM1995.27 3759.5V3745.36H2000.08C2003.39 3745.36 2004.9 3747.2 2004.9 3749.71C2004.9 3751.59 2004.06 3753.05 2002.27 3753.68L2005.45 3759.5H2003.4L2000.44 3754C2000.33 3754.01 2000.21 3754.01 2000.1 3754.01H1997.03V3759.5H1995.27ZM1997.03 3752.41H2000.02C2002.28 3752.41 2003.15 3751.39 2003.16 3749.71C2003.15 3748.03 2002.28 3746.92 2000 3746.92H1997.03V3752.41ZM2008.07 3759.5H2006.23L2011.41 3745.36H2013.26L2018.44 3759.5H2016.58L2015.17 3755.52H2009.48L2008.07 3759.5ZM2010.02 3753.97H2014.63L2012.38 3747.64H2012.27L2010.02 3753.97ZM2020.35 3759.5V3745.36H2022.11V3757.94H2028.67V3759.5H2020.35Z" fill="#191F28"/>
<path d="M1920 3792.5C1966.86 3792.5 1993.14 3792.5 2040 3792.5" stroke="#0C152D" stroke-width="7" stroke-linecap="round"/>
</g>
<path d="M197.744 155C197.259 152.281 195.087 150.719 192.337 150.719C188.634 150.719 186.009 153.562 186.025 158.688C186.009 163.891 188.65 166.656 192.337 166.656C195.025 166.656 197.197 165.156 197.744 162.5H201.837C201.212 166.844 197.634 170.312 192.275 170.312C186.306 170.312 181.916 165.984 181.931 158.688C181.916 151.375 186.353 147.062 192.275 147.062C197.275 147.062 201.134 149.969 201.837 155H197.744ZM231.925 158.688C231.941 166 227.472 170.312 221.55 170.312C215.597 170.312 211.159 165.984 211.175 158.688C211.159 151.375 215.597 147.062 221.55 147.062C227.472 147.062 231.941 151.375 231.925 158.688ZM215.269 158.688C215.253 163.859 217.862 166.656 221.55 166.656C225.253 166.656 227.847 163.859 227.831 158.688C227.847 153.516 225.253 150.719 221.55 150.719C217.862 150.719 215.253 153.516 215.269 158.688ZM256.231 147.375H260.325V162.156C260.309 167.016 256.653 170.344 251.137 170.344C245.591 170.344 241.966 167.016 241.95 162.156V147.375H246.012V161.812C246.028 164.672 248.012 166.703 251.137 166.719C254.262 166.703 256.231 164.672 256.231 161.812V147.375ZM270.912 170V147.375H279.412C284.6 147.375 287.366 150.281 287.381 154.594C287.366 157.672 285.959 159.953 283.303 161.031L288.194 170H283.662L279.225 161.719H274.975V170H270.912ZM274.975 158.312H278.787C281.85 158.328 283.225 157.016 283.225 154.594C283.225 152.188 281.85 150.781 278.787 150.781H274.975V158.312ZM309.594 153.594C309.391 151.641 307.75 150.516 305.312 150.531C302.734 150.516 301.203 151.766 301.187 153.469C301.172 155.375 303.187 156.156 305.062 156.594L307.187 157.156C310.562 157.938 313.812 159.719 313.812 163.656C313.812 167.625 310.672 170.344 305.25 170.344C299.984 170.344 296.641 167.812 296.469 163.344H300.469C300.656 165.703 302.641 166.859 305.219 166.875C307.891 166.859 309.734 165.562 309.75 163.625C309.734 161.844 308.109 161.094 305.656 160.469L303.094 159.812C299.375 158.844 297.062 156.969 297.062 153.719C297.062 149.719 300.609 147.062 305.375 147.062C310.172 147.062 313.437 149.766 313.5 153.594H309.594ZM323.587 170V147.375H338.306V150.781H327.65V156.969H337.525V160.375H327.65V166.562H338.369V170H323.587ZM362.606 170V147.375H371.106C376.294 147.375 379.059 150.281 379.075 154.594C379.059 157.672 377.653 159.953 374.997 161.031L379.887 170H375.356L370.919 161.719H366.669V170H362.606ZM366.669 158.312H370.481C373.544 158.328 374.919 157.016 374.919 154.594C374.919 152.188 373.544 150.781 370.481 150.781H366.669V158.312ZM388.975 170V147.375H403.694V150.781H393.037V156.969H402.912V160.375H393.037V166.562H403.756V170H388.975ZM429.156 154.594C428.422 152.188 426.562 150.719 423.812 150.719C420.172 150.719 417.516 153.562 417.531 158.656C417.516 163.797 420.125 166.656 423.906 166.656C427.328 166.656 429.5 164.594 429.562 161.375H424.312V158.156H433.5V160.875C433.5 166.703 429.5 170.312 423.906 170.312C417.656 170.312 413.422 165.859 413.438 158.688C413.422 151.422 417.859 147.062 423.781 147.062C428.766 147.062 432.625 150.156 433.312 154.594H429.156ZM447.65 147.375V170H443.587V147.375H447.65ZM470.581 153.594C470.378 151.641 468.737 150.516 466.3 150.531C463.722 150.516 462.191 151.766 462.175 153.469C462.159 155.375 464.175 156.156 466.05 156.594L468.175 157.156C471.55 157.938 474.8 159.719 474.8 163.656C474.8 167.625 471.659 170.344 466.237 170.344C460.972 170.344 457.628 167.812 457.456 163.344H461.456C461.644 165.703 463.628 166.859 466.206 166.875C468.878 166.859 470.722 165.562 470.737 163.625C470.722 161.844 469.097 161.094 466.644 160.469L464.081 159.812C460.362 158.844 458.05 156.969 458.05 153.719C458.05 149.719 461.597 147.062 466.362 147.062C471.159 147.062 474.425 149.766 474.487 153.594H470.581ZM483.575 150.781V147.375H501.606V150.781H494.637V170H490.575V150.781H483.575ZM511.194 170V147.375H519.694C524.881 147.375 527.647 150.281 527.663 154.594C527.647 157.672 526.241 159.953 523.584 161.031L528.475 170H523.944L519.506 161.719H515.256V170H511.194ZM515.256 158.312H519.069C522.131 158.328 523.506 157.016 523.506 154.594C523.506 152.188 522.131 150.781 519.069 150.781H515.256V158.312ZM540.438 170H536.094L544.062 147.375H549.062L557.062 170H552.719L550.828 164.406H542.312L540.438 170ZM543.406 161.125H549.734L546.656 152H546.469L543.406 161.125ZM562.4 150.781V147.375H580.431V150.781H573.462V170H569.4V150.781H562.4ZM594.081 147.375V170H590.019V147.375H594.081ZM624.887 158.688C624.903 166 620.434 170.312 614.512 170.312C608.559 170.312 604.122 165.984 604.137 158.688C604.122 151.375 608.559 147.062 614.512 147.062C620.434 147.062 624.903 151.375 624.887 158.688ZM608.231 158.688C608.216 163.859 610.825 166.656 614.512 166.656C618.216 166.656 620.809 163.859 620.794 158.688C620.809 153.516 618.216 150.719 614.512 150.719C610.825 150.719 608.216 153.516 608.231 158.688ZM653.506 147.375V170H649.881L639.163 154.531H638.975V170H634.913V147.375H638.6L649.256 162.844H649.475V147.375H653.506Z" fill="#ADB5BD"/>
<path d="M247.23 208.777V228.543H258.551V236.719H247.23V256.395H237.258V208.777H247.23ZM182.902 249.566C201.275 244.535 212.236 234.607 213.943 222.434H186.586V214.348H224.77C224.814 235.686 210.889 250.869 186.855 257.652L182.902 249.566ZM193.863 273.645C193.773 263.627 204.645 257.383 220.996 257.383C237.482 257.383 248.129 263.627 248.129 273.645C248.129 283.752 237.482 289.951 220.996 289.906C204.645 289.951 193.773 283.752 193.863 273.645ZM203.746 273.645C203.701 278.945 210.26 282.09 220.996 282.09C231.688 282.09 238.291 278.945 238.336 273.645C238.291 268.299 231.688 265.199 220.996 265.199C210.26 265.199 203.701 268.299 203.746 273.645ZM309.402 215.695V223.871H292.422C292.736 232.855 299.34 241.391 311.648 244.984L306.887 252.801C297.633 250.061 291.029 244.4 287.436 237.168C283.842 245.119 277.059 251.273 267.535 254.238L262.414 246.422C275.037 242.648 281.865 233.664 282.27 223.871H265.199V215.695H309.402ZM261.695 265.828C267.85 265.828 274.947 265.828 282.359 265.648V250.824H292.332V265.289C298.98 264.975 305.674 264.436 311.918 263.582L312.637 270.77C295.432 274.004 276.879 273.959 263.043 274.004L261.695 265.828ZM316.59 289.996V208.777H326.562V241.391H338.332V249.746H326.562V289.996H316.59ZM409.848 208.867V268.164H399.785V208.867H409.848ZM342.285 249.027C355.447 244.4 362.186 232.945 362.141 221.266V213.359H372.473V221.266C372.428 232.586 379.076 243.277 391.969 247.59L386.848 255.496C377.594 252.262 370.99 245.793 367.396 237.482C363.803 246.377 357.064 253.475 347.496 256.934L342.285 249.027ZM356.121 288.379V262.504H366.184V280.293H412.094V288.379H356.121ZM450.906 226.117C450.861 235.012 457.824 243.771 470.582 247.23L465.91 254.957C456.566 252.396 449.828 246.961 446.1 239.908C442.551 247.859 435.812 254.148 426.109 257.023L421.438 249.297C434.15 245.434 440.934 235.91 440.934 226.117V225.668H423.953V217.762H440.934V208.418H450.996V217.762H467.887V225.668H450.906V226.117ZM434.645 274.633C434.555 264.975 445.156 259.539 462.227 259.539C479.387 259.539 489.943 264.975 489.988 274.633C489.943 284.291 479.387 289.906 462.227 289.906C445.156 289.906 434.555 284.291 434.645 274.633ZM444.527 274.633C444.482 279.439 450.951 282.18 462.227 282.18C473.727 282.18 480.016 279.439 480.016 274.633C480.016 269.781 473.727 267.221 462.227 267.176C450.951 267.221 444.482 269.781 444.527 274.633ZM465.461 239.145V231.059H479.746V208.777H489.719V257.922H479.746V239.145H465.461Z" fill="#191F28"/>
</g>
<defs>
<filter id="filter0_d_4347_12916" x="-40" y="-50" width="2260" height="3940" filterUnits="userSpaceOnUse" color-interpolation-filters="sRGB">
<feFlood flood-opacity="0" result="BackgroundImageFix"/>
<feColorMatrix in="SourceAlpha" type="matrix" values="0 0 0 0 0 0 0 0 0 0 0 0 0 0 0 0 0 0 127 0" result="hardAlpha"/>
<feOffset dx="10"/>
<feGaussianBlur stdDeviation="25"/>
<feComposite in2="hardAlpha" operator="out"/>
<feColorMatrix type="matrix" values="0 0 0 0 0 0 0 0 0 0 0 0 0 0 0 0 0 0 0.3 0"/>
<feBlend mode="multiply" in2="BackgroundImageFix" result="effect1_dropShadow_4347_12916"/>
<feBlend mode="normal" in="SourceGraphic" in2="effect1_dropShadow_4347_12916" result="shape"/>
</filter>
<filter id="filter1_d_4347_12916" x="-40" y="3478" width="2240" height="400" filterUnits="userSpaceOnUse" color-interpolation-filters="sRGB">
<feFlood flood-opacity="0" result="BackgroundImageFix"/>
<feColorMatrix in="SourceAlpha" type="matrix" values="0 0 0 0 0 0 0 0 0 0 0 0 0 0 0 0 0 0 127 0" result="hardAlpha"/>
<feOffset dy="-2"/>
<feGaussianBlur stdDeviation="20"/>
<feComposite in2="hardAlpha" operator="out"/>
<feColorMatrix type="matrix" values="0 0 0 0 0 0 0 0 0 0 0 0 0 0 0 0 0 0 0.1 0"/>
<feBlend mode="normal" in2="BackgroundImageFix" result="effect1_dropShadow_4347_12916"/>
<feBlend mode="normal" in="SourceGraphic" in2="effect1_dropShadow_4347_12916" result="shape"/>
</filter>
<linearGradient id="paint0_linear_4347_12916" x1="325.5" y1="-5.42612e-07" x2="885" y2="3840" gradientUnits="userSpaceOnUse">
<stop stop-color="#35498F"/>
<stop offset="1" stop-color="#4F3E81"/>
</linearGradient>
<linearGradient id="paint1_linear_4347_12916" x1="325.5" y1="-5.42612e-07" x2="885" y2="3840" gradientUnits="userSpaceOnUse">
<stop stop-color="#4162D4"/>
<stop offset="1" stop-color="#5E4CCF"/>
</linearGradient>
<linearGradient id="paint2_linear_4347_12916" x1="325.5" y1="-1.59841e-05" x2="848.5" y2="3549.5" gradientUnits="userSpaceOnUse">
<stop stop-color="#2244BF"/>
<stop offset="1" stop-color="#664BA0"/>
</linearGradient>
<linearGradient id="paint3_linear_4347_12916" x1="65.5001" y1="26" x2="601" y2="4379" gradientUnits="userSpaceOnUse">
<stop stop-color="#F4EAE2"/>
<stop offset="1" stop-color="#D4E4E8"/>
</linearGradient>
<linearGradient id="paint4_linear_4347_12916" x1="1080" y1="0" x2="1080" y2="3540" gradientUnits="userSpaceOnUse">
<stop stop-color="#ECE3DB"/>
<stop offset="1" stop-color="#ECE7E4"/>
</linearGradient>
<linearGradient id="paint5_linear_4347_12916" x1="97" y1="8.90077e-06" x2="1696.36" y2="3563.35" gradientUnits="userSpaceOnUse">
<stop stop-color="#EDE3DA"/>
<stop offset="1" stop-color="#D9D0C9"/>
</linearGradient>
<clipPath id="clip0_4347_12916">
<rect width="2160" height="3840" fill="white"/>
</clipPath>
<clipPath id="clip1_4347_12916">
<rect width="96" height="96" fill="white" transform="translate(132 3581.5)"/>
</clipPath>
<clipPath id="clip2_4347_12916">
<rect width="96" height="96" fill="white" transform="translate(492 3581.5)"/>
</clipPath>
<clipPath id="clip3_4347_12916">
<rect width="96" height="96" fill="white" transform="translate(852 3581.5)"/>
</clipPath>
<clipPath id="clip4_4347_12916">
<rect width="96" height="96" fill="white" transform="translate(1932 3567.5)"/>
</clipPath>
</defs>
</svg>
