<svg width="3840" height="2160" viewBox="0 0 3840 2160" fill="none" xmlns="http://www.w3.org/2000/svg">
<g clip-path="url(#clip0_2498_7300)">
<rect width="3840" height="2160" fill="#F5F0EE"/>
<rect x="320" width="1760" height="900" fill="url(#paint0_linear_2498_7300)"/>
<path d="M502.431 130V107.375H511.088C515.994 107.375 518.416 109.875 518.431 113.25C518.416 116 516.681 117.531 514.463 118.062V118.281C516.869 118.406 519.306 120.406 519.306 123.844C519.306 127.359 516.759 130 511.588 130H502.431ZM506.494 126.594H510.963C513.931 126.594 515.166 125.328 515.181 123.531C515.166 121.5 513.588 119.953 511.056 119.938H506.494V126.594ZM506.494 117H510.588C512.728 117 514.353 115.766 514.369 113.75C514.353 112.016 513.103 110.75 510.681 110.75H506.494V117ZM529.019 130V107.375H543.738V110.781H533.081V116.969H542.956V120.375H533.081V126.562H543.8V130H529.019ZM566.356 113.594C566.153 111.641 564.513 110.516 562.075 110.531C559.497 110.516 557.966 111.766 557.95 113.469C557.934 115.375 559.95 116.156 561.825 116.594L563.95 117.156C567.325 117.938 570.575 119.719 570.575 123.656C570.575 127.625 567.434 130.344 562.013 130.344C556.747 130.344 553.403 127.812 553.231 123.344H557.231C557.419 125.703 559.403 126.859 561.981 126.875C564.653 126.859 566.497 125.562 566.513 123.625C566.497 121.844 564.872 121.094 562.419 120.469L559.856 119.812C556.138 118.844 553.825 116.969 553.825 113.719C553.825 109.719 557.372 107.062 562.138 107.062C566.934 107.062 570.2 109.766 570.263 113.594H566.356ZM579.35 110.781V107.375H597.381V110.781H590.412V130H586.35V110.781H579.35ZM620.963 130V107.375H629.619C634.525 107.375 636.947 109.875 636.963 113.25C636.947 116 635.213 117.531 632.994 118.062V118.281C635.4 118.406 637.838 120.406 637.838 123.844C637.838 127.359 635.291 130 630.119 130H620.963ZM625.025 126.594H629.494C632.463 126.594 633.697 125.328 633.713 123.531C633.697 121.5 632.119 119.953 629.588 119.938H625.025V126.594ZM625.025 117H629.119C631.259 117 632.884 115.766 632.9 113.75C632.884 112.016 631.634 110.75 629.213 110.75H625.025V117ZM667.737 118.688C667.753 126 663.284 130.312 657.362 130.312C651.409 130.312 646.972 125.984 646.987 118.688C646.972 111.375 651.409 107.062 657.362 107.062C663.284 107.062 667.753 111.375 667.737 118.688ZM651.081 118.688C651.066 123.859 653.675 126.656 657.362 126.656C661.066 126.656 663.659 123.859 663.644 118.688C663.659 113.516 661.066 110.719 657.362 110.719C653.675 110.719 651.066 113.516 651.081 118.688ZM697.95 118.688C697.966 126 693.497 130.312 687.575 130.312C681.622 130.312 677.184 125.984 677.2 118.688C677.184 111.375 681.622 107.062 687.575 107.062C693.497 107.062 697.966 111.375 697.95 118.688ZM681.294 118.688C681.278 123.859 683.888 126.656 687.575 126.656C691.278 126.656 693.872 123.859 693.856 118.688C693.872 113.516 691.278 110.719 687.575 110.719C683.888 110.719 681.278 113.516 681.294 118.688ZM707.975 130V107.375H712.038V117.781H712.35L721.194 107.375H726.163L717.413 117.531L726.256 130H721.35L714.569 120.281L712.038 123.25V130H707.975Z" fill="#ADB5BD"/>
<path d="M572.814 168.777V249.996H563.291V208.578H554.127V245.863H544.963V170.305H554.127V200.582H563.291V168.777H572.814ZM505.432 231.039V178.391H535.799V186.477H515.494V222.594C524.299 222.504 531.576 222.055 539.842 220.527L540.561 228.703C530.723 230.68 522.232 230.949 510.912 231.039H505.432ZM656.279 203.906V211.273H624.295V217.203H647.205V236.25H601.025V241.82H649.451V249.277H591.232V229.422H637.412V224.391H591.143V217.203H614.412V211.273H582.607V203.906H656.279ZM585.842 193.754C601.879 192.945 611.312 188.633 613.379 182.883H589.705V175.426H614.412V168.598H624.295V175.426H649.182V182.883H625.328C627.305 188.633 636.738 192.945 652.955 193.754L649.99 201.211C635.391 200.312 624.475 196.359 619.354 189.801C614.232 196.359 603.361 200.312 588.627 201.211L585.842 193.754ZM673.889 176.414V195.551H687.275V176.414H696.35V198.785H705.783V170.305H715.307V246.223H705.783V207.051H696.35V230.32H664.455V176.414H673.889ZM673.889 222.145H687.275V203.547H673.889V222.145ZM722.404 249.996V168.777H732.018V249.996H722.404ZM783.408 179.918C783.408 192.451 795.672 205.074 812.697 208.039L808.205 216.395C794.594 213.564 783.453 205.299 778.152 194.383C772.807 205.209 761.666 213.52 748.1 216.395L743.697 208.039C760.453 204.984 772.762 192.406 772.807 179.918V173.898H783.408V179.918ZM741.451 239.664V231.398H815.662V239.664H741.451ZM886.998 211.363V219.27H830.037V175.156H886.279V183.242H840.189V193.035H884.393V200.852H840.189V211.363H886.998ZM820.963 240.113V231.938H895.174V240.113H820.963Z" fill="white"/>
<g filter="url(#filter0_d_2498_7300)">
<rect width="320" height="2160" fill="white"/>
<g clip-path="url(#clip1_2498_7300)">
<path d="M160 169.5C164.4 169.5 168 165.9 168 161.5H152C152 165.9 155.6 169.5 160 169.5ZM184 145.5V125.5C184 113.22 177.48 102.94 166 100.22V97.5C166 94.18 163.32 91.5 160 91.5C156.68 91.5 154 94.18 154 97.5V100.22C142.56 102.94 136 113.18 136 125.5V145.5L128 153.5V157.5H192V153.5L184 145.5ZM176 149.5H144V125.5C144 115.58 150.04 107.5 160 107.5C169.96 107.5 176 115.58 176 125.5V149.5Z" fill="#ADB5BD"/>
</g>
<path d="M102.723 220.844C111.059 220.844 116.322 223.486 116.344 227.977C116.322 232.445 111.059 235.088 102.723 235.066C94.4727 235.088 89.1875 232.445 89.1875 227.977C89.1875 223.486 94.4727 220.844 102.723 220.844ZM85.4062 217.664V214.355H99.457V207.137H103.453V214.355H120.426V217.664H85.4062ZM89.4883 201.809V198.543H116.043V201.766C116.064 204.838 116.064 208.018 114.969 211.992L110.973 211.562C112.004 207.631 112.004 204.795 112.004 201.809H89.4883ZM93.2695 227.977C93.2266 230.469 96.9004 231.908 102.723 231.93C108.609 231.908 112.262 230.469 112.305 227.977C112.262 225.441 108.609 223.959 102.723 223.938C96.9004 223.959 93.2266 225.441 93.2695 227.977ZM137.57 207.996C137.549 214.441 141.781 221.102 147.711 223.637L145.477 226.816C140.943 224.818 137.334 220.564 135.551 215.43C133.768 220.93 130.158 225.613 125.668 227.805L123.305 224.582C129.105 221.854 133.402 214.635 133.445 207.996V203.914H124.637V200.52H146.336V203.914H137.57V207.996ZM151.191 235.152V196.652H155.273V235.152H151.191ZM174.781 206.449C174.738 213.26 178.713 220.242 184.449 223.035L181.914 226.301C177.725 224.109 174.48 219.812 172.783 214.678C171.064 220.135 167.691 224.754 163.309 227.031L160.773 223.723C166.682 220.887 170.678 213.496 170.699 206.449V199.875H174.781V206.449ZM187.328 235.152V196.652H191.41V211.992H197.598V215.473H191.41V235.152H187.328ZM229.695 196.652V207.094H235.281V210.531H229.695V221.359H225.613V196.652H229.695ZM199.488 204V200.777H208.941V196.352H213.023V200.777H222.434V204H199.488ZM201.594 212.637C201.572 208.49 205.354 205.783 210.961 205.762C216.504 205.783 220.285 208.49 220.285 212.637C220.285 216.762 216.504 219.447 210.961 219.426C205.354 219.447 201.572 216.762 201.594 212.637ZM204.645 228.406C204.602 224.152 209.457 221.66 217.406 221.66C225.248 221.66 230.125 224.152 230.125 228.406C230.125 232.596 225.248 235.088 217.406 235.066C209.457 235.088 204.602 232.596 204.645 228.406ZM205.547 212.637C205.504 214.914 207.695 216.332 210.961 216.332C214.227 216.332 216.418 214.914 216.461 212.637C216.418 210.295 214.227 208.812 210.961 208.812C207.695 208.812 205.504 210.295 205.547 212.637ZM208.684 228.406C208.662 230.662 211.863 231.973 217.406 231.973C222.863 231.973 226.064 230.662 226.086 228.406C226.064 226.064 222.863 224.818 217.406 224.797C211.863 224.818 208.662 226.064 208.684 228.406Z" fill="#ADB5BD"/>
<path d="M137.48 259.359V273.5H135.801L128.145 262.484H128.008V273.5H126.25V259.359H127.949L135.605 270.395H135.742V259.359H137.48ZM152.559 266.43C152.568 270.902 149.932 273.695 146.309 273.695C142.676 273.695 140.049 270.902 140.059 266.43C140.049 261.957 142.676 259.164 146.309 259.164C149.932 259.164 152.568 261.957 152.559 266.43ZM141.758 266.43C141.768 270.072 143.75 272.045 146.309 272.055C148.867 272.045 150.85 270.072 150.859 266.43C150.85 262.777 148.867 260.805 146.309 260.805C143.75 260.805 141.768 262.777 141.758 266.43ZM153.77 260.922V259.359H164.434V260.922H160V273.5H158.223V260.922H153.77ZM168.535 259.359V273.5H166.777V259.359H168.535ZM181.309 263.812C180.898 261.859 179.229 260.805 177.363 260.805C174.805 260.805 172.822 262.777 172.812 266.43C172.822 270.072 174.805 272.045 177.363 272.055C179.229 272.045 180.889 271 181.309 269.066H183.066C182.559 271.957 180.234 273.695 177.363 273.695C173.73 273.695 171.104 270.902 171.113 266.43C171.104 261.957 173.73 259.164 177.363 259.164C180.225 259.164 182.539 260.873 183.066 263.812H181.309ZM185.527 273.5V259.359H194.102V260.922H187.285V265.648H193.652V267.191H187.285V271.938H194.199V273.5H185.527Z" fill="#6B7684"/>
<g clip-path="url(#clip2_2498_7300)">
<path d="M141.579 485.958H134.211V511.858H141.579V485.958ZM163.684 485.958H156.316V511.858H163.684V485.958ZM195 519.258H125V526.658H195V519.258ZM185.789 485.958H178.421V511.858H185.789V485.958ZM160 461.02L179.195 471.158H140.805L160 461.02ZM160 452.658L125 471.158V478.558H195V471.158L160 452.658Z" fill="#ADB5BD"/>
</g>
<path d="M117.246 556.652V595.238H113.164V556.652H117.246ZM86.6953 573.023C86.6953 564.795 90.8418 559.553 96.6641 559.531C102.379 559.553 106.59 564.795 106.59 573.023C106.59 581.338 102.379 586.58 96.6641 586.559C90.8418 586.58 86.6953 581.338 86.6953 573.023ZM90.6484 573.023C90.627 579.146 93.0762 582.906 96.6641 582.906C100.188 582.906 102.637 579.146 102.637 573.023C102.637 566.986 100.188 563.205 96.6641 563.184C93.0762 563.205 90.627 566.986 90.6484 573.023ZM158.496 575.43V578.738H123.391V575.43H131.812V570.252C128.826 569.049 127.15 567.115 127.172 564.559C127.15 559.982 132.457 557.318 140.922 557.34C149.365 557.318 154.65 559.982 154.672 564.559C154.65 567.115 152.975 569.049 149.988 570.273V575.43H158.496ZM127.559 588.191C127.559 583.787 132.543 581.359 140.922 581.359C149.193 581.359 154.178 583.787 154.199 588.191C154.178 592.639 149.193 595.066 140.922 595.066C132.543 595.066 127.559 592.639 127.559 588.191ZM131.383 564.559C131.361 567.137 134.928 568.576 140.922 568.598C146.873 568.576 150.482 567.137 150.461 564.559C150.482 561.98 146.873 560.498 140.922 560.477C134.928 560.498 131.361 561.98 131.383 564.559ZM131.684 588.191C131.662 590.598 135.035 591.973 140.922 591.93C146.723 591.973 150.117 590.598 150.117 588.191C150.117 585.828 146.723 584.496 140.922 584.496C135.035 584.496 131.662 585.828 131.684 588.191ZM135.938 575.43H145.949V571.326C144.445 571.562 142.748 571.691 140.922 571.691C139.117 571.691 137.441 571.562 135.938 571.348V575.43ZM191.668 556.609V568.125H197.254V571.562H191.668V584.926H187.586V556.609H191.668ZM162.02 568.855C161.977 563.248 166.445 559.295 172.246 559.273C178.068 559.295 182.473 563.248 182.516 568.855C182.473 574.463 178.068 578.459 172.246 578.438C166.445 578.459 161.977 574.463 162.02 568.855ZM166.016 568.855C165.973 572.443 168.723 574.871 172.246 574.871C175.812 574.871 178.498 572.443 178.52 568.855C178.498 565.268 175.812 562.84 172.246 562.84C168.723 562.84 165.973 565.268 166.016 568.855ZM167.262 594.336V581.961H171.344V591.027H193.301V594.336H167.262ZM232.402 556.652V595.152H228.492V575.43H223.551V593.176H219.727V557.426H223.551V572.078H228.492V556.652H232.402ZM201.25 585.355V561.207H205.332V581.768C208.877 581.725 212.766 581.445 217.148 580.586L217.578 584.152C212.293 585.098 207.889 585.377 203.742 585.355H201.25Z" fill="#ADB5BD"/>
<path d="M97.6367 619.359V633.5H95.8789V619.359H97.6367ZM111.992 619.359V633.5H110.312L102.656 622.484H102.52V633.5H100.762V619.359H102.461L110.117 630.395H110.254V619.359H111.992ZM115.117 633.5V619.359H123.633V620.922H116.875V625.648H122.988V627.191H116.875V633.5H115.117ZM138.203 626.43C138.213 630.902 135.576 633.695 131.953 633.695C128.32 633.695 125.693 630.902 125.703 626.43C125.693 621.957 128.32 619.164 131.953 619.164C135.576 619.164 138.213 621.957 138.203 626.43ZM127.402 626.43C127.412 630.072 129.395 632.045 131.953 632.055C134.512 632.045 136.494 630.072 136.504 626.43C136.494 622.777 134.512 620.805 131.953 620.805C129.395 620.805 127.412 622.777 127.402 626.43ZM140.781 633.5V619.359H145.586C148.896 619.359 150.41 621.195 150.41 623.715C150.41 625.59 149.57 627.055 147.773 627.68L150.957 633.5H148.906L145.947 628.002C145.84 628.012 145.723 628.012 145.605 628.012H142.539V633.5H140.781ZM142.539 626.41H145.527C147.783 626.41 148.662 625.395 148.672 623.715C148.662 622.025 147.783 620.922 145.508 620.922H142.539V626.41ZM152.949 619.359H155.059L159.824 631H160L164.766 619.359H166.875V633.5H165.215V622.816H165.078L160.684 633.5H159.121L154.727 622.816H154.609V633.5H152.949V619.359ZM170.625 633.5H168.789L173.965 619.359H175.82L180.996 633.5H179.141L177.725 629.516H172.041L170.625 633.5ZM172.578 627.973H177.188L174.941 621.645H174.824L172.578 627.973ZM180.469 620.922V619.359H191.133V620.922H186.699V633.5H184.922V620.922H180.469ZM195.234 619.359V633.5H193.477V619.359H195.234ZM210.312 626.43C210.322 630.902 207.686 633.695 204.062 633.695C200.43 633.695 197.803 630.902 197.812 626.43C197.803 621.957 200.43 619.164 204.062 619.164C207.686 619.164 210.322 621.957 210.312 626.43ZM199.512 626.43C199.521 630.072 201.504 632.045 204.062 632.055C206.621 632.045 208.604 630.072 208.613 626.43C208.604 622.777 206.621 620.805 204.062 620.805C201.504 620.805 199.521 622.777 199.512 626.43ZM224.121 619.359V633.5H222.441L214.785 622.484H214.648V633.5H212.891V619.359H214.59L222.246 630.395H222.383V619.359H224.121Z" fill="#ADB5BD"/>
<g clip-path="url(#clip3_2498_7300)">
<path d="M160 809.5C144.52 809.5 132 822.02 132 837.5C132 858.5 160 889.5 160 889.5C160 889.5 188 858.5 188 837.5C188 822.02 175.48 809.5 160 809.5ZM140 837.5C140 826.46 148.96 817.5 160 817.5C171.04 817.5 180 826.46 180 837.5C180 849.02 168.48 866.26 160 877.02C151.68 866.34 140 848.9 140 837.5Z" fill="#ADB5BD"/>
<path d="M160 847.5C165.523 847.5 170 843.023 170 837.5C170 831.977 165.523 827.5 160 827.5C154.477 827.5 150 831.977 150 837.5C150 843.023 154.477 847.5 160 847.5Z" fill="#ADB5BD"/>
</g>
<path d="M99.5 926.449C99.457 933.475 103.711 940.564 109.684 943.207L107.234 946.43C102.809 944.324 99.3066 940.006 97.502 934.742C95.7188 940.393 92.1738 945.033 87.5547 947.289L85.0625 943.852C91.1211 941.166 95.375 933.797 95.375 926.449V919.875H99.5V926.449ZM113.164 955.238V916.652H117.246V955.238H113.164ZM155.488 916.652V936.461H151.406V926.578H143.285V923.27H151.406V916.652H155.488ZM123.262 933.367C129.277 931.455 132.865 926.664 132.887 921.25V917.898H136.926V921.25C136.926 926.148 140.449 930.703 146.25 932.551L144.102 935.73C139.869 934.27 136.668 931.369 134.971 927.695C133.295 931.842 130.008 935.064 125.453 936.633L123.262 933.367ZM130.309 941.488V938.266H155.488V947.848H134.391V951.414H156.82V954.68H130.395V944.754H151.449V941.488H130.309ZM191.668 916.609V928.125H197.254V931.562H191.668V944.926H187.586V916.609H191.668ZM162.02 928.855C161.977 923.248 166.445 919.295 172.246 919.273C178.068 919.295 182.473 923.248 182.516 928.855C182.473 934.463 178.068 938.459 172.246 938.438C166.445 938.459 161.977 934.463 162.02 928.855ZM166.016 928.855C165.973 932.443 168.723 934.871 172.246 934.871C175.812 934.871 178.498 932.443 178.52 928.855C178.498 925.268 175.812 922.84 172.246 922.84C168.723 922.84 165.973 925.268 166.016 928.855ZM167.262 954.336V941.961H171.344V951.027H193.301V954.336H167.262ZM232.402 916.652V955.152H228.492V935.43H223.551V953.176H219.727V917.426H223.551V932.078H228.492V916.652H232.402ZM201.25 945.355V921.207H205.332V941.768C208.877 941.725 212.766 941.445 217.148 940.586L217.578 944.152C212.293 945.098 207.889 945.377 203.742 945.355H201.25Z" fill="#ADB5BD"/>
<path d="M121.162 993.5V979.359H129.678V980.922H122.92V985.648H129.033V987.191H122.92V993.5H121.162ZM131.143 993.5H129.307L134.482 979.359H136.338L141.514 993.5H139.658L138.242 989.516H132.559L131.143 993.5ZM133.096 987.973H137.705L135.459 981.645H135.342L133.096 987.973ZM152.412 983.812C152.002 981.859 150.332 980.805 148.467 980.805C145.908 980.805 143.926 982.777 143.916 986.43C143.926 990.072 145.908 992.045 148.467 992.055C150.332 992.045 151.992 991 152.412 989.066H154.17C153.662 991.957 151.338 993.695 148.467 993.695C144.834 993.695 142.207 990.902 142.217 986.43C142.207 981.957 144.834 979.164 148.467 979.164C151.328 979.164 153.643 980.873 154.17 983.812H152.412ZM158.389 979.359V993.5H156.631V979.359H158.389ZM161.514 993.5V979.359H163.271V991.938H169.834V993.5H161.514ZM173.936 979.359V993.5H172.178V979.359H173.936ZM176.279 980.922V979.359H186.943V980.922H182.51V993.5H180.732V980.922H176.279ZM188.076 979.359H190.088L193.975 985.922H194.15L198.037 979.359H200.068L194.951 987.699V993.5H193.174V987.699L188.076 979.359Z" fill="#ADB5BD"/>
<path d="M196.68 1169.74C193.813 1169.25 190.91 1168.99 188 1168.98C178.074 1168.97 168.354 1171.82 160 1177.18C151.625 1171.89 141.907 1169.11 132 1169.18C129.091 1169.19 126.188 1169.45 123.32 1169.94C122.381 1170.1 121.531 1170.59 120.922 1171.33C120.313 1172.06 119.986 1172.99 120 1173.94V1221.94C119.992 1222.53 120.113 1223.11 120.355 1223.65C120.597 1224.18 120.954 1224.66 121.401 1225.04C121.848 1225.42 122.373 1225.7 122.94 1225.86C123.507 1226.01 124.101 1226.04 124.68 1225.94C130.412 1224.95 136.285 1225.11 141.953 1226.42C147.62 1227.74 152.968 1230.17 157.68 1233.58L158.16 1233.86H158.6C159.044 1234.04 159.52 1234.14 160 1234.14C160.481 1234.14 160.957 1234.04 161.4 1233.86H161.84L162.32 1233.58C167 1230.09 172.332 1227.58 178.001 1226.19C183.669 1224.81 189.559 1224.57 195.32 1225.5C195.9 1225.6 196.494 1225.57 197.061 1225.42C197.627 1225.26 198.153 1224.98 198.6 1224.6C199.046 1224.22 199.404 1223.74 199.646 1223.21C199.888 1222.67 200.009 1222.09 200 1221.5V1173.5C199.959 1172.59 199.607 1171.72 199.003 1171.03C198.399 1170.35 197.58 1169.89 196.68 1169.74ZM156 1222.9C148.6 1219.01 140.362 1216.97 132 1216.98C130.68 1216.98 129.36 1216.98 128 1216.98V1176.98C129.333 1176.9 130.668 1176.9 132 1176.98C140.534 1176.97 148.881 1179.47 156 1184.18V1222.9ZM192 1217.14C190.64 1217.14 189.32 1217.14 188 1217.14C179.638 1217.13 171.401 1219.17 164 1223.06V1184.18C171.119 1179.47 179.467 1176.97 188 1176.98C189.333 1176.9 190.668 1176.9 192 1176.98V1217.14ZM196.68 1233.74C193.813 1233.25 190.91 1232.99 188 1232.98C178.074 1232.97 168.354 1235.82 160 1241.18C151.646 1235.82 141.927 1232.97 132 1232.98C129.091 1232.99 126.188 1233.25 123.32 1233.74C122.8 1233.82 122.3 1234.01 121.851 1234.28C121.402 1234.56 121.012 1234.92 120.704 1235.35C120.395 1235.78 120.174 1236.26 120.054 1236.77C119.933 1237.29 119.915 1237.82 120 1238.34C120.204 1239.38 120.81 1240.29 121.688 1240.89C122.565 1241.48 123.641 1241.7 124.68 1241.5C130.412 1240.51 136.285 1240.67 141.953 1241.98C147.62 1243.3 152.968 1245.73 157.68 1249.14C158.358 1249.62 159.169 1249.88 160 1249.88C160.832 1249.88 161.643 1249.62 162.32 1249.14C167.033 1245.73 172.381 1243.3 178.048 1241.98C183.716 1240.67 189.588 1240.51 195.32 1241.5C196.36 1241.7 197.436 1241.48 198.313 1240.89C199.19 1240.29 199.797 1239.38 200 1238.34C200.086 1237.82 200.068 1237.29 199.947 1236.77C199.826 1236.26 199.605 1235.78 199.297 1235.35C198.988 1234.92 198.598 1234.56 198.149 1234.28C197.7 1234.01 197.201 1233.82 196.68 1233.74Z" fill="#ADB5BD"/>
<path d="M117.59 1276.52V1304.88H112.777V1276.52H117.59ZM85.2773 1295.73C91.5723 1293.52 94.7949 1288.04 94.7734 1282.45V1278.67H99.7148V1282.45C99.6934 1287.87 102.873 1292.98 109.039 1295.04L106.59 1298.82C102.164 1297.28 99.0059 1294.18 97.2871 1290.21C95.5684 1294.46 92.3457 1297.86 87.7695 1299.51L85.2773 1295.73ZM91.8945 1314.55V1302.18H96.707V1310.68H118.664V1314.55H91.8945ZM137.227 1284.9C137.205 1289.16 140.363 1293.41 146.508 1295.09L144.273 1298.91C139.826 1297.62 136.646 1294.94 134.885 1291.54C133.188 1295.26 129.965 1298.18 125.41 1299.55L123.09 1295.82C129.213 1294.05 132.457 1289.54 132.457 1284.9V1284.6H124.336V1280.82H132.457V1276.35H137.27V1280.82H145.348V1284.6H137.227V1284.9ZM128.031 1305.83V1302H153.898V1315.37H149.129V1305.83H128.031ZM149.129 1300.24V1276.48H153.898V1286.32H159.312V1290.36H153.898V1300.24H149.129ZM192.828 1294.14V1297.92H181.312V1306.82H196.781V1310.73H161.289V1306.82H176.586V1297.92H165.586V1279.36H192.527V1283.18H170.355V1294.14H192.828ZM213.668 1285.8C213.646 1293.02 217.105 1300.11 223.293 1302.82L220.414 1306.64C216.031 1304.5 212.938 1300.37 211.283 1295.28C209.586 1300.65 206.406 1305.12 201.938 1307.38L198.93 1303.51C205.268 1300.54 208.791 1293.07 208.812 1285.8V1279.62H213.668V1285.8ZM218.996 1292.89V1289.03H227.16V1276.48H231.887V1315.37H227.16V1292.89H218.996Z" fill="#ADB5BD"/>
<path d="M68.0176 1339.36V1353.5H66.3379L58.6816 1342.48H58.5449V1353.5H56.7871V1339.36H58.4863L66.1426 1350.39H66.2793V1339.36H68.0176ZM71.1426 1353.5V1339.36H79.7168V1340.92H72.9004V1345.65H79.2676V1347.19H72.9004V1351.94H79.8145V1353.5H71.1426ZM85.1074 1353.5L81.2402 1339.36H83.0176L85.9668 1350.8H86.1035L89.0918 1339.36H91.0645L94.0723 1350.8H94.1895L97.1387 1339.36H98.916L95.0488 1353.5H93.2324L90.1465 1342.31H90.0293L86.9238 1353.5H85.1074ZM106.436 1353.5H104.6L109.775 1339.36H111.631L116.807 1353.5H114.951L113.535 1349.52H107.852L106.436 1353.5ZM108.389 1347.97H112.998L110.752 1341.64H110.635L108.389 1347.97ZM118.721 1353.5V1339.36H123.525C126.836 1339.36 128.35 1341.2 128.35 1343.71C128.35 1345.59 127.51 1347.05 125.713 1347.68L128.896 1353.5H126.846L123.887 1348C123.779 1348.01 123.662 1348.01 123.545 1348.01H120.479V1353.5H118.721ZM120.479 1346.41H123.467C125.723 1346.41 126.602 1345.39 126.611 1343.71C126.602 1342.03 125.723 1340.92 123.447 1340.92H120.479V1346.41ZM130.889 1353.5V1339.36H135.693C139.004 1339.36 140.518 1341.2 140.518 1343.71C140.518 1345.59 139.678 1347.05 137.881 1347.68L141.064 1353.5H139.014L136.055 1348C135.947 1348.01 135.83 1348.01 135.713 1348.01H132.646V1353.5H130.889ZM132.646 1346.41H135.635C137.891 1346.41 138.77 1345.39 138.779 1343.71C138.77 1342.03 137.891 1340.92 135.615 1340.92H132.646V1346.41ZM144.814 1339.36V1353.5H143.057V1339.36H144.814ZM148.584 1339.36L152.744 1351.21H152.9L157.08 1339.36H158.936L153.76 1353.5H151.904L146.729 1339.36H148.584ZM160.225 1353.5H158.389L163.564 1339.36H165.42L170.596 1353.5H168.74L167.324 1349.52H161.641L160.225 1353.5ZM162.178 1347.97H166.787L164.541 1341.64H164.424L162.178 1347.97ZM172.51 1353.5V1339.36H174.268V1351.94H180.83V1353.5H172.51ZM190.889 1342.91C190.742 1341.53 189.453 1340.73 187.764 1340.73C185.889 1340.73 184.668 1341.7 184.658 1343.05C184.668 1344.54 186.318 1345.09 187.393 1345.36L188.799 1345.75C190.312 1346.14 192.803 1347.01 192.803 1349.65C192.803 1351.96 190.947 1353.74 187.666 1353.75C184.619 1353.74 182.734 1352.17 182.568 1349.83H184.365C184.512 1351.41 185.986 1352.16 187.666 1352.15C189.619 1352.16 191.084 1351.16 191.084 1349.61C191.084 1348.24 189.775 1347.71 188.291 1347.29L186.553 1346.82C184.336 1346.18 182.949 1345.04 182.959 1343.13C182.949 1340.74 185.078 1339.16 187.822 1339.16C190.566 1339.16 192.539 1340.77 192.607 1342.91H190.889ZM200.342 1353.5V1339.36H205.303C208.271 1339.36 209.668 1341.03 209.658 1343.11C209.668 1344.93 208.584 1345.74 207.354 1346.08V1346.21C208.672 1346.29 210.215 1347.5 210.225 1349.75C210.215 1351.87 208.818 1353.5 205.479 1353.5H200.342ZM202.1 1351.94H205.459C207.676 1351.94 208.535 1350.96 208.525 1349.73C208.535 1348.29 207.373 1347.07 205.557 1347.07H202.1V1351.94ZM202.1 1345.55H205.244C206.777 1345.56 207.979 1344.6 207.979 1343.13C207.979 1341.9 207.148 1340.92 205.303 1340.92H202.1V1345.55ZM224.678 1346.43C224.688 1350.9 222.051 1353.7 218.428 1353.7C214.795 1353.7 212.168 1350.9 212.178 1346.43C212.168 1341.96 214.795 1339.16 218.428 1339.16C222.051 1339.16 224.688 1341.96 224.678 1346.43ZM213.877 1346.43C213.887 1350.07 215.869 1352.04 218.428 1352.05C220.986 1352.04 222.969 1350.07 222.979 1346.43C222.969 1342.78 220.986 1340.8 218.428 1340.8C215.869 1340.8 213.887 1342.78 213.877 1346.43ZM239.209 1346.43C239.219 1350.9 236.582 1353.7 232.959 1353.7C229.326 1353.7 226.699 1350.9 226.709 1346.43C226.699 1341.96 229.326 1339.16 232.959 1339.16C236.582 1339.16 239.219 1341.96 239.209 1346.43ZM228.408 1346.43C228.418 1350.07 230.4 1352.04 232.959 1352.05C235.518 1352.04 237.5 1350.07 237.51 1346.43C237.5 1342.78 235.518 1340.8 232.959 1340.8C230.4 1340.8 228.418 1342.78 228.408 1346.43ZM241.787 1353.5V1339.36H243.545V1346.35H243.721L250.01 1339.36H252.314L246.396 1345.75L252.314 1353.5H250.166L245.303 1346.96L243.545 1348.95V1353.5H241.787ZM261.904 1342.91C261.758 1341.53 260.469 1340.73 258.779 1340.73C256.904 1340.73 255.684 1341.7 255.674 1343.05C255.684 1344.54 257.334 1345.09 258.408 1345.36L259.814 1345.75C261.328 1346.14 263.818 1347.01 263.818 1349.65C263.818 1351.96 261.963 1353.74 258.682 1353.75C255.635 1353.74 253.75 1352.17 253.584 1349.83H255.381C255.527 1351.41 257.002 1352.16 258.682 1352.15C260.635 1352.16 262.1 1351.16 262.1 1349.61C262.1 1348.24 260.791 1347.71 259.307 1347.29L257.568 1346.82C255.352 1346.18 253.965 1345.04 253.975 1343.13C253.965 1340.74 256.094 1339.16 258.838 1339.16C261.582 1339.16 263.555 1340.77 263.623 1342.91H261.904Z" fill="#ADB5BD"/>
<path d="M196 1523.5H184V1519.5C184 1518.44 183.579 1517.42 182.828 1516.67C182.078 1515.92 181.061 1515.5 180 1515.5H140C138.939 1515.5 137.922 1515.92 137.172 1516.67C136.421 1517.42 136 1518.44 136 1519.5V1523.5H124C122.939 1523.5 121.922 1523.92 121.172 1524.67C120.421 1525.42 120 1526.44 120 1527.5V1539.5C120 1543.74 121.686 1547.81 124.686 1550.81C127.687 1553.81 131.757 1555.5 136 1555.5H142.16C145.778 1559.54 150.656 1562.23 156 1563.14V1571.5H152C148.817 1571.5 145.765 1572.76 143.515 1575.01C141.264 1577.27 140 1580.32 140 1583.5V1591.5C140 1592.56 140.421 1593.58 141.172 1594.33C141.922 1595.08 142.939 1595.5 144 1595.5H176C177.061 1595.5 178.078 1595.08 178.828 1594.33C179.579 1593.58 180 1592.56 180 1591.5V1583.5C180 1580.32 178.736 1577.27 176.485 1575.01C174.235 1572.76 171.183 1571.5 168 1571.5H164V1563.14C169.344 1562.23 174.222 1559.54 177.84 1555.5H184C188.243 1555.5 192.313 1553.81 195.314 1550.81C198.314 1547.81 200 1543.74 200 1539.5V1527.5C200 1526.44 199.579 1525.42 198.828 1524.67C198.078 1523.92 197.061 1523.5 196 1523.5ZM136 1547.5C133.878 1547.5 131.843 1546.66 130.343 1545.16C128.843 1543.66 128 1541.62 128 1539.5V1531.5H136V1539.5C136.009 1542.23 136.482 1544.93 137.4 1547.5H136ZM168 1579.5C169.061 1579.5 170.078 1579.92 170.828 1580.67C171.579 1581.42 172 1582.44 172 1583.5V1587.5H148V1583.5C148 1582.44 148.421 1581.42 149.172 1580.67C149.922 1579.92 150.939 1579.5 152 1579.5H168ZM176 1539.5C176 1543.74 174.314 1547.81 171.314 1550.81C168.313 1553.81 164.243 1555.5 160 1555.5C155.757 1555.5 151.687 1553.81 148.686 1550.81C145.686 1547.81 144 1543.74 144 1539.5V1523.5H176V1539.5ZM192 1539.5C192 1541.62 191.157 1543.66 189.657 1545.16C188.157 1546.66 186.122 1547.5 184 1547.5H182.6C183.518 1544.93 183.991 1542.23 184 1539.5V1531.5H192V1539.5Z" fill="#191F28"/>
<path d="M99.6504 1622.48V1661.32H95.0957V1641.52H90.7129V1659.35H86.3301V1623.21H90.7129V1637.69H95.0957V1622.48H99.6504ZM67.4238 1652.26V1627.08H81.9473V1630.95H72.2363V1648.22C76.4473 1648.18 79.9277 1647.96 83.8809 1647.23L84.2246 1651.14C79.5195 1652.09 75.459 1652.21 70.0449 1652.26H67.4238ZM139.568 1639.28V1642.8H124.271V1645.64H135.229V1654.75H113.143V1657.41H136.303V1660.98H108.459V1651.48H130.545V1649.08H108.416V1645.64H119.545V1642.8H104.334V1639.28H139.568ZM105.881 1634.43C113.551 1634.04 118.062 1631.98 119.051 1629.23H107.729V1625.66H119.545V1622.39H124.271V1625.66H136.174V1629.23H124.766C125.711 1631.98 130.223 1634.04 137.979 1634.43L136.561 1637.99C129.578 1637.56 124.357 1635.67 121.908 1632.54C119.459 1635.67 114.26 1637.56 107.213 1637.99L105.881 1634.43ZM147.99 1626.13V1635.29H154.393V1626.13H158.732V1636.83H163.244V1623.21H167.799V1659.52H163.244V1640.79H158.732V1651.91H143.479V1626.13H147.99ZM147.99 1648H154.393V1639.11H147.99V1648ZM171.193 1661.32V1622.48H175.791V1661.32H171.193ZM200.369 1627.81C200.369 1633.8 206.234 1639.84 214.377 1641.26L212.229 1645.25C205.719 1643.9 200.391 1639.95 197.855 1634.73C195.299 1639.9 189.971 1643.88 183.482 1645.25L181.377 1641.26C189.391 1639.8 195.277 1633.78 195.299 1627.81V1624.93H200.369V1627.81ZM180.303 1656.38V1652.43H215.795V1656.38H180.303ZM249.912 1642.85V1646.63H222.67V1625.53H249.568V1629.4H227.525V1634.08H248.666V1637.82H227.525V1642.85H249.912ZM218.33 1656.6V1652.69H253.822V1656.6H218.33Z" fill="#191F28"/>
<path d="M69.5508 1699.5V1685.36H74.5117C77.4805 1685.36 78.877 1687.03 78.8672 1689.11C78.877 1690.93 77.793 1691.74 76.5625 1692.08V1692.21C77.8809 1692.29 79.4238 1693.5 79.4336 1695.75C79.4238 1697.87 78.0273 1699.5 74.6875 1699.5H69.5508ZM71.3086 1697.94H74.668C76.8848 1697.94 77.7441 1696.96 77.7344 1695.73C77.7441 1694.29 76.582 1693.07 74.7656 1693.07H71.3086V1697.94ZM71.3086 1691.55H74.4531C75.9863 1691.56 77.1875 1690.6 77.1875 1689.13C77.1875 1687.9 76.3574 1686.92 74.5117 1686.92H71.3086V1691.55ZM81.9336 1699.5V1685.36H90.5078V1686.92H83.6914V1691.65H90.0586V1693.19H83.6914V1697.94H90.6055V1699.5H81.9336ZM100.996 1688.91C100.85 1687.53 99.5605 1686.73 97.8711 1686.73C95.9961 1686.73 94.7754 1687.7 94.7656 1689.05C94.7754 1690.54 96.4258 1691.09 97.5 1691.36L98.9062 1691.75C100.42 1692.14 102.91 1693.01 102.91 1695.65C102.91 1697.96 101.055 1699.74 97.7734 1699.75C94.7266 1699.74 92.8418 1698.17 92.6758 1695.83H94.4727C94.6191 1697.41 96.0938 1698.16 97.7734 1698.15C99.7266 1698.16 101.191 1697.16 101.191 1695.61C101.191 1694.24 99.8828 1693.71 98.3984 1693.29L96.6602 1692.82C94.4434 1692.18 93.0566 1691.04 93.0664 1689.13C93.0566 1686.74 95.1855 1685.16 97.9297 1685.16C100.674 1685.16 102.646 1686.77 102.715 1688.91H100.996ZM104.648 1686.92V1685.36H115.312V1686.92H110.879V1699.5H109.102V1686.92H104.648ZM122.676 1699.5V1685.36H127.48C130.791 1685.36 132.305 1687.2 132.305 1689.71C132.305 1691.59 131.465 1693.05 129.668 1693.68L132.852 1699.5H130.801L127.842 1694C127.734 1694.01 127.617 1694.01 127.5 1694.01H124.434V1699.5H122.676ZM124.434 1692.41H127.422C129.678 1692.41 130.557 1691.39 130.566 1689.71C130.557 1688.03 129.678 1686.92 127.402 1686.92H124.434V1692.41ZM134.844 1699.5V1685.36H143.418V1686.92H136.602V1691.65H142.969V1693.19H136.602V1697.94H143.516V1699.5H134.844ZM157.422 1685.36V1699.5H155.742L148.086 1688.48H147.949V1699.5H146.191V1685.36H147.891L155.547 1696.39H155.684V1685.36H157.422ZM159.766 1686.92V1685.36H170.43V1686.92H165.996V1699.5H164.219V1686.92H159.766ZM171.738 1699.5H169.902L175.078 1685.36H176.934L182.109 1699.5H180.254L178.838 1695.52H173.154L171.738 1699.5ZM173.691 1693.97H178.301L176.055 1687.64H175.938L173.691 1693.97ZM184.023 1699.5V1685.36H185.781V1697.94H192.344V1699.5H184.023ZM199.707 1699.5V1685.36H204.668C207.637 1685.36 209.033 1687.03 209.023 1689.11C209.033 1690.93 207.949 1691.74 206.719 1692.08V1692.21C208.037 1692.29 209.58 1693.5 209.59 1695.75C209.58 1697.87 208.184 1699.5 204.844 1699.5H199.707ZM201.465 1697.94H204.824C207.041 1697.94 207.9 1696.96 207.891 1695.73C207.9 1694.29 206.738 1693.07 204.922 1693.07H201.465V1697.94ZM201.465 1691.55H204.609C206.143 1691.56 207.344 1690.6 207.344 1689.13C207.344 1687.9 206.514 1686.92 204.668 1686.92H201.465V1691.55ZM224.043 1692.43C224.053 1696.9 221.416 1699.7 217.793 1699.7C214.16 1699.7 211.533 1696.9 211.543 1692.43C211.533 1687.96 214.16 1685.16 217.793 1685.16C221.416 1685.16 224.053 1687.96 224.043 1692.43ZM213.242 1692.43C213.252 1696.07 215.234 1698.04 217.793 1698.05C220.352 1698.04 222.334 1696.07 222.344 1692.43C222.334 1688.78 220.352 1686.8 217.793 1686.8C215.234 1686.8 213.252 1688.78 213.242 1692.43ZM238.574 1692.43C238.584 1696.9 235.947 1699.7 232.324 1699.7C228.691 1699.7 226.064 1696.9 226.074 1692.43C226.064 1687.96 228.691 1685.16 232.324 1685.16C235.947 1685.16 238.584 1687.96 238.574 1692.43ZM227.773 1692.43C227.783 1696.07 229.766 1698.04 232.324 1698.05C234.883 1698.04 236.865 1696.07 236.875 1692.43C236.865 1688.78 234.883 1686.8 232.324 1686.8C229.766 1686.8 227.783 1688.78 227.773 1692.43ZM241.152 1699.5V1685.36H242.91V1692.35H243.086L249.375 1685.36H251.68L245.762 1691.75L251.68 1699.5H249.531L244.668 1692.96L242.91 1694.95V1699.5H241.152Z" fill="#191F28"/>
<path d="M100 1732.5C146.863 1732.5 173.137 1732.5 220 1732.5" stroke="#191F28" stroke-width="7" stroke-linecap="round"/>
<g clip-path="url(#clip4_2498_7300)">
<path d="M148 1929.5C155.72 1929.5 162 1923.22 162 1915.5C162 1907.78 155.72 1901.5 148 1901.5C140.28 1901.5 134 1907.78 134 1915.5C134 1923.22 140.28 1929.5 148 1929.5ZM148 1909.5C151.32 1909.5 154 1912.18 154 1915.5C154 1918.82 151.32 1921.5 148 1921.5C144.68 1921.5 142 1918.82 142 1915.5C142 1912.18 144.68 1909.5 148 1909.5ZM148.2 1949.5H131.08C135.04 1947.5 141.88 1945.5 148 1945.5C148.44 1945.5 148.92 1945.54 149.36 1945.54C150.72 1942.62 153.08 1940.22 155.92 1938.3C153 1937.78 150.24 1937.5 148 1937.5C138.64 1937.5 120 1942.18 120 1951.5V1957.5H148V1951.5C148 1950.82 148.08 1950.14 148.2 1949.5ZM178 1939.5C170.64 1939.5 156 1943.54 156 1951.5V1957.5H200V1951.5C200 1943.54 185.36 1939.5 178 1939.5ZM182.84 1932.22C185.88 1930.5 188 1927.26 188 1923.5C188 1917.98 183.52 1913.5 178 1913.5C172.48 1913.5 168 1917.98 168 1923.5C168 1927.26 170.12 1930.5 173.16 1932.22C174.6 1933.02 176.24 1933.5 178 1933.5C179.76 1933.5 181.4 1933.02 182.84 1932.22Z" fill="#ADB5BD"/>
</g>
<path d="M115.613 1996.65V2006.36H121.199V2009.67H115.613V2019.51H111.531V1996.65H115.613ZM85.3203 2016.5C94.3438 2013.97 99.8652 2008.94 100.617 2002.71H87.0391V1999.4H105.043C105.043 2009.35 98.2754 2016.55 86.9961 2019.81L85.3203 2016.5ZM90.5625 2027.5C90.5195 2022.82 95.5898 2019.92 103.324 2019.94C111.08 2019.92 116.043 2022.82 116.043 2027.5C116.043 2032.23 111.08 2035.09 103.324 2035.11C95.5898 2035.09 90.5195 2032.23 90.5625 2027.5ZM94.6016 2027.5C94.5801 2030.21 97.9316 2031.87 103.324 2031.89C108.674 2031.87 112.047 2030.21 112.047 2027.5C112.047 2024.8 108.674 2023.14 103.324 2023.16C97.9316 2023.14 94.5801 2024.8 94.6016 2027.5ZM137.184 2003.48C137.184 2008.17 140.75 2012.42 146.551 2014.14L144.617 2017.36C140.17 2016.01 136.883 2013.2 135.186 2009.54C133.467 2013.52 130.051 2016.57 125.496 2018.01L123.434 2014.83C129.385 2013 133.037 2008.53 133.059 2003.48V2003.44H124.68V2000.05H145.562V2003.44H137.184V2003.48ZM122.918 2023.94C125.926 2023.94 129.449 2023.96 133.102 2023.85V2016.42H137.184V2023.72C140.514 2023.55 143.887 2023.29 147.023 2022.86L147.324 2025.83C139.074 2027.33 130.137 2027.31 123.52 2027.33L122.918 2023.94ZM149.344 2035.15V1996.65H153.426V2012.38H159.355V2015.82H153.426V2035.15H149.344ZM191.668 1996.61V2008.12H197.254V2011.56H191.668V2024.93H187.586V1996.61H191.668ZM162.02 2008.86C161.977 2003.25 166.445 1999.29 172.246 1999.27C178.068 1999.29 182.473 2003.25 182.516 2008.86C182.473 2014.46 178.068 2018.46 172.246 2018.44C166.445 2018.46 161.977 2014.46 162.02 2008.86ZM166.016 2008.86C165.973 2012.44 168.723 2014.87 172.246 2014.87C175.812 2014.87 178.498 2012.44 178.52 2008.86C178.498 2005.27 175.812 2002.84 172.246 2002.84C168.723 2002.84 165.973 2005.27 166.016 2008.86ZM167.262 2034.34V2021.96H171.344V2031.03H193.301V2034.34H167.262ZM232.402 1996.65V2035.15H228.492V2015.43H223.551V2033.18H219.727V1997.43H223.551V2012.08H228.492V1996.65H232.402ZM201.25 2025.36V2001.21H205.332V2021.77C208.877 2021.72 212.766 2021.45 217.148 2020.59L217.578 2024.15C212.293 2025.1 207.889 2025.38 203.742 2025.36H201.25Z" fill="#ADB5BD"/>
<path d="M121.758 2063.81C121.348 2061.86 119.678 2060.8 117.812 2060.8C115.254 2060.8 113.271 2062.78 113.262 2066.43C113.271 2070.07 115.254 2072.04 117.812 2072.05C119.678 2072.04 121.338 2071 121.758 2069.07H123.516C123.008 2071.96 120.684 2073.7 117.812 2073.7C114.18 2073.7 111.553 2070.9 111.562 2066.43C111.553 2061.96 114.18 2059.16 117.812 2059.16C120.674 2059.16 122.988 2060.87 123.516 2063.81H121.758ZM135.234 2059.36H136.992V2068.71C136.992 2071.62 134.814 2073.74 131.484 2073.75C128.145 2073.74 125.977 2071.62 125.977 2068.71V2059.36H127.734V2068.58C127.725 2070.63 129.15 2072.1 131.484 2072.11C133.818 2072.1 135.225 2070.63 135.234 2068.58V2059.36ZM140.117 2073.5V2059.36H141.875V2071.94H148.438V2073.5H140.117ZM148.125 2060.92V2059.36H158.789V2060.92H154.355V2073.5H152.578V2060.92H148.125ZM170.391 2059.36H172.148V2068.71C172.148 2071.62 169.971 2073.74 166.641 2073.75C163.301 2073.74 161.133 2071.62 161.133 2068.71V2059.36H162.891V2068.58C162.881 2070.63 164.307 2072.1 166.641 2072.11C168.975 2072.1 170.381 2070.63 170.391 2068.58V2059.36ZM175.273 2073.5V2059.36H180.078C183.389 2059.36 184.902 2061.2 184.902 2063.71C184.902 2065.59 184.062 2067.05 182.266 2067.68L185.449 2073.5H183.398L180.439 2068C180.332 2068.01 180.215 2068.01 180.098 2068.01H177.031V2073.5H175.273ZM177.031 2066.41H180.02C182.275 2066.41 183.154 2065.39 183.164 2063.71C183.154 2062.03 182.275 2060.92 180 2060.92H177.031V2066.41ZM188.066 2073.5H186.23L191.406 2059.36H193.262L198.438 2073.5H196.582L195.166 2069.52H189.482L188.066 2073.5ZM190.02 2067.97H194.629L192.383 2061.64H192.266L190.02 2067.97ZM200.352 2073.5V2059.36H202.109V2071.94H208.672V2073.5H200.352Z" fill="#ADB5BD"/>
</g>
</g>
<defs>
<filter id="filter0_d_2498_7300" x="-38" y="-40" width="400" height="2240" filterUnits="userSpaceOnUse" color-interpolation-filters="sRGB">
<feFlood flood-opacity="0" result="BackgroundImageFix"/>
<feColorMatrix in="SourceAlpha" type="matrix" values="0 0 0 0 0 0 0 0 0 0 0 0 0 0 0 0 0 0 127 0" result="hardAlpha"/>
<feOffset dx="2"/>
<feGaussianBlur stdDeviation="20"/>
<feComposite in2="hardAlpha" operator="out"/>
<feColorMatrix type="matrix" values="0 0 0 0 0 0 0 0 0 0 0 0 0 0 0 0 0 0 0.1 0"/>
<feBlend mode="normal" in2="BackgroundImageFix" result="effect1_dropShadow_2498_7300"/>
<feBlend mode="normal" in="SourceGraphic" in2="effect1_dropShadow_2498_7300" result="shape"/>
</filter>
<linearGradient id="paint0_linear_2498_7300" x1="641.5" y1="-54.4737" x2="900.967" y2="1032.55" gradientUnits="userSpaceOnUse">
<stop stop-color="#B3071A"/>
<stop offset="1" stop-color="#8D121F"/>
</linearGradient>
<clipPath id="clip0_2498_7300">
<rect width="3840" height="2160" fill="white"/>
</clipPath>
<clipPath id="clip1_2498_7300">
<rect width="96" height="96" fill="white" transform="translate(112 81.5)"/>
</clipPath>
<clipPath id="clip2_2498_7300">
<rect width="96" height="96" fill="white" transform="translate(112 441.5)"/>
</clipPath>
<clipPath id="clip3_2498_7300">
<rect width="96" height="96" fill="white" transform="translate(112 801.5)"/>
</clipPath>
<clipPath id="clip4_2498_7300">
<rect width="96" height="96" fill="white" transform="translate(112 1881.5)"/>
</clipPath>
</defs>
</svg>
