<svg width="381" height="676" viewBox="0 0 381 676" fill="none" xmlns="http://www.w3.org/2000/svg">
<g clip-path="url(#clip0_5406_5047)">
<g filter="url(#filter0_b_5406_5047)">
<path d="M0.71875 0.324219H380.447V675.396H0.71875V0.324219Z" fill="#F5F0EE"/>
</g>
<rect x="0.71875" y="0.324219" width="379.728" height="386.76" fill="url(#paint0_linear_5406_5047)"/>
<path d="M36.0294 29.9375H35.3921L33.5078 27.2181H33.4748V29.9375H32.7606V25.96H33.4089L35.2823 28.6794H35.3207V25.96H36.0294V29.9375ZM41.4396 27.9488C41.4396 28.3681 41.3609 28.7316 41.2034 29.0393C41.0478 29.3469 40.8308 29.5832 40.5524 29.748C40.2759 29.9109 39.9637 29.9924 39.6157 29.9924C39.266 29.9924 38.9528 29.9109 38.6763 29.748C38.3998 29.5832 38.1828 29.3469 38.0253 29.0393C37.8696 28.7298 37.7918 28.3663 37.7918 27.9488C37.7918 27.5294 37.8696 27.1659 38.0253 26.8583C38.1828 26.5488 38.3998 26.3125 38.6763 26.1496C38.9528 25.9866 39.266 25.9051 39.6157 25.9051C39.9637 25.9051 40.2759 25.9875 40.5524 26.1523C40.8308 26.3153 41.0478 26.5506 41.2034 26.8583C41.3609 27.1659 41.4396 27.5294 41.4396 27.9488ZM38.5115 27.9488C38.5115 28.2454 38.5573 28.4991 38.6488 28.7096C38.7422 28.9202 38.8722 29.0796 39.0389 29.1876C39.2055 29.2956 39.3978 29.3497 39.6157 29.3497C39.8355 29.3497 40.0278 29.2956 40.1926 29.1876C40.3592 29.0796 40.4883 28.9202 40.5799 28.7096C40.6733 28.4991 40.72 28.2454 40.72 27.9488C40.72 27.6521 40.6733 27.3985 40.5799 27.1879C40.4883 26.9773 40.3592 26.818 40.1926 26.7099C40.0278 26.6019 39.8355 26.5479 39.6157 26.5479C39.3978 26.5479 39.2055 26.6019 39.0389 26.7099C38.8722 26.818 38.7422 26.9773 38.6488 27.1879C38.5573 27.3985 38.5115 27.6521 38.5115 27.9488ZM42.8504 25.96H46.0203V26.5588H44.7952V29.9375H44.081V26.5588H42.8504V25.96ZM48.42 29.9375H47.7058V25.96H48.42V29.9375ZM52.9677 27.3005C52.9403 27.1448 52.8817 27.0102 52.7919 26.8967C52.704 26.7832 52.5932 26.6971 52.4596 26.6385C52.3259 26.5781 52.1785 26.5479 52.0173 26.5479C51.7994 26.5479 51.6062 26.6028 51.4377 26.7127C51.2711 26.8207 51.1411 26.98 51.0477 27.1906C50.9543 27.4012 50.9076 27.6539 50.9076 27.9488C50.9076 28.2473 50.9543 28.5018 51.0477 28.7124C51.1411 28.9212 51.2711 29.0796 51.4377 29.1876C51.6062 29.2956 51.7994 29.3497 52.0173 29.3497C52.1748 29.3497 52.3195 29.3213 52.4513 29.2645C52.585 29.2059 52.6967 29.1217 52.7864 29.0118C52.8762 28.9019 52.9366 28.771 52.9677 28.619H53.6874C53.6508 28.8754 53.5583 29.1079 53.41 29.3167C53.2616 29.5255 53.0666 29.6903 52.8249 29.8111C52.585 29.932 52.3121 29.9924 52.0063 29.9924C51.6547 29.9924 51.3407 29.9109 51.0641 29.748C50.7895 29.5832 50.5743 29.3469 50.4186 29.0393C50.2648 28.7298 50.1879 28.3663 50.1879 27.9488C50.1879 27.5294 50.2657 27.1659 50.4214 26.8583C50.5789 26.5506 50.795 26.3153 51.0696 26.1523C51.3462 25.9875 51.6584 25.9051 52.0063 25.9051C52.2993 25.9051 52.5658 25.9609 52.8057 26.0726C53.0456 26.1825 53.2424 26.3428 53.3962 26.5534C53.5501 26.7621 53.6471 27.0112 53.6874 27.3005H52.9677ZM55.4278 25.96H58.0154V26.5588H56.142V27.6466H57.878V28.2454H56.142V29.3332H58.0264V29.9375H55.4278V25.96Z" fill="#ADB5BD"/>
<path d="M36.8647 42.1748C37.5377 42.1748 38.1214 42.2452 38.6159 42.386C39.1137 42.5233 39.4966 42.7242 39.7644 42.9886C40.0356 43.2495 40.1713 43.562 40.1713 43.9259C40.1713 44.283 40.0356 44.5903 39.7644 44.8479C39.4966 45.1088 39.1137 45.308 38.6159 45.4453C38.1214 45.5861 37.5377 45.6565 36.8647 45.6565C36.1986 45.6565 35.6166 45.5861 35.1187 45.4453C34.6243 45.308 34.2415 45.1088 33.9702 44.8479C33.7024 44.5903 33.5685 44.283 33.5685 43.9259C33.5685 43.562 33.7024 43.2495 33.9702 42.9886C34.2415 42.7242 34.6243 42.5233 35.1187 42.386C35.6166 42.2452 36.1986 42.1748 36.8647 42.1748ZM32.6929 40.5782H35.9686V38.8889H37.1016V40.5782H41.1395V41.5053H32.6929V40.5782ZM33.6612 36.7978H40.1095V37.5704V37.8433C40.1095 38.2451 40.0923 38.6176 40.058 38.961C40.0271 39.3043 39.9584 39.6648 39.8519 40.0425L38.7189 39.9395C38.8219 39.5344 38.8888 39.1653 38.9197 38.8322C38.9506 38.4991 38.9661 38.1232 38.9661 37.7043H33.6612V36.7978ZM34.7222 43.9259C34.7187 44.1972 34.9041 44.4066 35.2784 44.5543C35.6561 44.6985 36.1849 44.7706 36.8647 44.7706C37.5446 44.7706 38.0751 44.6985 38.4562 44.5543C38.8408 44.4066 39.0348 44.1972 39.0382 43.9259C39.0348 43.6444 38.8408 43.4263 38.4562 43.2718C38.0751 43.1173 37.5446 43.0401 36.8647 43.0401C36.1883 43.0401 35.6612 43.1173 35.2836 43.2718C34.9059 43.4263 34.7187 43.6444 34.7222 43.9259ZM45.3011 39.0022C45.3011 39.5138 45.3972 40.0202 45.5895 40.5215C45.7852 41.0194 46.0633 41.4675 46.4238 41.8658C46.7878 42.2606 47.2136 42.5594 47.7011 42.7619L47.0728 43.6684C46.5337 43.4349 46.065 43.0899 45.6667 42.6332C45.2684 42.1731 44.9594 41.6392 44.7397 41.0314C44.5199 41.6838 44.2092 42.2606 43.8074 42.7619C43.4057 43.2633 42.9387 43.6409 42.4065 43.895L41.7473 42.9989C42.2246 42.7791 42.6435 42.4564 43.004 42.0306C43.3645 41.6048 43.6426 41.1258 43.8384 40.5936C44.0341 40.0614 44.1336 39.5309 44.1371 39.0022V38.2193H42.0872V37.2716H47.3406V38.2193H45.3011V39.0022ZM48.381 36.3549H49.5347V45.6668H48.381V36.3549ZM54.2318 38.5901C54.2284 39.1498 54.316 39.6958 54.4945 40.228C54.6765 40.7602 54.9374 41.2374 55.2774 41.6598C55.6207 42.0787 56.0276 42.4014 56.498 42.628L55.7976 43.5448C55.3031 43.2942 54.8739 42.9371 54.51 42.4735C54.1494 42.01 53.8679 41.4744 53.6653 40.8666C53.4558 41.5156 53.1606 42.089 52.7794 42.5868C52.4017 43.0813 51.9519 43.459 51.43 43.7199L50.7296 42.8032C51.2137 42.5731 51.6326 42.2383 51.9863 41.7988C52.3434 41.3559 52.6146 40.8563 52.8 40.3001C52.9889 39.7404 53.085 39.1704 53.0885 38.5901V37.1068H54.2318V38.5901ZM57.0543 36.3549H58.1976V40.0013H59.6294V40.9799H58.1976V45.6668H57.0543V36.3549ZM67.3653 38.8064H68.6632V39.7644H67.3653V42.2984H66.2219V36.3549H67.3653V38.8064ZM60.0312 37.3025H62.2252V36.2931H63.3686V37.3025H65.5524V38.1987H60.0312V37.3025ZM60.505 40.2383C60.505 39.9086 60.6012 39.6185 60.7934 39.3678C60.9857 39.1172 61.2535 38.9215 61.5969 38.7807C61.9437 38.6399 62.342 38.5695 62.7918 38.5695C63.2347 38.5695 63.6279 38.6399 63.9712 38.7807C64.318 38.9215 64.5876 39.1172 64.7798 39.3678C64.9721 39.6185 65.0683 39.9086 65.0683 40.2383C65.0683 40.5679 64.9721 40.858 64.7798 41.1087C64.5876 41.3593 64.318 41.5533 63.9712 41.6907C63.6279 41.828 63.2347 41.8967 62.7918 41.8967C62.342 41.8967 61.9437 41.828 61.5969 41.6907C61.2535 41.5533 60.9857 41.3593 60.7934 41.1087C60.6012 40.858 60.505 40.5679 60.505 40.2383ZM61.2467 44.0186C61.2432 43.6753 61.3651 43.3817 61.6123 43.1379C61.863 42.8907 62.2218 42.7036 62.6888 42.5765C63.1592 42.4461 63.7154 42.3808 64.3575 42.3808C64.9927 42.3808 65.5438 42.4461 66.0108 42.5765C66.4777 42.7036 66.8366 42.8907 67.0872 43.1379C67.3413 43.3851 67.4683 43.6787 67.4683 44.0186C67.4683 44.3586 67.3413 44.6504 67.0872 44.8942C66.8366 45.1414 66.4777 45.3303 66.0108 45.4608C65.5438 45.5912 64.9927 45.6565 64.3575 45.6565C63.7154 45.6565 63.1592 45.5912 62.6888 45.4608C62.2218 45.3303 61.863 45.1414 61.6123 44.8942C61.3651 44.6504 61.2432 44.3586 61.2467 44.0186ZM61.6175 40.2383C61.6141 40.4855 61.7171 40.6795 61.9265 40.8203C62.136 40.961 62.4175 41.0314 62.7712 41.0314C63.1386 41.0314 63.4304 40.9627 63.6468 40.8254C63.8665 40.6846 63.9764 40.4889 63.9764 40.2383C63.9764 39.9842 63.8682 39.7833 63.6519 39.6357C63.4356 39.488 63.1489 39.4142 62.7918 39.4142C62.4347 39.4142 62.148 39.488 61.9317 39.6357C61.7188 39.7833 61.6141 39.9842 61.6175 40.2383ZM62.3798 44.0186C62.3763 44.2659 62.5463 44.4564 62.8896 44.5903C63.233 44.7242 63.7223 44.7912 64.3575 44.7912C64.9859 44.7912 65.47 44.7242 65.8099 44.5903C66.1498 44.4564 66.3215 44.2659 66.325 44.0186C66.3215 43.768 66.1516 43.5791 65.8151 43.4521C65.4786 43.3216 64.9927 43.2564 64.3575 43.2564C63.7154 43.2564 63.2244 43.3216 62.8845 43.4521C62.5446 43.5791 62.3763 43.768 62.3798 44.0186Z" fill="white"/>
</g>
<defs>
<filter id="filter0_b_5406_5047" x="-1.03925" y="-1.43378" width="383.243" height="678.586" filterUnits="userSpaceOnUse" color-interpolation-filters="sRGB">
<feFlood flood-opacity="0" result="BackgroundImageFix"/>
<feGaussianBlur in="BackgroundImageFix" stdDeviation="0.879"/>
<feComposite in2="SourceAlpha" operator="in" result="effect1_backgroundBlur_5406_5047"/>
<feBlend mode="normal" in="SourceGraphic" in2="effect1_backgroundBlur_5406_5047" result="shape"/>
</filter>
<linearGradient id="paint0_linear_5406_5047" x1="57.7658" y1="0.324219" x2="257.925" y2="348.354" gradientUnits="userSpaceOnUse">
<stop stop-color="#6559AC"/>
<stop offset="1" stop-color="#31427E"/>
</linearGradient>
<clipPath id="clip0_5406_5047">
<rect width="379.728" height="675.072" fill="white" transform="translate(0.71875 0.324219)"/>
</clipPath>
</defs>
</svg>
