<svg width="2160" height="3840" viewBox="0 0 2160 3840" fill="none" xmlns="http://www.w3.org/2000/svg">
<g clip-path="url(#clip0_5346_14648)">
<rect width="2160" height="3840" fill="#F5F0EE"/>
<rect width="1080" height="1000" fill="url(#paint0_linear_5346_14648)"/>
<path d="M182.328 147.375H186.391V166.562H196.391V170H182.328V147.375ZM210.103 170H206.041V147.375H210.103V170ZM220.722 147.375H229.378C230.972 147.375 232.316 147.625 233.409 148.125C234.514 148.625 235.336 149.318 235.878 150.203C236.43 151.089 236.711 152.104 236.722 153.25C236.711 154.562 236.342 155.625 235.612 156.438C234.894 157.24 233.941 157.781 232.753 158.062V158.281C233.576 158.323 234.357 158.573 235.097 159.031C235.847 159.49 236.451 160.135 236.909 160.969C237.368 161.792 237.597 162.75 237.597 163.844C237.597 165.042 237.305 166.104 236.722 167.031C236.149 167.958 235.284 168.688 234.128 169.219C232.972 169.74 231.555 170 229.878 170H220.722V147.375ZM229.253 166.594C230.68 166.594 231.737 166.323 232.425 165.781C233.112 165.229 233.461 164.479 233.472 163.531C233.461 162.854 233.29 162.245 232.956 161.703C232.623 161.161 232.144 160.734 231.519 160.422C230.894 160.099 230.17 159.938 229.347 159.938H224.784V166.594H229.253ZM228.878 157C229.597 157 230.237 156.87 230.8 156.609C231.373 156.339 231.826 155.958 232.159 155.469C232.493 154.979 232.659 154.406 232.659 153.75C232.649 152.854 232.326 152.13 231.691 151.578C231.055 151.026 230.149 150.75 228.972 150.75H224.784V157H228.878ZM247.309 147.375H255.809C257.507 147.375 258.95 147.677 260.137 148.281C261.335 148.875 262.236 149.714 262.841 150.797C263.455 151.88 263.768 153.146 263.778 154.594C263.768 156.135 263.414 157.464 262.716 158.578C262.028 159.682 261.023 160.5 259.7 161.031L264.591 170H260.059L255.622 161.719H251.372V170H247.309V147.375ZM255.184 158.312C258.143 158.323 259.622 157.083 259.622 154.594C259.622 153.365 259.257 152.422 258.528 151.766C257.799 151.109 256.684 150.781 255.184 150.781H251.372V158.312H255.184ZM272.209 170L280.178 147.375H285.178L293.178 170H288.834L286.944 164.406H278.428L276.553 170H272.209ZM285.85 161.125L282.772 152H282.584L279.522 161.125H285.85ZM302.266 147.375H310.766C312.464 147.375 313.906 147.677 315.094 148.281C316.292 148.875 317.193 149.714 317.797 150.797C318.411 151.88 318.724 153.146 318.734 154.594C318.724 156.135 318.37 157.464 317.672 158.578C316.984 159.682 315.979 160.5 314.656 161.031L319.547 170H315.016L310.578 161.719H306.328V170H302.266V147.375ZM310.141 158.312C313.099 158.323 314.578 157.083 314.578 154.594C314.578 153.365 314.214 152.422 313.484 151.766C312.755 151.109 311.641 150.781 310.141 150.781H306.328V158.312H310.141ZM332.697 170H328.634V147.375H332.697V170ZM341.847 170L349.816 147.375H354.816L362.816 170H358.472L356.581 164.406H348.066L346.191 170H341.847ZM355.488 161.125L352.409 152H352.222L349.159 161.125H355.488ZM390.497 170H386.872L376.153 154.531H375.966V170H371.903V147.375H375.591L386.247 162.844H386.466V147.375H390.497V170ZM415.078 147.375H423.578C425.276 147.375 426.719 147.677 427.906 148.281C429.104 148.875 430.005 149.714 430.609 150.797C431.224 151.88 431.536 153.146 431.547 154.594C431.536 156.135 431.182 157.464 430.484 158.578C429.797 159.682 428.792 160.5 427.469 161.031L432.359 170H427.828L423.391 161.719H419.141V170H415.078V147.375ZM422.953 158.312C425.911 158.323 427.391 157.083 427.391 154.594C427.391 153.365 427.026 152.422 426.297 151.766C425.568 151.109 424.453 150.781 422.953 150.781H419.141V158.312H422.953ZM441.447 147.375H456.166V150.781H445.509V156.969H455.384V160.375H445.509V166.562H456.228V170H441.447V147.375ZM481.722 155C481.566 154.115 481.232 153.349 480.722 152.703C480.222 152.057 479.592 151.568 478.831 151.234C478.071 150.891 477.232 150.719 476.316 150.719C475.076 150.719 473.977 151.031 473.019 151.656C472.071 152.271 471.331 153.177 470.8 154.375C470.269 155.573 470.003 157.01 470.003 158.688C470.003 160.385 470.269 161.833 470.8 163.031C471.331 164.219 472.071 165.12 473.019 165.734C473.977 166.349 475.076 166.656 476.316 166.656C477.211 166.656 478.034 166.495 478.784 166.172C479.545 165.839 480.18 165.359 480.691 164.734C481.201 164.109 481.545 163.365 481.722 162.5H485.816C485.607 163.958 485.081 165.281 484.237 166.469C483.394 167.656 482.284 168.594 480.909 169.281C479.545 169.969 477.993 170.312 476.253 170.312C474.253 170.312 472.467 169.849 470.894 168.922C469.331 167.984 468.107 166.641 467.222 164.891C466.347 163.13 465.909 161.062 465.909 158.688C465.909 156.302 466.352 154.234 467.237 152.484C468.133 150.734 469.362 149.396 470.925 148.469C472.498 147.531 474.274 147.062 476.253 147.062C477.92 147.062 479.435 147.38 480.8 148.016C482.165 148.641 483.284 149.552 484.159 150.75C485.034 151.938 485.586 153.354 485.816 155H481.722ZM515.903 158.688C515.903 161.073 515.455 163.141 514.559 164.891C513.674 166.641 512.44 167.984 510.856 168.922C509.283 169.849 507.507 170.312 505.528 170.312C503.539 170.312 501.757 169.849 500.184 168.922C498.611 167.984 497.377 166.641 496.481 164.891C495.596 163.13 495.153 161.062 495.153 158.688C495.153 156.302 495.596 154.234 496.481 152.484C497.377 150.724 498.611 149.38 500.184 148.453C501.757 147.526 503.539 147.062 505.528 147.062C507.507 147.062 509.283 147.531 510.856 148.469C512.44 149.396 513.674 150.734 514.559 152.484C515.455 154.234 515.903 156.302 515.903 158.688ZM499.247 158.688C499.247 160.375 499.507 161.818 500.028 163.016C500.559 164.214 501.299 165.12 502.247 165.734C503.195 166.349 504.289 166.656 505.528 166.656C506.778 166.656 507.872 166.349 508.809 165.734C509.757 165.12 510.492 164.214 511.013 163.016C511.544 161.818 511.809 160.375 511.809 158.688C511.809 157 511.544 155.557 511.013 154.359C510.492 153.161 509.757 152.255 508.809 151.641C507.872 151.026 506.778 150.719 505.528 150.719C504.289 150.719 503.195 151.026 502.247 151.641C501.299 152.255 500.559 153.161 500.028 154.359C499.507 155.557 499.247 157 499.247 158.688ZM530.928 147.375L537.647 163.812H537.928L544.647 147.375H549.647V170H545.741V154.438H545.522L539.241 169.938H536.334L530.053 154.375H529.866V170H525.928V147.375H530.928ZM565.234 147.375L571.953 163.812H572.234L578.953 147.375H583.953V170H580.047V154.438H579.828L573.547 169.938H570.641L564.359 154.375H564.172V170H560.234V147.375H565.234ZM594.541 147.375H609.259V150.781H598.603V156.969H608.478V160.375H598.603V166.562H609.322V170H594.541V147.375ZM638.159 170H634.534L623.816 154.531H623.628V170H619.566V147.375H623.253L633.909 162.844H634.128V147.375H638.159V170ZM648.747 170V147.375H656.559C658.799 147.375 660.731 147.828 662.356 148.734C663.981 149.63 665.226 150.927 666.091 152.625C666.966 154.312 667.403 156.323 667.403 158.656C667.403 161 666.966 163.026 666.091 164.734C665.216 166.432 663.955 167.734 662.309 168.641C660.664 169.547 658.705 170 656.434 170H648.747ZM656.216 166.469C660.966 166.49 663.341 163.885 663.341 158.656C663.341 156.073 662.752 154.135 661.575 152.844C660.398 151.542 658.653 150.896 656.341 150.906H652.809V166.469H656.216ZM677.397 147.375H692.116V150.781H681.459V156.969H691.334V160.375H681.459V166.562H692.178V170H677.397V147.375ZM702.422 170V147.375H710.234C712.474 147.375 714.406 147.828 716.031 148.734C717.656 149.63 718.901 150.927 719.766 152.625C720.641 154.312 721.078 156.323 721.078 158.656C721.078 161 720.641 163.026 719.766 164.734C718.891 166.432 717.63 167.734 715.984 168.641C714.339 169.547 712.38 170 710.109 170H702.422ZM709.891 166.469C714.641 166.49 717.016 163.885 717.016 158.656C717.016 156.073 716.427 154.135 715.25 152.844C714.073 151.542 712.328 150.896 710.016 150.906H706.484V166.469H709.891ZM745.066 147.375H753.722C755.316 147.375 756.659 147.625 757.753 148.125C758.857 148.625 759.68 149.318 760.222 150.203C760.774 151.089 761.055 152.104 761.066 153.25C761.055 154.562 760.685 155.625 759.956 156.438C759.237 157.24 758.284 157.781 757.097 158.062V158.281C757.92 158.323 758.701 158.573 759.441 159.031C760.191 159.49 760.795 160.135 761.253 160.969C761.711 161.792 761.941 162.75 761.941 163.844C761.941 165.042 761.649 166.104 761.066 167.031C760.493 167.958 759.628 168.688 758.472 169.219C757.316 169.74 755.899 170 754.222 170H745.066V147.375ZM753.597 166.594C755.024 166.594 756.081 166.323 756.769 165.781C757.456 165.229 757.805 164.479 757.816 163.531C757.805 162.854 757.633 162.245 757.3 161.703C756.967 161.161 756.487 160.734 755.862 160.422C755.237 160.099 754.514 159.938 753.691 159.938H749.128V166.594H753.597ZM753.222 157C753.941 157 754.581 156.87 755.144 156.609C755.717 156.339 756.17 155.958 756.503 155.469C756.836 154.979 757.003 154.406 757.003 153.75C756.993 152.854 756.67 152.13 756.034 151.578C755.399 151.026 754.493 150.75 753.316 150.75H749.128V157H753.222ZM791.841 158.688C791.841 161.073 791.393 163.141 790.497 164.891C789.611 166.641 788.377 167.984 786.794 168.922C785.221 169.849 783.445 170.312 781.466 170.312C779.476 170.312 777.695 169.849 776.122 168.922C774.549 167.984 773.315 166.641 772.419 164.891C771.533 163.13 771.091 161.062 771.091 158.688C771.091 156.302 771.533 154.234 772.419 152.484C773.315 150.724 774.549 149.38 776.122 148.453C777.695 147.526 779.476 147.062 781.466 147.062C783.445 147.062 785.221 147.531 786.794 148.469C788.377 149.396 789.611 150.734 790.497 152.484C791.393 154.234 791.841 156.302 791.841 158.688ZM775.184 158.688C775.184 160.375 775.445 161.818 775.966 163.016C776.497 164.214 777.236 165.12 778.184 165.734C779.132 166.349 780.226 166.656 781.466 166.656C782.716 166.656 783.809 166.349 784.747 165.734C785.695 165.12 786.429 164.214 786.95 163.016C787.481 161.818 787.747 160.375 787.747 158.688C787.747 157 787.481 155.557 786.95 154.359C786.429 153.161 785.695 152.255 784.747 151.641C783.809 151.026 782.716 150.719 781.466 150.719C780.226 150.719 779.132 151.026 778.184 151.641C777.236 152.255 776.497 153.161 775.966 154.359C775.445 155.557 775.184 157 775.184 158.688ZM822.053 158.688C822.053 161.073 821.605 163.141 820.709 164.891C819.824 166.641 818.59 167.984 817.006 168.922C815.433 169.849 813.657 170.312 811.678 170.312C809.689 170.312 807.907 169.849 806.334 168.922C804.761 167.984 803.527 166.641 802.631 164.891C801.746 163.13 801.303 161.062 801.303 158.688C801.303 156.302 801.746 154.234 802.631 152.484C803.527 150.724 804.761 149.38 806.334 148.453C807.907 147.526 809.689 147.062 811.678 147.062C813.657 147.062 815.433 147.531 817.006 148.469C818.59 149.396 819.824 150.734 820.709 152.484C821.605 154.234 822.053 156.302 822.053 158.688ZM805.397 158.688C805.397 160.375 805.657 161.818 806.178 163.016C806.709 164.214 807.449 165.12 808.397 165.734C809.345 166.349 810.439 166.656 811.678 166.656C812.928 166.656 814.022 166.349 814.959 165.734C815.907 165.12 816.642 164.214 817.162 163.016C817.694 161.818 817.959 160.375 817.959 158.688C817.959 157 817.694 155.557 817.162 154.359C816.642 153.161 815.907 152.255 814.959 151.641C814.022 151.026 812.928 150.719 811.678 150.719C810.439 150.719 809.345 151.026 808.397 151.641C807.449 152.255 806.709 153.161 806.178 154.359C805.657 155.557 805.397 157 805.397 158.688ZM832.078 147.375H836.141V157.781H836.453L845.297 147.375H850.266L841.516 157.531L850.359 170H845.453L838.672 160.281L836.141 163.25V170H832.078V147.375Z" fill="#ADB5BD"/>
<path d="M200.684 215.961C200.625 225.424 205.371 234.975 213.574 238.93L209.59 244.145C203.848 241.244 199.717 235.648 197.461 228.91C195.146 236.117 190.811 242.094 184.746 245.141L180.762 239.926C189.287 235.883 194.15 225.746 194.18 215.961V207.523H200.684V215.961ZM216.738 256.215V203.246H223.242V223.988H231.387V229.555H223.242V256.215H216.738ZM253.184 215.961C253.154 225.805 257.871 235.473 266.309 239.164L262.383 244.379C256.406 241.449 252.188 235.824 249.932 228.881C247.617 236.205 243.281 242.299 237.188 245.375L233.086 240.102C241.729 236.059 246.533 225.863 246.562 215.961V207.523H253.184V215.961ZM260.449 225.629V220.355H271.582V203.246H278.027V256.273H271.582V225.629H260.449ZM333.75 235.062V240.395H312.773V256.273H306.328V240.395H285.469V235.062H333.75ZM288.105 226.684C298.682 225.395 305.625 219.975 306.27 214.672H289.922V209.516H306.328V203.305H312.773V209.516H329.238V214.672H312.891C313.506 219.916 320.42 225.395 330.996 226.684L328.594 231.84C319.834 230.727 313.037 226.889 309.609 221.791C306.152 226.947 299.268 230.727 290.449 231.84L288.105 226.684ZM356.367 215.785C356.338 222.084 360.762 228.207 369.141 230.785L365.977 235.883C359.971 234.096 355.605 230.258 353.203 225.395C350.859 230.639 346.494 234.77 340.312 236.762L337.148 231.664C345.498 229.057 349.863 222.582 349.863 215.785V214.965H338.789V209.809H349.863V203.598H356.426V209.809H367.441V214.965H356.367V215.785ZM346.934 255.16V239.223H353.438V249.887H383.027V255.16H346.934ZM365.684 224.281V219.066H375.176V203.305H381.68V242.621H375.176V224.281H365.684ZM432.188 227.328V232.484H416.484V244.613H437.578V249.945H389.18V244.613H410.039V232.484H395.039V207.172H431.777V212.387H401.543V227.328H432.188ZM460.605 215.961C460.576 225.805 465.293 235.473 473.73 239.164L469.805 244.379C463.828 241.449 459.609 235.824 457.354 228.881C455.039 236.205 450.703 242.299 444.609 245.375L440.508 240.102C449.15 236.059 453.955 225.863 453.984 215.961V207.523H460.605V215.961ZM467.871 225.629V220.355H479.004V203.246H485.449V256.273H479.004V225.629H467.871Z" fill="white"/>
<path d="M931.209 3787H927.772V3764.38H931.209V3787ZM957.253 3787H954.097L942.628 3770.47H942.441V3787H939.003V3764.38H942.191L953.659 3780.94H953.878V3764.38H957.253V3787ZM965.078 3764.38H979.109V3767.34H968.516V3774.19H978.109V3777.12H968.516V3787H965.078V3764.38ZM1005.81 3775.69C1005.81 3778.05 1005.37 3780.11 1004.5 3781.88C1003.62 3783.62 1002.41 3784.97 1000.86 3785.91C999.315 3786.84 997.57 3787.31 995.622 3787.31C993.653 3787.31 991.893 3786.84 990.341 3785.91C988.799 3784.96 987.591 3783.61 986.716 3781.86C985.841 3780.1 985.403 3778.04 985.403 3775.69C985.403 3773.32 985.841 3771.27 986.716 3769.52C987.591 3767.76 988.799 3766.41 990.341 3765.47C991.893 3764.53 993.653 3764.06 995.622 3764.06C997.57 3764.06 999.315 3764.53 1000.86 3765.47C1002.41 3766.41 1003.62 3767.76 1004.5 3769.52C1005.37 3771.27 1005.81 3773.32 1005.81 3775.69ZM988.809 3775.69C988.809 3777.48 989.101 3779.02 989.684 3780.3C990.278 3781.57 991.085 3782.53 992.106 3783.19C993.137 3783.84 994.309 3784.17 995.622 3784.16C996.924 3784.17 998.085 3783.84 999.106 3783.19C1000.14 3782.53 1000.94 3781.57 1001.53 3780.3C1002.11 3779.02 1002.4 3777.48 1002.4 3775.69C1002.4 3773.9 1002.11 3772.36 1001.53 3771.09C1000.94 3769.81 1000.14 3768.84 999.106 3768.19C998.085 3767.53 996.924 3767.21 995.622 3767.22C994.309 3767.21 993.137 3767.53 992.106 3768.19C991.085 3768.84 990.278 3769.81 989.684 3771.09C989.101 3772.36 988.809 3773.9 988.809 3775.69ZM1025.2 3770.34C1025.09 3769.3 1024.62 3768.49 1023.77 3767.91C1022.93 3767.32 1021.85 3767.03 1020.54 3767.03C1019.63 3767.03 1018.84 3767.18 1018.15 3767.47C1017.47 3767.75 1016.95 3768.15 1016.57 3768.66C1016.2 3769.17 1016.01 3769.74 1016.01 3770.38C1016.01 3771.33 1016.41 3772.07 1017.2 3772.59C1017.99 3773.11 1018.97 3773.51 1020.13 3773.78L1022.32 3774.38C1026.67 3775.43 1028.84 3777.55 1028.85 3780.75C1028.84 3782.03 1028.5 3783.17 1027.84 3784.17C1027.18 3785.17 1026.22 3785.96 1024.95 3786.53C1023.69 3787.09 1022.19 3787.38 1020.45 3787.38C1018.77 3787.38 1017.31 3787.11 1016.06 3786.58C1014.82 3786.04 1013.84 3785.27 1013.13 3784.27C1012.44 3783.27 1012.05 3782.08 1011.98 3780.72H1015.42C1015.51 3781.91 1016.02 3782.81 1016.95 3783.44C1017.88 3784.05 1019.05 3784.36 1020.45 3784.38C1021.41 3784.38 1022.26 3784.22 1023.01 3783.92C1023.77 3783.61 1024.36 3783.18 1024.79 3782.62C1025.23 3782.06 1025.45 3781.42 1025.45 3780.69C1025.45 3780.06 1025.26 3779.54 1024.9 3779.11C1024.54 3778.68 1024.05 3778.33 1023.43 3778.06C1022.83 3777.78 1022.07 3777.52 1021.17 3777.28L1018.48 3776.56C1016.58 3776.04 1015.12 3775.29 1014.1 3774.31C1013.09 3773.33 1012.58 3772.08 1012.57 3770.56C1012.57 3769.28 1012.92 3768.15 1013.62 3767.17C1014.33 3766.18 1015.29 3765.42 1016.51 3764.88C1017.74 3764.33 1019.11 3764.06 1020.63 3764.06C1022.14 3764.06 1023.49 3764.33 1024.68 3764.88C1025.87 3765.41 1026.8 3766.15 1027.48 3767.11C1028.16 3768.06 1028.51 3769.14 1028.54 3770.34H1025.2ZM1035.74 3764.38H1049.93V3767.34H1039.18V3774.19H1049.18V3777.12H1039.18V3784.03H1050.05V3787H1035.74V3764.38ZM1056.22 3764.38H1073.75V3767.34H1066.72V3787H1063.28V3767.34H1056.22V3764.38ZM1091.47 3764.38H1094.9V3784.03H1105.12V3787H1091.47V3764.38ZM1115.29 3787H1111.85V3764.38H1115.29V3787ZM1123.08 3764.38H1131.37C1132.93 3764.38 1134.25 3764.63 1135.32 3765.14C1136.39 3765.65 1137.19 3766.35 1137.72 3767.25C1138.26 3768.15 1138.52 3769.17 1138.52 3770.31C1138.52 3771.64 1138.17 3772.69 1137.46 3773.48C1136.76 3774.27 1135.84 3774.8 1134.71 3775.09V3775.31C1135.49 3775.35 1136.24 3775.6 1136.96 3776.06C1137.68 3776.52 1138.26 3777.17 1138.71 3778C1139.17 3778.82 1139.4 3779.79 1139.4 3780.91C1139.4 3782.09 1139.12 3783.15 1138.57 3784.06C1138.02 3784.98 1137.17 3785.7 1136.02 3786.22C1134.88 3786.74 1133.45 3787 1131.74 3787H1123.08V3764.38ZM1131.43 3784.06C1132.98 3784.05 1134.13 3783.75 1134.87 3783.16C1135.62 3782.55 1135.99 3781.75 1135.99 3780.75C1135.99 3780.02 1135.81 3779.36 1135.44 3778.77C1135.08 3778.17 1134.56 3777.7 1133.88 3777.36C1133.21 3777.02 1132.44 3776.84 1131.55 3776.84H1126.52V3784.06H1131.43ZM1131.08 3774.16C1131.84 3774.15 1132.53 3773.99 1133.15 3773.7C1133.77 3773.41 1134.26 3773 1134.62 3772.47C1134.97 3771.93 1135.15 3771.3 1135.15 3770.59C1135.15 3769.61 1134.8 3768.82 1134.12 3768.22C1133.44 3767.61 1132.45 3767.31 1131.15 3767.31H1126.52V3774.16H1131.08ZM1146.28 3764.38H1154.35C1156.06 3764.38 1157.5 3764.67 1158.67 3765.27C1159.85 3765.86 1160.73 3766.69 1161.32 3767.75C1161.9 3768.81 1162.19 3770.05 1162.19 3771.47C1162.19 3773.01 1161.84 3774.33 1161.14 3775.44C1160.45 3776.53 1159.42 3777.34 1158.07 3777.86L1163.07 3787H1159.16L1154.57 3778.47H1154.35H1149.72V3787H1146.28V3764.38ZM1154 3775.5C1155.63 3775.49 1156.82 3775.15 1157.58 3774.47C1158.34 3773.78 1158.72 3772.78 1158.72 3771.47C1158.72 3770.15 1158.34 3769.12 1157.57 3768.41C1156.81 3767.69 1155.62 3767.32 1154 3767.31H1149.72V3775.5H1154ZM1167.48 3787L1175.61 3764.38H1179.58L1187.73 3787H1184.08L1182.02 3781.03H1173.2L1171.14 3787H1167.48ZM1181.02 3778.16L1177.67 3768.5H1177.52L1174.19 3778.16H1181.02ZM1193.81 3764.38H1201.87C1203.58 3764.38 1205.02 3764.67 1206.2 3765.27C1207.38 3765.86 1208.26 3766.69 1208.84 3767.75C1209.42 3768.81 1209.72 3770.05 1209.72 3771.47C1209.72 3773.01 1209.37 3774.33 1208.67 3775.44C1207.97 3776.53 1206.94 3777.34 1205.59 3777.86L1210.59 3787H1206.68L1202.09 3778.47H1201.87H1197.25V3787H1193.81V3764.38ZM1201.53 3775.5C1203.15 3775.49 1204.35 3775.15 1205.11 3774.47C1205.87 3773.78 1206.25 3772.78 1206.25 3771.47C1206.25 3770.15 1205.86 3769.12 1205.09 3768.41C1204.33 3767.69 1203.14 3767.32 1201.53 3767.31H1197.25V3775.5H1201.53ZM1218.07 3764.38L1223.95 3774.62H1224.2L1230.1 3764.38H1234.01L1225.79 3778.12V3787H1222.35V3778.12L1214.17 3764.38H1218.07Z" fill="#ADB5BD"/>
</g>
<defs>
<linearGradient id="paint0_linear_5346_14648" x1="112.5" y1="2.53932e-07" x2="620.281" y2="1019.46" gradientUnits="userSpaceOnUse">
<stop stop-color="#2B8543"/>
<stop offset="1" stop-color="#1C4E2D"/>
</linearGradient>
<clipPath id="clip0_5346_14648">
<rect width="2160" height="3840" fill="white"/>
</clipPath>
</defs>
</svg>
