<svg width="381" height="676" viewBox="0 0 381 676" fill="none" xmlns="http://www.w3.org/2000/svg">
<g clip-path="url(#clip0_5406_5144)">
<g filter="url(#filter0_b_5406_5144)">
<path d="M0.816406 0.324219H380.544V675.396H0.816406V0.324219Z" fill="url(#paint0_linear_5406_5144)"/>
</g>
<g filter="url(#filter1_d_5406_5144)">
<path d="M380.543 348.406L0.814967 348.406L0.814967 675.394H380.543L380.543 348.406Z" fill="#F5F0EE"/>
</g>
<path d="M33.0466 25.96H35.5957V26.5588H33.7608V27.6466H35.4199V28.2454H33.7608V29.9375H33.0466V25.96ZM36.567 29.9375L37.9679 25.96H38.8469L40.2533 29.9375H39.4896L39.1573 28.9541H37.6602L37.3306 29.9375H36.567ZM38.965 28.3773L38.4239 26.7731H38.3909L37.8525 28.3773H38.965ZM44.345 27.3005C44.3176 27.1448 44.259 27.0102 44.1692 26.8967C44.0813 26.7832 43.9705 26.6971 43.8368 26.6385C43.7032 26.5781 43.5558 26.5479 43.3946 26.5479C43.1767 26.5479 42.9835 26.6028 42.815 26.7127C42.6484 26.8207 42.5183 26.98 42.425 27.1906C42.3316 27.4012 42.2849 27.6539 42.2849 27.9488C42.2849 28.2473 42.3316 28.5018 42.425 28.7124C42.5183 28.9212 42.6484 29.0796 42.815 29.1876C42.9835 29.2956 43.1767 29.3497 43.3946 29.3497C43.5521 29.3497 43.6968 29.3213 43.8286 29.2645C43.9623 29.2059 44.074 29.1217 44.1637 29.0118C44.2535 28.9019 44.3139 28.771 44.345 28.619H45.0647C45.0281 28.8754 44.9356 29.1079 44.7873 29.3167C44.6389 29.5255 44.4439 29.6903 44.2022 29.8111C43.9623 29.932 43.6894 29.9924 43.3836 29.9924C43.032 29.9924 42.718 29.9109 42.4414 29.748C42.1667 29.5832 41.9516 29.3469 41.7959 29.0393C41.6421 28.7298 41.5652 28.3663 41.5652 27.9488C41.5652 27.5294 41.643 27.1659 41.7987 26.8583C41.9562 26.5506 42.1722 26.3153 42.4469 26.1523C42.7234 25.9875 43.0357 25.9051 43.3836 25.9051C43.6766 25.9051 43.9431 25.9609 44.183 26.0726C44.4228 26.1825 44.6197 26.3428 44.7735 26.5534C44.9274 26.7621 45.0244 27.0112 45.0647 27.3005H44.345ZM47.5193 29.9375H46.8051V25.96H47.5193V29.9375ZM49.3861 25.96H50.1003V29.3332H51.8583V29.9375H49.3861V25.96ZM54.2689 29.9375H53.5547V25.96H54.2689V29.9375ZM55.9599 25.96H59.1298V26.5588H57.9047V29.9375H57.1905V26.5588H55.9599V25.96ZM61.3482 25.96L62.3261 27.718H62.3645L63.3424 25.96H64.15L62.7051 28.4487V29.9375H61.9909V28.4487L60.5406 25.96H61.3482Z" fill="#ADB5BD"/>
<path d="M36.2928 38.5901C36.2894 39.1635 36.3838 39.7215 36.5761 40.264C36.7684 40.8065 37.0465 41.2889 37.4105 41.7113C37.7744 42.1336 38.2019 42.4495 38.6929 42.6589L38.0131 43.5757C37.4877 43.3319 37.0293 42.9783 36.6379 42.5147C36.2499 42.0478 35.946 41.5035 35.7263 40.8821C35.5065 41.5516 35.1958 42.1388 34.7941 42.6435C34.3958 43.1482 33.9202 43.5311 33.3674 43.792L32.667 42.8341C33.1717 42.6177 33.6095 42.2915 33.9803 41.8555C34.3511 41.416 34.6344 40.913 34.8301 40.3464C35.0258 39.7799 35.1254 39.1944 35.1288 38.5901V37.1068H36.2928V38.5901ZM39.3625 36.3549H40.5161V45.6771H39.3625V36.3549ZM49.6838 41.1241H48.5405V38.7652H46.6863V37.8485H48.5405V36.3549H49.6838V41.1241ZM41.8346 40.2589C42.3222 40.1112 42.736 39.8949 43.0759 39.6099C43.4193 39.3215 43.6768 38.9884 43.8485 38.6107C44.0236 38.2296 44.1111 37.8279 44.1111 37.4055V36.6639H45.2648V37.4055C45.2614 37.7935 45.3438 38.1644 45.512 38.518C45.6803 38.8717 45.9292 39.1859 46.2588 39.4605C46.5885 39.7318 46.9885 39.9395 47.4589 40.0837L46.8511 40.9696C46.3533 40.8048 45.9223 40.5644 45.5584 40.2486C45.1944 39.9327 44.9077 39.5601 44.6983 39.1309C44.4922 39.6116 44.197 40.0288 43.8124 40.3825C43.4313 40.7327 42.9712 40.9971 42.4321 41.1756L41.8346 40.2589ZM43.5549 41.5259H49.6838V43.9362H44.688V44.647H49.9826V45.5535H43.5652V43.0813H48.5508V42.422H43.5549V41.5259ZM58.3468 39.0846H59.6447V40.0322H58.3468V43.1637H57.2034V36.3549H58.3468V39.0846ZM51.1054 39.3215C51.1054 38.8717 51.2152 38.4682 51.435 38.1111C51.6547 37.7541 51.9552 37.4759 52.3363 37.2768C52.7209 37.0742 53.1483 36.9729 53.6187 36.9729C54.0857 36.9729 54.5098 37.0742 54.8909 37.2768C55.2754 37.4759 55.5776 37.7541 55.7974 38.1111C56.0171 38.4682 56.1287 38.8717 56.1321 39.3215C56.1287 39.7644 56.0154 40.1644 55.7922 40.5215C55.5725 40.8786 55.272 41.1585 54.8909 41.361C54.5098 41.5602 54.0857 41.6598 53.6187 41.6598C53.1518 41.6598 52.726 41.5602 52.3414 41.361C51.9569 41.1585 51.6547 40.8786 51.435 40.5215C51.2152 40.1644 51.1054 39.7644 51.1054 39.3215ZM52.2281 39.3215C52.2281 39.5824 52.2882 39.8142 52.4084 40.0168C52.532 40.2194 52.7003 40.3756 52.9131 40.4855C53.126 40.5954 53.3612 40.6503 53.6187 40.6503C53.8797 40.6503 54.1149 40.5954 54.3243 40.4855C54.5372 40.3756 54.7038 40.2211 54.8239 40.0219C54.9475 39.8194 55.0093 39.5859 55.0093 39.3215C55.0093 39.0537 54.9475 38.8185 54.8239 38.6159C54.7038 38.4099 54.5372 38.2519 54.3243 38.142C54.1149 38.0287 53.8797 37.9721 53.6187 37.9721C53.3578 37.9721 53.1209 38.0287 52.908 38.142C52.6985 38.2519 52.532 38.4099 52.4084 38.6159C52.2882 38.8185 52.2281 39.0537 52.2281 39.3215ZM52.3826 42.4529H53.526V44.5543H58.7176V45.4814H52.3826V42.4529ZM68.1119 45.6668H67.0098V40.9593H65.9797V45.1929H64.9084V36.53H65.9797V40.0219H67.0098V36.3549H68.1119V45.6668ZM60.5203 37.4261H61.674V42.3396C62.5839 42.3224 63.4697 42.2297 64.3316 42.0615L64.4449 43.0607C63.353 43.253 62.2508 43.3491 61.1383 43.3491H60.5203V37.4261Z" fill="white"/>
</g>
<defs>
<filter id="filter0_b_5406_5144" x="-0.941594" y="-1.43378" width="383.243" height="678.586" filterUnits="userSpaceOnUse" color-interpolation-filters="sRGB">
<feFlood flood-opacity="0" result="BackgroundImageFix"/>
<feGaussianBlur in="BackgroundImageFix" stdDeviation="0.879"/>
<feComposite in2="SourceAlpha" operator="in" result="effect1_backgroundBlur_5406_5144"/>
<feBlend mode="normal" in="SourceGraphic" in2="effect1_backgroundBlur_5406_5144" result="shape"/>
</filter>
<filter id="filter1_d_5406_5144" x="-9.73159" y="339.616" width="397.307" height="344.568" filterUnits="userSpaceOnUse" color-interpolation-filters="sRGB">
<feFlood flood-opacity="0" result="BackgroundImageFix"/>
<feColorMatrix in="SourceAlpha" type="matrix" values="0 0 0 0 0 0 0 0 0 0 0 0 0 0 0 0 0 0 127 0" result="hardAlpha"/>
<feOffset dx="-1.758"/>
<feGaussianBlur stdDeviation="4.395"/>
<feComposite in2="hardAlpha" operator="out"/>
<feColorMatrix type="matrix" values="0 0 0 0 0 0 0 0 0 0 0 0 0 0 0 0 0 0 0.2 0"/>
<feBlend mode="multiply" in2="BackgroundImageFix" result="effect1_dropShadow_5406_5144"/>
<feBlend mode="normal" in="SourceGraphic" in2="effect1_dropShadow_5406_5144" result="shape"/>
</filter>
<linearGradient id="paint0_linear_5406_5144" x1="167.123" y1="0.324217" x2="239.729" y2="309.996" gradientUnits="userSpaceOnUse">
<stop stop-color="#1E87B4"/>
<stop offset="0.884091" stop-color="#175473"/>
</linearGradient>
<clipPath id="clip0_5406_5144">
<rect width="379.728" height="675.072" fill="white" transform="translate(0.816406 0.324219)"/>
</clipPath>
</defs>
</svg>
