<svg width="2160" height="3840" viewBox="0 0 2160 3840" fill="none" xmlns="http://www.w3.org/2000/svg">
<g clip-path="url(#clip0_5346_14326)">
<g filter="url(#filter0_b_5346_14326)">
<path d="M0 0H2160V3840H0V0Z" fill="url(#paint0_linear_5346_14326)"/>
</g>
<g filter="url(#filter1_d_5346_14326)">
<path d="M2160 1980L0 1980L0 3840L2160 3840L2160 1980Z" fill="#F5F0EE"/>
</g>
<path d="M182.319 147.375H196.819V150.781H186.381V156.969H195.819V160.375H186.381V170H182.319V147.375ZM202.344 170L210.312 147.375H215.312L223.312 170H218.969L217.078 164.406H208.562L206.687 170H202.344ZM215.984 161.125L212.906 152H212.719L209.656 161.125H215.984ZM246.587 155C246.431 154.115 246.098 153.349 245.587 152.703C245.087 152.057 244.457 151.568 243.697 151.234C242.936 150.891 242.098 150.719 241.181 150.719C239.942 150.719 238.843 151.031 237.884 151.656C236.936 152.271 236.197 153.177 235.666 154.375C235.134 155.573 234.869 157.01 234.869 158.688C234.869 160.385 235.134 161.833 235.666 163.031C236.197 164.219 236.936 165.12 237.884 165.734C238.843 166.349 239.942 166.656 241.181 166.656C242.077 166.656 242.9 166.495 243.65 166.172C244.41 165.839 245.046 165.359 245.556 164.734C246.067 164.109 246.41 163.365 246.587 162.5H250.681C250.473 163.958 249.947 165.281 249.103 166.469C248.259 167.656 247.15 168.594 245.775 169.281C244.41 169.969 242.858 170.312 241.119 170.312C239.119 170.312 237.332 169.849 235.759 168.922C234.197 167.984 232.973 166.641 232.087 164.891C231.212 163.13 230.775 161.062 230.775 158.688C230.775 156.302 231.218 154.234 232.103 152.484C232.999 150.734 234.228 149.396 235.791 148.469C237.364 147.531 239.14 147.062 241.119 147.062C242.785 147.062 244.301 147.38 245.666 148.016C247.03 148.641 248.15 149.552 249.025 150.75C249.9 151.938 250.452 153.354 250.681 155H246.587ZM264.644 170H260.581V147.375H264.644V170ZM275.262 147.375H279.325V166.562H289.325V170H275.262V147.375ZM303.037 170H298.975V147.375H303.037V170ZM312.656 147.375H330.688V150.781H323.719V170H319.656V150.781H312.656V147.375ZM343.306 147.375L348.869 157.375H349.087L354.65 147.375H359.244L351.025 161.531V170H346.962V161.531L338.712 147.375H343.306Z" fill="#ADB5BD"/>
<path d="M201.797 215.961C201.738 225.688 206.865 235.414 215.449 239.105L211.582 244.32C205.488 241.508 201.035 235.912 198.574 228.998C196.143 236.439 191.572 242.533 185.156 245.551L181.172 240.102C189.99 236.293 195.146 226.186 195.176 215.961V207.523H201.797V215.961ZM219.258 256.273V203.246H225.82V256.273H219.258ZM277.969 203.246V230.375H271.465V216.957H260.918V211.742H271.465V203.246H277.969ZM233.32 225.453C241.846 222.875 246.27 216.342 246.27 209.223V205.004H252.832V209.223C252.803 215.756 257.08 221.938 265.312 224.457L261.855 229.496C256.113 227.592 251.953 223.842 249.609 219.037C247.324 224.398 242.959 228.617 236.719 230.668L233.32 225.453ZM243.105 237.758V232.66H277.969V246.371H249.551V250.414H279.668V255.57H243.164V241.508H271.523V237.758H243.105ZM327.246 203.246V218.773H334.629V224.164H327.246V241.977H320.742V203.246H327.246ZM286.055 220.121C286.025 212.299 292.295 206.791 300.352 206.762C308.408 206.791 314.59 212.299 314.648 220.121C314.59 227.826 308.408 233.422 300.352 233.422C292.295 233.422 286.025 227.826 286.055 220.121ZM292.441 220.121C292.412 224.691 295.928 227.709 300.352 227.68C304.834 227.709 308.232 224.691 308.262 220.121C308.232 215.434 304.834 212.445 300.352 212.445C295.928 212.445 292.412 215.434 292.441 220.121ZM293.32 255.16V237.934H299.824V249.887H329.355V255.16H293.32ZM382.793 203.246V256.215H376.523V229.438H370.664V253.52H364.57V204.242H370.664V224.105H376.523V203.246H382.793ZM339.609 243.031V209.34H346.172V237.289C350.742 237.201 355.723 236.791 361.289 235.707L361.934 241.391C354.785 242.65 348.721 243.031 343.125 243.031H339.609Z" fill="white"/>
<path d="M931.209 3787H927.772V3764.38H931.209V3787ZM957.253 3787H954.097L942.628 3770.47H942.441V3787H939.003V3764.38H942.191L953.659 3780.94H953.878V3764.38H957.253V3787ZM965.078 3764.38H979.109V3767.34H968.516V3774.19H978.109V3777.12H968.516V3787H965.078V3764.38ZM1005.81 3775.69C1005.81 3778.05 1005.37 3780.11 1004.5 3781.88C1003.62 3783.62 1002.41 3784.97 1000.86 3785.91C999.315 3786.84 997.57 3787.31 995.622 3787.31C993.653 3787.31 991.893 3786.84 990.341 3785.91C988.799 3784.96 987.591 3783.61 986.716 3781.86C985.841 3780.1 985.403 3778.04 985.403 3775.69C985.403 3773.32 985.841 3771.27 986.716 3769.52C987.591 3767.76 988.799 3766.41 990.341 3765.47C991.893 3764.53 993.653 3764.06 995.622 3764.06C997.57 3764.06 999.315 3764.53 1000.86 3765.47C1002.41 3766.41 1003.62 3767.76 1004.5 3769.52C1005.37 3771.27 1005.81 3773.32 1005.81 3775.69ZM988.809 3775.69C988.809 3777.48 989.101 3779.02 989.684 3780.3C990.278 3781.57 991.085 3782.53 992.106 3783.19C993.137 3783.84 994.309 3784.17 995.622 3784.16C996.924 3784.17 998.085 3783.84 999.106 3783.19C1000.14 3782.53 1000.94 3781.57 1001.53 3780.3C1002.11 3779.02 1002.4 3777.48 1002.4 3775.69C1002.4 3773.9 1002.11 3772.36 1001.53 3771.09C1000.94 3769.81 1000.14 3768.84 999.106 3768.19C998.085 3767.53 996.924 3767.21 995.622 3767.22C994.309 3767.21 993.137 3767.53 992.106 3768.19C991.085 3768.84 990.278 3769.81 989.684 3771.09C989.101 3772.36 988.809 3773.9 988.809 3775.69ZM1025.2 3770.34C1025.09 3769.3 1024.62 3768.49 1023.77 3767.91C1022.93 3767.32 1021.85 3767.03 1020.54 3767.03C1019.63 3767.03 1018.84 3767.18 1018.15 3767.47C1017.47 3767.75 1016.95 3768.15 1016.57 3768.66C1016.2 3769.17 1016.01 3769.74 1016.01 3770.38C1016.01 3771.33 1016.41 3772.07 1017.2 3772.59C1017.99 3773.11 1018.97 3773.51 1020.13 3773.78L1022.32 3774.38C1026.67 3775.43 1028.84 3777.55 1028.85 3780.75C1028.84 3782.03 1028.5 3783.17 1027.84 3784.17C1027.18 3785.17 1026.22 3785.96 1024.95 3786.53C1023.69 3787.09 1022.19 3787.38 1020.45 3787.38C1018.77 3787.38 1017.31 3787.11 1016.06 3786.58C1014.82 3786.04 1013.84 3785.27 1013.13 3784.27C1012.44 3783.27 1012.05 3782.08 1011.98 3780.72H1015.42C1015.51 3781.91 1016.02 3782.81 1016.95 3783.44C1017.88 3784.05 1019.05 3784.36 1020.45 3784.38C1021.41 3784.38 1022.26 3784.22 1023.01 3783.92C1023.77 3783.61 1024.36 3783.18 1024.79 3782.62C1025.23 3782.06 1025.45 3781.42 1025.45 3780.69C1025.45 3780.06 1025.26 3779.54 1024.9 3779.11C1024.54 3778.68 1024.05 3778.33 1023.43 3778.06C1022.83 3777.78 1022.07 3777.52 1021.17 3777.28L1018.48 3776.56C1016.58 3776.04 1015.12 3775.29 1014.1 3774.31C1013.09 3773.33 1012.58 3772.08 1012.57 3770.56C1012.57 3769.28 1012.92 3768.15 1013.62 3767.17C1014.33 3766.18 1015.29 3765.42 1016.51 3764.88C1017.74 3764.33 1019.11 3764.06 1020.63 3764.06C1022.14 3764.06 1023.49 3764.33 1024.68 3764.88C1025.87 3765.41 1026.8 3766.15 1027.48 3767.11C1028.16 3768.06 1028.51 3769.14 1028.54 3770.34H1025.2ZM1035.74 3764.38H1049.93V3767.34H1039.18V3774.19H1049.18V3777.12H1039.18V3784.03H1050.05V3787H1035.74V3764.38ZM1056.22 3764.38H1073.75V3767.34H1066.72V3787H1063.28V3767.34H1056.22V3764.38ZM1091.47 3764.38H1094.9V3784.03H1105.12V3787H1091.47V3764.38ZM1115.29 3787H1111.85V3764.38H1115.29V3787ZM1123.08 3764.38H1131.37C1132.93 3764.38 1134.25 3764.63 1135.32 3765.14C1136.39 3765.65 1137.19 3766.35 1137.72 3767.25C1138.26 3768.15 1138.52 3769.17 1138.52 3770.31C1138.52 3771.64 1138.17 3772.69 1137.46 3773.48C1136.76 3774.27 1135.84 3774.8 1134.71 3775.09V3775.31C1135.49 3775.35 1136.24 3775.6 1136.96 3776.06C1137.68 3776.52 1138.26 3777.17 1138.71 3778C1139.17 3778.82 1139.4 3779.79 1139.4 3780.91C1139.4 3782.09 1139.12 3783.15 1138.57 3784.06C1138.02 3784.98 1137.17 3785.7 1136.02 3786.22C1134.88 3786.74 1133.45 3787 1131.74 3787H1123.08V3764.38ZM1131.43 3784.06C1132.98 3784.05 1134.13 3783.75 1134.87 3783.16C1135.62 3782.55 1135.99 3781.75 1135.99 3780.75C1135.99 3780.02 1135.81 3779.36 1135.44 3778.77C1135.08 3778.17 1134.56 3777.7 1133.88 3777.36C1133.21 3777.02 1132.44 3776.84 1131.55 3776.84H1126.52V3784.06H1131.43ZM1131.08 3774.16C1131.84 3774.15 1132.53 3773.99 1133.15 3773.7C1133.77 3773.41 1134.26 3773 1134.62 3772.47C1134.97 3771.93 1135.15 3771.3 1135.15 3770.59C1135.15 3769.61 1134.8 3768.82 1134.12 3768.22C1133.44 3767.61 1132.45 3767.31 1131.15 3767.31H1126.52V3774.16H1131.08ZM1146.28 3764.38H1154.35C1156.06 3764.38 1157.5 3764.67 1158.67 3765.27C1159.85 3765.86 1160.73 3766.69 1161.32 3767.75C1161.9 3768.81 1162.19 3770.05 1162.19 3771.47C1162.19 3773.01 1161.84 3774.33 1161.14 3775.44C1160.45 3776.53 1159.42 3777.34 1158.07 3777.86L1163.07 3787H1159.16L1154.57 3778.47H1154.35H1149.72V3787H1146.28V3764.38ZM1154 3775.5C1155.63 3775.49 1156.82 3775.15 1157.58 3774.47C1158.34 3773.78 1158.72 3772.78 1158.72 3771.47C1158.72 3770.15 1158.34 3769.12 1157.57 3768.41C1156.81 3767.69 1155.62 3767.32 1154 3767.31H1149.72V3775.5H1154ZM1167.48 3787L1175.61 3764.38H1179.58L1187.73 3787H1184.08L1182.02 3781.03H1173.2L1171.14 3787H1167.48ZM1181.02 3778.16L1177.67 3768.5H1177.52L1174.19 3778.16H1181.02ZM1193.81 3764.38H1201.87C1203.58 3764.38 1205.02 3764.67 1206.2 3765.27C1207.38 3765.86 1208.26 3766.69 1208.84 3767.75C1209.42 3768.81 1209.72 3770.05 1209.72 3771.47C1209.72 3773.01 1209.37 3774.33 1208.67 3775.44C1207.97 3776.53 1206.94 3777.34 1205.59 3777.86L1210.59 3787H1206.68L1202.09 3778.47H1201.87H1197.25V3787H1193.81V3764.38ZM1201.53 3775.5C1203.15 3775.49 1204.35 3775.15 1205.11 3774.47C1205.87 3773.78 1206.25 3772.78 1206.25 3771.47C1206.25 3770.15 1205.86 3769.12 1205.09 3768.41C1204.33 3767.69 1203.14 3767.32 1201.53 3767.31H1197.25V3775.5H1201.53ZM1218.07 3764.38L1223.95 3774.62H1224.2L1230.1 3764.38H1234.01L1225.79 3778.12V3787H1222.35V3778.12L1214.17 3764.38H1218.07Z" fill="#ADB5BD"/>
</g>
<defs>
<filter id="filter0_b_5346_14326" x="-10" y="-10" width="2180" height="3860" filterUnits="userSpaceOnUse" color-interpolation-filters="sRGB">
<feFlood flood-opacity="0" result="BackgroundImageFix"/>
<feGaussianBlur in="BackgroundImageFix" stdDeviation="5"/>
<feComposite in2="SourceAlpha" operator="in" result="effect1_backgroundBlur_5346_14326"/>
<feBlend mode="normal" in="SourceGraphic" in2="effect1_backgroundBlur_5346_14326" result="shape"/>
</filter>
<filter id="filter1_d_5346_14326" x="-60" y="1930" width="2260" height="1960" filterUnits="userSpaceOnUse" color-interpolation-filters="sRGB">
<feFlood flood-opacity="0" result="BackgroundImageFix"/>
<feColorMatrix in="SourceAlpha" type="matrix" values="0 0 0 0 0 0 0 0 0 0 0 0 0 0 0 0 0 0 127 0" result="hardAlpha"/>
<feOffset dx="-10"/>
<feGaussianBlur stdDeviation="25"/>
<feComposite in2="hardAlpha" operator="out"/>
<feColorMatrix type="matrix" values="0 0 0 0 0 0 0 0 0 0 0 0 0 0 0 0 0 0 0.2 0"/>
<feBlend mode="multiply" in2="BackgroundImageFix" result="effect1_dropShadow_5346_14326"/>
<feBlend mode="normal" in="SourceGraphic" in2="effect1_dropShadow_5346_14326" result="shape"/>
</filter>
<linearGradient id="paint0_linear_5346_14326" x1="946" y1="-1.15293e-05" x2="1359" y2="1761.5" gradientUnits="userSpaceOnUse">
<stop stop-color="#1E87B4"/>
<stop offset="0.884091" stop-color="#175473"/>
</linearGradient>
<clipPath id="clip0_5346_14326">
<rect width="2160" height="3840" fill="white"/>
</clipPath>
</defs>
</svg>
