<svg width="380" height="676" viewBox="0 0 380 676" fill="none" xmlns="http://www.w3.org/2000/svg">
<g clip-path="url(#clip0_5406_5429)">
<rect width="379.728" height="675.072" transform="translate(0.0078125 0.324219)" fill="#F5F0EE"/>
<rect x="0.0078125" y="0.324219" width="189.864" height="175.8" fill="url(#paint0_linear_5406_5429)"/>
<rect x="0.0078125" y="0.324219" width="189.864" height="175.8" fill="url(#paint1_linear_5406_5429)"/>
<path d="M35.5264 29.9375H34.8891L33.0048 27.2181H32.9718V29.9375H32.2576V25.96H32.9059L34.7793 28.6794H34.8177V25.96H35.5264V29.9375ZM37.3877 25.96H39.9752V26.5588H38.1019V27.6466H39.8379V28.2454H38.1019V29.3332H39.9862V29.9375H37.3877V25.96ZM41.5069 25.96H42.276L42.9957 28.8882H43.0342L43.7978 25.96H44.501L45.2701 28.8937H45.3031L46.0228 25.96H46.7919L45.6712 29.9375H44.9625L44.1659 27.1412H44.1384L43.3363 29.9375H42.6276L41.5069 25.96ZM50.8331 25.96H52.3549C52.635 25.96 52.8713 26.004 53.0635 26.0919C53.2577 26.1798 53.4023 26.3016 53.4976 26.4572C53.5946 26.6129 53.6441 26.7914 53.6459 26.9929C53.6441 27.2236 53.579 27.4104 53.4509 27.5532C53.3245 27.6942 53.1569 27.7894 52.9482 27.8389V27.8773C53.0928 27.8847 53.2302 27.9286 53.3602 28.0092C53.4921 28.0898 53.5983 28.2033 53.6788 28.3498C53.7594 28.4945 53.7997 28.663 53.7997 28.8552C53.7997 29.0658 53.7484 29.2526 53.6459 29.4156C53.5452 29.5786 53.3932 29.7068 53.1899 29.8002C52.9866 29.8917 52.7376 29.9375 52.4428 29.9375H50.8331V25.96ZM52.3329 29.3387C52.5838 29.3387 52.7696 29.2911 52.8905 29.1958C53.0114 29.0988 53.0727 28.9669 53.0745 28.8003C53.0727 28.6813 53.0425 28.5741 52.9839 28.4789C52.9253 28.3837 52.8411 28.3086 52.7312 28.2537C52.6213 28.1969 52.494 28.1685 52.3494 28.1685H51.5473V29.3387H52.3329ZM52.267 27.6521C52.3933 27.6521 52.5059 27.6292 52.6048 27.5834C52.7055 27.5358 52.7852 27.469 52.8438 27.3829C52.9024 27.2968 52.9317 27.1961 52.9317 27.0808C52.9299 26.9233 52.8731 26.796 52.7614 26.6989C52.6497 26.6019 52.4904 26.5534 52.2834 26.5534H51.5473V27.6521H52.267ZM59.0561 27.9488C59.0561 28.3681 58.9774 28.7316 58.8199 29.0393C58.6642 29.3469 58.4472 29.5832 58.1689 29.748C57.8924 29.9109 57.5801 29.9924 57.2322 29.9924C56.8824 29.9924 56.5693 29.9109 56.2928 29.748C56.0163 29.5832 55.7993 29.3469 55.6418 29.0393C55.4861 28.7298 55.4083 28.3663 55.4083 27.9488C55.4083 27.5294 55.4861 27.1659 55.6418 26.8583C55.7993 26.5488 56.0163 26.3125 56.2928 26.1496C56.5693 25.9866 56.8824 25.9051 57.2322 25.9051C57.5801 25.9051 57.8924 25.9875 58.1689 26.1523C58.4472 26.3153 58.6642 26.5506 58.8199 26.8583C58.9774 27.1659 59.0561 27.5294 59.0561 27.9488ZM56.128 27.9488C56.128 28.2454 56.1737 28.4991 56.2653 28.7096C56.3587 28.9202 56.4887 29.0796 56.6554 29.1876C56.822 29.2956 57.0143 29.3497 57.2322 29.3497C57.452 29.3497 57.6442 29.2956 57.8091 29.1876C57.9757 29.0796 58.1048 28.9202 58.1964 28.7096C58.2898 28.4991 58.3365 28.2454 58.3365 27.9488C58.3365 27.6521 58.2898 27.3985 58.1964 27.1879C58.1048 26.9773 57.9757 26.818 57.8091 26.7099C57.6442 26.6019 57.452 26.5479 57.2322 26.5479C57.0143 26.5479 56.822 26.6019 56.6554 26.7099C56.4887 26.818 56.3587 26.9773 56.2653 27.1879C56.1737 27.3985 56.128 27.6521 56.128 27.9488ZM64.3675 27.9488C64.3675 28.3681 64.2887 28.7316 64.1313 29.0393C63.9756 29.3469 63.7586 29.5832 63.4802 29.748C63.2037 29.9109 62.8915 29.9924 62.5436 29.9924C62.1938 29.9924 61.8807 29.9109 61.6041 29.748C61.3276 29.5832 61.1106 29.3469 60.9531 29.0393C60.7975 28.7298 60.7196 28.3663 60.7196 27.9488C60.7196 27.5294 60.7975 27.1659 60.9531 26.8583C61.1106 26.5488 61.3276 26.3125 61.6041 26.1496C61.8807 25.9866 62.1938 25.9051 62.5436 25.9051C62.8915 25.9051 63.2037 25.9875 63.4802 26.1523C63.7586 26.3153 63.9756 26.5506 64.1313 26.8583C64.2887 27.1659 64.3675 27.5294 64.3675 27.9488ZM61.4393 27.9488C61.4393 28.2454 61.4851 28.4991 61.5767 28.7096C61.6701 28.9202 61.8001 29.0796 61.9667 29.1876C62.1334 29.2956 62.3256 29.3497 62.5436 29.3497C62.7633 29.3497 62.9556 29.2956 63.1204 29.1876C63.2871 29.0796 63.4162 28.9202 63.5077 28.7096C63.6011 28.4991 63.6478 28.2454 63.6478 27.9488C63.6478 27.6521 63.6011 27.3985 63.5077 27.1879C63.4162 26.9773 63.2871 26.818 63.1204 26.7099C62.9556 26.6019 62.7633 26.5479 62.5436 26.5479C62.3256 26.5479 62.1334 26.6019 61.9667 26.7099C61.8001 26.818 61.6701 26.9773 61.5767 27.1879C61.4851 27.3985 61.4393 27.6521 61.4393 27.9488ZM66.1299 25.96H66.8441V27.7894H66.899L68.4537 25.96H69.3272L67.789 27.7455L69.3437 29.9375H68.4812L67.2891 28.2289L66.8441 28.7509V29.9375H66.1299V25.96Z" fill="#ADB5BD"/>
<path d="M39.7179 43.1637H38.5642V36.3652H39.7179V43.1637ZM31.9717 40.9696C32.4592 40.7979 32.8747 40.549 33.2181 40.2228C33.5614 39.8932 33.8189 39.5189 33.9906 39.1C34.1657 38.6777 34.2516 38.2399 34.2481 37.7867V36.8802H35.4327V37.7867C35.4293 38.2262 35.5117 38.6451 35.6799 39.0434C35.8516 39.4417 36.1057 39.7953 36.4422 40.1043C36.7787 40.4099 37.1873 40.6434 37.668 40.8048L37.0809 41.7113C36.5589 41.5293 36.1091 41.2615 35.7315 40.9078C35.3538 40.5507 35.0602 40.1301 34.8507 39.646C34.6413 40.1679 34.3426 40.6211 33.9546 41.0057C33.5666 41.3902 33.1048 41.6804 32.5691 41.8761L31.9717 40.9696ZM33.558 42.5147H34.7117V44.5543H39.9754V45.4814H33.558V42.5147ZM44.4253 38.3738C44.4219 38.7206 44.5043 39.0554 44.6725 39.3781C44.8442 39.7009 45.0966 39.9893 45.4296 40.2434C45.7661 40.4941 46.173 40.6846 46.6503 40.8151L46.1146 41.7319C45.5927 41.5808 45.1412 41.3525 44.7601 41.0469C44.379 40.7413 44.0802 40.3808 43.8639 39.9653C43.6545 40.422 43.3575 40.8168 42.9729 41.1499C42.5883 41.4795 42.1282 41.725 41.5926 41.8864L41.0364 40.9902C41.5136 40.8529 41.9205 40.6503 42.257 40.3825C42.5935 40.1146 42.8476 39.8073 43.0193 39.4605C43.1944 39.1138 43.2819 38.7515 43.2819 38.3738V38.3017H41.3351V37.3952H43.2819V36.324H44.4356V37.3952H46.3722V38.3017H44.4253V38.3738ZM42.2209 42.4735H48.422V45.6771H47.2786V43.3903H42.2209V42.4735ZM47.2786 36.3549H48.422V38.7137H49.7199V39.682H48.422V42.0512H47.2786V36.3549ZM57.7545 41.495H54.9939V43.6272H58.7022V44.5646H50.1937V43.6272H53.8608V41.495H51.2238V37.045H57.6824V37.9618H52.3672V40.5885H57.7545V41.495ZM62.7504 38.5901C62.747 39.1738 62.8362 39.737 63.0182 40.2795C63.2002 40.822 63.4646 41.3044 63.8114 41.7267C64.1616 42.1456 64.5771 42.4598 65.0578 42.6692L64.3676 43.586C63.8526 43.3354 63.4096 42.9748 63.0388 42.5044C62.668 42.034 62.3813 41.4864 62.1787 40.8615C61.9693 41.5241 61.674 42.1078 61.2928 42.6126C60.9117 43.1139 60.4602 43.4967 59.9383 43.7611L59.2172 42.8341C59.7082 42.604 60.1323 42.2675 60.4894 41.8246C60.8465 41.3816 61.1177 40.8786 61.3031 40.3155C61.4886 39.7524 61.583 39.1773 61.5864 38.5901V37.1068H62.7504V38.5901ZM64.0277 39.3627H65.9848V36.3549H67.1179V45.6771H65.9848V40.2898H64.0277V39.3627Z" fill="white"/>
</g>
<defs>
<linearGradient id="paint0_linear_5406_5429" x1="8.53411" y1="0.324219" x2="51.9785" y2="186.167" gradientUnits="userSpaceOnUse">
<stop stop-color="#EDE3DA"/>
<stop offset="1" stop-color="#D9D0C9"/>
</linearGradient>
<linearGradient id="paint1_linear_5406_5429" x1="19.7853" y1="0.324219" x2="109.053" y2="179.545" gradientUnits="userSpaceOnUse">
<stop stop-color="#315FAD"/>
<stop offset="1" stop-color="#2A4F8C"/>
</linearGradient>
<clipPath id="clip0_5406_5429">
<rect width="379.728" height="675.072" fill="white" transform="translate(0.0078125 0.324219)"/>
</clipPath>
</defs>
</svg>
