<svg width="380" height="676" viewBox="0 0 380 676" fill="none" xmlns="http://www.w3.org/2000/svg">
<g clip-path="url(#clip0_5406_5484)">
<rect width="379.728" height="675.072" transform="translate(0.0546875 0.324219)" fill="#F5F0EE"/>
<rect x="0.0546875" y="0.324219" width="189.864" height="175.8" fill="url(#paint0_linear_5406_5484)"/>
<path d="M32.1733 25.96H33.6951C33.9753 25.96 34.2115 26.004 34.4038 26.0919C34.5979 26.1798 34.7426 26.3016 34.8378 26.4572C34.9349 26.6129 34.9843 26.7914 34.9861 26.9929C34.9843 27.2236 34.9193 27.4104 34.7911 27.5532C34.6647 27.6942 34.4972 27.7894 34.2884 27.8389V27.8773C34.4331 27.8847 34.5704 27.9286 34.7005 28.0092C34.8323 28.0898 34.9385 28.2033 35.0191 28.3498C35.0997 28.4945 35.14 28.663 35.14 28.8552C35.14 29.0658 35.0887 29.2526 34.9861 29.4156C34.8854 29.5786 34.7334 29.7068 34.5302 29.8002C34.3269 29.8917 34.0778 29.9375 33.783 29.9375H32.1733V25.96ZM33.6731 29.3387C33.924 29.3387 34.1099 29.2911 34.2307 29.1958C34.3516 29.0988 34.413 28.9669 34.4148 28.8003C34.413 28.6813 34.3827 28.5741 34.3241 28.4789C34.2655 28.3837 34.1813 28.3086 34.0714 28.2537C33.9615 28.1969 33.8343 28.1685 33.6896 28.1685H32.8875V29.3387H33.6731ZM33.6072 27.6521C33.7336 27.6521 33.8462 27.6292 33.9451 27.5834C34.0458 27.5358 34.1254 27.469 34.184 27.3829C34.2426 27.2968 34.2719 27.1961 34.2719 27.0808C34.2701 26.9233 34.2133 26.796 34.1016 26.6989C33.9899 26.6019 33.8306 26.5534 33.6237 26.5534H32.8875V27.6521H33.6072ZM36.8474 25.96H39.435V26.5588H37.5616V27.6466H39.2976V28.2454H37.5616V29.3332H39.446V29.9375H36.8474V25.96ZM43.4113 27.0533C43.393 26.8848 43.317 26.753 43.1834 26.6577C43.0515 26.5625 42.8794 26.5149 42.6669 26.5149C42.5168 26.5149 42.3858 26.5369 42.2741 26.5808C42.1643 26.6248 42.08 26.6861 42.0214 26.7649C41.9628 26.8436 41.9335 26.9333 41.9335 27.0341C41.9335 27.1842 41.9967 27.3014 42.1231 27.3857C42.2494 27.4681 42.4133 27.5331 42.6148 27.5807L42.9883 27.6796C43.3308 27.7583 43.61 27.8892 43.8261 28.0724C44.044 28.2537 44.153 28.5036 44.153 28.8223C44.153 29.0548 44.0935 29.2599 43.9745 29.4376C43.8554 29.6152 43.6824 29.7535 43.4553 29.8523C43.2301 29.9494 42.9609 29.9979 42.6477 29.9979C42.3401 29.9979 42.0718 29.9503 41.8429 29.8551C41.6158 29.758 41.4382 29.617 41.31 29.4321C41.1818 29.2471 41.1131 29.0255 41.104 28.7673H41.8072C41.8237 28.9669 41.9079 29.1198 42.0599 29.2261C42.2119 29.3323 42.406 29.3863 42.6422 29.3881C42.7979 29.3881 42.9352 29.3643 43.0543 29.3167C43.1751 29.2673 43.2694 29.1995 43.3372 29.1134C43.4049 29.0274 43.4388 28.9285 43.4388 28.8168C43.437 28.6703 43.3766 28.5567 43.2575 28.4762C43.1385 28.3938 42.959 28.3223 42.7191 28.2619L42.2686 28.1465C41.5618 27.9616 41.2084 27.6045 41.2084 27.0753C41.2084 26.8445 41.2715 26.6413 41.3979 26.4655C41.5242 26.2878 41.6982 26.1505 41.9198 26.0534C42.1414 25.9545 42.3913 25.9051 42.6697 25.9051C42.9462 25.9051 43.1916 25.9536 43.4059 26.0507C43.6219 26.1477 43.7904 26.2842 43.9113 26.46C44.0321 26.6339 44.0944 26.8317 44.0981 27.0533H43.4113ZM45.6956 25.96H48.8655V26.5588H47.6404V29.9375H46.9262V26.5588H45.6956V25.96ZM53.0111 25.96H54.5329C54.8131 25.96 55.0493 26.004 55.2416 26.0919C55.4357 26.1798 55.5804 26.3016 55.6756 26.4572C55.7727 26.6129 55.8221 26.7914 55.8239 26.9929C55.8221 27.2236 55.7571 27.4104 55.6289 27.5532C55.5025 27.6942 55.335 27.7894 55.1262 27.8389V27.8773C55.2709 27.8847 55.4082 27.9286 55.5383 28.0092C55.6701 28.0898 55.7763 28.2033 55.8569 28.3498C55.9375 28.4945 55.9778 28.663 55.9778 28.8552C55.9778 29.0658 55.9265 29.2526 55.8239 29.4156C55.7232 29.5786 55.5712 29.7068 55.3679 29.8002C55.1647 29.8917 54.9156 29.9375 54.6208 29.9375H53.0111V25.96ZM54.5109 29.3387C54.7618 29.3387 54.9477 29.2911 55.0685 29.1958C55.1894 29.0988 55.2507 28.9669 55.2526 28.8003C55.2507 28.6813 55.2205 28.5741 55.1619 28.4789C55.1033 28.3837 55.0191 28.3086 54.9092 28.2537C54.7993 28.1969 54.6721 28.1685 54.5274 28.1685H53.7253V29.3387H54.5109ZM54.445 27.6521C54.5714 27.6521 54.684 27.6292 54.7829 27.5834C54.8836 27.5358 54.9632 27.469 55.0218 27.3829C55.0804 27.2968 55.1097 27.1961 55.1097 27.0808C55.1079 26.9233 55.0511 26.796 54.9394 26.6989C54.8277 26.6019 54.6684 26.5534 54.4615 26.5534H53.7253V27.6521H54.445ZM61.2342 27.9488C61.2342 28.3681 61.1554 28.7316 60.9979 29.0393C60.8423 29.3469 60.6253 29.5832 60.3469 29.748C60.0704 29.9109 59.7582 29.9924 59.4102 29.9924C59.0605 29.9924 58.7473 29.9109 58.4708 29.748C58.1943 29.5832 57.9773 29.3469 57.8198 29.0393C57.6641 28.7298 57.5863 28.3663 57.5863 27.9488C57.5863 27.5294 57.6641 27.1659 57.8198 26.8583C57.9773 26.5488 58.1943 26.3125 58.4708 26.1496C58.7473 25.9866 59.0605 25.9051 59.4102 25.9051C59.7582 25.9051 60.0704 25.9875 60.3469 26.1523C60.6253 26.3153 60.8423 26.5506 60.9979 26.8583C61.1554 27.1659 61.2342 27.5294 61.2342 27.9488ZM58.306 27.9488C58.306 28.2454 58.3518 28.4991 58.4433 28.7096C58.5367 28.9202 58.6668 29.0796 58.8334 29.1876C59 29.2956 59.1923 29.3497 59.4102 29.3497C59.63 29.3497 59.8223 29.2956 59.9871 29.1876C60.1537 29.0796 60.2828 28.9202 60.3744 28.7096C60.4678 28.4991 60.5145 28.2454 60.5145 27.9488C60.5145 27.6521 60.4678 27.3985 60.3744 27.1879C60.2828 26.9773 60.1537 26.818 59.9871 26.7099C59.8223 26.6019 59.63 26.5479 59.4102 26.5479C59.1923 26.5479 59 26.6019 58.8334 26.7099C58.6668 26.818 58.5367 26.9773 58.4433 27.1879C58.3518 27.3985 58.306 27.6521 58.306 27.9488ZM66.5455 27.9488C66.5455 28.3681 66.4668 28.7316 66.3093 29.0393C66.1536 29.3469 65.9366 29.5832 65.6583 29.748C65.3818 29.9109 65.0695 29.9924 64.7216 29.9924C64.3718 29.9924 64.0587 29.9109 63.7822 29.748C63.5057 29.5832 63.2887 29.3469 63.1312 29.0393C62.9755 28.7298 62.8977 28.3663 62.8977 27.9488C62.8977 27.5294 62.9755 27.1659 63.1312 26.8583C63.2887 26.5488 63.5057 26.3125 63.7822 26.1496C64.0587 25.9866 64.3718 25.9051 64.7216 25.9051C65.0695 25.9051 65.3818 25.9875 65.6583 26.1523C65.9366 26.3153 66.1536 26.5506 66.3093 26.8583C66.4668 27.1659 66.5455 27.5294 66.5455 27.9488ZM63.6174 27.9488C63.6174 28.2454 63.6631 28.4991 63.7547 28.7096C63.8481 28.9202 63.9781 29.0796 64.1448 29.1876C64.3114 29.2956 64.5037 29.3497 64.7216 29.3497C64.9414 29.3497 65.1336 29.2956 65.2984 29.1876C65.4651 29.0796 65.5942 28.9202 65.6858 28.7096C65.7792 28.4991 65.8258 28.2454 65.8258 27.9488C65.8258 27.6521 65.7792 27.3985 65.6858 27.1879C65.5942 26.9773 65.4651 26.818 65.2984 26.7099C65.1336 26.6019 64.9414 26.5479 64.7216 26.5479C64.5037 26.5479 64.3114 26.6019 64.1448 26.7099C63.9781 26.818 63.8481 26.9773 63.7547 27.1879C63.6631 27.3985 63.6174 27.6521 63.6174 27.9488ZM68.3079 25.96H69.0221V27.7894H69.077L70.6318 25.96H71.5053L69.967 27.7455L71.5218 29.9375H70.6592L69.4671 28.2289L69.0221 28.7509V29.9375H68.3079V25.96Z" fill="#ADB5BD"/>
<path d="M39.7647 43.0916H38.611V36.3652H39.7647V43.0916ZM32.1731 39.3009C32.1731 38.858 32.2829 38.4597 32.5027 38.106C32.7259 37.7523 33.028 37.4759 33.4091 37.2768C33.7937 37.0742 34.2195 36.9729 34.6864 36.9729C35.1534 36.9729 35.5775 37.0742 35.9586 37.2768C36.3432 37.4759 36.6436 37.7523 36.8599 38.106C37.0797 38.4597 37.1895 38.858 37.1895 39.3009C37.1895 39.7507 37.0797 40.1541 36.8599 40.5112C36.6436 40.8649 36.3432 41.1413 35.9586 41.3404C35.5775 41.5396 35.1534 41.6392 34.6864 41.6392C34.2195 41.6392 33.7937 41.5396 33.4091 41.3404C33.028 41.1413 32.7259 40.8649 32.5027 40.5112C32.2829 40.1541 32.1731 39.7507 32.1731 39.3009ZM33.2958 39.3009C33.2958 39.5687 33.3542 39.8039 33.471 40.0065C33.5911 40.2091 33.7559 40.3653 33.9654 40.4752C34.1783 40.5851 34.4186 40.64 34.6864 40.64C34.9474 40.64 35.1826 40.5851 35.392 40.4752C35.6015 40.3653 35.7663 40.2091 35.8865 40.0065C36.0067 39.8039 36.0667 39.5687 36.0667 39.3009C36.0667 39.0399 36.0067 38.8082 35.8865 38.6056C35.7663 38.403 35.5998 38.2468 35.3869 38.1369C35.1774 38.027 34.944 37.9721 34.6864 37.9721C34.4221 37.9721 34.1834 38.027 33.9705 38.1369C33.7577 38.2468 33.5911 38.403 33.471 38.6056C33.3542 38.8082 33.2958 39.0399 33.2958 39.3009ZM33.6049 42.4117H34.7586V44.5543H40.0222V45.4814H33.6049V42.4117ZM48.9015 45.6668H47.7478V36.3549H48.9015V45.6668ZM41.1862 43.1019C42.388 42.5319 43.2893 41.8503 43.8902 41.0572C44.4945 40.264 44.8499 39.3284 44.9563 38.2502H41.6601V37.3437H46.1203C46.1203 38.8236 45.7855 40.1215 45.116 41.2374C44.4464 42.3534 43.3357 43.2804 41.7837 44.0186L41.1862 43.1019ZM57.8014 41.495H55.0408V43.6272H58.7491V44.5646H50.2406V43.6272H53.9077V41.495H51.2707V37.045H57.7293V37.9618H52.4141V40.5885H57.8014V41.495ZM62.7973 38.5901C62.7938 39.1738 62.8831 39.737 63.0651 40.2795C63.2471 40.822 63.5115 41.3044 63.8583 41.7267C64.2085 42.1456 64.6239 42.4598 65.1046 42.6692L64.4145 43.586C63.8995 43.3354 63.4565 42.9748 63.0857 42.5044C62.7149 42.034 62.4282 41.4864 62.2256 40.8615C62.0161 41.5241 61.7208 42.1078 61.3397 42.6126C60.9586 43.1139 60.5071 43.4967 59.9852 43.7611L59.2641 42.8341C59.7551 42.604 60.1792 42.2675 60.5363 41.8246C60.8933 41.3816 61.1646 40.8786 61.35 40.3155C61.5354 39.7524 61.6299 39.1773 61.6333 38.5901V37.1068H62.7973V38.5901ZM64.0746 39.3627H66.0317V36.3549H67.1648V45.6771H66.0317V40.2898H64.0746V39.3627Z" fill="white"/>
</g>
<defs>
<linearGradient id="paint0_linear_5406_5484" x1="24.3151" y1="0.324214" x2="68.824" y2="206.165" gradientUnits="userSpaceOnUse">
<stop stop-color="#B3071A"/>
<stop offset="1" stop-color="#8D121F"/>
</linearGradient>
<clipPath id="clip0_5406_5484">
<rect width="379.728" height="675.072" fill="white" transform="translate(0.0546875 0.324219)"/>
</clipPath>
</defs>
</svg>
