<svg width="2160" height="3840" viewBox="0 0 2160 3840" fill="none" xmlns="http://www.w3.org/2000/svg">
<g clip-path="url(#clip0_5346_14666)">
<rect width="2160" height="3840" fill="#F5F0EE"/>
<rect width="1080" height="1000" fill="url(#paint0_linear_5346_14666)"/>
<path d="M182.431 170V147.375H191.088C195.994 147.375 198.416 149.875 198.431 153.25C198.416 156 196.681 157.531 194.463 158.062V158.281C196.869 158.406 199.306 160.406 199.306 163.844C199.306 167.359 196.759 170 191.588 170H182.431ZM186.494 166.594H190.963C193.931 166.594 195.166 165.328 195.181 163.531C195.166 161.5 193.588 159.953 191.056 159.938H186.494V166.594ZM186.494 157H190.588C192.728 157 194.353 155.766 194.369 153.75C194.353 152.016 193.103 150.75 190.681 150.75H186.494V157ZM209.019 170V147.375H223.738V150.781H213.081V156.969H222.956V160.375H213.081V166.562H223.8V170H209.019ZM246.356 153.594C246.153 151.641 244.513 150.516 242.075 150.531C239.497 150.516 237.966 151.766 237.95 153.469C237.934 155.375 239.95 156.156 241.825 156.594L243.95 157.156C247.325 157.938 250.575 159.719 250.575 163.656C250.575 167.625 247.434 170.344 242.013 170.344C236.747 170.344 233.403 167.812 233.231 163.344H237.231C237.419 165.703 239.403 166.859 241.981 166.875C244.653 166.859 246.497 165.562 246.513 163.625C246.497 161.844 244.872 161.094 242.419 160.469L239.856 159.812C236.138 158.844 233.825 156.969 233.825 153.719C233.825 149.719 237.372 147.062 242.138 147.062C246.934 147.062 250.2 149.766 250.263 153.594H246.356ZM259.35 150.781V147.375H277.381V150.781H270.412V170H266.35V150.781H259.35ZM300.963 170V147.375H309.619C314.525 147.375 316.947 149.875 316.963 153.25C316.947 156 315.213 157.531 312.994 158.062V158.281C315.4 158.406 317.838 160.406 317.838 163.844C317.838 167.359 315.291 170 310.119 170H300.963ZM305.025 166.594H309.494C312.463 166.594 313.697 165.328 313.713 163.531C313.697 161.5 312.119 159.953 309.588 159.938H305.025V166.594ZM305.025 157H309.119C311.259 157 312.884 155.766 312.9 153.75C312.884 152.016 311.634 150.75 309.213 150.75H305.025V157ZM347.737 158.688C347.753 166 343.284 170.312 337.362 170.312C331.409 170.312 326.972 165.984 326.987 158.688C326.972 151.375 331.409 147.062 337.362 147.062C343.284 147.062 347.753 151.375 347.737 158.688ZM331.081 158.688C331.066 163.859 333.675 166.656 337.362 166.656C341.066 166.656 343.659 163.859 343.644 158.688C343.659 153.516 341.066 150.719 337.362 150.719C333.675 150.719 331.066 153.516 331.081 158.688ZM377.95 158.688C377.966 166 373.497 170.312 367.575 170.312C361.622 170.312 357.184 165.984 357.2 158.688C357.184 151.375 361.622 147.062 367.575 147.062C373.497 147.062 377.966 151.375 377.95 158.688ZM361.294 158.688C361.278 163.859 363.888 166.656 367.575 166.656C371.278 166.656 373.872 163.859 373.856 158.688C373.872 153.516 371.278 150.719 367.575 150.719C363.888 150.719 361.278 153.516 361.294 158.688ZM387.975 170V147.375H392.038V157.781H392.35L401.194 147.375H406.163L397.413 157.531L406.256 170H401.35L394.569 160.281L392.038 163.25V170H387.975Z" fill="#ADB5BD"/>
<path d="M225.879 203.305V241.566H219.316V203.305H225.879ZM182.695 220.004C182.695 212.299 188.936 206.791 196.992 206.762C205.049 206.791 211.26 212.299 211.23 220.004C211.26 227.826 205.049 233.305 196.992 233.305C188.936 233.305 182.695 227.826 182.695 220.004ZM189.082 220.004C189.053 224.691 192.451 227.621 196.992 227.621C201.416 227.621 204.844 224.691 204.844 220.004C204.844 215.434 201.416 212.445 196.992 212.445C192.451 212.445 189.053 215.434 189.082 220.004ZM190.84 255.16V237.699H197.402V249.887H227.344V255.16H190.84ZM277.852 203.246V256.215H271.289V203.246H277.852ZM233.965 241.625C247.852 235.033 254.238 226.068 255.41 214.027H236.66V208.871H262.031C262.031 224.633 255.908 238.021 237.363 246.84L233.965 241.625ZM328.477 227.328V232.484H312.773V244.613H333.867V249.945H285.469V244.613H306.328V232.484H291.328V207.172H328.066V212.387H297.832V227.328H328.477ZM356.895 215.961C356.865 225.805 361.582 235.473 370.02 239.164L366.094 244.379C360.117 241.449 355.898 235.824 353.643 228.881C351.328 236.205 346.992 242.299 340.898 245.375L336.797 240.102C345.439 236.059 350.244 225.863 350.273 215.961V207.523H356.895V215.961ZM364.16 225.629V220.355H375.293V203.246H381.738V256.273H375.293V225.629H364.16Z" fill="white"/>
<path d="M931.209 3787H927.772V3764.38H931.209V3787ZM957.253 3787H954.097L942.628 3770.47H942.441V3787H939.003V3764.38H942.191L953.659 3780.94H953.878V3764.38H957.253V3787ZM965.078 3764.38H979.109V3767.34H968.516V3774.19H978.109V3777.12H968.516V3787H965.078V3764.38ZM1005.81 3775.69C1005.81 3778.05 1005.37 3780.11 1004.5 3781.88C1003.62 3783.62 1002.41 3784.97 1000.86 3785.91C999.315 3786.84 997.57 3787.31 995.622 3787.31C993.653 3787.31 991.893 3786.84 990.341 3785.91C988.799 3784.96 987.591 3783.61 986.716 3781.86C985.841 3780.1 985.403 3778.04 985.403 3775.69C985.403 3773.32 985.841 3771.27 986.716 3769.52C987.591 3767.76 988.799 3766.41 990.341 3765.47C991.893 3764.53 993.653 3764.06 995.622 3764.06C997.57 3764.06 999.315 3764.53 1000.86 3765.47C1002.41 3766.41 1003.62 3767.76 1004.5 3769.52C1005.37 3771.27 1005.81 3773.32 1005.81 3775.69ZM988.809 3775.69C988.809 3777.48 989.101 3779.02 989.684 3780.3C990.278 3781.57 991.085 3782.53 992.106 3783.19C993.137 3783.84 994.309 3784.17 995.622 3784.16C996.924 3784.17 998.085 3783.84 999.106 3783.19C1000.14 3782.53 1000.94 3781.57 1001.53 3780.3C1002.11 3779.02 1002.4 3777.48 1002.4 3775.69C1002.4 3773.9 1002.11 3772.36 1001.53 3771.09C1000.94 3769.81 1000.14 3768.84 999.106 3768.19C998.085 3767.53 996.924 3767.21 995.622 3767.22C994.309 3767.21 993.137 3767.53 992.106 3768.19C991.085 3768.84 990.278 3769.81 989.684 3771.09C989.101 3772.36 988.809 3773.9 988.809 3775.69ZM1025.2 3770.34C1025.09 3769.3 1024.62 3768.49 1023.77 3767.91C1022.93 3767.32 1021.85 3767.03 1020.54 3767.03C1019.63 3767.03 1018.84 3767.18 1018.15 3767.47C1017.47 3767.75 1016.95 3768.15 1016.57 3768.66C1016.2 3769.17 1016.01 3769.74 1016.01 3770.38C1016.01 3771.33 1016.41 3772.07 1017.2 3772.59C1017.99 3773.11 1018.97 3773.51 1020.13 3773.78L1022.32 3774.38C1026.67 3775.43 1028.84 3777.55 1028.85 3780.75C1028.84 3782.03 1028.5 3783.17 1027.84 3784.17C1027.18 3785.17 1026.22 3785.96 1024.95 3786.53C1023.69 3787.09 1022.19 3787.38 1020.45 3787.38C1018.77 3787.38 1017.31 3787.11 1016.06 3786.58C1014.82 3786.04 1013.84 3785.27 1013.13 3784.27C1012.44 3783.27 1012.05 3782.08 1011.98 3780.72H1015.42C1015.51 3781.91 1016.02 3782.81 1016.95 3783.44C1017.88 3784.05 1019.05 3784.36 1020.45 3784.38C1021.41 3784.38 1022.26 3784.22 1023.01 3783.92C1023.77 3783.61 1024.36 3783.18 1024.79 3782.62C1025.23 3782.06 1025.45 3781.42 1025.45 3780.69C1025.45 3780.06 1025.26 3779.54 1024.9 3779.11C1024.54 3778.68 1024.05 3778.33 1023.43 3778.06C1022.83 3777.78 1022.07 3777.52 1021.17 3777.28L1018.48 3776.56C1016.58 3776.04 1015.12 3775.29 1014.1 3774.31C1013.09 3773.33 1012.58 3772.08 1012.57 3770.56C1012.57 3769.28 1012.92 3768.15 1013.62 3767.17C1014.33 3766.18 1015.29 3765.42 1016.51 3764.88C1017.74 3764.33 1019.11 3764.06 1020.63 3764.06C1022.14 3764.06 1023.49 3764.33 1024.68 3764.88C1025.87 3765.41 1026.8 3766.15 1027.48 3767.11C1028.16 3768.06 1028.51 3769.14 1028.54 3770.34H1025.2ZM1035.74 3764.38H1049.93V3767.34H1039.18V3774.19H1049.18V3777.12H1039.18V3784.03H1050.05V3787H1035.74V3764.38ZM1056.22 3764.38H1073.75V3767.34H1066.72V3787H1063.28V3767.34H1056.22V3764.38ZM1091.47 3764.38H1094.9V3784.03H1105.12V3787H1091.47V3764.38ZM1115.29 3787H1111.85V3764.38H1115.29V3787ZM1123.08 3764.38H1131.37C1132.93 3764.38 1134.25 3764.63 1135.32 3765.14C1136.39 3765.65 1137.19 3766.35 1137.72 3767.25C1138.26 3768.15 1138.52 3769.17 1138.52 3770.31C1138.52 3771.64 1138.17 3772.69 1137.46 3773.48C1136.76 3774.27 1135.84 3774.8 1134.71 3775.09V3775.31C1135.49 3775.35 1136.24 3775.6 1136.96 3776.06C1137.68 3776.52 1138.26 3777.17 1138.71 3778C1139.17 3778.82 1139.4 3779.79 1139.4 3780.91C1139.4 3782.09 1139.12 3783.15 1138.57 3784.06C1138.02 3784.98 1137.17 3785.7 1136.02 3786.22C1134.88 3786.74 1133.45 3787 1131.74 3787H1123.08V3764.38ZM1131.43 3784.06C1132.98 3784.05 1134.13 3783.75 1134.87 3783.16C1135.62 3782.55 1135.99 3781.75 1135.99 3780.75C1135.99 3780.02 1135.81 3779.36 1135.44 3778.77C1135.08 3778.17 1134.56 3777.7 1133.88 3777.36C1133.21 3777.02 1132.44 3776.84 1131.55 3776.84H1126.52V3784.06H1131.43ZM1131.08 3774.16C1131.84 3774.15 1132.53 3773.99 1133.15 3773.7C1133.77 3773.41 1134.26 3773 1134.62 3772.47C1134.97 3771.93 1135.15 3771.3 1135.15 3770.59C1135.15 3769.61 1134.8 3768.82 1134.12 3768.22C1133.44 3767.61 1132.45 3767.31 1131.15 3767.31H1126.52V3774.16H1131.08ZM1146.28 3764.38H1154.35C1156.06 3764.38 1157.5 3764.67 1158.67 3765.27C1159.85 3765.86 1160.73 3766.69 1161.32 3767.75C1161.9 3768.81 1162.19 3770.05 1162.19 3771.47C1162.19 3773.01 1161.84 3774.33 1161.14 3775.44C1160.45 3776.53 1159.42 3777.34 1158.07 3777.86L1163.07 3787H1159.16L1154.57 3778.47H1154.35H1149.72V3787H1146.28V3764.38ZM1154 3775.5C1155.63 3775.49 1156.82 3775.15 1157.58 3774.47C1158.34 3773.78 1158.72 3772.78 1158.72 3771.47C1158.72 3770.15 1158.34 3769.12 1157.57 3768.41C1156.81 3767.69 1155.62 3767.32 1154 3767.31H1149.72V3775.5H1154ZM1167.48 3787L1175.61 3764.38H1179.58L1187.73 3787H1184.08L1182.02 3781.03H1173.2L1171.14 3787H1167.48ZM1181.02 3778.16L1177.67 3768.5H1177.52L1174.19 3778.16H1181.02ZM1193.81 3764.38H1201.87C1203.58 3764.38 1205.02 3764.67 1206.2 3765.27C1207.38 3765.86 1208.26 3766.69 1208.84 3767.75C1209.42 3768.81 1209.72 3770.05 1209.72 3771.47C1209.72 3773.01 1209.37 3774.33 1208.67 3775.44C1207.97 3776.53 1206.94 3777.34 1205.59 3777.86L1210.59 3787H1206.68L1202.09 3778.47H1201.87H1197.25V3787H1193.81V3764.38ZM1201.53 3775.5C1203.15 3775.49 1204.35 3775.15 1205.11 3774.47C1205.87 3773.78 1206.25 3772.78 1206.25 3771.47C1206.25 3770.15 1205.86 3769.12 1205.09 3768.41C1204.33 3767.69 1203.14 3767.32 1201.53 3767.31H1197.25V3775.5H1201.53ZM1218.07 3764.38L1223.95 3774.62H1224.2L1230.1 3764.38H1234.01L1225.79 3778.12V3787H1222.35V3778.12L1214.17 3764.38H1218.07Z" fill="#ADB5BD"/>
</g>
<defs>
<linearGradient id="paint0_linear_5346_14666" x1="138" y1="-2.52259e-05" x2="391.179" y2="1170.88" gradientUnits="userSpaceOnUse">
<stop stop-color="#B3071A"/>
<stop offset="1" stop-color="#8D121F"/>
</linearGradient>
<clipPath id="clip0_5346_14666">
<rect width="2160" height="3840" fill="white"/>
</clipPath>
</defs>
</svg>
