<svg width="1956" height="1286" viewBox="0 0 1956 1286" fill="none" xmlns="http://www.w3.org/2000/svg">
<path d="M1773.2 911.462L1673.8 968.238M1628.19 994.577L1673.8 968.238M1706.54 893.317L1804.77 949.508M1690.17 902.682L1788.4 958.873M1673.8 912.048L1772.03 968.238M1657.42 921.413L1755.65 977.603M1641.05 930.778L1739.28 986.968M1673.8 968.238L1722.91 996.333" stroke="#191F28" stroke-width="3" stroke-linecap="round" stroke-linejoin="round"/>
<g filter="url(#filter0_d_4376_10161)">
<path d="M560.522 13L53 303.317L806.097 734.111L593.266 855.857L1182.65 1193L1903 780.936L560.522 13Z" stroke="#191F28" stroke-width="10" stroke-linejoin="round" shape-rendering="crispEdges"/>
</g>
<path d="M1853.89 921.413L1755.66 865.223L1559.2 977.604L1657.43 1033.79L1853.89 921.413Z" stroke="#191F28" stroke-width="4" stroke-linejoin="round"/>
<path d="M1182.65 331.413L1002.56 434.429M1280.88 387.604L1100.79 490.619" stroke="#191F28" stroke-width="4" stroke-linecap="round" stroke-linejoin="round"/>
<path d="M1200.19 377.653L1100.79 434.428M1055.18 460.768L1100.79 434.428M1133.53 359.508L1231.76 415.698M1117.16 368.873L1215.39 425.063M1100.79 378.238L1199.02 434.428M1084.42 387.603L1182.65 443.794M1068.04 396.968L1166.27 453.159M1100.79 434.428L1149.9 462.524" stroke="#191F28" stroke-width="3" stroke-linecap="round" stroke-linejoin="round"/>
<path d="M887.956 687.286L806.098 734.111L969.814 827.762L1051.67 780.936L887.956 687.286Z" stroke="#191F28" stroke-width="4" stroke-linejoin="round"/>
<path d="M969.814 640.46L887.956 687.286L1051.67 780.937L1133.53 734.111L969.814 640.46Z" stroke="#191F28" stroke-width="4" stroke-linejoin="round"/>
<path d="M806.098 734.111L724.239 780.937L887.956 874.588L969.814 827.762L806.098 734.111Z" stroke="#191F28" stroke-width="4" stroke-linejoin="round"/>
<path d="M1510.08 780.937L1706.54 893.318L1903 780.937L1706.54 668.556L1510.08 780.937Z" stroke="#191F28" stroke-width="4" stroke-linejoin="round"/>
<path d="M1100.79 490.619L1231.76 565.54L1379.11 481.254L1248.13 406.333L1100.79 490.619Z" stroke="#191F28" stroke-width="4" stroke-linejoin="round"/>
<path d="M871.584 359.508L1002.56 434.429L1149.9 350.143L1018.93 275.222L871.584 359.508Z" stroke="#191F28" stroke-width="4" stroke-linejoin="round"/>
<path d="M1182.65 593.635L1510.08 780.936L1706.54 668.555L1379.11 481.254L1182.65 593.635Z" stroke="#191F28" stroke-width="4" stroke-linejoin="round"/>
<path d="M364.062 125.381L822.469 387.603L1018.93 275.222L560.522 13L364.062 125.381Z" stroke="#191F28" stroke-width="4" stroke-linejoin="round"/>
<path d="M364.062 125.381L53 303.318L560.522 593.635L871.584 415.699L675.124 303.318L364.062 125.381Z" stroke="#191F28" stroke-width="4" stroke-linejoin="round"/>
<path d="M969.814 640.46L1035.3 677.92L1117.16 631.095L1051.67 593.635L969.814 640.46Z" stroke="#191F28" stroke-width="4" stroke-linejoin="round"/>
<path d="M1182.65 1193L593.266 855.857L1051.67 593.635L1084.42 612.365L1149.9 574.905L1706.54 893.317L1182.65 1193Z" stroke="#191F28" stroke-width="4" stroke-linejoin="round"/>
<g filter="url(#filter1_f_4376_10161)">
<ellipse cx="1273" cy="966" rx="35" ry="10" fill="black" fill-opacity="0.25"/>
</g>
<path d="M1328 873.28C1328 903.81 1317.88 910.526 1273 966C1228.34 910.998 1218 903.81 1218 873.28C1218 842.75 1242.62 818 1273 818C1303.38 818 1328 842.75 1328 873.28Z" fill="url(#paint0_linear_4376_10161)"/>
<rect x="1235.07" y="835.465" width="75.8621" height="75.8974" rx="37.931" fill="white"/>
<path d="M1262.02 888.914L1261.98 884.23L1273.15 873.96C1276.05 871.189 1277.62 869.47 1277.62 867C1277.62 864.228 1275.53 862.509 1272.68 862.531C1269.75 862.509 1267.84 864.357 1267.86 867.343H1261.72C1261.7 861.263 1266.21 857.375 1272.76 857.375C1279.42 857.375 1283.85 861.177 1283.85 866.57C1283.85 870.115 1282.13 873.015 1275.73 878.816L1271 883.414V883.585H1284.28V888.914H1262.02Z" fill="#191F28"/>
<g filter="url(#filter2_f_4376_10161)">
<ellipse cx="763" cy="227" rx="35" ry="10" fill="black" fill-opacity="0.25"/>
</g>
<path d="M818 134.28C818 164.81 807.878 171.526 763 227C718.338 171.998 708 164.81 708 134.28C708 103.75 732.624 79 763 79C793.376 79 818 103.75 818 134.28Z" fill="url(#paint1_linear_4376_10161)"/>
<rect x="725.068" y="96.4648" width="75.8621" height="75.8974" rx="37.931" fill="white"/>
<path d="M768.542 149.914H762.054V124.949H761.882L754.749 129.417V123.703L762.44 118.804H768.542V149.914Z" fill="#191F28"/>
<path d="M681.898 19.2734C681.885 23.8828 680.57 27.7695 677.953 30.9336C675.349 34.0977 671.326 36.513 665.883 38.1797L664.398 35.1719C669.672 33.6484 673.415 31.3828 675.629 28.375L664.867 29.1953L664.281 26.1875L677.133 25.6406C677.536 24.6641 677.81 23.5443 677.953 22.2812H666.039V19.2734H681.898ZM669.867 39.2344H692.758V51.8906H669.867V39.2344ZM689.086 48.8828V42.2031H673.5V48.8828H689.086ZM681.781 26.4219H689.047V17.3594H692.758V37.4375H689.047V29.4688H681.781V26.4219ZM726.133 22.2031H721.016V31.0703H725.938V34.0781H700.273V31.0703H705.234V22.2031H700.117V19.1953H726.133V22.2031ZM697.109 37.75H729.141V40.7969H721.133V52.3203H717.461V40.7969H708.984V52.3203H705.195V40.7969H697.109V37.75ZM717.383 31.0703V22.2031H708.945V31.0703H717.383ZM759.898 52.3984H756.227V33.2969H749.273V30.25H756.227V17.3203H759.898V52.3984ZM732.32 20.4453H748.688V23.4531H736.07V30.25H747.203V33.2188H736.07V41.0312C739.208 41.0312 741.865 40.9661 744.039 40.8359C746.227 40.6927 748.427 40.4323 750.641 40.0547L751.031 43.0625C748.583 43.4531 746.161 43.7266 743.766 43.8828C741.37 44.026 738.466 44.1042 735.055 44.1172H732.32V20.4453ZM792.727 24.4297V24.8594C792.701 27.75 792.609 30.3021 792.453 32.5156C792.31 34.7161 791.971 37.2552 791.438 40.1328L787.805 39.7422C788.299 37.2031 788.625 34.8659 788.781 32.7305C788.938 30.582 789.016 28.3034 789.016 25.8945V24.4297V23.6875H767.57V20.6797H792.727V24.4297ZM764.289 44.5078H771.828V33.1797H775.539V44.5078H780.578V33.1797H784.211V44.5078H796.203V47.5938H764.289V44.5078ZM829.773 37.0078H821.531V41.0703H825.867V52.3203H822.117V44H801.414V41.0703H806.023V37.0078H797.859V34H829.773V37.0078ZM801.297 24.8594C801.297 23.4661 801.805 22.2617 802.82 21.2461C803.836 20.2174 805.281 19.4362 807.156 18.9023C809.044 18.3685 811.258 18.1016 813.797 18.1016C816.336 18.1016 818.543 18.3685 820.418 18.9023C822.293 19.4362 823.738 20.2174 824.754 21.2461C825.783 22.2617 826.297 23.4661 826.297 24.8594C826.297 26.2526 825.783 27.457 824.754 28.4727C823.738 29.4883 822.286 30.2695 820.398 30.8164C818.523 31.3503 816.323 31.6172 813.797 31.6172C811.258 31.6172 809.044 31.3503 807.156 30.8164C805.281 30.2695 803.836 29.4883 802.82 28.4727C801.805 27.457 801.297 26.2526 801.297 24.8594ZM805.125 24.8594C805.125 25.6667 805.47 26.3633 806.16 26.9492C806.85 27.5221 807.846 27.9648 809.148 28.2773C810.451 28.5768 812 28.7266 813.797 28.7266C815.581 28.7266 817.124 28.5768 818.426 28.2773C819.728 27.9648 820.724 27.5221 821.414 26.9492C822.117 26.3633 822.469 25.6667 822.469 24.8594C822.469 24.0651 822.124 23.3815 821.434 22.8086C820.743 22.2357 819.754 21.7995 818.465 21.5C817.176 21.1875 815.659 21.0312 813.914 21.0312C812.104 21.0312 810.535 21.181 809.207 21.4805C807.892 21.7799 806.883 22.2161 806.18 22.7891C805.477 23.362 805.125 24.0521 805.125 24.8594ZM817.898 41.0703V37.0078H809.734V41.0703H817.898ZM860.414 35.3281H856.742V17.3203H860.414V35.3281ZM831.547 32.2031C833.331 31.6042 834.887 30.7318 836.215 29.5859C837.556 28.4401 838.578 27.1185 839.281 25.6211C839.997 24.1237 840.362 22.5677 840.375 20.9531V18.2578H844.164V20.9531C844.164 22.5026 844.516 23.987 845.219 25.4062C845.922 26.8255 846.931 28.0755 848.246 29.1562C849.561 30.224 851.104 31.0312 852.875 31.5781L851.039 34.4688C849.008 33.8047 847.243 32.8151 845.746 31.5C844.249 30.1849 843.103 28.6289 842.309 26.832C841.501 28.7721 840.329 30.4648 838.793 31.9102C837.27 33.3555 835.479 34.4297 833.422 35.1328L831.547 32.2031ZM837.445 37.0078H860.453V45.7578H841.156V49H861.625V51.9688H837.562V42.9453H856.781V39.9375H837.445V37.0078Z" fill="#191F28"/>
<path d="M1384.57 641.133H1376.45V653.32H1372.7V641.133H1364.34V653.32H1360.51V641.133H1352.54V638.086H1384.57V641.133ZM1356.02 627.383C1356.02 625.833 1356.54 624.473 1357.58 623.301C1358.63 622.129 1360.1 621.23 1361.97 620.605C1363.86 619.967 1366.03 619.648 1368.48 619.648C1370.92 619.648 1373.09 619.967 1374.98 620.605C1376.87 621.23 1378.33 622.129 1379.38 623.301C1380.42 624.473 1380.94 625.833 1380.94 627.383C1380.94 628.919 1380.42 630.26 1379.38 631.406C1378.33 632.552 1376.87 633.438 1374.98 634.062C1373.09 634.674 1370.92 634.974 1368.48 634.961C1366.03 634.974 1363.86 634.674 1361.97 634.062C1360.1 633.438 1358.63 632.552 1357.58 631.406C1356.54 630.26 1356.02 628.919 1356.02 627.383ZM1359.84 627.383C1359.84 628.333 1360.2 629.16 1360.9 629.863C1361.61 630.553 1362.62 631.087 1363.93 631.465C1365.24 631.842 1366.76 632.031 1368.48 632.031C1370.21 632.031 1371.73 631.842 1373.03 631.465C1374.33 631.087 1375.34 630.553 1376.05 629.863C1376.78 629.16 1377.15 628.333 1377.15 627.383C1377.15 626.406 1376.78 625.566 1376.05 624.863C1375.34 624.147 1374.33 623.594 1373.03 623.203C1371.73 622.812 1370.21 622.617 1368.48 622.617C1366.74 622.617 1365.23 622.812 1363.93 623.203C1362.62 623.594 1361.61 624.147 1360.9 624.863C1360.2 625.579 1359.84 626.419 1359.84 627.383ZM1395.52 620.938C1397.26 620.938 1398.8 621.445 1400.15 622.461C1401.52 623.464 1402.59 624.896 1403.36 626.758C1404.12 628.607 1404.51 630.755 1404.51 633.203C1404.51 635.677 1404.12 637.845 1403.36 639.707C1402.59 641.569 1401.53 643.001 1400.17 644.004C1398.82 645.007 1397.27 645.508 1395.52 645.508C1393.78 645.508 1392.23 645.007 1390.88 644.004C1389.52 643.001 1388.47 641.569 1387.71 639.707C1386.96 637.845 1386.58 635.677 1386.58 633.203C1386.58 630.755 1386.96 628.607 1387.71 626.758C1388.47 624.896 1389.52 623.464 1390.88 622.461C1392.23 621.445 1393.78 620.938 1395.52 620.938ZM1390.13 633.203C1390.13 635.026 1390.35 636.615 1390.8 637.969C1391.25 639.323 1391.89 640.365 1392.71 641.094C1393.53 641.823 1394.47 642.188 1395.52 642.188C1396.6 642.188 1397.55 641.829 1398.38 641.113C1399.2 640.384 1399.83 639.342 1400.27 637.988C1400.73 636.621 1400.95 635.026 1400.95 633.203C1400.95 631.393 1400.73 629.818 1400.27 628.477C1399.83 627.122 1399.2 626.081 1398.38 625.352C1397.55 624.622 1396.6 624.258 1395.52 624.258C1394.47 624.258 1393.53 624.629 1392.71 625.371C1391.89 626.1 1391.25 627.142 1390.8 628.496C1390.35 629.837 1390.13 631.406 1390.13 633.203ZM1409.7 618.32H1413.41V632.031H1419.04V635.156H1413.41V653.32H1409.7V618.32ZM1447.96 629.18H1437.53V632.695H1451.71V635.703H1419.68V632.695H1433.86V629.18H1423.94V618.828H1427.57V626.172H1447.96V629.18ZM1423.59 638.281H1447.69V646.68H1427.38V649.961H1448.9V652.891H1423.66V644.023H1444.02V641.172H1423.59V638.281ZM1482.27 653.398H1478.56V618.32H1482.27V653.398ZM1454.5 633.203C1454.5 630.755 1454.88 628.607 1455.65 626.758C1456.42 624.896 1457.49 623.464 1458.86 622.461C1460.24 621.445 1461.8 620.938 1463.56 620.938C1465.29 620.938 1466.84 621.445 1468.21 622.461C1469.58 623.464 1470.65 624.896 1471.41 626.758C1472.2 628.607 1472.59 630.755 1472.59 633.203C1472.59 635.677 1472.2 637.845 1471.41 639.707C1470.65 641.569 1469.58 643.001 1468.21 644.004C1466.84 645.007 1465.29 645.508 1463.56 645.508C1461.8 645.508 1460.24 645.007 1458.86 644.004C1457.49 643.001 1456.42 641.569 1455.65 639.707C1454.88 637.845 1454.5 635.677 1454.5 633.203ZM1458.09 633.203C1458.09 635.026 1458.32 636.615 1458.78 637.969C1459.23 639.323 1459.87 640.365 1460.69 641.094C1461.52 641.823 1462.48 642.188 1463.56 642.188C1464.63 642.188 1465.57 641.823 1466.39 641.094C1467.21 640.365 1467.85 639.323 1468.31 637.969C1468.76 636.615 1468.99 635.026 1468.99 633.203C1468.99 631.406 1468.76 629.837 1468.31 628.496C1467.85 627.142 1467.21 626.1 1466.39 625.371C1465.57 624.629 1464.63 624.258 1463.56 624.258C1462.48 624.258 1461.52 624.629 1460.69 625.371C1459.87 626.1 1459.23 627.142 1458.78 628.496C1458.32 629.837 1458.09 631.406 1458.09 633.203ZM1502.64 640.312C1505.15 640.312 1507.34 640.573 1509.2 641.094C1511.07 641.602 1512.5 642.344 1513.5 643.32C1514.52 644.297 1515.02 645.456 1515.02 646.797C1515.02 648.138 1514.52 649.29 1513.5 650.254C1512.5 651.23 1511.07 651.973 1509.2 652.48C1507.34 652.988 1505.15 653.242 1502.64 653.242C1500.15 653.242 1497.98 652.988 1496.12 652.48C1494.27 651.973 1492.84 651.23 1491.84 650.254C1490.84 649.29 1490.34 648.138 1490.34 646.797C1490.34 645.456 1490.84 644.297 1491.84 643.32C1492.84 642.344 1494.27 641.602 1496.12 641.094C1497.97 640.573 1500.14 640.312 1502.64 640.312ZM1486.9 634.414H1499.67V627.852H1503.3V634.414H1518.73V637.422H1486.9V634.414ZM1490.61 620.039H1514.75V622.969V624.004C1514.75 625.514 1514.68 626.914 1514.55 628.203C1514.44 629.479 1514.18 630.833 1513.77 632.266L1510.14 631.875C1510.56 630.286 1510.82 628.861 1510.92 627.598C1511.03 626.322 1511.08 624.792 1511.08 623.008H1490.61V620.039ZM1494.05 646.797C1494.03 647.539 1494.37 648.184 1495.06 648.73C1495.77 649.264 1496.76 649.674 1498.05 649.961C1499.35 650.247 1500.88 650.391 1502.64 650.391C1504.42 650.391 1505.97 650.247 1507.27 649.961C1508.57 649.674 1509.57 649.264 1510.28 648.73C1510.98 648.184 1511.34 647.539 1511.35 646.797C1511.34 646.042 1510.98 645.391 1510.28 644.844C1509.57 644.284 1508.57 643.861 1507.27 643.574C1505.97 643.275 1504.42 643.125 1502.64 643.125C1500.88 643.125 1499.35 643.275 1498.05 643.574C1496.76 643.861 1495.77 644.284 1495.06 644.844C1494.37 645.391 1494.03 646.042 1494.05 646.797ZM1547.93 628.672H1553.01V631.758H1547.93V643.75H1544.18V618.32H1547.93V628.672ZM1520.39 636.953C1523.11 636.133 1525.48 635.085 1527.48 633.809C1529.5 632.52 1531.09 631.055 1532.27 629.414C1533.45 627.76 1534.16 625.977 1534.39 624.062H1521.88V620.977H1538.44C1538.44 623.997 1537.78 626.751 1536.46 629.238C1535.15 631.712 1533.26 633.854 1530.78 635.664C1528.32 637.461 1525.38 638.88 1521.95 639.922L1520.39 636.953ZM1525.7 641.133H1529.45V649.57H1549.38V652.578H1525.7V641.133Z" fill="#191F28"/>
<path d="M908.378 749.75H912.409V752.188H908.378V759.188H905.378V742.656H908.378V749.75ZM887.534 744.719H900.034V747.125H890.472V754.75C893.389 754.729 895.722 754.661 897.472 754.547C899.222 754.422 900.941 754.188 902.628 753.844L902.909 756.25C901.118 756.615 899.279 756.859 897.394 756.984C895.519 757.099 892.972 757.156 889.753 757.156H887.534V744.719ZM889.909 765.156C889.909 764.031 890.29 763.062 891.05 762.25C891.81 761.427 892.894 760.802 894.3 760.375C895.717 759.938 897.389 759.719 899.316 759.719C901.222 759.719 902.868 759.938 904.253 760.375C905.649 760.802 906.722 761.427 907.472 762.25C908.222 763.062 908.597 764.031 908.597 765.156C908.597 766.292 908.222 767.266 907.472 768.078C906.722 768.901 905.649 769.526 904.253 769.953C902.857 770.38 901.211 770.594 899.316 770.594C897.389 770.594 895.717 770.38 894.3 769.953C892.894 769.526 891.81 768.901 891.05 768.078C890.29 767.266 889.909 766.292 889.909 765.156ZM892.847 765.156C892.847 765.792 893.097 766.339 893.597 766.797C894.107 767.255 894.842 767.609 895.8 767.859C896.769 768.099 897.915 768.219 899.237 768.219C900.571 768.219 901.727 768.099 902.706 767.859C903.685 767.62 904.435 767.271 904.956 766.812C905.487 766.354 905.753 765.802 905.753 765.156C905.753 764.521 905.493 763.979 904.972 763.531C904.461 763.073 903.727 762.724 902.769 762.484C901.821 762.245 900.696 762.125 899.394 762.125C897.331 762.125 895.722 762.391 894.566 762.922C893.409 763.443 892.836 764.188 892.847 765.156ZM923.578 747.688C923.578 748.885 923.859 750.047 924.422 751.172C924.995 752.286 925.807 753.276 926.859 754.141C927.922 754.995 929.161 755.646 930.578 756.094L929.047 758.406C927.453 757.875 926.057 757.083 924.859 756.031C923.672 754.979 922.76 753.745 922.125 752.328C921.49 753.859 920.562 755.198 919.344 756.344C918.125 757.49 916.693 758.354 915.047 758.938L913.516 756.656C914.943 756.156 916.188 755.448 917.25 754.531C918.312 753.604 919.13 752.547 919.703 751.359C920.286 750.172 920.578 748.948 920.578 747.688V746.906H914.297V744.5H929.734V746.906H923.578V747.688ZM917.453 760.969H936.422V770.656H933.453V763.375H917.453V760.969ZM933.453 742.656H936.422V759.562H933.453V742.656ZM963.247 757.062H960.309V742.656H963.247V757.062ZM940.153 754.562C941.58 754.083 942.825 753.385 943.888 752.469C944.96 751.552 945.778 750.495 946.341 749.297C946.914 748.099 947.205 746.854 947.216 745.562V743.406H950.247V745.562C950.247 746.802 950.528 747.99 951.091 749.125C951.653 750.26 952.46 751.26 953.513 752.125C954.565 752.979 955.799 753.625 957.216 754.062L955.747 756.375C954.122 755.844 952.71 755.052 951.513 754C950.315 752.948 949.398 751.703 948.763 750.266C948.117 751.818 947.179 753.172 945.95 754.328C944.731 755.484 943.299 756.344 941.653 756.906L940.153 754.562ZM944.872 758.406H963.278V765.406H947.841V768H964.216V770.375H944.966V763.156H960.341V760.75H944.872V758.406Z" fill="#191F28"/>
<path d="M994.691 713.312H991.722V706.219H986.503V703.781H991.722V696.656H994.691V713.312ZM971.347 710.781C972.764 710.281 974.003 709.562 975.066 708.625C976.128 707.677 976.941 706.599 977.503 705.391C978.076 704.172 978.357 702.917 978.347 701.625V701H972.284V698.594H987.378V701H981.378V701.594C981.368 702.781 981.633 703.932 982.175 705.047C982.717 706.161 983.498 707.156 984.519 708.031C985.54 708.896 986.743 709.562 988.128 710.031L986.597 712.375C985.055 711.844 983.711 711.052 982.566 710C981.43 708.938 980.55 707.698 979.925 706.281C979.31 707.865 978.399 709.255 977.191 710.453C975.982 711.651 974.555 712.552 972.909 713.156L971.347 710.781ZM975.847 719.375C975.847 718.271 976.222 717.328 976.972 716.547C977.732 715.755 978.821 715.151 980.237 714.734C981.665 714.307 983.357 714.094 985.316 714.094C987.264 714.094 988.946 714.307 990.362 714.734C991.779 715.151 992.868 715.755 993.628 716.547C994.399 717.328 994.784 718.271 994.784 719.375C994.784 720.479 994.399 721.422 993.628 722.203C992.868 722.995 991.779 723.599 990.362 724.016C988.946 724.443 987.264 724.656 985.316 724.656C983.357 724.656 981.665 724.443 980.237 724.016C978.821 723.599 977.732 722.995 976.972 722.203C976.222 721.422 975.847 720.479 975.847 719.375ZM978.784 719.375C978.774 720.323 979.342 721.057 980.487 721.578C981.644 722.089 983.253 722.333 985.316 722.312C987.357 722.333 988.951 722.089 990.097 721.578C991.253 721.057 991.836 720.323 991.847 719.375C991.836 718.438 991.264 717.708 990.128 717.188C989.003 716.667 987.43 716.406 985.409 716.406C983.305 716.406 981.67 716.661 980.503 717.172C979.347 717.682 978.774 718.417 978.784 719.375ZM1021.45 724.719H1018.48V696.656H1021.45V724.719ZM999.766 699.188H1012.89V709.406H1002.83V715.531C1005.26 715.521 1007.5 715.443 1009.56 715.297C1011.64 715.151 1013.79 714.896 1016.02 714.531L1016.3 716.969C1013.97 717.354 1011.72 717.62 1009.53 717.766C1007.34 717.911 1004.89 717.99 1002.17 718H999.797V707.031H1009.86V701.594H999.766V699.188ZM1048.25 711.062H1045.31V696.656H1048.25V711.062ZM1025.15 708.562C1026.58 708.083 1027.83 707.385 1028.89 706.469C1029.96 705.552 1030.78 704.495 1031.34 703.297C1031.91 702.099 1032.21 700.854 1032.22 699.562V697.406H1035.25V699.562C1035.25 700.802 1035.53 701.99 1036.09 703.125C1036.65 704.26 1037.46 705.26 1038.51 706.125C1039.56 706.979 1040.8 707.625 1042.22 708.062L1040.75 710.375C1039.12 709.844 1037.71 709.052 1036.51 708C1035.31 706.948 1034.4 705.703 1033.76 704.266C1033.12 705.818 1032.18 707.172 1030.95 708.328C1029.73 709.484 1028.3 710.344 1026.65 710.906L1025.15 708.562ZM1029.87 712.406H1048.28V719.406H1032.84V722H1049.22V724.375H1029.97V717.156H1045.34V714.75H1029.87V712.406Z" fill="#191F28"/>
<path d="M969.219 352.375H973.438V354.875H969.219V368.656H966.25V340.656H969.219V352.375ZM946.938 361.031C950.115 361.031 952.594 361.005 954.375 360.953V358.109C953.323 357.953 952.401 357.646 951.609 357.188C950.828 356.729 950.224 356.146 949.797 355.438C949.38 354.719 949.177 353.917 949.188 353.031C949.177 351.99 949.448 351.073 950 350.281C950.562 349.49 951.349 348.875 952.359 348.438C953.38 348 954.552 347.781 955.875 347.781C957.188 347.781 958.354 348 959.375 348.438C960.396 348.875 961.193 349.49 961.766 350.281C962.339 351.073 962.625 351.99 962.625 353.031C962.625 353.917 962.406 354.719 961.969 355.438C961.531 356.146 960.911 356.734 960.109 357.203C959.318 357.661 958.396 357.964 957.344 358.109V360.844C960.094 360.708 962.531 360.49 964.656 360.188L964.844 362.375C962.312 362.823 959.693 363.125 956.984 363.281C954.286 363.427 951.443 363.5 948.453 363.5H947.406L946.938 361.031ZM947.469 343.969H954.375V340.719H957.344V343.969H964.25V346.344H947.469V343.969ZM951.969 353.031C951.969 353.615 952.13 354.125 952.453 354.562C952.776 354.99 953.224 355.323 953.797 355.562C954.38 355.792 955.057 355.906 955.828 355.906C957.026 355.906 957.979 355.651 958.688 355.141C959.406 354.63 959.771 353.927 959.781 353.031C959.781 352.438 959.615 351.922 959.281 351.484C958.958 351.036 958.5 350.693 957.906 350.453C957.323 350.214 956.646 350.094 955.875 350.094C955.094 350.094 954.406 350.214 953.812 350.453C953.229 350.693 952.776 351.036 952.453 351.484C952.13 351.922 951.969 352.438 951.969 353.031ZM983.919 345.812C983.908 347 984.169 348.135 984.7 349.219C985.242 350.292 986.018 351.245 987.028 352.078C988.039 352.901 989.242 353.531 990.638 353.969L989.231 356.281C987.658 355.781 986.294 355.031 985.138 354.031C983.992 353.031 983.106 351.854 982.481 350.5C981.867 352.052 980.955 353.406 979.747 354.562C978.539 355.708 977.106 356.573 975.45 357.156L973.919 354.781C975.346 354.312 976.591 353.625 977.653 352.719C978.716 351.812 979.528 350.766 980.091 349.578C980.653 348.391 980.94 347.146 980.95 345.844V345.062H974.794V342.656H989.95V345.062H983.919V345.812ZM977.7 363.344C977.7 362.26 978.075 361.328 978.825 360.547C979.585 359.766 980.669 359.172 982.075 358.766C983.492 358.359 985.169 358.156 987.106 358.156C989.023 358.156 990.674 358.359 992.059 358.766C993.455 359.172 994.523 359.766 995.263 360.547C996.013 361.328 996.388 362.26 996.388 363.344C996.388 364.448 996.013 365.391 995.263 366.172C994.523 366.964 993.455 367.562 992.059 367.969C990.674 368.385 989.023 368.594 987.106 368.594C985.169 368.594 983.492 368.385 982.075 367.969C980.669 367.562 979.585 366.964 978.825 366.172C978.075 365.391 977.7 364.448 977.7 363.344ZM980.669 363.344C980.658 364.271 981.21 364.99 982.325 365.5C983.45 366 985.013 366.25 987.013 366.25C989.065 366.25 990.658 366 991.794 365.5C992.929 365 993.492 364.281 993.481 363.344C993.492 362.438 992.945 361.74 991.841 361.25C990.736 360.75 989.19 360.5 987.2 360.5C985.127 360.5 983.518 360.745 982.372 361.234C981.226 361.724 980.658 362.427 980.669 363.344ZM993.169 340.656H996.138V347.594H1000.2V350.031H996.138V357.469H993.169V340.656ZM1024.18 355.062H1021.24V340.656H1024.18V355.062ZM1001.09 352.562C1002.51 352.083 1003.76 351.385 1004.82 350.469C1005.89 349.552 1006.71 348.495 1007.28 347.297C1007.85 346.099 1008.14 344.854 1008.15 343.562V341.406H1011.18V343.562C1011.18 344.802 1011.46 345.99 1012.03 347.125C1012.59 348.26 1013.39 349.26 1014.45 350.125C1015.5 350.979 1016.73 351.625 1018.15 352.062L1016.68 354.375C1015.06 353.844 1013.64 353.052 1012.45 352C1011.25 350.948 1010.33 349.703 1009.7 348.266C1009.05 349.818 1008.11 351.172 1006.88 352.328C1005.67 353.484 1004.23 354.344 1002.59 354.906L1001.09 352.562ZM1005.81 356.406H1024.21V363.406H1008.78V366H1025.15V368.375H1005.9V361.156H1021.28V358.75H1005.81V356.406ZM1029.54 357.375C1029.55 354.49 1029.94 351.812 1030.72 349.344C1031.52 346.865 1032.66 344.552 1034.16 342.406H1037.22C1036.5 343.458 1035.81 344.812 1035.16 346.469C1034.52 348.115 1034 349.896 1033.6 351.812C1033.2 353.729 1033.01 355.583 1033.01 357.375C1033.01 359.167 1033.2 361.026 1033.6 362.953C1034 364.87 1034.52 366.656 1035.16 368.312C1035.81 369.969 1036.5 371.323 1037.22 372.375H1034.16C1032.66 370.219 1031.52 367.901 1030.72 365.422C1029.94 362.943 1029.55 360.26 1029.54 357.375ZM1046.08 342.75C1047.35 342.76 1048.49 343.115 1049.5 343.812C1050.52 344.5 1051.35 345.479 1051.97 346.75H1058.89V340.656H1061.83V368.719H1058.89V357.969H1052.18C1051.57 359.385 1050.74 360.484 1049.68 361.266C1048.62 362.036 1047.43 362.417 1046.08 362.406C1044.7 362.406 1043.46 362.005 1042.38 361.203C1041.31 360.401 1040.47 359.255 1039.86 357.766C1039.27 356.276 1038.98 354.542 1038.99 352.562C1038.98 350.604 1039.27 348.885 1039.86 347.406C1040.47 345.917 1041.31 344.771 1042.38 343.969C1043.46 343.156 1044.7 342.75 1046.08 342.75ZM1041.8 352.562C1041.8 354.021 1041.98 355.292 1042.33 356.375C1042.7 357.458 1043.2 358.292 1043.85 358.875C1044.49 359.458 1045.24 359.75 1046.08 359.75C1046.93 359.75 1047.67 359.458 1048.32 358.875C1048.96 358.292 1049.46 357.458 1049.82 356.375C1050.18 355.292 1050.36 354.021 1050.36 352.562C1050.36 351.125 1050.18 349.87 1049.82 348.797C1049.45 347.714 1048.95 346.88 1048.3 346.297C1047.66 345.703 1046.93 345.406 1046.08 345.406C1045.24 345.406 1044.49 345.703 1043.85 346.297C1043.21 346.88 1042.71 347.714 1042.35 348.797C1041.98 349.87 1041.8 351.125 1041.8 352.562ZM1052.82 349.188C1053.06 350.312 1053.18 351.438 1053.18 352.562C1053.18 353.615 1053.08 354.604 1052.89 355.531H1058.89V349.188H1052.82ZM1073.03 357.375C1073.02 360.26 1072.62 362.943 1071.83 365.422C1071.05 367.901 1069.91 370.219 1068.41 372.375H1065.34C1066.07 371.323 1066.76 369.969 1067.41 368.312C1068.05 366.656 1068.57 364.87 1068.97 362.953C1069.36 361.026 1069.56 359.167 1069.56 357.375C1069.56 355.583 1069.36 353.729 1068.97 351.812C1068.57 349.896 1068.05 348.115 1067.41 346.469C1066.76 344.812 1066.07 343.458 1065.34 342.406H1068.41C1069.91 344.552 1071.05 346.865 1071.83 349.344C1072.62 351.812 1073.02 354.49 1073.03 357.375Z" fill="#191F28"/>
<path d="M1198.22 483.375H1202.44V485.875H1198.22V499.656H1195.25V471.656H1198.22V483.375ZM1175.94 492.031C1179.11 492.031 1181.59 492.005 1183.38 491.953V489.109C1182.32 488.953 1181.4 488.646 1180.61 488.188C1179.83 487.729 1179.22 487.146 1178.8 486.438C1178.38 485.719 1178.18 484.917 1178.19 484.031C1178.18 482.99 1178.45 482.073 1179 481.281C1179.56 480.49 1180.35 479.875 1181.36 479.438C1182.38 479 1183.55 478.781 1184.88 478.781C1186.19 478.781 1187.35 479 1188.38 479.438C1189.4 479.875 1190.19 480.49 1190.77 481.281C1191.34 482.073 1191.62 482.99 1191.62 484.031C1191.62 484.917 1191.41 485.719 1190.97 486.438C1190.53 487.146 1189.91 487.734 1189.11 488.203C1188.32 488.661 1187.4 488.964 1186.34 489.109V491.844C1189.09 491.708 1191.53 491.49 1193.66 491.188L1193.84 493.375C1191.31 493.823 1188.69 494.125 1185.98 494.281C1183.29 494.427 1180.44 494.5 1177.45 494.5H1176.41L1175.94 492.031ZM1176.47 474.969H1183.38V471.719H1186.34V474.969H1193.25V477.344H1176.47V474.969ZM1180.97 484.031C1180.97 484.615 1181.13 485.125 1181.45 485.562C1181.78 485.99 1182.22 486.323 1182.8 486.562C1183.38 486.792 1184.06 486.906 1184.83 486.906C1186.03 486.906 1186.98 486.651 1187.69 486.141C1188.41 485.63 1188.77 484.927 1188.78 484.031C1188.78 483.438 1188.61 482.922 1188.28 482.484C1187.96 482.036 1187.5 481.693 1186.91 481.453C1186.32 481.214 1185.65 481.094 1184.88 481.094C1184.09 481.094 1183.41 481.214 1182.81 481.453C1182.23 481.693 1181.78 482.036 1181.45 482.484C1181.13 482.922 1180.97 483.438 1180.97 484.031ZM1212.92 476.812C1212.91 478 1213.17 479.135 1213.7 480.219C1214.24 481.292 1215.02 482.245 1216.03 483.078C1217.04 483.901 1218.24 484.531 1219.64 484.969L1218.23 487.281C1216.66 486.781 1215.29 486.031 1214.14 485.031C1212.99 484.031 1212.11 482.854 1211.48 481.5C1210.87 483.052 1209.96 484.406 1208.75 485.562C1207.54 486.708 1206.11 487.573 1204.45 488.156L1202.92 485.781C1204.35 485.312 1205.59 484.625 1206.65 483.719C1207.72 482.812 1208.53 481.766 1209.09 480.578C1209.65 479.391 1209.94 478.146 1209.95 476.844V476.062H1203.79V473.656H1218.95V476.062H1212.92V476.812ZM1206.7 494.344C1206.7 493.26 1207.08 492.328 1207.83 491.547C1208.59 490.766 1209.67 490.172 1211.08 489.766C1212.49 489.359 1214.17 489.156 1216.11 489.156C1218.02 489.156 1219.67 489.359 1221.06 489.766C1222.46 490.172 1223.52 490.766 1224.26 491.547C1225.01 492.328 1225.39 493.26 1225.39 494.344C1225.39 495.448 1225.01 496.391 1224.26 497.172C1223.52 497.964 1222.46 498.562 1221.06 498.969C1219.67 499.385 1218.02 499.594 1216.11 499.594C1214.17 499.594 1212.49 499.385 1211.08 498.969C1209.67 498.562 1208.59 497.964 1207.83 497.172C1207.08 496.391 1206.7 495.448 1206.7 494.344ZM1209.67 494.344C1209.66 495.271 1210.21 495.99 1211.33 496.5C1212.45 497 1214.01 497.25 1216.01 497.25C1218.06 497.25 1219.66 497 1220.79 496.5C1221.93 496 1222.49 495.281 1222.48 494.344C1222.49 493.438 1221.94 492.74 1220.84 492.25C1219.74 491.75 1218.19 491.5 1216.2 491.5C1214.13 491.5 1212.52 491.745 1211.37 492.234C1210.23 492.724 1209.66 493.427 1209.67 494.344ZM1222.17 471.656H1225.14V478.594H1229.2V481.031H1225.14V488.469H1222.17V471.656ZM1253.18 486.062H1250.24V471.656H1253.18V486.062ZM1230.09 483.562C1231.51 483.083 1232.76 482.385 1233.82 481.469C1234.89 480.552 1235.71 479.495 1236.28 478.297C1236.85 477.099 1237.14 475.854 1237.15 474.562V472.406H1240.18V474.562C1240.18 475.802 1240.46 476.99 1241.03 478.125C1241.59 479.26 1242.39 480.26 1243.45 481.125C1244.5 481.979 1245.73 482.625 1247.15 483.062L1245.68 485.375C1244.06 484.844 1242.64 484.052 1241.45 483C1240.25 481.948 1239.33 480.703 1238.7 479.266C1238.05 480.818 1237.11 482.172 1235.88 483.328C1234.67 484.484 1233.23 485.344 1231.59 485.906L1230.09 483.562ZM1234.81 487.406H1253.21V494.406H1237.78V497H1254.15V499.375H1234.9V492.156H1250.28V489.75H1234.81V487.406ZM1258.54 488.375C1258.55 485.49 1258.94 482.812 1259.72 480.344C1260.52 477.865 1261.66 475.552 1263.16 473.406H1266.22C1265.5 474.458 1264.81 475.812 1264.16 477.469C1263.52 479.115 1263 480.896 1262.6 482.812C1262.2 484.729 1262.01 486.583 1262.01 488.375C1262.01 490.167 1262.2 492.026 1262.6 493.953C1263 495.87 1263.52 497.656 1264.16 499.312C1264.81 500.969 1265.5 502.323 1266.22 503.375H1263.16C1261.66 501.219 1260.52 498.901 1259.72 496.422C1258.94 493.943 1258.55 491.26 1258.54 488.375ZM1289.49 477.906H1293.58V480.375H1289.49V487.469H1286.52V471.688H1289.49V477.906ZM1268.77 473.062H1271.74V483.094C1275.87 483.062 1279.89 482.656 1283.8 481.875L1284.18 484.312C1281.96 484.76 1279.77 485.078 1277.63 485.266C1275.49 485.453 1273.3 485.552 1271.05 485.562H1268.77V473.062ZM1271.55 488.938H1289.49V499.281H1271.55V488.938ZM1286.61 496.906V491.25H1274.46V496.906H1286.61ZM1302.03 488.375C1302.02 491.26 1301.62 493.943 1300.83 496.422C1300.05 498.901 1298.91 501.219 1297.41 503.375H1294.34C1295.07 502.323 1295.76 500.969 1296.41 499.312C1297.05 497.656 1297.57 495.87 1297.97 493.953C1298.36 492.026 1298.56 490.167 1298.56 488.375C1298.56 486.583 1298.36 484.729 1297.97 482.812C1297.57 480.896 1297.05 479.115 1296.41 477.469C1295.76 475.812 1295.07 474.458 1294.34 473.406H1297.41C1298.91 475.552 1300.05 477.865 1300.83 480.344C1301.62 482.812 1302.02 485.49 1302.03 488.375Z" fill="#191F28"/>
<path d="M819.941 792.344V792.703C819.92 794.068 819.862 795.359 819.769 796.578C819.685 797.786 819.503 799.135 819.222 800.625L816.284 800.344C816.555 798.958 816.737 797.708 816.831 796.594C816.935 795.479 816.998 794.354 817.019 793.219H805.816V790.781H819.941V792.344ZM804.128 803.031C806.118 803.031 808.024 803.01 809.847 802.969V797.062H812.784V802.875C816.264 802.729 819.232 802.479 821.691 802.125L821.878 804.281C819.284 804.74 816.545 805.047 813.659 805.203C810.774 805.349 807.691 805.427 804.409 805.438L804.128 803.031ZM808.378 807.781H811.347V813.656H827.409V816.062H808.378V807.781ZM823.472 788.656H826.503V797.562H830.347V800.062H826.503V809.688H823.472V788.656ZM854.453 816.719H851.484V788.656H854.453V816.719ZM832.766 791.188H845.891V801.406H835.828V807.531C838.255 807.521 840.5 807.443 842.562 807.297C844.635 807.151 846.786 806.896 849.016 806.531L849.297 808.969C846.974 809.354 844.719 809.62 842.531 809.766C840.344 809.911 837.891 809.99 835.172 810H832.797V799.031H842.859V793.594H832.766V791.188ZM881.247 803.062H878.309V788.656H881.247V803.062ZM858.153 800.562C859.58 800.083 860.825 799.385 861.888 798.469C862.96 797.552 863.778 796.495 864.341 795.297C864.914 794.099 865.205 792.854 865.216 791.562V789.406H868.247V791.562C868.247 792.802 868.528 793.99 869.091 795.125C869.653 796.26 870.46 797.26 871.513 798.125C872.565 798.979 873.799 799.625 875.216 800.062L873.747 802.375C872.122 801.844 870.71 801.052 869.513 800C868.315 798.948 867.398 797.703 866.763 796.266C866.117 797.818 865.179 799.172 863.95 800.328C862.731 801.484 861.299 802.344 859.653 802.906L858.153 800.562ZM862.872 804.406H881.278V811.406H865.841V814H882.216V816.375H862.966V809.156H878.341V806.75H862.872V804.406Z" fill="#191F28"/>
<path d="M1182.07 758.938C1183.65 758.938 1185.07 759.367 1186.33 760.227C1187.59 761.086 1188.61 762.303 1189.39 763.879C1190.19 765.454 1190.68 767.31 1190.86 769.445H1198.09V756.32H1201.76V791.398H1198.09V772.453H1190.9C1190.77 774.706 1190.31 776.665 1189.53 778.332C1188.75 779.999 1187.71 781.281 1186.43 782.18C1185.14 783.065 1183.68 783.508 1182.07 783.508C1180.34 783.508 1178.8 783.007 1177.44 782.004C1176.1 781.001 1175.05 779.569 1174.3 777.707C1173.55 775.845 1173.19 773.677 1173.2 771.203C1173.19 768.755 1173.55 766.607 1174.3 764.758C1175.05 762.896 1176.1 761.464 1177.44 760.461C1178.8 759.445 1180.34 758.938 1182.07 758.938ZM1176.72 771.203C1176.72 773.026 1176.94 774.615 1177.38 775.969C1177.84 777.323 1178.47 778.365 1179.28 779.094C1180.08 779.823 1181.02 780.188 1182.07 780.188C1183.12 780.188 1184.06 779.823 1184.86 779.094C1185.67 778.365 1186.3 777.323 1186.74 775.969C1187.19 774.615 1187.42 773.026 1187.42 771.203C1187.42 769.406 1187.19 767.837 1186.74 766.496C1186.28 765.142 1185.65 764.1 1184.84 763.371C1184.05 762.629 1183.12 762.258 1182.07 762.258C1181.02 762.258 1180.08 762.629 1179.28 763.371C1178.48 764.1 1177.86 765.142 1177.4 766.496C1176.95 767.837 1176.72 769.406 1176.72 771.203ZM1235.13 782.102H1231.46V756.359H1235.13V782.102ZM1207.91 758.781H1224V769.211H1211.62V774.25C1215.11 774.224 1218.04 774.133 1220.41 773.977C1222.78 773.82 1225.18 773.521 1227.63 773.078L1228.02 776.125C1225.42 776.581 1222.85 776.887 1220.33 777.043C1217.8 777.199 1214.66 777.284 1210.91 777.297H1207.98V766.398H1220.33V761.75H1207.91V758.781ZM1212.01 780.07H1215.72V787.57H1236.11V790.578H1212.01V780.07ZM1268.7 791.398H1264.99V756.32H1268.7V791.398ZM1240.93 771.203C1240.93 768.755 1241.31 766.607 1242.08 764.758C1242.85 762.896 1243.92 761.464 1245.29 760.461C1246.67 759.445 1248.23 758.938 1249.99 758.938C1251.72 758.938 1253.27 759.445 1254.64 760.461C1256.01 761.464 1257.08 762.896 1257.84 764.758C1258.62 766.607 1259.02 768.755 1259.02 771.203C1259.02 773.677 1258.62 775.845 1257.84 777.707C1257.08 779.569 1256.01 781.001 1254.64 782.004C1253.27 783.007 1251.72 783.508 1249.99 783.508C1248.23 783.508 1246.67 783.007 1245.29 782.004C1243.92 781.001 1242.85 779.569 1242.08 777.707C1241.31 775.845 1240.93 773.677 1240.93 771.203ZM1244.52 771.203C1244.52 773.026 1244.75 774.615 1245.21 775.969C1245.66 777.323 1246.3 778.365 1247.12 779.094C1247.95 779.823 1248.91 780.188 1249.99 780.188C1251.06 780.188 1252 779.823 1252.82 779.094C1253.64 778.365 1254.28 777.323 1254.74 775.969C1255.19 774.615 1255.42 773.026 1255.42 771.203C1255.42 769.406 1255.19 767.837 1254.74 766.496C1254.28 765.142 1253.64 764.1 1252.82 763.371C1252 762.629 1251.06 762.258 1249.99 762.258C1248.91 762.258 1247.95 762.629 1247.12 763.371C1246.3 764.1 1245.66 765.142 1245.21 766.496C1244.75 767.837 1244.52 769.406 1244.52 771.203ZM1285.48 766.633C1285.48 768.469 1285.85 770.331 1286.61 772.219C1287.36 774.094 1288.42 775.799 1289.77 777.336C1291.14 778.859 1292.69 780.031 1294.42 780.852L1292.31 783.742C1290.39 782.818 1288.67 781.438 1287.16 779.602C1285.65 777.753 1284.49 775.669 1283.68 773.352C1282.87 775.865 1281.68 778.13 1280.11 780.148C1278.54 782.154 1276.78 783.651 1274.81 784.641L1272.62 781.711C1274.36 780.878 1275.92 779.654 1277.31 778.039C1278.72 776.411 1279.82 774.595 1280.61 772.59C1281.41 770.572 1281.8 768.586 1281.8 766.633V762.922H1273.91V759.836H1293.09V762.922H1285.48V766.633ZM1296.84 756.32H1300.55V770.188H1306.18V773.312H1300.55V791.32H1296.84V756.32ZM1338.89 787.141H1306.86V784.016H1315.61V777.844H1310.77V766.711H1331.31V761.828H1310.69V758.781H1334.98V769.719H1314.44V774.797H1335.8V777.844H1330.49V784.016H1338.89V787.141ZM1326.86 784.016V777.844H1319.2V784.016H1326.86ZM1369.41 774.328H1365.74V756.32H1369.41V774.328ZM1340.55 771.203C1342.33 770.604 1343.89 769.732 1345.21 768.586C1346.56 767.44 1347.58 766.118 1348.28 764.621C1349 763.124 1349.36 761.568 1349.38 759.953V757.258H1353.16V759.953C1353.16 761.503 1353.52 762.987 1354.22 764.406C1354.92 765.826 1355.93 767.076 1357.25 768.156C1358.56 769.224 1360.1 770.031 1361.88 770.578L1360.04 773.469C1358.01 772.805 1356.24 771.815 1354.75 770.5C1353.25 769.185 1352.1 767.629 1351.31 765.832C1350.5 767.772 1349.33 769.465 1347.79 770.91C1346.27 772.355 1344.48 773.43 1342.42 774.133L1340.55 771.203ZM1346.45 776.008H1369.45V784.758H1350.16V788H1370.62V790.969H1346.56V781.945H1365.78V778.938H1346.45V776.008Z" fill="#191F28"/>
<path d="M1020.61 624.375H1034.8V627.344H1024.05V634.188H1034.05V637.125H1024.05V644.031H1034.92V647H1020.61V624.375ZM1039.28 650.406H1036.31L1043.59 623.312H1046.56L1039.28 650.406ZM1056.89 642.781H1057.14L1063.42 624.375H1067.14L1058.98 647H1055.01L1046.89 624.375H1050.61L1056.89 642.781Z" fill="#191F28"/>
<path d="M1682.43 784.133H1674.3V796.32H1670.55V784.133H1662.19V796.32H1658.36V784.133H1650.39V781.086H1682.43V784.133ZM1653.87 770.383C1653.87 768.833 1654.39 767.473 1655.43 766.301C1656.49 765.129 1657.95 764.23 1659.83 763.605C1661.72 762.967 1663.88 762.648 1666.33 762.648C1668.78 762.648 1670.95 762.967 1672.84 763.605C1674.72 764.23 1676.19 765.129 1677.23 766.301C1678.27 767.473 1678.79 768.833 1678.79 770.383C1678.79 771.919 1678.27 773.26 1677.23 774.406C1676.19 775.552 1674.72 776.438 1672.84 777.062C1670.95 777.674 1668.78 777.974 1666.33 777.961C1663.88 777.974 1661.72 777.674 1659.83 777.062C1657.95 776.438 1656.49 775.552 1655.43 774.406C1654.39 773.26 1653.87 771.919 1653.87 770.383ZM1657.7 770.383C1657.7 771.333 1658.05 772.16 1658.75 772.863C1659.47 773.553 1660.48 774.087 1661.78 774.465C1663.1 774.842 1664.61 775.031 1666.33 775.031C1668.06 775.031 1669.58 774.842 1670.88 774.465C1672.18 774.087 1673.19 773.553 1673.91 772.863C1674.64 772.16 1675 771.333 1675 770.383C1675 769.406 1674.64 768.566 1673.91 767.863C1673.19 767.147 1672.18 766.594 1670.88 766.203C1669.58 765.812 1668.06 765.617 1666.33 765.617C1664.6 765.617 1663.08 765.812 1661.78 766.203C1660.48 766.594 1659.47 767.147 1658.75 767.863C1658.05 768.579 1657.7 769.419 1657.7 770.383ZM1693.38 763.938C1695.11 763.938 1696.65 764.445 1698.01 765.461C1699.38 766.464 1700.44 767.896 1701.21 769.758C1701.98 771.607 1702.36 773.755 1702.36 776.203C1702.36 778.677 1701.98 780.845 1701.21 782.707C1700.44 784.569 1699.38 786.001 1698.03 787.004C1696.67 788.007 1695.12 788.508 1693.38 788.508C1691.63 788.508 1690.08 788.007 1688.73 787.004C1687.38 786.001 1686.32 784.569 1685.57 782.707C1684.81 780.845 1684.43 778.677 1684.43 776.203C1684.43 773.755 1684.81 771.607 1685.57 769.758C1686.32 767.896 1687.38 766.464 1688.73 765.461C1690.08 764.445 1691.63 763.938 1693.38 763.938ZM1687.99 776.203C1687.99 778.026 1688.21 779.615 1688.65 780.969C1689.11 782.323 1689.75 783.365 1690.57 784.094C1691.39 784.823 1692.32 785.188 1693.38 785.188C1694.46 785.188 1695.41 784.829 1696.23 784.113C1697.05 783.384 1697.68 782.342 1698.12 780.988C1698.58 779.621 1698.81 778.026 1698.81 776.203C1698.81 774.393 1698.58 772.818 1698.12 771.477C1697.68 770.122 1697.05 769.081 1696.23 768.352C1695.41 767.622 1694.46 767.258 1693.38 767.258C1692.32 767.258 1691.39 767.629 1690.57 768.371C1689.75 769.1 1689.11 770.142 1688.65 771.496C1688.21 772.837 1687.99 774.406 1687.99 776.203ZM1707.56 761.32H1711.27V775.031H1716.89V778.156H1711.27V796.32H1707.56V761.32ZM1746.56 779.328H1742.89V761.32H1746.56V779.328ZM1717.69 776.203C1719.48 775.604 1721.03 774.732 1722.36 773.586C1723.7 772.44 1724.72 771.118 1725.43 769.621C1726.14 768.124 1726.51 766.568 1726.52 764.953V762.258H1730.31V764.953C1730.31 766.503 1730.66 767.987 1731.36 769.406C1732.07 770.826 1733.08 772.076 1734.39 773.156C1735.71 774.224 1737.25 775.031 1739.02 775.578L1737.18 778.469C1735.15 777.805 1733.39 776.815 1731.89 775.5C1730.39 774.185 1729.25 772.629 1728.45 770.832C1727.65 772.772 1726.47 774.465 1724.94 775.91C1723.41 777.355 1721.62 778.43 1719.57 779.133L1717.69 776.203ZM1723.59 781.008H1746.6V789.758H1727.3V793H1747.77V795.969H1723.71V786.945H1742.93V783.938H1723.59V781.008Z" fill="#191F28"/>
<defs>
<filter id="filter0_d_4376_10161" x="0" y="0" width="1956" height="1286" filterUnits="userSpaceOnUse" color-interpolation-filters="sRGB">
<feFlood flood-opacity="0" result="BackgroundImageFix"/>
<feColorMatrix in="SourceAlpha" type="matrix" values="0 0 0 0 0 0 0 0 0 0 0 0 0 0 0 0 0 0 127 0" result="hardAlpha"/>
<feOffset dy="40"/>
<feGaussianBlur stdDeviation="24"/>
<feComposite in2="hardAlpha" operator="out"/>
<feColorMatrix type="matrix" values="0 0 0 0 0 0 0 0 0 0 0 0 0 0 0 0 0 0 0.25 0"/>
<feBlend mode="normal" in2="BackgroundImageFix" result="effect1_dropShadow_4376_10161"/>
<feBlend mode="normal" in="SourceGraphic" in2="effect1_dropShadow_4376_10161" result="shape"/>
</filter>
<filter id="filter1_f_4376_10161" x="1233" y="951" width="80" height="30" filterUnits="userSpaceOnUse" color-interpolation-filters="sRGB">
<feFlood flood-opacity="0" result="BackgroundImageFix"/>
<feBlend mode="normal" in="SourceGraphic" in2="BackgroundImageFix" result="shape"/>
<feGaussianBlur stdDeviation="2.5" result="effect1_foregroundBlur_4376_10161"/>
</filter>
<filter id="filter2_f_4376_10161" x="723" y="212" width="80" height="30" filterUnits="userSpaceOnUse" color-interpolation-filters="sRGB">
<feFlood flood-opacity="0" result="BackgroundImageFix"/>
<feBlend mode="normal" in="SourceGraphic" in2="BackgroundImageFix" result="shape"/>
<feGaussianBlur stdDeviation="2.5" result="effect1_foregroundBlur_4376_10161"/>
</filter>
<linearGradient id="paint0_linear_4376_10161" x1="1304.7" y1="833.156" x2="1242.25" y2="940.663" gradientUnits="userSpaceOnUse">
<stop offset="0.144416" stop-color="#C41818"/>
<stop offset="1" stop-color="#072B24"/>
</linearGradient>
<linearGradient id="paint1_linear_4376_10161" x1="794.703" y1="94.1559" x2="732.25" y2="201.663" gradientUnits="userSpaceOnUse">
<stop offset="0.144416" stop-color="#C41818"/>
<stop offset="1" stop-color="#072B24"/>
</linearGradient>
</defs>
</svg>
