<svg width="1860" height="1190" viewBox="0 0 1860 1190" fill="none" xmlns="http://www.w3.org/2000/svg">
<path d="M1725.2 903.462L1625.8 960.238M1580.19 986.577L1625.8 960.238M1658.54 885.317L1756.77 941.508M1642.17 894.682L1740.4 950.873M1625.8 904.048L1724.03 960.238M1609.42 913.413L1707.65 969.603M1593.05 922.778L1691.28 978.968M1625.8 960.238L1674.91 988.333" stroke="white" stroke-width="3" stroke-linecap="round" stroke-linejoin="round"/>
<path d="M512.522 5L5 295.317L758.097 726.111L545.266 847.857L1134.65 1185L1855 772.936L512.522 5Z" stroke="white" stroke-width="10" stroke-linejoin="round"/>
<path d="M1805.89 913.413L1707.66 857.223L1511.2 969.604L1609.43 1025.79L1805.89 913.413Z" stroke="white" stroke-width="4" stroke-linejoin="round"/>
<path d="M1134.65 323.413L954.558 426.429M1232.88 379.604L1052.79 482.619" stroke="white" stroke-width="4" stroke-linecap="round" stroke-linejoin="round"/>
<path d="M1152.19 369.653L1052.79 426.428M1007.18 452.768L1052.79 426.428M1085.53 351.508L1183.76 407.698M1069.16 360.873L1167.39 417.063M1052.79 370.238L1151.02 426.428M1036.42 379.603L1134.65 435.794M1020.04 388.968L1118.27 445.159M1052.79 426.428L1101.9 454.524" stroke="white" stroke-width="3" stroke-linecap="round" stroke-linejoin="round"/>
<path d="M839.956 679.285L758.098 726.111L921.814 819.761L1003.67 772.936L839.956 679.285Z" stroke="white" stroke-width="4" stroke-linejoin="round"/>
<path d="M921.814 632.461L839.956 679.286L1003.67 772.937L1085.53 726.112L921.814 632.461Z" stroke="white" stroke-width="4" stroke-linejoin="round"/>
<path d="M758.098 726.111L676.239 772.937L839.956 866.588L921.814 819.762L758.098 726.111Z" stroke="white" stroke-width="4" stroke-linejoin="round"/>
<path d="M1462.08 772.937L1658.54 885.318L1855 772.937L1658.54 660.556L1462.08 772.937Z" stroke="white" stroke-width="4" stroke-linejoin="round"/>
<path d="M1052.79 482.619L1183.76 557.539L1331.11 473.254L1200.13 398.333L1052.79 482.619Z" stroke="white" stroke-width="4" stroke-linejoin="round"/>
<path d="M823.584 351.507L954.557 426.428L1101.9 342.142L970.929 267.222L823.584 351.507Z" stroke="white" stroke-width="4" stroke-linejoin="round"/>
<path d="M1134.65 585.635L1462.08 772.936L1658.54 660.555L1331.11 473.254L1134.65 585.635Z" stroke="white" stroke-width="4" stroke-linejoin="round"/>
<path d="M316.062 117.381L774.469 379.603L970.929 267.222L512.522 5L316.062 117.381Z" stroke="white" stroke-width="4" stroke-linejoin="round"/>
<path d="M316.062 117.381L5 295.317L512.522 585.634L823.584 407.698L627.124 295.317L316.062 117.381Z" stroke="white" stroke-width="4" stroke-linejoin="round"/>
<path d="M921.814 632.46L987.301 669.92L1069.16 623.095L1003.67 585.635L921.814 632.46Z" stroke="white" stroke-width="4" stroke-linejoin="round"/>
<path d="M1134.65 1185L545.266 847.858L1003.67 585.635L1036.42 604.366L1101.9 566.905L1658.54 885.318L1134.65 1185Z" stroke="white" stroke-width="4" stroke-linejoin="round"/>
<g filter="url(#filter0_f_4376_10118)">
<ellipse cx="1225" cy="958" rx="35" ry="10" fill="black" fill-opacity="0.25"/>
</g>
<path d="M1280 865.28C1280 895.81 1269.88 902.526 1225 958C1180.34 902.998 1170 895.81 1170 865.28C1170 834.75 1194.62 810 1225 810C1255.38 810 1280 834.75 1280 865.28Z" fill="url(#paint0_linear_4376_10118)"/>
<rect x="1187.07" y="827.465" width="75.8621" height="75.8974" rx="37.931" fill="white"/>
<path d="M1214.02 880.913L1213.98 876.229L1225.15 865.96C1228.05 863.188 1229.62 861.47 1229.62 858.999C1229.62 856.228 1227.53 854.509 1224.68 854.53C1221.75 854.509 1219.84 856.356 1219.86 859.343H1213.72C1213.7 853.263 1218.21 849.374 1224.76 849.374C1231.42 849.374 1235.85 853.177 1235.85 858.569C1235.85 862.114 1234.13 865.015 1227.73 870.815L1223 875.413V875.585H1236.28V880.913H1214.02Z" fill="#191F28"/>
<g filter="url(#filter1_f_4376_10118)">
<ellipse cx="715" cy="219" rx="35" ry="10" fill="black" fill-opacity="0.25"/>
</g>
<path d="M770 126.28C770 156.81 759.878 163.526 715 219C670.338 163.998 660 156.81 660 126.28C660 95.7495 684.624 71 715 71C745.376 71 770 95.7495 770 126.28Z" fill="url(#paint1_linear_4376_10118)"/>
<rect x="677.068" y="88.4648" width="75.8621" height="75.8974" rx="37.931" fill="white"/>
<path d="M720.542 141.913H714.054V116.948H713.882L706.749 121.417V115.702L714.44 110.804H720.542V141.913Z" fill="#191F28"/>
<path d="M633.898 11.2734C633.879 20.3359 628.957 26.7812 617.883 30.1797L616.398 27.1719C621.867 25.5898 625.5 23.2656 627.629 20.375L616.867 21.1953L616.281 18.1875L629.133 17.6406C629.562 16.5859 629.816 15.4531 629.953 14.2812H618.039V11.2734H633.898ZM621.867 43.8906V31.2344H644.758V43.8906H621.867ZM625.5 40.8828H641.086V34.2031H625.5V40.8828ZM633.781 21.4688V18.4219H641.047V9.35938H644.758V29.4375H641.047V21.4688H633.781ZM678.133 11.1953V14.2031H673.016V23.0703H677.938V26.0781H652.273V23.0703H657.234V14.2031H652.117V11.1953H678.133ZM649.109 32.7969V29.75H681.141V32.7969H673.133V44.3203H669.461V32.7969H660.984V44.3203H657.195V32.7969H649.109ZM660.945 23.0703H669.383V14.2031H660.945V23.0703ZM711.898 9.32031V44.3984H708.227V25.2969H701.273V22.25H708.227V9.32031H711.898ZM684.32 36.1172V12.4453H700.688V15.4531H688.07V22.25H699.203V25.2188H688.07V33.0312C693.93 33.0312 697.992 32.8555 702.641 32.0547L703.031 35.0625C697.934 35.8828 693.539 36.0977 687.055 36.1172H684.32ZM744.727 12.6797V16.4297C744.688 20.8242 744.688 25.4336 743.438 32.1328L739.805 31.7422C741.035 25.4141 741.035 20.7266 741.016 16.4297V15.6875H719.57V12.6797H744.727ZM716.289 39.5938V36.5078H723.828V25.1797H727.539V36.5078H732.578V25.1797H736.211V36.5078H748.203V39.5938H716.289ZM781.773 26V29.0078H773.531V33.0703H777.867V44.3203H774.117V36H753.414V33.0703H758.023V29.0078H749.859V26H781.773ZM753.297 16.8594C753.277 12.6211 758.141 10.082 765.797 10.1016C773.434 10.082 778.277 12.6211 778.297 16.8594C778.277 21.0781 773.434 23.6367 765.797 23.6172C758.141 23.6367 753.277 21.0781 753.297 16.8594ZM757.125 16.8594C757.105 19.3008 760.406 20.7266 765.797 20.7266C771.148 20.7266 774.488 19.3008 774.469 16.8594C774.488 14.4375 771.148 13.0117 765.797 13.0312C760.406 13.0117 757.105 14.4375 757.125 16.8594ZM761.734 33.0703H769.898V29.0078H761.734V33.0703ZM812.414 9.32031V27.3281H808.742V9.32031H812.414ZM783.547 24.2031C789.016 22.3867 792.355 17.7969 792.375 12.9531V10.2578H796.164V12.9531C796.145 17.6406 799.504 21.8984 804.875 23.5781L803.039 26.4688C798.957 25.1406 795.891 22.3867 794.309 18.832C792.727 22.6602 789.602 25.707 785.422 27.1328L783.547 24.2031ZM789.445 31.9375V29.0078H812.453V37.7578H793.156V41H813.625V43.9688H789.562V34.9453H808.781V31.9375H789.445Z" fill="white"/>
<path d="M1336.57 630.086V633.133H1328.45V645.32H1324.7V633.133H1316.34V645.32H1312.51V633.133H1304.54V630.086H1336.57ZM1308.02 619.383C1308.04 614.656 1313.07 611.648 1320.48 611.648C1327.88 611.648 1332.96 614.656 1332.94 619.383C1332.96 624.051 1327.88 627 1320.48 626.961C1313.07 627 1308.04 624.051 1308.02 619.383ZM1311.84 619.383C1311.82 622.254 1315.28 624.031 1320.48 624.031C1325.69 624.031 1329.13 622.254 1329.15 619.383C1329.13 616.434 1325.69 614.637 1320.48 614.617C1315.28 614.637 1311.82 616.434 1311.84 619.383ZM1347.52 612.938C1352.76 612.957 1356.49 617.723 1356.51 625.203C1356.49 632.762 1352.76 637.527 1347.52 637.508C1342.29 637.527 1338.56 632.762 1338.58 625.203C1338.56 617.723 1342.29 612.957 1347.52 612.938ZM1342.13 625.203C1342.11 630.77 1344.34 634.188 1347.52 634.188C1350.77 634.188 1352.95 630.77 1352.95 625.203C1352.95 619.715 1350.77 616.277 1347.52 616.258C1344.34 616.277 1342.11 619.715 1342.13 625.203ZM1361.7 645.32V610.32H1365.41V624.031H1371.04V627.156H1365.41V645.32H1361.7ZM1399.96 618.172V621.18H1389.53V624.695H1403.71V627.703H1371.68V624.695H1385.86V621.18H1375.94V610.828H1379.57V618.172H1399.96ZM1375.59 633.172V630.281H1399.69V638.68H1379.38V641.961H1400.9V644.891H1375.66V636.023H1396.02V633.172H1375.59ZM1434.27 610.32V645.398H1430.56V610.32H1434.27ZM1406.5 625.203C1406.5 617.723 1410.27 612.957 1415.56 612.938C1420.76 612.957 1424.59 617.723 1424.59 625.203C1424.59 632.762 1420.76 637.527 1415.56 637.508C1410.27 637.527 1406.5 632.762 1406.5 625.203ZM1410.09 625.203C1410.07 630.77 1412.3 634.188 1415.56 634.188C1418.77 634.188 1420.99 630.77 1420.99 625.203C1420.99 619.715 1418.77 616.277 1415.56 616.258C1412.3 616.277 1410.07 619.715 1410.09 625.203ZM1454.64 632.312C1462.22 632.312 1467 634.715 1467.02 638.797C1467 642.859 1462.22 645.262 1454.64 645.242C1447.14 645.262 1442.34 642.859 1442.34 638.797C1442.34 634.715 1447.14 632.312 1454.64 632.312ZM1438.9 629.422V626.414H1451.67V619.852H1455.3V626.414H1470.73V629.422H1438.9ZM1442.61 615.008V612.039H1466.75V614.969C1466.77 617.762 1466.77 620.652 1465.77 624.266L1462.14 623.875C1463.08 620.301 1463.08 617.723 1463.08 615.008H1442.61ZM1446.05 638.797C1446.01 641.062 1449.35 642.371 1454.64 642.391C1459.99 642.371 1463.31 641.062 1463.35 638.797C1463.31 636.492 1459.99 635.145 1454.64 635.125C1449.35 635.145 1446.01 636.492 1446.05 638.797ZM1499.93 610.32V620.672H1505.01V623.758H1499.93V635.75H1496.18V610.32H1499.93ZM1472.39 628.953C1480.59 626.492 1485.67 621.824 1486.39 616.062H1473.88V612.977H1490.44C1490.44 622.156 1484.19 628.816 1473.95 631.922L1472.39 628.953ZM1477.7 644.578V633.133H1481.45V641.57H1501.38V644.578H1477.7Z" fill="white"/>
<path d="M860.378 734.656V741.75H864.409V744.188H860.378V751.188H857.378V734.656H860.378ZM839.534 749.156V736.719H852.034V739.125H842.472V746.75C847.987 746.719 851.097 746.562 854.628 745.844L854.909 748.25C851.159 749.016 847.816 749.156 841.753 749.156H839.534ZM841.909 757.156C841.909 753.734 845.534 751.734 851.316 751.719C857.034 751.734 860.597 753.734 860.597 757.156C860.597 760.609 857.034 762.609 851.316 762.594C845.534 762.609 841.909 760.609 841.909 757.156ZM844.847 757.156C844.831 759.094 847.269 760.234 851.316 760.219C855.284 760.234 857.737 759.094 857.753 757.156C857.737 755.219 855.284 754.109 851.316 754.125C847.269 754.109 844.831 755.219 844.847 757.156ZM875.578 739.688C875.578 743.281 878.25 746.734 882.578 748.094L881.047 750.406C877.828 749.344 875.391 747.141 874.125 744.328C872.859 747.359 870.375 749.766 867.047 750.938L865.516 748.656C869.875 747.141 872.562 743.484 872.578 739.688V738.906H866.297V736.5H881.734V738.906H875.578V739.688ZM869.453 755.375V752.969H888.422V762.656H885.453V755.375H869.453ZM885.453 751.562V734.656H888.422V751.562H885.453ZM915.247 734.656V749.062H912.309V734.656H915.247ZM892.153 746.562C896.528 745.109 899.2 741.438 899.216 737.562V735.406H902.247V737.562C902.231 741.312 904.919 744.719 909.216 746.062L907.747 748.375C904.481 747.312 902.028 745.109 900.763 742.266C899.497 745.328 896.997 747.766 893.653 748.906L892.153 746.562ZM896.872 752.75V750.406H915.278V757.406H899.841V760H916.216V762.375H896.966V755.156H912.341V752.75H896.872Z" fill="white"/>
<path d="M946.691 688.656V705.312H943.722V698.219H938.503V695.781H943.722V688.656H946.691ZM923.347 702.781C927.691 701.266 930.362 697.484 930.347 693.625V693H924.284V690.594H939.378V693H933.378V693.594C933.362 697.141 935.894 700.594 940.128 702.031L938.597 704.375C935.456 703.297 933.144 701.047 931.925 698.281C930.706 701.406 928.253 703.922 924.909 705.156L923.347 702.781ZM927.847 711.375C927.831 708.047 931.425 706.109 937.316 706.094C943.175 706.109 946.769 708.047 946.784 711.375C946.769 714.703 943.175 716.641 937.316 716.656C931.425 716.641 927.831 714.703 927.847 711.375ZM930.784 711.375C930.769 713.266 933.206 714.344 937.316 714.312C941.394 714.344 943.831 713.266 943.847 711.375C943.831 709.469 941.394 708.391 937.316 708.406C933.206 708.391 930.769 709.469 930.784 711.375ZM973.453 688.656V716.719H970.484V688.656H973.453ZM951.766 693.594V691.188H964.891V701.406H954.828V707.531C959.375 707.516 963.328 707.297 968.016 706.531L968.297 708.969C963.344 709.797 959.125 709.984 954.172 710H951.797V699.031H961.859V693.594H951.766ZM1000.25 688.656V703.062H997.309V688.656H1000.25ZM977.153 700.562C981.528 699.109 984.2 695.438 984.216 691.562V689.406H987.247V691.562C987.231 695.312 989.919 698.719 994.216 700.062L992.747 702.375C989.481 701.312 987.028 699.109 985.763 696.266C984.497 699.328 981.997 701.766 978.653 702.906L977.153 700.562ZM981.872 706.75V704.406H1000.28V711.406H984.841V714H1001.22V716.375H981.966V709.156H997.341V706.75H981.872Z" fill="white"/>
<path d="M921.219 332.656V344.375H925.438V346.875H921.219V360.656H918.25V332.656H921.219ZM898.938 353.031C901.141 353.031 903.703 353.031 906.375 352.953V350.109C903.219 349.641 901.156 347.734 901.188 345.031C901.156 341.875 903.891 339.797 907.875 339.781C911.844 339.797 914.609 341.875 914.625 345.031C914.609 347.734 912.516 349.656 909.344 350.109V352.844C911.828 352.719 914.328 352.516 916.656 352.188L916.844 354.375C910.781 355.453 904.234 355.516 899.406 355.5L898.938 353.031ZM899.469 338.344V335.969H906.375V332.719H909.344V335.969H916.25V338.344H899.469ZM903.969 345.031C903.969 346.812 905.531 347.922 907.875 347.906C910.219 347.922 911.766 346.812 911.781 345.031C911.766 343.234 910.219 342.094 907.875 342.094C905.531 342.094 903.969 343.234 903.969 345.031ZM935.919 337.812C935.903 341.375 938.388 344.625 942.638 345.969L941.231 348.281C938.044 347.266 935.716 345.156 934.481 342.5C933.263 345.562 930.809 347.984 927.45 349.156L925.919 346.781C930.294 345.344 932.934 341.734 932.95 337.844V337.062H926.794V334.656H941.95V337.062H935.919V337.812ZM929.7 355.344C929.7 352.062 933.278 350.141 939.106 350.156C944.872 350.141 948.388 352.062 948.388 355.344C948.388 358.672 944.872 360.609 939.106 360.594C933.278 360.609 929.7 358.672 929.7 355.344ZM932.669 355.344C932.653 357.219 935.059 358.266 939.106 358.25C943.122 358.266 945.497 357.219 945.481 355.344C945.497 353.516 943.122 352.484 939.106 352.5C935.059 352.484 932.653 353.516 932.669 355.344ZM945.169 349.469V332.656H948.138V339.594H952.2V342.031H948.138V349.469H945.169ZM976.181 332.656V347.062H973.244V332.656H976.181ZM953.088 344.562C957.463 343.109 960.134 339.438 960.15 335.562V333.406H963.181V335.562C963.166 339.312 965.853 342.719 970.15 344.062L968.681 346.375C965.416 345.312 962.963 343.109 961.697 340.266C960.431 343.328 957.931 345.766 954.588 346.906L953.088 344.562ZM957.806 350.75V348.406H976.213V355.406H960.775V358H977.15V360.375H957.9V353.156H973.275V350.75H957.806ZM981.537 349.375C981.569 343.484 983.241 338.594 986.162 334.406H989.225C987.069 337.5 985.006 343.797 985.006 349.375C985.006 354.969 987.069 361.266 989.225 364.375H986.162C983.241 360.172 981.569 355.281 981.537 349.375ZM998.081 334.75C1000.64 334.766 1002.74 336.219 1003.97 338.75H1010.89V332.656H1013.83V360.719H1010.89V349.969H1004.18C1002.97 352.781 1000.78 354.422 998.081 354.406C993.909 354.422 990.956 350.609 990.988 344.562C990.956 338.578 993.909 334.766 998.081 334.75ZM993.8 344.562C993.816 349.016 995.55 351.75 998.081 351.75C1000.61 351.75 1002.35 349.016 1002.36 344.562C1002.35 340.172 1000.61 337.422 998.081 337.406C995.55 337.422 993.816 340.172 993.8 344.562ZM1004.82 341.188C1005.03 342.219 1005.18 343.344 1005.18 344.562C1005.18 345.625 1005.08 346.609 1004.89 347.531H1010.89V341.188H1004.82ZM1025.03 349.375C1025 355.281 1023.33 360.172 1020.41 364.375H1017.34C1019.5 361.266 1021.56 354.969 1021.56 349.375C1021.56 343.797 1019.5 337.5 1017.34 334.406H1020.41C1023.33 338.594 1025 343.484 1025.03 349.375Z" fill="white"/>
<path d="M1150.22 463.656V475.375H1154.44V477.875H1150.22V491.656H1147.25V463.656H1150.22ZM1127.94 484.031C1130.14 484.031 1132.7 484.031 1135.38 483.953V481.109C1132.22 480.641 1130.16 478.734 1130.19 476.031C1130.16 472.875 1132.89 470.797 1136.88 470.781C1140.84 470.797 1143.61 472.875 1143.62 476.031C1143.61 478.734 1141.52 480.656 1138.34 481.109V483.844C1140.83 483.719 1143.33 483.516 1145.66 483.188L1145.84 485.375C1139.78 486.453 1133.23 486.516 1128.41 486.5L1127.94 484.031ZM1128.47 469.344V466.969H1135.38V463.719H1138.34V466.969H1145.25V469.344H1128.47ZM1132.97 476.031C1132.97 477.812 1134.53 478.922 1136.88 478.906C1139.22 478.922 1140.77 477.812 1140.78 476.031C1140.77 474.234 1139.22 473.094 1136.88 473.094C1134.53 473.094 1132.97 474.234 1132.97 476.031ZM1164.92 468.812C1164.9 472.375 1167.39 475.625 1171.64 476.969L1170.23 479.281C1167.04 478.266 1164.72 476.156 1163.48 473.5C1162.26 476.562 1159.81 478.984 1156.45 480.156L1154.92 477.781C1159.29 476.344 1161.93 472.734 1161.95 468.844V468.062H1155.79V465.656H1170.95V468.062H1164.92V468.812ZM1158.7 486.344C1158.7 483.062 1162.28 481.141 1168.11 481.156C1173.87 481.141 1177.39 483.062 1177.39 486.344C1177.39 489.672 1173.87 491.609 1168.11 491.594C1162.28 491.609 1158.7 489.672 1158.7 486.344ZM1161.67 486.344C1161.65 488.219 1164.06 489.266 1168.11 489.25C1172.12 489.266 1174.5 488.219 1174.48 486.344C1174.5 484.516 1172.12 483.484 1168.11 483.5C1164.06 483.484 1161.65 484.516 1161.67 486.344ZM1174.17 480.469V463.656H1177.14V470.594H1181.2V473.031H1177.14V480.469H1174.17ZM1205.18 463.656V478.062H1202.24V463.656H1205.18ZM1182.09 475.562C1186.46 474.109 1189.13 470.438 1189.15 466.562V464.406H1192.18V466.562C1192.17 470.312 1194.85 473.719 1199.15 475.062L1197.68 477.375C1194.42 476.312 1191.96 474.109 1190.7 471.266C1189.43 474.328 1186.93 476.766 1183.59 477.906L1182.09 475.562ZM1186.81 481.75V479.406H1205.21V486.406H1189.78V489H1206.15V491.375H1186.9V484.156H1202.28V481.75H1186.81ZM1210.54 480.375C1210.57 474.484 1212.24 469.594 1215.16 465.406H1218.22C1216.07 468.5 1214.01 474.797 1214.01 480.375C1214.01 485.969 1216.07 492.266 1218.22 495.375H1215.16C1212.24 491.172 1210.57 486.281 1210.54 480.375ZM1241.49 463.688V469.906H1245.58V472.375H1241.49V479.469H1238.52V463.688H1241.49ZM1220.77 477.562V465.062H1223.74V475.094C1227.53 475.062 1231.49 474.734 1235.8 473.875L1236.18 476.312C1231.46 477.266 1227.18 477.547 1223.05 477.562H1220.77ZM1223.55 491.281V480.938H1241.49V491.281H1223.55ZM1226.46 488.906H1238.61V483.25H1226.46V488.906ZM1254.03 480.375C1254 486.281 1252.33 491.172 1249.41 495.375H1246.34C1248.5 492.266 1250.56 485.969 1250.56 480.375C1250.56 474.797 1248.5 468.5 1246.34 465.406H1249.41C1252.33 469.594 1254 474.484 1254.03 480.375Z" fill="white"/>
<path d="M771.941 782.781V784.344C771.909 786.219 771.909 789 771.222 792.625L768.284 792.344C768.894 789.25 768.987 786.984 769.019 785.219H757.816V782.781H771.941ZM756.128 795.031C757.847 795.031 759.8 795.016 761.847 794.969V789.062H764.784V794.875C767.784 794.75 770.878 794.531 773.691 794.125L773.878 796.281C768.034 797.312 761.347 797.422 756.409 797.438L756.128 795.031ZM760.378 808.062V799.781H763.347V805.656H779.409V808.062H760.378ZM775.472 801.688V780.656H778.503V789.562H782.347V792.062H778.503V801.688H775.472ZM806.453 780.656V808.719H803.484V780.656H806.453ZM784.766 785.594V783.188H797.891V793.406H787.828V799.531C792.375 799.516 796.328 799.297 801.016 798.531L801.297 800.969C796.344 801.797 792.125 801.984 787.172 802H784.797V791.031H794.859V785.594H784.766ZM833.247 780.656V795.062H830.309V780.656H833.247ZM810.153 792.562C814.528 791.109 817.2 787.438 817.216 783.562V781.406H820.247V783.562C820.231 787.312 822.919 790.719 827.216 792.062L825.747 794.375C822.481 793.312 820.028 791.109 818.763 788.266C817.497 791.328 814.997 793.766 811.653 794.906L810.153 792.562ZM814.872 798.75V796.406H833.278V803.406H817.841V806H834.216V808.375H814.966V801.156H830.341V798.75H814.872Z" fill="white"/>
<path d="M1134.07 750.938C1138.84 750.957 1142.29 754.98 1142.86 761.445H1150.09V748.32H1153.76V783.398H1150.09V764.453H1142.9C1142.49 771.289 1138.95 775.527 1134.07 775.508C1128.86 775.527 1125.16 770.762 1125.2 763.203C1125.16 755.723 1128.86 750.957 1134.07 750.938ZM1128.72 763.203C1128.74 768.77 1130.91 772.188 1134.07 772.188C1137.23 772.188 1139.4 768.77 1139.42 763.203C1139.4 757.715 1137.23 754.277 1134.07 754.258C1130.91 754.277 1128.74 757.715 1128.72 763.203ZM1187.13 748.359V774.102H1183.46V748.359H1187.13ZM1159.91 753.75V750.781H1176V761.211H1163.62V766.25C1170.04 766.211 1174.44 766.016 1179.63 765.078L1180.02 768.125C1174.52 769.082 1169.87 769.277 1162.91 769.297H1159.98V758.398H1172.33V753.75H1159.91ZM1164.01 782.578V772.07H1167.72V779.57H1188.11V782.578H1164.01ZM1220.7 748.32V783.398H1216.99V748.32H1220.7ZM1192.93 763.203C1192.93 755.723 1196.7 750.957 1201.99 750.938C1207.19 750.957 1211.02 755.723 1211.02 763.203C1211.02 770.762 1207.19 775.527 1201.99 775.508C1196.7 775.527 1192.93 770.762 1192.93 763.203ZM1196.52 763.203C1196.5 768.77 1198.73 772.188 1201.99 772.188C1205.2 772.188 1207.42 768.77 1207.42 763.203C1207.42 757.715 1205.2 754.277 1201.99 754.258C1198.73 754.277 1196.5 757.715 1196.52 763.203ZM1237.48 758.633C1237.46 764.16 1241.11 770.332 1246.42 772.852L1244.31 775.742C1240.39 773.867 1237.26 769.922 1235.68 765.352C1234.08 770.332 1230.8 774.648 1226.81 776.641L1224.62 773.711C1229.94 771.152 1233.79 764.551 1233.8 758.633V754.922H1225.91V751.836H1245.09V754.922H1237.48V758.633ZM1248.84 783.32V748.32H1252.55V762.188H1258.18V765.312H1252.55V783.32H1248.84ZM1290.89 776.016V779.141H1258.86V776.016H1267.61V769.844H1262.77V758.711H1283.31V753.828H1262.69V750.781H1286.98V761.719H1266.44V766.797H1287.8V769.844H1282.49V776.016H1290.89ZM1271.2 776.016H1278.86V769.844H1271.2V776.016ZM1321.41 748.32V766.328H1317.74V748.32H1321.41ZM1292.55 763.203C1298.02 761.387 1301.36 756.797 1301.38 751.953V749.258H1305.16V751.953C1305.14 756.641 1308.5 760.898 1313.88 762.578L1312.04 765.469C1307.96 764.141 1304.89 761.387 1303.31 757.832C1301.73 761.66 1298.6 764.707 1294.42 766.133L1292.55 763.203ZM1298.45 770.938V768.008H1321.45V776.758H1302.16V780H1322.62V782.969H1298.56V773.945H1317.78V770.938H1298.45Z" fill="white"/>
<path d="M972.612 639V616.375H986.8V619.344H976.05V626.188H986.05V629.125H976.05V636.031H986.925V639H972.612ZM998.562 615.312L991.281 642.406H988.312L995.594 615.312H998.562ZM1002.61 616.375L1008.89 634.781H1009.14L1015.42 616.375H1019.14L1010.98 639H1007.01L998.887 616.375H1002.61Z" fill="white"/>
<path d="M1634.43 773.086V776.133H1626.3V788.32H1622.55V776.133H1614.19V788.32H1610.36V776.133H1602.39V773.086H1634.43ZM1605.87 762.383C1605.89 757.656 1610.93 754.648 1618.33 754.648C1625.73 754.648 1630.81 757.656 1630.79 762.383C1630.81 767.051 1625.73 770 1618.33 769.961C1610.93 770 1605.89 767.051 1605.87 762.383ZM1609.7 762.383C1609.68 765.254 1613.14 767.031 1618.33 767.031C1623.55 767.031 1626.98 765.254 1627 762.383C1626.98 759.434 1623.55 757.637 1618.33 757.617C1613.14 757.637 1609.68 759.434 1609.7 762.383ZM1645.38 755.938C1650.61 755.957 1654.34 760.723 1654.36 768.203C1654.34 775.762 1650.61 780.527 1645.38 780.508C1640.14 780.527 1636.41 775.762 1636.43 768.203C1636.41 760.723 1640.14 755.957 1645.38 755.938ZM1639.99 768.203C1639.97 773.77 1642.2 777.188 1645.38 777.188C1648.62 777.188 1650.81 773.77 1650.81 768.203C1650.81 762.715 1648.62 759.277 1645.38 759.258C1642.2 759.277 1639.97 762.715 1639.99 768.203ZM1659.56 788.32V753.32H1663.27V767.031H1668.89V770.156H1663.27V788.32H1659.56ZM1698.56 753.32V771.328H1694.89V753.32H1698.56ZM1669.69 768.203C1675.16 766.387 1678.5 761.797 1678.52 756.953V754.258H1682.31V756.953C1682.29 761.641 1685.65 765.898 1691.02 767.578L1689.18 770.469C1685.1 769.141 1682.04 766.387 1680.45 762.832C1678.87 766.66 1675.75 769.707 1671.57 771.133L1669.69 768.203ZM1675.59 775.938V773.008H1698.6V781.758H1679.3V785H1699.77V787.969H1675.71V778.945H1694.93V775.938H1675.59Z" fill="white"/>
<defs>
<filter id="filter0_f_4376_10118" x="1185" y="943" width="80" height="30" filterUnits="userSpaceOnUse" color-interpolation-filters="sRGB">
<feFlood flood-opacity="0" result="BackgroundImageFix"/>
<feBlend mode="normal" in="SourceGraphic" in2="BackgroundImageFix" result="shape"/>
<feGaussianBlur stdDeviation="2.5" result="effect1_foregroundBlur_4376_10118"/>
</filter>
<filter id="filter1_f_4376_10118" x="675" y="204" width="80" height="30" filterUnits="userSpaceOnUse" color-interpolation-filters="sRGB">
<feFlood flood-opacity="0" result="BackgroundImageFix"/>
<feBlend mode="normal" in="SourceGraphic" in2="BackgroundImageFix" result="shape"/>
<feGaussianBlur stdDeviation="2.5" result="effect1_foregroundBlur_4376_10118"/>
</filter>
<linearGradient id="paint0_linear_4376_10118" x1="1256.7" y1="825.156" x2="1194.25" y2="932.663" gradientUnits="userSpaceOnUse">
<stop offset="0.144416" stop-color="#C41818"/>
<stop offset="1" stop-color="#072B24"/>
</linearGradient>
<linearGradient id="paint1_linear_4376_10118" x1="746.703" y1="86.1559" x2="684.25" y2="193.663" gradientUnits="userSpaceOnUse">
<stop offset="0.144416" stop-color="#C41818"/>
<stop offset="1" stop-color="#072B24"/>
</linearGradient>
</defs>
</svg>
