<svg width="1956" height="1406" viewBox="0 0 1956 1406" fill="none" xmlns="http://www.w3.org/2000/svg">
<path d="M1773.2 910.257L1673.8 966.957M1628.19 993.261L1673.8 966.957M1706.54 892.137L1804.77 948.252M1690.17 901.489L1788.4 957.604M1673.8 910.842L1772.03 966.957M1657.42 920.194L1755.65 976.309M1641.05 929.547L1739.28 985.662M1673.8 966.957L1722.91 995.014" stroke="#191F28" stroke-width="3" stroke-linecap="round" stroke-linejoin="round"/>
<g filter="url(#filter0_d_4107_10056)">
<path d="M560.522 13L53 302.928L806.097 733.144L380.434 976.309L969.814 1313L1903 779.906L560.522 13Z" stroke="#191F28" stroke-width="10" stroke-linejoin="round" shape-rendering="crispEdges"/>
</g>
<path d="M1853.89 920.194L1755.66 864.079L1559.2 976.309L1657.43 1032.42L1853.89 920.194Z" stroke="#191F28" stroke-width="4" stroke-linejoin="round"/>
<path d="M1182.65 330.985L1002.56 433.863M1280.88 387.1L1100.79 489.978" stroke="#191F28" stroke-width="4" stroke-linecap="round" stroke-linejoin="round"/>
<path d="M1200.19 377.163L1100.79 433.863M1055.18 460.167L1100.79 433.863M1133.53 359.043L1231.76 415.158M1117.16 368.395L1215.39 424.511M1100.79 377.748L1199.02 433.863M1084.41 387.101L1182.64 443.216M1068.04 396.453L1166.27 452.568M1100.79 433.863L1149.9 461.921" stroke="#191F28" stroke-width="3" stroke-linecap="round" stroke-linejoin="round"/>
<path d="M1117.16 480.626L1018.93 424.511L1002.56 433.863L1100.79 489.978L1117.16 480.626Z" fill="#D1D1D1"/>
<path d="M937.072 658.323L691.497 518.036L675.125 527.388L920.7 667.676L937.072 658.323Z" fill="#D1D1D1"/>
<path d="M1100.79 489.978L1231.76 564.798L1379.11 480.626L1248.13 405.806L1100.79 489.978Z" stroke="#191F28" stroke-width="4" stroke-linejoin="round"/>
<path d="M871.584 359.043L1002.56 433.863L1149.9 349.691L1018.93 274.871L871.584 359.043Z" stroke="#191F28" stroke-width="4" stroke-linejoin="round"/>
<path d="M560.522 13L53 302.928L560.522 592.856L920.699 387.101L871.584 359.043L1018.93 274.87L560.522 13Z" stroke="#191F28" stroke-width="4" stroke-linejoin="round"/>
<path d="M969.814 639.619L1035.3 677.029L1117.16 630.267L1051.67 592.856L969.814 639.619Z" stroke="#191F28" stroke-width="4" stroke-linejoin="round"/>
<path d="M969.814 1313L380.434 976.309L1051.67 592.856L1084.42 611.561L1199.02 546.094L1231.76 564.799L1379.11 480.626L1903 779.907L969.814 1313Z" stroke="#191F28" stroke-width="4" stroke-linejoin="round"/>
<g filter="url(#filter1_f_4107_10056)">
<ellipse cx="1173" cy="934" rx="35" ry="10" fill="black" fill-opacity="0.25"/>
</g>
<path d="M1228 841.28C1228 871.81 1217.88 878.526 1173 934C1128.34 878.998 1118 871.81 1118 841.28C1118 810.75 1142.62 786 1173 786C1203.38 786 1228 810.75 1228 841.28Z" fill="url(#paint0_linear_4107_10056)"/>
<rect x="1135.07" y="803.465" width="75.8621" height="75.8974" rx="37.931" fill="white"/>
<path d="M1162.02 856.914L1161.98 852.23L1173.15 841.961C1176.05 839.189 1177.62 837.471 1177.62 835C1177.62 832.229 1175.54 830.51 1172.68 830.531C1169.76 830.51 1167.84 832.357 1167.87 835.344H1161.72C1161.7 829.264 1166.21 825.375 1172.76 825.375C1179.42 825.375 1183.85 829.178 1183.85 834.57C1183.85 838.115 1182.13 841.016 1175.73 846.816L1171 851.414V851.586H1184.28V856.914H1162.02Z" fill="#191F28"/>
<g filter="url(#filter2_f_4107_10056)">
<ellipse cx="557" cy="353" rx="35" ry="10" fill="black" fill-opacity="0.25"/>
</g>
<path d="M612 260.28C612 290.81 601.878 297.526 557 353C512.338 297.998 502 290.81 502 260.28C502 229.75 526.624 205 557 205C587.376 205 612 229.75 612 260.28Z" fill="url(#paint1_linear_4107_10056)"/>
<rect x="519.068" y="222.465" width="75.8621" height="75.8974" rx="37.931" fill="white"/>
<path d="M562.543 275.914H556.055V250.949H555.883L548.75 255.418V249.703L556.441 244.805H562.543V275.914Z" fill="#191F28"/>
<path d="M486.758 164.141H483.047V155.273H476.523V152.227H483.047V143.32H486.758V164.141ZM457.578 160.977C459.349 160.352 460.898 159.453 462.227 158.281C463.555 157.096 464.57 155.749 465.273 154.238C465.99 152.715 466.341 151.146 466.328 149.531V148.75H458.75V145.742H477.617V148.75H470.117V149.492C470.104 150.977 470.436 152.415 471.113 153.809C471.79 155.202 472.767 156.445 474.043 157.539C475.319 158.62 476.823 159.453 478.555 160.039L476.641 162.969C474.714 162.305 473.034 161.315 471.602 160C470.182 158.672 469.082 157.122 468.301 155.352C467.533 157.331 466.393 159.069 464.883 160.566C463.372 162.064 461.589 163.19 459.531 163.945L457.578 160.977ZM463.203 171.719C463.203 170.339 463.672 169.16 464.609 168.184C465.56 167.194 466.921 166.439 468.691 165.918C470.475 165.384 472.591 165.117 475.039 165.117C477.474 165.117 479.577 165.384 481.348 165.918C483.118 166.439 484.479 167.194 485.43 168.184C486.393 169.16 486.875 170.339 486.875 171.719C486.875 173.099 486.393 174.277 485.43 175.254C484.479 176.243 483.118 176.999 481.348 177.52C479.577 178.053 477.474 178.32 475.039 178.32C472.591 178.32 470.475 178.053 468.691 177.52C466.921 176.999 465.56 176.243 464.609 175.254C463.672 174.277 463.203 173.099 463.203 171.719ZM466.875 171.719C466.862 172.904 467.572 173.822 469.004 174.473C470.449 175.111 472.461 175.417 475.039 175.391C477.591 175.417 479.583 175.111 481.016 174.473C482.461 173.822 483.19 172.904 483.203 171.719C483.19 170.547 482.474 169.635 481.055 168.984C479.648 168.333 477.682 168.008 475.156 168.008C472.526 168.008 470.482 168.327 469.023 168.965C467.578 169.603 466.862 170.521 466.875 171.719ZM523.18 173.984H491.148V170.898H505.25V163.711H494.82V145.703H498.531V151.719H515.719V145.703H519.391V163.711H508.922V170.898H523.18V173.984ZM515.719 160.703V154.727H498.531V160.703H515.719ZM537.57 152.227C537.557 154.336 537.941 156.413 538.723 158.457C539.517 160.501 540.617 162.318 542.023 163.906C543.443 165.482 545.044 166.667 546.828 167.461L544.602 170.391C542.609 169.44 540.845 168.034 539.309 166.172C537.772 164.31 536.587 162.174 535.754 159.766C534.934 162.37 533.736 164.668 532.16 166.66C530.598 168.652 528.781 170.156 526.711 171.172L524.445 168.047C526.255 167.253 527.87 166.035 529.289 164.395C530.708 162.741 531.815 160.853 532.609 158.73C533.417 156.595 533.82 154.427 533.82 152.227V146.25H537.57V152.227ZM549.992 143.32H553.703V178.398H549.992V143.32ZM576.062 148.281C576.062 150.13 576.655 151.927 577.84 153.672C579.025 155.417 580.6 156.908 582.566 158.145C584.546 159.368 586.648 160.182 588.875 160.586L587.156 163.672C585.281 163.268 583.491 162.604 581.785 161.68C580.079 160.755 578.562 159.629 577.234 158.301C575.919 156.96 574.891 155.482 574.148 153.867C573.393 155.469 572.352 156.94 571.023 158.281C569.695 159.609 568.178 160.736 566.473 161.66C564.767 162.585 562.977 163.255 561.102 163.672L559.461 160.586C561.661 160.169 563.732 159.349 565.672 158.125C567.625 156.888 569.194 155.404 570.379 153.672C571.564 151.927 572.156 150.13 572.156 148.281V145.625H576.062V148.281ZM558.289 170.625H590.32V173.711H558.289V170.625ZM606.742 148.594H596.977V152.383H605.375V155.273H596.977V159.453C599.398 159.427 601.443 159.355 603.109 159.238C604.789 159.121 606.495 158.906 608.227 158.594L608.578 161.523C606.664 161.888 604.776 162.129 602.914 162.246C601.065 162.363 598.656 162.422 595.688 162.422H593.422V145.547H606.742V148.594ZM598.305 165.898H621.703V177.891H598.305V165.898ZM618.07 174.883V168.828H602.016V174.883H618.07ZM606.977 151.992H611.312V143.906H614.828V164.062H611.312V155H606.977V151.992ZM618.188 143.32H621.703V164.336H618.188V143.32ZM654.414 161.328H650.742V143.32H654.414V161.328ZM625.547 158.203C627.331 157.604 628.887 156.732 630.215 155.586C631.556 154.44 632.578 153.118 633.281 151.621C633.997 150.124 634.362 148.568 634.375 146.953V144.258H638.164V146.953C638.164 148.503 638.516 149.987 639.219 151.406C639.922 152.826 640.931 154.076 642.246 155.156C643.561 156.224 645.104 157.031 646.875 157.578L645.039 160.469C643.008 159.805 641.243 158.815 639.746 157.5C638.249 156.185 637.103 154.629 636.309 152.832C635.501 154.772 634.329 156.465 632.793 157.91C631.27 159.355 629.479 160.43 627.422 161.133L625.547 158.203ZM631.445 163.008H654.453V171.758H635.156V175H655.625V177.969H631.562V168.945H650.781V165.938H631.445V163.008Z" fill="#191F28"/>
<path d="M969.219 351.375H973.438V353.875H969.219V367.656H966.25V339.656H969.219V351.375ZM946.938 360.031C950.115 360.031 952.594 360.005 954.375 359.953V357.109C953.323 356.953 952.401 356.646 951.609 356.188C950.828 355.729 950.224 355.146 949.797 354.438C949.38 353.719 949.177 352.917 949.188 352.031C949.177 350.99 949.448 350.073 950 349.281C950.562 348.49 951.349 347.875 952.359 347.438C953.38 347 954.552 346.781 955.875 346.781C957.188 346.781 958.354 347 959.375 347.438C960.396 347.875 961.193 348.49 961.766 349.281C962.339 350.073 962.625 350.99 962.625 352.031C962.625 352.917 962.406 353.719 961.969 354.438C961.531 355.146 960.911 355.734 960.109 356.203C959.318 356.661 958.396 356.964 957.344 357.109V359.844C960.094 359.708 962.531 359.49 964.656 359.188L964.844 361.375C962.312 361.823 959.693 362.125 956.984 362.281C954.286 362.427 951.443 362.5 948.453 362.5H947.406L946.938 360.031ZM947.469 342.969H954.375V339.719H957.344V342.969H964.25V345.344H947.469V342.969ZM951.969 352.031C951.969 352.615 952.13 353.125 952.453 353.562C952.776 353.99 953.224 354.323 953.797 354.562C954.38 354.792 955.057 354.906 955.828 354.906C957.026 354.906 957.979 354.651 958.688 354.141C959.406 353.63 959.771 352.927 959.781 352.031C959.781 351.438 959.615 350.922 959.281 350.484C958.958 350.036 958.5 349.693 957.906 349.453C957.323 349.214 956.646 349.094 955.875 349.094C955.094 349.094 954.406 349.214 953.812 349.453C953.229 349.693 952.776 350.036 952.453 350.484C952.13 350.922 951.969 351.438 951.969 352.031ZM983.919 344.812C983.908 346 984.169 347.135 984.7 348.219C985.242 349.292 986.018 350.245 987.028 351.078C988.039 351.901 989.242 352.531 990.638 352.969L989.231 355.281C987.658 354.781 986.294 354.031 985.138 353.031C983.992 352.031 983.106 350.854 982.481 349.5C981.867 351.052 980.955 352.406 979.747 353.562C978.539 354.708 977.106 355.573 975.45 356.156L973.919 353.781C975.346 353.312 976.591 352.625 977.653 351.719C978.716 350.812 979.528 349.766 980.091 348.578C980.653 347.391 980.94 346.146 980.95 344.844V344.062H974.794V341.656H989.95V344.062H983.919V344.812ZM977.7 362.344C977.7 361.26 978.075 360.328 978.825 359.547C979.585 358.766 980.669 358.172 982.075 357.766C983.492 357.359 985.169 357.156 987.106 357.156C989.023 357.156 990.674 357.359 992.059 357.766C993.455 358.172 994.523 358.766 995.263 359.547C996.013 360.328 996.388 361.26 996.388 362.344C996.388 363.448 996.013 364.391 995.263 365.172C994.523 365.964 993.455 366.562 992.059 366.969C990.674 367.385 989.023 367.594 987.106 367.594C985.169 367.594 983.492 367.385 982.075 366.969C980.669 366.562 979.585 365.964 978.825 365.172C978.075 364.391 977.7 363.448 977.7 362.344ZM980.669 362.344C980.658 363.271 981.21 363.99 982.325 364.5C983.45 365 985.013 365.25 987.013 365.25C989.065 365.25 990.658 365 991.794 364.5C992.929 364 993.492 363.281 993.481 362.344C993.492 361.438 992.945 360.74 991.841 360.25C990.736 359.75 989.19 359.5 987.2 359.5C985.127 359.5 983.518 359.745 982.372 360.234C981.226 360.724 980.658 361.427 980.669 362.344ZM993.169 339.656H996.138V346.594H1000.2V349.031H996.138V356.469H993.169V339.656ZM1024.18 354.062H1021.24V339.656H1024.18V354.062ZM1001.09 351.562C1002.51 351.083 1003.76 350.385 1004.82 349.469C1005.89 348.552 1006.71 347.495 1007.28 346.297C1007.85 345.099 1008.14 343.854 1008.15 342.562V340.406H1011.18V342.562C1011.18 343.802 1011.46 344.99 1012.03 346.125C1012.59 347.26 1013.39 348.26 1014.45 349.125C1015.5 349.979 1016.73 350.625 1018.15 351.062L1016.68 353.375C1015.06 352.844 1013.64 352.052 1012.45 351C1011.25 349.948 1010.33 348.703 1009.7 347.266C1009.05 348.818 1008.11 350.172 1006.88 351.328C1005.67 352.484 1004.23 353.344 1002.59 353.906L1001.09 351.562ZM1005.81 355.406H1024.21V362.406H1008.78V365H1025.15V367.375H1005.9V360.156H1021.28V357.75H1005.81V355.406ZM1029.54 356.375C1029.55 353.49 1029.94 350.812 1030.72 348.344C1031.52 345.865 1032.66 343.552 1034.16 341.406H1037.22C1036.5 342.458 1035.81 343.812 1035.16 345.469C1034.52 347.115 1034 348.896 1033.6 350.812C1033.2 352.729 1033.01 354.583 1033.01 356.375C1033.01 358.167 1033.2 360.026 1033.6 361.953C1034 363.87 1034.52 365.656 1035.16 367.312C1035.81 368.969 1036.5 370.323 1037.22 371.375H1034.16C1032.66 369.219 1031.52 366.901 1030.72 364.422C1029.94 361.943 1029.55 359.26 1029.54 356.375ZM1046.08 341.75C1047.35 341.76 1048.49 342.115 1049.5 342.812C1050.52 343.5 1051.35 344.479 1051.97 345.75H1058.89V339.656H1061.83V367.719H1058.89V356.969H1052.18C1051.57 358.385 1050.74 359.484 1049.68 360.266C1048.62 361.036 1047.43 361.417 1046.08 361.406C1044.7 361.406 1043.46 361.005 1042.38 360.203C1041.31 359.401 1040.47 358.255 1039.86 356.766C1039.27 355.276 1038.98 353.542 1038.99 351.562C1038.98 349.604 1039.27 347.885 1039.86 346.406C1040.47 344.917 1041.31 343.771 1042.38 342.969C1043.46 342.156 1044.7 341.75 1046.08 341.75ZM1041.8 351.562C1041.8 353.021 1041.98 354.292 1042.33 355.375C1042.7 356.458 1043.2 357.292 1043.85 357.875C1044.49 358.458 1045.24 358.75 1046.08 358.75C1046.93 358.75 1047.67 358.458 1048.32 357.875C1048.96 357.292 1049.46 356.458 1049.82 355.375C1050.18 354.292 1050.36 353.021 1050.36 351.562C1050.36 350.125 1050.18 348.87 1049.82 347.797C1049.45 346.714 1048.95 345.88 1048.3 345.297C1047.66 344.703 1046.93 344.406 1046.08 344.406C1045.24 344.406 1044.49 344.703 1043.85 345.297C1043.21 345.88 1042.71 346.714 1042.35 347.797C1041.98 348.87 1041.8 350.125 1041.8 351.562ZM1052.82 348.188C1053.06 349.312 1053.18 350.438 1053.18 351.562C1053.18 352.615 1053.08 353.604 1052.89 354.531H1058.89V348.188H1052.82ZM1073.03 356.375C1073.02 359.26 1072.62 361.943 1071.83 364.422C1071.05 366.901 1069.91 369.219 1068.41 371.375H1065.34C1066.07 370.323 1066.76 368.969 1067.41 367.312C1068.05 365.656 1068.57 363.87 1068.97 361.953C1069.36 360.026 1069.56 358.167 1069.56 356.375C1069.56 354.583 1069.36 352.729 1068.97 350.812C1068.57 348.896 1068.05 347.115 1067.41 345.469C1066.76 343.812 1066.07 342.458 1065.34 341.406H1068.41C1069.91 343.552 1071.05 345.865 1071.83 348.344C1072.62 350.812 1073.02 353.49 1073.03 356.375Z" fill="#191F28"/>
<path d="M1198.22 482.375H1202.44V484.875H1198.22V498.656H1195.25V470.656H1198.22V482.375ZM1175.94 491.031C1179.11 491.031 1181.59 491.005 1183.38 490.953V488.109C1182.32 487.953 1181.4 487.646 1180.61 487.188C1179.83 486.729 1179.22 486.146 1178.8 485.438C1178.38 484.719 1178.18 483.917 1178.19 483.031C1178.18 481.99 1178.45 481.073 1179 480.281C1179.56 479.49 1180.35 478.875 1181.36 478.438C1182.38 478 1183.55 477.781 1184.88 477.781C1186.19 477.781 1187.35 478 1188.38 478.438C1189.4 478.875 1190.19 479.49 1190.77 480.281C1191.34 481.073 1191.62 481.99 1191.62 483.031C1191.62 483.917 1191.41 484.719 1190.97 485.438C1190.53 486.146 1189.91 486.734 1189.11 487.203C1188.32 487.661 1187.4 487.964 1186.34 488.109V490.844C1189.09 490.708 1191.53 490.49 1193.66 490.188L1193.84 492.375C1191.31 492.823 1188.69 493.125 1185.98 493.281C1183.29 493.427 1180.44 493.5 1177.45 493.5H1176.41L1175.94 491.031ZM1176.47 473.969H1183.38V470.719H1186.34V473.969H1193.25V476.344H1176.47V473.969ZM1180.97 483.031C1180.97 483.615 1181.13 484.125 1181.45 484.562C1181.78 484.99 1182.22 485.323 1182.8 485.562C1183.38 485.792 1184.06 485.906 1184.83 485.906C1186.03 485.906 1186.98 485.651 1187.69 485.141C1188.41 484.63 1188.77 483.927 1188.78 483.031C1188.78 482.438 1188.61 481.922 1188.28 481.484C1187.96 481.036 1187.5 480.693 1186.91 480.453C1186.32 480.214 1185.65 480.094 1184.88 480.094C1184.09 480.094 1183.41 480.214 1182.81 480.453C1182.23 480.693 1181.78 481.036 1181.45 481.484C1181.13 481.922 1180.97 482.438 1180.97 483.031ZM1212.92 475.812C1212.91 477 1213.17 478.135 1213.7 479.219C1214.24 480.292 1215.02 481.245 1216.03 482.078C1217.04 482.901 1218.24 483.531 1219.64 483.969L1218.23 486.281C1216.66 485.781 1215.29 485.031 1214.14 484.031C1212.99 483.031 1212.11 481.854 1211.48 480.5C1210.87 482.052 1209.96 483.406 1208.75 484.562C1207.54 485.708 1206.11 486.573 1204.45 487.156L1202.92 484.781C1204.35 484.312 1205.59 483.625 1206.65 482.719C1207.72 481.812 1208.53 480.766 1209.09 479.578C1209.65 478.391 1209.94 477.146 1209.95 475.844V475.062H1203.79V472.656H1218.95V475.062H1212.92V475.812ZM1206.7 493.344C1206.7 492.26 1207.08 491.328 1207.83 490.547C1208.59 489.766 1209.67 489.172 1211.08 488.766C1212.49 488.359 1214.17 488.156 1216.11 488.156C1218.02 488.156 1219.67 488.359 1221.06 488.766C1222.46 489.172 1223.52 489.766 1224.26 490.547C1225.01 491.328 1225.39 492.26 1225.39 493.344C1225.39 494.448 1225.01 495.391 1224.26 496.172C1223.52 496.964 1222.46 497.562 1221.06 497.969C1219.67 498.385 1218.02 498.594 1216.11 498.594C1214.17 498.594 1212.49 498.385 1211.08 497.969C1209.67 497.562 1208.59 496.964 1207.83 496.172C1207.08 495.391 1206.7 494.448 1206.7 493.344ZM1209.67 493.344C1209.66 494.271 1210.21 494.99 1211.33 495.5C1212.45 496 1214.01 496.25 1216.01 496.25C1218.06 496.25 1219.66 496 1220.79 495.5C1221.93 495 1222.49 494.281 1222.48 493.344C1222.49 492.438 1221.94 491.74 1220.84 491.25C1219.74 490.75 1218.19 490.5 1216.2 490.5C1214.13 490.5 1212.52 490.745 1211.37 491.234C1210.23 491.724 1209.66 492.427 1209.67 493.344ZM1222.17 470.656H1225.14V477.594H1229.2V480.031H1225.14V487.469H1222.17V470.656ZM1253.18 485.062H1250.24V470.656H1253.18V485.062ZM1230.09 482.562C1231.51 482.083 1232.76 481.385 1233.82 480.469C1234.89 479.552 1235.71 478.495 1236.28 477.297C1236.85 476.099 1237.14 474.854 1237.15 473.562V471.406H1240.18V473.562C1240.18 474.802 1240.46 475.99 1241.03 477.125C1241.59 478.26 1242.39 479.26 1243.45 480.125C1244.5 480.979 1245.73 481.625 1247.15 482.062L1245.68 484.375C1244.06 483.844 1242.64 483.052 1241.45 482C1240.25 480.948 1239.33 479.703 1238.7 478.266C1238.05 479.818 1237.11 481.172 1235.88 482.328C1234.67 483.484 1233.23 484.344 1231.59 484.906L1230.09 482.562ZM1234.81 486.406H1253.21V493.406H1237.78V496H1254.15V498.375H1234.9V491.156H1250.28V488.75H1234.81V486.406ZM1258.54 487.375C1258.55 484.49 1258.94 481.812 1259.72 479.344C1260.52 476.865 1261.66 474.552 1263.16 472.406H1266.22C1265.5 473.458 1264.81 474.812 1264.16 476.469C1263.52 478.115 1263 479.896 1262.6 481.812C1262.2 483.729 1262.01 485.583 1262.01 487.375C1262.01 489.167 1262.2 491.026 1262.6 492.953C1263 494.87 1263.52 496.656 1264.16 498.312C1264.81 499.969 1265.5 501.323 1266.22 502.375H1263.16C1261.66 500.219 1260.52 497.901 1259.72 495.422C1258.94 492.943 1258.55 490.26 1258.54 487.375ZM1289.49 476.906H1293.58V479.375H1289.49V486.469H1286.52V470.688H1289.49V476.906ZM1268.77 472.062H1271.74V482.094C1275.87 482.062 1279.89 481.656 1283.8 480.875L1284.18 483.312C1281.96 483.76 1279.77 484.078 1277.63 484.266C1275.49 484.453 1273.3 484.552 1271.05 484.562H1268.77V472.062ZM1271.55 487.938H1289.49V498.281H1271.55V487.938ZM1286.61 495.906V490.25H1274.46V495.906H1286.61ZM1302.03 487.375C1302.02 490.26 1301.62 492.943 1300.83 495.422C1300.05 497.901 1298.91 500.219 1297.41 502.375H1294.34C1295.07 501.323 1295.76 499.969 1296.41 498.312C1297.05 496.656 1297.57 494.87 1297.97 492.953C1298.36 491.026 1298.56 489.167 1298.56 487.375C1298.56 485.583 1298.36 483.729 1297.97 481.812C1297.57 479.896 1297.05 478.115 1296.41 476.469C1295.76 474.812 1295.07 473.458 1294.34 472.406H1297.41C1298.91 474.552 1300.05 476.865 1300.83 479.344C1301.62 481.812 1302.02 484.49 1302.03 487.375Z" fill="#191F28"/>
<path d="M1107.14 741.508H1121.28V744.555H1089.36V741.508H1103.46V736.781H1107.14V741.508ZM1091 735.688C1093.1 735.479 1095.01 735.049 1096.75 734.398C1098.48 733.747 1099.88 732.947 1100.95 731.996C1102.01 731.033 1102.63 729.997 1102.8 728.891H1092.29V725.922H1118.43V728.891H1107.8C1107.97 729.997 1108.59 731.033 1109.66 731.996C1110.74 732.947 1112.14 733.747 1113.88 734.398C1115.62 735.049 1117.54 735.479 1119.64 735.688L1118.31 738.617C1116.28 738.383 1114.39 737.96 1112.64 737.348C1110.91 736.723 1109.41 735.935 1108.13 734.984C1106.87 734.021 1105.93 732.934 1105.3 731.723C1104.35 733.546 1102.72 735.062 1100.42 736.273C1098.11 737.484 1095.42 738.266 1092.33 738.617L1091 735.688ZM1093.15 753.188C1093.15 751.885 1093.63 750.779 1094.6 749.867C1095.56 748.956 1096.95 748.266 1098.76 747.797C1100.58 747.328 1102.76 747.094 1105.3 747.094C1107.81 747.094 1109.97 747.328 1111.77 747.797C1113.58 748.266 1114.96 748.956 1115.93 749.867C1116.89 750.779 1117.37 751.885 1117.37 753.188C1117.37 754.477 1116.89 755.577 1115.93 756.488C1114.96 757.4 1113.58 758.083 1111.77 758.539C1109.97 759.008 1107.81 759.242 1105.3 759.242C1102.76 759.242 1100.58 759.008 1098.76 758.539C1096.95 758.083 1095.56 757.4 1094.6 756.488C1093.63 755.577 1093.15 754.477 1093.15 753.188ZM1096.9 753.188C1096.89 754.229 1097.61 755.03 1099.05 755.59C1100.51 756.15 1102.59 756.43 1105.3 756.43C1107.97 756.43 1110.03 756.15 1111.47 755.59C1112.93 755.03 1113.66 754.229 1113.66 753.188C1113.66 752.146 1112.94 751.352 1111.49 750.805C1110.05 750.245 1107.98 749.958 1105.3 749.945C1102.59 749.958 1100.51 750.245 1099.05 750.805C1097.61 751.352 1096.89 752.146 1096.9 753.188ZM1150.43 733.109H1155.51V736.234H1150.43V744.711H1146.72V724.32H1150.43V733.109ZM1122.97 727.758H1131.57V724.008H1135.28V727.758H1143.83V730.727H1122.97V727.758ZM1124.89 738.305C1124.89 737.081 1125.24 736.007 1125.94 735.082C1126.64 734.145 1127.64 733.428 1128.93 732.934C1130.23 732.426 1131.72 732.172 1133.4 732.172C1135.07 732.172 1136.54 732.426 1137.82 732.934C1139.11 733.428 1140.1 734.145 1140.8 735.082C1141.52 736.007 1141.88 737.081 1141.88 738.305C1141.88 739.529 1141.52 740.609 1140.8 741.547C1140.1 742.471 1139.11 743.188 1137.82 743.695C1136.54 744.203 1135.07 744.451 1133.4 744.438C1131.72 744.451 1130.23 744.21 1128.93 743.715C1127.64 743.207 1126.64 742.484 1125.94 741.547C1125.24 740.609 1124.89 739.529 1124.89 738.305ZM1128.05 746.156H1131.72V749.555H1146.72V746.156H1150.43V758.891H1128.05V746.156ZM1128.48 738.305C1128.47 738.995 1128.66 739.594 1129.07 740.102C1129.47 740.609 1130.04 741.007 1130.79 741.293C1131.54 741.566 1132.41 741.703 1133.4 741.703C1134.9 741.69 1136.1 741.384 1137.02 740.785C1137.93 740.173 1138.39 739.346 1138.4 738.305C1138.39 737.641 1138.17 737.055 1137.76 736.547C1137.34 736.039 1136.76 735.648 1136.02 735.375C1135.28 735.089 1134.42 734.945 1133.46 734.945C1132.47 734.945 1131.6 735.082 1130.84 735.355C1130.09 735.629 1129.5 736.02 1129.09 736.527C1128.67 737.035 1128.47 737.628 1128.48 738.305ZM1146.72 755.922V752.445H1131.72V755.922H1146.72ZM1168.69 734.633C1168.69 736.469 1169.07 738.331 1169.82 740.219C1170.58 742.094 1171.63 743.799 1172.99 745.336C1174.36 746.859 1175.9 748.031 1177.64 748.852L1175.53 751.742C1173.6 750.818 1171.88 749.438 1170.37 747.602C1168.86 745.753 1167.7 743.669 1166.89 741.352C1166.09 743.865 1164.9 746.13 1163.32 748.148C1161.76 750.154 1159.99 751.651 1158.03 752.641L1155.84 749.711C1157.57 748.878 1159.13 747.654 1160.53 746.039C1161.93 744.411 1163.03 742.595 1163.83 740.59C1164.62 738.572 1165.02 736.586 1165.02 734.633V730.922H1157.13V727.836H1176.31V730.922H1168.69V734.633ZM1180.06 724.32H1183.77V738.188H1189.39V741.312H1183.77V759.32H1180.06V724.32ZM1222.11 755.141H1190.07V752.016H1198.82V745.844H1193.98V734.711H1214.53V729.828H1193.9V726.781H1218.2V737.719H1197.65V742.797H1219.02V745.844H1213.71V752.016H1222.11V755.141ZM1210.07 752.016V745.844H1202.42V752.016H1210.07ZM1252.63 742.328H1248.96V724.32H1252.63V742.328ZM1223.76 739.203C1225.55 738.604 1227.1 737.732 1228.43 736.586C1229.77 735.44 1230.79 734.118 1231.5 732.621C1232.21 731.124 1232.58 729.568 1232.59 727.953V725.258H1236.38V727.953C1236.38 729.503 1236.73 730.987 1237.43 732.406C1238.14 733.826 1239.15 735.076 1240.46 736.156C1241.78 737.224 1243.32 738.031 1245.09 738.578L1243.25 741.469C1241.22 740.805 1239.46 739.815 1237.96 738.5C1236.46 737.185 1235.32 735.629 1234.52 733.832C1233.72 735.772 1232.54 737.465 1231.01 738.91C1229.48 740.355 1227.69 741.43 1225.64 742.133L1223.76 739.203ZM1229.66 744.008H1252.67V752.758H1233.37V756H1253.84V758.969H1229.78V749.945H1249V746.938H1229.66V744.008Z" fill="#191F28"/>
<path d="M1020.61 623.375H1034.8V626.344H1024.05V633.188H1034.05V636.125H1024.05V643.031H1034.92V646H1020.61V623.375ZM1039.28 649.406H1036.31L1043.59 622.312H1046.56L1039.28 649.406ZM1056.89 641.781H1057.14L1063.42 623.375H1067.14L1058.98 646H1055.01L1046.89 623.375H1050.61L1056.89 641.781Z" fill="#191F28"/>
<defs>
<filter id="filter0_d_4107_10056" x="0" y="0" width="1956" height="1406" filterUnits="userSpaceOnUse" color-interpolation-filters="sRGB">
<feFlood flood-opacity="0" result="BackgroundImageFix"/>
<feColorMatrix in="SourceAlpha" type="matrix" values="0 0 0 0 0 0 0 0 0 0 0 0 0 0 0 0 0 0 127 0" result="hardAlpha"/>
<feOffset dy="40"/>
<feGaussianBlur stdDeviation="24"/>
<feComposite in2="hardAlpha" operator="out"/>
<feColorMatrix type="matrix" values="0 0 0 0 0 0 0 0 0 0 0 0 0 0 0 0 0 0 0.25 0"/>
<feBlend mode="normal" in2="BackgroundImageFix" result="effect1_dropShadow_4107_10056"/>
<feBlend mode="normal" in="SourceGraphic" in2="effect1_dropShadow_4107_10056" result="shape"/>
</filter>
<filter id="filter1_f_4107_10056" x="1133" y="919" width="80" height="30" filterUnits="userSpaceOnUse" color-interpolation-filters="sRGB">
<feFlood flood-opacity="0" result="BackgroundImageFix"/>
<feBlend mode="normal" in="SourceGraphic" in2="BackgroundImageFix" result="shape"/>
<feGaussianBlur stdDeviation="2.5" result="effect1_foregroundBlur_4107_10056"/>
</filter>
<filter id="filter2_f_4107_10056" x="517" y="338" width="80" height="30" filterUnits="userSpaceOnUse" color-interpolation-filters="sRGB">
<feFlood flood-opacity="0" result="BackgroundImageFix"/>
<feBlend mode="normal" in="SourceGraphic" in2="BackgroundImageFix" result="shape"/>
<feGaussianBlur stdDeviation="2.5" result="effect1_foregroundBlur_4107_10056"/>
</filter>
<linearGradient id="paint0_linear_4107_10056" x1="1204.7" y1="801.156" x2="1142.25" y2="908.663" gradientUnits="userSpaceOnUse">
<stop offset="0.144416" stop-color="#C41818"/>
<stop offset="1" stop-color="#072B24"/>
</linearGradient>
<linearGradient id="paint1_linear_4107_10056" x1="588.703" y1="220.156" x2="526.25" y2="327.663" gradientUnits="userSpaceOnUse">
<stop offset="0.144416" stop-color="#C41818"/>
<stop offset="1" stop-color="#072B24"/>
</linearGradient>
</defs>
</svg>
