<svg width="3840" height="2160" viewBox="0 0 3840 2160" fill="none" xmlns="http://www.w3.org/2000/svg">
<g clip-path="url(#clip0_1891_10794)">
<rect width="3844" height="2162.25" fill="#272930"/>
<g filter="url(#filter0_b_1891_10794)">
<rect x="165" y="1006" width="1700" height="240" rx="80" fill="white" fill-opacity="0.2"/>
<path d="M821.762 1104.02C821.762 1106.92 822.346 1109.74 823.514 1112.46C824.682 1115.16 826.419 1117.57 828.725 1119.69C831.061 1121.82 833.891 1123.45 837.215 1124.59L832.723 1132.14C829.099 1130.82 825.984 1128.95 823.379 1126.52C820.773 1124.1 818.722 1121.27 817.225 1118.03C815.757 1121.57 813.706 1124.66 811.07 1127.33C808.465 1129.97 805.29 1132.02 801.547 1133.48L796.875 1126.12C800.199 1124.8 803.014 1123 805.32 1120.73C807.626 1118.45 809.363 1115.89 810.531 1113.04C811.699 1110.17 812.298 1107.16 812.328 1104.02V1103.39H798.941V1095.57H812.328V1086.68H821.762V1095.57H834.969V1103.39H821.762V1104.02ZM810.531 1139.23H866.145V1167H856.172V1147.32H810.531V1139.23ZM839.371 1087.21H848.805V1106.71H856.621V1085.87H866.145V1135.55H856.621V1114.8H848.805V1135.19H839.371V1087.21ZM965.512 1127.73H955.629V1085.78H965.512V1127.73ZM902.172 1089.19H912.055V1099.34H931.371V1089.19H941.344V1124.86H902.172V1089.19ZM911.785 1131.42H965.691V1152.17H921.758V1158.55H968.117V1166.28H911.965V1144.98H955.719V1139.14H911.785V1131.42ZM931.371 1116.95V1107.07H912.055V1116.95H931.371ZM1045.56 1167.09H1035.59V1133.75H1020.77V1125.58H1035.59V1111.65H1021.04V1103.48H1035.59V1085.78H1045.56V1167.09ZM980.246 1092.79H1016.45V1123.15H990.398V1140.4C996.089 1140.37 1001.36 1140.21 1006.21 1139.91C1011.09 1139.58 1016.15 1139.02 1021.39 1138.25L1022.2 1146.42C1016.45 1147.32 1010.91 1147.92 1005.58 1148.22C1000.28 1148.52 994.022 1148.67 986.805 1148.67H980.516V1115.34H1006.66V1100.78H980.246V1092.79ZM1121.12 1109.14H1132.44V1117.49H1121.12V1144.36H1110.97V1085.78H1121.12V1109.14ZM1056.79 1128C1062.93 1126.24 1068.25 1123.96 1072.74 1121.18C1077.23 1118.39 1080.77 1115.23 1083.34 1111.7C1085.95 1108.13 1087.53 1104.29 1088.1 1100.15H1060.21V1091.98H1099.02C1099.02 1099.1 1097.52 1105.56 1094.53 1111.34C1091.53 1117.09 1087.19 1122.04 1081.5 1126.21C1075.81 1130.34 1068.95 1133.57 1060.93 1135.91L1056.79 1128ZM1068.92 1138.34H1079.07V1157.29H1124.18V1165.38H1068.92V1138.34ZM1222.46 1101.59H1233.79V1109.86H1222.46V1126.21H1212.49V1085.78H1222.46V1101.59ZM1161.91 1089.37H1171.97V1115.07C1183.38 1114.92 1194.43 1113.81 1205.12 1111.74L1206.29 1119.92C1199.94 1121.21 1193.7 1122.1 1187.56 1122.61C1181.42 1123.12 1175.12 1123.36 1168.65 1123.33H1161.91V1089.37ZM1169.37 1129.71H1222.46V1151.27H1179.43V1157.92H1224.98V1166.01H1169.46V1143.64H1212.4V1137.62H1169.37V1129.71Z" fill="white"/>
</g>
<g filter="url(#filter1_b_1891_10794)">
<rect x="1975" y="1006" width="1700" height="240" rx="80" fill="#FEC962" fill-opacity="0.2"/>
<path d="M2592.26 1104.02C2592.26 1106.92 2592.85 1109.74 2594.01 1112.46C2595.18 1115.16 2596.92 1117.57 2599.22 1119.69C2601.56 1121.82 2604.39 1123.45 2607.71 1124.59L2603.22 1132.14C2599.6 1130.82 2596.48 1128.95 2593.88 1126.52C2591.27 1124.1 2589.22 1121.27 2587.72 1118.03C2586.26 1121.57 2584.21 1124.66 2581.57 1127.33C2578.96 1129.97 2575.79 1132.02 2572.05 1133.48L2567.38 1126.12C2570.7 1124.8 2573.51 1123 2575.82 1120.73C2578.13 1118.45 2579.86 1115.89 2581.03 1113.04C2582.2 1110.17 2582.8 1107.16 2582.83 1104.02V1103.39H2569.44V1095.57H2582.83V1086.68H2592.26V1095.57H2605.47V1103.39H2592.26V1104.02ZM2581.03 1139.23H2636.64V1167H2626.67V1147.32H2581.03V1139.23ZM2609.87 1087.21H2619.3V1106.71H2627.12V1085.87H2636.64V1135.55H2627.12V1114.8H2619.3V1135.19H2609.87V1087.21ZM2732.6 1109.32H2743.92V1117.58H2732.6V1145.61H2722.62V1085.87H2732.6V1109.32ZM2671.32 1091.62H2681.21V1104.02H2700.16V1091.62H2710.05V1132.41H2671.32V1091.62ZM2680.58 1139.59H2690.55V1157.29H2735.83V1165.38H2680.58V1139.59ZM2700.16 1124.5V1111.74H2681.21V1124.5H2700.16ZM2812.02 1102.94H2823.52V1111.2H2812.02V1128.36H2802.14V1085.87H2812.02V1102.94ZM2751.55 1089.46H2761.62V1117.09C2767.31 1117.03 2772.88 1116.74 2778.33 1116.23C2783.78 1115.73 2789.29 1114.92 2794.86 1113.81L2796.03 1121.98C2784.11 1124.2 2771.53 1125.34 2758.29 1125.4H2751.55V1089.46ZM2759.37 1132.23H2769.25V1141.3H2802.14V1132.23H2812.11V1166.01H2759.37V1132.23ZM2802.14 1157.92V1149.3H2769.25V1157.92H2802.14ZM2891.17 1118.12H2903.66V1126.39H2891.17V1167H2881.29V1085.78H2891.17V1118.12ZM2827.11 1098.27H2846.34V1086.95H2856.31V1098.27H2875V1106.26H2827.11V1098.27ZM2830.89 1130.7C2830.86 1127.02 2831.73 1123.72 2833.49 1120.82C2835.26 1117.88 2837.7 1115.61 2840.81 1113.99C2843.93 1112.37 2847.45 1111.56 2851.37 1111.56C2855.23 1111.56 2858.71 1112.37 2861.79 1113.99C2864.88 1115.61 2867.3 1117.88 2869.07 1120.82C2870.87 1123.72 2871.77 1127.02 2871.77 1130.7C2871.77 1134.38 2870.87 1137.68 2869.07 1140.58C2867.3 1143.46 2864.88 1145.7 2861.79 1147.32C2858.71 1148.94 2855.23 1149.75 2851.37 1149.75C2847.45 1149.75 2843.93 1148.94 2840.81 1147.32C2837.7 1145.7 2835.26 1143.46 2833.49 1140.58C2831.73 1137.68 2830.86 1134.38 2830.89 1130.7ZM2840.41 1130.7C2840.41 1132.86 2840.87 1134.76 2841.8 1136.4C2842.73 1138.02 2844.02 1139.28 2845.67 1140.18C2847.34 1141.05 2849.24 1141.48 2851.37 1141.48C2853.44 1141.48 2855.29 1141.05 2856.94 1140.18C2858.59 1139.31 2859.88 1138.05 2860.8 1136.4C2861.73 1134.76 2862.21 1132.86 2862.24 1130.7C2862.21 1128.54 2861.72 1126.64 2860.76 1124.99C2859.83 1123.32 2858.54 1122.03 2856.9 1121.13C2855.28 1120.2 2853.44 1119.74 2851.37 1119.74C2849.24 1119.74 2847.34 1120.2 2845.67 1121.13C2844.02 1122.03 2842.73 1123.32 2841.8 1124.99C2840.87 1126.64 2840.41 1128.54 2840.41 1130.7ZM2972.84 1116.68H2916.6V1088.74H2926.48V1108.78H2972.84V1116.68ZM2906.98 1126.12H2981.2V1134.02H2906.98V1126.12ZM2915.88 1141.21H2925.85V1157.02H2973.38V1165.11H2915.88V1141.21ZM3072.48 1101.59H3083.8V1109.86H3072.48V1126.21H3062.5V1085.78H3072.48V1101.59ZM3011.92 1089.37H3021.98V1115.07C3033.39 1114.92 3044.45 1113.81 3055.14 1111.74L3056.3 1119.92C3049.96 1121.21 3043.71 1122.1 3037.57 1122.61C3031.43 1123.12 3025.13 1123.36 3018.66 1123.33H3011.92V1089.37ZM3019.38 1129.71H3072.48V1151.27H3029.44V1157.92H3074.99V1166.01H3019.47V1143.64H3062.41V1137.62H3019.38V1129.71Z" fill="white"/>
</g>
<g clip-path="url(#clip1_1891_10794)">
<path d="M498.852 1534.3V1600.74C498.852 1629.57 495.775 1654.44 489.623 1675.36C483.471 1696.1 474.594 1713.15 462.992 1726.51C451.566 1739.7 437.943 1749.45 422.123 1755.78C406.303 1762.11 388.725 1765.27 369.389 1765.27C353.92 1765.27 339.506 1763.34 326.146 1759.47C312.787 1755.43 300.746 1749.19 290.023 1740.75C279.477 1732.31 270.336 1721.68 262.602 1708.85C255.043 1695.84 249.242 1680.37 245.199 1662.44C241.156 1644.51 239.135 1623.95 239.135 1600.74V1534.3C239.135 1505.47 242.211 1480.77 248.363 1460.21C254.691 1439.46 263.568 1422.5 274.994 1409.32C286.596 1396.13 300.307 1386.46 316.127 1380.31C331.947 1373.98 349.525 1370.82 368.861 1370.82C384.33 1370.82 398.656 1372.84 411.84 1376.88C425.199 1380.75 437.24 1386.82 447.963 1395.08C458.686 1403.34 467.826 1413.97 475.385 1426.98C482.943 1439.81 488.744 1455.2 492.787 1473.12C496.83 1490.88 498.852 1511.27 498.852 1534.3ZM422.65 1610.76V1524.01C422.65 1510.13 421.859 1498 420.277 1487.63C418.871 1477.26 416.674 1468.47 413.686 1461.26C410.697 1453.88 407.006 1447.9 402.611 1443.33C398.217 1438.76 393.207 1435.42 387.582 1433.31C381.957 1431.2 375.717 1430.15 368.861 1430.15C360.248 1430.15 352.602 1431.82 345.922 1435.16C339.418 1438.5 333.881 1443.86 329.311 1451.24C324.74 1458.45 321.225 1468.12 318.764 1480.24C316.479 1492.2 315.336 1506.79 315.336 1524.01V1610.76C315.336 1624.65 316.039 1636.87 317.445 1647.41C319.027 1657.96 321.312 1667.01 324.301 1674.57C327.465 1681.95 331.156 1688.02 335.375 1692.76C339.77 1697.33 344.779 1700.67 350.404 1702.78C356.205 1704.89 362.533 1705.95 369.389 1705.95C377.826 1705.95 385.297 1704.28 391.801 1700.94C398.48 1697.42 404.105 1691.97 408.676 1684.59C413.422 1677.03 416.938 1667.19 419.223 1655.06C421.508 1642.93 422.65 1628.16 422.65 1610.76ZM621.986 1585.19L561.342 1570.68L583.227 1376.09H798.91V1437.53H645.717L636.225 1522.7C641.322 1519.71 649.057 1516.54 659.428 1513.2C669.799 1509.69 681.4 1507.93 694.232 1507.93C712.865 1507.93 729.389 1510.83 743.803 1516.63C758.217 1522.43 770.434 1530.87 780.453 1541.94C790.648 1553.02 798.383 1566.55 803.656 1582.55C808.93 1598.54 811.566 1616.65 811.566 1636.87C811.566 1653.92 808.93 1670.18 803.656 1685.64C798.383 1700.94 790.385 1714.65 779.662 1726.78C768.939 1738.73 755.492 1748.13 739.32 1754.99C723.148 1761.85 703.988 1765.27 681.84 1765.27C665.316 1765.27 649.32 1762.81 633.852 1757.89C618.559 1752.97 604.76 1745.67 592.455 1736.01C580.326 1726.34 570.57 1714.65 563.188 1700.94C555.98 1687.05 552.201 1671.23 551.85 1653.48H627.26C628.314 1664.38 631.127 1673.78 635.697 1681.69C640.443 1689.42 646.684 1695.4 654.418 1699.62C662.152 1703.84 671.205 1705.95 681.576 1705.95C691.244 1705.95 699.506 1704.1 706.361 1700.41C713.217 1696.72 718.754 1691.62 722.973 1685.12C727.191 1678.44 730.268 1670.7 732.201 1661.91C734.311 1652.95 735.365 1643.28 735.365 1632.91C735.365 1622.54 734.135 1613.13 731.674 1604.7C729.213 1596.26 725.434 1588.96 720.336 1582.81C715.238 1576.66 708.734 1571.91 700.824 1568.57C693.09 1565.23 684.037 1563.56 673.666 1563.56C659.604 1563.56 648.705 1565.76 640.971 1570.16C633.412 1574.55 627.084 1579.56 621.986 1585.19Z" fill="white"/>
</g>
<path d="M940.315 1721.07H929.183V1716.03H908.675V1709H929.183V1659.54H940.315V1721.07ZM857.757 1698.21C869.632 1698.21 880.843 1698.04 891.39 1697.69C901.976 1697.34 911.995 1696.65 921.448 1695.64L922.034 1702.79C913.362 1704.04 903.284 1704.95 891.8 1705.54V1721.3H880.784V1705.95C873.558 1706.14 867.269 1706.24 861.917 1706.24L854.065 1706.18L852.776 1698.21H857.757ZM860.628 1677.12C860.628 1673.96 861.702 1671.18 863.851 1668.8C865.999 1666.42 869.046 1664.58 872.991 1663.29C876.976 1661.96 881.604 1661.3 886.878 1661.3C892.034 1661.3 896.585 1661.96 900.53 1663.29C904.515 1664.58 907.601 1666.42 909.788 1668.8C911.976 1671.18 913.089 1673.96 913.128 1677.12C913.089 1680.32 911.976 1683.12 909.788 1685.5C907.601 1687.84 904.534 1689.66 900.589 1690.95C896.644 1692.2 892.073 1692.82 886.878 1692.82C881.604 1692.82 876.976 1692.2 872.991 1690.95C869.046 1689.66 865.999 1687.84 863.851 1685.5C861.702 1683.12 860.628 1680.32 860.628 1677.12ZM868.479 1724.58H940.315V1747.2H879.847V1755.29H943.479V1763.37H868.948V1739.82H929.3V1732.32H868.479V1724.58ZM871.058 1677.12C871.058 1678.76 871.702 1680.21 872.991 1681.46C874.28 1682.67 876.116 1683.62 878.499 1684.33C880.882 1684.99 883.675 1685.32 886.878 1685.32C890.042 1685.32 892.796 1684.99 895.14 1684.33C897.522 1683.62 899.358 1682.67 900.647 1681.46C901.937 1680.21 902.581 1678.76 902.581 1677.12C902.581 1675.44 901.937 1673.98 900.647 1672.73C899.358 1671.48 897.522 1670.52 895.14 1669.86C892.796 1669.15 890.042 1668.8 886.878 1668.8C883.675 1668.8 880.882 1669.15 878.499 1669.86C876.116 1670.52 874.28 1671.48 872.991 1672.73C871.702 1673.98 871.058 1675.44 871.058 1677.12Z" fill="white"/>
<g clip-path="url(#clip2_1891_10794)">
<path d="M1345.18 1534.3V1600.74C1345.18 1629.57 1342.11 1654.44 1335.96 1675.36C1329.8 1696.1 1320.93 1713.15 1309.32 1726.51C1297.9 1739.7 1284.28 1749.45 1268.46 1755.78C1252.63 1762.11 1235.06 1765.27 1215.72 1765.27C1200.25 1765.27 1185.84 1763.34 1172.48 1759.47C1159.12 1755.43 1147.08 1749.19 1136.36 1740.75C1125.81 1732.31 1116.67 1721.68 1108.93 1708.85C1101.38 1695.84 1095.57 1680.37 1091.53 1662.44C1087.49 1644.51 1085.47 1623.95 1085.47 1600.74V1534.3C1085.47 1505.47 1088.54 1480.77 1094.7 1460.21C1101.02 1439.46 1109.9 1422.5 1121.33 1409.32C1132.93 1396.13 1146.64 1386.46 1162.46 1380.31C1178.28 1373.98 1195.86 1370.82 1215.19 1370.82C1230.66 1370.82 1244.99 1372.84 1258.17 1376.88C1271.53 1380.75 1283.57 1386.82 1294.29 1395.08C1305.02 1403.34 1314.16 1413.97 1321.72 1426.98C1329.28 1439.81 1335.08 1455.2 1339.12 1473.12C1343.16 1490.88 1345.18 1511.27 1345.18 1534.3ZM1268.98 1610.76V1524.01C1268.98 1510.13 1268.19 1498 1266.61 1487.63C1265.2 1477.26 1263.01 1468.47 1260.02 1461.26C1257.03 1453.88 1253.34 1447.9 1248.94 1443.33C1244.55 1438.76 1239.54 1435.42 1233.91 1433.31C1228.29 1431.2 1222.05 1430.15 1215.19 1430.15C1206.58 1430.15 1198.93 1431.82 1192.25 1435.16C1185.75 1438.5 1180.21 1443.86 1175.64 1451.24C1171.07 1458.45 1167.56 1468.12 1165.1 1480.24C1162.81 1492.2 1161.67 1506.79 1161.67 1524.01V1610.76C1161.67 1624.65 1162.37 1636.87 1163.78 1647.41C1165.36 1657.96 1167.64 1667.01 1170.63 1674.57C1173.8 1681.95 1177.49 1688.02 1181.71 1692.76C1186.1 1697.33 1191.11 1700.67 1196.74 1702.78C1202.54 1704.89 1208.87 1705.95 1215.72 1705.95C1224.16 1705.95 1231.63 1704.28 1238.13 1700.94C1244.81 1697.42 1250.44 1691.97 1255.01 1684.59C1259.75 1677.03 1263.27 1667.19 1265.55 1655.06C1267.84 1642.93 1268.98 1628.16 1268.98 1610.76ZM1450.65 1702.26H1455.66C1476.76 1702.26 1494.86 1699.71 1509.98 1694.61C1525.27 1689.34 1537.84 1681.78 1547.68 1671.93C1557.53 1662.09 1564.82 1650.05 1569.57 1635.81C1574.31 1621.4 1576.69 1605.05 1576.69 1586.77V1513.99C1576.69 1500.11 1575.28 1487.89 1572.47 1477.34C1569.83 1466.8 1565.96 1458.1 1560.87 1451.24C1555.95 1444.21 1550.14 1438.94 1543.46 1435.42C1536.96 1431.9 1529.75 1430.15 1521.84 1430.15C1513.41 1430.15 1505.94 1432.26 1499.43 1436.47C1492.93 1440.52 1487.39 1446.05 1482.82 1453.09C1478.43 1460.12 1475 1468.2 1472.54 1477.34C1470.25 1486.31 1469.11 1495.71 1469.11 1505.56C1469.11 1515.4 1470.25 1524.8 1472.54 1533.77C1474.82 1542.56 1478.25 1550.38 1482.82 1557.24C1487.39 1563.92 1493.1 1569.28 1499.96 1573.32C1506.81 1577.19 1514.9 1579.12 1524.22 1579.12C1533.18 1579.12 1541.18 1577.45 1548.21 1574.11C1555.42 1570.6 1561.48 1566.03 1566.4 1560.4C1571.5 1554.78 1575.37 1548.54 1578.01 1541.68C1580.82 1534.82 1582.22 1527.88 1582.22 1520.85L1607.27 1534.56C1607.27 1546.87 1604.64 1558.99 1599.36 1570.95C1594.09 1582.9 1586.71 1593.8 1577.21 1603.64C1567.9 1613.31 1557.09 1621.04 1544.78 1626.85C1532.48 1632.65 1519.29 1635.55 1505.23 1635.55C1487.3 1635.55 1471.39 1632.29 1457.51 1625.79C1443.62 1619.11 1431.84 1609.97 1422.18 1598.37C1412.68 1586.59 1405.48 1572.88 1400.55 1557.24C1395.63 1541.59 1393.17 1524.63 1393.17 1506.35C1393.17 1487.71 1396.16 1470.22 1402.14 1453.88C1408.29 1437.53 1416.99 1423.12 1428.24 1410.63C1439.67 1398.15 1453.29 1388.4 1469.11 1381.37C1485.11 1374.16 1502.86 1370.56 1522.37 1370.56C1541.88 1370.56 1559.64 1374.34 1575.63 1381.89C1591.63 1389.45 1605.34 1400.18 1616.77 1414.06C1628.19 1427.77 1636.98 1444.21 1643.13 1463.37C1649.46 1482.53 1652.62 1503.8 1652.62 1527.18V1553.54C1652.62 1578.51 1649.9 1601.71 1644.45 1623.15C1639.18 1644.6 1631.18 1664.02 1620.46 1681.43C1609.91 1698.65 1596.73 1713.42 1580.91 1725.72C1565.26 1738.03 1547.07 1747.43 1526.33 1753.94C1505.58 1760.44 1482.38 1763.69 1456.72 1763.69H1450.65V1702.26Z" fill="white"/>
</g>
<path d="M1729.11 1662.94C1734.35 1662.98 1739.05 1664.02 1743.23 1666.05C1747.41 1668.04 1750.69 1670.81 1753.08 1674.37C1755.46 1677.92 1756.65 1681.96 1756.65 1686.5C1756.65 1691.03 1755.46 1695.07 1753.08 1698.62C1750.69 1702.18 1747.41 1704.95 1743.23 1706.95C1739.05 1708.94 1734.35 1709.93 1729.11 1709.93C1723.84 1709.93 1719.09 1708.94 1714.87 1706.95C1710.69 1704.95 1707.41 1702.18 1705.03 1698.62C1702.65 1695.07 1701.46 1691.03 1701.46 1686.5C1701.46 1681.96 1702.65 1677.92 1705.03 1674.37C1707.41 1670.81 1710.69 1668.04 1714.87 1666.05C1719.09 1664.02 1723.84 1662.98 1729.11 1662.94ZM1712.35 1686.5C1712.35 1689.35 1713.06 1691.87 1714.46 1694.05C1715.91 1696.2 1717.9 1697.88 1720.44 1699.09C1723.02 1700.3 1725.91 1700.91 1729.11 1700.91C1732.31 1700.91 1735.19 1700.3 1737.72 1699.09C1740.26 1697.88 1742.26 1696.2 1743.7 1694.05C1745.15 1691.87 1745.87 1689.35 1745.87 1686.5C1745.87 1683.68 1745.15 1681.2 1743.7 1679.05C1742.26 1676.87 1740.24 1675.19 1737.67 1674.02C1735.13 1672.84 1732.28 1672.28 1729.11 1672.32C1725.91 1672.28 1723.02 1672.84 1720.44 1674.02C1717.9 1675.19 1715.91 1676.87 1714.46 1679.05C1713.06 1681.2 1712.35 1683.68 1712.35 1686.5ZM1717.39 1717.67H1786.42V1744.15H1728.53V1754.23H1789.93V1763.14H1717.74V1735.83H1775.4V1726.57H1717.39V1717.67ZM1775.28 1659.43H1786.42V1712.86H1775.28V1659.43Z" fill="white"/>
<g clip-path="url(#clip3_1891_10794)">
<path d="M2308.85 1534.3V1600.74C2308.85 1629.57 2305.78 1654.44 2299.62 1675.36C2293.47 1696.1 2284.59 1713.15 2272.99 1726.51C2261.57 1739.7 2247.94 1749.45 2232.12 1755.78C2216.3 1762.11 2198.72 1765.27 2179.39 1765.27C2163.92 1765.27 2149.51 1763.34 2136.15 1759.47C2122.79 1755.43 2110.75 1749.19 2100.02 1740.75C2089.48 1732.31 2080.34 1721.68 2072.6 1708.85C2065.04 1695.84 2059.24 1680.37 2055.2 1662.44C2051.16 1644.51 2049.13 1623.95 2049.13 1600.74V1534.3C2049.13 1505.47 2052.21 1480.77 2058.36 1460.21C2064.69 1439.46 2073.57 1422.5 2084.99 1409.32C2096.6 1396.13 2110.31 1386.46 2126.13 1380.31C2141.95 1373.98 2159.53 1370.82 2178.86 1370.82C2194.33 1370.82 2208.66 1372.84 2221.84 1376.88C2235.2 1380.75 2247.24 1386.82 2257.96 1395.08C2268.69 1403.34 2277.83 1413.97 2285.38 1426.98C2292.94 1439.81 2298.74 1455.2 2302.79 1473.12C2306.83 1490.88 2308.85 1511.27 2308.85 1534.3ZM2232.65 1610.76V1524.01C2232.65 1510.13 2231.86 1498 2230.28 1487.63C2228.87 1477.26 2226.67 1468.47 2223.69 1461.26C2220.7 1453.88 2217.01 1447.9 2212.61 1443.33C2208.22 1438.76 2203.21 1435.42 2197.58 1433.31C2191.96 1431.2 2185.72 1430.15 2178.86 1430.15C2170.25 1430.15 2162.6 1431.82 2155.92 1435.16C2149.42 1438.5 2143.88 1443.86 2139.31 1451.24C2134.74 1458.45 2131.22 1468.12 2128.76 1480.24C2126.48 1492.2 2125.34 1506.79 2125.34 1524.01V1610.76C2125.34 1624.65 2126.04 1636.87 2127.45 1647.41C2129.03 1657.96 2131.31 1667.01 2134.3 1674.57C2137.46 1681.95 2141.16 1688.02 2145.38 1692.76C2149.77 1697.33 2154.78 1700.67 2160.4 1702.78C2166.21 1704.89 2172.53 1705.95 2179.39 1705.95C2187.83 1705.95 2195.3 1704.28 2201.8 1700.94C2208.48 1697.42 2214.11 1691.97 2218.68 1684.59C2223.42 1677.03 2226.94 1667.19 2229.22 1655.06C2231.51 1642.93 2232.65 1628.16 2232.65 1610.76ZM2431.99 1585.19L2371.34 1570.68L2393.23 1376.09H2608.91V1437.53H2455.72L2446.22 1522.7C2451.32 1519.71 2459.06 1516.54 2469.43 1513.2C2479.8 1509.69 2491.4 1507.93 2504.23 1507.93C2522.87 1507.93 2539.39 1510.83 2553.8 1516.63C2568.22 1522.43 2580.43 1530.87 2590.45 1541.94C2600.65 1553.02 2608.38 1566.55 2613.66 1582.55C2618.93 1598.54 2621.57 1616.65 2621.57 1636.87C2621.57 1653.92 2618.93 1670.18 2613.66 1685.64C2608.38 1700.94 2600.38 1714.65 2589.66 1726.78C2578.94 1738.73 2565.49 1748.13 2549.32 1754.99C2533.15 1761.85 2513.99 1765.27 2491.84 1765.27C2475.32 1765.27 2459.32 1762.81 2443.85 1757.89C2428.56 1752.97 2414.76 1745.67 2402.46 1736.01C2390.33 1726.34 2380.57 1714.65 2373.19 1700.94C2365.98 1687.05 2362.2 1671.23 2361.85 1653.48H2437.26C2438.31 1664.38 2441.13 1673.78 2445.7 1681.69C2450.44 1689.42 2456.68 1695.4 2464.42 1699.62C2472.15 1703.84 2481.21 1705.95 2491.58 1705.95C2501.24 1705.95 2509.51 1704.1 2516.36 1700.41C2523.22 1696.72 2528.75 1691.62 2532.97 1685.12C2537.19 1678.44 2540.27 1670.7 2542.2 1661.91C2544.31 1652.95 2545.37 1643.28 2545.37 1632.91C2545.37 1622.54 2544.13 1613.13 2541.67 1604.7C2539.21 1596.26 2535.43 1588.96 2530.34 1582.81C2525.24 1576.66 2518.73 1571.91 2510.82 1568.57C2503.09 1565.23 2494.04 1563.56 2483.67 1563.56C2469.6 1563.56 2458.71 1565.76 2450.97 1570.16C2443.41 1574.55 2437.08 1579.56 2431.99 1585.19Z" fill="#FEC962"/>
</g>
<path d="M2750.32 1721.07H2739.18V1716.03H2718.67V1709H2739.18V1659.54H2750.32V1721.07ZM2667.76 1698.21C2679.63 1698.21 2690.84 1698.04 2701.39 1697.69C2711.98 1697.34 2722 1696.65 2731.45 1695.64L2732.03 1702.79C2723.36 1704.04 2713.28 1704.95 2701.8 1705.54V1721.3H2690.78V1705.95C2683.56 1706.14 2677.27 1706.24 2671.92 1706.24L2664.07 1706.18L2662.78 1698.21H2667.76ZM2670.63 1677.12C2670.63 1673.96 2671.7 1671.18 2673.85 1668.8C2676 1666.42 2679.05 1664.58 2682.99 1663.29C2686.98 1661.96 2691.6 1661.3 2696.88 1661.3C2702.03 1661.3 2706.58 1661.96 2710.53 1663.29C2714.51 1664.58 2717.6 1666.42 2719.79 1668.8C2721.98 1671.18 2723.09 1673.96 2723.13 1677.12C2723.09 1680.32 2721.98 1683.12 2719.79 1685.5C2717.6 1687.84 2714.53 1689.66 2710.59 1690.95C2706.64 1692.2 2702.07 1692.82 2696.88 1692.82C2691.6 1692.82 2686.98 1692.2 2682.99 1690.95C2679.05 1689.66 2676 1687.84 2673.85 1685.5C2671.7 1683.12 2670.63 1680.32 2670.63 1677.12ZM2678.48 1724.58H2750.32V1747.2H2689.85V1755.29H2753.48V1763.37H2678.95V1739.82H2739.3V1732.32H2678.48V1724.58ZM2681.06 1677.12C2681.06 1678.76 2681.7 1680.21 2682.99 1681.46C2684.28 1682.67 2686.12 1683.62 2688.5 1684.33C2690.88 1684.99 2693.67 1685.32 2696.88 1685.32C2700.04 1685.32 2702.8 1684.99 2705.14 1684.33C2707.52 1683.62 2709.36 1682.67 2710.65 1681.46C2711.94 1680.21 2712.58 1678.76 2712.58 1677.12C2712.58 1675.44 2711.94 1673.98 2710.65 1672.73C2709.36 1671.48 2707.52 1670.52 2705.14 1669.86C2702.8 1669.15 2700.04 1668.8 2696.88 1668.8C2693.67 1668.8 2690.88 1669.15 2688.5 1669.86C2686.12 1670.52 2684.28 1671.48 2682.99 1672.73C2681.7 1673.98 2681.06 1675.44 2681.06 1677.12Z" fill="white"/>
<g clip-path="url(#clip4_1891_10794)">
<path d="M3159.4 1700.67V1760H2896.79V1709.38L3020.97 1576.22C3033.46 1562.33 3043.3 1550.12 3050.51 1539.57C3057.71 1528.85 3062.9 1519.27 3066.06 1510.83C3069.4 1502.22 3071.07 1494.04 3071.07 1486.31C3071.07 1474.71 3069.14 1464.78 3065.27 1456.51C3061.4 1448.08 3055.69 1441.57 3048.13 1437C3040.75 1432.43 3031.61 1430.15 3020.71 1430.15C3009.11 1430.15 2999.09 1432.96 2990.65 1438.58C2982.39 1444.21 2976.06 1452.03 2971.67 1462.05C2967.45 1472.07 2965.34 1483.41 2965.34 1496.06H2889.14C2889.14 1473.21 2894.59 1452.29 2905.49 1433.31C2916.38 1414.15 2931.77 1398.95 2951.63 1387.7C2971.49 1376.27 2995.05 1370.56 3022.29 1370.56C3049.19 1370.56 3071.86 1374.95 3090.32 1383.74C3108.95 1392.35 3123.02 1404.83 3132.51 1421.18C3142.18 1437.35 3147.01 1456.69 3147.01 1479.19C3147.01 1491.85 3144.99 1504.24 3140.95 1516.37C3136.9 1528.32 3131.1 1540.27 3123.54 1552.23C3116.16 1564 3107.2 1575.96 3096.65 1588.09C3086.1 1600.21 3074.41 1612.78 3061.58 1625.79L2994.87 1700.67H3159.4ZM3469.48 1700.67V1760H3206.86V1709.38L3331.05 1576.22C3343.53 1562.33 3353.38 1550.12 3360.58 1539.57C3367.79 1528.85 3372.98 1519.27 3376.14 1510.83C3379.48 1502.22 3381.15 1494.04 3381.15 1486.31C3381.15 1474.71 3379.22 1464.78 3375.35 1456.51C3371.48 1448.08 3365.77 1441.57 3358.21 1437C3350.83 1432.43 3341.69 1430.15 3330.79 1430.15C3319.19 1430.15 3309.17 1432.96 3300.73 1438.58C3292.47 1444.21 3286.14 1452.03 3281.75 1462.05C3277.53 1472.07 3275.42 1483.41 3275.42 1496.06H3199.22C3199.22 1473.21 3204.67 1452.29 3215.56 1433.31C3226.46 1414.15 3241.84 1398.95 3261.71 1387.7C3281.57 1376.27 3305.12 1370.56 3332.37 1370.56C3359.27 1370.56 3381.94 1374.95 3400.4 1383.74C3419.03 1392.35 3433.09 1404.83 3442.59 1421.18C3452.25 1437.35 3457.09 1456.69 3457.09 1479.19C3457.09 1491.85 3455.07 1504.24 3451.02 1516.37C3446.98 1528.32 3441.18 1540.27 3433.62 1552.23C3426.24 1564 3417.27 1575.96 3406.73 1588.09C3396.18 1600.21 3384.49 1612.78 3371.66 1625.79L3304.95 1700.67H3469.48Z" fill="#FEC962"/>
</g>
<path d="M3539.11 1662.94C3544.35 1662.98 3549.05 1664.02 3553.23 1666.05C3557.41 1668.04 3560.69 1670.81 3563.08 1674.37C3565.46 1677.92 3566.65 1681.96 3566.65 1686.5C3566.65 1691.03 3565.46 1695.07 3563.08 1698.62C3560.69 1702.18 3557.41 1704.95 3553.23 1706.95C3549.05 1708.94 3544.35 1709.93 3539.11 1709.93C3533.84 1709.93 3529.09 1708.94 3524.87 1706.95C3520.69 1704.95 3517.41 1702.18 3515.03 1698.62C3512.65 1695.07 3511.46 1691.03 3511.46 1686.5C3511.46 1681.96 3512.65 1677.92 3515.03 1674.37C3517.41 1670.81 3520.69 1668.04 3524.87 1666.05C3529.09 1664.02 3533.84 1662.98 3539.11 1662.94ZM3522.35 1686.5C3522.35 1689.35 3523.06 1691.87 3524.46 1694.05C3525.91 1696.2 3527.9 1697.88 3530.44 1699.09C3533.02 1700.3 3535.91 1700.91 3539.11 1700.91C3542.31 1700.91 3545.19 1700.3 3547.72 1699.09C3550.26 1697.88 3552.26 1696.2 3553.7 1694.05C3555.15 1691.87 3555.87 1689.35 3555.87 1686.5C3555.87 1683.68 3555.15 1681.2 3553.7 1679.05C3552.26 1676.87 3550.24 1675.19 3547.67 1674.02C3545.13 1672.84 3542.28 1672.28 3539.11 1672.32C3535.91 1672.28 3533.02 1672.84 3530.44 1674.02C3527.9 1675.19 3525.91 1676.87 3524.46 1679.05C3523.06 1681.2 3522.35 1683.68 3522.35 1686.5ZM3527.39 1717.67H3596.42V1744.15H3538.53V1754.23H3599.93V1763.14H3527.74V1735.83H3585.4V1726.57H3527.39V1717.67ZM3585.28 1659.43H3596.42V1712.86H3585.28V1659.43Z" fill="white"/>
<path d="M1506.77 777.902H1480.11V642.258H1446.12V764.426H1420.63V520.676H1446.12V619.406H1480.11V515.402H1506.77V777.902ZM1290.26 547.043H1388.7V569.602H1318.1V691.184C1335.19 691.086 1350.18 690.549 1363.07 689.572C1376.05 688.596 1389.29 686.789 1402.76 684.152L1404.81 707.004C1390.17 710.031 1375.71 712.082 1361.46 713.156C1347.29 714.133 1329.42 714.719 1307.84 714.914H1290.26V547.043ZM1779.81 651.34H1674.05V673.312H1749.93V732.492H1597V754.172H1757.26V775.266H1569.76V713.156H1722.39V693.527H1569.46V673.312H1646.51V651.34H1541.04V630.539H1779.81V651.34ZM1552.76 599.191C1569.46 598.312 1584.36 596.066 1597.44 592.453C1610.53 588.84 1621.12 584.152 1629.23 578.391C1637.33 572.629 1642.31 566.086 1644.17 558.762H1564.78V537.375H1646.51V514.23H1674.05V537.375H1756.08V558.762H1676.25C1678.11 566.086 1683.04 572.629 1691.04 578.391C1699.15 584.152 1709.79 588.84 1722.98 592.453C1736.26 596.066 1751.3 598.312 1768.1 599.191L1759.6 620.285C1736.16 618.527 1715.75 614.279 1698.37 607.541C1680.99 600.803 1668.29 591.818 1660.28 580.588C1652.28 591.818 1639.53 600.803 1622.05 607.541C1604.67 614.279 1584.21 618.527 1560.67 620.285L1552.76 599.191ZM2006.28 593.039H2044.37V616.477H2006.28V708.469H1978.45V515.695H2006.28V593.039ZM1810.28 534.445H1837.53V576.34H1906.38V534.445H1933.92V665.109H1810.28V534.445ZM1906.38 642.844V598.312H1837.53V642.844H1906.38ZM1839.87 689.426H1867.71V749.777H2017.41V772.336H1839.87V689.426ZM2265.56 572.531H2303.94V595.676H2265.56V652.512H2237.72V515.695H2265.56V572.531ZM2071.32 527.414H2099.15V618.234C2119.37 617.941 2138.55 617.014 2156.72 615.451C2174.98 613.791 2193.49 611.008 2212.24 607.102L2215.75 630.246C2176.4 637.668 2135.38 641.379 2092.71 641.379H2071.32V527.414ZM2097.1 665.695H2124.35V697.922H2237.72V665.695H2265.56V774.68H2097.1V665.695ZM2237.72 752.121V720.48H2124.35V752.121H2237.72ZM2393 524.191C2406.08 524.289 2417.85 526.877 2428.3 531.955C2438.75 536.936 2446.95 543.869 2452.91 552.756C2458.87 561.643 2461.85 571.75 2461.85 583.078C2461.85 594.406 2458.87 604.514 2452.91 613.4C2446.95 622.287 2438.75 629.221 2428.3 634.201C2417.85 639.182 2406.08 641.672 2393 641.672C2379.81 641.672 2367.95 639.182 2357.4 634.201C2346.95 629.221 2338.75 622.287 2332.79 613.4C2326.84 604.514 2323.86 594.406 2323.86 583.078C2323.86 571.75 2326.84 561.643 2332.79 552.756C2338.75 543.869 2346.95 536.936 2357.4 531.955C2367.95 526.877 2379.81 524.289 2393 524.191ZM2351.1 583.078C2351.1 590.207 2352.86 596.506 2356.38 601.975C2359.99 607.346 2364.97 611.545 2371.32 614.572C2377.76 617.6 2384.99 619.113 2393 619.113C2401.01 619.113 2408.18 617.6 2414.53 614.572C2420.88 611.545 2425.86 607.346 2429.47 601.975C2433.09 596.506 2434.89 590.207 2434.89 583.078C2434.89 576.047 2433.09 569.846 2429.47 564.475C2425.86 559.006 2420.83 554.807 2414.38 551.877C2408.04 548.947 2400.91 547.531 2393 547.629C2384.99 547.531 2377.76 548.947 2371.32 551.877C2364.97 554.807 2359.99 559.006 2356.38 564.475C2352.86 569.846 2351.1 576.047 2351.1 583.078ZM2363.7 661.008H2536.26V727.219H2391.53V752.414H2545.05V774.68H2364.58V706.418H2508.72V683.273H2363.7V661.008ZM2508.43 515.402H2536.26V648.996H2508.43V515.402Z" fill="white"/>
<path d="M185.25 132.781H181.938V118.375H178.75V131.344H175.562V105.062H178.75V115.594H181.938V104.531H185.25V132.781ZM161.812 107.875H172.375V110.688H165.312V123.25C166.948 123.229 168.427 123.167 169.75 123.062C171.073 122.958 172.417 122.781 173.781 122.531L174.031 125.375C172.458 125.688 170.911 125.896 169.391 126C167.88 126.104 165.99 126.167 163.719 126.188H161.812V107.875ZM214.281 119.312H203.156V121.375H211.125V128H195.062V129.938H211.906V132.531H191.656V125.625H207.719V123.875H191.625V121.375H199.719V119.312H188.656V116.75H214.281V119.312ZM189.781 113.219C191.604 113.125 193.188 112.911 194.531 112.578C195.885 112.234 196.969 111.797 197.781 111.266C198.594 110.724 199.12 110.115 199.359 109.438H191.125V106.844H199.719V104.469H203.156V106.844H211.812V109.438H203.516C203.745 110.115 204.26 110.724 205.062 111.266C205.875 111.797 206.958 112.234 208.312 112.578C209.677 112.911 211.281 113.125 213.125 113.219L212.094 115.812C209.542 115.656 207.349 115.24 205.516 114.562C203.682 113.885 202.323 112.979 201.438 111.844C200.552 112.979 199.193 113.885 197.359 114.562C195.526 115.24 193.323 115.656 190.75 115.812L189.781 113.219ZM238.531 112.719H242.469V115.594H238.531V125.344H235.062V104.562H238.531V112.719ZM217.219 106.562H220.656V110.875H227.25V106.562H230.688V120.75H217.219V106.562ZM220.438 123.25H223.906V129.406H239.656V132.219H220.438V123.25ZM227.25 118V113.562H220.656V118H227.25ZM266.156 110.5H270.156V113.375H266.156V119.344H262.719V104.562H266.156V110.5ZM245.125 105.812H248.625V115.422C250.604 115.401 252.542 115.302 254.438 115.125C256.333 114.948 258.25 114.667 260.188 114.281L260.594 117.125C256.448 117.896 252.073 118.292 247.469 118.312H245.125V105.812ZM247.844 120.688H251.281V123.844H262.719V120.688H266.188V132.438H247.844V120.688ZM262.719 129.625V126.625H251.281V129.625H262.719ZM279.562 105.438C280.979 105.438 282.255 105.714 283.391 106.266C284.526 106.807 285.417 107.562 286.062 108.531C286.719 109.5 287.052 110.594 287.062 111.812C287.052 113.042 286.719 114.141 286.062 115.109C285.417 116.068 284.526 116.823 283.391 117.375C282.255 117.917 280.979 118.188 279.562 118.188C278.135 118.188 276.849 117.917 275.703 117.375C274.568 116.823 273.677 116.068 273.031 115.109C272.385 114.141 272.062 113.042 272.062 111.812C272.062 110.594 272.385 109.5 273.031 108.531C273.677 107.562 274.568 106.807 275.703 106.266C276.849 105.714 278.135 105.438 279.562 105.438ZM275.438 111.812C275.438 112.531 275.615 113.161 275.969 113.703C276.323 114.234 276.812 114.646 277.438 114.938C278.062 115.229 278.771 115.375 279.562 115.375C280.354 115.375 281.057 115.229 281.672 114.938C282.297 114.646 282.786 114.234 283.141 113.703C283.505 113.161 283.688 112.531 283.688 111.812C283.688 111.115 283.505 110.5 283.141 109.969C282.786 109.438 282.297 109.031 281.672 108.75C281.057 108.458 280.354 108.312 279.562 108.312C278.771 108.312 278.062 108.458 277.438 108.75C276.812 109.031 276.323 109.438 275.969 109.969C275.615 110.5 275.438 111.115 275.438 111.812ZM276.344 120.031H295.094V127.406H279.812V129.688H295.938V132.438H276.406V124.844H291.625V122.75H276.344V120.031ZM291.594 104.531H295.094V118.812H291.594V104.531Z" fill="white"/>
<path d="M3094.78 107.375H3103.44C3105.03 107.375 3106.38 107.625 3107.47 108.125C3108.57 108.625 3109.4 109.318 3109.94 110.203C3110.49 111.089 3110.77 112.104 3110.78 113.25C3110.77 114.562 3110.4 115.625 3109.67 116.438C3108.95 117.24 3108 117.781 3106.81 118.062V118.281C3107.64 118.323 3108.42 118.573 3109.16 119.031C3109.91 119.49 3110.51 120.135 3110.97 120.969C3111.43 121.792 3111.66 122.75 3111.66 123.844C3111.66 125.042 3111.36 126.104 3110.78 127.031C3110.21 127.958 3109.34 128.688 3108.19 129.219C3107.03 129.74 3105.61 130 3103.94 130H3094.78V107.375ZM3103.31 126.594C3104.74 126.594 3105.8 126.323 3106.48 125.781C3107.17 125.229 3107.52 124.479 3107.53 123.531C3107.52 122.854 3107.35 122.245 3107.02 121.703C3106.68 121.161 3106.2 120.734 3105.58 120.422C3104.95 120.099 3104.23 119.938 3103.41 119.938H3098.84V126.594H3103.31ZM3102.94 117C3103.66 117 3104.3 116.87 3104.86 116.609C3105.43 116.339 3105.89 115.958 3106.22 115.469C3106.55 114.979 3106.72 114.406 3106.72 113.75C3106.71 112.854 3106.39 112.13 3105.75 111.578C3105.11 111.026 3104.21 110.75 3103.03 110.75H3098.84V117H3102.94ZM3138.36 118.688C3138.36 121.073 3137.91 123.141 3137.01 124.891C3136.13 126.641 3134.89 127.984 3133.31 128.922C3131.74 129.849 3129.96 130.312 3127.98 130.312C3125.99 130.312 3124.21 129.849 3122.64 128.922C3121.06 127.984 3119.83 126.641 3118.93 124.891C3118.05 123.13 3117.61 121.062 3117.61 118.688C3117.61 116.302 3118.05 114.234 3118.93 112.484C3119.83 110.724 3121.06 109.38 3122.64 108.453C3124.21 107.526 3125.99 107.062 3127.98 107.062C3129.96 107.062 3131.74 107.531 3133.31 108.469C3134.89 109.396 3136.13 110.734 3137.01 112.484C3137.91 114.234 3138.36 116.302 3138.36 118.688ZM3121.7 118.688C3121.7 120.375 3121.96 121.818 3122.48 123.016C3123.01 124.214 3123.75 125.12 3124.7 125.734C3125.65 126.349 3126.74 126.656 3127.98 126.656C3129.23 126.656 3130.32 126.349 3131.26 125.734C3132.21 125.12 3132.94 124.214 3133.47 123.016C3134 121.818 3134.26 120.375 3134.26 118.688C3134.26 117 3134 115.557 3133.47 114.359C3132.94 113.161 3132.21 112.255 3131.26 111.641C3130.32 111.026 3129.23 110.719 3127.98 110.719C3126.74 110.719 3125.65 111.026 3124.7 111.641C3123.75 112.255 3123.01 113.161 3122.48 114.359C3121.96 115.557 3121.7 117 3121.7 118.688ZM3165.37 118.688C3165.37 121.073 3164.92 123.141 3164.03 124.891C3163.14 126.641 3161.91 127.984 3160.32 128.922C3158.75 129.849 3156.97 130.312 3154.99 130.312C3153 130.312 3151.22 129.849 3149.65 128.922C3148.08 127.984 3146.84 126.641 3145.95 124.891C3145.06 123.13 3144.62 121.062 3144.62 118.688C3144.62 116.302 3145.06 114.234 3145.95 112.484C3146.84 110.724 3148.08 109.38 3149.65 108.453C3151.22 107.526 3153 107.062 3154.99 107.062C3156.97 107.062 3158.75 107.531 3160.32 108.469C3161.91 109.396 3163.14 110.734 3164.03 112.484C3164.92 114.234 3165.37 116.302 3165.37 118.688ZM3148.71 118.688C3148.71 120.375 3148.97 121.818 3149.49 123.016C3150.03 124.214 3150.76 125.12 3151.71 125.734C3152.66 126.349 3153.75 126.656 3154.99 126.656C3156.24 126.656 3157.34 126.349 3158.28 125.734C3159.22 125.12 3159.96 124.214 3160.48 123.016C3161.01 121.818 3161.28 120.375 3161.28 118.688C3161.28 117 3161.01 115.557 3160.48 114.359C3159.96 113.161 3159.22 112.255 3158.28 111.641C3157.34 111.026 3156.24 110.719 3154.99 110.719C3153.75 110.719 3152.66 111.026 3151.71 111.641C3150.76 112.255 3150.03 113.161 3149.49 114.359C3148.97 115.557 3148.71 117 3148.71 118.688ZM3172.19 107.375H3176.26V117.781H3176.57L3185.41 107.375H3190.38L3181.63 117.531L3190.47 130H3185.57L3178.79 120.281L3176.26 123.25V130H3172.19V107.375ZM3206.97 107.375H3215.62C3217.22 107.375 3218.56 107.625 3219.66 108.125C3220.76 108.625 3221.58 109.318 3222.12 110.203C3222.68 111.089 3222.96 112.104 3222.97 113.25C3222.96 114.562 3222.59 115.625 3221.86 116.438C3221.14 117.24 3220.19 117.781 3219 118.062V118.281C3219.82 118.323 3220.6 118.573 3221.34 119.031C3222.09 119.49 3222.7 120.135 3223.16 120.969C3223.61 121.792 3223.84 122.75 3223.84 123.844C3223.84 125.042 3223.55 126.104 3222.97 127.031C3222.4 127.958 3221.53 128.688 3220.38 129.219C3219.22 129.74 3217.8 130 3216.12 130H3206.97V107.375ZM3215.5 126.594C3216.93 126.594 3217.98 126.323 3218.67 125.781C3219.36 125.229 3219.71 124.479 3219.72 123.531C3219.71 122.854 3219.54 122.245 3219.2 121.703C3218.87 121.161 3218.39 120.734 3217.77 120.422C3217.14 120.099 3216.42 119.938 3215.59 119.938H3211.03V126.594H3215.5ZM3215.12 117C3215.84 117 3216.48 116.87 3217.05 116.609C3217.62 116.339 3218.07 115.958 3218.41 115.469C3218.74 114.979 3218.91 114.406 3218.91 113.75C3218.9 112.854 3218.57 112.13 3217.94 111.578C3217.3 111.026 3216.4 110.75 3215.22 110.75H3211.03V117H3215.12ZM3250.54 118.688C3250.54 121.073 3250.1 123.141 3249.2 124.891C3248.31 126.641 3247.08 127.984 3245.5 128.922C3243.92 129.849 3242.15 130.312 3240.17 130.312C3238.18 130.312 3236.4 129.849 3234.82 128.922C3233.25 127.984 3232.02 126.641 3231.12 124.891C3230.24 123.13 3229.79 121.062 3229.79 118.688C3229.79 116.302 3230.24 114.234 3231.12 112.484C3232.02 110.724 3233.25 109.38 3234.82 108.453C3236.4 107.526 3238.18 107.062 3240.17 107.062C3242.15 107.062 3243.92 107.531 3245.5 108.469C3247.08 109.396 3248.31 110.734 3249.2 112.484C3250.1 114.234 3250.54 116.302 3250.54 118.688ZM3233.89 118.688C3233.89 120.375 3234.15 121.818 3234.67 123.016C3235.2 124.214 3235.94 125.12 3236.89 125.734C3237.84 126.349 3238.93 126.656 3240.17 126.656C3241.42 126.656 3242.51 126.349 3243.45 125.734C3244.4 125.12 3245.13 124.214 3245.65 123.016C3246.18 121.818 3246.45 120.375 3246.45 118.688C3246.45 117 3246.18 115.557 3245.65 114.359C3245.13 113.161 3244.4 112.255 3243.45 111.641C3242.51 111.026 3241.42 110.719 3240.17 110.719C3238.93 110.719 3237.84 111.026 3236.89 111.641C3235.94 112.255 3235.2 113.161 3234.67 114.359C3234.15 115.557 3233.89 117 3233.89 118.688ZM3257.37 107.375H3265.87C3267.57 107.375 3269.01 107.677 3270.2 108.281C3271.39 108.875 3272.3 109.714 3272.9 110.797C3273.51 111.88 3273.83 113.146 3273.84 114.594C3273.83 116.135 3273.47 117.464 3272.78 118.578C3272.09 119.682 3271.08 120.5 3269.76 121.031L3274.65 130H3270.12L3265.68 121.719H3261.43V130H3257.37V107.375ZM3265.24 118.312C3268.2 118.323 3269.68 117.083 3269.68 114.594C3269.68 113.365 3269.32 112.422 3268.59 111.766C3267.86 111.109 3266.74 110.781 3265.24 110.781H3261.43V118.312H3265.24ZM3280.54 107.375H3289.04C3290.74 107.375 3292.18 107.677 3293.37 108.281C3294.56 108.875 3295.46 109.714 3296.07 110.797C3296.68 111.88 3297 113.146 3297.01 114.594C3297 116.135 3296.64 117.464 3295.94 118.578C3295.26 119.682 3294.25 120.5 3292.93 121.031L3297.82 130H3293.29L3288.85 121.719H3284.6V130H3280.54V107.375ZM3288.41 118.312C3291.37 118.323 3292.85 117.083 3292.85 114.594C3292.85 113.365 3292.49 112.422 3291.76 111.766C3291.03 111.109 3289.91 110.781 3288.41 110.781H3284.6V118.312H3288.41ZM3323.89 118.688C3323.89 121.073 3323.45 123.141 3322.55 124.891C3321.66 126.641 3320.43 127.984 3318.85 128.922C3317.27 129.849 3315.5 130.312 3313.52 130.312C3311.53 130.312 3309.75 129.849 3308.18 128.922C3306.6 127.984 3305.37 126.641 3304.47 124.891C3303.59 123.13 3303.14 121.062 3303.14 118.688C3303.14 116.302 3303.59 114.234 3304.47 112.484C3305.37 110.724 3306.6 109.38 3308.18 108.453C3309.75 107.526 3311.53 107.062 3313.52 107.062C3315.5 107.062 3317.27 107.531 3318.85 108.469C3320.43 109.396 3321.66 110.734 3322.55 112.484C3323.45 114.234 3323.89 116.302 3323.89 118.688ZM3307.24 118.688C3307.24 120.375 3307.5 121.818 3308.02 123.016C3308.55 124.214 3309.29 125.12 3310.24 125.734C3311.19 126.349 3312.28 126.656 3313.52 126.656C3314.77 126.656 3315.86 126.349 3316.8 125.734C3317.75 125.12 3318.48 124.214 3319 123.016C3319.53 121.818 3319.8 120.375 3319.8 118.688C3319.8 117 3319.53 115.557 3319 114.359C3318.48 113.161 3317.75 112.255 3316.8 111.641C3315.86 111.026 3314.77 110.719 3313.52 110.719C3312.28 110.719 3311.19 111.026 3310.24 111.641C3309.29 112.255 3308.55 113.161 3308.02 114.359C3307.5 115.557 3307.24 117 3307.24 118.688ZM3328.56 107.375H3332.94L3337.03 124.031H3337.25L3341.59 107.375H3345.59L3349.97 124.062H3350.16L3354.25 107.375H3358.62L3352.25 130H3348.22L3343.69 114.094H3343.53L3338.97 130H3334.94L3328.56 107.375ZM3368.48 130H3364.42V107.375H3368.48V130ZM3394.49 130H3390.87L3380.15 114.531H3379.96V130H3375.9V107.375H3379.59L3390.24 122.844H3390.46V107.375H3394.49V130ZM3417.04 114.594C3416.66 113.375 3416.02 112.427 3415.1 111.75C3414.18 111.062 3413.05 110.719 3411.69 110.719C3410.47 110.719 3409.39 111.031 3408.43 111.656C3407.48 112.271 3406.74 113.177 3406.21 114.375C3405.68 115.573 3405.41 117 3405.41 118.656C3405.41 120.333 3405.68 121.776 3406.21 122.984C3406.74 124.182 3407.49 125.094 3408.44 125.719C3409.4 126.344 3410.52 126.656 3411.79 126.656C3412.91 126.656 3413.9 126.443 3414.74 126.016C3415.59 125.578 3416.25 124.964 3416.71 124.172C3417.18 123.37 3417.42 122.438 3417.44 121.375H3412.19V118.156H3421.38V120.875C3421.38 122.781 3420.97 124.448 3420.15 125.875C3419.33 127.302 3418.2 128.401 3416.76 129.172C3415.31 129.932 3413.65 130.312 3411.79 130.312C3409.71 130.312 3407.89 129.844 3406.3 128.906C3404.72 127.958 3403.49 126.609 3402.62 124.859C3401.75 123.099 3401.32 121.042 3401.32 118.688C3401.32 116.323 3401.76 114.266 3402.65 112.516C3403.54 110.755 3404.77 109.406 3406.33 108.469C3407.91 107.531 3409.68 107.062 3411.66 107.062C3413.3 107.062 3414.8 107.38 3416.16 108.016C3417.54 108.651 3418.66 109.542 3419.54 110.688C3420.41 111.823 3420.96 113.125 3421.19 114.594H3417.04ZM3439.06 107.375H3447.56C3449.26 107.375 3450.7 107.677 3451.89 108.281C3453.09 108.875 3453.99 109.714 3454.59 110.797C3455.21 111.88 3455.52 113.146 3455.53 114.594C3455.52 116.135 3455.17 117.464 3454.47 118.578C3453.78 119.682 3452.78 120.5 3451.45 121.031L3456.34 130H3451.81L3447.38 121.719H3443.12V130H3439.06V107.375ZM3446.94 118.312C3449.9 118.323 3451.38 117.083 3451.38 114.594C3451.38 113.365 3451.01 112.422 3450.28 111.766C3449.55 111.109 3448.44 110.781 3446.94 110.781H3443.12V118.312H3446.94ZM3462.23 107.375H3476.95V110.781H3466.29V116.969H3476.17V120.375H3466.29V126.562H3477.01V130H3462.23V107.375ZM3483.06 107.375H3501.09V110.781H3494.12V130H3490.06V110.781H3483.06V107.375ZM3525.85 107.375V122.156C3525.85 123.76 3525.46 125.182 3524.69 126.422C3523.93 127.661 3522.86 128.625 3521.46 129.312C3520.07 130 3518.47 130.344 3516.66 130.344C3514.84 130.344 3513.24 130 3511.85 129.312C3510.46 128.625 3509.39 127.661 3508.62 126.422C3507.86 125.182 3507.47 123.76 3507.47 122.156V107.375H3511.54V121.812C3511.54 122.76 3511.75 123.604 3512.16 124.344C3512.59 125.083 3513.19 125.667 3513.96 126.094C3514.74 126.51 3515.64 126.719 3516.66 126.719C3517.68 126.719 3518.58 126.51 3519.35 126.094C3520.12 125.667 3520.71 125.083 3521.13 124.344C3521.55 123.604 3521.76 122.76 3521.76 121.812V107.375H3525.85ZM3533.24 107.375H3541.74C3543.44 107.375 3544.88 107.677 3546.07 108.281C3547.26 108.875 3548.16 109.714 3548.77 110.797C3549.38 111.88 3549.7 113.146 3549.71 114.594C3549.7 116.135 3549.34 117.464 3548.64 118.578C3547.96 119.682 3546.95 120.5 3545.63 121.031L3550.52 130H3545.99L3541.55 121.719H3537.3V130H3533.24V107.375ZM3541.11 118.312C3544.07 118.323 3545.55 117.083 3545.55 114.594C3545.55 113.365 3545.19 112.422 3544.46 111.766C3543.73 111.109 3542.61 110.781 3541.11 110.781H3537.3V118.312H3541.11ZM3575 130H3571.38L3560.66 114.531H3560.47V130H3556.41V107.375H3560.09L3570.75 122.844H3570.97V107.375H3575V130ZM3593.18 130V107.375H3600.99C3603.23 107.375 3605.17 107.828 3606.79 108.734C3608.42 109.63 3609.66 110.927 3610.53 112.625C3611.4 114.312 3611.84 116.323 3611.84 118.656C3611.84 121 3611.4 123.026 3610.53 124.734C3609.65 126.432 3608.39 127.734 3606.74 128.641C3605.1 129.547 3603.14 130 3600.87 130H3593.18ZM3600.65 126.469C3605.4 126.49 3607.78 123.885 3607.78 118.656C3607.78 116.073 3607.19 114.135 3606.01 112.844C3604.83 111.542 3603.09 110.896 3600.78 110.906H3597.24V126.469H3600.65ZM3615.94 130L3623.91 107.375H3628.91L3636.91 130H3632.57L3630.68 124.406H3622.16L3620.29 130H3615.94ZM3629.58 121.125L3626.51 112H3626.32L3623.26 121.125H3629.58ZM3639.05 107.375H3657.08V110.781H3650.11V130H3646.05V110.781H3639.05V107.375ZM3663.47 107.375H3678.19V110.781H3667.53V116.969H3677.41V120.375H3667.53V126.562H3678.25V130H3663.47V107.375Z" fill="#8B95A1"/>
</g>
<defs>
<filter id="filter0_b_1891_10794" x="65" y="906" width="1900" height="440" filterUnits="userSpaceOnUse" color-interpolation-filters="sRGB">
<feFlood flood-opacity="0" result="BackgroundImageFix"/>
<feGaussianBlur in="BackgroundImageFix" stdDeviation="50"/>
<feComposite in2="SourceAlpha" operator="in" result="effect1_backgroundBlur_1891_10794"/>
<feBlend mode="normal" in="SourceGraphic" in2="effect1_backgroundBlur_1891_10794" result="shape"/>
</filter>
<filter id="filter1_b_1891_10794" x="1875" y="906" width="1900" height="440" filterUnits="userSpaceOnUse" color-interpolation-filters="sRGB">
<feFlood flood-opacity="0" result="BackgroundImageFix"/>
<feGaussianBlur in="BackgroundImageFix" stdDeviation="50"/>
<feComposite in2="SourceAlpha" operator="in" result="effect1_backgroundBlur_1891_10794"/>
<feBlend mode="normal" in="SourceGraphic" in2="effect1_backgroundBlur_1891_10794" result="shape"/>
</filter>
<clipPath id="clip0_1891_10794">
<rect width="3840" height="2160" fill="white"/>
</clipPath>
<clipPath id="clip1_1891_10794">
<rect width="618.335" height="631.119" fill="white" transform="translate(214.664 1260)"/>
</clipPath>
<clipPath id="clip2_1891_10794">
<rect width="618.335" height="631.119" fill="white" transform="translate(1061 1260)"/>
</clipPath>
<clipPath id="clip3_1891_10794">
<rect width="618.335" height="631.119" fill="white" transform="translate(2024.66 1260)"/>
</clipPath>
<clipPath id="clip4_1891_10794">
<rect width="618.335" height="631.119" fill="white" transform="translate(2871 1260)"/>
</clipPath>
</defs>
</svg>
