<svg width="1200" height="676" viewBox="0 0 1200 676" fill="none" xmlns="http://www.w3.org/2000/svg">
<g clip-path="url(#clip0_5778_9564)">
<rect width="1200" height="675" transform="translate(0 0.5625)" fill="#F5F0EE"/>
<rect y="0.5625" width="1014.38" height="675" fill="url(#paint0_linear_5778_9564)"/>
<path d="M536.997 34.7422H539.702C540.2 34.7422 540.62 34.8203 540.962 34.9766C541.307 35.1328 541.564 35.3493 541.733 35.626C541.906 35.9027 541.994 36.2201 541.997 36.5781C541.994 36.9883 541.878 37.3203 541.65 37.5742C541.426 37.8249 541.128 37.9941 540.757 38.082V38.1504C541.014 38.1634 541.258 38.2415 541.489 38.3848C541.724 38.528 541.912 38.7298 542.056 38.9902C542.199 39.2474 542.271 39.5469 542.271 39.8887C542.271 40.263 542.179 40.5951 541.997 40.8848C541.818 41.1745 541.548 41.4023 541.187 41.5684C540.825 41.7311 540.382 41.8125 539.858 41.8125H536.997V34.7422ZM539.663 40.748C540.109 40.748 540.439 40.6634 540.654 40.4941C540.869 40.3216 540.978 40.0872 540.981 39.791C540.978 39.5794 540.924 39.389 540.82 39.2197C540.716 39.0505 540.566 38.917 540.371 38.8193C540.176 38.7184 539.95 38.668 539.692 38.668H538.267V40.748H539.663ZM539.546 37.75C539.771 37.75 539.971 37.7093 540.146 37.6279C540.326 37.5433 540.467 37.4245 540.571 37.2715C540.675 37.1185 540.728 36.9395 540.728 36.7344C540.724 36.4544 540.623 36.2282 540.425 36.0557C540.226 35.8831 539.943 35.7969 539.575 35.7969H538.267V37.75H539.546ZM551.614 38.2773C551.614 39.0228 551.474 39.6689 551.194 40.2158C550.918 40.7627 550.532 41.1826 550.037 41.4756C549.546 41.7653 548.991 41.9102 548.372 41.9102C547.75 41.9102 547.194 41.7653 546.702 41.4756C546.211 41.1826 545.825 40.7627 545.545 40.2158C545.268 39.6657 545.13 39.0195 545.13 38.2773C545.13 37.5319 545.268 36.8857 545.545 36.3389C545.825 35.7887 546.211 35.3688 546.702 35.0791C547.194 34.7894 547.75 34.6445 548.372 34.6445C548.991 34.6445 549.546 34.791 550.037 35.084C550.532 35.3737 550.918 35.792 551.194 36.3389C551.474 36.8857 551.614 37.5319 551.614 38.2773ZM546.409 38.2773C546.409 38.8047 546.491 39.2555 546.653 39.6299C546.819 40.0042 547.05 40.2874 547.347 40.4795C547.643 40.6715 547.985 40.7676 548.372 40.7676C548.763 40.7676 549.104 40.6715 549.397 40.4795C549.694 40.2874 549.923 40.0042 550.086 39.6299C550.252 39.2555 550.335 38.8047 550.335 38.2773C550.335 37.75 550.252 37.2992 550.086 36.9248C549.923 36.5505 549.694 36.2673 549.397 36.0752C549.104 35.8831 548.763 35.7871 548.372 35.7871C547.985 35.7871 547.643 35.8831 547.347 36.0752C547.05 36.2673 546.819 36.5505 546.653 36.9248C546.491 37.2992 546.409 37.75 546.409 38.2773ZM561.056 38.2773C561.056 39.0228 560.916 39.6689 560.636 40.2158C560.359 40.7627 559.973 41.1826 559.479 41.4756C558.987 41.7653 558.432 41.9102 557.813 41.9102C557.192 41.9102 556.635 41.7653 556.144 41.4756C555.652 41.1826 555.266 40.7627 554.986 40.2158C554.71 39.6657 554.571 39.0195 554.571 38.2773C554.571 37.5319 554.71 36.8857 554.986 36.3389C555.266 35.7887 555.652 35.3688 556.144 35.0791C556.635 34.7894 557.192 34.6445 557.813 34.6445C558.432 34.6445 558.987 34.791 559.479 35.084C559.973 35.3737 560.359 35.792 560.636 36.3389C560.916 36.8857 561.056 37.5319 561.056 38.2773ZM555.851 38.2773C555.851 38.8047 555.932 39.2555 556.095 39.6299C556.261 40.0042 556.492 40.2874 556.788 40.4795C557.084 40.6715 557.426 40.7676 557.813 40.7676C558.204 40.7676 558.546 40.6715 558.839 40.4795C559.135 40.2874 559.365 40.0042 559.527 39.6299C559.693 39.2555 559.776 38.8047 559.776 38.2773C559.776 37.75 559.693 37.2992 559.527 36.9248C559.365 36.5505 559.135 36.2673 558.839 36.0752C558.546 35.8831 558.204 35.7871 557.813 35.7871C557.426 35.7871 557.084 35.8831 556.788 36.0752C556.492 36.2673 556.261 36.5505 556.095 36.9248C555.932 37.2992 555.851 37.75 555.851 38.2773ZM564.188 34.7422H565.458V37.9941H565.556L568.319 34.7422H569.872L567.138 37.916L569.901 41.8125H568.368L566.249 38.7754L565.458 39.7031V41.8125H564.188V34.7422ZM578.325 41.8125H577.056V34.7422H578.325V41.8125ZM587.454 41.8125H586.321L582.972 36.9785H582.913V41.8125H581.644V34.7422H582.796L586.126 39.5762H586.194V34.7422H587.454V41.8125ZM590.763 34.7422H595.294V35.8066H592.032V37.7402H594.981V38.8047H592.032V41.8125H590.763V34.7422ZM604.677 38.2773C604.677 39.0228 604.537 39.6689 604.257 40.2158C603.98 40.7627 603.594 41.1826 603.1 41.4756C602.608 41.7653 602.053 41.9102 601.435 41.9102C600.813 41.9102 600.256 41.7653 599.765 41.4756C599.273 41.1826 598.887 40.7627 598.607 40.2158C598.331 39.6657 598.192 39.0195 598.192 38.2773C598.192 37.5319 598.331 36.8857 598.607 36.3389C598.887 35.7887 599.273 35.3688 599.765 35.0791C600.256 34.7894 600.813 34.6445 601.435 34.6445C602.053 34.6445 602.608 34.791 603.1 35.084C603.594 35.3737 603.98 35.792 604.257 36.3389C604.537 36.8857 604.677 37.5319 604.677 38.2773ZM599.472 38.2773C599.472 38.8047 599.553 39.2555 599.716 39.6299C599.882 40.0042 600.113 40.2874 600.409 40.4795C600.705 40.6715 601.047 40.7676 601.435 40.7676C601.825 40.7676 602.167 40.6715 602.46 40.4795C602.756 40.2874 602.986 40.0042 603.148 39.6299C603.314 39.2555 603.397 38.8047 603.397 38.2773C603.397 37.75 603.314 37.2992 603.148 36.9248C602.986 36.5505 602.756 36.2673 602.46 36.0752C602.167 35.8831 601.825 35.7871 601.435 35.7871C601.047 35.7871 600.705 35.8831 600.409 36.0752C600.113 36.2673 599.882 36.5505 599.716 36.9248C599.553 37.2992 599.472 37.75 599.472 38.2773ZM607.81 34.7422H610.466C610.996 34.7422 611.447 34.8366 611.818 35.0254C612.193 35.2109 612.474 35.473 612.663 35.8115C612.855 36.1501 612.953 36.5456 612.956 36.998C612.953 37.4798 612.842 37.8949 612.624 38.2432C612.409 38.5882 612.095 38.8438 611.682 39.0098L613.21 41.8125H611.794L610.407 39.2246H609.079V41.8125H607.81V34.7422ZM610.271 38.1602C611.195 38.1634 611.657 37.776 611.657 36.998C611.657 36.6139 611.543 36.3193 611.315 36.1143C611.088 35.9092 610.739 35.8066 610.271 35.8066H609.079V38.1602H610.271ZM617.612 34.7422L619.712 39.8789H619.8L621.899 34.7422H623.462V41.8125H622.241V36.9492H622.173L620.21 41.793H619.302L617.339 36.9297H617.28V41.8125H616.05V34.7422H617.612ZM626.312 41.8125L628.802 34.7422H630.364L632.864 41.8125H631.507L630.916 40.0645H628.255L627.669 41.8125H626.312ZM630.574 39.0391L629.612 36.1875H629.554L628.597 39.0391H630.574ZM634.532 34.7422H640.167V35.8066H637.989V41.8125H636.72V35.8066H634.532V34.7422ZM644.433 41.8125H643.163V34.7422H644.433V41.8125ZM654.06 38.2773C654.06 39.0228 653.92 39.6689 653.64 40.2158C653.363 40.7627 652.977 41.1826 652.482 41.4756C651.991 41.7653 651.436 41.9102 650.817 41.9102C650.196 41.9102 649.639 41.7653 649.147 41.4756C648.656 41.1826 648.27 40.7627 647.99 40.2158C647.714 39.6657 647.575 39.0195 647.575 38.2773C647.575 37.5319 647.714 36.8857 647.99 36.3389C648.27 35.7887 648.656 35.3688 649.147 35.0791C649.639 34.7894 650.196 34.6445 650.817 34.6445C651.436 34.6445 651.991 34.791 652.482 35.084C652.977 35.3737 653.363 35.792 653.64 36.3389C653.92 36.8857 654.06 37.5319 654.06 38.2773ZM648.854 38.2773C648.854 38.8047 648.936 39.2555 649.099 39.6299C649.265 40.0042 649.496 40.2874 649.792 40.4795C650.088 40.6715 650.43 40.7676 650.817 40.7676C651.208 40.7676 651.55 40.6715 651.843 40.4795C652.139 40.2874 652.368 40.0042 652.531 39.6299C652.697 39.2555 652.78 38.8047 652.78 38.2773C652.78 37.75 652.697 37.2992 652.531 36.9248C652.368 36.5505 652.139 36.2673 651.843 36.0752C651.55 35.8831 651.208 35.7871 650.817 35.7871C650.43 35.7871 650.088 35.8831 649.792 36.0752C649.496 36.2673 649.265 36.5505 649.099 36.9248C648.936 37.2992 648.854 37.75 648.854 38.2773ZM663.003 41.8125H661.87L658.521 36.9785H658.462V41.8125H657.192V34.7422H658.345L661.675 39.5762H661.743V34.7422H663.003V41.8125Z" fill="#ADB5BD"/>
<path d="M572.983 66.3262H565.786V71.8853H575.454V74.3291H553.271V71.8853H562.832V66.3262H555.957V54.7246H572.795V57.1147H558.938V63.9629H572.983V66.3262ZM586.008 58.7529C585.999 60.2747 586.232 61.7428 586.707 63.1572C587.181 64.5716 587.87 65.8293 588.774 66.9304C589.688 68.0225 590.771 68.8416 592.024 69.3877L590.225 71.7778C588.882 71.1243 587.727 70.1844 586.76 68.958C585.793 67.7316 585.046 66.3038 584.518 64.6746C583.972 66.4023 583.202 67.9241 582.208 69.24C581.215 70.547 580.037 71.5451 578.677 72.2344L576.797 69.8174C578.077 69.2176 579.183 68.3403 580.114 67.1855C581.045 66.0308 581.752 64.7193 582.235 63.2512C582.719 61.7831 582.965 60.2837 582.974 58.7529V54.8857H586.008V58.7529ZM589.338 60.7671H594.441V52.9253H597.395V77.2295H594.441V63.1841H589.338V60.7671ZM621.135 67.3467H618.154V61.4116H614.019V58.9678H618.154V52.9253H621.135V67.3467ZM600.725 64.9297C601.987 64.5 603.066 63.8778 603.961 63.0632C604.865 62.2486 605.546 61.3266 606.002 60.2971C606.459 59.2677 606.687 58.2069 606.687 57.1147V56.9268H601.638V54.5098H614.744V56.9268H609.722V57.0879C609.722 58.0905 609.941 59.0662 610.38 60.0151C610.818 60.9551 611.467 61.801 612.327 62.553C613.186 63.296 614.224 63.8734 615.442 64.2852L613.938 66.6484C612.622 66.2008 611.485 65.5429 610.527 64.6746C609.569 63.7973 608.813 62.7723 608.258 61.5996C607.712 62.9245 606.933 64.0793 605.922 65.064C604.91 66.0487 603.697 66.7917 602.283 67.293L600.725 64.9297ZM604.673 72.5835C604.664 71.6257 604.991 70.8021 605.653 70.1128C606.316 69.4146 607.264 68.8819 608.5 68.5149C609.744 68.1479 611.217 67.9644 612.917 67.9644C614.627 67.9644 616.104 68.1479 617.349 68.5149C618.593 68.8819 619.546 69.4101 620.209 70.0994C620.88 70.7887 621.216 71.6167 621.216 72.5835C621.216 73.5503 620.88 74.3783 620.209 75.0676C619.546 75.7569 618.593 76.2851 617.349 76.6521C616.104 77.0191 614.627 77.2026 612.917 77.2026C611.217 77.2026 609.744 77.0191 608.5 76.6521C607.264 76.2851 606.316 75.7524 605.653 75.0542C604.991 74.3649 604.664 73.5413 604.673 72.5835ZM607.627 72.5835C607.618 73.3265 608.066 73.8994 608.97 74.3022C609.883 74.6961 611.172 74.8931 612.837 74.8931C614.574 74.8931 615.907 74.6961 616.838 74.3022C617.769 73.9084 618.235 73.3354 618.235 72.5835C618.235 71.8315 617.774 71.2542 616.852 70.8513C615.939 70.4485 614.627 70.2471 612.917 70.2471C611.226 70.2471 609.919 70.4485 608.997 70.8513C608.075 71.2542 607.618 71.8315 607.627 72.5835ZM646.755 74.2754H624.573V71.8315H634.133V67.105H627.017V54.5366H629.998V58.5112H641.25V54.5366H644.231V67.105H637.087V71.8315H646.755V74.2754ZM641.25 64.688V60.9014H629.998V64.688H641.25Z" fill="#191F28"/>
<g clip-path="url(#clip1_5778_9564)">
<path d="M36.2028 632.25L31.25 637.25L36.2028 642.25V638.5H44.8703C48.3047 638.5 51.0613 641.283 51.0613 644.75C51.0613 648.217 48.3047 651 44.8703 651H32.4882V653.5H44.8703C49.6427 653.5 53.5377 649.568 53.5377 644.75C53.5377 639.932 49.6427 636 44.8703 636H36.2028V632.25Z" fill="#191F28"/>
</g>
</g>
<defs>
<linearGradient id="paint0_linear_5778_9564" x1="45.5529" y1="0.562502" x2="168.514" y2="732.461" gradientUnits="userSpaceOnUse">
<stop stop-color="#EDE3DA"/>
<stop offset="1" stop-color="#D9D0C9"/>
</linearGradient>
<clipPath id="clip0_5778_9564">
<rect width="1200" height="675" fill="white" transform="translate(0 0.5625)"/>
</clipPath>
<clipPath id="clip1_5778_9564">
<rect width="29.717" height="30" fill="white" transform="translate(31.25 628.5)"/>
</clipPath>
</defs>
</svg>
