<svg width="1200" height="676" viewBox="0 0 1200 676" fill="none" xmlns="http://www.w3.org/2000/svg">
<g clip-path="url(#clip0_5778_9418)">
<rect width="1200" height="675" transform="translate(0 0.5625)" fill="#E4E3E5"/>
<rect width="1200" height="675" transform="translate(0 0.5625)" fill="url(#paint0_linear_5778_9418)"/>
<g filter="url(#filter0_f_5778_9418)">
<circle cx="992.969" cy="633.531" r="281.719" fill="#E4C19A" fill-opacity="0.6"/>
</g>
<g style="mix-blend-mode:screen" filter="url(#filter1_f_5778_9418)">
<circle cx="367.007" cy="345.696" r="258.146" transform="rotate(30 367.007 345.696)" fill="url(#paint1_linear_5778_9418)" fill-opacity="0.1"/>
</g>
<path d="M507.604 36.6855C507.572 36.3861 507.437 36.1517 507.199 35.9824C506.965 35.8132 506.659 35.7285 506.281 35.7285C506.014 35.7285 505.782 35.7676 505.583 35.8457C505.388 35.9238 505.238 36.0329 505.134 36.1729C505.03 36.3128 504.978 36.4723 504.978 36.6514C504.978 36.9183 505.09 37.1266 505.314 37.2764C505.539 37.4229 505.83 37.5384 506.188 37.623L506.853 37.7988C507.461 37.9388 507.958 38.1715 508.342 38.4971C508.729 38.8193 508.923 39.2637 508.923 39.8301C508.923 40.2435 508.817 40.6081 508.605 40.9238C508.394 41.2396 508.086 41.4854 507.683 41.6611C507.282 41.8337 506.804 41.9199 506.247 41.9199C505.7 41.9199 505.223 41.8353 504.816 41.666C504.413 41.4935 504.097 41.2428 503.869 40.9141C503.641 40.5853 503.519 40.1914 503.503 39.7324H504.753C504.782 40.0872 504.932 40.359 505.202 40.5479C505.472 40.7367 505.817 40.8327 506.237 40.8359C506.514 40.8359 506.758 40.7936 506.97 40.709C507.185 40.6211 507.352 40.5007 507.473 40.3477C507.593 40.1947 507.653 40.0189 507.653 39.8203C507.65 39.5599 507.543 39.3581 507.331 39.2148C507.119 39.0684 506.8 38.9414 506.374 38.834L505.573 38.6289C504.317 38.3001 503.688 37.6654 503.688 36.7246C503.688 36.3145 503.801 35.9531 504.025 35.6406C504.25 35.3249 504.559 35.0807 504.953 34.9082C505.347 34.7324 505.791 34.6445 506.286 34.6445C506.778 34.6445 507.214 34.7308 507.595 34.9033C507.979 35.0758 508.278 35.3184 508.493 35.6309C508.708 35.9401 508.819 36.2917 508.825 36.6855H507.604ZM513.54 34.7422L515.64 39.8789H515.728L517.827 34.7422H519.39V41.8125H518.169V36.9492H518.101L516.138 41.793H515.229L513.267 36.9297H513.208V41.8125H511.978V34.7422H513.54ZM522.239 41.8125L524.729 34.7422H526.292L528.792 41.8125H527.435L526.844 40.0645H524.183L523.597 41.8125H522.239ZM526.502 39.0391L525.54 36.1875H525.481L524.524 39.0391H526.502ZM531.632 34.7422H534.288C534.819 34.7422 535.27 34.8366 535.641 35.0254C536.015 35.2109 536.297 35.473 536.485 35.8115C536.677 36.1501 536.775 36.5456 536.778 36.998C536.775 37.4798 536.664 37.8949 536.446 38.2432C536.231 38.5882 535.917 38.8438 535.504 39.0098L537.032 41.8125H535.616L534.229 39.2246H532.901V41.8125H531.632V34.7422ZM534.093 38.1602C535.017 38.1634 535.479 37.776 535.479 36.998C535.479 36.6139 535.366 36.3193 535.138 36.1143C534.91 35.9092 534.562 35.8066 534.093 35.8066H532.901V38.1602H534.093ZM539.56 34.7422H545.194V35.8066H543.017V41.8125H541.747V35.8066H539.56V34.7422ZM552.563 34.7422H555.22C555.75 34.7422 556.201 34.8366 556.572 35.0254C556.947 35.2109 557.228 35.473 557.417 35.8115C557.609 36.1501 557.707 36.5456 557.71 36.998C557.707 37.4798 557.596 37.8949 557.378 38.2432C557.163 38.5882 556.849 38.8438 556.436 39.0098L557.964 41.8125H556.548L555.161 39.2246H553.833V41.8125H552.563V34.7422ZM555.024 38.1602C555.949 38.1634 556.411 37.776 556.411 36.998C556.411 36.6139 556.297 36.3193 556.069 36.1143C555.841 35.9092 555.493 35.8066 555.024 35.8066H553.833V38.1602H555.024ZM560.804 34.7422H565.403V35.8066H562.073V37.7402H565.159V38.8047H562.073V40.7383H565.423V41.8125H560.804V34.7422ZM573.39 37.125C573.341 36.8483 573.237 36.609 573.077 36.4072C572.921 36.2054 572.724 36.0524 572.486 35.9482C572.249 35.8408 571.987 35.7871 571.7 35.7871C571.313 35.7871 570.969 35.8848 570.67 36.0801C570.374 36.2721 570.143 36.5553 569.977 36.9297C569.811 37.304 569.728 37.7533 569.728 38.2773C569.728 38.8079 569.811 39.2604 569.977 39.6348C570.143 40.0059 570.374 40.2874 570.67 40.4795C570.969 40.6715 571.313 40.7676 571.7 40.7676C571.98 40.7676 572.237 40.7171 572.472 40.6162C572.709 40.512 572.908 40.3623 573.067 40.167C573.227 39.9717 573.334 39.7389 573.39 39.4688H574.669C574.604 39.9245 574.439 40.3379 574.176 40.709C573.912 41.0801 573.565 41.373 573.136 41.5879C572.709 41.8027 572.224 41.9102 571.681 41.9102C571.056 41.9102 570.497 41.7653 570.006 41.4756C569.518 41.1826 569.135 40.7627 568.858 40.2158C568.585 39.6657 568.448 39.0195 568.448 38.2773C568.448 37.5319 568.587 36.8857 568.863 36.3389C569.143 35.792 569.527 35.3737 570.016 35.084C570.507 34.791 571.062 34.6445 571.681 34.6445C572.201 34.6445 572.675 34.7438 573.102 34.9424C573.528 35.1377 573.878 35.4225 574.151 35.7969C574.425 36.168 574.597 36.6107 574.669 37.125H573.39ZM584.071 38.2773C584.071 39.0228 583.931 39.6689 583.651 40.2158C583.375 40.7627 582.989 41.1826 582.494 41.4756C582.003 41.7653 581.448 41.9102 580.829 41.9102C580.207 41.9102 579.651 41.7653 579.159 41.4756C578.668 41.1826 578.282 40.7627 578.002 40.2158C577.725 39.6657 577.587 39.0195 577.587 38.2773C577.587 37.5319 577.725 36.8857 578.002 36.3389C578.282 35.7887 578.668 35.3688 579.159 35.0791C579.651 34.7894 580.207 34.6445 580.829 34.6445C581.448 34.6445 582.003 34.791 582.494 35.084C582.989 35.3737 583.375 35.792 583.651 36.3389C583.931 36.8857 584.071 37.5319 584.071 38.2773ZM578.866 38.2773C578.866 38.8047 578.948 39.2555 579.11 39.6299C579.276 40.0042 579.507 40.2874 579.804 40.4795C580.1 40.6715 580.442 40.7676 580.829 40.7676C581.22 40.7676 581.562 40.6715 581.854 40.4795C582.151 40.2874 582.38 40.0042 582.543 39.6299C582.709 39.2555 582.792 38.8047 582.792 38.2773C582.792 37.75 582.709 37.2992 582.543 36.9248C582.38 36.5505 582.151 36.2673 581.854 36.0752C581.562 35.8831 581.22 35.7871 580.829 35.7871C580.442 35.7871 580.1 35.8831 579.804 36.0752C579.507 36.2673 579.276 36.5505 579.11 36.9248C578.948 37.2992 578.866 37.75 578.866 38.2773ZM588.767 34.7422L590.866 39.8789H590.954L593.054 34.7422H594.616V41.8125H593.396V36.9492H593.327L591.364 41.793H590.456L588.493 36.9297H588.435V41.8125H587.204V34.7422H588.767ZM599.487 34.7422L601.587 39.8789H601.675L603.774 34.7422H605.337V41.8125H604.116V36.9492H604.048L602.085 41.793H601.177L599.214 36.9297H599.155V41.8125H597.925V34.7422H599.487ZM608.646 34.7422H613.245V35.8066H609.915V37.7402H613.001V38.8047H609.915V40.7383H613.265V41.8125H608.646V34.7422ZM622.276 41.8125H621.144L617.794 36.9785H617.735V41.8125H616.466V34.7422H617.618L620.948 39.5762H621.017V34.7422H622.276V41.8125ZM625.585 41.8125V34.7422H628.026C628.726 34.7422 629.33 34.8838 629.838 35.167C630.346 35.4469 630.735 35.8522 631.005 36.3828C631.278 36.9102 631.415 37.5384 631.415 38.2676C631.415 39 631.278 39.6331 631.005 40.167C630.731 40.6976 630.338 41.1045 629.823 41.3877C629.309 41.6709 628.697 41.8125 627.987 41.8125H625.585ZM627.919 40.709C629.403 40.7155 630.146 39.9017 630.146 38.2676C630.146 37.4603 629.962 36.8548 629.594 36.4512C629.226 36.0443 628.681 35.8424 627.958 35.8457H626.854V40.709H627.919ZM634.538 34.7422H639.138V35.8066H635.808V37.7402H638.894V38.8047H635.808V40.7383H639.157V41.8125H634.538V34.7422ZM642.358 41.8125V34.7422H644.8C645.5 34.7422 646.104 34.8838 646.611 35.167C647.119 35.4469 647.508 35.8522 647.778 36.3828C648.052 36.9102 648.188 37.5384 648.188 38.2676C648.188 39 648.052 39.6331 647.778 40.167C647.505 40.6976 647.111 41.1045 646.597 41.3877C646.082 41.6709 645.47 41.8125 644.761 41.8125H642.358ZM644.692 40.709C646.177 40.7155 646.919 39.9017 646.919 38.2676C646.919 37.4603 646.735 36.8548 646.367 36.4512C645.999 36.0443 645.454 35.8424 644.731 35.8457H643.628V40.709H644.692ZM655.685 34.7422H658.39C658.888 34.7422 659.308 34.8203 659.649 34.9766C659.994 35.1328 660.252 35.3493 660.421 35.626C660.593 35.9027 660.681 36.2201 660.685 36.5781C660.681 36.9883 660.566 37.3203 660.338 37.5742C660.113 37.8249 659.815 37.9941 659.444 38.082V38.1504C659.701 38.1634 659.946 38.2415 660.177 38.3848C660.411 38.528 660.6 38.7298 660.743 38.9902C660.886 39.2474 660.958 39.5469 660.958 39.8887C660.958 40.263 660.867 40.5951 660.685 40.8848C660.506 41.1745 660.235 41.4023 659.874 41.5684C659.513 41.7311 659.07 41.8125 658.546 41.8125H655.685V34.7422ZM658.351 40.748C658.797 40.748 659.127 40.6634 659.342 40.4941C659.557 40.3216 659.666 40.0872 659.669 39.791C659.666 39.5794 659.612 39.389 659.508 39.2197C659.404 39.0505 659.254 38.917 659.059 38.8193C658.863 38.7184 658.637 38.668 658.38 38.668H656.954V40.748H658.351ZM658.233 37.75C658.458 37.75 658.658 37.7093 658.834 37.6279C659.013 37.5433 659.155 37.4245 659.259 37.2715C659.363 37.1185 659.415 36.9395 659.415 36.7344C659.412 36.4544 659.311 36.2282 659.112 36.0557C658.914 35.8831 658.631 35.7969 658.263 35.7969H656.954V37.75H658.233ZM670.302 38.2773C670.302 39.0228 670.162 39.6689 669.882 40.2158C669.605 40.7627 669.219 41.1826 668.725 41.4756C668.233 41.7653 667.678 41.9102 667.06 41.9102C666.438 41.9102 665.881 41.7653 665.39 41.4756C664.898 41.1826 664.512 40.7627 664.232 40.2158C663.956 39.6657 663.817 39.0195 663.817 38.2773C663.817 37.5319 663.956 36.8857 664.232 36.3389C664.512 35.7887 664.898 35.3688 665.39 35.0791C665.881 34.7894 666.438 34.6445 667.06 34.6445C667.678 34.6445 668.233 34.791 668.725 35.084C669.219 35.3737 669.605 35.792 669.882 36.3389C670.162 36.8857 670.302 37.5319 670.302 38.2773ZM665.097 38.2773C665.097 38.8047 665.178 39.2555 665.341 39.6299C665.507 40.0042 665.738 40.2874 666.034 40.4795C666.33 40.6715 666.672 40.7676 667.06 40.7676C667.45 40.7676 667.792 40.6715 668.085 40.4795C668.381 40.2874 668.611 40.0042 668.773 39.6299C668.939 39.2555 669.022 38.8047 669.022 38.2773C669.022 37.75 668.939 37.2992 668.773 36.9248C668.611 36.5505 668.381 36.2673 668.085 36.0752C667.792 35.8831 667.45 35.7871 667.06 35.7871C666.672 35.7871 666.33 35.8831 666.034 36.0752C665.738 36.2673 665.507 36.5505 665.341 36.9248C665.178 37.2992 665.097 37.75 665.097 38.2773ZM679.743 38.2773C679.743 39.0228 679.603 39.6689 679.323 40.2158C679.047 40.7627 678.661 41.1826 678.166 41.4756C677.674 41.7653 677.119 41.9102 676.501 41.9102C675.879 41.9102 675.323 41.7653 674.831 41.4756C674.34 41.1826 673.954 40.7627 673.674 40.2158C673.397 39.6657 673.259 39.0195 673.259 38.2773C673.259 37.5319 673.397 36.8857 673.674 36.3389C673.954 35.7887 674.34 35.3688 674.831 35.0791C675.323 34.7894 675.879 34.6445 676.501 34.6445C677.119 34.6445 677.674 34.791 678.166 35.084C678.661 35.3737 679.047 35.792 679.323 36.3389C679.603 36.8857 679.743 37.5319 679.743 38.2773ZM674.538 38.2773C674.538 38.8047 674.619 39.2555 674.782 39.6299C674.948 40.0042 675.179 40.2874 675.476 40.4795C675.772 40.6715 676.114 40.7676 676.501 40.7676C676.892 40.7676 677.233 40.6715 677.526 40.4795C677.823 40.2874 678.052 40.0042 678.215 39.6299C678.381 39.2555 678.464 38.8047 678.464 38.2773C678.464 37.75 678.381 37.2992 678.215 36.9248C678.052 36.5505 677.823 36.2673 677.526 36.0752C677.233 35.8831 676.892 35.7871 676.501 35.7871C676.114 35.7871 675.772 35.8831 675.476 36.0752C675.179 36.2673 674.948 36.5505 674.782 36.9248C674.619 37.2992 674.538 37.75 674.538 38.2773ZM682.876 34.7422H684.146V37.9941H684.243L687.007 34.7422H688.56L685.825 37.916L688.589 41.8125H687.056L684.937 38.7754L684.146 39.7031V41.8125H682.876V34.7422ZM695.179 36.6855C695.146 36.3861 695.011 36.1517 694.773 35.9824C694.539 35.8132 694.233 35.7285 693.855 35.7285C693.589 35.7285 693.356 35.7676 693.157 35.8457C692.962 35.9238 692.812 36.0329 692.708 36.1729C692.604 36.3128 692.552 36.4723 692.552 36.6514C692.552 36.9183 692.664 37.1266 692.889 37.2764C693.113 37.4229 693.405 37.5384 693.763 37.623L694.427 37.7988C695.035 37.9388 695.532 38.1715 695.916 38.4971C696.303 38.8193 696.497 39.2637 696.497 39.8301C696.497 40.2435 696.391 40.6081 696.18 40.9238C695.968 41.2396 695.66 41.4854 695.257 41.6611C694.856 41.8337 694.378 41.9199 693.821 41.9199C693.274 41.9199 692.798 41.8353 692.391 41.666C691.987 41.4935 691.671 41.2428 691.443 40.9141C691.215 40.5853 691.093 40.1914 691.077 39.7324H692.327C692.356 40.0872 692.506 40.359 692.776 40.5479C693.047 40.7367 693.392 40.8327 693.812 40.8359C694.088 40.8359 694.332 40.7936 694.544 40.709C694.759 40.6211 694.926 40.5007 695.047 40.3477C695.167 40.1947 695.228 40.0189 695.228 39.8203C695.224 39.5599 695.117 39.3581 694.905 39.2148C694.694 39.0684 694.375 38.9414 693.948 38.834L693.147 38.6289C691.891 38.3001 691.263 37.6654 691.263 36.7246C691.263 36.3145 691.375 35.9531 691.6 35.6406C691.824 35.3249 692.133 35.0807 692.527 34.9082C692.921 34.7324 693.366 34.6445 693.86 34.6445C694.352 34.6445 694.788 34.7308 695.169 34.9033C695.553 35.0758 695.853 35.3184 696.067 35.6309C696.282 35.9401 696.393 36.2917 696.399 36.6855H695.179Z" fill="#ADB5BD"/>
<path d="M530.162 56.2554C530.162 57.4997 530.538 58.7126 531.29 59.8943C532.051 61.0759 533.099 62.0964 534.432 62.9558C535.766 63.8062 537.261 64.3747 538.917 64.6611L537.574 67.1587C535.551 66.738 533.748 65.9457 532.163 64.782C530.579 63.6182 529.388 62.2173 528.591 60.5791C528.063 61.6533 527.351 62.638 526.456 63.5332C525.561 64.4194 524.532 65.1759 523.368 65.8025C522.204 66.4202 520.951 66.8722 519.608 67.1587L518.292 64.6611C519.921 64.3657 521.399 63.7928 522.723 62.9424C524.057 62.083 525.1 61.0625 525.852 59.8809C526.613 58.6992 526.993 57.4907 526.993 56.2554V54.4561H530.162V56.2554ZM517.621 71.6436H539.803V74.1143H517.621V71.6436ZM553.741 71.187H542.247V55.2886H553.741V71.187ZM550.76 68.7969V57.625H545.175V68.7969H550.76ZM557.421 52.9253H560.402V62.2441H564.135V64.7686H560.402V77.2026H557.421V52.9253ZM584.894 68.0181H567.867V54.832H584.679V57.249H570.902V60.1763H584.115V62.5127H570.902V65.6548H584.894V68.0181ZM565.155 71.8047H587.338V74.2485H565.155V71.8047ZM608.634 66.3262H601.437V71.8853H611.105V74.3291H588.922V71.8853H598.483V66.3262H591.608V54.7246H608.446V57.1147H594.589V63.9629H608.634V66.3262ZM621.659 58.7529C621.65 60.2747 621.883 61.7428 622.357 63.1572C622.832 64.5716 623.521 65.8293 624.425 66.9304C625.338 68.0225 626.421 68.8416 627.675 69.3877L625.875 71.7778C624.532 71.1243 623.378 70.1844 622.411 68.958C621.444 67.7316 620.697 66.3038 620.168 64.6746C619.622 66.4023 618.853 67.9241 617.859 69.24C616.865 70.547 615.688 71.5451 614.327 72.2344L612.448 69.8174C613.728 69.2176 614.833 68.3403 615.764 67.1855C616.695 66.0308 617.402 64.7193 617.886 63.2512C618.369 61.7831 618.615 60.2837 618.624 58.7529V54.8857H621.659V58.7529ZM624.989 60.7671H630.092V52.9253H633.046V77.2295H630.092V63.1841H624.989V60.7671ZM658.585 69.9517H648.971V77.2295H646.017V69.9517H636.456V67.5078H658.585V69.9517ZM637.665 63.6675C639.231 63.4795 640.628 63.108 641.854 62.553C643.081 61.989 644.052 61.3221 644.768 60.5522C645.484 59.7734 645.892 58.9767 645.99 58.1621H638.497V55.7988H646.017V52.9521H648.971V55.7988H656.517V58.1621H649.025C649.123 58.9767 649.526 59.769 650.233 60.5388C650.949 61.3087 651.921 61.9756 653.147 62.5396C654.373 63.1035 655.765 63.4795 657.323 63.6675L656.222 66.0308C654.244 65.7801 652.498 65.2475 650.985 64.4329C649.472 63.6182 648.317 62.6156 647.521 61.425C646.715 62.6246 645.547 63.6317 644.016 64.4463C642.494 65.252 640.735 65.7801 638.739 66.0308L637.665 63.6675ZM668.951 58.6724C668.942 59.6481 669.162 60.5881 669.609 61.4922C670.066 62.3963 670.733 63.202 671.61 63.9092C672.496 64.6164 673.562 65.1624 674.806 65.5474L673.356 67.8838C672.004 67.481 670.831 66.8633 669.838 66.0308C668.844 65.1982 668.065 64.2135 667.501 63.0767C666.955 64.3031 666.181 65.3683 665.178 66.2725C664.176 67.1676 662.981 67.839 661.593 68.2866L660.143 65.9502C661.387 65.5653 662.443 65.0013 663.312 64.2583C664.189 63.5153 664.851 62.6649 665.299 61.707C665.747 60.7402 665.97 59.7287 665.97 58.6724V58.2964H660.895V55.9331H665.97V53.0864H668.978V55.9331H674.027V58.2964H668.951V58.6724ZM664.628 69.4146H667.609V74.3022H681.171V76.7192H664.628V69.4146ZM673.221 60.1763H677.572V52.9521H680.553V70.9722H677.572V62.5664H673.221V60.1763Z" fill="#191F28"/>
<g clip-path="url(#clip1_5778_9418)">
<path d="M36.2028 621.438L31.25 626.438L36.2028 631.438V627.688H44.8703C48.3047 627.688 51.0613 630.47 51.0613 633.938C51.0613 637.405 48.3047 640.188 44.8703 640.188H32.4882V642.688H44.8703C49.6427 642.688 53.5377 638.755 53.5377 633.938C53.5377 629.12 49.6427 625.188 44.8703 625.188H36.2028V621.438Z" fill="#191F28"/>
</g>
<path d="M103.125 145.25H1096.87V145.875H103.125V145.25Z" fill="#191F28"/>
<rect x="103.125" y="145.25" width="337.5" height="3.125" fill="#7B3AD8"/>
<path d="M578.713 112.818C578.713 113.596 578.869 114.374 579.179 115.152C579.494 115.925 579.919 116.617 580.453 117.228C580.992 117.838 581.582 118.301 582.223 118.616L581.49 119.577C580.743 119.191 580.071 118.619 579.476 117.861C578.886 117.103 578.441 116.251 578.141 115.305C577.841 116.307 577.388 117.212 576.783 118.021C576.178 118.825 575.494 119.43 574.731 119.837L573.968 118.875C574.624 118.555 575.222 118.074 575.761 117.434C576.305 116.793 576.735 116.068 577.05 115.259C577.371 114.445 577.533 113.632 577.538 112.818V110.346H578.713V112.818ZM583.474 109.171H584.664V114.679H586.938V115.717H584.664V122.736H583.474V109.171ZM592.446 112.818C592.446 113.621 592.601 114.415 592.912 115.198C593.227 115.981 593.654 116.678 594.193 117.289C594.738 117.894 595.335 118.347 595.986 118.647L595.269 119.623C594.496 119.226 593.807 118.647 593.202 117.884C592.601 117.116 592.151 116.248 591.851 115.282C591.546 116.304 591.091 117.222 590.486 118.036C589.885 118.85 589.201 119.46 588.433 119.867L587.655 118.906C588.311 118.586 588.911 118.105 589.456 117.464C590 116.818 590.43 116.088 590.745 115.274C591.065 114.456 591.226 113.637 591.226 112.818V110.346H592.446V112.818ZM594.506 113.81H597.726V109.171H598.916V122.766H597.726V114.786H594.506V113.81ZM613.534 118.387H607.934V122.766H606.759V118.387H601.174V117.38H613.534V118.387ZM601.953 115.366C602.766 115.254 603.542 115.028 604.279 114.687C605.017 114.341 605.615 113.921 606.072 113.428C606.53 112.93 606.759 112.406 606.759 111.856V111.841H602.38V110.865H606.759V109.171H607.934V110.865H612.344V111.841H607.949V111.856C607.949 112.401 608.176 112.922 608.628 113.42C609.081 113.919 609.676 114.341 610.414 114.687C611.151 115.028 611.927 115.254 612.74 115.366L612.298 116.327C611.596 116.22 610.92 116.037 610.269 115.778C609.623 115.513 609.045 115.185 608.537 114.794C608.033 114.397 607.641 113.96 607.362 113.482C607.082 113.965 606.685 114.402 606.172 114.794C605.663 115.185 605.083 115.513 604.432 115.778C603.781 116.037 603.102 116.22 602.395 116.327L601.953 115.366ZM619.302 112.421C619.302 113.016 619.449 113.581 619.744 114.115C620.039 114.649 620.446 115.117 620.965 115.519C621.484 115.92 622.079 116.226 622.75 116.434L622.155 117.395C621.372 117.141 620.683 116.755 620.088 116.236C619.492 115.717 619.042 115.109 618.737 114.412C618.442 115.16 617.997 115.814 617.402 116.373C616.812 116.927 616.118 117.345 615.319 117.624L614.724 116.693C615.39 116.47 615.98 116.144 616.494 115.717C617.008 115.29 617.407 114.791 617.692 114.222C617.982 113.652 618.127 113.052 618.127 112.421V111.979H615.06V111.002H618.127V109.262H619.332V111.002H622.369V111.979H619.302V112.421ZM617.211 118.402H618.417V121.439H626.306V122.446H617.211V118.402ZM621.896 113.367H624.719V109.186H625.924V119.318H624.719V114.359H621.896V113.367Z" fill="#6B7684"/>
<path d="M246.361 110.346C246.355 111.902 246.17 113.301 245.804 114.542C245.442 115.778 244.791 116.93 243.85 117.998C242.91 119.061 241.6 120.005 239.921 120.829L238.899 119.333C240.028 118.774 240.964 118.166 241.707 117.51C242.449 116.854 243.034 116.131 243.461 115.343L239.25 115.717L239.006 114.069L244.087 113.764C244.24 113.24 244.349 112.619 244.415 111.902H239.723V110.346H246.361ZM248.482 109.018H250.45V122.904H248.482V109.018ZM264.137 122.904H262.153V119.837H259.331V118.372H262.153V109.034H264.137V122.904ZM252.22 116.068C254.02 116.068 255.648 116.042 257.103 115.992C258.557 115.941 259.946 115.829 261.268 115.656L261.375 117.075C260.236 117.273 259 117.418 257.667 117.51V122.492H255.699V117.609C254.778 117.64 253.7 117.655 252.464 117.655L252.22 116.068ZM253.196 112.436C253.196 111.887 253.347 111.396 253.647 110.964C253.952 110.531 254.376 110.193 254.921 109.949C255.465 109.705 256.08 109.583 256.767 109.583C257.444 109.583 258.051 109.705 258.59 109.949C259.135 110.193 259.562 110.531 259.872 110.964C260.182 111.396 260.338 111.887 260.338 112.436C260.338 112.996 260.182 113.492 259.872 113.924C259.567 114.351 259.142 114.684 258.598 114.923C258.059 115.157 257.449 115.274 256.767 115.274C256.075 115.274 255.457 115.157 254.913 114.923C254.374 114.684 253.952 114.351 253.647 113.924C253.347 113.492 253.196 112.996 253.196 112.436ZM255.028 112.436C255.022 112.864 255.178 113.197 255.493 113.436C255.813 113.675 256.238 113.794 256.767 113.794C257.276 113.794 257.688 113.675 258.003 113.436C258.323 113.197 258.486 112.864 258.491 112.436C258.486 112.019 258.323 111.686 258.003 111.437C257.688 111.188 257.276 111.063 256.767 111.063C256.243 111.063 255.821 111.188 255.501 111.437C255.18 111.686 255.022 112.019 255.028 112.436ZM277.107 116.999H267.28V110.178H277V111.75H269.203V115.442H277.107V116.999ZM265.785 119.608H278.496V121.21H265.785V119.608ZM291.954 118.921H286.567V122.919H284.645V118.921H279.289V117.334H291.954V118.921ZM279.93 115.061C280.845 114.959 281.641 114.758 282.318 114.458C282.999 114.158 283.531 113.807 283.912 113.405C284.299 112.998 284.533 112.579 284.614 112.146H280.433V110.62H284.645V109.034H286.567V110.62H290.794V112.146H286.628C286.705 112.569 286.931 112.986 287.307 113.398C287.689 113.804 288.218 114.158 288.894 114.458C289.571 114.758 290.367 114.959 291.282 115.061L290.581 116.587C289.436 116.46 288.439 116.175 287.59 115.732C286.745 115.29 286.089 114.743 285.621 114.092C285.153 114.748 284.492 115.295 283.638 115.732C282.788 116.17 281.786 116.454 280.632 116.587L279.93 115.061ZM297.905 112.284C297.91 112.823 298.032 113.344 298.271 113.848C298.51 114.346 298.874 114.796 299.362 115.198C299.85 115.6 300.458 115.91 301.185 116.129L300.255 117.64C299.497 117.421 298.841 117.088 298.286 116.64C297.732 116.187 297.294 115.651 296.974 115.03C296.654 115.702 296.214 116.281 295.654 116.77C295.1 117.258 294.431 117.624 293.648 117.868L292.701 116.343C293.429 116.124 294.037 115.806 294.525 115.389C295.013 114.972 295.374 114.496 295.608 113.962C295.847 113.428 295.967 112.869 295.967 112.284V112.177H293.174V110.651H295.967V109.11H297.935V110.651H300.712V112.177H297.905V112.284ZM295.28 118.448H297.233V121.103H304.832V122.66H295.28V118.448ZM300.255 113.077H302.559V109.034H304.497V119.333H302.559V114.649H300.255V113.077Z" fill="#191F28"/>
<path d="M890.445 112.146H894.442V110.01H895.633V116.404H889.254V110.01H890.445V112.146ZM894.442 115.427V113.108H890.445V115.427H894.442ZM890.612 118.158H899.737V122.736H898.547V119.12H890.612V118.158ZM898.547 109.171H899.737V117.395H898.547V109.171ZM913.653 122.736H912.494V109.171H913.653V122.736ZM902.575 110.849H907.687V111.841H903.735V118.464C904.788 118.453 905.653 118.423 906.329 118.372C907.011 118.316 907.697 118.209 908.389 118.052L908.511 119.074C907.758 119.226 907.013 119.331 906.276 119.387C905.538 119.438 904.589 119.465 903.43 119.471H902.575V110.849ZM906.771 114.359H909.732V109.507H910.876V122.034H909.732V115.366H906.771V114.359ZM926.73 122.766H925.525V109.171H926.73V122.766ZM916.049 114.954C916.049 114.008 916.196 113.179 916.491 112.467C916.786 111.75 917.196 111.198 917.72 110.811C918.244 110.42 918.841 110.224 919.513 110.224C920.184 110.224 920.782 110.42 921.305 110.811C921.829 111.198 922.239 111.75 922.534 112.467C922.829 113.179 922.976 114.008 922.976 114.954C922.976 115.9 922.829 116.732 922.534 117.449C922.239 118.161 921.829 118.71 921.305 119.097C920.782 119.478 920.184 119.669 919.513 119.669C918.841 119.669 918.244 119.478 917.72 119.097C917.196 118.71 916.786 118.161 916.491 117.449C916.196 116.732 916.049 115.9 916.049 114.954ZM917.208 114.954C917.208 115.681 917.305 116.322 917.498 116.877C917.692 117.426 917.964 117.851 918.315 118.151C918.666 118.451 919.065 118.601 919.513 118.601C919.965 118.601 920.365 118.451 920.71 118.151C921.061 117.851 921.333 117.426 921.527 116.877C921.72 116.322 921.817 115.681 921.817 114.954C921.817 114.227 921.72 113.588 921.527 113.039C921.333 112.485 921.061 112.055 920.71 111.75C920.365 111.444 919.965 111.292 919.513 111.292C919.065 111.292 918.666 111.444 918.315 111.75C917.964 112.055 917.692 112.485 917.498 113.039C917.305 113.593 917.208 114.232 917.208 114.954ZM940.295 122.766H939.105V115.29H936.236V114.298H939.105V109.171H940.295V122.766ZM929.675 110.422H936.007V111.414H930.88V114.237H935.412V115.213H930.88V118.494C932.218 118.489 933.322 118.458 934.192 118.402C935.066 118.347 935.946 118.24 936.831 118.082L936.969 119.074C936.002 119.232 935.054 119.341 934.123 119.402C933.197 119.458 932.06 119.486 930.713 119.486H929.675V110.422ZM954.913 118.387H949.313V122.766H948.138V118.387H942.553V117.38H954.913V118.387ZM943.332 115.366C944.145 115.254 944.921 115.028 945.659 114.687C946.396 114.341 946.994 113.921 947.451 113.428C947.909 112.93 948.138 112.406 948.138 111.856V111.841H943.759V110.865H948.138V109.171H949.313V110.865H953.723V111.841H949.328V111.856C949.328 112.401 949.555 112.922 950.007 113.42C950.46 113.919 951.055 114.341 951.793 114.687C952.53 115.028 953.306 115.254 954.12 115.366L953.677 116.327C952.975 116.22 952.299 116.037 951.648 115.778C951.002 115.513 950.424 115.185 949.916 114.794C949.412 114.397 949.021 113.96 948.741 113.482C948.461 113.965 948.064 114.402 947.551 114.794C947.042 115.185 946.462 115.513 945.811 115.778C945.16 116.037 944.481 116.22 943.774 116.327L943.332 115.366ZM960.681 112.421C960.681 113.016 960.828 113.581 961.123 114.115C961.418 114.649 961.825 115.117 962.344 115.519C962.863 115.92 963.458 116.226 964.129 116.434L963.534 117.395C962.751 117.141 962.062 116.755 961.467 116.236C960.872 115.717 960.421 115.109 960.116 114.412C959.821 115.16 959.376 115.814 958.781 116.373C958.191 116.927 957.497 117.345 956.698 117.624L956.103 116.693C956.769 116.47 957.359 116.144 957.873 115.717C958.387 115.29 958.786 114.791 959.071 114.222C959.361 113.652 959.506 113.052 959.506 112.421V111.979H956.439V111.002H959.506V109.262H960.711V111.002H963.748V111.979H960.681V112.421ZM958.59 118.402H959.796V121.439H967.685V122.446H958.59V118.402ZM963.275 113.367H966.098V109.186H967.303V119.318H966.098V114.359H963.275V113.367Z" fill="#6B7684"/>
<path d="M0 138.062C0 120.804 13.9911 106.812 31.25 106.812H1168.75C1186.01 106.812 1200 120.804 1200 138.062V675.562H0V138.062Z" fill="url(#paint2_linear_5778_9418)"/>
<path d="M485.065 191.858H480.963V158.716H485.065V191.858ZM458.588 172.815C458.588 170.484 458.954 168.433 459.686 166.663C460.419 164.893 461.438 163.532 462.744 162.58C464.062 161.615 465.558 161.133 467.23 161.133C468.878 161.133 470.355 161.615 471.661 162.58C472.98 163.532 474.011 164.893 474.756 166.663C475.5 168.433 475.873 170.484 475.873 172.815C475.873 175.171 475.5 177.234 474.756 179.004C474.011 180.774 472.98 182.142 471.661 183.106C470.355 184.058 468.878 184.534 467.23 184.534C465.558 184.534 464.062 184.058 462.744 183.106C461.438 182.142 460.419 180.774 459.686 179.004C458.954 177.234 458.588 175.171 458.588 172.815ZM462.506 172.815C462.506 174.488 462.701 175.928 463.092 177.137C463.495 178.345 464.05 179.267 464.758 179.902C465.466 180.536 466.29 180.86 467.23 180.872C468.158 180.86 468.976 180.536 469.684 179.902C470.392 179.267 470.941 178.345 471.332 177.137C471.722 175.928 471.918 174.488 471.918 172.815C471.918 171.155 471.722 169.727 471.332 168.531C470.941 167.322 470.392 166.401 469.684 165.766C468.976 165.119 468.158 164.795 467.23 164.795C466.29 164.795 465.466 165.119 464.758 165.766C464.05 166.401 463.495 167.322 463.092 168.531C462.701 169.727 462.506 171.155 462.506 172.815ZM505.221 171.241H494.381V175.416C497.25 175.403 499.679 175.336 501.669 175.214C503.671 175.092 505.66 174.866 507.638 174.537L507.968 177.869C505.819 178.199 503.665 178.418 501.504 178.528C499.343 178.638 496.505 178.699 492.99 178.711H490.28V168.091H501.156V164.246H490.243V160.987H505.221V171.241ZM494.821 181.165H498.885V187.867H517.599V191.163H494.821V181.165ZM507.015 166.919H512.655V158.753H516.72V183.106H512.655V170.362H507.015V166.919ZM538.649 166.15C538.649 167.334 538.887 168.482 539.363 169.593C539.839 170.691 540.547 171.674 541.487 172.541C542.439 173.407 543.593 174.073 544.948 174.537L543.116 177.613C541.639 177.076 540.37 176.313 539.308 175.324C538.246 174.335 537.41 173.182 536.799 171.863C536.201 173.304 535.365 174.567 534.291 175.654C533.229 176.728 531.935 177.564 530.409 178.162L528.505 175.159C529.86 174.622 531.007 173.89 531.947 172.962C532.887 172.034 533.595 170.99 534.071 169.831C534.547 168.659 534.791 167.432 534.803 166.15V165.894H529.347V162.708H534.803V159.083H538.649V162.708H544.032V165.894H538.649V166.15ZM534.071 180.506H556.74V191.822H552.675V183.802H534.071V180.506ZM545.826 159.302H549.672V167.249H552.858V158.753H556.74V179.004H552.858V170.545H549.672V178.858H545.826V159.302ZM590.079 179.078H559.904V175.818H590.079V179.078ZM563.016 166.48C563.016 165.101 563.505 163.904 564.481 162.891C565.47 161.878 566.862 161.109 568.656 160.584C570.45 160.047 572.55 159.778 574.955 159.778C577.347 159.778 579.441 160.047 581.235 160.584C583.042 161.109 584.434 161.878 585.41 162.891C586.399 163.904 586.893 165.101 586.893 166.48C586.893 167.872 586.399 169.08 585.41 170.105C584.434 171.119 583.042 171.9 581.235 172.449C579.441 172.986 577.347 173.255 574.955 173.255C572.55 173.255 570.45 172.986 568.656 172.449C566.862 171.9 565.47 171.119 564.481 170.105C563.505 169.08 563.016 167.872 563.016 166.48ZM563.639 181.531H567.704V187.867H586.674V191.163H563.639V181.531ZM567.264 166.48C567.252 167.591 567.911 168.445 569.242 169.043C570.585 169.629 572.452 169.922 574.845 169.922C577.335 169.922 579.264 169.629 580.631 169.043C581.998 168.458 582.682 167.603 582.682 166.48C582.682 165.394 581.998 164.551 580.631 163.953C579.276 163.343 577.384 163.038 574.955 163.038C573.356 163.038 571.976 163.172 570.817 163.44C569.657 163.709 568.772 164.106 568.162 164.631C567.551 165.143 567.252 165.76 567.264 166.48ZM608.383 161.133C609.86 161.133 611.196 161.53 612.393 162.323C613.589 163.117 614.565 164.252 615.322 165.729C616.079 167.194 616.555 168.921 616.75 170.911H623.068V158.716H627.096V191.858H623.068V174.207H616.787C616.641 176.307 616.195 178.138 615.45 179.7C614.706 181.25 613.723 182.447 612.502 183.289C611.282 184.119 609.908 184.534 608.383 184.534C606.722 184.534 605.245 184.058 603.951 183.106C602.67 182.142 601.669 180.774 600.948 179.004C600.24 177.234 599.886 175.171 599.886 172.815C599.886 170.472 600.24 168.421 600.948 166.663C601.669 164.893 602.676 163.532 603.97 162.58C605.264 161.615 606.735 161.133 608.383 161.133ZM603.805 172.815C603.805 174.488 603.994 175.928 604.373 177.137C604.751 178.345 605.282 179.267 605.966 179.902C606.661 180.536 607.467 180.86 608.383 180.872C609.298 180.86 610.104 180.536 610.8 179.902C611.495 179.267 612.032 178.345 612.411 177.137C612.802 175.928 612.997 174.488 612.997 172.815C612.997 171.155 612.802 169.721 612.411 168.512C612.032 167.304 611.495 166.382 610.8 165.748C610.104 165.113 609.298 164.795 608.383 164.795C607.467 164.795 606.661 165.119 605.966 165.766C605.282 166.401 604.751 167.322 604.373 168.531C603.994 169.727 603.805 171.155 603.805 172.815ZM659.703 191.163H636.119V180.689H640.184V187.867H659.703V191.163ZM631.469 161.316H640.038V164.612H635.46V174.518C637.145 174.457 638.756 174.256 640.294 173.914L640.624 177.21C639.452 177.479 638.353 177.649 637.328 177.723C636.315 177.784 635.009 177.82 633.409 177.833H633.007H631.469V161.316ZM641.722 161.316H650.988V164.612H645.751V174.555C647.057 174.531 648.174 174.469 649.102 174.372C650.029 174.262 650.963 174.097 651.903 173.877L652.306 177.173C651.073 177.442 649.858 177.619 648.662 177.704C647.478 177.778 645.751 177.82 643.48 177.833H641.722V161.316ZM649.742 167.615H654.833V158.753H658.824V182.703H654.833V170.911H649.742V167.615ZM688.209 171.644H693.116V175.049H688.209V191.749H684.144V158.716H688.209V171.644ZM662.098 182.703C666.139 180.689 669.252 178.266 671.437 175.434C673.622 172.59 674.916 169.288 675.319 165.528H663.893V162.159H679.457C679.432 173.023 674.415 180.921 664.406 185.853L662.098 182.703ZM724.003 187.793H693.754V184.461H700.748V176.093C699.406 175.324 698.362 174.354 697.617 173.182C696.885 172.01 696.525 170.704 696.537 169.263C696.537 167.53 697.056 166.004 698.093 164.686C699.143 163.355 700.602 162.33 702.469 161.609C704.337 160.877 706.449 160.511 708.805 160.511C711.173 160.511 713.291 160.877 715.159 161.609C717.039 162.33 718.503 163.355 719.553 164.686C720.615 166.004 721.146 167.53 721.146 169.263C721.158 170.679 720.804 171.961 720.084 173.108C719.364 174.256 718.351 175.22 717.045 176.001V184.461H724.003V187.793ZM700.529 169.263C700.529 170.374 700.87 171.351 701.554 172.193C702.25 173.023 703.22 173.664 704.465 174.115C705.723 174.567 707.169 174.793 708.805 174.793C710.441 174.793 711.887 174.567 713.145 174.115C714.414 173.664 715.397 173.023 716.093 172.193C716.801 171.351 717.155 170.374 717.155 169.263C717.155 168.14 716.801 167.157 716.093 166.315C715.397 165.473 714.414 164.832 713.145 164.393C711.887 163.953 710.441 163.733 708.805 163.733C707.157 163.733 705.704 163.953 704.447 164.393C703.202 164.832 702.238 165.473 701.554 166.315C700.87 167.145 700.529 168.128 700.529 169.263ZM712.906 184.461V177.558C711.613 177.839 710.245 177.979 708.805 177.979C707.426 177.979 706.083 177.845 704.777 177.576V184.461H712.906ZM730.829 180.433C730.841 178.931 730.988 177.717 731.268 176.789C731.549 175.861 731.94 175.116 732.44 174.555C732.953 173.993 733.636 173.45 734.491 172.925C735.358 172.364 736.035 171.76 736.523 171.113C737.012 170.466 737.25 169.715 737.238 168.86C737.238 168.189 737.079 167.603 736.761 167.103C736.456 166.59 736.029 166.193 735.48 165.912C734.93 165.632 734.32 165.491 733.649 165.491C733.026 165.491 732.44 165.625 731.891 165.894C731.342 166.163 730.89 166.572 730.536 167.121C730.182 167.67 729.987 168.335 729.95 169.117H725.372C725.409 167.53 725.8 166.181 726.544 165.07C727.289 163.947 728.278 163.105 729.51 162.543C730.756 161.969 732.147 161.683 733.685 161.683C735.321 161.683 736.768 161.976 738.025 162.562C739.294 163.135 740.277 163.959 740.973 165.033C741.681 166.108 742.035 167.359 742.035 168.787C742.023 170.215 741.681 171.442 741.01 172.468C740.35 173.493 739.398 174.378 738.153 175.123C737.421 175.574 736.835 176.032 736.395 176.496C735.968 176.96 735.651 177.503 735.443 178.125C735.236 178.748 735.126 179.517 735.114 180.433V180.762H730.829V180.433ZM730.243 185.999C730.243 185.499 730.371 185.035 730.627 184.607C730.884 184.168 731.232 183.82 731.671 183.564C732.111 183.307 732.587 183.179 733.099 183.179C733.6 183.179 734.064 183.307 734.491 183.564C734.93 183.82 735.278 184.168 735.535 184.607C735.791 185.035 735.919 185.499 735.919 185.999C735.919 186.512 735.791 186.988 735.535 187.427C735.278 187.867 734.93 188.215 734.491 188.471C734.064 188.727 733.6 188.855 733.099 188.855C732.587 188.855 732.111 188.727 731.671 188.471C731.232 188.215 730.884 187.867 730.627 187.427C730.371 186.988 730.243 186.512 730.243 185.999Z" fill="#242424"/>
<path d="M410.172 227.869H408.433V211.463H410.172V227.869ZM396.696 223.401C398.673 223.389 400.175 223.371 401.2 223.346V221.698C400.565 221.613 400.01 221.436 399.534 221.167C399.058 220.899 398.692 220.554 398.435 220.133C398.179 219.712 398.051 219.239 398.051 218.714C398.051 218.103 398.216 217.566 398.545 217.102C398.875 216.638 399.342 216.278 399.946 216.022C400.55 215.766 401.243 215.637 402.024 215.637C402.818 215.637 403.52 215.766 404.13 216.022C404.74 216.278 405.216 216.638 405.558 217.102C405.9 217.566 406.071 218.103 406.071 218.714C406.071 219.232 405.94 219.702 405.677 220.124C405.421 220.539 405.055 220.88 404.578 221.149C404.109 221.417 403.556 221.598 402.921 221.689V223.282C404.679 223.197 406.181 223.072 407.426 222.907L407.554 224.207C406.022 224.463 404.429 224.634 402.775 224.719C401.121 224.805 399.372 224.848 397.529 224.848H396.934L396.696 223.401ZM397.044 213.422H401.2V211.499H402.94V213.422H407.06V214.813H397.044V213.422ZM399.699 218.714C399.693 219.055 399.784 219.354 399.973 219.611C400.169 219.861 400.44 220.056 400.788 220.197C401.142 220.331 401.545 220.398 401.997 220.398C402.473 220.398 402.891 220.331 403.251 220.197C403.617 220.062 403.901 219.87 404.102 219.62C404.304 219.364 404.405 219.062 404.405 218.714C404.405 218.366 404.304 218.064 404.102 217.807C403.907 217.545 403.629 217.343 403.269 217.203C402.909 217.063 402.494 216.992 402.024 216.992C401.566 216.992 401.161 217.063 400.807 217.203C400.453 217.343 400.178 217.545 399.983 217.807C399.787 218.064 399.693 218.366 399.699 218.714ZM425.982 223.914H424.242V222.339H420.946V221.112H424.242V211.481H425.982V223.914ZM412.469 218.97C414.641 218.952 416.546 218.912 418.181 218.851C419.817 218.79 421.386 218.665 422.887 218.476L422.997 219.721C421.77 219.928 420.33 220.09 418.676 220.206V223.401H416.936V220.297C415.874 220.34 414.391 220.362 412.487 220.362L412.267 218.97H412.469ZM413.549 214.997C413.549 214.423 413.717 213.919 414.052 213.486C414.394 213.047 414.873 212.708 415.49 212.47C416.112 212.226 416.826 212.104 417.632 212.104C418.426 212.104 419.13 212.226 419.747 212.47C420.363 212.708 420.843 213.047 421.184 213.486C421.526 213.919 421.697 214.423 421.697 214.997C421.697 215.57 421.526 216.074 421.184 216.507C420.843 216.934 420.363 217.267 419.747 217.505C419.13 217.737 418.426 217.853 417.632 217.853C416.826 217.853 416.115 217.737 415.499 217.505C414.882 217.267 414.403 216.934 414.062 216.507C413.72 216.074 413.549 215.57 413.549 214.997ZM414.538 222.705H416.259V226.111H426.385V227.521H414.538V222.705ZM415.197 214.997C415.197 215.314 415.297 215.592 415.499 215.83C415.7 216.068 415.984 216.251 416.35 216.379C416.723 216.507 417.15 216.571 417.632 216.571C418.096 216.571 418.511 216.507 418.877 216.379C419.243 216.251 419.53 216.068 419.738 215.83C419.945 215.592 420.049 215.314 420.049 214.997C420.049 214.673 419.945 214.392 419.738 214.154C419.53 213.91 419.243 213.724 418.877 213.596C418.511 213.462 418.096 213.397 417.632 213.404C417.15 213.397 416.723 213.462 416.35 213.596C415.984 213.724 415.7 213.91 415.499 214.154C415.297 214.392 415.197 214.673 415.197 214.997ZM441.663 220.728H439.942V211.463H441.663V220.728ZM429.083 212.415H430.823V218.164C432.215 218.152 433.502 218.091 434.687 217.981C435.877 217.871 437.067 217.688 438.257 217.432L438.495 218.878C437.183 219.147 435.886 219.339 434.604 219.455C433.322 219.565 431.934 219.623 430.438 219.629H429.083V212.415ZM430.915 221.479H441.663V227.649H430.915V221.479ZM439.96 226.258V222.852H432.617V226.258H439.96ZM449.159 212.635C450.014 212.635 450.78 212.799 451.457 213.129C452.135 213.452 452.666 213.913 453.05 214.511C453.435 215.103 453.627 215.778 453.627 216.535C453.627 217.292 453.435 217.969 453.05 218.567C452.666 219.159 452.135 219.623 451.457 219.959C450.78 220.288 450.014 220.453 449.159 220.453C448.305 220.453 447.536 220.288 446.852 219.959C446.175 219.623 445.644 219.159 445.259 218.567C444.881 217.969 444.691 217.292 444.691 216.535C444.691 215.778 444.881 215.103 445.259 214.511C445.644 213.919 446.175 213.458 446.852 213.129C447.536 212.799 448.305 212.635 449.159 212.635ZM443.904 222.925C445.967 222.925 447.871 222.891 449.617 222.824C451.363 222.757 453.029 222.608 454.616 222.376L454.744 223.639C453.108 223.957 451.445 224.158 449.754 224.243C448.07 224.329 446.193 224.372 444.124 224.372L443.904 222.925ZM446.413 216.535C446.406 217.011 446.519 217.432 446.751 217.798C446.989 218.158 447.316 218.439 447.731 218.64C448.152 218.836 448.628 218.933 449.159 218.933C449.69 218.933 450.163 218.836 450.578 218.64C450.999 218.439 451.329 218.158 451.567 217.798C451.805 217.432 451.924 217.011 451.924 216.535C451.924 216.065 451.805 215.65 451.567 215.29C451.329 214.923 450.999 214.64 450.578 214.438C450.157 214.237 449.684 214.136 449.159 214.136C448.628 214.136 448.152 214.237 447.731 214.438C447.316 214.64 446.989 214.923 446.751 215.29C446.519 215.65 446.406 216.065 446.413 216.535ZM455.641 211.463H457.381V227.906H455.641V211.463ZM478.983 219.336H476.438V227.851H474.699V211.463H476.438V217.908H478.983V219.336ZM464.28 213.056H466.001V222.284C468.51 222.272 470.939 222.028 473.289 221.552L473.49 223.017C472.16 223.279 470.85 223.465 469.563 223.575C468.275 223.685 466.966 223.737 465.635 223.731H464.28V213.056ZM492.98 227.906H491.24V211.463H492.98V227.906ZM479.961 218.439C479.961 217.292 480.141 216.284 480.501 215.418C480.861 214.545 481.362 213.874 482.003 213.404C482.65 212.927 483.385 212.689 484.209 212.689C485.021 212.689 485.747 212.927 486.388 213.404C487.029 213.874 487.53 214.545 487.89 215.418C488.256 216.284 488.439 217.292 488.439 218.439C488.439 219.599 488.256 220.615 487.89 221.488C487.53 222.36 487.029 223.032 486.388 223.502C485.747 223.972 485.021 224.207 484.209 224.207C483.385 224.207 482.65 223.972 482.003 223.502C481.362 223.032 480.861 222.36 480.501 221.488C480.141 220.615 479.961 219.599 479.961 218.439ZM481.646 218.439C481.646 219.293 481.753 220.038 481.966 220.673C482.18 221.308 482.479 221.796 482.863 222.138C483.254 222.479 483.703 222.65 484.209 222.65C484.71 222.65 485.152 222.479 485.537 222.138C485.921 221.796 486.22 221.308 486.434 220.673C486.648 220.038 486.754 219.293 486.754 218.439C486.754 217.597 486.648 216.861 486.434 216.233C486.22 215.598 485.921 215.109 485.537 214.768C485.152 214.42 484.71 214.246 484.209 214.246C483.703 214.246 483.254 214.42 482.863 214.768C482.479 215.109 482.18 215.598 481.966 216.233C481.753 216.861 481.646 217.597 481.646 218.439ZM496.613 230.103H495.056L496.027 225.049H498.078L496.613 230.103ZM509.39 213.916C509.39 214.679 509.549 215.406 509.866 216.095C510.183 216.779 510.641 217.38 511.239 217.899C511.837 218.418 512.545 218.811 513.363 219.08L512.411 220.435C511.514 220.105 510.739 219.635 510.086 219.025C509.433 218.415 508.926 217.694 508.566 216.864C508.206 217.816 507.675 218.643 506.973 219.345C506.271 220.047 505.429 220.575 504.446 220.929L503.512 219.538C504.373 219.245 505.114 218.82 505.737 218.265C506.359 217.703 506.836 217.057 507.165 216.324C507.495 215.592 507.663 214.813 507.669 213.99V212.378H509.39V213.916ZM506.204 224.738C506.204 224.079 506.424 223.514 506.863 223.044C507.309 222.574 507.946 222.217 508.776 221.973C509.613 221.729 510.604 221.607 511.752 221.607C512.893 221.607 513.879 221.729 514.709 221.973C515.539 222.217 516.177 222.574 516.623 223.044C517.074 223.514 517.3 224.079 517.3 224.738C517.3 225.391 517.074 225.949 516.623 226.413C516.177 226.877 515.539 227.228 514.709 227.466C513.879 227.71 512.893 227.832 511.752 227.832C510.604 227.832 509.613 227.71 508.776 227.466C507.946 227.228 507.309 226.877 506.863 226.413C506.424 225.949 506.204 225.391 506.204 224.738ZM507.925 224.738C507.925 225.098 508.072 225.406 508.365 225.662C508.664 225.919 509.097 226.117 509.665 226.258C510.232 226.392 510.91 226.459 511.697 226.459C512.918 226.459 513.867 226.309 514.544 226.01C515.228 225.711 515.573 225.287 515.579 224.738C515.573 224.176 515.231 223.74 514.553 223.429C513.882 223.117 512.948 222.962 511.752 222.962C510.543 222.962 509.6 223.117 508.923 223.429C508.252 223.74 507.919 224.176 507.925 224.738ZM512.045 214.795H515.506V211.463H517.245V221.149H515.506V216.223H512.045V214.795ZM532.963 219.995H531.242V218.036H527.653V219.391H520.091V212.213H521.83V214.429H525.932V212.213H527.653V213.715H531.242V211.463H532.963V219.995ZM525.932 218V215.766H521.83V218H525.932ZM522.233 220.728H532.963V224.756H524.009V226.276H533.549V227.667H522.27V223.456H531.242V222.083H522.233V220.728ZM531.242 216.699V215.052H527.653V216.699H531.242ZM552.826 221.222H551.087V217.066H548.029V215.637H551.087V211.463H552.826V221.222ZM539.148 219.739C539.978 219.446 540.705 219.025 541.327 218.476C541.95 217.92 542.426 217.288 542.755 216.58C543.091 215.866 543.256 215.131 543.25 214.374V214.008H539.698V212.598H548.542V214.008H545.026V214.356C545.02 215.052 545.175 215.726 545.493 216.379C545.81 217.032 546.268 217.615 546.866 218.128C547.464 218.634 548.169 219.025 548.981 219.3L548.084 220.673C547.18 220.362 546.393 219.898 545.722 219.281C545.056 218.659 544.541 217.932 544.174 217.102C543.814 218.03 543.28 218.845 542.572 219.547C541.864 220.249 541.028 220.777 540.064 221.131L539.148 219.739ZM541.785 224.774C541.785 224.127 542.005 223.575 542.444 223.117C542.89 222.653 543.527 222.299 544.358 222.055C545.194 221.805 546.186 221.68 547.333 221.68C548.474 221.68 549.46 221.805 550.29 222.055C551.12 222.299 551.758 222.653 552.204 223.117C552.655 223.575 552.881 224.127 552.881 224.774C552.881 225.421 552.655 225.974 552.204 226.432C551.758 226.895 551.12 227.249 550.29 227.494C549.46 227.744 548.474 227.869 547.333 227.869C546.186 227.869 545.194 227.744 544.358 227.494C543.527 227.249 542.89 226.895 542.444 226.432C542.005 225.974 541.785 225.421 541.785 224.774ZM543.506 224.774C543.5 225.33 543.833 225.76 544.504 226.065C545.182 226.364 546.125 226.508 547.333 226.496C548.529 226.508 549.463 226.364 550.135 226.065C550.812 225.76 551.154 225.33 551.16 224.774C551.154 224.225 550.818 223.798 550.153 223.493C549.494 223.188 548.572 223.035 547.388 223.035C546.155 223.035 545.197 223.184 544.513 223.484C543.836 223.783 543.5 224.213 543.506 224.774ZM569.899 225.836H554.884V224.39H561.494V221.021H556.605V212.58H558.345V215.399H566.402V212.58H568.123V221.021H563.216V224.39H569.899V225.836ZM566.402 219.611V216.809H558.345V219.611H566.402ZM585.617 220.325H570.602V218.988H585.617V220.325ZM572.378 221.479H583.767V225.086H574.136V226.441H584.28V227.667H572.396V223.932H582.046V222.724H572.378V221.479ZM572.488 211.884H583.731V215.436H574.246V216.681H584.005V217.908H572.525V214.282H581.991V213.111H572.488V211.884ZM605.462 221.442H598.943V224.463H597.222V221.442H590.447V220.05H605.462V221.442ZM592.315 223.035H594.036V226.111H603.795V227.521H592.315V223.035ZM592.425 211.975H594.146V213.971H601.745V211.975H603.484V218.604H592.425V211.975ZM601.745 217.212V215.271H594.146V217.212H601.745ZM611.988 214.081C611.988 214.807 612.146 215.506 612.464 216.178C612.781 216.849 613.236 217.444 613.828 217.963C614.426 218.476 615.131 218.866 615.943 219.135L614.99 220.526C614.099 220.203 613.324 219.727 612.665 219.098C612.012 218.469 611.505 217.734 611.145 216.892C610.779 217.813 610.251 218.619 609.561 219.309C608.878 219.992 608.063 220.514 607.117 220.874L606.183 219.464C607.025 219.171 607.752 218.75 608.362 218.201C608.972 217.652 609.436 217.017 609.754 216.297C610.077 215.57 610.242 214.801 610.248 213.99V212.305H611.988V214.081ZM608.765 222.046H619.879V227.869H618.14V223.419H608.765V222.046ZM614.679 214.777H618.14V211.463H619.879V221.186H618.14V216.205H614.679V214.777ZM634.828 216.754H637.208V218.201H634.828V223.749H633.089V211.481H634.828V216.754ZM621.956 213.385H625.984V211.463H627.724V213.385H631.734V214.795H621.956V213.385ZM622.853 218.677C622.853 218.061 623.018 217.517 623.347 217.047C623.683 216.577 624.153 216.217 624.757 215.967C625.362 215.711 626.057 215.583 626.845 215.583C627.626 215.583 628.316 215.711 628.914 215.967C629.518 216.217 629.985 216.577 630.315 217.047C630.65 217.517 630.818 218.061 630.818 218.677C630.818 219.287 630.65 219.824 630.315 220.288C629.985 220.752 629.518 221.112 628.914 221.369C628.316 221.625 627.626 221.753 626.845 221.753C626.057 221.753 625.362 221.625 624.757 221.369C624.153 221.112 623.683 220.752 623.347 220.288C623.018 219.824 622.853 219.287 622.853 218.677ZM624.428 222.779H626.167V226.111H635.524V227.521H624.428V222.779ZM624.538 218.677C624.531 219.025 624.623 219.33 624.812 219.593C625.001 219.849 625.267 220.047 625.609 220.188C625.957 220.328 626.359 220.398 626.817 220.398C627.525 220.398 628.096 220.246 628.529 219.94C628.963 219.635 629.182 219.214 629.188 218.677C629.182 218.14 628.966 217.716 628.538 217.404C628.111 217.087 627.547 216.925 626.845 216.919C626.381 216.919 625.972 216.992 625.618 217.139C625.27 217.279 625.001 217.484 624.812 217.752C624.623 218.015 624.531 218.323 624.538 218.677ZM650.095 219.629H642.423V212.561H650.095V219.629ZM643.375 226.459C644.303 226.325 645.142 226.093 645.893 225.763C646.65 225.434 647.26 225.037 647.724 224.573C648.188 224.103 648.463 223.603 648.548 223.072H644.035V221.68H654.929V223.072H650.434C650.514 223.59 650.788 224.085 651.258 224.555C651.728 225.019 652.342 225.421 653.098 225.763C653.855 226.099 654.691 226.337 655.607 226.477L654.966 227.814C653.721 227.619 652.613 227.249 651.643 226.706C650.672 226.163 649.949 225.504 649.473 224.729C649.009 225.51 648.295 226.169 647.331 226.706C646.372 227.243 645.268 227.606 644.016 227.796L643.375 226.459ZM648.393 218.238V213.953H644.126V218.238H648.393ZM652.934 211.463H654.673V215.271H657.053V216.718H654.673V220.764H652.934V211.463ZM672.478 220.893H665.85V222.504H670.647V227.667H659.313V222.504H664.129V220.893H657.519V219.501H672.478V220.893ZM658.306 217.34C659.392 217.255 660.354 217.075 661.19 216.8C662.032 216.526 662.697 216.178 663.186 215.756C663.68 215.335 663.958 214.862 664.019 214.337H659.02V212.964H664.129V211.408H665.85V212.964H670.977V214.337H665.951C666.012 214.862 666.286 215.335 666.775 215.756C667.269 216.178 667.937 216.526 668.78 216.8C669.622 217.075 670.586 217.255 671.673 217.34L671.16 218.64C669.701 218.512 668.432 218.222 667.351 217.771C666.277 217.313 665.49 216.712 664.989 215.967C664.489 216.706 663.698 217.304 662.618 217.761C661.544 218.219 660.283 218.512 658.837 218.64L658.306 217.34ZM668.963 226.258V223.896H661.034V226.258H668.963ZM678.217 215.07C678.217 215.692 678.345 216.294 678.601 216.873C678.858 217.453 679.23 217.969 679.718 218.421C680.213 218.872 680.799 219.22 681.476 219.464L680.652 220.783C679.895 220.49 679.245 220.078 678.702 219.547C678.159 219.016 677.738 218.396 677.439 217.688C677.14 218.451 676.715 219.126 676.166 219.712C675.617 220.291 674.951 220.74 674.17 221.057L673.346 219.776C674.024 219.501 674.604 219.123 675.086 218.64C675.568 218.158 675.934 217.609 676.184 216.992C676.435 216.376 676.563 215.735 676.569 215.07V214.923H673.712V213.532H676.569V211.646H678.217V213.532H681.037V214.923H678.217V215.07ZM676.093 222.339H687.244V227.869H685.523V223.749H676.093V222.339ZM682.062 211.756H683.728V215.766H685.596V211.481H687.244V221.515H685.596V217.194H683.728V221.442H682.062V211.756ZM696.461 211.737C697.694 211.737 698.747 211.844 699.62 212.058C700.493 212.271 701.161 212.592 701.625 213.019C702.089 213.44 702.321 213.953 702.321 214.557C702.321 215.167 702.089 215.686 701.625 216.114C701.161 216.535 700.493 216.855 699.62 217.075C698.747 217.288 697.694 217.395 696.461 217.395C695.229 217.395 694.173 217.288 693.294 217.075C692.421 216.855 691.753 216.535 691.289 216.114C690.831 215.686 690.602 215.167 690.602 214.557C690.602 213.953 690.831 213.44 691.289 213.019C691.753 212.592 692.421 212.271 693.294 212.058C694.173 211.844 695.229 211.737 696.461 211.737ZM688.991 218.402H703.95V219.794H688.991V218.402ZM690.785 221.057H702.064V224.903H692.506V226.367H702.522V227.704H690.803V223.639H700.343V222.357H690.785V221.057ZM692.415 214.557C692.409 215.064 692.754 215.448 693.449 215.711C694.145 215.967 695.149 216.095 696.461 216.095C697.786 216.095 698.796 215.967 699.492 215.711C700.188 215.448 700.532 215.064 700.526 214.557C700.532 214.069 700.182 213.69 699.474 213.422C698.772 213.153 697.768 213.019 696.461 213.019C695.161 213.019 694.16 213.153 693.458 213.422C692.757 213.69 692.409 214.069 692.415 214.557ZM723.795 222.779H717.167V227.887H715.446V222.779H708.836V221.35H723.795V222.779ZM709.715 218.823C710.734 218.695 711.674 218.433 712.534 218.036C713.401 217.639 714.094 217.16 714.613 216.599C715.131 216.037 715.409 215.454 715.446 214.85H710.246V213.44H715.446V211.463H717.167V213.44H722.367V214.85H717.185C717.216 215.448 717.487 216.028 718 216.59C718.513 217.151 719.196 217.633 720.051 218.036C720.911 218.433 721.854 218.695 722.88 218.823L722.257 220.215C720.939 220.032 719.752 219.651 718.696 219.071C717.64 218.485 716.847 217.774 716.316 216.938C715.785 217.78 714.991 218.491 713.935 219.071C712.879 219.651 711.686 220.032 710.355 220.215L709.715 218.823ZM730.321 215.363C730.321 216.052 730.486 216.712 730.816 217.34C731.145 217.969 731.615 218.527 732.226 219.016C732.842 219.498 733.562 219.867 734.386 220.124L733.544 221.497C732.61 221.204 731.795 220.761 731.099 220.169C730.404 219.571 729.867 218.866 729.488 218.054C729.128 218.921 728.597 219.675 727.895 220.316C727.199 220.957 726.372 221.436 725.414 221.753L724.572 220.398C725.396 220.136 726.11 219.751 726.714 219.245C727.324 218.732 727.791 218.14 728.115 217.469C728.438 216.797 728.6 216.095 728.6 215.363V214.978H725.03V213.568H728.6V211.573H730.34V213.568H733.892V214.978H730.321V215.363ZM727.593 222.614H729.333V226.111H738.689V227.521H727.593V222.614ZM733.324 216.443H736.51V211.481H738.25V223.694H736.51V217.853H733.324V216.443ZM748.419 215.583H740.271V214.173H743.494V211.939H745.215V214.173H748.419V215.583ZM740.802 220.343C740.802 219.617 740.952 218.967 741.251 218.393C741.556 217.819 741.98 217.374 742.523 217.057C743.067 216.733 743.677 216.571 744.354 216.571C745.038 216.571 745.648 216.733 746.186 217.057C746.729 217.374 747.153 217.819 747.458 218.393C747.769 218.967 747.925 219.617 747.925 220.343C747.925 221.082 747.769 221.741 747.458 222.321C747.153 222.901 746.729 223.352 746.186 223.676C745.648 223.993 745.038 224.152 744.354 224.152C743.677 224.152 743.067 223.993 742.523 223.676C741.98 223.352 741.556 222.901 741.251 222.321C740.952 221.741 740.802 221.082 740.802 220.343ZM742.34 220.343C742.34 220.801 742.426 221.207 742.597 221.561C742.768 221.909 743.006 222.18 743.311 222.376C743.616 222.571 743.964 222.669 744.354 222.669C744.745 222.669 745.093 222.571 745.398 222.376C745.709 222.18 745.951 221.909 746.121 221.561C746.298 221.207 746.387 220.801 746.387 220.343C746.387 219.898 746.298 219.498 746.121 219.144C745.951 218.79 745.709 218.515 745.398 218.32C745.093 218.119 744.745 218.018 744.354 218.018C743.964 218.018 743.616 218.119 743.311 218.32C743.006 218.515 742.768 218.79 742.597 219.144C742.426 219.498 742.34 219.898 742.34 220.343ZM749.17 211.829H750.818V218.292H752.704V211.463H754.352V227.869H752.704V219.721H750.818V227.1H749.17V211.829ZM769.337 220.673H757.912V212.927H769.191V214.356H759.633V219.245H769.337V220.673ZM756.044 224.262H771.059V225.708H756.044V224.262ZM785.44 227.906H783.719V221.039H780.514V219.593H783.719V216.553H780.606V215.125H783.719V211.463H785.44V227.906ZM772.348 212.909H779.617V218.897H774.124V222.669C775.332 222.663 776.455 222.626 777.493 222.559C778.531 222.492 779.611 222.376 780.734 222.211L780.88 223.639C779.684 223.828 778.534 223.957 777.429 224.024C776.33 224.085 775.064 224.115 773.629 224.115H772.384V217.523H777.914V214.319H772.348V212.909ZM802.531 225.818H787.516V224.372H791.105V220.087C790.415 219.708 789.881 219.229 789.503 218.65C789.124 218.07 788.938 217.42 788.944 216.699C788.944 215.851 789.201 215.103 789.713 214.456C790.226 213.809 790.94 213.309 791.856 212.955C792.777 212.595 793.821 212.415 794.987 212.415C796.153 212.415 797.196 212.595 798.118 212.955C799.04 213.309 799.757 213.809 800.269 214.456C800.788 215.103 801.048 215.851 801.048 216.699C801.048 217.414 800.865 218.057 800.498 218.631C800.132 219.199 799.613 219.672 798.942 220.05V224.372H802.531V225.818ZM790.629 216.699C790.629 217.279 790.812 217.789 791.178 218.228C791.544 218.668 792.057 219.01 792.716 219.254C793.375 219.492 794.132 219.611 794.987 219.611C795.835 219.611 796.589 219.489 797.248 219.245C797.913 219 798.432 218.662 798.805 218.228C799.177 217.789 799.363 217.279 799.363 216.699C799.363 216.12 799.177 215.613 798.805 215.18C798.432 214.74 797.913 214.401 797.248 214.163C796.589 213.925 795.835 213.806 794.987 213.806C794.132 213.806 793.375 213.925 792.716 214.163C792.057 214.401 791.544 214.74 791.178 215.18C790.812 215.613 790.629 216.12 790.629 216.699ZM797.184 224.372V220.728C796.5 220.886 795.768 220.966 794.987 220.966C794.218 220.966 793.498 220.886 792.826 220.728V224.372H797.184Z" fill="#6B7684"/>
<g clip-path="url(#clip2_5778_9418)">
<path d="M36.2028 628.5L31.25 633.5L36.2028 638.5V634.75H44.8703C48.3047 634.75 51.0613 637.533 51.0613 641C51.0613 644.467 48.3047 647.25 44.8703 647.25H32.4882V649.75H44.8703C49.6427 649.75 53.5377 645.818 53.5377 641C53.5377 636.182 49.6427 632.25 44.8703 632.25H36.2028V628.5Z" fill="#191F28"/>
</g>
<g filter="url(#filter2_d_5778_9418)">
<rect x="1048.12" y="621.016" width="120.75" height="37.5" rx="18.75" fill="white"/>
<g clip-path="url(#clip3_5778_9418)">
<circle cx="1066.25" cy="639.766" r="15" fill="#FFEBE7"/>
<g clip-path="url(#clip4_5778_9418)">
<path d="M1060.19 633.613C1060.19 633.613 1056.57 643.485 1063 646.479L1065.34 645.549L1066.52 641.51C1066.52 641.51 1061.65 634.191 1061.65 634.231C1061.65 634.271 1060.19 633.613 1060.19 633.613Z" fill="#642718"/>
<path d="M1072.49 633.613C1072.49 633.613 1076.12 643.485 1069.69 646.479L1067.34 645.549L1066.16 641.51C1066.16 641.51 1071.03 634.191 1071.03 634.231C1071.03 634.271 1072.49 633.613 1072.49 633.613Z" fill="#642718"/>
<path d="M1063.57 641.75V645.829L1058.8 647.557L1066.34 653.897L1073.7 647.557L1068.93 645.829V641.75H1063.57Z" fill="#F5CCC1"/>
<path d="M1063.5 630.697C1065.24 629.617 1067.44 629.617 1069.18 630.697C1071.08 631.873 1072.06 634.099 1071.64 636.293L1070.85 639.722C1070.56 641.018 1069.74 642.136 1068.6 642.819L1067.83 643.282C1066.91 643.83 1065.77 643.83 1064.85 643.282L1064.08 642.819C1062.94 642.136 1062.12 641.018 1061.83 639.722L1061.04 636.293C1060.62 634.097 1061.6 631.873 1063.5 630.697Z" fill="#F5CCC1"/>
<path d="M1064.68 637.043V637.41" stroke="#300021" stroke-width="0.9375" stroke-miterlimit="10" stroke-linecap="round"/>
<path d="M1068.01 637.043V637.41" stroke="#300021" stroke-width="0.9375" stroke-miterlimit="10" stroke-linecap="round"/>
<path d="M1063.98 635.959C1064.1 635.9 1064.31 635.858 1064.55 635.852C1064.78 635.847 1064.99 635.879 1065.12 635.932" stroke="#642718" stroke-width="0.625" stroke-miterlimit="10" stroke-linecap="round" stroke-linejoin="round"/>
<path d="M1068.71 635.959C1068.59 635.9 1068.38 635.858 1068.14 635.852C1067.91 635.847 1067.7 635.879 1067.57 635.932" stroke="#642718" stroke-width="0.625" stroke-miterlimit="10" stroke-linecap="round" stroke-linejoin="round"/>
<path d="M1067.55 639.875C1067.28 640.059 1066.84 640.179 1066.34 640.179C1065.85 640.179 1065.41 640.059 1065.14 639.875" stroke="#C0655E" stroke-width="0.625" stroke-miterlimit="10" stroke-linecap="round" stroke-linejoin="round"/>
<path d="M1066.81 638.62C1066.81 638.766 1066.6 638.884 1066.34 638.884C1066.09 638.884 1065.88 638.766 1065.88 638.62C1065.88 638.473 1066.09 638.355 1066.34 638.355C1066.6 638.355 1066.81 638.473 1066.81 638.62Z" fill="#DD7766"/>
<path d="M1061.21 638.039C1061.21 638.039 1061.95 637.457 1062.04 636.309C1062.14 635.161 1062.94 633.836 1062.94 633.836L1060.95 633.918C1060.95 633.92 1060.22 635.258 1061.21 638.039Z" fill="#642718"/>
<path d="M1071.48 638.037C1071.48 638.037 1070.74 637.455 1070.64 636.307C1070.54 635.159 1069.58 633.41 1069.58 633.41L1071.74 633.914C1071.74 633.918 1072.47 635.256 1071.48 638.037Z" fill="#642718"/>
<path d="M1068.61 642.82L1067.83 643.284C1066.92 643.832 1065.77 643.832 1064.86 643.284L1064.08 642.82" stroke="#C0655E" stroke-width="0.375" stroke-miterlimit="10" stroke-linecap="round" stroke-linejoin="round"/>
<path d="M1063.57 645.75L1066.25 649.082L1068.93 645.75L1075.23 647.404C1076.92 647.78 1078.12 649.28 1078.12 651.012V655.16H1054.38V651.012C1054.38 649.28 1055.58 647.782 1057.27 647.404L1063.57 645.75Z" fill="#FFC238"/>
<path d="M1061.96 636.053C1061.96 636.053 1064.99 635.776 1065.88 632.594L1066.52 629.887L1062.57 632.97L1061.96 636.053Z" fill="#642718"/>
<path d="M1072 637.644C1071.28 638.539 1070.87 636.239 1070.87 636.239C1070.87 636.239 1070.59 634.815 1070.12 634.064C1070.02 633.91 1069.88 633.758 1069.69 633.612H1069.69C1068.96 633.049 1067.62 632.599 1066.34 632.599C1066.21 632.599 1066.08 632.604 1065.94 632.614C1064.46 632.716 1062.99 633.374 1062.57 634.064C1062.1 634.815 1061.81 636.239 1061.81 636.239C1061.81 636.239 1061.41 638.539 1060.69 637.644C1059.97 636.748 1059.66 634.328 1060.54 632.762C1061.42 631.196 1063.6 629.101 1065.13 628.856C1065.66 628.77 1066.06 628.894 1066.34 629.089C1066.63 628.894 1067.02 628.77 1067.56 628.856C1069.08 629.101 1071.26 631.196 1072.14 632.762C1073.03 634.328 1072.71 636.748 1072 637.644Z" fill="#642718"/>
<path d="M1062.27 637.756C1062.46 638.667 1062.17 639.532 1061.62 639.687C1061.08 639.843 1060.49 639.231 1060.3 638.319C1060.12 637.408 1060.41 636.543 1060.95 636.387C1061.49 636.232 1062.09 636.846 1062.27 637.756Z" fill="#F5CCC1"/>
<path d="M1061.48 638.97C1061.46 638.974 1061.45 638.976 1061.43 638.978C1061.23 638.993 1060.94 638.687 1060.83 638.168C1060.78 637.894 1060.79 637.615 1060.86 637.402C1060.89 637.307 1060.96 637.143 1061.1 637.105C1061.11 637.101 1061.12 637.1 1061.14 637.098" stroke="#C0655E" stroke-width="0.375" stroke-miterlimit="10" stroke-linecap="round" stroke-linejoin="round"/>
<path d="M1072.41 638.197C1072.55 637.276 1072.22 636.459 1071.67 636.371C1071.11 636.283 1070.54 636.959 1070.4 637.879C1070.25 638.8 1070.58 639.618 1071.14 639.706C1071.7 639.794 1072.26 639.118 1072.41 638.197Z" fill="#F5CCC1"/>
<path d="M1071.21 638.97C1071.22 638.974 1071.24 638.976 1071.25 638.978C1071.46 638.993 1071.75 638.687 1071.86 638.168C1071.91 637.894 1071.9 637.615 1071.83 637.402C1071.8 637.307 1071.73 637.143 1071.59 637.105C1071.58 637.101 1071.56 637.1 1071.55 637.098" stroke="#C0655E" stroke-width="0.375" stroke-miterlimit="10" stroke-linecap="round" stroke-linejoin="round"/>
<path d="M1069.69 633.612H1069.69C1068.96 633.049 1067.63 632.599 1066.34 632.599C1066.21 632.599 1066.08 632.605 1065.95 632.614L1065.96 632.483C1065.96 632.483 1066.26 631.472 1066.89 631.352C1067.52 631.23 1069.18 632.491 1069.69 633.612Z" fill="#300021"/>
<path d="M1062.28 635.085C1062.28 635.085 1064.07 634.247 1064.62 632.77C1065.16 631.293 1065.88 630.996 1065.88 630.996" stroke="#300021" stroke-width="0.375" stroke-miterlimit="10" stroke-linecap="round"/>
<path d="M1062.5 633.682C1062.5 633.682 1063.64 633.026 1063.91 632.108C1064.19 631.191 1064.66 630.906 1064.66 630.906" stroke="#300021" stroke-width="0.375" stroke-miterlimit="10" stroke-linecap="round"/>
<path d="M1070.52 632.855C1070.83 633.428 1071.02 634.066 1071.08 634.715" stroke="#300021" stroke-width="0.375" stroke-miterlimit="10" stroke-linecap="round"/>
<path d="M1071.52 633.277C1071.68 633.895 1071.73 634.54 1071.68 635.176" stroke="#300021" stroke-width="0.375" stroke-miterlimit="10" stroke-linecap="round"/>
<path d="M1063.57 644.512C1063.57 644.512 1062.1 644.683 1060.95 646.521L1063.75 650.399C1064.02 650.773 1064.56 650.819 1064.89 650.496L1066.25 649.165L1063.57 645.833V644.512H1063.57Z" fill="#F7EFEE"/>
<path d="M1068.93 644.512C1068.93 644.512 1070.4 644.683 1071.55 646.521L1068.68 650.5C1068.45 650.819 1067.98 650.859 1067.7 650.583L1066.25 649.165L1068.93 645.833V644.512Z" fill="#F7EFEE"/>
</g>
</g>
<path d="M1099.47 639.937H1098.07V634.29H1099.47V639.937ZM1091.26 637.157C1091.26 636.688 1091.38 636.271 1091.61 635.905C1091.85 635.539 1092.18 635.253 1092.59 635.048C1093.01 634.843 1093.48 634.74 1093.99 634.74C1094.5 634.74 1094.97 634.843 1095.38 635.048C1095.8 635.253 1096.13 635.539 1096.36 635.905C1096.61 636.271 1096.73 636.688 1096.73 637.157C1096.73 637.608 1096.61 638.014 1096.36 638.377C1096.13 638.739 1095.8 639.025 1095.38 639.234C1094.97 639.439 1094.5 639.541 1093.99 639.541C1093.48 639.541 1093.01 639.439 1092.6 639.234C1092.18 639.025 1091.85 638.739 1091.61 638.377C1091.38 638.014 1091.26 637.608 1091.26 637.157ZM1092.63 637.157C1092.63 637.399 1092.68 637.611 1092.79 637.794C1092.91 637.978 1093.07 638.119 1093.28 638.217C1093.49 638.316 1093.72 638.366 1093.99 638.366C1094.25 638.366 1094.48 638.316 1094.68 638.217C1094.89 638.119 1095.05 637.978 1095.17 637.794C1095.28 637.611 1095.34 637.399 1095.34 637.157C1095.34 636.901 1095.28 636.679 1095.17 636.493C1095.05 636.306 1094.89 636.163 1094.68 636.064C1094.48 635.965 1094.25 635.916 1093.99 635.916C1093.72 635.916 1093.49 635.965 1093.28 636.064C1093.07 636.163 1092.91 636.306 1092.79 636.493C1092.68 636.679 1092.63 636.901 1092.63 637.157ZM1092.77 640.387H1099.47V644.167H1092.77V640.387ZM1098.1 643.046V641.497H1094.16V643.046H1098.1ZM1104.71 636.542C1104.71 637.168 1104.8 637.772 1104.99 638.355C1105.19 638.937 1105.47 639.455 1105.85 639.909C1106.23 640.363 1106.7 640.706 1107.24 640.937L1106.42 642.057C1105.86 641.804 1105.38 641.442 1104.98 640.969C1104.58 640.497 1104.26 639.942 1104.03 639.305C1103.8 640.001 1103.47 640.607 1103.06 641.123C1102.64 641.636 1102.13 642.028 1101.54 642.299L1100.69 641.134C1101.26 640.896 1101.73 640.543 1102.12 640.074C1102.51 639.602 1102.81 639.062 1103 638.454C1103.19 637.842 1103.29 637.205 1103.3 636.542V635.048H1104.71V636.542ZM1107.78 634.279H1109.2V644.298H1107.78V634.279ZM1113.33 634.817C1113.72 634.817 1114.09 634.885 1114.43 635.02C1114.78 635.156 1115.07 635.348 1115.31 635.597H1117.58V634.279H1118.97V640.135H1117.58V638.937H1115.3C1115.06 639.182 1114.77 639.373 1114.43 639.508C1114.09 639.64 1113.72 639.706 1113.33 639.706C1112.83 639.706 1112.38 639.602 1111.97 639.393C1111.57 639.181 1111.25 638.889 1111.02 638.52C1110.79 638.146 1110.68 637.729 1110.68 637.267C1110.68 636.802 1110.79 636.383 1111.02 636.009C1111.25 635.636 1111.57 635.344 1111.97 635.136C1112.38 634.923 1112.83 634.817 1113.33 634.817ZM1112.01 637.267C1112.01 637.52 1112.06 637.741 1112.17 637.932C1112.29 638.122 1112.45 638.269 1112.65 638.371C1112.85 638.47 1113.08 638.52 1113.34 638.52C1113.59 638.52 1113.81 638.47 1114.01 638.371C1114.21 638.269 1114.36 638.122 1114.48 637.932C1114.59 637.741 1114.65 637.52 1114.65 637.267C1114.65 637.007 1114.59 636.784 1114.48 636.597C1114.36 636.406 1114.21 636.262 1114.01 636.163C1113.81 636.06 1113.59 636.011 1113.34 636.015C1113.08 636.011 1112.85 636.06 1112.65 636.163C1112.45 636.262 1112.29 636.406 1112.17 636.597C1112.06 636.784 1112.01 637.007 1112.01 637.267ZM1112.12 642.31C1112.12 641.9 1112.26 641.546 1112.54 641.25C1112.82 640.953 1113.21 640.728 1113.73 640.574C1114.25 640.42 1114.85 640.343 1115.56 640.343C1116.26 640.343 1116.87 640.42 1117.39 640.574C1117.91 640.728 1118.31 640.953 1118.58 641.25C1118.87 641.546 1119.01 641.9 1119.01 642.31C1119.01 642.72 1118.87 643.073 1118.58 643.37C1118.31 643.667 1117.91 643.892 1117.39 644.046C1116.87 644.199 1116.26 644.276 1115.56 644.276C1114.85 644.276 1114.25 644.199 1113.73 644.046C1113.21 643.892 1112.82 643.667 1112.54 643.37C1112.26 643.073 1112.12 642.72 1112.12 642.31ZM1113.49 642.31C1113.49 642.599 1113.67 642.819 1114.03 642.969C1114.38 643.115 1114.89 643.189 1115.56 643.189C1116.24 643.189 1116.75 643.115 1117.1 642.969C1117.45 642.819 1117.63 642.599 1117.63 642.31C1117.63 642.013 1117.45 641.79 1117.1 641.64C1116.75 641.49 1116.24 641.413 1115.56 641.409C1114.89 641.413 1114.38 641.49 1114.02 641.64C1113.67 641.79 1113.49 642.013 1113.49 642.31ZM1115.91 636.707C1115.95 636.883 1115.98 637.069 1115.98 637.267C1115.98 637.45 1115.96 637.633 1115.92 637.816H1117.58V636.707H1115.91ZM1131.17 639.937H1130.32V634.389H1131.17V639.937ZM1123.73 634.971H1124.6V638.454C1125.45 638.446 1126.25 638.41 1126.99 638.344C1127.73 638.274 1128.47 638.161 1129.21 638.003L1129.35 638.728C1128.55 638.889 1127.77 639.005 1127 639.074C1126.23 639.144 1125.41 639.182 1124.52 639.19H1123.73V634.971ZM1124.83 640.387H1131.17V644.024H1124.83V640.387ZM1130.32 643.321V641.079H1125.68V643.321H1130.32Z" fill="#191F28"/>
<g clip-path="url(#clip5_5778_9418)">
<path d="M1153.5 637.602L1155.7 639.793L1153.5 641.985" stroke="#6B7684" stroke-width="1.25" stroke-miterlimit="10" stroke-linecap="round" stroke-linejoin="round"/>
<path d="M1155.7 639.793H1147.37" stroke="#6B7684" stroke-width="1.25" stroke-miterlimit="10" stroke-linecap="round" stroke-linejoin="round"/>
<path d="M1151.3 643.042V643.73C1151.3 644.641 1150.55 645.393 1149.63 645.393H1144.33C1143.43 645.393 1142.68 644.641 1142.68 643.73V635.859C1142.68 634.947 1143.43 634.195 1144.35 634.195H1149.65C1150.55 634.195 1151.3 634.947 1151.3 635.859V636.499" stroke="#6B7684" stroke-width="1.25" stroke-miterlimit="10" stroke-linecap="round" stroke-linejoin="round"/>
</g>
</g>
</g>
<defs>
<filter id="filter0_f_5778_9418" x="305" y="-54.4375" width="1375.94" height="1375.94" filterUnits="userSpaceOnUse" color-interpolation-filters="sRGB">
<feFlood flood-opacity="0" result="BackgroundImageFix"/>
<feBlend mode="normal" in="SourceGraphic" in2="BackgroundImageFix" result="shape"/>
<feGaussianBlur stdDeviation="203.125" result="effect1_foregroundBlur_5778_9418"/>
</filter>
<filter id="filter1_f_5778_9418" x="-203.68" y="-224.992" width="1141.38" height="1141.38" filterUnits="userSpaceOnUse" color-interpolation-filters="sRGB">
<feFlood flood-opacity="0" result="BackgroundImageFix"/>
<feBlend mode="normal" in="SourceGraphic" in2="BackgroundImageFix" result="shape"/>
<feGaussianBlur stdDeviation="156.25" result="effect1_foregroundBlur_5778_9418"/>
</filter>
<filter id="filter2_d_5778_9418" x="1038.75" y="611.641" width="145.75" height="62.5" filterUnits="userSpaceOnUse" color-interpolation-filters="sRGB">
<feFlood flood-opacity="0" result="BackgroundImageFix"/>
<feColorMatrix in="SourceAlpha" type="matrix" values="0 0 0 0 0 0 0 0 0 0 0 0 0 0 0 0 0 0 127 0" result="hardAlpha"/>
<feOffset dx="3.125" dy="3.125"/>
<feGaussianBlur stdDeviation="6.25"/>
<feComposite in2="hardAlpha" operator="out"/>
<feColorMatrix type="matrix" values="0 0 0 0 0 0 0 0 0 0 0 0 0 0 0 0 0 0 0.1 0"/>
<feBlend mode="normal" in2="BackgroundImageFix" result="effect1_dropShadow_5778_9418"/>
<feBlend mode="normal" in="SourceGraphic" in2="effect1_dropShadow_5778_9418" result="shape"/>
</filter>
<linearGradient id="paint0_linear_5778_9418" x1="826.111" y1="-6.85547" x2="746.145" y2="710.752" gradientUnits="userSpaceOnUse">
<stop stop-color="#A1E7FA"/>
<stop offset="0.5" stop-color="white" stop-opacity="0.5"/>
<stop offset="1" stop-color="#FDBEE9"/>
</linearGradient>
<linearGradient id="paint1_linear_5778_9418" x1="447.382" y1="111.978" x2="19.5038" y2="471.144" gradientUnits="userSpaceOnUse">
<stop stop-color="white"/>
<stop offset="1" stop-color="white" stop-opacity="0"/>
</linearGradient>
<linearGradient id="paint2_linear_5778_9418" x1="600" y1="106.812" x2="600" y2="675.562" gradientUnits="userSpaceOnUse">
<stop stop-color="#E9F9FE"/>
<stop offset="1" stop-color="#F7F7F7"/>
</linearGradient>
<clipPath id="clip0_5778_9418">
<rect width="1200" height="675" fill="white" transform="translate(0 0.5625)"/>
</clipPath>
<clipPath id="clip1_5778_9418">
<rect width="29.717" height="30" fill="white" transform="translate(31.25 617.062)"/>
</clipPath>
<clipPath id="clip2_5778_9418">
<rect width="29.717" height="30" fill="white" transform="translate(31.25 624.75)"/>
</clipPath>
<clipPath id="clip3_5778_9418">
<rect x="1051.25" y="624.766" width="30" height="30" rx="15" fill="white"/>
</clipPath>
<clipPath id="clip4_5778_9418">
<rect width="23.75" height="26.4094" fill="white" transform="translate(1054.38 628.828)"/>
</clipPath>
<clipPath id="clip5_5778_9418">
<rect width="14.375" height="12.8125" fill="white" transform="translate(1142 633.359)"/>
</clipPath>
</defs>
</svg>
