<svg width="3840" height="2160" viewBox="0 0 3840 2160" fill="none" xmlns="http://www.w3.org/2000/svg">
<g clip-path="url(#clip0_2843_14284)">
<rect width="3840" height="2160" fill="#E4E3E5"/>
<rect width="3840" height="2160" fill="url(#paint0_linear_2843_14284)"/>
<g filter="url(#filter0_f_2843_14284)">
<circle cx="3177.5" cy="2025.5" r="901.5" fill="#E4C19A" fill-opacity="0.6"/>
</g>
<g style="mix-blend-mode:screen" filter="url(#filter1_f_2843_14284)">
<circle cx="1174.43" cy="1104.43" r="826.066" transform="rotate(30 1174.43 1104.43)" fill="url(#paint1_linear_2843_14284)" fill-opacity="0.1"/>
</g>
<path d="M1624.33 113.594C1624.13 111.641 1622.49 110.516 1620.05 110.531C1617.48 110.516 1615.94 111.766 1615.93 113.469C1615.91 115.375 1617.93 116.156 1619.8 116.594L1621.93 117.156C1625.3 117.938 1628.55 119.719 1628.55 123.656C1628.55 127.625 1625.41 130.344 1619.99 130.344C1614.73 130.344 1611.38 127.812 1611.21 123.344H1615.21C1615.4 125.703 1617.38 126.859 1619.96 126.875C1622.63 126.859 1624.48 125.562 1624.49 123.625C1624.48 121.844 1622.85 121.094 1620.4 120.469L1617.83 119.812C1614.12 118.844 1611.8 116.969 1611.8 113.719C1611.8 109.719 1615.35 107.062 1620.12 107.062C1624.91 107.062 1628.18 109.766 1628.24 113.594H1624.33ZM1638.33 107.375H1643.33L1650.05 123.812H1650.33L1657.05 107.375H1662.05V130H1658.14V114.438H1657.92L1651.64 129.938H1648.73L1642.45 114.375H1642.27V130H1638.33V107.375ZM1675.51 130H1671.17L1679.13 107.375H1684.13L1692.13 130H1687.79L1685.9 124.406H1677.38L1675.51 130ZM1678.48 121.125H1684.81L1681.73 112H1681.54L1678.48 121.125ZM1701.22 130V107.375H1709.72C1714.91 107.375 1717.68 110.281 1717.69 114.594C1717.68 117.672 1716.27 119.953 1713.61 121.031L1718.5 130H1713.97L1709.53 121.719H1705.28V130H1701.22ZM1705.28 118.312H1709.1C1712.16 118.328 1713.53 117.016 1713.53 114.594C1713.53 112.188 1712.16 110.781 1709.1 110.781H1705.28V118.312ZM1726.59 110.781V107.375H1744.62V110.781H1737.65V130H1733.59V110.781H1726.59ZM1768.2 130V107.375H1776.7C1781.89 107.375 1784.66 110.281 1784.67 114.594C1784.66 117.672 1783.25 119.953 1780.59 121.031L1785.48 130H1780.95L1776.52 121.719H1772.27V130H1768.2ZM1772.27 118.312H1776.08C1779.14 118.328 1780.52 117.016 1780.52 114.594C1780.52 112.188 1779.14 110.781 1776.08 110.781H1772.27V118.312ZM1794.57 130V107.375H1809.29V110.781H1798.63V116.969H1808.51V120.375H1798.63V126.562H1809.35V130H1794.57ZM1834.85 115C1834.36 112.281 1832.19 110.719 1829.44 110.719C1825.74 110.719 1823.11 113.562 1823.13 118.688C1823.11 123.891 1825.75 126.656 1829.44 126.656C1832.13 126.656 1834.3 125.156 1834.85 122.5H1838.94C1838.32 126.844 1834.74 130.312 1829.38 130.312C1823.41 130.312 1819.02 125.984 1819.03 118.688C1819.02 111.375 1823.46 107.062 1829.38 107.062C1834.38 107.062 1838.24 109.969 1838.94 115H1834.85ZM1869.03 118.688C1869.04 126 1864.58 130.312 1858.65 130.312C1852.7 130.312 1848.26 125.984 1848.28 118.688C1848.26 111.375 1852.7 107.062 1858.65 107.062C1864.58 107.062 1869.04 111.375 1869.03 118.688ZM1852.37 118.688C1852.36 123.859 1854.97 126.656 1858.65 126.656C1862.36 126.656 1864.95 123.859 1864.93 118.688C1864.95 113.516 1862.36 110.719 1858.65 110.719C1854.97 110.719 1852.36 113.516 1852.37 118.688ZM1879.05 107.375H1884.05L1890.77 123.812H1891.05L1897.77 107.375H1902.77V130H1898.87V114.438H1898.65L1892.37 129.938H1889.46L1883.18 114.375H1882.99V130H1879.05V107.375ZM1913.36 107.375H1918.36L1925.08 123.812H1925.36L1932.08 107.375H1937.08V130H1933.17V114.438H1932.95L1926.67 129.938H1923.77L1917.48 114.375H1917.3V130H1913.36V107.375ZM1947.67 130V107.375H1962.38V110.781H1951.73V116.969H1961.6V120.375H1951.73V126.562H1962.45V130H1947.67ZM1991.28 107.375V130H1987.66L1976.94 114.531H1976.75V130H1972.69V107.375H1976.38L1987.03 122.844H1987.25V107.375H1991.28ZM2009.56 130H2001.87V107.375H2009.68C2016.43 107.375 2020.51 111.609 2020.53 118.656C2020.51 125.734 2016.43 130 2009.56 130ZM2005.93 126.469H2009.34C2014.08 126.484 2016.47 123.875 2016.47 118.656C2016.47 113.469 2014.08 110.891 2009.47 110.906H2005.93V126.469ZM2030.52 130V107.375H2045.24V110.781H2034.58V116.969H2044.46V120.375H2034.58V126.562H2045.3V130H2030.52ZM2063.23 130H2055.55V107.375H2063.36C2070.11 107.375 2074.19 111.609 2074.2 118.656C2074.19 125.734 2070.11 130 2063.23 130ZM2059.61 126.469H2063.02C2067.75 126.484 2070.14 123.875 2070.14 118.656C2070.14 113.469 2067.75 110.891 2063.14 110.906H2059.61V126.469ZM2098.19 130V107.375H2106.85C2111.75 107.375 2114.18 109.875 2114.19 113.25C2114.18 116 2112.44 117.531 2110.22 118.062V118.281C2112.63 118.406 2115.07 120.406 2115.07 123.844C2115.07 127.359 2112.52 130 2107.35 130H2098.19ZM2102.25 126.594H2106.72C2109.69 126.594 2110.93 125.328 2110.94 123.531C2110.93 121.5 2109.35 119.953 2106.82 119.938H2102.25V126.594ZM2102.25 117H2106.35C2108.49 117 2110.11 115.766 2110.13 113.75C2110.11 112.016 2108.86 110.75 2106.44 110.75H2102.25V117ZM2144.97 118.688C2144.98 126 2140.51 130.312 2134.59 130.312C2128.64 130.312 2124.2 125.984 2124.22 118.688C2124.2 111.375 2128.64 107.062 2134.59 107.062C2140.51 107.062 2144.98 111.375 2144.97 118.688ZM2128.31 118.688C2128.29 123.859 2130.9 126.656 2134.59 126.656C2138.29 126.656 2140.89 123.859 2140.87 118.688C2140.89 113.516 2138.29 110.719 2134.59 110.719C2130.9 110.719 2128.29 113.516 2128.31 118.688ZM2175.18 118.688C2175.19 126 2170.72 130.312 2164.8 130.312C2158.85 130.312 2154.41 125.984 2154.43 118.688C2154.41 111.375 2158.85 107.062 2164.8 107.062C2170.72 107.062 2175.19 111.375 2175.18 118.688ZM2158.52 118.688C2158.51 123.859 2161.12 126.656 2164.8 126.656C2168.51 126.656 2171.1 123.859 2171.08 118.688C2171.1 113.516 2168.51 110.719 2164.8 110.719C2161.12 110.719 2158.51 113.516 2158.52 118.688ZM2185.2 130V107.375H2189.27V117.781H2189.58L2198.42 107.375H2203.39L2194.64 117.531L2203.48 130H2198.58L2191.8 120.281L2189.27 123.25V130H2185.2ZM2224.57 113.594C2224.37 111.641 2222.73 110.516 2220.29 110.531C2217.71 110.516 2216.18 111.766 2216.17 113.469C2216.15 115.375 2218.17 116.156 2220.04 116.594L2222.17 117.156C2225.54 117.938 2228.79 119.719 2228.79 123.656C2228.79 127.625 2225.65 130.344 2220.23 130.344C2214.96 130.344 2211.62 127.812 2211.45 123.344H2215.45C2215.63 125.703 2217.62 126.859 2220.2 126.875C2222.87 126.859 2224.71 125.562 2224.73 123.625C2224.71 121.844 2223.09 121.094 2220.63 120.469L2218.07 119.812C2214.35 118.844 2212.04 116.969 2212.04 113.719C2212.04 109.719 2215.59 107.062 2220.35 107.062C2225.15 107.062 2228.42 109.766 2228.48 113.594H2224.57Z" fill="#ADB5BD"/>
<path d="M1696.52 178.617C1696.52 190.605 1708.25 202.68 1724.54 205.516L1720.24 213.508C1707.22 210.801 1696.56 202.895 1691.49 192.453C1686.38 202.809 1675.72 210.758 1662.75 213.508L1658.54 205.516C1674.56 202.594 1686.34 190.562 1686.38 178.617V172.859H1696.52V178.617ZM1656.39 235.766V227.859H1727.37V235.766H1656.39ZM1771.97 175.523V226.398H1735.19V175.523H1771.97ZM1744.56 218.75H1762.43V183H1744.56V218.75ZM1783.75 245.648V167.961H1793.29V197.781H1805.23V205.859H1793.29V245.648H1783.75ZM1871.66 208.695V216.258H1817.18V174.062H1870.97V181.797H1826.89V191.164H1869.17V198.641H1826.89V208.695H1871.66ZM1808.5 236.195V228.375H1879.48V236.195H1808.5ZM1947.63 203.281V210.844H1924.6V228.633H1955.54V236.453H1884.55V228.633H1915.14V210.844H1893.14V173.719H1947.03V181.367H1902.68V203.281H1947.63ZM1989.31 186.609C1989.27 201.047 1996.18 215.227 2008.56 220.641L2002.8 228.289C1994.04 223.992 1987.85 215.742 1984.54 205.559C1981.14 216.301 1974.79 225.238 1965.85 229.75L1959.83 222.016C1972.51 216.086 1979.55 201.133 1979.6 186.609V174.234H1989.31V186.609ZM1999.96 200.789V193.055H2016.29V167.961H2025.75V245.734H2016.29V200.789H1999.96ZM2107.47 214.625V222.445H2076.71V245.734H2067.25V222.445H2036.66V214.625H2107.47ZM2040.53 202.336C2056.04 200.445 2066.22 192.496 2067.17 184.719H2043.19V177.156H2067.25V168.047H2076.71V177.156H2100.86V184.719H2076.88C2077.78 192.41 2087.92 200.445 2103.43 202.336L2099.91 209.898C2087.06 208.266 2077.09 202.637 2072.07 195.16C2067 202.723 2056.9 208.266 2043.96 209.898L2040.53 202.336ZM2140.64 186.352C2140.6 195.59 2147.09 204.57 2159.38 208.352L2154.74 215.828C2145.93 213.207 2139.53 207.578 2136 200.445C2132.57 208.137 2126.16 214.195 2117.1 217.117L2112.46 209.641C2124.7 205.816 2131.11 196.32 2131.11 186.352V185.148H2114.86V177.586H2131.11V168.477H2140.73V177.586H2156.89V185.148H2140.64V186.352ZM2126.81 244.102V220.727H2136.35V236.367H2179.75V244.102H2126.81ZM2154.31 198.812V191.164H2168.23V168.047H2177.77V225.711H2168.23V198.812H2154.31Z" fill="#191F28"/>
<path d="M1300.55 558.492V664.43H1287.54V558.492H1300.55ZM1212.77 635.016C1221.21 634.957 1230.76 634.957 1240.78 634.664V624.938C1228.89 623.062 1221.09 615.797 1221.09 605.719C1221.09 593.766 1231.7 585.855 1247.11 585.797C1262.7 585.855 1273.48 593.766 1273.48 605.719C1273.48 615.738 1265.68 622.945 1253.79 624.879V634.195C1263.11 633.785 1272.48 633.023 1281.33 631.852L1282.27 641.578C1259 645.504 1233.69 645.797 1214.65 645.797L1212.77 635.016ZM1215 580.992V570.68H1240.78V558.844H1253.79V570.68H1279.45V580.992H1215ZM1233.52 605.719C1233.4 611.812 1239.08 615.387 1247.11 615.328C1255.37 615.387 1261 611.812 1260.94 605.719C1261 599.566 1255.37 595.816 1247.11 595.758C1239.08 595.816 1233.4 599.566 1233.52 605.719ZM1401.84 558.609V638.766H1388.72V629.508H1367.98V620.367H1388.72V558.609H1401.84ZM1312.55 606.188C1332.06 606.07 1358.37 605.895 1380.87 603.023L1381.57 612.398C1372.84 613.863 1363.82 614.801 1354.85 615.445V635.836H1341.84V616.148C1331.94 616.559 1322.51 616.617 1314.19 616.617L1312.55 606.188ZM1320.63 581.227C1320.63 570.035 1331.41 562.418 1347.12 562.477C1362.53 562.418 1373.37 570.035 1373.48 581.227C1373.37 592.594 1362.53 599.801 1347.12 599.859C1331.41 599.801 1320.63 592.594 1320.63 581.227ZM1326.61 662.32V631.031H1339.62V651.773H1404.3V662.32H1326.61ZM1332.94 581.227C1332.94 586.969 1338.62 590.309 1347.12 590.367C1355.2 590.309 1361 586.969 1361.06 581.227C1361 575.484 1355.2 572.027 1347.12 572.086C1338.62 572.027 1332.94 575.484 1332.94 581.227ZM1501.73 558.492V618.141H1488.84V558.492H1501.73ZM1419.94 612.047V564.703H1433.06V601.031C1449.64 600.914 1463.88 599.684 1478.88 596.461L1480.52 607.242C1463.65 610.699 1447.71 611.93 1428.96 612.047H1419.94ZM1431.77 663.023V622.711H1501.73V663.023H1431.77ZM1444.55 652.711H1489.08V632.906H1444.55V652.711ZM1548.77 565.875C1565.59 565.816 1577.84 576.422 1577.95 591.422C1577.84 606.48 1565.59 617.027 1548.77 617.086C1532.13 617.027 1519.65 606.48 1519.71 591.422C1519.65 576.422 1532.13 565.816 1548.77 565.875ZM1514.91 631.734C1534.01 631.734 1560.43 631.5 1583.34 628.219L1584.4 637.711C1560.67 642.223 1535.24 642.398 1516.55 642.398L1514.91 631.734ZM1532.6 591.422C1532.54 600.27 1539.52 605.719 1548.77 605.719C1558.15 605.719 1565.12 600.27 1565.18 591.422C1565.12 582.633 1558.21 577.125 1548.77 577.125C1539.52 577.125 1532.54 582.633 1532.6 591.422ZM1589.67 664.547V558.492H1602.68V664.547H1589.67ZM1699.8 566.344V572.672C1699.69 579.879 1699.69 590.426 1697.23 603.844L1684.34 602.672C1686.45 591.773 1686.86 583.629 1686.97 577.125H1645.78V566.344H1699.8ZM1639.45 612.281C1645.72 612.223 1652.75 612.164 1660.2 612.047V590.484H1673.09V611.637C1684.04 611.168 1695.29 610.348 1705.55 608.883L1706.25 618.258C1684.22 622.242 1659.2 622.652 1640.62 622.711L1639.45 612.281ZM1655.27 662.32V630.797H1668.4V651.773H1728.52V662.32H1655.27ZM1711.76 637.828V558.492H1725.12V591.539H1738.83V602.438H1725.12V637.828H1711.76ZM1829.58 558.609V618.492H1816.45V558.609H1829.58ZM1741.34 606.07C1758.5 600.621 1767.41 586.852 1767.35 572.906V562.594H1780.83V572.906C1780.77 586.441 1789.79 599.039 1806.38 604.312L1800.05 614.273C1787.8 610.465 1779.01 602.672 1774.21 592.535C1769.46 603.434 1760.5 612.164 1747.78 616.383L1741.34 606.07ZM1759.27 663.141V623.766H1829.58V663.141H1759.27ZM1772.16 652.594H1816.8V634.078H1772.16V652.594ZM1879.9 583.922C1879.78 602.848 1889.27 621.949 1905.68 629.859L1897.71 640.289C1886.23 634.488 1877.96 623.297 1873.45 609.82C1868.82 624.234 1860.15 636.188 1848.02 642.281L1840.05 631.852C1857.11 623.766 1866.83 603.492 1866.89 583.922V567.047H1879.9V583.922ZM1912.01 664.43V558.492H1925.02V599.977H1941.3V611.109H1925.02V664.43H1912.01ZM2028.54 588.492V598.805H1955.18V562.359H1968.07V588.492H2028.54ZM1942.64 621.422V611.109H2039.44V621.422H1942.64ZM1954.24 661.969V630.797H1967.25V651.422H2029.24V661.969H1954.24ZM2165.62 618.492V629.039H2123.44V664.312H2110.55V629.039H2068.83V618.492H2165.62ZM2080.66 606.07V563.883H2153.79V606.07H2080.66ZM2093.44 595.875H2140.78V574.312H2093.44V595.875ZM2258.37 558.492V630.211H2245.36V596.93H2226.2C2223.56 609.059 2212.72 617.32 2199.07 617.32C2183.07 617.32 2171.06 606.422 2171.06 591.305C2171.06 576.012 2183.07 565.465 2199.07 565.406C2213.02 565.465 2224.03 573.785 2226.38 586.383H2245.36V558.492H2258.37ZM2182.08 653.531C2202.88 650.367 2216.47 638.18 2216.53 626.461V622.945H2230.01V626.461C2229.89 638.766 2243.13 650.543 2264.58 653.531L2259.42 663.727C2242.49 661.148 2229.54 653.18 2223.15 642.34C2216.65 653.062 2203.64 661.148 2186.77 663.727L2182.08 653.531ZM2183.48 591.305C2183.48 600.387 2189.99 606.188 2199.07 606.188C2207.74 606.188 2214.36 600.387 2214.42 591.305C2214.36 582.457 2207.74 576.422 2199.07 576.422C2189.99 576.422 2183.48 582.457 2183.48 591.305ZM2358.61 558.609V635.133H2345.48V558.609H2358.61ZM2272.24 592.008C2272.24 576.598 2284.72 565.582 2300.84 565.523C2316.95 565.582 2329.37 576.598 2329.31 592.008C2329.37 607.652 2316.95 618.609 2300.84 618.609C2284.72 618.609 2272.24 607.652 2272.24 592.008ZM2285.02 592.008C2284.96 601.383 2291.75 607.242 2300.84 607.242C2309.68 607.242 2316.54 601.383 2316.54 592.008C2316.54 582.867 2309.68 576.891 2300.84 576.891C2291.75 576.891 2284.96 582.867 2285.02 592.008ZM2288.53 662.32V627.398H2301.66V651.773H2361.54V662.32H2288.53ZM2454.05 558.492V599.859H2469.75V610.758H2454.05V664.195H2441.04V558.492H2454.05ZM2370.49 635.25C2396.27 622.359 2410.22 604.43 2412.8 580.289H2376.23V569.508H2426.04C2425.98 600.621 2413.09 627.984 2377.88 645.328L2370.49 635.25ZM2568.59 640.875V651.539H2471.79V640.875H2494.17V614.098C2485.73 609.234 2480.64 601.617 2480.7 592.242C2480.64 575.367 2497.16 564.234 2519.95 564.234C2542.86 564.234 2559.5 575.367 2559.45 592.242C2559.5 601.5 2554.52 608.941 2546.32 613.805V640.875H2568.59ZM2493.47 592.242C2493.41 603.082 2504.13 609.996 2519.95 609.938C2535.71 609.996 2546.67 603.082 2546.67 592.242C2546.67 581.227 2535.71 574.488 2519.95 574.547C2504.13 574.488 2493.41 581.227 2493.47 592.242ZM2507.06 640.875H2533.08V618.785C2529.04 619.664 2524.64 620.133 2519.95 620.133C2515.38 620.133 2511.05 619.664 2507.06 618.844V640.875ZM2590.43 627.984C2590.55 613.043 2594.77 608.473 2602.15 603.961C2607.13 600.738 2611 596.812 2610.94 590.953C2611 584.391 2605.84 580.172 2599.45 580.172C2593.65 580.172 2588.03 583.922 2587.62 591.773H2572.97C2573.38 576.012 2585.1 567.984 2599.57 567.984C2615.39 567.984 2626.23 576.773 2626.29 590.719C2626.23 600.27 2621.48 606.48 2613.87 610.992C2607.07 615.152 2604.26 619.195 2604.14 627.984V629.039H2590.43V627.984ZM2588.55 645.797C2588.5 640.875 2592.66 636.832 2597.7 636.773C2602.56 636.832 2606.72 640.875 2606.72 645.797C2606.72 650.836 2602.56 654.938 2597.7 654.938C2592.66 654.938 2588.5 650.836 2588.55 645.797Z" fill="#191F28"/>
<path d="M1414 730.465V733.395C1413.94 736.91 1413.94 742.125 1412.65 748.922L1407.14 748.395C1408.28 742.594 1408.46 738.346 1408.52 735.035H1387.51V730.465H1414ZM1384.35 753.434C1387.57 753.434 1391.23 753.404 1395.07 753.316V742.242H1400.58V753.141C1406.2 752.906 1412 752.496 1417.28 751.734L1417.63 755.777C1406.67 757.711 1394.13 757.916 1384.88 757.945L1384.35 753.434ZM1392.32 777.867V762.34H1397.88V773.355H1428V777.867H1392.32ZM1420.62 765.914V726.48H1426.3V743.18H1433.51V747.867H1426.3V765.914H1420.62ZM1478.65 726.539V756.246H1473.08V726.539H1478.65ZM1435.35 750.68C1443.55 747.926 1448.5 740.953 1448.53 733.629V728.531H1454.21V733.629C1454.19 740.719 1459.25 747.105 1467.22 749.801L1464.47 754.078C1458.38 752.057 1453.78 747.926 1451.4 742.535C1449.06 748.307 1444.4 752.877 1438.1 755.074L1435.35 750.68ZM1444.14 778.336V759.059H1478.65V778.336H1444.14ZM1449.64 773.824H1473.2V763.512H1449.64V773.824ZM1526.92 731.812C1526.89 747.281 1521.76 761.197 1502.48 770.602L1499.5 766.266C1508.93 761.695 1514.76 756.041 1518.04 749.361L1500.55 750.973L1499.79 746.109L1519.83 744.82C1520.68 742.154 1521.18 739.312 1521.38 736.324H1502.43V731.812H1526.92ZM1536.64 778.98V726.48H1542.27V778.98H1536.64ZM1592.86 726.539V778.98H1587.23V766.441H1575.63V762.223H1587.23V726.539H1592.86ZM1548.74 753.844C1558.7 753.785 1571.91 753.756 1583.43 752.145L1583.72 756.246C1578.71 757.125 1573.52 757.652 1568.48 757.975V777.34H1562.92V758.238C1558.11 758.414 1553.54 758.473 1549.5 758.473L1548.74 753.844ZM1552.61 739.43C1552.63 733.219 1558.14 728.941 1566.02 728.941C1573.79 728.941 1579.32 733.219 1579.32 739.43C1579.32 745.758 1573.79 749.83 1566.02 749.859C1558.14 749.83 1552.63 745.758 1552.61 739.43ZM1557.88 739.43C1557.85 743.18 1561.19 745.611 1566.02 745.582C1570.68 745.611 1574.02 743.18 1574.05 739.43C1574.02 735.738 1570.71 733.248 1566.02 733.219C1561.19 733.248 1557.85 735.738 1557.88 739.43ZM1641.87 751.383V755.953H1605.3V731.168H1641.4V735.738H1610.81V751.383H1641.87ZM1599.33 772.066V767.438H1647.38V772.066H1599.33ZM1697.67 750.562V754.84H1649.62V750.562H1697.67ZM1655.31 762.516V758.531H1691.75V770.074H1660.93V774.41H1693.39V778.336H1655.37V766.383H1686.25V762.516H1655.31ZM1655.66 731.754V727.828H1691.64V739.195H1661.29V743.18H1692.52V747.105H1655.78V735.504H1686.07V731.754H1655.66ZM1761.18 753.961V758.414H1740.32V768.082H1734.81V758.414H1713.13V753.961H1761.18ZM1719.11 777.867V763.512H1724.61V773.355H1755.84V777.867H1719.11ZM1719.46 749.332V728.121H1724.96V734.508H1749.28V728.121H1754.85V749.332H1719.46ZM1724.96 744.879H1749.28V738.668H1724.96V744.879ZM1782.06 734.859C1782.03 741.832 1786.8 748.395 1794.71 751.031L1791.67 755.484C1785.9 753.375 1781.62 749.156 1779.36 743.854C1777.05 749.684 1772.6 754.254 1766.47 756.598L1763.48 752.086C1771.72 749.244 1776.46 742.33 1776.49 734.566V729.176H1782.06V734.859ZM1771.75 764.742V760.348H1807.31V778.98H1801.75V764.742H1771.75ZM1790.67 741.656V737.086H1801.75V726.48H1807.31V757.594H1801.75V741.656H1790.67ZM1839.86 735.152V739.664H1813.78V735.152H1824.09V728.004H1829.6V735.152H1839.86ZM1815.48 754.898C1815.45 747.838 1820.26 742.828 1826.85 742.828C1833.5 742.828 1838.24 747.838 1838.27 754.898C1838.24 762.076 1833.5 767.115 1826.85 767.086C1820.26 767.115 1815.45 762.076 1815.48 754.898ZM1820.4 754.898C1820.37 759.352 1823.07 762.34 1826.85 762.34C1830.63 762.34 1833.35 759.352 1833.35 754.898C1833.35 750.533 1830.63 747.486 1826.85 747.457C1823.07 747.486 1820.37 750.533 1820.4 754.898ZM1842.26 776.52V727.652H1847.53V748.336H1853.57V726.48H1858.84V778.98H1853.57V752.906H1847.53V776.52H1842.26ZM1918.65 726.48V737.438H1926.27V742.066H1918.65V753.023H1913.09V726.48H1918.65ZM1878.22 740.016C1878.16 733.072 1884.05 728.326 1891.99 728.297C1899.96 728.326 1905.76 733.072 1905.76 740.016C1905.76 746.9 1899.96 751.734 1891.99 751.734C1884.05 751.734 1878.16 746.9 1878.22 740.016ZM1883.61 740.016C1883.58 744.293 1887.16 747.281 1891.99 747.281C1896.83 747.281 1900.37 744.293 1900.37 740.016C1900.37 735.738 1896.83 732.838 1891.99 732.867C1887.16 732.838 1883.58 735.738 1883.61 740.016ZM1884.73 759.762V755.426H1918.65V768.727H1890.29V773.883H1920.47V778.336H1884.84V764.566H1913.14V759.762H1884.73ZM1954.36 729.996V752.613H1929.81V729.996H1954.36ZM1932.86 774.469C1941.85 773.18 1948.56 768.756 1949.41 763.629H1934.96V759.176H1969.83V763.629H1955.44C1956.23 768.639 1963.06 773.18 1972 774.527L1969.95 778.805C1961.98 777.574 1955.41 773.912 1952.37 768.932C1949.38 773.941 1942.88 777.545 1934.91 778.746L1932.86 774.469ZM1935.26 748.16H1948.91V734.449H1935.26V748.16ZM1963.44 756.246V726.48H1969.01V738.668H1976.62V743.297H1969.01V756.246H1963.44ZM2025.98 753.902V758.355H1978.11V753.902H2025.98ZM1983.27 738.727C1983.24 732.135 1990.59 728.209 2002.02 728.238C2013.39 728.209 2020.74 732.135 2020.77 738.727C2020.74 745.348 2013.39 749.361 2002.02 749.391C1990.59 749.361 1983.24 745.348 1983.27 738.727ZM1984.15 777.867V762.633H1989.77V773.355H2020.59V777.867H1984.15ZM1989.01 738.727C1988.98 742.623 1993.96 744.82 2002.02 744.82C2010.05 744.82 2015.06 742.623 2015.03 738.727C2015.06 734.977 2010.05 732.691 2002.02 732.691C1993.96 732.691 1988.98 734.977 1989.01 738.727ZM2057.5 738.023C2057.5 743.941 2061.25 749.713 2067.93 752.086L2065.29 756.305C2060.34 754.4 2056.88 750.797 2055.01 746.402C2053.16 751.178 2049.64 755.104 2044.55 757.184L2041.91 753.082C2048.56 750.387 2052.19 744.381 2052.22 738.023V737.555H2043.08V733.102H2052.22V727.066H2057.5V733.102H2066.52V737.555H2057.5V738.023ZM2050.7 765.797V761.285H2086.38V778.98H2080.88V765.797H2050.7ZM2069.8 758.414V727.418H2075.13V740.25H2081.11V726.539H2086.38V758.648H2081.11V744.82H2075.13V758.414H2069.8ZM2115.88 727.359C2127.71 727.33 2134.6 730.523 2134.63 736.383C2134.6 742.271 2127.71 745.465 2115.88 745.465C2104.04 745.465 2097.1 742.271 2097.13 736.383C2097.1 730.523 2104.04 727.33 2115.88 727.359ZM2091.97 753.141V748.688H2139.84V753.141H2091.97ZM2097.71 761.344V757.184H2133.81V769.488H2103.22V774.176H2135.27V778.453H2097.77V765.445H2128.3V761.344H2097.71ZM2102.93 736.383C2102.9 739.635 2107.53 741.305 2115.88 741.305C2124.29 741.305 2128.92 739.635 2128.89 736.383C2128.92 733.277 2124.29 731.461 2115.88 731.461C2107.53 731.461 2102.9 733.277 2102.93 736.383ZM2203.35 758.121V762.691H2182.14V779.039H2176.63V762.691H2155.48V758.121H2203.35ZM2158.29 750.035C2168.25 748.775 2176.28 743.209 2176.63 737.32H2159.99V732.809H2176.63V726.48H2182.14V732.809H2198.78V737.32H2182.2C2182.49 743.15 2190.43 748.775 2200.42 750.035L2198.43 754.488C2189.99 753.316 2182.81 749.361 2179.41 744C2176.01 749.42 2168.81 753.316 2160.34 754.488L2158.29 750.035ZM2224.23 738.961C2224.23 745.582 2229.18 751.676 2237.24 754.195L2234.54 758.59C2228.51 756.686 2223.97 752.701 2221.56 747.574C2219.28 753.053 2214.74 757.359 2208.53 759.41L2205.83 755.074C2213.86 752.496 2218.72 746.021 2218.72 738.961V737.73H2207.3V733.219H2218.72V726.832H2224.29V733.219H2235.66V737.73H2224.23V738.961ZM2215.5 777.867V762.164H2221.07V773.355H2251.01V777.867H2215.5ZM2233.84 746.93V742.418H2244.04V726.539H2249.6V765.621H2244.04V746.93H2233.84ZM2282.14 735.152V739.664H2256.07V735.152H2266.38V728.004H2271.89V735.152H2282.14ZM2257.77 754.898C2257.74 747.838 2262.54 742.828 2269.14 742.828C2275.79 742.828 2280.53 747.838 2280.56 754.898C2280.53 762.076 2275.79 767.115 2269.14 767.086C2262.54 767.115 2257.74 762.076 2257.77 754.898ZM2262.69 754.898C2262.66 759.352 2265.36 762.34 2269.14 762.34C2272.92 762.34 2275.64 759.352 2275.64 754.898C2275.64 750.533 2272.92 747.486 2269.14 747.457C2265.36 747.486 2262.66 750.533 2262.69 754.898ZM2284.55 776.52V727.652H2289.82V748.336H2295.86V726.48H2301.13V778.98H2295.86V752.906H2289.82V776.52H2284.55ZM2349.08 751.383V755.953H2312.52V731.168H2348.61V735.738H2318.03V751.383H2349.08ZM2306.54 772.066V767.438H2354.59V772.066H2306.54ZM2400.61 726.48V779.098H2395.1V757.125H2384.85V752.496H2395.1V742.77H2385.14V738.199H2395.1V726.48H2400.61ZM2358.71 735.621V731.109H2381.98V750.27H2364.4V762.34C2371.81 762.311 2378.08 761.959 2385.55 760.875L2386.02 765.445C2377.82 766.734 2371.11 766.969 2362.82 766.969H2358.83V745.875H2376.53V735.621H2358.71ZM2455.3 767.789V772.418H2407.25V767.789H2418.74V754.078C2414.43 751.705 2411.79 747.955 2411.82 743.238C2411.79 734.977 2419.91 729.557 2431.16 729.527C2442.44 729.557 2450.55 734.977 2450.55 743.238C2450.55 747.867 2448.04 751.588 2443.82 753.961V767.789H2455.3ZM2417.21 743.238C2417.21 748.863 2422.93 752.525 2431.16 752.555C2439.33 752.525 2445.13 748.863 2445.16 743.238C2445.13 737.584 2439.33 733.98 2431.16 733.98C2422.93 733.98 2417.21 737.584 2417.21 743.238ZM2424.25 767.789H2438.19V756.129C2436.05 756.627 2433.68 756.891 2431.16 756.891C2428.7 756.891 2426.36 756.627 2424.25 756.129V767.789Z" fill="#6B7684"/>
<path d="M1741.27 1471.96C1744.72 1466.02 1750.2 1461.53 1756.7 1459.34C1763.21 1457.14 1770.29 1457.38 1776.62 1460.01C1782.96 1462.65 1788.13 1467.49 1791.16 1473.65C1794.19 1479.81 1794.88 1486.86 1793.1 1493.49C1791.32 1500.12 1787.19 1505.88 1781.48 1509.69C1775.77 1513.5 1768.87 1515.11 1762.07 1514.21C1755.26 1513.31 1749.01 1509.97 1744.49 1504.81C1739.96 1499.65 1737.46 1493.02 1737.46 1486.16" stroke="#6B7684" stroke-width="6" stroke-linecap="round" stroke-linejoin="round"/>
<path d="M1755.15 1472H1741V1457.85" stroke="#6B7684" stroke-width="6" stroke-linecap="round" stroke-linejoin="round"/>
<path d="M1854.59 1467.38C1854.56 1480.78 1850.12 1492.84 1833.41 1500.99L1830.82 1497.24C1839 1493.27 1844.05 1488.37 1846.9 1482.58L1831.74 1483.98L1831.08 1479.77L1848.45 1478.65C1849.18 1476.34 1849.61 1473.88 1849.79 1471.29H1833.36V1467.38H1854.59ZM1863.02 1508.25V1462.75H1867.89V1508.25H1863.02ZM1913.04 1462.81V1508.25H1908.16V1497.39H1898.11V1493.73H1908.16V1462.81H1913.04ZM1874.8 1486.47C1883.43 1486.42 1894.88 1486.39 1904.86 1485L1905.12 1488.55C1900.78 1489.31 1896.28 1489.77 1891.91 1490.05V1506.83H1887.09V1490.28C1882.93 1490.43 1878.96 1490.48 1875.46 1490.48L1874.8 1486.47ZM1878.15 1473.98C1878.18 1468.59 1882.95 1464.89 1889.78 1464.89C1896.51 1464.89 1901.31 1468.59 1901.31 1473.98C1901.31 1479.46 1896.51 1482.99 1889.78 1483.02C1882.95 1482.99 1878.18 1479.46 1878.15 1473.98ZM1882.72 1473.98C1882.7 1477.23 1885.59 1479.33 1889.78 1479.31C1893.82 1479.33 1896.71 1477.23 1896.74 1473.98C1896.71 1470.78 1893.84 1468.62 1889.78 1468.59C1885.59 1468.62 1882.7 1470.78 1882.72 1473.98ZM1956.81 1484.34V1488.3H1925.12V1466.82H1956.41V1470.78H1929.9V1484.34H1956.81ZM1919.95 1502.26V1498.25H1961.59V1502.26H1919.95ZM2013.03 1462.75V1480.38H2020.34V1484.44H2013.03V1508.25H2008.2V1462.75H2013.03ZM1979.31 1497.44V1466.56H1984.08V1478.24H1996.12V1466.56H2000.89V1497.44H1979.31ZM1984.08 1493.48H1996.12V1482.05H1984.08V1493.48ZM2064.01 1484.54V1488.55H2045.58V1508.25H2040.75V1488.55H2022.52V1484.54H2033.87C2035.62 1477.99 2035.93 1473.09 2036.01 1469.71H2025.82V1465.8H2040.75V1467.68C2040.75 1470.8 2040.75 1476.47 2038.77 1484.54H2052.92C2054.36 1477.99 2054.57 1473.14 2054.57 1469.71H2044.05V1465.8H2059.34V1468.19C2059.37 1471.51 2059.37 1476.9 2057.79 1484.54H2064.01ZM2105.3 1462.75V1508.25H2100.42V1462.75H2105.3ZM2067.92 1496.07C2080.01 1490.3 2085.92 1482.1 2086.86 1471.49H2070.11V1467.63H2091.74C2091.74 1480.96 2086.08 1492.49 2070.46 1499.98L2067.92 1496.07Z" fill="#6B7684"/>
<rect x="1014" y="1585.3" width="592" height="148" rx="74" fill="white"/>
<rect x="1014" y="1585.3" width="592" height="148" rx="74" stroke="#1773EB" stroke-width="4"/>
<path d="M1151.9 1633.27V1644.83H1159.11V1650.82H1151.9V1662.15H1144.4V1633.27H1151.9ZM1109.57 1643.03V1637.33H1121.69V1632.98H1129.15V1637.33H1141.23V1643.03H1109.57ZM1112.19 1653.06C1112.16 1647.73 1117.45 1644.34 1125.42 1644.34C1133.38 1644.34 1138.54 1647.73 1138.54 1653.06C1138.54 1658.51 1133.38 1661.76 1125.42 1661.78C1117.45 1661.76 1112.16 1658.51 1112.19 1653.06ZM1116.52 1669.67V1664.31H1151.9V1677.75H1123.97V1680.82H1153.44V1686.33H1116.6V1672.68H1144.44V1669.67H1116.52ZM1119.46 1653.06C1119.46 1655.34 1121.72 1656.42 1125.42 1656.44C1129.11 1656.42 1131.43 1655.34 1131.45 1653.06C1131.43 1650.82 1129.11 1649.58 1125.42 1649.58C1121.72 1649.58 1119.46 1650.82 1119.46 1653.06ZM1206.12 1633.34V1686.83H1198.68V1633.34H1206.12ZM1164.27 1643.86V1637.83H1189.61V1658.38H1172.02V1668.18C1180.18 1668.12 1187.08 1667.69 1194.87 1666.38L1195.51 1672.45C1186.77 1674 1178.85 1674.34 1169.1 1674.34H1164.31V1652.5H1181.98V1643.86H1164.27ZM1262.01 1663.17V1669.28H1241.17V1686.75H1233.78V1669.28H1213.24V1663.17H1262.01ZM1218.13 1647.24C1218.11 1639.84 1226.05 1635.14 1237.48 1635.14C1248.94 1635.14 1256.94 1639.84 1256.94 1647.24C1256.94 1654.51 1248.94 1659.13 1237.48 1659.13C1226.05 1659.13 1218.11 1654.51 1218.13 1647.24ZM1225.84 1647.24C1225.8 1651.07 1230.34 1653.22 1237.48 1653.22C1244.69 1653.22 1249.21 1651.07 1249.21 1647.24C1249.21 1643.32 1244.69 1641.13 1237.48 1641.1C1230.34 1641.13 1225.8 1643.32 1225.84 1647.24ZM1308.61 1658.05V1664.04H1270.9V1637.81H1308.23V1643.86H1278.28V1658.05H1308.61ZM1265.16 1680.2V1674.05H1313.93V1680.2H1265.16ZM1331.87 1636.24C1336.12 1636.21 1339.85 1637.79 1342.42 1640.4H1354.5V1633.34H1361.96V1664.62H1354.5V1658.24H1342.31C1339.77 1660.81 1336.08 1662.34 1331.87 1662.32C1323.79 1662.34 1317.64 1656.83 1317.68 1649.29C1317.64 1641.68 1323.79 1636.21 1331.87 1636.24ZM1324.77 1649.29C1324.77 1653.39 1327.71 1656.02 1331.87 1656C1335.91 1656.02 1338.83 1653.39 1338.87 1649.29C1338.83 1645.06 1335.91 1642.6 1331.87 1642.64C1327.71 1642.6 1324.77 1645.06 1324.77 1649.29ZM1325.41 1676.2C1325.39 1669.57 1332.45 1665.68 1343.72 1665.7C1354.99 1665.68 1362.08 1669.57 1362.1 1676.2C1362.08 1682.81 1354.99 1686.71 1343.72 1686.68C1332.45 1686.71 1325.39 1682.81 1325.41 1676.2ZM1332.74 1676.2C1332.7 1679.31 1336.66 1680.88 1343.72 1680.86C1350.93 1680.88 1354.77 1679.31 1354.79 1676.2C1354.77 1673.01 1350.93 1671.42 1343.72 1671.42C1336.66 1671.42 1332.7 1673.01 1332.74 1676.2ZM1345.63 1652.27H1354.5V1646.33H1345.65C1345.86 1647.28 1345.98 1648.25 1345.98 1649.29C1345.98 1650.32 1345.86 1651.32 1345.63 1652.27ZM1411.51 1633.34V1655.05H1418.47V1661.24H1411.51V1686.71H1403.97V1633.34H1411.51ZM1368.23 1671.64C1372.13 1671.64 1376.64 1671.64 1381.37 1671.54V1666.94C1375.71 1665.84 1372.04 1662.22 1372.06 1657.31C1372.04 1651.32 1377.43 1647.26 1385.2 1647.26C1392.82 1647.26 1398.27 1651.32 1398.31 1657.31C1398.27 1662.24 1394.52 1665.88 1388.89 1666.96V1671.25C1393.11 1671.02 1397.34 1670.69 1401.32 1670.13L1401.81 1675.56C1390.44 1677.67 1378.22 1677.73 1369.22 1677.73L1368.23 1671.64ZM1369.27 1645.17V1639.3H1381.37V1633.65H1388.89V1639.3H1400.9V1645.17H1369.27ZM1379.17 1657.31C1379.15 1660.1 1381.55 1661.62 1385.2 1661.62C1388.74 1661.62 1391.12 1660.1 1391.12 1657.31C1391.12 1654.53 1388.74 1652.96 1385.2 1652.96C1381.55 1652.96 1379.15 1654.53 1379.17 1657.31Z" fill="#1773EB"/>
<path d="M1474.14 1636.6C1473.58 1636.6 1473.03 1636.77 1472.56 1637.09C1472.09 1637.4 1471.73 1637.85 1471.52 1638.37C1471.3 1638.89 1471.25 1639.47 1471.37 1640.02C1471.48 1640.57 1471.76 1641.07 1472.16 1641.47L1489.99 1659.3L1472.16 1677.13C1471.89 1677.39 1471.68 1677.7 1471.53 1678.05C1471.38 1678.39 1471.3 1678.77 1471.29 1679.14C1471.29 1679.52 1471.36 1679.89 1471.5 1680.24C1471.65 1680.59 1471.86 1680.91 1472.12 1681.18C1472.39 1681.44 1472.71 1681.65 1473.06 1681.8C1473.4 1681.94 1473.78 1682.01 1474.16 1682.01C1474.53 1682 1474.9 1681.92 1475.25 1681.77C1475.6 1681.62 1475.91 1681.41 1476.17 1681.13L1494 1663.3L1511.83 1681.13C1512.09 1681.41 1512.4 1681.62 1512.75 1681.77C1513.1 1681.92 1513.47 1682 1513.85 1682.01C1514.22 1682.01 1514.6 1681.94 1514.95 1681.8C1515.29 1681.65 1515.61 1681.44 1515.88 1681.18C1516.15 1680.91 1516.36 1680.59 1516.5 1680.24C1516.64 1679.89 1516.71 1679.52 1516.71 1679.14C1516.7 1678.77 1516.63 1678.39 1516.48 1678.05C1516.33 1677.7 1516.11 1677.39 1515.84 1677.13L1498.01 1659.3L1515.84 1641.47C1516.25 1641.07 1516.53 1640.56 1516.64 1640C1516.75 1639.44 1516.69 1638.86 1516.47 1638.33C1516.25 1637.81 1515.87 1637.36 1515.39 1637.05C1514.91 1636.74 1514.35 1636.59 1513.78 1636.6C1513.04 1636.63 1512.34 1636.93 1511.83 1637.46L1494 1655.29L1476.17 1637.46C1475.91 1637.19 1475.59 1636.97 1475.24 1636.83C1474.89 1636.68 1474.52 1636.6 1474.14 1636.6Z" fill="#6B7684"/>
<rect x="1650" y="1585.3" width="592" height="148" rx="74" fill="white"/>
<rect x="1650" y="1585.3" width="592" height="148" rx="74" stroke="#1773EB" stroke-width="4"/>
<path d="M1789.52 1637.98V1643.03C1789.5 1649.7 1789.5 1657.2 1787.38 1668.56L1779.84 1667.77C1781.87 1657.68 1781.98 1650.18 1782.02 1643.92H1750.61V1637.98H1789.52ZM1745.6 1680.16V1674.09H1763V1655.75H1770.42V1674.09H1794.24V1680.16H1745.6ZM1842.39 1633.42V1672.35H1834.93V1653.25H1826.21V1647.22H1834.93V1633.42H1842.39ZM1797.14 1660.35C1805.95 1657.58 1809.94 1650.61 1809.96 1643.8V1642.99H1799.27V1637H1828.2V1642.99H1817.57V1643.84C1817.57 1650.03 1821.36 1656.64 1829.83 1659.4L1826.15 1665.32C1820.24 1663.4 1816.18 1659.5 1813.86 1654.7C1811.5 1660.02 1807.25 1664.31 1800.97 1666.4L1797.14 1660.35ZM1807 1685.77V1668.95H1814.46V1679.74H1843.65V1685.77H1807ZM1894.24 1633.34V1664.62H1886.79V1657.8H1876.86V1661.68H1851.52V1637.27H1876.86V1641.19H1886.79V1633.34H1894.24ZM1857.7 1676.37C1857.68 1669.82 1864.66 1665.99 1876.01 1665.99C1887.41 1665.99 1894.37 1669.82 1894.39 1676.37C1894.37 1682.96 1887.41 1686.71 1876.01 1686.68C1864.66 1686.71 1857.68 1682.96 1857.7 1676.37ZM1858.94 1655.75H1869.53V1643.18H1858.94V1655.75ZM1865.13 1676.37C1865.11 1679.41 1868.95 1680.99 1876.01 1681.01C1883.1 1680.99 1886.95 1679.41 1886.97 1676.37C1886.95 1673.2 1883.1 1671.71 1876.01 1671.68C1868.95 1671.71 1865.11 1673.2 1865.13 1676.37ZM1876.86 1651.75H1886.79V1647.07H1876.86V1651.75ZM1931.47 1636.48V1642.45H1920.82C1920.84 1648.71 1924.61 1655.09 1933.23 1657.89L1929.44 1663.65C1923.54 1661.74 1919.48 1657.93 1917.14 1653.18C1914.75 1658.38 1910.51 1662.53 1904.31 1664.56L1900.35 1658.8C1909.16 1655.94 1913.16 1649.12 1913.28 1642.45H1902.38V1636.48H1931.47ZM1907.56 1673.78V1667.81H1943.47V1686.71H1935.97V1673.78H1907.56ZM1935.97 1665.53V1633.34H1943.47V1646.3H1950.64V1652.52H1943.47V1665.53H1935.97ZM2001.75 1658.53V1664.45H1953.02V1658.53H1973.74V1653.97H1958.9V1635.72H1995.9V1641.54H1966.36V1648.11H1996.17V1653.97H1981.07V1658.53H2001.75ZM1958.57 1676.97C1958.57 1670.63 1965.59 1667.11 1977.24 1667.11C1988.82 1667.11 1995.78 1670.63 1995.82 1676.97C1995.78 1683.2 1988.82 1686.75 1977.24 1686.77C1965.59 1686.75 1958.57 1683.2 1958.57 1676.97ZM1966.19 1676.97C1966.15 1679.74 1969.86 1681.07 1977.24 1681.05C1984.49 1681.07 1988.3 1679.74 1988.32 1676.97C1988.3 1674.21 1984.49 1672.8 1977.24 1672.8C1969.86 1672.8 1966.15 1674.21 1966.19 1676.97ZM2047.51 1633.34V1655.05H2054.47V1661.24H2047.51V1686.71H2039.97V1633.34H2047.51ZM2004.23 1671.64C2008.13 1671.64 2012.64 1671.64 2017.37 1671.54V1666.94C2011.71 1665.84 2008.04 1662.22 2008.06 1657.31C2008.04 1651.32 2013.43 1647.26 2021.2 1647.26C2028.82 1647.26 2034.27 1651.32 2034.31 1657.31C2034.27 1662.24 2030.52 1665.88 2024.89 1666.96V1671.25C2029.11 1671.02 2033.34 1670.69 2037.32 1670.13L2037.81 1675.56C2026.44 1677.67 2014.22 1677.73 2005.22 1677.73L2004.23 1671.64ZM2005.27 1645.17V1639.3H2017.37V1633.65H2024.89V1639.3H2036.9V1645.17H2005.27ZM2015.17 1657.31C2015.15 1660.1 2017.55 1661.62 2021.2 1661.62C2024.74 1661.62 2027.12 1660.1 2027.12 1657.31C2027.12 1654.53 2024.74 1652.96 2021.2 1652.96C2017.55 1652.96 2015.15 1654.53 2015.17 1657.31Z" fill="#1773EB"/>
<path d="M2110.14 1636.6C2109.58 1636.6 2109.03 1636.77 2108.56 1637.09C2108.09 1637.4 2107.73 1637.85 2107.52 1638.37C2107.3 1638.89 2107.25 1639.47 2107.37 1640.02C2107.48 1640.57 2107.76 1641.07 2108.16 1641.47L2125.99 1659.3L2108.16 1677.13C2107.89 1677.39 2107.68 1677.7 2107.53 1678.05C2107.38 1678.39 2107.3 1678.77 2107.29 1679.14C2107.29 1679.52 2107.36 1679.89 2107.5 1680.24C2107.65 1680.59 2107.86 1680.91 2108.12 1681.18C2108.39 1681.44 2108.71 1681.65 2109.06 1681.8C2109.4 1681.94 2109.78 1682.01 2110.16 1682.01C2110.53 1682 2110.9 1681.92 2111.25 1681.77C2111.6 1681.62 2111.91 1681.41 2112.17 1681.13L2130 1663.3L2147.83 1681.13C2148.09 1681.41 2148.4 1681.62 2148.75 1681.77C2149.1 1681.92 2149.47 1682 2149.85 1682.01C2150.22 1682.01 2150.6 1681.94 2150.95 1681.8C2151.29 1681.65 2151.61 1681.44 2151.88 1681.18C2152.15 1680.91 2152.36 1680.59 2152.5 1680.24C2152.64 1679.89 2152.71 1679.52 2152.71 1679.14C2152.7 1678.77 2152.63 1678.39 2152.48 1678.05C2152.33 1677.7 2152.11 1677.39 2151.84 1677.13L2134.01 1659.3L2151.84 1641.47C2152.25 1641.07 2152.53 1640.56 2152.64 1640C2152.75 1639.44 2152.69 1638.86 2152.47 1638.33C2152.25 1637.81 2151.87 1637.36 2151.39 1637.05C2150.91 1636.74 2150.35 1636.59 2149.78 1636.6C2149.04 1636.63 2148.34 1636.93 2147.83 1637.46L2130 1655.29L2112.17 1637.46C2111.91 1637.19 2111.59 1636.97 2111.24 1636.83C2110.89 1636.68 2110.52 1636.6 2110.14 1636.6Z" fill="#6B7684"/>
<rect x="2286" y="1585.3" width="540" height="148" rx="74" fill="white"/>
<rect x="2286" y="1585.3" width="540" height="148" rx="74" stroke="#1773EB" stroke-width="4"/>
<path d="M2430.24 1657.6V1663.58H2409.56V1667.54C2418.85 1668.22 2424.36 1671.56 2424.4 1677.05C2424.36 1683.25 2417.35 1686.71 2405.81 1686.68C2394.15 1686.71 2387.15 1683.25 2387.15 1677.05C2387.15 1671.54 2392.7 1668.2 2402.17 1667.54V1663.58H2381.6V1657.6H2430.24ZM2383.73 1649.7C2393.59 1648.85 2399.06 1645.23 2400.43 1641.54H2386.01V1635.63H2425.85V1641.54H2411.31C2412.63 1645.27 2418.06 1648.85 2428.17 1649.7L2425.56 1655.57C2415.47 1654.61 2408.69 1650.82 2405.84 1645.62C2403.02 1650.8 2396.33 1654.61 2386.24 1655.57L2383.73 1649.7ZM2394.77 1677.05C2394.73 1679.66 2398.44 1681.07 2405.81 1681.05C2413.07 1681.07 2416.88 1679.66 2416.9 1677.05C2416.88 1674.4 2413.07 1673.09 2405.81 1673.05C2398.44 1673.09 2394.73 1674.4 2394.77 1677.05ZM2475.76 1633.38V1647.92H2482.97V1654.07H2475.76V1671.93H2468.26V1633.38H2475.76ZM2435.52 1663.13V1637.64H2459.56V1643.61H2442.96V1657.1C2452.64 1657.06 2457.94 1656.73 2463.89 1655.46L2464.67 1661.45C2457.96 1662.82 2451.81 1663.13 2439.98 1663.13H2435.52ZM2441.16 1685.77V1667.81H2448.62V1679.74H2477.66V1685.77H2441.16ZM2530.24 1633.34V1672.64H2522.79V1659.48H2516.01V1653.35H2522.79V1648.75H2516.01V1642.74H2522.79V1633.34H2530.24ZM2485.29 1660.06C2487.05 1660.06 2488.95 1660.06 2490.94 1660.04V1643.16H2486.65V1637.15H2515.04V1643.16H2510.67V1659.36C2512.45 1659.23 2514.19 1659.07 2515.87 1658.88L2516.16 1664.33C2506.19 1665.95 2494.51 1666.17 2486.07 1666.19L2485.29 1660.06ZM2494.77 1685.77V1669.7H2502.32V1679.74H2531.51V1685.77H2494.77ZM2498.19 1659.92C2499.95 1659.88 2501.74 1659.83 2503.52 1659.75V1643.16H2498.19V1659.92ZM2585.93 1674.34V1680.32H2537.16V1674.34H2557.57V1662.28H2564.99V1674.34H2585.93ZM2538.3 1657.74C2550.4 1655.88 2557.2 1647.75 2557.24 1640.21V1636.42H2565.21V1640.21C2565.19 1647.84 2572.05 1655.88 2584.27 1657.74L2581.08 1663.98C2571.7 1662.26 2564.74 1657.24 2561.24 1650.59C2557.71 1657.22 2550.79 1662.3 2541.49 1663.98L2538.3 1657.74ZM2633.96 1633.34V1660.52H2626.5V1647.24H2616.49V1641.31H2626.5V1633.34H2633.96ZM2588.58 1654.99C2597.45 1652.4 2601.39 1645.87 2601.41 1638.97V1635.12H2608.99V1638.97C2608.95 1645.37 2612.66 1651.53 2621.17 1654.03L2617.24 1659.79C2611.54 1657.97 2607.56 1654.41 2605.24 1649.83C2602.92 1654.94 2598.69 1658.94 2592.48 1660.91L2588.58 1654.99ZM2598.49 1668.47V1662.69H2633.96V1676.99H2605.92V1680.22H2635.49V1686.1H2598.57V1671.52H2626.54V1668.47H2598.49Z" fill="#1773EB"/>
<path d="M2694.14 1636.6C2693.58 1636.6 2693.03 1636.77 2692.56 1637.09C2692.09 1637.4 2691.73 1637.85 2691.52 1638.37C2691.3 1638.89 2691.25 1639.47 2691.37 1640.02C2691.48 1640.57 2691.76 1641.07 2692.16 1641.47L2709.99 1659.3L2692.16 1677.13C2691.89 1677.39 2691.68 1677.7 2691.53 1678.05C2691.38 1678.39 2691.3 1678.77 2691.29 1679.14C2691.29 1679.52 2691.36 1679.89 2691.5 1680.24C2691.65 1680.59 2691.86 1680.91 2692.12 1681.18C2692.39 1681.44 2692.71 1681.65 2693.06 1681.8C2693.4 1681.94 2693.78 1682.01 2694.16 1682.01C2694.53 1682 2694.9 1681.92 2695.25 1681.77C2695.6 1681.62 2695.91 1681.41 2696.17 1681.13L2714 1663.3L2731.83 1681.13C2732.09 1681.41 2732.4 1681.62 2732.75 1681.77C2733.1 1681.92 2733.47 1682 2733.85 1682.01C2734.22 1682.01 2734.6 1681.94 2734.95 1681.8C2735.29 1681.65 2735.61 1681.44 2735.88 1681.18C2736.15 1680.91 2736.36 1680.59 2736.5 1680.24C2736.64 1679.89 2736.71 1679.52 2736.71 1679.14C2736.7 1678.77 2736.63 1678.39 2736.48 1678.05C2736.33 1677.7 2736.11 1677.39 2735.84 1677.13L2718.01 1659.3L2735.84 1641.47C2736.25 1641.07 2736.53 1640.56 2736.64 1640C2736.75 1639.44 2736.69 1638.86 2736.47 1638.33C2736.25 1637.81 2735.87 1637.36 2735.39 1637.05C2734.91 1636.74 2734.35 1636.59 2733.78 1636.6C2733.04 1636.63 2732.34 1636.93 2731.83 1637.46L2714 1655.29L2696.17 1637.46C2695.91 1637.19 2695.59 1636.97 2695.24 1636.83C2694.89 1636.68 2694.52 1636.6 2694.14 1636.6Z" fill="#6B7684"/>
<rect x="855" y="1785.3" width="660" height="174" rx="87" fill="white"/>
<path d="M955.594 1854.66C955.552 1861.98 960.318 1868.54 968.273 1871.13L965.249 1875.49C959.468 1873.39 955.221 1869.35 952.942 1864.09C950.663 1870.1 946.084 1874.78 939.724 1877.08L936.74 1872.61C945.131 1869.75 950 1862.76 950.041 1854.89V1849.69H955.594V1854.66ZM945.38 1889.26C945.338 1882.9 952.093 1879.21 963.115 1879.21C974.116 1879.21 980.849 1882.9 980.87 1889.26C980.849 1895.6 974.116 1899.19 963.115 1899.19C952.093 1899.19 945.338 1895.6 945.38 1889.26ZM950.891 1889.26C950.849 1892.76 955.428 1894.79 963.115 1894.79C970.78 1894.79 975.338 1892.76 975.359 1889.26C975.338 1885.64 970.78 1883.59 963.115 1883.59C955.428 1883.59 950.849 1885.64 950.891 1889.26ZM964.088 1862.04V1857.46H975.152V1846.77H980.704V1877.76H975.152V1862.04H964.088ZM1032.52 1846.77V1874.08H1027.01V1867.84H1015.53V1872.15H991.289V1849.15H996.862V1856.24H1010.02V1849.15H1015.53V1854H1027.01V1846.77H1032.52ZM996.862 1867.72H1010.02V1860.55H996.862V1867.72ZM998.188 1880.79V1876.42H1032.52V1889.35H1003.82V1894.15H1034.38V1898.61H998.292V1885.16H1027.01V1880.79H998.188ZM1015.53 1863.53H1027.01V1858.27H1015.53V1863.53ZM1073.83 1856.36C1073.83 1863.51 1078.57 1870.37 1086.49 1873.14L1083.42 1877.5C1077.7 1875.28 1073.41 1870.97 1071.16 1865.54C1068.9 1871.59 1064.38 1876.36 1058.21 1878.74L1055.24 1874.28C1063.41 1871.4 1068.28 1864.11 1068.3 1856.24V1849.98H1073.83V1856.36ZM1064.78 1898.19V1881.62H1070.39V1893.63H1100.24V1898.19H1064.78ZM1082.45 1863.37V1858.77H1093.51V1846.81H1099.06V1885.97H1093.51V1863.37H1082.45ZM1129.83 1850.5V1855.04H1114.66V1860.88H1129.27V1865.19H1114.66V1871.57C1121.67 1871.51 1126.29 1871.26 1131.67 1870.22L1132.25 1874.76C1126.08 1875.94 1121.06 1876.17 1112.71 1876.17H1109.32V1850.5H1129.83ZM1116.22 1885.74V1881.25H1151.89V1899.27H1146.4V1885.74H1116.22ZM1135.01 1878.32V1847.79H1140.21V1860.22H1146.63V1846.81H1151.89V1878.7H1146.63V1864.73H1140.21V1878.32H1135.01Z" fill="#6B7684"/>
<path d="M1234.23 1849.41C1236.61 1849.41 1238.76 1850.05 1240.68 1851.32C1242.59 1852.58 1244.14 1854.39 1245.33 1856.74H1257.73V1845.54H1264.17V1898.57H1257.73V1878.53H1245.8C1244.65 1881.19 1243.07 1883.24 1241.06 1884.68C1239.04 1886.13 1236.77 1886.85 1234.23 1886.85C1231.57 1886.85 1229.21 1886.09 1227.14 1884.57C1225.09 1883.02 1223.49 1880.84 1222.34 1878C1221.2 1875.17 1220.64 1871.87 1220.64 1868.1C1220.64 1864.35 1221.2 1861.07 1222.34 1858.26C1223.49 1855.43 1225.1 1853.25 1227.17 1851.73C1229.24 1850.18 1231.59 1849.41 1234.23 1849.41ZM1226.91 1868.1C1226.91 1870.78 1227.21 1873.08 1227.81 1875.02C1228.42 1876.95 1229.27 1878.42 1230.36 1879.44C1231.48 1880.46 1232.77 1880.97 1234.23 1880.99C1235.7 1880.97 1236.98 1880.46 1238.1 1879.44C1239.21 1878.42 1240.07 1876.95 1240.68 1875.02C1241.3 1873.08 1241.61 1870.78 1241.61 1868.1C1241.61 1865.45 1241.3 1863.15 1240.68 1861.22C1240.07 1859.28 1239.21 1857.81 1238.1 1856.79C1236.98 1855.78 1235.7 1855.27 1234.23 1855.27C1232.77 1855.27 1231.48 1855.79 1230.36 1856.82C1229.27 1857.84 1228.42 1859.31 1227.81 1861.25C1227.21 1863.16 1226.91 1865.45 1226.91 1868.1ZM1247.18 1862.07C1247.57 1863.96 1247.77 1865.97 1247.77 1868.1C1247.77 1869.92 1247.62 1871.64 1247.33 1873.26H1257.73V1862.07H1247.18ZM1291.01 1853.16C1290.99 1855.6 1291.45 1857.92 1292.38 1860.1C1293.34 1862.27 1294.76 1864.19 1296.63 1865.85C1298.51 1867.49 1300.79 1868.73 1303.49 1869.57L1299.97 1874.66C1297.14 1873.65 1294.71 1872.21 1292.68 1870.36C1290.65 1868.5 1289.05 1866.3 1287.9 1863.74C1286.71 1866.69 1285 1869.24 1282.78 1871.41C1280.55 1873.56 1277.86 1875.19 1274.72 1876.31L1271.26 1871.03C1274.11 1870.09 1276.53 1868.74 1278.5 1866.96C1280.47 1865.18 1281.95 1863.14 1282.92 1860.84C1283.92 1858.51 1284.43 1856.05 1284.45 1853.45V1848.41H1291.01V1853.16ZM1280.05 1888.32C1280.03 1886.19 1280.74 1884.36 1282.19 1882.84C1283.63 1881.3 1285.71 1880.12 1288.4 1879.32C1291.12 1878.52 1294.33 1878.12 1298.04 1878.12C1301.77 1878.12 1304.99 1878.52 1307.71 1879.32C1310.42 1880.12 1312.5 1881.3 1313.95 1882.84C1315.41 1884.36 1316.14 1886.19 1316.14 1888.32C1316.14 1890.45 1315.41 1892.27 1313.95 1893.8C1312.5 1895.32 1310.42 1896.47 1307.71 1897.25C1304.99 1898.05 1301.77 1898.45 1298.04 1898.45C1294.33 1898.45 1291.12 1898.05 1288.4 1897.25C1285.71 1896.47 1283.63 1895.32 1282.19 1893.8C1280.74 1892.27 1280.03 1890.45 1280.05 1888.32ZM1286.5 1888.32C1286.48 1889.92 1287.47 1891.16 1289.48 1892.04C1291.5 1892.9 1294.35 1893.34 1298.04 1893.36C1301.75 1893.34 1304.61 1892.9 1306.62 1892.04C1308.63 1891.16 1309.64 1889.92 1309.64 1888.32C1309.64 1886.66 1308.63 1885.39 1306.62 1884.51C1304.63 1883.63 1301.77 1883.18 1298.04 1883.16C1294.33 1883.18 1291.47 1883.63 1289.46 1884.51C1287.46 1885.39 1286.48 1886.66 1286.5 1888.32ZM1298.92 1855.8H1309.46V1845.54H1315.97V1876.72H1309.46V1861.13H1298.92V1855.8Z" fill="#191F28"/>
<path d="M1392.86 1859.41L1409.52 1876.08L1426.19 1859.41C1427.86 1857.74 1430.57 1857.74 1432.24 1859.41C1433.92 1861.09 1433.92 1863.79 1432.24 1865.47L1412.53 1885.18C1410.85 1886.86 1408.15 1886.86 1406.47 1885.18L1386.76 1865.47C1385.08 1863.79 1385.08 1861.09 1386.76 1859.41C1388.43 1857.78 1391.18 1857.74 1392.86 1859.41Z" fill="#8B95A1"/>
<rect x="1555" y="1785.3" width="798" height="174" rx="87" fill="white"/>
<path d="M1685.99 1867.38V1871.98H1677.85V1899.21H1672.27V1846.77H1677.85V1867.38H1685.99ZM1638.94 1886.05V1851.89H1644.47V1881.43C1651.8 1881.37 1659.43 1880.75 1667.73 1879.05L1668.38 1883.75C1659.41 1885.53 1651.14 1886.05 1643.25 1886.05H1638.94ZM1732.29 1846.77V1899.37H1726.7V1846.77H1732.29ZM1690.61 1869.13C1690.61 1857.88 1696.26 1850.73 1704.18 1850.71C1712.01 1850.73 1717.73 1857.88 1717.73 1869.13C1717.73 1880.44 1712.01 1887.59 1704.18 1887.59C1696.26 1887.59 1690.61 1880.44 1690.61 1869.13ZM1695.97 1869.13C1695.97 1877.45 1699.33 1882.59 1704.18 1882.59C1709.02 1882.59 1712.34 1877.45 1712.34 1869.13C1712.34 1860.86 1709.02 1855.72 1704.18 1855.68C1699.33 1855.72 1695.97 1860.86 1695.97 1869.13ZM1773.83 1856.36C1773.83 1863.51 1778.57 1870.37 1786.49 1873.14L1783.42 1877.5C1777.7 1875.28 1773.41 1870.97 1771.16 1865.54C1768.9 1871.59 1764.38 1876.36 1758.21 1878.74L1755.24 1874.28C1763.41 1871.4 1768.28 1864.11 1768.3 1856.24V1849.98H1773.83V1856.36ZM1764.78 1898.19V1881.62H1770.39V1893.63H1800.24V1898.19H1764.78ZM1782.45 1863.37V1858.77H1793.51V1846.81H1799.06V1885.97H1793.51V1863.37H1782.45ZM1829.83 1850.5V1855.04H1814.66V1860.88H1829.27V1865.19H1814.66V1871.57C1821.67 1871.51 1826.29 1871.26 1831.67 1870.22L1832.25 1874.76C1826.08 1875.94 1821.06 1876.17 1812.71 1876.17H1809.32V1850.5H1829.83ZM1816.22 1885.74V1881.25H1851.89V1899.27H1846.4V1885.74H1816.22ZM1835.01 1878.32V1847.79H1840.21V1860.22H1846.63V1846.81H1851.89V1878.7H1846.63V1864.73H1840.21V1878.32H1835.01Z" fill="#6B7684"/>
<path d="M1936.93 1893.88C1933.94 1893.88 1931.26 1893.38 1928.9 1892.36C1926.54 1891.34 1924.68 1889.92 1923.33 1888.08C1921.98 1886.25 1921.28 1884.16 1921.22 1881.81H1928.9C1928.96 1882.93 1929.35 1883.91 1930.07 1884.77C1930.79 1885.63 1931.75 1886.3 1932.94 1886.76C1934.13 1887.21 1935.46 1887.44 1936.93 1887.44C1938.47 1887.44 1939.85 1887.17 1941.06 1886.65C1942.29 1886.12 1943.24 1885.38 1943.93 1884.42C1944.61 1883.46 1944.95 1882.36 1944.95 1881.11C1944.95 1879.84 1944.6 1878.72 1943.9 1877.74C1943.2 1876.74 1942.18 1875.96 1940.85 1875.4C1939.52 1874.83 1937.96 1874.55 1936.16 1874.55H1932.36V1868.69H1936.16C1937.65 1868.69 1938.97 1868.43 1940.12 1867.93C1941.29 1867.4 1942.19 1866.67 1942.81 1865.73C1943.46 1864.77 1943.78 1863.69 1943.78 1862.48C1943.78 1861.31 1943.5 1860.27 1942.93 1859.37C1942.38 1858.45 1941.59 1857.75 1940.56 1857.26C1939.54 1856.75 1938.35 1856.5 1936.98 1856.5C1935.66 1856.5 1934.42 1856.74 1933.26 1857.23C1932.13 1857.7 1931.21 1858.38 1930.51 1859.25C1929.83 1860.13 1929.46 1861.15 1929.43 1862.3H1922.1C1922.16 1859.98 1922.85 1857.91 1924.18 1856.09C1925.51 1854.25 1927.3 1852.83 1929.54 1851.81C1931.79 1850.8 1934.29 1850.29 1937.04 1850.29C1939.84 1850.29 1942.31 1850.82 1944.46 1851.87C1946.6 1852.91 1948.26 1854.32 1949.44 1856.12C1950.61 1857.92 1951.18 1859.9 1951.16 1862.07C1951.18 1863.63 1950.87 1865.05 1950.23 1866.32C1949.58 1867.57 1948.67 1868.61 1947.5 1869.45C1946.33 1870.29 1944.97 1870.88 1943.43 1871.21V1871.56C1945.4 1871.81 1947.09 1872.39 1948.5 1873.29C1949.9 1874.19 1950.97 1875.34 1951.69 1876.74C1952.41 1878.15 1952.77 1879.74 1952.75 1881.52C1952.77 1883.88 1952.09 1886 1950.72 1887.88C1949.38 1889.75 1947.49 1891.23 1945.07 1892.3C1942.67 1893.36 1939.95 1893.88 1936.93 1893.88ZM1975.07 1893.88C1971.67 1893.88 1968.75 1893.03 1966.31 1891.33C1963.87 1889.62 1962 1887.13 1960.71 1883.86C1959.43 1880.6 1958.78 1876.68 1958.78 1872.09C1958.78 1867.52 1959.43 1863.6 1960.71 1860.34C1962.02 1857.06 1963.9 1854.57 1966.34 1852.87C1968.78 1851.15 1971.69 1850.29 1975.07 1850.29C1978.45 1850.29 1981.36 1851.15 1983.8 1852.87C1986.24 1854.57 1988.11 1857.06 1989.4 1860.34C1990.71 1863.6 1991.36 1867.52 1991.36 1872.09C1991.36 1876.68 1990.71 1880.61 1989.4 1883.89C1988.11 1887.16 1986.24 1889.64 1983.8 1891.33C1981.38 1893.03 1978.47 1893.88 1975.07 1893.88ZM1966.46 1872.09C1966.46 1877.11 1967.21 1880.92 1968.71 1883.54C1970.24 1886.16 1972.36 1887.48 1975.07 1887.5C1976.85 1887.48 1978.38 1886.89 1979.67 1885.74C1980.96 1884.59 1981.95 1882.86 1982.63 1880.55C1983.33 1878.25 1983.68 1875.43 1983.68 1872.09C1983.68 1868.77 1983.33 1865.95 1982.63 1863.65C1981.95 1861.33 1980.96 1859.58 1979.67 1858.41C1978.38 1857.23 1976.85 1856.64 1975.07 1856.62C1973.29 1856.64 1971.76 1857.23 1970.47 1858.41C1969.18 1859.58 1968.19 1861.33 1967.48 1863.65C1966.8 1865.95 1966.46 1868.77 1966.46 1872.09ZM2041.57 1898.51H2035.36V1871.5H2029.39V1895.82H2023.41V1846.54H2029.39V1866.29H2035.36V1845.54H2041.57V1898.51ZM1997.63 1851.81H2017.43V1857.09H2004.19V1880.64C2007.26 1880.6 2010.03 1880.49 2012.51 1880.29C2014.99 1880.09 2017.51 1879.76 2020.07 1879.29L2020.54 1884.63C2017.59 1885.21 2014.69 1885.6 2011.84 1885.8C2009.01 1885.99 2005.46 1886.11 2001.2 1886.15H1997.63V1851.81ZM2106.14 1898.57H2099.58V1845.54H2106.14V1898.57ZM2063.78 1868.1C2063.78 1864.37 2064.37 1861.09 2065.54 1858.26C2066.71 1855.43 2068.34 1853.25 2070.43 1851.73C2072.54 1850.18 2074.93 1849.41 2077.61 1849.41C2080.25 1849.41 2082.61 1850.18 2084.7 1851.73C2086.81 1853.25 2088.46 1855.43 2089.65 1858.26C2090.84 1861.09 2091.44 1864.37 2091.44 1868.1C2091.44 1871.87 2090.84 1875.17 2089.65 1878C2088.46 1880.84 2086.81 1883.02 2084.7 1884.57C2082.61 1886.09 2080.25 1886.85 2077.61 1886.85C2074.93 1886.85 2072.54 1886.09 2070.43 1884.57C2068.34 1883.02 2066.71 1880.84 2065.54 1878C2064.37 1875.17 2063.78 1871.87 2063.78 1868.1ZM2070.05 1868.1C2070.05 1870.78 2070.36 1873.08 2070.99 1875.02C2071.63 1876.95 2072.52 1878.42 2073.65 1879.44C2074.79 1880.46 2076.11 1880.97 2077.61 1880.99C2079.09 1880.97 2080.4 1880.46 2081.54 1879.44C2082.67 1878.42 2083.55 1876.95 2084.17 1875.02C2084.8 1873.08 2085.11 1870.78 2085.11 1868.1C2085.11 1865.45 2084.8 1863.16 2084.17 1861.25C2083.55 1859.31 2082.67 1857.84 2081.54 1856.82C2080.4 1855.79 2079.09 1855.27 2077.61 1855.27C2076.11 1855.27 2074.79 1855.79 2073.65 1856.82C2072.52 1857.84 2071.63 1859.31 2070.99 1861.25C2070.36 1863.16 2070.05 1865.45 2070.05 1868.1ZM2132.69 1853.98C2132.69 1856.23 2133.17 1858.38 2134.12 1860.43C2135.08 1862.48 2136.5 1864.29 2138.37 1865.88C2140.25 1867.46 2142.51 1868.67 2145.17 1869.51L2141.65 1874.61C2138.84 1873.65 2136.41 1872.25 2134.36 1870.42C2132.33 1868.58 2130.71 1866.4 2129.52 1863.88C2128.35 1866.75 2126.69 1869.24 2124.54 1871.35C2122.41 1873.44 2119.86 1875.02 2116.87 1876.07L2113.35 1870.97C2116.12 1870.02 2118.47 1868.65 2120.38 1866.87C2122.3 1865.08 2123.73 1863.02 2124.69 1860.72C2125.67 1858.4 2126.16 1855.95 2126.18 1853.4V1848.36H2132.69V1853.98ZM2120.56 1888.38C2120.56 1886.31 2121.28 1884.52 2122.73 1883.01C2124.17 1881.51 2126.24 1880.37 2128.94 1879.59C2131.63 1878.81 2134.82 1878.41 2138.49 1878.41C2142.12 1878.41 2145.27 1878.81 2147.92 1879.59C2150.6 1880.37 2152.65 1881.51 2154.07 1883.01C2155.52 1884.52 2156.24 1886.31 2156.24 1888.38C2156.24 1890.49 2155.52 1892.29 2154.07 1893.8C2152.65 1895.32 2150.61 1896.47 2147.95 1897.25C2145.29 1898.05 2142.14 1898.45 2138.49 1898.45C2134.82 1898.45 2131.63 1898.05 2128.94 1897.25C2126.24 1896.47 2124.17 1895.32 2122.73 1893.8C2121.28 1892.29 2120.56 1890.49 2120.56 1888.38ZM2127.06 1888.38C2127.06 1890 2128.05 1891.23 2130.02 1892.07C2131.99 1892.89 2134.82 1893.3 2138.49 1893.3C2142.14 1893.3 2144.93 1892.89 2146.87 1892.07C2148.82 1891.23 2149.8 1890 2149.8 1888.38C2149.8 1886.81 2148.81 1885.61 2146.84 1884.77C2144.88 1883.93 2142.1 1883.51 2138.49 1883.51C2134.86 1883.51 2132.04 1883.94 2130.05 1884.8C2128.06 1885.64 2127.06 1886.83 2127.06 1888.38ZM2149.21 1845.54H2155.71V1858.43H2163.1V1863.83H2155.71V1877.24H2149.21V1845.54Z" fill="#191F28"/>
<path d="M2236.36 1859.41L2253.02 1876.08L2269.69 1859.41C2271.36 1857.74 2274.07 1857.74 2275.74 1859.41C2277.42 1861.09 2277.42 1863.79 2275.74 1865.47L2256.03 1885.18C2254.35 1886.86 2251.65 1886.86 2249.97 1885.18L2230.26 1865.47C2228.58 1863.79 2228.58 1861.09 2230.26 1859.41C2231.93 1857.78 2234.68 1857.74 2236.36 1859.41Z" fill="#8B95A1"/>
<rect x="2393" y="1785.3" width="592" height="174" rx="87" fill="#191F28"/>
<path d="M2578.2 1869.63V1874.78H2562.5V1886.91H2583.59V1892.24H2535.19V1886.91H2556.05V1874.78H2541.05V1849.47H2577.79V1854.68H2547.55V1869.63H2578.2ZM2606.62 1858.26C2606.59 1868.1 2611.3 1877.77 2619.74 1881.46L2615.82 1886.68C2609.84 1883.75 2605.62 1878.12 2603.37 1871.18C2601.05 1878.5 2596.71 1884.6 2590.62 1887.67L2586.52 1882.4C2595.16 1878.36 2599.97 1868.16 2600 1858.26V1849.82H2606.62V1858.26ZM2613.88 1867.93V1862.65H2625.02V1845.54H2631.46V1898.57H2625.02V1867.93H2613.88ZM2687.18 1877.36V1882.69H2666.21V1898.57H2659.76V1882.69H2638.9V1877.36H2687.18ZM2641.54 1868.98C2652.12 1867.69 2659.06 1862.27 2659.7 1856.97H2643.36V1851.81H2659.76V1845.6H2666.21V1851.81H2682.67V1856.97H2666.32C2666.94 1862.21 2673.85 1867.69 2684.43 1868.98L2682.03 1874.14C2673.27 1873.02 2666.47 1869.19 2663.04 1864.09C2659.59 1869.24 2652.7 1873.02 2643.88 1874.14L2641.54 1868.98ZM2709.8 1858.08C2709.77 1864.38 2714.2 1870.5 2722.57 1873.08L2719.41 1878.18C2713.4 1876.39 2709.04 1872.56 2706.64 1867.69C2704.29 1872.94 2699.93 1877.07 2693.75 1879.06L2690.58 1873.96C2698.93 1871.35 2703.3 1864.88 2703.3 1858.08V1857.26H2692.22V1852.11H2703.3V1845.9H2709.86V1852.11H2720.88V1857.26H2709.8V1858.08ZM2700.37 1897.46V1881.52H2706.87V1892.18H2736.46V1897.46H2700.37ZM2719.12 1866.58V1861.36H2728.61V1845.6H2735.11V1884.92H2728.61V1866.58H2719.12ZM2784.39 1845.54V1857.85H2791.77V1863.24H2784.39V1876.42H2777.89V1845.54H2784.39ZM2744.43 1873.61V1848.65H2750.88V1855.86H2763.24V1848.65H2769.68V1873.61H2744.43ZM2750.23 1897.75V1879H2784.74V1884.22H2756.73V1892.59H2785.74V1897.75H2750.23ZM2750.88 1868.45H2763.24V1860.9H2750.88V1868.45ZM2838.71 1845.54V1898.51H2832.14V1845.54H2838.71ZM2794.82 1883.92C2808.71 1877.33 2815.09 1868.37 2816.27 1856.33H2797.52V1851.17H2822.89C2822.89 1866.93 2816.76 1880.32 2798.22 1889.14L2794.82 1883.92Z" fill="white"/>
<g clip-path="url(#clip1_2843_14284)">
<circle cx="1916" cy="1209" r="170" fill="#1773EB"/>
<circle cx="2998.34" cy="1226.34" r="152.338" fill="#7E6AA7"/>
<circle cx="800.616" cy="1046.62" r="187.616" fill="#F3666C"/>
<path d="M767.535 1020.3V1036.95H774.918V1042.34H767.535V1059.86H761.031V1020.3H767.535ZM725.816 1031.38V1026.16H738.297V1020.25H744.801V1026.16H757.223V1031.38H725.816ZM728.512 1043.68C728.512 1037.59 733.814 1033.55 741.52 1033.55C749.166 1033.55 754.439 1037.59 754.469 1043.68C754.439 1049.75 749.166 1053.7 741.52 1053.7C733.814 1053.7 728.512 1049.75 728.512 1043.68ZM733.609 1072.16V1056.75H740.113V1066.89H769.645V1072.16H733.609ZM734.84 1043.68C734.811 1046.88 737.506 1048.69 741.52 1048.66C745.533 1048.69 748.258 1046.88 748.258 1043.68C748.258 1040.46 745.533 1038.59 741.52 1038.59C737.506 1038.59 734.811 1040.46 734.84 1043.68ZM818.894 1022.65V1026.69C818.923 1030.62 818.923 1035.19 817.751 1041.11H824.812V1046.38H803.777V1054.64H819.011V1073.21H812.507V1059.86H781.335V1054.64H797.273V1046.38H776.413V1041.11H811.218C812.273 1035.66 812.39 1031.53 812.39 1027.86H782.39V1022.65H818.894ZM845.995 1032.96C845.936 1042.42 850.682 1051.97 858.885 1055.93L854.901 1061.14C849.159 1058.24 845.028 1052.65 842.772 1045.91C840.457 1053.12 836.121 1059.09 830.057 1062.14L826.073 1056.93C834.598 1052.88 839.461 1042.75 839.491 1032.96V1024.52H845.995V1032.96ZM862.049 1073.21V1020.25H868.553V1040.99H876.698V1046.55H868.553V1073.21H862.049Z" fill="white"/>
<circle cx="1073.5" cy="1251.5" r="127.5" fill="#2BA675"/>
<path d="M1035.07 1232.96C1039.21 1232.96 1042.63 1235.28 1044.69 1239.31H1055.43V1229.61H1061.02V1275.57H1055.43V1258.2H1045.1C1043.09 1262.77 1039.48 1265.41 1035.07 1265.41C1028.16 1265.41 1023.26 1259.14 1023.29 1249.16C1023.26 1239.26 1028.16 1232.96 1035.07 1232.96ZM1028.72 1249.16C1028.69 1256.22 1031.28 1260.31 1035.07 1260.34C1038.88 1260.31 1041.44 1256.22 1041.46 1249.16C1041.44 1242.16 1038.88 1238.04 1035.07 1238.04C1031.28 1238.04 1028.69 1242.16 1028.72 1249.16ZM1046.29 1243.93C1046.62 1245.53 1046.8 1247.29 1046.8 1249.16C1046.8 1250.74 1046.67 1252.24 1046.42 1253.63H1055.43V1243.93H1046.29ZM1105.68 1229.61V1258.46H1100.3V1245.96H1095.83V1256.93H1090.55V1230.53H1095.83V1241.39H1100.3V1229.61H1105.68ZM1066.17 1239.01V1234.59H1074.85V1230.02H1080.44V1234.59H1089.02V1239.01H1066.17ZM1067.8 1248.81C1067.75 1244.04 1071.91 1240.86 1077.65 1240.89C1083.49 1240.86 1087.6 1244.04 1087.65 1248.81C1087.6 1253.58 1083.49 1256.73 1077.65 1256.73C1071.91 1256.73 1067.75 1253.58 1067.8 1248.81ZM1072.82 1248.81C1072.82 1251.17 1074.78 1252.67 1077.65 1252.67C1080.54 1252.67 1082.52 1251.17 1082.52 1248.81C1082.52 1246.45 1080.54 1244.95 1077.65 1244.95C1074.78 1244.95 1072.82 1246.45 1072.82 1248.81ZM1074.45 1267.29C1074.42 1262.01 1080.36 1259.04 1090.19 1259.02C1099.99 1259.04 1105.91 1262.01 1105.93 1267.29C1105.91 1272.47 1099.99 1275.47 1090.19 1275.47C1080.36 1275.47 1074.42 1272.47 1074.45 1267.29ZM1080.08 1267.29C1080.06 1269.81 1083.64 1271.18 1090.19 1271.15C1096.72 1271.18 1100.22 1269.81 1100.25 1267.29C1100.22 1264.63 1096.72 1263.28 1090.19 1263.33C1083.64 1263.28 1080.06 1264.63 1080.08 1267.29Z" fill="white"/>
<circle cx="2332" cy="1119" r="230" fill="#1773EB"/>
<circle cx="2743.47" cy="982.473" r="123.473" fill="#2BA675"/>
<circle cx="1556" cy="1225" r="154" fill="#A6C944"/>
<path d="M1529.51 1228.13V1233.4H1518.15V1251.39H1511.64V1233.4H1499.28V1251.39H1492.72V1233.4H1481.12V1228.13H1529.51ZM1487.03 1221.98V1200.94H1523.6V1221.98H1487.03ZM1493.42 1216.76H1517.09V1206.1H1493.42V1216.76ZM1551.81 1213.3C1551.81 1221.98 1556.91 1231.12 1565.46 1234.69L1561.89 1239.85C1555.62 1237.12 1551.05 1231.59 1548.62 1224.85C1546.19 1232.11 1541.53 1238.21 1535.35 1241.14L1531.6 1236.04C1539.95 1232.17 1545.16 1222.3 1545.19 1213.3V1208.85H1533.53V1203.46H1563.41V1208.85H1551.81V1213.3ZM1569.33 1251.21V1198.25H1575.89V1251.21H1569.33ZM1610.14 1200.65C1610.08 1214.59 1602.85 1223.15 1586 1227.25L1583.66 1222.27C1591.57 1220.45 1596.64 1217.67 1599.65 1214.18L1584.71 1215.3L1583.72 1210.32L1602.32 1209.61C1602.76 1208.38 1603.05 1207.09 1603.2 1205.75H1586.41V1200.65H1610.14ZM1591.98 1232.46V1227.37H1626.84V1241.14H1598.42V1245.41H1628.25V1250.57H1592.04V1236.39H1620.4V1232.46H1591.98ZM1610.26 1215.41V1210.08H1620.34V1198.25H1626.84V1225.26H1620.34V1215.41H1610.26Z" fill="white"/>
<path d="M1910.08 1158.83V1163.25C1910.03 1168.96 1910.03 1175.33 1908.25 1184.93L1902.56 1184.32C1904.37 1175.38 1904.37 1168.86 1904.39 1163.35H1876.97V1158.83H1910.08ZM1872.6 1194.58V1189.96H1888.04V1174.01H1893.63V1189.96H1914.45V1194.58H1872.6ZM1954.94 1154.66V1188.18H1949.31V1171.37H1941.18V1166.8H1949.31V1154.66H1954.94ZM1916.4 1178.28C1923.71 1175.87 1927.62 1169.87 1927.62 1163.75V1162.54H1918.08V1157.96H1942.86V1162.54H1933.36V1163.8C1933.36 1169.31 1937.07 1175.03 1944.18 1177.36L1941.34 1181.88C1936.21 1180.13 1932.58 1176.63 1930.57 1172.29C1928.56 1177.11 1924.73 1180.97 1919.3 1182.85L1916.4 1178.28ZM1924.83 1199.61V1185.23H1930.47V1195.04H1956.11V1199.61H1924.83ZM1867.14 1216.61V1243.63H1861.51V1237.28H1852.26V1240.84H1830.68V1220.07H1852.26V1223.62H1861.51V1216.61H1867.14ZM1836.01 1253.68C1835.96 1248.1 1841.93 1244.82 1851.6 1244.85C1861.33 1244.82 1867.27 1248.1 1867.29 1253.68C1867.27 1259.27 1861.33 1262.47 1851.6 1262.47C1841.93 1262.47 1835.96 1259.27 1836.01 1253.68ZM1836.32 1236.32H1846.68V1224.54H1836.32V1236.32ZM1841.6 1253.68C1841.57 1256.53 1845.23 1258.1 1851.6 1258.1C1858.03 1258.1 1861.66 1256.53 1861.66 1253.68C1861.66 1250.71 1858.03 1249.19 1851.6 1249.16C1845.23 1249.19 1841.57 1250.71 1841.6 1253.68ZM1852.26 1232.71H1861.51V1228.09H1852.26V1232.71ZM1889.06 1224.59C1889.06 1230.25 1892.69 1235.81 1899.92 1238.2L1897.08 1242.56C1891.92 1240.84 1888.29 1237.41 1886.29 1233.12C1884.26 1237.81 1880.45 1241.55 1875.09 1243.38L1872.09 1239.01C1879.48 1236.54 1883.37 1230.6 1883.37 1224.59V1224.03H1873.67V1219.51H1898.6V1224.03H1889.06V1224.59ZM1878.24 1250.94V1246.42H1908.81V1262.52H1903.17V1250.94H1878.24ZM1903.17 1244.29V1216.61H1908.81V1228.09H1915.21V1232.81H1908.81V1244.29H1903.17ZM1958.4 1238.6V1243.12H1916.5V1238.6H1934.68V1234.23H1921.63V1218.7H1953.32V1223.11H1927.27V1229.77H1953.57V1234.23H1940.22V1238.6H1958.4ZM1921.38 1254.14C1921.38 1248.76 1927.4 1245.74 1937.37 1245.76C1947.28 1245.74 1953.24 1248.76 1953.27 1254.14C1953.24 1259.47 1947.28 1262.49 1937.37 1262.52C1927.4 1262.49 1921.38 1259.47 1921.38 1254.14ZM1927.12 1254.14C1927.09 1256.81 1930.7 1258.18 1937.37 1258.15C1943.95 1258.18 1947.58 1256.81 1947.63 1254.14C1947.58 1251.5 1943.95 1250.08 1937.37 1250.08C1930.7 1250.08 1927.09 1251.5 1927.12 1254.14ZM1996.71 1216.61V1235.55H2003.16V1240.28H1996.71V1262.52H1991.03V1216.61H1996.71ZM1959.85 1249.77C1963.32 1249.77 1967.36 1249.77 1971.58 1249.67V1245.38C1966.57 1244.52 1963.32 1241.39 1963.35 1237.08C1963.32 1231.9 1967.87 1228.47 1974.47 1228.45C1981 1228.47 1985.59 1231.9 1985.64 1237.08C1985.59 1241.42 1982.27 1244.54 1977.26 1245.38V1249.47C1981.12 1249.27 1984.98 1248.96 1988.59 1248.45L1988.94 1252.57C1979.09 1254.37 1968.48 1254.45 1960.66 1254.45L1959.85 1249.77ZM1960.71 1226.36V1221.89H1971.58V1216.82H1977.26V1221.89H1988.08V1226.36H1960.71ZM1968.68 1237.08C1968.66 1239.72 1970.99 1241.27 1974.47 1241.24C1977.9 1241.27 1980.21 1239.72 1980.21 1237.08C1980.21 1234.41 1977.9 1232.79 1974.47 1232.76C1970.99 1232.79 1968.66 1234.41 1968.68 1237.08Z" fill="white"/>
<path d="M2970.1 1232.73V1237.95H2949.65V1247.67H2943.2V1237.95H2921.7V1232.73H2970.1ZM2927.56 1258.16V1242.81H2934.06V1252.89H2964.77V1258.16H2927.56ZM2927.85 1227.81V1208.65H2963.89V1227.81H2927.85ZM2934.18 1222.71H2957.44V1213.75H2934.18V1222.71ZM3003.88 1211.34V1216.5H2972.47V1211.34H2984.95V1206.01H2991.46V1211.34H3003.88ZM2975.17 1228.22C2975.17 1222.42 2980.53 1218.55 2988.17 1218.55C2995.82 1218.55 3001.09 1222.42 3001.12 1228.22C3001.09 1234.02 2995.82 1237.89 2988.17 1237.89C2980.53 1237.89 2975.17 1234.02 2975.17 1228.22ZM2978.92 1247.09V1241.87H3014.19V1259.21H3007.69V1247.09H2978.92ZM2981.5 1228.22C2981.47 1231.21 2984.16 1232.88 2988.17 1232.85C2992.19 1232.88 2994.91 1231.21 2994.91 1228.22C2994.91 1225.23 2992.19 1223.47 2988.17 1223.47C2984.16 1223.47 2981.47 1225.23 2981.5 1228.22ZM3007.69 1239.41V1206.25H3014.19V1220.31H3021.57V1225.64H3014.19V1239.41H3007.69ZM3041.82 1214.68C3041.82 1221.33 3046.13 1227.63 3054.3 1230.21L3050.78 1235.31C3045.07 1233.38 3040.97 1229.51 3038.65 1224.59C3036.37 1230.21 3032.09 1234.63 3026 1236.77L3022.48 1231.68C3031.01 1228.72 3035.29 1221.66 3035.31 1214.1V1209.06H3041.82V1214.68ZM3029.69 1249.08C3029.69 1242.81 3036.57 1239.09 3047.62 1239.12C3058.58 1239.09 3065.34 1242.81 3065.37 1249.08C3065.34 1255.49 3058.58 1259.16 3047.62 1259.16C3036.57 1259.16 3029.69 1255.49 3029.69 1249.08ZM3036.19 1249.08C3036.19 1252.36 3040.35 1254 3047.62 1254C3054.86 1254 3058.93 1252.36 3058.93 1249.08C3058.93 1245.97 3054.86 1244.21 3047.62 1244.21C3040.35 1244.21 3036.19 1245.97 3036.19 1249.08ZM3058.34 1237.95V1206.25H3064.85V1219.14H3072.23V1224.53H3064.85V1237.95H3058.34Z" fill="white"/>
<path d="M2736.96 959.613V975H2743.16V979.672H2736.96V995.465H2731.32V959.613H2736.96ZM2700.2 986.273C2703.62 986.273 2707.61 986.248 2711.77 986.121V983.201C2706.67 982.566 2703.42 980.053 2703.45 976.371C2703.42 971.877 2707.86 969.211 2714.52 969.262C2721.19 969.211 2725.59 971.877 2725.59 976.371C2725.59 980.027 2722.44 982.516 2717.41 983.201V985.842C2721.32 985.613 2725.26 985.258 2728.94 984.699L2729.4 988.66C2719.67 990.488 2708.73 990.615 2700.81 990.691L2700.2 986.273ZM2701.36 967.738V963.625H2711.77V959.461H2717.41V963.625H2727.72V967.738H2701.36ZM2706.8 1004.61V993.078H2712.43V1000.04H2738.59V1004.61H2706.8ZM2708.88 976.371C2708.83 978.352 2710.96 979.52 2714.52 979.52C2718.07 979.52 2720.2 978.352 2720.2 976.371C2720.2 974.213 2718.07 973.045 2714.52 973.07C2710.96 973.045 2708.83 974.213 2708.88 976.371ZM2782.94 959.664V986.477H2777.31V981.398H2766.39V976.828H2777.31V971.902H2766.82C2763.93 979.189 2757.22 984.293 2747.25 987.086L2744.96 982.617C2755.7 979.723 2761.44 974.264 2762.3 967.434H2747.4V962.863H2768.47C2768.47 964.463 2768.35 965.986 2768.09 967.434H2777.31V959.664H2782.94ZM2752.17 996.125C2752.17 990.488 2758.34 987.01 2767.76 986.984C2777.05 987.01 2783.25 990.488 2783.25 996.125C2783.25 1001.76 2777.05 1005.29 2767.76 1005.27C2758.34 1005.29 2752.17 1001.76 2752.17 996.125ZM2757.81 996.125C2757.81 999.146 2761.59 1000.8 2767.76 1000.8C2773.83 1000.8 2777.59 999.146 2777.61 996.125C2777.59 993.053 2773.83 991.402 2767.76 991.402C2761.59 991.402 2757.81 993.053 2757.81 996.125Z" fill="white"/>
<path d="M2273.62 1056.13V1068.08H2281.07V1073.36H2273.62V1085.02H2267.12V1056.13H2273.62ZM2231.91 1065.5V1060.52H2244.39V1055.84H2250.89V1060.52H2263.31V1065.5H2231.91ZM2234.6 1075.82C2234.6 1070.54 2239.79 1067.17 2247.61 1067.14C2255.46 1067.17 2260.53 1070.54 2260.56 1075.82C2260.53 1081.24 2255.46 1084.49 2247.61 1084.49C2239.79 1084.49 2234.6 1081.24 2234.6 1075.82ZM2239 1092.11V1087.36H2273.62V1100.13H2245.5V1103.88H2275.26V1108.75H2239.05V1095.62H2267.12V1092.11H2239ZM2240.93 1075.82C2240.9 1078.42 2243.51 1079.77 2247.61 1079.8C2251.71 1079.77 2254.35 1078.42 2254.35 1075.82C2254.35 1073.3 2251.71 1071.8 2247.61 1071.83C2243.51 1071.8 2240.9 1073.3 2240.93 1075.82ZM2326.62 1056.25V1109.27H2320.18V1056.25H2326.62ZM2285.37 1066.15V1060.88H2310.33V1080.74H2292.11V1091.4C2300.46 1091.34 2307.64 1090.9 2315.9 1089.53L2316.49 1094.86C2307.49 1096.41 2299.58 1096.76 2290.06 1096.73H2285.43V1075.58H2303.71V1066.15H2285.37ZM2381.5 1086.07V1091.46H2360.4V1109.21H2353.96V1091.46H2333.1V1086.07H2381.5ZM2338.2 1070.02C2338.17 1062.75 2345.9 1058.15 2357.18 1058.12C2368.46 1058.15 2376.25 1062.75 2376.28 1070.02C2376.25 1077.19 2368.46 1081.76 2357.18 1081.73C2345.9 1081.76 2338.17 1077.19 2338.2 1070.02ZM2344.88 1070.02C2344.85 1074.15 2349.71 1076.58 2357.18 1076.58C2364.68 1076.58 2369.54 1074.15 2369.54 1070.02C2369.54 1065.86 2364.68 1063.39 2357.18 1063.39C2349.71 1063.39 2344.85 1065.86 2344.88 1070.02ZM2426.82 1081.09V1086.3H2389.67V1060.88H2426.41V1066.15H2396.12V1081.09H2426.82ZM2383.81 1102.48V1097.09H2432.21V1102.48H2383.81ZM2297.21 1131.23C2301.49 1131.21 2305.21 1132.79 2307.7 1135.45H2320.35V1128.25H2326.86V1159.42H2320.35V1152.68H2307.67C2305.15 1155.29 2301.46 1156.87 2297.21 1156.84C2289.21 1156.87 2283.21 1151.51 2283.21 1144.07C2283.21 1136.57 2289.21 1131.21 2297.21 1131.23ZM2289.42 1144.07C2289.42 1148.4 2292.67 1151.33 2297.21 1151.33C2301.6 1151.33 2304.86 1148.4 2304.89 1144.07C2304.86 1139.58 2301.6 1136.8 2297.21 1136.8C2292.67 1136.8 2289.42 1139.58 2289.42 1144.07ZM2290.94 1170.84C2290.88 1164.31 2297.82 1160.5 2308.93 1160.53C2320.06 1160.5 2327 1164.31 2327.03 1170.84C2327 1177.35 2320.06 1181.16 2308.93 1181.16C2297.82 1181.16 2290.88 1177.35 2290.94 1170.84ZM2297.33 1170.84C2297.27 1174.21 2301.57 1176.03 2308.93 1176.06C2316.43 1176.03 2320.65 1174.21 2320.65 1170.84C2320.65 1167.39 2316.43 1165.54 2308.93 1165.51C2301.57 1165.54 2297.27 1167.39 2297.33 1170.84ZM2310.63 1140.67C2310.92 1141.75 2311.1 1142.87 2311.1 1144.07C2311.1 1145.24 2310.92 1146.35 2310.66 1147.41H2320.35V1140.67H2310.63ZM2375.05 1128.25V1150.1H2382.49V1155.55H2375.05V1181.21H2368.49V1128.25H2375.05ZM2332.51 1166.51C2336.53 1166.51 2341.19 1166.51 2346.05 1166.39V1161.44C2340.28 1160.44 2336.53 1156.84 2336.56 1151.86C2336.53 1145.88 2341.77 1141.93 2349.39 1141.9C2356.92 1141.93 2362.22 1145.88 2362.28 1151.86C2362.22 1156.87 2358.38 1160.47 2352.61 1161.44V1166.16C2357.06 1165.92 2361.52 1165.57 2365.68 1164.98L2366.09 1169.73C2354.72 1171.81 2342.47 1171.9 2333.45 1171.9L2332.51 1166.51ZM2333.51 1139.5V1134.34H2346.05V1128.48H2352.61V1134.34H2365.09V1139.5H2333.51ZM2342.71 1151.86C2342.68 1154.91 2345.37 1156.69 2349.39 1156.66C2353.34 1156.69 2356.01 1154.91 2356.01 1151.86C2356.01 1148.78 2353.34 1146.91 2349.39 1146.88C2345.37 1146.91 2342.68 1148.78 2342.71 1151.86Z" fill="white"/>
<circle cx="1277.34" cy="1030.34" r="152.338" fill="#1773EB"/>
<path d="M1254.5 996.688V1001.26H1236.32V1005.12C1244.52 1005.65 1249.39 1008.49 1249.42 1013.24C1249.39 1018.52 1243.4 1021.47 1233.52 1021.47C1223.49 1021.47 1217.53 1018.52 1217.53 1013.24C1217.53 1008.49 1222.4 1005.62 1230.73 1005.09V1001.26H1212.65V996.688H1254.5ZM1214.68 990.137C1223.11 989.35 1228.62 985.922 1229.56 982.164H1216.46V977.645H1250.74V982.164H1237.51C1238.42 985.947 1243.88 989.35 1252.51 990.137L1250.53 994.605C1242.18 993.742 1236.01 990.416 1233.52 985.77C1231.03 990.416 1224.94 993.742 1216.61 994.605L1214.68 990.137ZM1223.26 1013.24C1223.24 1015.78 1226.84 1017.18 1233.52 1017.15C1240.1 1017.18 1243.73 1015.78 1243.78 1013.24C1243.73 1010.7 1240.1 1009.36 1233.52 1009.33C1226.84 1009.36 1223.24 1010.7 1223.26 1013.24ZM1292.76 975.613V988.512H1299.21V993.184H1292.76V1008.82H1287.12V975.613H1292.76ZM1258.48 1001.05V979.422H1279.05V983.941H1264.07V996.434C1272.7 996.434 1277.5 996.154 1282.96 995.012L1283.57 999.582C1277.55 1000.78 1272.22 1001.05 1262.19 1001.05H1258.48ZM1263.36 1020.61V1005.32H1268.99V1016.04H1294.59V1020.61H1263.36ZM1338.9 975.613V1009.54H1333.26V997.551H1326.76V992.879H1333.26V988.512H1326.76V983.941H1333.26V975.613H1338.9ZM1300.5 998.82C1302.1 998.82 1303.86 998.82 1305.68 998.795V983.586H1301.67V979.066H1326.1V983.586H1322.04V998.262C1323.76 998.135 1325.44 997.982 1327.06 997.805L1327.32 1001.92C1318.61 1003.31 1308.43 1003.49 1301.11 1003.49L1300.5 998.82ZM1308.73 1020.61V1006.89H1314.42V1016.04H1340.06V1020.61H1308.73ZM1311.17 998.719C1312.95 998.693 1314.77 998.617 1316.6 998.541V983.586H1311.17V998.719ZM1276.55 1073.26V1077.83H1234.6V1073.26H1252.58V1062.65H1258.16V1073.26H1276.55ZM1235.82 1059.09C1245.42 1057.54 1252.3 1050.66 1252.32 1043.76V1040.41H1258.32V1043.76C1258.32 1050.69 1265.25 1057.54 1274.92 1059.09L1272.48 1063.77C1264.74 1062.29 1258.37 1057.85 1255.32 1051.83C1252.3 1057.82 1246 1062.32 1238.26 1063.77L1235.82 1059.09ZM1316.94 1037.61V1061.12H1311.31V1049.5H1302.17V1044.98H1311.31V1037.61H1316.94ZM1278.25 1056.86C1285.64 1054.62 1289.47 1048.96 1289.47 1042.79V1039.14H1295.16V1042.79C1295.13 1048.46 1298.84 1053.81 1305.98 1056L1302.98 1060.36C1298 1058.71 1294.4 1055.46 1292.37 1051.3C1290.39 1055.95 1286.6 1059.6 1281.19 1061.38L1278.25 1056.86ZM1286.73 1067.52V1063.11H1316.94V1074.99H1292.32V1078.49H1318.42V1082.96H1286.78V1070.77H1311.36V1067.52H1286.73Z" fill="white"/>
<circle cx="3322.62" cy="1046.62" r="187.616" fill="#45C4EC"/>
<path d="M3289.28 994.09C3289.31 999.803 3292.65 1005.57 3299.59 1008.21L3296.14 1013.19C3291.42 1011.4 3288.14 1008.01 3286.23 1003.9C3284.3 1008.62 3280.84 1012.66 3275.8 1014.77L3272.29 1009.79C3279.58 1006.57 3282.98 999.949 3283.01 994.09V987.527H3289.28V994.09ZM3282.02 1027.37C3281.99 1021.28 3289.02 1017.64 3300.18 1017.64C3311.25 1017.64 3318.31 1021.28 3318.34 1027.37C3318.31 1033.49 3311.25 1037.16 3300.18 1037.16C3289.02 1037.16 3281.99 1033.49 3282.02 1027.37ZM3288.52 1027.37C3288.49 1030.51 3292.83 1032.21 3300.18 1032.18C3307.42 1032.21 3311.75 1030.51 3311.78 1027.37C3311.75 1024.27 3307.42 1022.57 3300.18 1022.57C3292.83 1022.57 3288.49 1024.27 3288.52 1027.37ZM3300.47 1015.12V985.301H3306.57V997.664H3311.84V984.305H3318.05V1016.77H3311.84V1003H3306.57V1015.12H3300.47ZM3367.77 984.246V1015.42H3361.26V1008.09H3350.6V1012.2H3325.7V988.23H3350.6V992.332H3361.26V984.246H3367.77ZM3331.85 1027.02C3331.79 1020.57 3338.68 1016.79 3349.84 1016.82C3361.06 1016.79 3367.92 1020.57 3367.94 1027.02C3367.92 1033.46 3361.06 1037.16 3349.84 1037.16C3338.68 1037.16 3331.79 1033.46 3331.85 1027.02ZM3332.2 1006.98H3344.16V993.387H3332.2V1006.98ZM3338.3 1027.02C3338.27 1030.3 3342.49 1032.12 3349.84 1032.12C3357.25 1032.12 3361.44 1030.3 3361.44 1027.02C3361.44 1023.59 3357.25 1021.83 3349.84 1021.8C3342.49 1021.83 3338.27 1023.59 3338.3 1027.02ZM3350.6 1002.82H3361.26V997.488H3350.6V1002.82ZM3302.35 1061.75V1065.5C3302.35 1070.22 3302.35 1076.9 3300.88 1086.01L3294.44 1085.48C3295.73 1077.46 3295.87 1071.51 3295.9 1066.97H3275.1V1061.75H3302.35ZM3272.29 1092.87C3275.42 1092.84 3278.91 1092.81 3282.54 1092.72V1076.87H3288.99V1092.52C3294.38 1092.28 3299.92 1091.9 3304.98 1091.29L3305.34 1096.15C3294.41 1097.94 3282.28 1098.14 3272.93 1098.08L3272.29 1092.87ZM3307.74 1109.21V1056.25H3314.3V1077.81H3321.98V1083.32H3314.3V1109.21H3307.74ZM3354.88 1061.34V1066.5H3323.47V1061.34H3335.95V1056.01H3342.46V1061.34H3354.88ZM3326.17 1078.22C3326.17 1072.42 3331.53 1068.55 3339.17 1068.55C3346.82 1068.55 3352.09 1072.42 3352.12 1078.22C3352.09 1084.02 3346.82 1087.89 3339.17 1087.89C3331.53 1087.89 3326.17 1084.02 3326.17 1078.22ZM3329.92 1097.09V1091.87H3365.19V1109.21H3358.69V1097.09H3329.92ZM3332.5 1078.22C3332.47 1081.21 3335.16 1082.88 3339.17 1082.85C3343.19 1082.88 3345.91 1081.21 3345.91 1078.22C3345.91 1075.23 3343.19 1073.47 3339.17 1073.47C3335.16 1073.47 3332.47 1075.23 3332.5 1078.22ZM3358.69 1089.41V1056.25H3365.19V1070.31H3372.57V1075.64H3365.19V1089.41H3358.69Z" fill="white"/>
<circle cx="1707" cy="986" r="100" fill="#FDA92B"/>
<path d="M1702.04 963.613V990.629H1696.41V984.281H1687.16V987.836H1665.58V967.066H1687.16V970.621H1696.41V963.613H1702.04ZM1670.91 1000.68C1670.86 995.098 1676.83 991.822 1686.5 991.848C1696.23 991.822 1702.17 995.098 1702.2 1000.68C1702.17 1006.27 1696.23 1009.47 1686.5 1009.47C1676.83 1009.47 1670.86 1006.27 1670.91 1000.68ZM1671.22 983.316H1681.58V971.535H1671.22V983.316ZM1676.5 1000.68C1676.48 1003.53 1680.13 1005.1 1686.5 1005.1C1692.93 1005.1 1696.56 1003.53 1696.56 1000.68C1696.56 997.713 1692.93 996.189 1686.5 996.164C1680.13 996.189 1676.48 997.713 1676.5 1000.68ZM1687.16 979.711H1696.41V975.09H1687.16V979.711ZM1745.94 963.664V997.281H1740.31V980.574H1732.01C1730.84 985.957 1726.09 989.613 1720.25 989.613C1713.32 989.613 1708.11 984.764 1708.11 978.035C1708.11 971.256 1713.32 966.508 1720.25 966.508C1726.27 966.508 1731.12 970.291 1732.11 975.953H1740.31V963.664H1745.94ZM1713.5 978.035C1713.5 982.072 1716.42 984.738 1720.25 984.738C1724.01 984.738 1726.88 982.072 1726.9 978.035C1726.88 973.973 1724.01 971.434 1720.25 971.434C1716.42 971.434 1713.5 973.973 1713.5 978.035ZM1715.83 1008.61V993.879H1721.47V1004.04H1747.11V1008.61H1715.83Z" fill="white"/>
<circle cx="482.338" cy="1226.34" r="152.338" fill="#A6C944"/>
<path d="M448.887 1204.4V1210.38C448.887 1217.47 448.887 1224.76 446.953 1235.93L440.332 1235.34C442.383 1224.94 442.383 1217.26 442.383 1210.38V1209.68H411.855V1204.4H448.887ZM406.758 1244.95V1239.62H455.039V1244.95H406.758ZM501.534 1199.3V1230.71H494.972V1199.3H501.534ZM460.109 1207.57V1202.41H484.542V1217.76H466.612V1223.27C475.665 1223.27 482.14 1223.01 489.698 1221.75L490.519 1227.02C482.169 1228.34 474.991 1228.63 464.737 1228.6H460.226V1212.78H478.097V1207.57H460.109ZM466.378 1251.57V1233.17H501.534V1251.57H466.378ZM472.823 1246.3H495.148V1238.39H472.823V1246.3ZM524.416 1211.14C524.416 1216.74 527.815 1222.27 534.495 1224.56L531.565 1229.48C526.702 1227.69 523.362 1224.35 521.457 1220.28C519.612 1224.73 516.243 1228.4 511.233 1230.36L508.186 1225.55C514.895 1222.92 518.205 1217.15 518.264 1211.14V1210.73H509.534V1205.63H518.264V1199.83H524.416V1205.63H533.03V1210.73H524.416V1211.14ZM517.092 1239.38V1234.11H553.362V1252.21H546.858V1239.38H517.092ZM535.901 1231.47V1200.18H542.053V1212.9H547.151V1199.3H553.362V1231.71H547.151V1218.17H542.053V1231.47H535.901Z" fill="white"/>
<circle cx="2698.47" cy="1254.47" r="123.473" fill="#FDA92B"/>
<path d="M2697.55 1267.31V1271.93H2655.6V1267.31H2665.3V1255.71C2661.65 1253.6 2659.44 1250.3 2659.46 1246.24C2659.44 1238.93 2666.6 1234.1 2676.47 1234.1C2686.4 1234.1 2693.61 1238.93 2693.59 1246.24C2693.61 1250.25 2691.45 1253.47 2687.9 1255.58V1267.31H2697.55ZM2665 1246.24C2664.97 1250.94 2669.62 1253.93 2676.47 1253.91C2683.3 1253.93 2688.05 1250.94 2688.05 1246.24C2688.05 1241.46 2683.3 1238.54 2676.47 1238.57C2669.62 1238.54 2664.97 1241.46 2665 1246.24ZM2670.89 1267.31H2682.16V1257.74C2680.41 1258.12 2678.5 1258.32 2676.47 1258.32C2674.49 1258.32 2672.61 1258.12 2670.89 1257.77V1267.31ZM2737.74 1231.61V1277.57H2732.16V1231.61H2737.74ZM2701.99 1240.2V1235.62H2723.62V1252.84H2707.83V1262.08C2715.07 1262.03 2721.29 1261.65 2728.45 1260.46L2728.96 1265.08C2721.16 1266.42 2714.31 1266.73 2706.05 1266.7H2702.04V1248.37H2717.89V1240.2H2701.99Z" fill="white"/>
</g>
<path d="M330 463H3510V465H330V463Z" fill="#191F28"/>
<rect x="330" y="463" width="1080" height="10" fill="#7B3AD8"/>
<path d="M1850.38 359.217C1850.38 366.858 1855.44 374.744 1861.61 377.771L1859.27 380.848C1854.48 378.357 1850.48 373.206 1848.55 367.176C1846.62 373.572 1842.52 379.065 1837.64 381.678L1835.2 378.602C1841.54 375.477 1846.57 367.151 1846.62 359.217V351.307H1850.38V359.217ZM1865.62 390.955V347.547H1869.43V365.174H1876.7V368.494H1869.43V390.955H1865.62ZM1894.33 359.217C1894.3 367.078 1899.36 374.988 1905.66 377.869L1903.36 380.994C1898.43 378.455 1894.35 373.279 1892.42 367.103C1890.5 373.597 1886.42 379.163 1881.49 381.775L1879 378.699C1885.37 375.574 1890.4 367.225 1890.42 359.217V351.307H1894.33V359.217ZM1900.92 365.516V362.391H1911.22V347.547H1915.03V391.053H1911.22V365.516H1900.92ZM1961.81 373.816V377.039H1943.89V391.053H1940.13V377.039H1922.26V373.816H1961.81ZM1924.75 367.371C1932.49 366.321 1940.1 361.585 1940.13 356.141V356.092H1926.12V352.967H1940.13V347.547H1943.89V352.967H1958V356.092H1943.94V356.141C1943.94 361.561 1951.51 366.321 1959.27 367.371L1957.85 370.447C1951.14 369.422 1944.82 366.053 1942.06 361.341C1939.3 366.102 1932.88 369.422 1926.16 370.447L1924.75 367.371ZM1980.27 357.947C1980.29 363.733 1984.86 368.763 1991.3 370.789L1989.4 373.865C1984.39 372.229 1980.41 368.787 1978.46 364.319C1976.58 369.104 1972.62 372.815 1967.52 374.598L1965.62 371.619C1972.04 369.471 1976.48 364.075 1976.51 357.947V356.531H1966.69V353.406H1976.51V347.84H1980.36V353.406H1990.08V356.531H1980.27V357.947ZM1973.58 390.027V377.088H1977.43V386.805H2002.68V390.027H1973.58ZM1988.57 364.148V360.975H1997.6V347.596H2001.46V380.018H1997.6V364.148H1988.57Z" fill="#6B7684"/>
<path d="M788.054 351.307C788.005 364.979 784.245 376.624 767.448 384.852L764.177 380.066C771.501 376.429 776.091 372.278 778.776 367.298L765.3 368.494L764.519 363.221L780.778 362.244C781.315 360.389 781.633 358.387 781.828 356.287H766.813V351.307H788.054ZM794.841 391.492V347.059H801.14V391.492H794.841ZM844.938 347.107V391.492H838.591V381.678H829.558V376.99H838.591V347.107H844.938ZM806.804 369.617C815.129 369.617 826.164 369.568 835.759 368.299L836.101 372.84C832.194 373.523 828.19 373.963 824.235 374.231V390.174H817.937V374.549C814.25 374.671 810.734 374.695 807.585 374.695L806.804 369.617ZM809.929 357.996C809.904 352.649 814.689 348.89 821.354 348.865C827.922 348.89 832.756 352.649 832.78 357.996C832.756 363.465 827.922 367.078 821.354 367.078C814.689 367.078 809.904 363.465 809.929 357.996ZM815.788 357.996C815.764 360.779 818.034 362.342 821.354 362.342C824.553 362.342 826.823 360.779 826.872 357.996C826.823 355.286 824.577 353.602 821.354 353.602C818.034 353.602 815.764 355.286 815.788 357.996ZM886.442 367.615V372.596H854.997V350.77H886.101V355.799H861.149V367.615H886.442ZM850.212 386.072V380.945H890.886V386.072H850.212ZM933.952 373.67V378.748H916.716V391.541H910.563V378.748H893.425V373.67H933.952ZM895.476 366.395C904.704 365.369 909.709 361.023 910.466 357.068H897.087V352.186H910.563V347.107H916.716V352.186H930.241V357.068H916.911C917.595 360.975 922.6 365.369 931.804 366.395L929.558 371.277C922.014 370.423 916.569 367.322 913.688 363.294C910.783 367.371 905.314 370.423 897.722 371.277L895.476 366.395ZM952.995 357.508C953.02 362.513 956.267 367.615 963.493 369.812L960.515 374.646C955.534 373.206 952.019 370.154 950.017 366.297C948.039 370.472 944.523 373.768 939.372 375.379L936.345 370.496C943.571 368.323 946.794 362.928 946.794 357.508V357.166H937.858V352.283H946.794V347.352H953.093V352.283H961.979V357.166H952.995V357.508ZM944.597 390.711V377.234H950.847V385.73H975.163V390.711H944.597ZM960.515 365.076V360.047H967.888V347.107H974.089V380.066H967.888V365.076H960.515Z" fill="#191F28"/>
<path d="M2848.22 350.232V357.068H2861.02V350.232H2864.82V370.691H2844.41V350.232H2848.22ZM2848.22 367.566H2861.02V360.145H2848.22V367.566ZM2848.76 379.383V376.307H2877.96V390.955H2874.15V379.383H2848.76ZM2874.15 373.865V347.547H2877.96V373.865H2874.15ZM2922.49 347.547V390.955H2918.78V347.547H2922.49ZM2887.04 380.506V352.918H2903.4V356.092H2890.75V377.283C2897.03 377.234 2900.98 377.015 2905.64 375.965L2906.04 379.236C2901.01 380.262 2896.76 380.481 2889.78 380.506H2887.04ZM2900.47 367.371V364.148H2909.94V348.621H2913.6V388.709H2909.94V367.371H2900.47ZM2964.34 347.547V391.053H2960.48V347.547H2964.34ZM2930.16 366.053C2930.18 356.824 2934.77 350.94 2941.24 350.916C2947.69 350.94 2952.35 356.824 2952.32 366.053C2952.35 375.306 2947.69 381.165 2941.24 381.141C2934.77 381.165 2930.18 375.306 2930.16 366.053ZM2933.87 366.053C2933.87 373.108 2936.89 377.747 2941.24 377.723C2945.61 377.747 2948.61 373.108 2948.61 366.053C2948.61 358.997 2945.61 354.358 2941.24 354.334C2936.89 354.358 2933.87 358.997 2933.87 366.053ZM3007.74 347.547V391.053H3003.94V367.127H2994.76V363.953H3003.94V347.547H3007.74ZM2973.76 380.555V351.551H2994.02V354.725H2977.62V363.758H2992.12V366.883H2977.62V377.381C2985.58 377.356 2990.7 377.137 2996.66 376.062L2997.1 379.236C2990.78 380.262 2985.48 380.555 2977.08 380.555H2973.76ZM3054.52 373.816V377.039H3036.6V391.053H3032.84V377.039H3014.97V373.816H3054.52ZM3017.46 367.371C3025.2 366.321 3032.82 361.585 3032.84 356.141V356.092H3018.83V352.967H3032.84V347.547H3036.6V352.967H3050.71V356.092H3036.65V356.141C3036.65 361.561 3044.22 366.321 3051.98 367.371L3050.57 370.447C3043.85 369.422 3037.53 366.053 3034.77 361.341C3032.01 366.102 3025.59 369.422 3018.88 370.447L3017.46 367.371ZM3072.98 357.947C3073 363.733 3077.57 368.763 3084.01 370.789L3082.11 373.865C3077.1 372.229 3073.12 368.787 3071.17 364.319C3069.29 369.104 3065.34 372.815 3060.23 374.598L3058.33 371.619C3064.75 369.471 3069.19 364.075 3069.22 357.947V356.531H3059.4V353.406H3069.22V347.84H3073.08V353.406H3082.79V356.531H3072.98V357.947ZM3066.29 390.027V377.088H3070.15V386.805H3095.39V390.027H3066.29ZM3081.28 364.148V360.975H3090.31V347.596H3094.17V380.018H3090.31V364.148H3081.28Z" fill="#6B7684"/>
<g clip-path="url(#clip2_2843_14284)" filter="url(#filter2_d_2843_14284)">
<g filter="url(#filter3_d_2843_14284)">
<circle cx="180" cy="2020" r="80" fill="white"/>
<mask id="mask0_2843_14284" style="mask-type:alpha" maskUnits="userSpaceOnUse" x="130" y="1970" width="100" height="100">
<rect x="130" y="1970" width="100" height="100" fill="#D9D9D9"/>
</mask>
<g mask="url(#mask0_2843_14284)">
<path d="M155 2048.51H168.943V2027.52C168.943 2026.45 169.303 2025.55 170.025 2024.83C170.747 2024.11 171.642 2023.75 172.708 2023.75H187.292C188.358 2023.75 189.253 2024.11 189.975 2024.83C190.697 2025.55 191.057 2026.45 191.057 2027.52V2048.51H205V2011.65C205 2011.44 204.953 2011.24 204.859 2011.07C204.766 2010.9 204.64 2010.74 204.479 2010.61L180.761 1992.78C180.548 1992.59 180.294 1992.5 180 1992.5C179.706 1992.5 179.452 1992.59 179.239 1992.78L155.521 2010.61C155.36 2010.74 155.234 2010.9 155.141 2011.07C155.047 2011.24 155 2011.44 155 2011.65V2048.51ZM148.75 2048.51V2011.65C148.75 2010.46 149.017 2009.33 149.55 2008.26C150.084 2007.19 150.822 2006.32 151.762 2005.63L175.481 1987.76C176.797 1986.75 178.301 1986.25 179.994 1986.25C181.686 1986.25 183.194 1986.75 184.519 1987.76L208.237 2005.63C209.178 2006.32 209.916 2007.19 210.45 2008.26C210.983 2009.33 211.25 2010.46 211.25 2011.65V2048.51C211.25 2050.21 210.634 2051.68 209.403 2052.91C208.172 2054.14 206.704 2054.76 205 2054.76H188.574C187.507 2054.76 186.612 2054.4 185.891 2053.68C185.168 2052.95 184.807 2052.06 184.807 2050.99V2030H175.193V2050.99C175.193 2052.06 174.832 2052.95 174.109 2053.68C173.388 2054.4 172.493 2054.76 171.426 2054.76H155C153.296 2054.76 151.828 2054.14 150.597 2052.91C149.366 2051.68 148.75 2050.21 148.75 2048.51Z" fill="#8B95A1"/>
</g>
</g>
<g filter="url(#filter4_d_2843_14284)">
<rect x="3400" y="1960" width="340" height="120" rx="60" fill="white" shape-rendering="crispEdges"/>
<g clip-path="url(#clip3_2843_14284)">
<circle cx="3458" cy="2020" r="48" fill="#ADB5BD"/>
<path d="M3465.86 2021.23C3468.07 2019.48 3469.69 2017.09 3470.48 2014.39C3471.28 2011.68 3471.21 2008.79 3470.29 2006.13C3469.36 2003.46 3467.63 2001.15 3465.34 1999.52C3463.04 1997.88 3460.29 1997 3457.47 1997C3454.65 1997 3451.9 1997.88 3449.6 1999.52C3447.3 2001.15 3445.57 2003.46 3444.65 2006.13C3443.72 2008.79 3443.65 2011.68 3444.45 2014.39C3445.24 2017.09 3446.86 2019.48 3449.08 2021.23C3445.28 2022.75 3441.96 2025.27 3439.49 2028.53C3437.01 2031.79 3435.46 2035.66 3435.01 2039.72C3434.98 2040.02 3435.01 2040.32 3435.09 2040.61C3435.17 2040.9 3435.31 2041.16 3435.5 2041.4C3435.88 2041.87 3436.43 2042.17 3437.03 2042.23C3437.63 2042.3 3438.23 2042.13 3438.7 2041.75C3439.17 2041.37 3439.47 2040.82 3439.54 2040.22C3440.03 2035.8 3442.14 2031.72 3445.46 2028.76C3448.77 2025.79 3453.06 2024.15 3457.51 2024.15C3461.96 2024.15 3466.25 2025.79 3469.57 2028.76C3472.88 2031.72 3474.99 2035.8 3475.49 2040.22C3475.55 2040.78 3475.81 2041.29 3476.23 2041.66C3476.65 2042.03 3477.19 2042.24 3477.75 2042.23H3478C3478.59 2042.17 3479.13 2041.87 3479.5 2041.4C3479.88 2040.93 3480.05 2040.34 3479.99 2039.75C3479.53 2035.67 3477.98 2031.79 3475.49 2028.53C3473 2025.27 3469.67 2022.74 3465.86 2021.23ZM3457.47 2019.62C3455.68 2019.62 3453.93 2019.09 3452.44 2018.1C3450.95 2017.11 3449.8 2015.69 3449.11 2014.04C3448.43 2012.39 3448.25 2010.57 3448.6 2008.81C3448.94 2007.06 3449.81 2005.45 3451.07 2004.18C3452.34 2002.92 3453.95 2002.06 3455.7 2001.71C3457.46 2001.36 3459.27 2001.54 3460.93 2002.22C3462.58 2002.91 3463.99 2004.07 3464.99 2005.55C3465.98 2007.04 3466.51 2008.79 3466.51 2010.58C3466.51 2012.98 3465.56 2015.28 3463.86 2016.97C3462.17 2018.67 3459.87 2019.62 3457.47 2019.62Z" fill="white"/>
</g>
<path d="M3596.32 2028.91V2031.73H3567.49V2028.91H3580.18V2023.39H3571.01V2013.38H3589.5V2008.95H3570.94V2006.2H3592.8V2016.05H3574.31V2020.65H3593.54V2023.39H3583.49V2028.91H3596.32ZM3623.56 2007.19V2010.56C3623.56 2014.64 3623.56 2019.05 3622.4 2025.79L3618.99 2025.47C3620.26 2019.16 3620.26 2014.54 3620.26 2010.56V2009.93H3601.7V2007.19H3623.56ZM3598.6 2031.02V2028.25H3627.33V2031.02H3598.6ZM3655.84 2004.02V2026.91H3652.5V2004.02H3655.84ZM3630.35 2013.94C3630.37 2009.38 3633.99 2006.15 3638.75 2006.13C3643.5 2006.15 3647.12 2009.38 3647.12 2013.94C3647.12 2018.56 3643.5 2021.78 3638.75 2021.78C3633.99 2021.78 3630.37 2018.56 3630.35 2013.94ZM3633.62 2013.94C3633.6 2016.91 3635.82 2018.86 3638.75 2018.86C3641.63 2018.86 3643.85 2016.91 3643.85 2013.94C3643.85 2011.04 3641.63 2009.05 3638.75 2009.05C3635.82 2009.05 3633.6 2011.04 3633.62 2013.94ZM3635.24 2034.82V2024.59H3638.61V2032.11H3656.79V2034.82H3635.24Z" fill="#191F28"/>
</g>
</g>
</g>
<defs>
<filter id="filter0_f_2843_14284" x="976" y="-176" width="4403" height="4403" filterUnits="userSpaceOnUse" color-interpolation-filters="sRGB">
<feFlood flood-opacity="0" result="BackgroundImageFix"/>
<feBlend mode="normal" in="SourceGraphic" in2="BackgroundImageFix" result="shape"/>
<feGaussianBlur stdDeviation="650" result="effect1_foregroundBlur_2843_14284"/>
</filter>
<filter id="filter1_f_2843_14284" x="-651.777" y="-721.777" width="3652.41" height="3652.41" filterUnits="userSpaceOnUse" color-interpolation-filters="sRGB">
<feFlood flood-opacity="0" result="BackgroundImageFix"/>
<feBlend mode="normal" in="SourceGraphic" in2="BackgroundImageFix" result="shape"/>
<feGaussianBlur stdDeviation="500" result="effect1_foregroundBlur_2843_14284"/>
</filter>
<filter id="filter2_d_2843_14284" x="-30" y="1910" width="3920" height="240" filterUnits="userSpaceOnUse" color-interpolation-filters="sRGB">
<feFlood flood-opacity="0" result="BackgroundImageFix"/>
<feColorMatrix in="SourceAlpha" type="matrix" values="0 0 0 0 0 0 0 0 0 0 0 0 0 0 0 0 0 0 127 0" result="hardAlpha"/>
<feOffset dx="10" dy="10"/>
<feGaussianBlur stdDeviation="20"/>
<feComposite in2="hardAlpha" operator="out"/>
<feColorMatrix type="matrix" values="0 0 0 0 0 0 0 0 0 0 0 0 0 0 0 0 0 0 0.1 0"/>
<feBlend mode="normal" in2="BackgroundImageFix" result="effect1_dropShadow_2843_14284"/>
<feBlend mode="normal" in="SourceGraphic" in2="effect1_dropShadow_2843_14284" result="shape"/>
</filter>
<filter id="filter3_d_2843_14284" x="70" y="1910" width="240" height="240" filterUnits="userSpaceOnUse" color-interpolation-filters="sRGB">
<feFlood flood-opacity="0" result="BackgroundImageFix"/>
<feColorMatrix in="SourceAlpha" type="matrix" values="0 0 0 0 0 0 0 0 0 0 0 0 0 0 0 0 0 0 127 0" result="hardAlpha"/>
<feOffset dx="10" dy="10"/>
<feGaussianBlur stdDeviation="20"/>
<feComposite in2="hardAlpha" operator="out"/>
<feColorMatrix type="matrix" values="0 0 0 0 0 0 0 0 0 0 0 0 0 0 0 0 0 0 0.1 0"/>
<feBlend mode="normal" in2="BackgroundImageFix" result="effect1_dropShadow_2843_14284"/>
<feBlend mode="normal" in="SourceGraphic" in2="effect1_dropShadow_2843_14284" result="shape"/>
</filter>
<filter id="filter4_d_2843_14284" x="3370" y="1930" width="420" height="200" filterUnits="userSpaceOnUse" color-interpolation-filters="sRGB">
<feFlood flood-opacity="0" result="BackgroundImageFix"/>
<feColorMatrix in="SourceAlpha" type="matrix" values="0 0 0 0 0 0 0 0 0 0 0 0 0 0 0 0 0 0 127 0" result="hardAlpha"/>
<feOffset dx="10" dy="10"/>
<feGaussianBlur stdDeviation="20"/>
<feComposite in2="hardAlpha" operator="out"/>
<feColorMatrix type="matrix" values="0 0 0 0 0 0 0 0 0 0 0 0 0 0 0 0 0 0 0.1 0"/>
<feBlend mode="normal" in2="BackgroundImageFix" result="effect1_dropShadow_2843_14284"/>
<feBlend mode="normal" in="SourceGraphic" in2="effect1_dropShadow_2843_14284" result="shape"/>
</filter>
<linearGradient id="paint0_linear_2843_14284" x1="2643.56" y1="-21.9375" x2="2387.66" y2="2274.41" gradientUnits="userSpaceOnUse">
<stop stop-color="#A1E7FA"/>
<stop offset="0.5" stop-color="white" stop-opacity="0.5"/>
<stop offset="1" stop-color="#FDBEE9"/>
</linearGradient>
<linearGradient id="paint1_linear_2843_14284" x1="1431.63" y1="356.53" x2="62.4159" y2="1505.86" gradientUnits="userSpaceOnUse">
<stop stop-color="white"/>
<stop offset="1" stop-color="white" stop-opacity="0"/>
</linearGradient>
<clipPath id="clip0_2843_14284">
<rect width="3840" height="2160" fill="white"/>
</clipPath>
<clipPath id="clip1_2843_14284">
<rect width="3180" height="520" fill="white" transform="translate(330 859)"/>
</clipPath>
<clipPath id="clip2_2843_14284">
<rect width="3840" height="160" fill="white" transform="translate(0 1940)"/>
</clipPath>
<clipPath id="clip3_2843_14284">
<rect x="3410" y="1972" width="96" height="96" rx="48" fill="white"/>
</clipPath>
</defs>
</svg>
