<svg width="1200" height="676" viewBox="0 0 1200 676" fill="none" xmlns="http://www.w3.org/2000/svg">
<g clip-path="url(#clip0_5778_9103)">
<rect width="1200" height="675" transform="translate(0 0.5625)" fill="#E4E3E5"/>
<rect width="1200" height="675" transform="translate(0 0.5625)" fill="url(#paint0_linear_5778_9103)"/>
<g filter="url(#filter0_f_5778_9103)">
<circle cx="992.969" cy="633.531" r="281.719" fill="#E4C19A" fill-opacity="0.6"/>
</g>
<g style="mix-blend-mode:screen" filter="url(#filter1_f_5778_9103)">
<circle cx="367.007" cy="345.696" r="258.146" transform="rotate(30 367.007 345.696)" fill="url(#paint1_linear_5778_9103)" fill-opacity="0.1"/>
</g>
<path d="M507.604 36.6855C507.572 36.3861 507.437 36.1517 507.199 35.9824C506.965 35.8132 506.659 35.7285 506.281 35.7285C506.014 35.7285 505.782 35.7676 505.583 35.8457C505.388 35.9238 505.238 36.0329 505.134 36.1729C505.03 36.3128 504.978 36.4723 504.978 36.6514C504.978 36.9183 505.09 37.1266 505.314 37.2764C505.539 37.4229 505.83 37.5384 506.188 37.623L506.853 37.7988C507.461 37.9388 507.958 38.1715 508.342 38.4971C508.729 38.8193 508.923 39.2637 508.923 39.8301C508.923 40.2435 508.817 40.6081 508.605 40.9238C508.394 41.2396 508.086 41.4854 507.683 41.6611C507.282 41.8337 506.804 41.9199 506.247 41.9199C505.7 41.9199 505.223 41.8353 504.816 41.666C504.413 41.4935 504.097 41.2428 503.869 40.9141C503.641 40.5853 503.519 40.1914 503.503 39.7324H504.753C504.782 40.0872 504.932 40.359 505.202 40.5479C505.472 40.7367 505.817 40.8327 506.237 40.8359C506.514 40.8359 506.758 40.7936 506.97 40.709C507.185 40.6211 507.352 40.5007 507.473 40.3477C507.593 40.1947 507.653 40.0189 507.653 39.8203C507.65 39.5599 507.543 39.3581 507.331 39.2148C507.119 39.0684 506.8 38.9414 506.374 38.834L505.573 38.6289C504.317 38.3001 503.688 37.6654 503.688 36.7246C503.688 36.3145 503.801 35.9531 504.025 35.6406C504.25 35.3249 504.559 35.0807 504.953 34.9082C505.347 34.7324 505.791 34.6445 506.286 34.6445C506.778 34.6445 507.214 34.7308 507.595 34.9033C507.979 35.0758 508.278 35.3184 508.493 35.6309C508.708 35.9401 508.819 36.2917 508.825 36.6855H507.604ZM513.54 34.7422L515.64 39.8789H515.728L517.827 34.7422H519.39V41.8125H518.169V36.9492H518.101L516.138 41.793H515.229L513.267 36.9297H513.208V41.8125H511.978V34.7422H513.54ZM522.239 41.8125L524.729 34.7422H526.292L528.792 41.8125H527.435L526.844 40.0645H524.183L523.597 41.8125H522.239ZM526.502 39.0391L525.54 36.1875H525.481L524.524 39.0391H526.502ZM531.632 34.7422H534.288C534.819 34.7422 535.27 34.8366 535.641 35.0254C536.015 35.2109 536.297 35.473 536.485 35.8115C536.677 36.1501 536.775 36.5456 536.778 36.998C536.775 37.4798 536.664 37.8949 536.446 38.2432C536.231 38.5882 535.917 38.8438 535.504 39.0098L537.032 41.8125H535.616L534.229 39.2246H532.901V41.8125H531.632V34.7422ZM534.093 38.1602C535.017 38.1634 535.479 37.776 535.479 36.998C535.479 36.6139 535.366 36.3193 535.138 36.1143C534.91 35.9092 534.562 35.8066 534.093 35.8066H532.901V38.1602H534.093ZM539.56 34.7422H545.194V35.8066H543.017V41.8125H541.747V35.8066H539.56V34.7422ZM552.563 34.7422H555.22C555.75 34.7422 556.201 34.8366 556.572 35.0254C556.947 35.2109 557.228 35.473 557.417 35.8115C557.609 36.1501 557.707 36.5456 557.71 36.998C557.707 37.4798 557.596 37.8949 557.378 38.2432C557.163 38.5882 556.849 38.8438 556.436 39.0098L557.964 41.8125H556.548L555.161 39.2246H553.833V41.8125H552.563V34.7422ZM555.024 38.1602C555.949 38.1634 556.411 37.776 556.411 36.998C556.411 36.6139 556.297 36.3193 556.069 36.1143C555.841 35.9092 555.493 35.8066 555.024 35.8066H553.833V38.1602H555.024ZM560.804 34.7422H565.403V35.8066H562.073V37.7402H565.159V38.8047H562.073V40.7383H565.423V41.8125H560.804V34.7422ZM573.39 37.125C573.341 36.8483 573.237 36.609 573.077 36.4072C572.921 36.2054 572.724 36.0524 572.486 35.9482C572.249 35.8408 571.987 35.7871 571.7 35.7871C571.313 35.7871 570.969 35.8848 570.67 36.0801C570.374 36.2721 570.143 36.5553 569.977 36.9297C569.811 37.304 569.728 37.7533 569.728 38.2773C569.728 38.8079 569.811 39.2604 569.977 39.6348C570.143 40.0059 570.374 40.2874 570.67 40.4795C570.969 40.6715 571.313 40.7676 571.7 40.7676C571.98 40.7676 572.237 40.7171 572.472 40.6162C572.709 40.512 572.908 40.3623 573.067 40.167C573.227 39.9717 573.334 39.7389 573.39 39.4688H574.669C574.604 39.9245 574.439 40.3379 574.176 40.709C573.912 41.0801 573.565 41.373 573.136 41.5879C572.709 41.8027 572.224 41.9102 571.681 41.9102C571.056 41.9102 570.497 41.7653 570.006 41.4756C569.518 41.1826 569.135 40.7627 568.858 40.2158C568.585 39.6657 568.448 39.0195 568.448 38.2773C568.448 37.5319 568.587 36.8857 568.863 36.3389C569.143 35.792 569.527 35.3737 570.016 35.084C570.507 34.791 571.062 34.6445 571.681 34.6445C572.201 34.6445 572.675 34.7438 573.102 34.9424C573.528 35.1377 573.878 35.4225 574.151 35.7969C574.425 36.168 574.597 36.6107 574.669 37.125H573.39ZM584.071 38.2773C584.071 39.0228 583.931 39.6689 583.651 40.2158C583.375 40.7627 582.989 41.1826 582.494 41.4756C582.003 41.7653 581.448 41.9102 580.829 41.9102C580.207 41.9102 579.651 41.7653 579.159 41.4756C578.668 41.1826 578.282 40.7627 578.002 40.2158C577.725 39.6657 577.587 39.0195 577.587 38.2773C577.587 37.5319 577.725 36.8857 578.002 36.3389C578.282 35.7887 578.668 35.3688 579.159 35.0791C579.651 34.7894 580.207 34.6445 580.829 34.6445C581.448 34.6445 582.003 34.791 582.494 35.084C582.989 35.3737 583.375 35.792 583.651 36.3389C583.931 36.8857 584.071 37.5319 584.071 38.2773ZM578.866 38.2773C578.866 38.8047 578.948 39.2555 579.11 39.6299C579.276 40.0042 579.507 40.2874 579.804 40.4795C580.1 40.6715 580.442 40.7676 580.829 40.7676C581.22 40.7676 581.562 40.6715 581.854 40.4795C582.151 40.2874 582.38 40.0042 582.543 39.6299C582.709 39.2555 582.792 38.8047 582.792 38.2773C582.792 37.75 582.709 37.2992 582.543 36.9248C582.38 36.5505 582.151 36.2673 581.854 36.0752C581.562 35.8831 581.22 35.7871 580.829 35.7871C580.442 35.7871 580.1 35.8831 579.804 36.0752C579.507 36.2673 579.276 36.5505 579.11 36.9248C578.948 37.2992 578.866 37.75 578.866 38.2773ZM588.767 34.7422L590.866 39.8789H590.954L593.054 34.7422H594.616V41.8125H593.396V36.9492H593.327L591.364 41.793H590.456L588.493 36.9297H588.435V41.8125H587.204V34.7422H588.767ZM599.487 34.7422L601.587 39.8789H601.675L603.774 34.7422H605.337V41.8125H604.116V36.9492H604.048L602.085 41.793H601.177L599.214 36.9297H599.155V41.8125H597.925V34.7422H599.487ZM608.646 34.7422H613.245V35.8066H609.915V37.7402H613.001V38.8047H609.915V40.7383H613.265V41.8125H608.646V34.7422ZM622.276 41.8125H621.144L617.794 36.9785H617.735V41.8125H616.466V34.7422H617.618L620.948 39.5762H621.017V34.7422H622.276V41.8125ZM625.585 41.8125V34.7422H628.026C628.726 34.7422 629.33 34.8838 629.838 35.167C630.346 35.4469 630.735 35.8522 631.005 36.3828C631.278 36.9102 631.415 37.5384 631.415 38.2676C631.415 39 631.278 39.6331 631.005 40.167C630.731 40.6976 630.338 41.1045 629.823 41.3877C629.309 41.6709 628.697 41.8125 627.987 41.8125H625.585ZM627.919 40.709C629.403 40.7155 630.146 39.9017 630.146 38.2676C630.146 37.4603 629.962 36.8548 629.594 36.4512C629.226 36.0443 628.681 35.8424 627.958 35.8457H626.854V40.709H627.919ZM634.538 34.7422H639.138V35.8066H635.808V37.7402H638.894V38.8047H635.808V40.7383H639.157V41.8125H634.538V34.7422ZM642.358 41.8125V34.7422H644.8C645.5 34.7422 646.104 34.8838 646.611 35.167C647.119 35.4469 647.508 35.8522 647.778 36.3828C648.052 36.9102 648.188 37.5384 648.188 38.2676C648.188 39 648.052 39.6331 647.778 40.167C647.505 40.6976 647.111 41.1045 646.597 41.3877C646.082 41.6709 645.47 41.8125 644.761 41.8125H642.358ZM644.692 40.709C646.177 40.7155 646.919 39.9017 646.919 38.2676C646.919 37.4603 646.735 36.8548 646.367 36.4512C645.999 36.0443 645.454 35.8424 644.731 35.8457H643.628V40.709H644.692ZM655.685 34.7422H658.39C658.888 34.7422 659.308 34.8203 659.649 34.9766C659.994 35.1328 660.252 35.3493 660.421 35.626C660.593 35.9027 660.681 36.2201 660.685 36.5781C660.681 36.9883 660.566 37.3203 660.338 37.5742C660.113 37.8249 659.815 37.9941 659.444 38.082V38.1504C659.701 38.1634 659.946 38.2415 660.177 38.3848C660.411 38.528 660.6 38.7298 660.743 38.9902C660.886 39.2474 660.958 39.5469 660.958 39.8887C660.958 40.263 660.867 40.5951 660.685 40.8848C660.506 41.1745 660.235 41.4023 659.874 41.5684C659.513 41.7311 659.07 41.8125 658.546 41.8125H655.685V34.7422ZM658.351 40.748C658.797 40.748 659.127 40.6634 659.342 40.4941C659.557 40.3216 659.666 40.0872 659.669 39.791C659.666 39.5794 659.612 39.389 659.508 39.2197C659.404 39.0505 659.254 38.917 659.059 38.8193C658.863 38.7184 658.637 38.668 658.38 38.668H656.954V40.748H658.351ZM658.233 37.75C658.458 37.75 658.658 37.7093 658.834 37.6279C659.013 37.5433 659.155 37.4245 659.259 37.2715C659.363 37.1185 659.415 36.9395 659.415 36.7344C659.412 36.4544 659.311 36.2282 659.112 36.0557C658.914 35.8831 658.631 35.7969 658.263 35.7969H656.954V37.75H658.233ZM670.302 38.2773C670.302 39.0228 670.162 39.6689 669.882 40.2158C669.605 40.7627 669.219 41.1826 668.725 41.4756C668.233 41.7653 667.678 41.9102 667.06 41.9102C666.438 41.9102 665.881 41.7653 665.39 41.4756C664.898 41.1826 664.512 40.7627 664.232 40.2158C663.956 39.6657 663.817 39.0195 663.817 38.2773C663.817 37.5319 663.956 36.8857 664.232 36.3389C664.512 35.7887 664.898 35.3688 665.39 35.0791C665.881 34.7894 666.438 34.6445 667.06 34.6445C667.678 34.6445 668.233 34.791 668.725 35.084C669.219 35.3737 669.605 35.792 669.882 36.3389C670.162 36.8857 670.302 37.5319 670.302 38.2773ZM665.097 38.2773C665.097 38.8047 665.178 39.2555 665.341 39.6299C665.507 40.0042 665.738 40.2874 666.034 40.4795C666.33 40.6715 666.672 40.7676 667.06 40.7676C667.45 40.7676 667.792 40.6715 668.085 40.4795C668.381 40.2874 668.611 40.0042 668.773 39.6299C668.939 39.2555 669.022 38.8047 669.022 38.2773C669.022 37.75 668.939 37.2992 668.773 36.9248C668.611 36.5505 668.381 36.2673 668.085 36.0752C667.792 35.8831 667.45 35.7871 667.06 35.7871C666.672 35.7871 666.33 35.8831 666.034 36.0752C665.738 36.2673 665.507 36.5505 665.341 36.9248C665.178 37.2992 665.097 37.75 665.097 38.2773ZM679.743 38.2773C679.743 39.0228 679.603 39.6689 679.323 40.2158C679.047 40.7627 678.661 41.1826 678.166 41.4756C677.674 41.7653 677.119 41.9102 676.501 41.9102C675.879 41.9102 675.323 41.7653 674.831 41.4756C674.34 41.1826 673.954 40.7627 673.674 40.2158C673.397 39.6657 673.259 39.0195 673.259 38.2773C673.259 37.5319 673.397 36.8857 673.674 36.3389C673.954 35.7887 674.34 35.3688 674.831 35.0791C675.323 34.7894 675.879 34.6445 676.501 34.6445C677.119 34.6445 677.674 34.791 678.166 35.084C678.661 35.3737 679.047 35.792 679.323 36.3389C679.603 36.8857 679.743 37.5319 679.743 38.2773ZM674.538 38.2773C674.538 38.8047 674.619 39.2555 674.782 39.6299C674.948 40.0042 675.179 40.2874 675.476 40.4795C675.772 40.6715 676.114 40.7676 676.501 40.7676C676.892 40.7676 677.233 40.6715 677.526 40.4795C677.823 40.2874 678.052 40.0042 678.215 39.6299C678.381 39.2555 678.464 38.8047 678.464 38.2773C678.464 37.75 678.381 37.2992 678.215 36.9248C678.052 36.5505 677.823 36.2673 677.526 36.0752C677.233 35.8831 676.892 35.7871 676.501 35.7871C676.114 35.7871 675.772 35.8831 675.476 36.0752C675.179 36.2673 674.948 36.5505 674.782 36.9248C674.619 37.2992 674.538 37.75 674.538 38.2773ZM682.876 34.7422H684.146V37.9941H684.243L687.007 34.7422H688.56L685.825 37.916L688.589 41.8125H687.056L684.937 38.7754L684.146 39.7031V41.8125H682.876V34.7422ZM695.179 36.6855C695.146 36.3861 695.011 36.1517 694.773 35.9824C694.539 35.8132 694.233 35.7285 693.855 35.7285C693.589 35.7285 693.356 35.7676 693.157 35.8457C692.962 35.9238 692.812 36.0329 692.708 36.1729C692.604 36.3128 692.552 36.4723 692.552 36.6514C692.552 36.9183 692.664 37.1266 692.889 37.2764C693.113 37.4229 693.405 37.5384 693.763 37.623L694.427 37.7988C695.035 37.9388 695.532 38.1715 695.916 38.4971C696.303 38.8193 696.497 39.2637 696.497 39.8301C696.497 40.2435 696.391 40.6081 696.18 40.9238C695.968 41.2396 695.66 41.4854 695.257 41.6611C694.856 41.8337 694.378 41.9199 693.821 41.9199C693.274 41.9199 692.798 41.8353 692.391 41.666C691.987 41.4935 691.671 41.2428 691.443 40.9141C691.215 40.5853 691.093 40.1914 691.077 39.7324H692.327C692.356 40.0872 692.506 40.359 692.776 40.5479C693.047 40.7367 693.392 40.8327 693.812 40.8359C694.088 40.8359 694.332 40.7936 694.544 40.709C694.759 40.6211 694.926 40.5007 695.047 40.3477C695.167 40.1947 695.228 40.0189 695.228 39.8203C695.224 39.5599 695.117 39.3581 694.905 39.2148C694.694 39.0684 694.375 38.9414 693.948 38.834L693.147 38.6289C691.891 38.3001 691.263 37.6654 691.263 36.7246C691.263 36.3145 691.375 35.9531 691.6 35.6406C691.824 35.3249 692.133 35.0807 692.527 34.9082C692.921 34.7324 693.366 34.6445 693.86 34.6445C694.352 34.6445 694.788 34.7308 695.169 34.9033C695.553 35.0758 695.853 35.3184 696.067 35.6309C696.282 35.9401 696.393 36.2917 696.399 36.6855H695.179Z" fill="#ADB5BD"/>
<path d="M530.162 56.2554C530.162 57.4997 530.538 58.7126 531.29 59.8943C532.051 61.0759 533.099 62.0964 534.432 62.9558C535.766 63.8062 537.261 64.3747 538.917 64.6611L537.574 67.1587C535.551 66.738 533.748 65.9457 532.163 64.782C530.579 63.6182 529.388 62.2173 528.591 60.5791C528.063 61.6533 527.351 62.638 526.456 63.5332C525.561 64.4194 524.532 65.1759 523.368 65.8025C522.204 66.4202 520.951 66.8722 519.608 67.1587L518.292 64.6611C519.921 64.3657 521.399 63.7928 522.723 62.9424C524.057 62.083 525.1 61.0625 525.852 59.8809C526.613 58.6992 526.993 57.4907 526.993 56.2554V54.4561H530.162V56.2554ZM517.621 71.6436H539.803V74.1143H517.621V71.6436ZM553.741 71.187H542.247V55.2886H553.741V71.187ZM550.76 68.7969V57.625H545.175V68.7969H550.76ZM557.421 52.9253H560.402V62.2441H564.135V64.7686H560.402V77.2026H557.421V52.9253ZM584.894 68.0181H567.867V54.832H584.679V57.249H570.902V60.1763H584.115V62.5127H570.902V65.6548H584.894V68.0181ZM565.155 71.8047H587.338V74.2485H565.155V71.8047ZM608.634 66.3262H601.437V71.8853H611.105V74.3291H588.922V71.8853H598.483V66.3262H591.608V54.7246H608.446V57.1147H594.589V63.9629H608.634V66.3262ZM621.659 58.7529C621.65 60.2747 621.883 61.7428 622.357 63.1572C622.832 64.5716 623.521 65.8293 624.425 66.9304C625.338 68.0225 626.421 68.8416 627.675 69.3877L625.875 71.7778C624.532 71.1243 623.378 70.1844 622.411 68.958C621.444 67.7316 620.697 66.3038 620.168 64.6746C619.622 66.4023 618.853 67.9241 617.859 69.24C616.865 70.547 615.688 71.5451 614.327 72.2344L612.448 69.8174C613.728 69.2176 614.833 68.3403 615.764 67.1855C616.695 66.0308 617.402 64.7193 617.886 63.2512C618.369 61.7831 618.615 60.2837 618.624 58.7529V54.8857H621.659V58.7529ZM624.989 60.7671H630.092V52.9253H633.046V77.2295H630.092V63.1841H624.989V60.7671ZM658.585 69.9517H648.971V77.2295H646.017V69.9517H636.456V67.5078H658.585V69.9517ZM637.665 63.6675C639.231 63.4795 640.628 63.108 641.854 62.553C643.081 61.989 644.052 61.3221 644.768 60.5522C645.484 59.7734 645.892 58.9767 645.99 58.1621H638.497V55.7988H646.017V52.9521H648.971V55.7988H656.517V58.1621H649.025C649.123 58.9767 649.526 59.769 650.233 60.5388C650.949 61.3087 651.921 61.9756 653.147 62.5396C654.373 63.1035 655.765 63.4795 657.323 63.6675L656.222 66.0308C654.244 65.7801 652.498 65.2475 650.985 64.4329C649.472 63.6182 648.317 62.6156 647.521 61.425C646.715 62.6246 645.547 63.6317 644.016 64.4463C642.494 65.252 640.735 65.7801 638.739 66.0308L637.665 63.6675ZM668.951 58.6724C668.942 59.6481 669.162 60.5881 669.609 61.4922C670.066 62.3963 670.733 63.202 671.61 63.9092C672.496 64.6164 673.562 65.1624 674.806 65.5474L673.356 67.8838C672.004 67.481 670.831 66.8633 669.838 66.0308C668.844 65.1982 668.065 64.2135 667.501 63.0767C666.955 64.3031 666.181 65.3683 665.178 66.2725C664.176 67.1676 662.981 67.839 661.593 68.2866L660.143 65.9502C661.387 65.5653 662.443 65.0013 663.312 64.2583C664.189 63.5153 664.851 62.6649 665.299 61.707C665.747 60.7402 665.97 59.7287 665.97 58.6724V58.2964H660.895V55.9331H665.97V53.0864H668.978V55.9331H674.027V58.2964H668.951V58.6724ZM664.628 69.4146H667.609V74.3022H681.171V76.7192H664.628V69.4146ZM673.221 60.1763H677.572V52.9521H680.553V70.9722H677.572V62.5664H673.221V60.1763Z" fill="#191F28"/>
<g clip-path="url(#clip1_5778_9103)" filter="url(#filter2_d_5778_9103)">
<g filter="url(#filter3_d_5778_9103)">
<circle cx="56.25" cy="631.812" r="25" fill="white"/>
<mask id="mask0_5778_9103" style="mask-type:alpha" maskUnits="userSpaceOnUse" x="40" y="616" width="32" height="32">
<rect x="40.625" y="616.188" width="31.25" height="31.25" fill="#D9D9D9"/>
</mask>
<g mask="url(#mask0_5778_9103)">
<path d="M48.4375 640.722H52.7946V634.161C52.7946 633.828 52.9073 633.548 53.1328 633.323C53.3585 633.097 53.638 632.984 53.9714 632.984H58.5286C58.862 632.984 59.1415 633.097 59.3672 633.323C59.5927 633.548 59.7054 633.828 59.7054 634.161V640.722H64.0625V629.203C64.0625 629.137 64.0479 629.076 64.0186 629.022C63.9895 628.968 63.9499 628.919 63.8997 628.878L56.488 623.306C56.4211 623.248 56.3418 623.219 56.25 623.219C56.1582 623.219 56.0789 623.248 56.012 623.306L48.6003 628.878C48.5501 628.919 48.5105 628.968 48.4814 629.022C48.4521 629.076 48.4375 629.137 48.4375 629.203V640.722ZM46.4844 640.722V629.203C46.4844 628.831 46.5677 628.478 46.7344 628.144C46.9013 627.811 47.1317 627.536 47.4258 627.32L54.8379 621.736C55.2491 621.423 55.7192 621.266 56.248 621.266C56.7769 621.266 57.2483 621.423 57.6621 621.736L65.0742 627.32C65.3683 627.536 65.5987 627.811 65.7656 628.144C65.9323 628.478 66.0156 628.831 66.0156 629.203V640.722C66.0156 641.254 65.8232 641.713 65.4385 642.098C65.0537 642.482 64.5951 642.675 64.0625 642.675H58.9294C58.5958 642.675 58.3163 642.562 58.0908 642.336C57.8651 642.111 57.7523 641.831 57.7523 641.498V634.938H54.7477V641.498C54.7477 641.831 54.6349 642.111 54.4092 642.336C54.1837 642.562 53.9042 642.675 53.5706 642.675H48.4375C47.9049 642.675 47.4463 642.482 47.0615 642.098C46.6768 641.713 46.4844 641.254 46.4844 640.722Z" fill="#8B95A1"/>
</g>
</g>
<g filter="url(#filter4_d_5778_9103)">
<rect x="1062.5" y="613.062" width="106.875" height="37.5" rx="18.75" fill="white" shape-rendering="crispEdges"/>
<g clip-path="url(#clip2_5778_9103)">
<circle cx="1080.62" cy="631.812" r="15" fill="#ADB5BD"/>
<path d="M1083.08 632.197C1083.77 631.652 1084.28 630.904 1084.53 630.058C1084.77 629.213 1084.75 628.31 1084.46 627.478C1084.18 626.645 1083.64 625.922 1082.92 625.411C1082.2 624.9 1081.34 624.625 1080.46 624.625C1079.58 624.625 1078.72 624.9 1078 625.411C1077.28 625.922 1076.74 626.645 1076.45 627.478C1076.16 628.31 1076.14 629.213 1076.39 630.058C1076.64 630.904 1077.14 631.652 1077.84 632.197C1076.65 632.672 1075.61 633.461 1074.84 634.479C1074.07 635.497 1073.58 636.706 1073.44 637.976C1073.43 638.069 1073.44 638.163 1073.47 638.253C1073.49 638.342 1073.54 638.426 1073.59 638.499C1073.71 638.646 1073.88 638.74 1074.07 638.761C1074.26 638.781 1074.45 638.727 1074.59 638.609C1074.74 638.491 1074.83 638.319 1074.85 638.132C1075.01 636.751 1075.67 635.475 1076.7 634.549C1077.74 633.622 1079.08 633.11 1080.47 633.11C1081.86 633.11 1083.2 633.622 1084.24 634.549C1085.28 635.475 1085.93 636.751 1086.09 638.132C1086.11 638.306 1086.19 638.466 1086.32 638.582C1086.45 638.698 1086.62 638.762 1086.8 638.761H1086.87C1087.06 638.74 1087.23 638.646 1087.35 638.5C1087.46 638.355 1087.52 638.169 1087.5 637.984C1087.35 636.709 1086.87 635.497 1086.09 634.478C1085.31 633.458 1084.27 632.67 1083.08 632.197ZM1080.46 631.695C1079.9 631.695 1079.35 631.529 1078.89 631.219C1078.42 630.908 1078.06 630.467 1077.85 629.95C1077.63 629.434 1077.58 628.865 1077.69 628.317C1077.8 627.769 1078.06 627.265 1078.46 626.87C1078.85 626.475 1079.36 626.205 1079.91 626.096C1080.46 625.987 1081.02 626.043 1081.54 626.257C1082.06 626.471 1082.5 626.833 1082.81 627.298C1083.12 627.763 1083.28 628.309 1083.28 628.868C1083.28 629.618 1082.99 630.337 1082.46 630.867C1081.93 631.397 1081.21 631.695 1080.46 631.695Z" fill="white"/>
</g>
<path d="M1124.16 635.071H1115.15V634.192H1119.12V632.467H1116.25V629.336H1122.03V627.952H1116.23V627.095H1123.06V630.171H1117.28V631.61H1123.29V632.467H1120.15V634.192H1124.16V635.071ZM1132.68 628.457C1132.68 629.032 1132.67 629.53 1132.65 629.951C1132.64 630.369 1132.61 630.854 1132.56 631.407C1132.51 631.96 1132.43 632.562 1132.31 633.214L1131.25 633.115C1131.37 632.504 1131.46 631.927 1131.52 631.385C1131.58 630.843 1131.61 630.361 1131.62 629.94C1131.64 629.519 1131.64 629.025 1131.64 628.457V628.259H1125.84V627.402H1132.68V628.457ZM1124.88 633.983H1133.85V634.851H1124.88V633.983ZM1142.76 633.566H1141.72V626.414H1142.76V633.566ZM1134.8 629.512C1134.8 629.047 1134.91 628.629 1135.14 628.259C1135.37 627.889 1135.69 627.6 1136.09 627.391C1136.49 627.179 1136.93 627.073 1137.42 627.073C1137.91 627.073 1138.36 627.179 1138.75 627.391C1139.15 627.6 1139.46 627.889 1139.69 628.259C1139.92 628.629 1140.04 629.047 1140.04 629.512C1140.04 629.984 1139.92 630.407 1139.69 630.781C1139.46 631.151 1139.15 631.44 1138.75 631.649C1138.36 631.857 1137.91 631.962 1137.42 631.962C1136.93 631.962 1136.49 631.857 1136.09 631.649C1135.69 631.44 1135.37 631.151 1135.14 630.781C1134.91 630.407 1134.8 629.984 1134.8 629.512ZM1135.82 629.512C1135.82 629.816 1135.89 630.085 1136.02 630.319C1136.16 630.55 1136.35 630.729 1136.6 630.858C1136.84 630.986 1137.12 631.05 1137.42 631.05C1137.72 631.05 1137.99 630.986 1138.24 630.858C1138.48 630.729 1138.67 630.55 1138.81 630.319C1138.95 630.085 1139.02 629.816 1139.02 629.512C1139.02 629.215 1138.95 628.951 1138.81 628.721C1138.67 628.486 1138.48 628.305 1138.24 628.177C1137.99 628.049 1137.72 627.985 1137.42 627.985C1137.12 627.985 1136.84 628.049 1136.6 628.177C1136.35 628.305 1136.16 628.486 1136.02 628.721C1135.89 628.951 1135.82 629.215 1135.82 629.512ZM1136.32 632.841H1137.38V635.192H1143.06V636.038H1136.32V632.841Z" fill="#191F28"/>
</g>
</g>
</g>
<defs>
<filter id="filter0_f_5778_9103" x="305" y="-54.4375" width="1375.94" height="1375.94" filterUnits="userSpaceOnUse" color-interpolation-filters="sRGB">
<feFlood flood-opacity="0" result="BackgroundImageFix"/>
<feBlend mode="normal" in="SourceGraphic" in2="BackgroundImageFix" result="shape"/>
<feGaussianBlur stdDeviation="203.125" result="effect1_foregroundBlur_5778_9103"/>
</filter>
<filter id="filter1_f_5778_9103" x="-203.68" y="-224.992" width="1141.38" height="1141.38" filterUnits="userSpaceOnUse" color-interpolation-filters="sRGB">
<feFlood flood-opacity="0" result="BackgroundImageFix"/>
<feBlend mode="normal" in="SourceGraphic" in2="BackgroundImageFix" result="shape"/>
<feGaussianBlur stdDeviation="156.25" result="effect1_foregroundBlur_5778_9103"/>
</filter>
<filter id="filter2_d_5778_9103" x="-9.375" y="597.438" width="1225" height="75" filterUnits="userSpaceOnUse" color-interpolation-filters="sRGB">
<feFlood flood-opacity="0" result="BackgroundImageFix"/>
<feColorMatrix in="SourceAlpha" type="matrix" values="0 0 0 0 0 0 0 0 0 0 0 0 0 0 0 0 0 0 127 0" result="hardAlpha"/>
<feOffset dx="3.125" dy="3.125"/>
<feGaussianBlur stdDeviation="6.25"/>
<feComposite in2="hardAlpha" operator="out"/>
<feColorMatrix type="matrix" values="0 0 0 0 0 0 0 0 0 0 0 0 0 0 0 0 0 0 0.1 0"/>
<feBlend mode="normal" in2="BackgroundImageFix" result="effect1_dropShadow_5778_9103"/>
<feBlend mode="normal" in="SourceGraphic" in2="effect1_dropShadow_5778_9103" result="shape"/>
</filter>
<filter id="filter3_d_5778_9103" x="21.875" y="597.438" width="75" height="75" filterUnits="userSpaceOnUse" color-interpolation-filters="sRGB">
<feFlood flood-opacity="0" result="BackgroundImageFix"/>
<feColorMatrix in="SourceAlpha" type="matrix" values="0 0 0 0 0 0 0 0 0 0 0 0 0 0 0 0 0 0 127 0" result="hardAlpha"/>
<feOffset dx="3.125" dy="3.125"/>
<feGaussianBlur stdDeviation="6.25"/>
<feComposite in2="hardAlpha" operator="out"/>
<feColorMatrix type="matrix" values="0 0 0 0 0 0 0 0 0 0 0 0 0 0 0 0 0 0 0.1 0"/>
<feBlend mode="normal" in2="BackgroundImageFix" result="effect1_dropShadow_5778_9103"/>
<feBlend mode="normal" in="SourceGraphic" in2="effect1_dropShadow_5778_9103" result="shape"/>
</filter>
<filter id="filter4_d_5778_9103" x="1053.12" y="603.688" width="131.875" height="62.5" filterUnits="userSpaceOnUse" color-interpolation-filters="sRGB">
<feFlood flood-opacity="0" result="BackgroundImageFix"/>
<feColorMatrix in="SourceAlpha" type="matrix" values="0 0 0 0 0 0 0 0 0 0 0 0 0 0 0 0 0 0 127 0" result="hardAlpha"/>
<feOffset dx="3.125" dy="3.125"/>
<feGaussianBlur stdDeviation="6.25"/>
<feComposite in2="hardAlpha" operator="out"/>
<feColorMatrix type="matrix" values="0 0 0 0 0 0 0 0 0 0 0 0 0 0 0 0 0 0 0.1 0"/>
<feBlend mode="normal" in2="BackgroundImageFix" result="effect1_dropShadow_5778_9103"/>
<feBlend mode="normal" in="SourceGraphic" in2="effect1_dropShadow_5778_9103" result="shape"/>
</filter>
<linearGradient id="paint0_linear_5778_9103" x1="826.111" y1="-6.85547" x2="746.145" y2="710.752" gradientUnits="userSpaceOnUse">
<stop stop-color="#A1E7FA"/>
<stop offset="0.5" stop-color="white" stop-opacity="0.5"/>
<stop offset="1" stop-color="#FDBEE9"/>
</linearGradient>
<linearGradient id="paint1_linear_5778_9103" x1="447.382" y1="111.978" x2="19.5038" y2="471.144" gradientUnits="userSpaceOnUse">
<stop stop-color="white"/>
<stop offset="1" stop-color="white" stop-opacity="0"/>
</linearGradient>
<clipPath id="clip0_5778_9103">
<rect width="1200" height="675" fill="white" transform="translate(0 0.5625)"/>
</clipPath>
<clipPath id="clip1_5778_9103">
<rect width="1200" height="50" fill="white" transform="translate(0 606.812)"/>
</clipPath>
<clipPath id="clip2_5778_9103">
<rect x="1065.62" y="616.812" width="30" height="30" rx="15" fill="white"/>
</clipPath>
</defs>
</svg>
