<svg width="381" height="676" viewBox="0 0 381 676" fill="none" xmlns="http://www.w3.org/2000/svg">
<g clip-path="url(#clip0_5778_8680)">
<rect width="380.009" height="675.571" transform="translate(0.285156)" fill="#F5F0EE"/>
<rect x="0.285156" width="380.009" height="517.234" fill="url(#paint0_linear_5778_8680)"/>
<path d="M154.82 26.6485H156.343C156.623 26.6485 156.86 26.6925 157.052 26.7804C157.246 26.8684 157.391 26.9903 157.486 27.146C157.583 27.3018 157.633 27.4805 157.635 27.6821C157.633 27.913 157.568 28.0999 157.44 28.2429C157.313 28.384 157.145 28.4793 156.937 28.5287V28.5672C157.081 28.5746 157.219 28.6185 157.349 28.6992C157.481 28.7798 157.587 28.8934 157.668 29.04C157.748 29.1848 157.789 29.3534 157.789 29.5458C157.789 29.7566 157.737 29.9435 157.635 30.1066C157.534 30.2697 157.382 30.398 157.178 30.4915C156.975 30.5831 156.726 30.6289 156.431 30.6289H154.82V26.6485ZM156.321 30.0296C156.572 30.0296 156.758 29.982 156.879 29.8867C157 29.7896 157.061 29.6576 157.063 29.4909C157.061 29.3717 157.031 29.2645 156.972 29.1692C156.914 29.0739 156.829 28.9988 156.719 28.9438C156.609 28.887 156.482 28.8586 156.337 28.8586H155.535V30.0296H156.321ZM156.255 28.3418C156.381 28.3418 156.494 28.3189 156.593 28.2731C156.694 28.2254 156.773 28.1586 156.832 28.0724C156.891 27.9863 156.92 27.8855 156.92 27.77C156.918 27.6124 156.861 27.4851 156.75 27.3879C156.638 27.2908 156.478 27.2423 156.271 27.2423H155.535V28.3418H156.255ZM163.049 28.6387C163.049 29.0584 162.97 29.4221 162.813 29.73C162.657 30.0379 162.44 30.2743 162.161 30.4392C161.884 30.6023 161.572 30.6839 161.224 30.6839C160.874 30.6839 160.56 30.6023 160.284 30.4392C160.007 30.2743 159.79 30.0379 159.632 29.73C159.476 29.4203 159.399 29.0565 159.399 28.6387C159.399 28.219 159.476 27.8553 159.632 27.5474C159.79 27.2377 160.007 27.0013 160.284 26.8382C160.56 26.6751 160.874 26.5935 161.224 26.5935C161.572 26.5935 161.884 26.676 162.161 26.8409C162.44 27.004 162.657 27.2395 162.813 27.5474C162.97 27.8553 163.049 28.219 163.049 28.6387ZM160.119 28.6387C160.119 28.9356 160.165 29.1894 160.256 29.4001C160.35 29.6109 160.48 29.7703 160.647 29.8785C160.813 29.9866 161.006 30.0406 161.224 30.0406C161.444 30.0406 161.636 29.9866 161.801 29.8785C161.968 29.7703 162.097 29.6109 162.189 29.4001C162.282 29.1894 162.329 28.9356 162.329 28.6387C162.329 28.3418 162.282 28.088 162.189 27.8773C162.097 27.6665 161.968 27.5071 161.801 27.3989C161.636 27.2908 161.444 27.2368 161.224 27.2368C161.006 27.2368 160.813 27.2908 160.647 27.3989C160.48 27.5071 160.35 27.6665 160.256 27.8773C160.165 28.088 160.119 28.3418 160.119 28.6387ZM168.364 28.6387C168.364 29.0584 168.286 29.4221 168.128 29.73C167.972 30.0379 167.755 30.2743 167.476 30.4392C167.2 30.6023 166.887 30.6839 166.539 30.6839C166.189 30.6839 165.876 30.6023 165.599 30.4392C165.322 30.2743 165.105 30.0379 164.947 29.73C164.792 29.4203 164.714 29.0565 164.714 28.6387C164.714 28.219 164.792 27.8553 164.947 27.5474C165.105 27.2377 165.322 27.0013 165.599 26.8382C165.876 26.6751 166.189 26.5935 166.539 26.5935C166.887 26.5935 167.2 26.676 167.476 26.8409C167.755 27.004 167.972 27.2395 168.128 27.5474C168.286 27.8553 168.364 28.219 168.364 28.6387ZM165.434 28.6387C165.434 28.9356 165.48 29.1894 165.571 29.4001C165.665 29.6109 165.795 29.7703 165.962 29.8785C166.129 29.9866 166.321 30.0406 166.539 30.0406C166.759 30.0406 166.951 29.9866 167.116 29.8785C167.283 29.7703 167.412 29.6109 167.504 29.4001C167.597 29.1894 167.644 28.9356 167.644 28.6387C167.644 28.3418 167.597 28.088 167.504 27.8773C167.412 27.6665 167.283 27.5071 167.116 27.3989C166.951 27.2908 166.759 27.2368 166.539 27.2368C166.321 27.2368 166.129 27.2908 165.962 27.3989C165.795 27.5071 165.665 27.6665 165.571 27.8773C165.48 28.088 165.434 28.3418 165.434 28.6387ZM170.128 26.6485H170.843V28.4793H170.898L172.454 26.6485H173.328L171.788 28.4353L173.344 30.6289H172.481L171.288 28.9191L170.843 29.4414V30.6289H170.128V26.6485ZM178.087 30.6289H177.372V26.6485H178.087V30.6289ZM183.226 30.6289H182.588L180.703 27.9075H180.67V30.6289H179.955V26.6485H180.604L182.478 29.3699H182.517V26.6485H183.226V30.6289ZM185.089 26.6485H187.64V27.2478H185.803V28.3363H187.464V28.9356H185.803V30.6289H185.089V26.6485ZM192.922 28.6387C192.922 29.0584 192.843 29.4221 192.686 29.73C192.53 30.0379 192.313 30.2743 192.034 30.4392C191.757 30.6023 191.445 30.6839 191.097 30.6839C190.747 30.6839 190.433 30.6023 190.157 30.4392C189.88 30.2743 189.663 30.0379 189.505 29.73C189.349 29.4203 189.271 29.0565 189.271 28.6387C189.271 28.219 189.349 27.8553 189.505 27.5474C189.663 27.2377 189.88 27.0013 190.157 26.8382C190.433 26.6751 190.747 26.5935 191.097 26.5935C191.445 26.5935 191.757 26.676 192.034 26.8409C192.313 27.004 192.53 27.2395 192.686 27.5474C192.843 27.8553 192.922 28.219 192.922 28.6387ZM189.992 28.6387C189.992 28.9356 190.037 29.1894 190.129 29.4001C190.223 29.6109 190.353 29.7703 190.519 29.8785C190.686 29.9866 190.879 30.0406 191.097 30.0406C191.317 30.0406 191.509 29.9866 191.674 29.8785C191.841 29.7703 191.97 29.6109 192.062 29.4001C192.155 29.1894 192.202 28.9356 192.202 28.6387C192.202 28.3418 192.155 28.088 192.062 27.8773C191.97 27.6665 191.841 27.5071 191.674 27.3989C191.509 27.2908 191.317 27.2368 191.097 27.2368C190.879 27.2368 190.686 27.2908 190.519 27.3989C190.353 27.5071 190.223 27.6665 190.129 27.8773C190.037 28.088 189.992 28.3418 189.992 28.6387ZM194.686 26.6485H196.181C196.48 26.6485 196.734 26.7016 196.943 26.8079C197.153 26.9124 197.312 27.0599 197.418 27.2505C197.526 27.4411 197.581 27.6638 197.583 27.9185C197.581 28.1897 197.519 28.4234 197.396 28.6195C197.275 28.8137 197.098 28.9576 196.866 29.051L197.726 30.6289H196.929L196.148 29.172H195.4V30.6289H194.686V26.6485ZM196.071 28.5727C196.592 28.5746 196.852 28.3565 196.852 27.9185C196.852 27.7022 196.788 27.5364 196.659 27.4209C196.531 27.3055 196.335 27.2478 196.071 27.2478H195.4V28.5727H196.071ZM200.204 26.6485L201.386 29.5403H201.436L202.618 26.6485H203.498V30.6289H202.81V27.891H202.772L201.667 30.6179H201.155L200.05 27.88H200.017V30.6289H199.325V26.6485H200.204ZM205.102 30.6289L206.504 26.6485H207.383L208.791 30.6289H208.027L207.694 29.6448H206.196L205.866 30.6289H205.102ZM207.502 29.0675L206.96 27.4622H206.927L206.388 29.0675H207.502ZM209.73 26.6485H212.902V27.2478H211.676V30.6289H210.961V27.2478H209.73V26.6485ZM215.304 30.6289H214.589V26.6485H215.304V30.6289ZM220.723 28.6387C220.723 29.0584 220.645 29.4221 220.487 29.73C220.331 30.0379 220.114 30.2743 219.835 30.4392C219.559 30.6023 219.246 30.6839 218.898 30.6839C218.548 30.6839 218.235 30.6023 217.958 30.4392C217.681 30.2743 217.464 30.0379 217.306 29.73C217.151 29.4203 217.073 29.0565 217.073 28.6387C217.073 28.219 217.151 27.8553 217.306 27.5474C217.464 27.2377 217.681 27.0013 217.958 26.8382C218.235 26.6751 218.548 26.5935 218.898 26.5935C219.246 26.5935 219.559 26.676 219.835 26.8409C220.114 27.004 220.331 27.2395 220.487 27.5474C220.645 27.8553 220.723 28.219 220.723 28.6387ZM217.793 28.6387C217.793 28.9356 217.839 29.1894 217.93 29.4001C218.024 29.6109 218.154 29.7703 218.321 29.8785C218.488 29.9866 218.68 30.0406 218.898 30.0406C219.118 30.0406 219.31 29.9866 219.475 29.8785C219.642 29.7703 219.771 29.6109 219.863 29.4001C219.956 29.1894 220.003 28.9356 220.003 28.6387C220.003 28.3418 219.956 28.088 219.863 27.8773C219.771 27.6665 219.642 27.5071 219.475 27.3989C219.31 27.2908 219.118 27.2368 218.898 27.2368C218.68 27.2368 218.488 27.2908 218.321 27.3989C218.154 27.5071 218.024 27.6665 217.93 27.8773C217.839 28.088 217.793 28.3418 217.793 28.6387ZM225.758 30.6289H225.12L223.235 27.9075H223.202V30.6289H222.487V26.6485H223.136L225.01 29.3699H225.049V26.6485H225.758V30.6289Z" fill="#8B95A1"/>
<path d="M175.079 44.6677H171.027V47.7973H176.47V49.1732H163.982V47.7973H169.364V44.6677H165.494V38.1363H174.974V39.4819H167.172V43.3372H175.079V44.6677ZM182.412 40.4042C182.407 41.2609 182.538 42.0874 182.805 42.8837C183.072 43.6799 183.46 44.388 183.969 45.0079C184.483 45.6227 185.093 46.0839 185.799 46.3913L184.786 47.7369C184.03 47.369 183.38 46.8398 182.835 46.1494C182.291 45.4589 181.87 44.6551 181.573 43.7379C181.266 44.7106 180.832 45.5673 180.273 46.3081C179.713 47.0439 179.051 47.6058 178.285 47.9939L177.226 46.6332C177.947 46.2955 178.569 45.8016 179.093 45.1515C179.618 44.5014 180.016 43.7631 180.288 42.9366C180.56 42.1101 180.699 41.2659 180.704 40.4042V38.227H182.412V40.4042ZM184.287 41.5381H187.159V37.1233H188.823V50.806H187.159V42.8988H184.287V41.5381ZM202.188 45.2422H200.509V41.9009H198.181V40.5251H200.509V37.1233H202.188V45.2422ZM190.697 43.8815C191.408 43.6396 192.015 43.2894 192.519 42.8308C193.028 42.3721 193.411 41.8531 193.668 41.2735C193.925 40.6939 194.054 40.0967 194.054 39.4819V39.3761H191.211V38.0154H198.589V39.3761H195.762V39.4668C195.762 40.0312 195.886 40.5805 196.133 41.1148C196.379 41.6439 196.745 42.1202 197.229 42.5435C197.712 42.9618 198.297 43.2868 198.982 43.5187L198.136 44.8491C197.395 44.5972 196.755 44.2267 196.216 43.7379C195.676 43.244 195.251 42.667 194.938 42.0068C194.631 42.7526 194.192 43.4028 193.623 43.9571C193.053 44.5115 192.37 44.9298 191.574 45.212L190.697 43.8815ZM192.92 48.1904C192.915 47.6512 193.099 47.1875 193.472 46.7995C193.845 46.4064 194.379 46.1065 195.074 45.8999C195.775 45.6933 196.604 45.59 197.561 45.59C198.524 45.59 199.355 45.6933 200.056 45.8999C200.756 46.1065 201.293 46.4039 201.666 46.7919C202.044 47.18 202.233 47.6462 202.233 48.1904C202.233 48.7347 202.044 49.2009 201.666 49.5889C201.293 49.977 200.756 50.2743 200.056 50.481C199.355 50.6876 198.524 50.7909 197.561 50.7909C196.604 50.7909 195.775 50.6876 195.074 50.481C194.379 50.2743 193.845 49.9745 193.472 49.5814C193.099 49.1933 192.915 48.7297 192.92 48.1904ZM194.583 48.1904C194.578 48.6087 194.83 48.9313 195.339 49.1581C195.853 49.3798 196.579 49.4907 197.516 49.4907C198.494 49.4907 199.245 49.3798 199.769 49.1581C200.293 48.9363 200.555 48.6138 200.555 48.1904C200.555 47.7671 200.295 47.442 199.776 47.2153C199.262 46.9885 198.524 46.8751 197.561 46.8751C196.609 46.8751 195.873 46.9885 195.354 47.2153C194.835 47.442 194.578 47.7671 194.583 48.1904ZM216.611 49.1429H204.123V47.7671H209.505V45.1062H205.499V38.0305H207.177V40.2681H213.512V38.0305H215.19V45.1062H211.168V47.7671H216.611V49.1429ZM213.512 43.7455V41.6137H207.177V43.7455H213.512Z" fill="#191F28"/>
<g clip-path="url(#clip1_5778_8680)">
<path d="M20.3777 641.223L17.5898 644.037L20.3777 646.851V644.741H25.2564C27.1896 644.741 28.7412 646.307 28.7412 648.259C28.7412 650.21 27.1896 651.777 25.2564 651.777H18.2868V653.184H25.2564C27.9428 653.184 30.1352 650.971 30.1352 648.259C30.1352 645.547 27.9428 643.333 25.2564 643.333H20.3777V641.223Z" fill="#191F28"/>
</g>
<g filter="url(#filter0_d_5778_8680)">
<rect x="294.457" y="637.008" width="68.3268" height="21.108" rx="10.554" fill="white"/>
<g clip-path="url(#clip2_5778_8680)">
<circle cx="304.658" cy="647.56" r="8.4432" fill="#FFEBE7"/>
<g clip-path="url(#clip3_5778_8680)">
<path d="M301.248 644.094C301.248 644.094 299.21 649.65 302.826 651.335L304.148 650.812L304.81 648.538C304.81 648.538 302.07 644.419 302.07 644.441C302.07 644.464 301.248 644.094 301.248 644.094Z" fill="#642718"/>
<path d="M308.172 644.094C308.172 644.094 310.211 649.65 306.594 651.335L305.273 650.812L304.609 648.538C304.609 648.538 307.35 644.419 307.35 644.441C307.35 644.464 308.172 644.094 308.172 644.094Z" fill="#642718"/>
<path d="M303.148 648.676V650.972L300.465 651.945L304.709 655.513L308.849 651.945L306.166 650.972V648.676H303.148Z" fill="#F5CCC1"/>
<path d="M303.112 642.456C304.092 641.848 305.332 641.848 306.312 642.456C307.381 643.118 307.931 644.371 307.696 645.606L307.253 647.536C307.086 648.266 306.628 648.895 305.986 649.279L305.549 649.54C305.035 649.848 304.392 649.848 303.876 649.54L303.439 649.279C302.797 648.895 302.34 648.266 302.173 647.536L301.73 645.606C301.494 644.37 302.044 643.118 303.112 642.456Z" fill="#F5CCC1"/>
<path d="M303.777 646.027V646.234" stroke="#300021" stroke-width="0.5277" stroke-miterlimit="10" stroke-linecap="round"/>
<path d="M305.648 646.027V646.234" stroke="#300021" stroke-width="0.5277" stroke-miterlimit="10" stroke-linecap="round"/>
<path d="M303.379 645.416C303.45 645.383 303.568 645.359 303.7 645.356C303.833 645.353 303.95 645.371 304.022 645.401" stroke="#642718" stroke-width="0.3518" stroke-miterlimit="10" stroke-linecap="round" stroke-linejoin="round"/>
<path d="M306.045 645.416C305.975 645.383 305.856 645.359 305.724 645.356C305.592 645.353 305.474 645.371 305.402 645.401" stroke="#642718" stroke-width="0.3518" stroke-miterlimit="10" stroke-linecap="round" stroke-linejoin="round"/>
<path d="M305.39 647.621C305.239 647.725 304.989 647.792 304.71 647.792C304.43 647.792 304.183 647.725 304.031 647.621" stroke="#C0655E" stroke-width="0.3518" stroke-miterlimit="10" stroke-linecap="round" stroke-linejoin="round"/>
<path d="M304.973 646.914C304.973 646.997 304.857 647.063 304.713 647.063C304.57 647.063 304.453 646.997 304.453 646.914C304.453 646.832 304.57 646.766 304.713 646.766C304.857 646.766 304.973 646.832 304.973 646.914Z" fill="#DD7766"/>
<path d="M301.82 646.584C301.82 646.584 302.236 646.257 302.291 645.611C302.346 644.965 302.795 644.219 302.795 644.219L301.674 644.265C301.674 644.266 301.262 645.019 301.82 646.584Z" fill="#642718"/>
<path d="M307.602 646.585C307.602 646.585 307.186 646.257 307.131 645.611C307.077 644.965 306.535 643.98 306.535 643.98L307.749 644.264C307.75 644.266 308.16 645.019 307.602 646.585Z" fill="#642718"/>
<path d="M305.984 649.277L305.548 649.538C305.033 649.847 304.39 649.847 303.874 649.538L303.438 649.277" stroke="#C0655E" stroke-width="0.21108" stroke-miterlimit="10" stroke-linecap="round" stroke-linejoin="round"/>
<path d="M303.148 650.93L304.657 652.805L306.166 650.93L309.714 651.861C310.665 652.072 311.341 652.917 311.341 653.891V656.226H297.973V653.891C297.973 652.917 298.649 652.074 299.6 651.861L303.148 650.93Z" fill="#FFC238"/>
<path d="M302.246 645.471C302.246 645.471 303.952 645.315 304.451 643.524L304.813 642L302.586 643.736L302.246 645.471Z" fill="#642718"/>
<path d="M307.894 646.364C307.489 646.868 307.26 645.574 307.26 645.574C307.26 645.574 307.1 644.772 306.837 644.35C306.783 644.263 306.7 644.177 306.594 644.095H306.593C306.183 643.778 305.432 643.525 304.711 643.525C304.636 643.525 304.561 643.528 304.486 643.533C303.649 643.591 302.826 643.961 302.585 644.35C302.32 644.772 302.161 645.574 302.161 645.574C302.161 645.574 301.932 646.868 301.527 646.364C301.123 645.86 300.946 644.498 301.444 643.617C301.942 642.735 303.168 641.556 304.027 641.418C304.328 641.37 304.549 641.439 304.711 641.549C304.872 641.439 305.093 641.37 305.394 641.418C306.253 641.556 307.48 642.735 307.976 643.617C308.474 644.498 308.297 645.86 307.894 646.364Z" fill="#642718"/>
<path d="M302.418 646.429C302.522 646.941 302.359 647.428 302.053 647.516C301.747 647.603 301.414 647.259 301.309 646.745C301.204 646.233 301.368 645.746 301.674 645.658C301.98 645.57 302.313 645.916 302.418 646.429Z" fill="#F5CCC1"/>
<path d="M301.969 647.113C301.962 647.115 301.953 647.116 301.944 647.117C301.829 647.125 301.666 646.953 301.606 646.661C301.575 646.507 301.58 646.35 301.62 646.23C301.638 646.176 301.679 646.084 301.754 646.063C301.761 646.061 301.77 646.06 301.779 646.059" stroke="#C0655E" stroke-width="0.21108" stroke-miterlimit="10" stroke-linecap="round" stroke-linejoin="round"/>
<path d="M308.125 646.678C308.207 646.16 308.02 645.699 307.707 645.65C307.394 645.6 307.074 645.981 306.992 646.499C306.91 647.017 307.097 647.478 307.41 647.527C307.723 647.576 308.043 647.196 308.125 646.678Z" fill="#F5CCC1"/>
<path d="M307.449 647.113C307.457 647.115 307.465 647.116 307.474 647.117C307.589 647.125 307.752 646.953 307.812 646.661C307.843 646.507 307.839 646.35 307.798 646.23C307.78 646.176 307.739 646.084 307.664 646.063C307.657 646.061 307.648 646.06 307.641 646.059" stroke="#C0655E" stroke-width="0.21108" stroke-miterlimit="10" stroke-linecap="round" stroke-linejoin="round"/>
<path d="M306.596 644.097H306.595C306.185 643.78 305.434 643.527 304.713 643.527C304.638 643.527 304.563 643.53 304.488 643.535L304.496 643.462C304.496 643.462 304.666 642.892 305.019 642.825C305.372 642.756 306.307 643.466 306.596 644.097Z" fill="#300021"/>
<path d="M302.426 644.923C302.426 644.923 303.433 644.451 303.741 643.619C304.048 642.788 304.452 642.621 304.452 642.621" stroke="#300021" stroke-width="0.21108" stroke-miterlimit="10" stroke-linecap="round"/>
<path d="M302.551 644.136C302.551 644.136 303.19 643.767 303.345 643.25C303.5 642.735 303.765 642.574 303.765 642.574" stroke="#300021" stroke-width="0.21108" stroke-miterlimit="10" stroke-linecap="round"/>
<path d="M307.059 643.668C307.235 643.99 307.344 644.35 307.375 644.714" stroke="#300021" stroke-width="0.21108" stroke-miterlimit="10" stroke-linecap="round"/>
<path d="M307.625 643.906C307.714 644.254 307.745 644.617 307.714 644.975" stroke="#300021" stroke-width="0.21108" stroke-miterlimit="10" stroke-linecap="round"/>
<path d="M303.148 650.23C303.148 650.23 302.32 650.327 301.672 651.361L303.249 653.544C303.401 653.755 303.705 653.781 303.89 653.599L304.656 652.85L303.147 650.974V650.23H303.148Z" fill="#F7EFEE"/>
<path d="M306.169 650.23C306.169 650.23 306.997 650.327 307.645 651.361L306.027 653.601C305.896 653.781 305.636 653.803 305.477 653.648L304.66 652.85L306.169 650.974V650.23Z" fill="#F7EFEE"/>
</g>
</g>
<path d="M323.539 647.685H322.748V644.506H323.539V647.685ZM318.914 646.12C318.914 645.856 318.981 645.621 319.115 645.415C319.249 645.209 319.432 645.048 319.665 644.933C319.9 644.818 320.163 644.76 320.454 644.76C320.742 644.76 321.003 644.818 321.236 644.933C321.471 645.048 321.655 645.209 321.789 645.415C321.925 645.621 321.993 645.856 321.993 646.12C321.993 646.374 321.925 646.603 321.789 646.807C321.655 647.011 321.471 647.172 321.236 647.289C321.003 647.405 320.742 647.462 320.454 647.462C320.165 647.462 319.903 647.405 319.668 647.289C319.433 647.172 319.249 647.011 319.115 646.807C318.981 646.603 318.914 646.374 318.914 646.12ZM319.687 646.12C319.685 646.256 319.716 646.376 319.78 646.479C319.846 646.582 319.936 646.661 320.052 646.717C320.169 646.773 320.303 646.801 320.454 646.801C320.6 646.801 320.73 646.773 320.843 646.717C320.959 646.661 321.049 646.582 321.115 646.479C321.181 646.376 321.214 646.256 321.214 646.12C321.214 645.976 321.181 645.851 321.115 645.746C321.049 645.641 320.959 645.561 320.843 645.505C320.73 645.449 320.6 645.422 320.454 645.422C320.303 645.422 320.169 645.449 320.052 645.505C319.936 645.561 319.846 645.641 319.78 645.746C319.716 645.851 319.685 645.976 319.687 646.12ZM319.767 647.938H323.539V650.066H319.767V647.938ZM322.766 649.435V648.563H320.546V649.435H322.766ZM326.489 645.774C326.487 646.126 326.54 646.467 326.647 646.794C326.754 647.122 326.915 647.414 327.129 647.669C327.344 647.925 327.604 648.118 327.911 648.248L327.448 648.878C327.134 648.736 326.864 648.532 326.638 648.266C326.413 648 326.235 647.688 326.103 647.329C325.973 647.721 325.79 648.062 325.555 648.353C325.32 648.641 325.036 648.862 324.702 649.014L324.226 648.359C324.543 648.225 324.811 648.026 325.03 647.762C325.25 647.496 325.415 647.192 325.524 646.85C325.634 646.506 325.689 646.147 325.691 645.774V644.933H326.489V645.774ZM328.215 644.5H329.012V650.14H328.215V644.5ZM331.337 644.803C331.56 644.803 331.767 644.841 331.959 644.918C332.153 644.994 332.318 645.102 332.454 645.242H333.731V644.5H334.516V647.796H333.731V647.122H332.447C332.311 647.26 332.148 647.367 331.956 647.444C331.764 647.518 331.558 647.555 331.337 647.555C331.057 647.555 330.803 647.496 330.574 647.379C330.347 647.259 330.169 647.095 330.039 646.887C329.909 646.677 329.845 646.442 329.847 646.182C329.845 645.92 329.909 645.684 330.039 645.474C330.169 645.264 330.347 645.1 330.574 644.982C330.803 644.863 331.057 644.803 331.337 644.803ZM330.595 646.182C330.595 646.324 330.626 646.449 330.688 646.556C330.752 646.663 330.841 646.746 330.954 646.804C331.067 646.859 331.197 646.887 331.344 646.887C331.484 646.887 331.61 646.859 331.721 646.804C331.832 646.746 331.92 646.663 331.984 646.556C332.048 646.449 332.08 646.324 332.08 646.182C332.08 646.036 332.048 645.91 331.984 645.805C331.92 645.698 331.832 645.616 331.721 645.561C331.612 645.503 331.486 645.475 331.344 645.477C331.197 645.475 331.067 645.503 330.954 645.561C330.841 645.616 330.752 645.698 330.688 645.805C330.626 645.91 330.595 646.036 330.595 646.182ZM330.657 649.021C330.657 648.79 330.736 648.591 330.892 648.424C331.049 648.257 331.272 648.13 331.563 648.044C331.854 647.957 332.197 647.914 332.593 647.914C332.989 647.914 333.332 647.957 333.622 648.044C333.915 648.13 334.14 648.257 334.296 648.424C334.455 648.591 334.535 648.79 334.535 649.021C334.535 649.251 334.455 649.45 334.296 649.617C334.14 649.784 333.915 649.911 333.622 649.998C333.332 650.084 332.989 650.128 332.593 650.128C332.197 650.128 331.854 650.084 331.563 649.998C331.272 649.911 331.049 649.784 330.892 649.617C330.736 649.45 330.657 649.251 330.657 649.021ZM331.43 649.021C331.43 649.183 331.53 649.307 331.73 649.392C331.93 649.474 332.218 649.515 332.593 649.515C332.974 649.515 333.264 649.474 333.462 649.392C333.66 649.307 333.759 649.183 333.762 649.021C333.759 648.854 333.66 648.728 333.462 648.643C333.266 648.559 332.976 648.516 332.593 648.514C332.216 648.516 331.927 648.559 331.727 648.643C331.529 648.728 331.43 648.854 331.43 649.021ZM332.791 645.867C332.815 645.966 332.828 646.071 332.828 646.182C332.828 646.285 332.816 646.388 332.794 646.491H333.731V645.867H332.791ZM341.38 647.685H340.904V644.562H341.38V647.685ZM337.194 644.89H337.682V646.85C338.162 646.846 338.611 646.825 339.027 646.788C339.444 646.749 339.861 646.685 340.279 646.596L340.354 647.005C339.906 647.095 339.466 647.16 339.033 647.199C338.601 647.239 338.136 647.26 337.639 647.264H337.194V644.89ZM337.812 647.938H341.38V649.985H337.812V647.938ZM340.904 649.59V648.328H338.288V649.59H340.904Z" fill="#191F28"/>
<g clip-path="url(#clip4_5778_8680)">
<path d="M354.125 646.344L355.363 647.577L354.125 648.811" stroke="#6B7684" stroke-width="0.7036" stroke-miterlimit="10" stroke-linecap="round" stroke-linejoin="round"/>
<path d="M355.366 647.578H350.676" stroke="#6B7684" stroke-width="0.7036" stroke-miterlimit="10" stroke-linecap="round" stroke-linejoin="round"/>
<path d="M352.888 649.405V649.792C352.888 650.306 352.463 650.729 351.948 650.729H348.966C348.46 650.729 348.035 650.306 348.035 649.792V645.362C348.035 644.849 348.46 644.426 348.975 644.426H351.957C352.463 644.426 352.888 644.849 352.888 645.362V645.722" stroke="#6B7684" stroke-width="0.7036" stroke-miterlimit="10" stroke-linecap="round" stroke-linejoin="round"/>
</g>
</g>
</g>
<defs>
<filter id="filter0_d_5778_8680" x="289.18" y="631.731" width="82.4001" height="35.1814" filterUnits="userSpaceOnUse" color-interpolation-filters="sRGB">
<feFlood flood-opacity="0" result="BackgroundImageFix"/>
<feColorMatrix in="SourceAlpha" type="matrix" values="0 0 0 0 0 0 0 0 0 0 0 0 0 0 0 0 0 0 127 0" result="hardAlpha"/>
<feOffset dx="1.759" dy="1.759"/>
<feGaussianBlur stdDeviation="3.518"/>
<feComposite in2="hardAlpha" operator="out"/>
<feColorMatrix type="matrix" values="0 0 0 0 0 0 0 0 0 0 0 0 0 0 0 0 0 0 0.1 0"/>
<feBlend mode="normal" in2="BackgroundImageFix" result="effect1_dropShadow_5778_8680"/>
<feBlend mode="normal" in="SourceGraphic" in2="effect1_dropShadow_5778_8680" result="shape"/>
</filter>
<linearGradient id="paint0_linear_5778_8680" x1="17.3504" y1="1.1989e-06" x2="194.586" y2="515.758" gradientUnits="userSpaceOnUse">
<stop stop-color="#EDE3DA"/>
<stop offset="1" stop-color="#D9D0C9"/>
</linearGradient>
<clipPath id="clip0_5778_8680">
<rect width="380.009" height="675.571" fill="white" transform="translate(0.285156)"/>
</clipPath>
<clipPath id="clip1_5778_8680">
<rect width="16.7271" height="16.8864" fill="white" transform="translate(17.5898 639.109)"/>
</clipPath>
<clipPath id="clip2_5778_8680">
<rect x="296.215" y="639.117" width="16.8864" height="16.8864" rx="8.4432" fill="white"/>
</clipPath>
<clipPath id="clip3_5778_8680">
<rect width="13.3684" height="14.8653" fill="white" transform="translate(297.973 641.402)"/>
</clipPath>
<clipPath id="clip4_5778_8680">
<rect width="8.0914" height="7.2119" fill="white" transform="translate(347.656 643.953)"/>
</clipPath>
</defs>
</svg>
