<svg width="3840" height="2160" viewBox="0 0 3840 2160" fill="none" xmlns="http://www.w3.org/2000/svg">
<g clip-path="url(#clip0_6245_6493)">
<rect width="3840" height="2160" fill="#E4E3E5"/>
<rect width="3840" height="2160" fill="url(#paint0_linear_6245_6493)"/>
<g filter="url(#filter0_f_6245_6493)">
<circle cx="3624" cy="1210" r="296" fill="#FF32DE" fill-opacity="0.7"/>
</g>
<g filter="url(#filter1_f_6245_6493)">
<circle cx="743" cy="857" r="477" fill="#FFE794"/>
</g>
<g filter="url(#filter2_f_6245_6493)">
<circle cx="1021.5" cy="1959.5" r="901.5" fill="#BFF0D5" fill-opacity="0.8"/>
</g>
<path d="M1624.33 113.594C1624.13 111.641 1622.49 110.516 1620.05 110.531C1617.48 110.516 1615.94 111.766 1615.93 113.469C1615.91 115.375 1617.93 116.156 1619.8 116.594L1621.93 117.156C1625.3 117.938 1628.55 119.719 1628.55 123.656C1628.55 127.625 1625.41 130.344 1619.99 130.344C1614.73 130.344 1611.38 127.812 1611.21 123.344H1615.21C1615.4 125.703 1617.38 126.859 1619.96 126.875C1622.63 126.859 1624.48 125.562 1624.49 123.625C1624.48 121.844 1622.85 121.094 1620.4 120.469L1617.83 119.812C1614.12 118.844 1611.8 116.969 1611.8 113.719C1611.8 109.719 1615.35 107.062 1620.12 107.062C1624.91 107.062 1628.18 109.766 1628.24 113.594H1624.33ZM1638.33 107.375H1643.33L1650.05 123.812H1650.33L1657.05 107.375H1662.05V130H1658.14V114.438H1657.92L1651.64 129.938H1648.73L1642.45 114.375H1642.27V130H1638.33V107.375ZM1675.51 130H1671.17L1679.13 107.375H1684.13L1692.13 130H1687.79L1685.9 124.406H1677.38L1675.51 130ZM1678.48 121.125H1684.81L1681.73 112H1681.54L1678.48 121.125ZM1701.22 130V107.375H1709.72C1714.91 107.375 1717.68 110.281 1717.69 114.594C1717.68 117.672 1716.27 119.953 1713.61 121.031L1718.5 130H1713.97L1709.53 121.719H1705.28V130H1701.22ZM1705.28 118.312H1709.1C1712.16 118.328 1713.53 117.016 1713.53 114.594C1713.53 112.188 1712.16 110.781 1709.1 110.781H1705.28V118.312ZM1726.59 110.781V107.375H1744.62V110.781H1737.65V130H1733.59V110.781H1726.59ZM1768.2 130V107.375H1776.7C1781.89 107.375 1784.66 110.281 1784.67 114.594C1784.66 117.672 1783.25 119.953 1780.59 121.031L1785.48 130H1780.95L1776.52 121.719H1772.27V130H1768.2ZM1772.27 118.312H1776.08C1779.14 118.328 1780.52 117.016 1780.52 114.594C1780.52 112.188 1779.14 110.781 1776.08 110.781H1772.27V118.312ZM1794.57 130V107.375H1809.29V110.781H1798.63V116.969H1808.51V120.375H1798.63V126.562H1809.35V130H1794.57ZM1834.85 115C1834.36 112.281 1832.19 110.719 1829.44 110.719C1825.74 110.719 1823.11 113.562 1823.13 118.688C1823.11 123.891 1825.75 126.656 1829.44 126.656C1832.13 126.656 1834.3 125.156 1834.85 122.5H1838.94C1838.32 126.844 1834.74 130.312 1829.38 130.312C1823.41 130.312 1819.02 125.984 1819.03 118.688C1819.02 111.375 1823.46 107.062 1829.38 107.062C1834.38 107.062 1838.24 109.969 1838.94 115H1834.85ZM1869.03 118.688C1869.04 126 1864.58 130.312 1858.65 130.312C1852.7 130.312 1848.26 125.984 1848.28 118.688C1848.26 111.375 1852.7 107.062 1858.65 107.062C1864.58 107.062 1869.04 111.375 1869.03 118.688ZM1852.37 118.688C1852.36 123.859 1854.97 126.656 1858.65 126.656C1862.36 126.656 1864.95 123.859 1864.93 118.688C1864.95 113.516 1862.36 110.719 1858.65 110.719C1854.97 110.719 1852.36 113.516 1852.37 118.688ZM1879.05 107.375H1884.05L1890.77 123.812H1891.05L1897.77 107.375H1902.77V130H1898.87V114.438H1898.65L1892.37 129.938H1889.46L1883.18 114.375H1882.99V130H1879.05V107.375ZM1913.36 107.375H1918.36L1925.08 123.812H1925.36L1932.08 107.375H1937.08V130H1933.17V114.438H1932.95L1926.67 129.938H1923.77L1917.48 114.375H1917.3V130H1913.36V107.375ZM1947.67 130V107.375H1962.38V110.781H1951.73V116.969H1961.6V120.375H1951.73V126.562H1962.45V130H1947.67ZM1991.28 107.375V130H1987.66L1976.94 114.531H1976.75V130H1972.69V107.375H1976.38L1987.03 122.844H1987.25V107.375H1991.28ZM2009.56 130H2001.87V107.375H2009.68C2016.43 107.375 2020.51 111.609 2020.53 118.656C2020.51 125.734 2016.43 130 2009.56 130ZM2005.93 126.469H2009.34C2014.08 126.484 2016.47 123.875 2016.47 118.656C2016.47 113.469 2014.08 110.891 2009.47 110.906H2005.93V126.469ZM2030.52 130V107.375H2045.24V110.781H2034.58V116.969H2044.46V120.375H2034.58V126.562H2045.3V130H2030.52ZM2063.23 130H2055.55V107.375H2063.36C2070.11 107.375 2074.19 111.609 2074.2 118.656C2074.19 125.734 2070.11 130 2063.23 130ZM2059.61 126.469H2063.02C2067.75 126.484 2070.14 123.875 2070.14 118.656C2070.14 113.469 2067.75 110.891 2063.14 110.906H2059.61V126.469ZM2098.19 130V107.375H2106.85C2111.75 107.375 2114.18 109.875 2114.19 113.25C2114.18 116 2112.44 117.531 2110.22 118.062V118.281C2112.63 118.406 2115.07 120.406 2115.07 123.844C2115.07 127.359 2112.52 130 2107.35 130H2098.19ZM2102.25 126.594H2106.72C2109.69 126.594 2110.93 125.328 2110.94 123.531C2110.93 121.5 2109.35 119.953 2106.82 119.938H2102.25V126.594ZM2102.25 117H2106.35C2108.49 117 2110.11 115.766 2110.13 113.75C2110.11 112.016 2108.86 110.75 2106.44 110.75H2102.25V117ZM2144.97 118.688C2144.98 126 2140.51 130.312 2134.59 130.312C2128.64 130.312 2124.2 125.984 2124.22 118.688C2124.2 111.375 2128.64 107.062 2134.59 107.062C2140.51 107.062 2144.98 111.375 2144.97 118.688ZM2128.31 118.688C2128.29 123.859 2130.9 126.656 2134.59 126.656C2138.29 126.656 2140.89 123.859 2140.87 118.688C2140.89 113.516 2138.29 110.719 2134.59 110.719C2130.9 110.719 2128.29 113.516 2128.31 118.688ZM2175.18 118.688C2175.19 126 2170.72 130.312 2164.8 130.312C2158.85 130.312 2154.41 125.984 2154.43 118.688C2154.41 111.375 2158.85 107.062 2164.8 107.062C2170.72 107.062 2175.19 111.375 2175.18 118.688ZM2158.52 118.688C2158.51 123.859 2161.12 126.656 2164.8 126.656C2168.51 126.656 2171.1 123.859 2171.08 118.688C2171.1 113.516 2168.51 110.719 2164.8 110.719C2161.12 110.719 2158.51 113.516 2158.52 118.688ZM2185.2 130V107.375H2189.27V117.781H2189.58L2198.42 107.375H2203.39L2194.64 117.531L2203.48 130H2198.58L2191.8 120.281L2189.27 123.25V130H2185.2ZM2224.57 113.594C2224.37 111.641 2222.73 110.516 2220.29 110.531C2217.71 110.516 2216.18 111.766 2216.17 113.469C2216.15 115.375 2218.17 116.156 2220.04 116.594L2222.17 117.156C2225.54 117.938 2228.79 119.719 2228.79 123.656C2228.79 127.625 2225.65 130.344 2220.23 130.344C2214.96 130.344 2211.62 127.812 2211.45 123.344H2215.45C2215.63 125.703 2217.62 126.859 2220.2 126.875C2222.87 126.859 2224.71 125.562 2224.73 123.625C2224.71 121.844 2223.09 121.094 2220.63 120.469L2218.07 119.812C2214.35 118.844 2212.04 116.969 2212.04 113.719C2212.04 109.719 2215.59 107.062 2220.35 107.062C2225.15 107.062 2228.42 109.766 2228.48 113.594H2224.57Z" fill="#ADB5BD"/>
<path d="M1696.52 178.617C1696.52 190.605 1708.25 202.68 1724.54 205.516L1720.24 213.508C1707.22 210.801 1696.56 202.895 1691.49 192.453C1686.38 202.809 1675.72 210.758 1662.75 213.508L1658.54 205.516C1674.56 202.594 1686.34 190.562 1686.38 178.617V172.859H1696.52V178.617ZM1656.39 235.766V227.859H1727.37V235.766H1656.39ZM1771.97 175.523V226.398H1735.19V175.523H1771.97ZM1744.56 218.75H1762.43V183H1744.56V218.75ZM1783.75 245.648V167.961H1793.29V197.781H1805.23V205.859H1793.29V245.648H1783.75ZM1871.66 208.695V216.258H1817.18V174.062H1870.97V181.797H1826.89V191.164H1869.17V198.641H1826.89V208.695H1871.66ZM1808.5 236.195V228.375H1879.48V236.195H1808.5ZM1947.63 203.281V210.844H1924.6V228.633H1955.54V236.453H1884.55V228.633H1915.14V210.844H1893.14V173.719H1947.03V181.367H1902.68V203.281H1947.63ZM1989.31 186.609C1989.27 201.047 1996.18 215.227 2008.56 220.641L2002.8 228.289C1994.04 223.992 1987.85 215.742 1984.54 205.559C1981.14 216.301 1974.79 225.238 1965.85 229.75L1959.83 222.016C1972.51 216.086 1979.55 201.133 1979.6 186.609V174.234H1989.31V186.609ZM1999.96 200.789V193.055H2016.29V167.961H2025.75V245.734H2016.29V200.789H1999.96ZM2107.47 214.625V222.445H2076.71V245.734H2067.25V222.445H2036.66V214.625H2107.47ZM2040.53 202.336C2056.04 200.445 2066.22 192.496 2067.17 184.719H2043.19V177.156H2067.25V168.047H2076.71V177.156H2100.86V184.719H2076.88C2077.78 192.41 2087.92 200.445 2103.43 202.336L2099.91 209.898C2087.06 208.266 2077.09 202.637 2072.07 195.16C2067 202.723 2056.9 208.266 2043.96 209.898L2040.53 202.336ZM2140.64 186.352C2140.6 195.59 2147.09 204.57 2159.38 208.352L2154.74 215.828C2145.93 213.207 2139.53 207.578 2136 200.445C2132.57 208.137 2126.16 214.195 2117.1 217.117L2112.46 209.641C2124.7 205.816 2131.11 196.32 2131.11 186.352V185.148H2114.86V177.586H2131.11V168.477H2140.73V177.586H2156.89V185.148H2140.64V186.352ZM2126.81 244.102V220.727H2136.35V236.367H2179.75V244.102H2126.81ZM2154.31 198.812V191.164H2168.23V168.047H2177.77V225.711H2168.23V198.812H2154.31Z" fill="#191F28"/>
<path d="M2462.19 766.391V777.055H2446.48V831.195H2433.48V725.492H2446.48V766.391H2462.19ZM2367.27 805.062V735.805H2380.16V794.281C2394.28 794.047 2409.28 792.816 2425.27 789.477L2426.68 800.492C2408.81 804.066 2391.88 805.004 2376.17 805.062H2367.27ZM2555.63 725.492V831.43H2543.09V725.492H2555.63ZM2465.28 771.312C2465.28 747.992 2474.3 733.52 2488.13 733.578C2500.96 733.52 2509.7 745.531 2511.22 765.336H2521.41V727.367H2533.84V826.273H2521.41V775.883H2511.34C2510.11 796.566 2501.26 809.223 2488.13 809.164C2474.3 809.223 2465.28 794.691 2465.28 771.312ZM2477.35 771.312C2477.29 787.895 2481.39 796.801 2488.13 796.742C2495.16 796.801 2499.32 787.895 2499.38 771.312C2499.32 754.789 2495.16 745.824 2488.13 745.883C2481.39 745.824 2477.29 754.789 2477.35 771.312ZM2656.34 725.492V831.43H2643.92V725.492H2656.34ZM2564.12 799.789C2586.03 786.84 2596.11 770.258 2598.1 748.93H2569.51V738.383H2610.99C2610.99 748.637 2609.7 758.246 2606.83 767.211H2621.54V728.07H2633.84V826.391H2621.54V777.641H2602.55C2596.4 789.77 2586.44 800.375 2571.5 809.047L2564.12 799.789ZM2776.91 725.492V752.68H2789.45V763.578H2776.91V788.773H2763.78V725.492H2776.91ZM2694.17 782.328V733.93H2721.36V744.359H2706.59V771.488C2711.69 771.312 2716.85 770.785 2722.53 769.555L2723.7 780.336C2714.62 782.152 2707.3 782.27 2699.33 782.328H2694.17ZM2704.48 803.656V793.227H2776.91V831.547H2763.78V803.656H2704.48ZM2726.98 782.328V733.93H2755.23V744.359H2739.52V771.547C2747.02 771.371 2752.06 770.844 2758.04 769.438L2759.33 780.219C2751.07 782.035 2744.8 782.27 2732.61 782.328H2726.98ZM2871.1 732.523V778.578H2820.95V732.523H2871.1ZM2827.16 821C2845.91 818.48 2857.62 810.219 2859.73 800.961H2831.49V790.648H2902.39V800.961H2874.27C2876.38 809.984 2888.33 818.539 2906.84 821.117L2902.16 831.078C2885.57 828.734 2873.04 821.645 2866.94 812.094C2860.85 821.645 2848.43 828.617 2831.96 830.844L2827.16 821ZM2833.72 768.148H2858.33V742.953H2833.72V768.148ZM2887.86 785.258V725.492H2900.87V749.281H2915.63V760.062H2900.87V785.258H2887.86ZM3003.8 755.492V765.805H2930.45V729.359H2943.34V755.492H3003.8ZM2917.91 788.422V778.109H3014.7V788.422H2917.91ZM2929.51 828.969V797.797H2942.52V818.422H3004.51V828.969H2929.51ZM3076.91 749.281C3076.91 760.473 3083.7 771.547 3097.06 776.117L3091.2 785.961C3081.48 782.387 3074.8 775.707 3070.99 767.562C3067.3 776.469 3060.56 783.793 3050.54 787.719L3044.45 778.109C3057.86 772.836 3064.48 761.293 3064.6 749.281V748.461H3047.14V738.266H3064.6V726.664H3076.91V738.266H3094.13V748.461H3076.91V749.281ZM3062.26 805.766V795.219H3134.8V831.43H3121.79V805.766H3062.26ZM3099.88 789.945V727.367H3112.18V752.797H3122.38V725.609H3134.8V790.414H3122.38V763.344H3112.18V789.945H3099.88ZM3193.09 727.133C3217.23 727.191 3231.23 733.578 3231.29 745.297C3231.23 757.133 3217.23 763.52 3193.09 763.578C3169 763.52 3154.88 757.133 3154.88 745.297C3154.88 733.578 3169 727.191 3193.09 727.133ZM3144.92 779.633V769.203H3241.48V779.633H3144.92ZM3156.29 796.391V786.781H3229.41V812.68H3169.18V820.531H3232.34V830.492H3156.41V803.422H3216.64V796.391H3156.29ZM3168.59 745.297C3168.54 751.156 3176.97 753.852 3193.09 753.852C3209.43 753.852 3217.81 751.156 3217.81 745.297C3217.81 739.848 3209.43 736.742 3193.09 736.742C3176.97 736.742 3168.54 739.848 3168.59 745.297ZM2417.3 890.633V940.672H2367.15V890.633H2417.3ZM2379.22 985.32V951.336H2392.23V974.773H2451.29V985.32H2379.22ZM2379.92 930.359H2404.53V901.062H2379.92V930.359ZM2434.06 958.836V881.492H2447.07V912.547H2461.84V923.445H2447.07V958.836H2434.06ZM2562.9 922.391V933.055H2547.2V987.195H2534.19V881.492H2547.2V922.391H2562.9ZM2467.98 961.062V891.805H2480.87V950.281C2494.99 950.047 2509.99 948.816 2525.98 945.477L2527.39 956.492C2509.52 960.066 2492.59 961.004 2476.88 961.062H2467.98ZM2661.73 963.992V974.656H2564.94V963.992H2606.66V943.367H2575.6V888.523H2588.61V905.867H2637.71V888.523H2650.72V943.367H2619.55V963.992H2661.73ZM2588.61 932.82H2637.71V916.297H2588.61V932.82ZM2698.7 909.266C2698.75 926.375 2704.61 944.188 2718.97 953.211L2711.82 963.172C2702.27 957.43 2696.06 947.586 2692.54 936.043C2688.73 948.758 2681.94 959.539 2671.98 965.633L2663.89 955.906C2679.3 946.59 2686.1 927.898 2686.16 909.852V890.867H2698.7V909.266ZM2707.6 928.719V917.938H2722.72V883.367H2735.02V982.273H2722.72V928.719H2707.6ZM2744.52 987.43V881.492H2757.05V987.43H2744.52ZM2863.16 963.875V974.539H2766.36V963.875H2788.74V937.098C2780.3 932.234 2775.21 924.617 2775.27 915.242C2775.21 898.367 2791.73 887.234 2814.52 887.234C2837.43 887.234 2854.07 898.367 2854.02 915.242C2854.07 924.5 2849.09 931.941 2840.89 936.805V963.875H2863.16ZM2788.04 915.242C2787.98 926.082 2798.7 932.996 2814.52 932.938C2830.29 932.996 2841.24 926.082 2841.24 915.242C2841.24 904.227 2830.29 897.488 2814.52 897.547C2798.7 897.488 2787.98 904.227 2788.04 915.242ZM2801.63 963.875H2827.65V941.785C2823.61 942.664 2819.21 943.133 2814.52 943.133C2809.95 943.133 2805.62 942.664 2801.63 941.844V963.875ZM2888.87 892.156L2887.58 952.039H2874.34L2872.93 892.156H2888.87ZM2871.88 968.797C2871.82 963.875 2875.98 959.832 2881.02 959.773C2885.88 959.832 2890.04 963.875 2890.04 968.797C2890.04 973.836 2885.88 977.938 2881.02 977.938C2875.98 977.938 2871.82 973.836 2871.88 968.797Z" fill="#191F28"/>
<path d="M2409.92 1091.6V1096.11H2388.48V1113.92H2383.03V1096.11H2361.88V1091.6H2409.92ZM2367.91 1084.92V1064.29H2403.89V1084.92H2367.91ZM2373.36 1080.58H2398.32V1068.75H2373.36V1080.58ZM2460.16 1088.49V1093.06H2412.29V1088.49H2460.16ZM2415.1 1080C2425.06 1078.44 2433.35 1072.06 2433.38 1065.29V1062.89H2439.07V1065.29C2439.1 1071.97 2447.45 1078.44 2457.41 1080L2455.12 1084.39C2446.89 1082.96 2439.59 1078.53 2436.25 1072.53C2432.88 1078.56 2425.56 1082.96 2417.27 1084.39L2415.1 1080ZM2418.32 1112.87V1097.69H2423.95V1108.36H2454.77V1112.87H2418.32ZM2478.52 1073.02C2478.52 1078.94 2482.27 1084.71 2488.95 1087.09L2486.32 1091.3C2481.37 1089.4 2477.91 1085.8 2476.03 1081.4C2474.19 1086.18 2470.67 1090.1 2465.57 1092.18L2462.94 1088.08C2469.59 1085.39 2473.22 1079.38 2473.25 1073.02V1072.55H2464.11V1068.1H2473.25V1062.07H2478.52V1068.1H2487.55V1072.55H2478.52V1073.02ZM2471.73 1100.8V1096.29H2507.41V1113.98H2501.9V1100.8H2471.73ZM2490.83 1093.41V1062.42H2496.16V1075.25H2502.14V1061.54H2507.41V1093.65H2502.14V1079.82H2496.16V1093.41H2490.83ZM2536.91 1062.36C2548.74 1062.33 2555.63 1065.52 2555.66 1071.38C2555.63 1077.27 2548.74 1080.46 2536.91 1080.46C2525.07 1080.46 2518.13 1077.27 2518.16 1071.38C2518.13 1065.52 2525.07 1062.33 2536.91 1062.36ZM2513 1088.14V1083.69H2560.87V1088.14H2513ZM2518.74 1096.34V1092.18H2554.84V1104.49H2524.25V1109.18H2556.3V1113.45H2518.8V1100.45H2549.33V1096.34H2518.74ZM2523.96 1071.38C2523.93 1074.63 2528.56 1076.3 2536.91 1076.3C2545.31 1076.3 2549.94 1074.63 2549.91 1071.38C2549.94 1068.28 2545.31 1066.46 2536.91 1066.46C2528.56 1066.46 2523.93 1068.28 2523.96 1071.38ZM2619.98 1061.48V1089.2H2614.47V1061.48H2619.98ZM2577.56 1075.66C2577.59 1068.69 2583.39 1063.77 2591.39 1063.77C2599.3 1063.77 2605.13 1068.69 2605.16 1075.66C2605.13 1082.6 2599.3 1087.53 2591.39 1087.5C2583.39 1087.53 2577.59 1082.6 2577.56 1075.66ZM2583.01 1113.34V1100.04H2595.25V1095.64H2583.01V1091.36H2600.7V1104.02H2588.4V1109.12C2594.96 1109.06 2599.12 1108.88 2604.1 1107.95L2604.69 1112.11C2598.92 1113.22 2594.32 1113.31 2586.29 1113.34H2583.01ZM2583.01 1075.66C2582.98 1079.97 2586.55 1082.98 2591.39 1082.98C2596.19 1082.98 2599.77 1079.97 2599.77 1075.66C2599.77 1071.32 2596.19 1068.37 2591.39 1068.39C2586.55 1068.37 2582.98 1071.32 2583.01 1075.66ZM2602.87 1095.93V1091.36H2619.98V1113.63H2614.53V1095.93H2602.87ZM2641.1 1065.41C2648.25 1065.44 2653.43 1071.47 2654.28 1081.17H2665.12V1061.48H2670.63V1114.1H2665.12V1085.68H2654.34C2653.72 1095.93 2648.42 1102.29 2641.1 1102.26C2633.28 1102.29 2627.74 1095.14 2627.8 1083.8C2627.74 1072.58 2633.28 1065.44 2641.1 1065.41ZM2633.07 1083.8C2633.1 1092.15 2636.35 1097.28 2641.1 1097.28C2645.84 1097.28 2649.1 1092.15 2649.12 1083.8C2649.1 1075.57 2645.84 1070.42 2641.1 1070.39C2636.35 1070.42 2633.1 1075.57 2633.07 1083.8ZM2691.28 1065.41C2699.13 1065.44 2704.72 1072.58 2704.75 1083.8C2704.72 1095.14 2699.13 1102.29 2691.28 1102.26C2683.43 1102.29 2677.83 1095.14 2677.86 1083.8C2677.83 1072.58 2683.43 1065.44 2691.28 1065.41ZM2683.19 1083.8C2683.16 1092.15 2686.5 1097.28 2691.28 1097.28C2696.14 1097.28 2699.42 1092.15 2699.42 1083.8C2699.42 1075.57 2696.14 1070.42 2691.28 1070.39C2686.5 1070.42 2683.16 1075.57 2683.19 1083.8ZM2712.55 1113.98V1061.48H2718.11V1074.31H2726.26V1079.06H2718.11V1089.96H2726.26V1094.53H2718.11V1113.98H2712.55ZM2781.97 1061.3V1073.61H2789.64V1078.18H2781.97V1090.19H2776.4V1061.3H2781.97ZM2740.78 1070.33V1065.93H2753.67V1061.01H2759.23V1065.93H2772.07V1070.33H2740.78ZM2743.65 1080.93C2743.62 1075.63 2748.72 1072.32 2756.42 1072.32C2764.13 1072.32 2769.14 1075.63 2769.14 1080.93C2769.14 1086.27 2764.13 1089.52 2756.42 1089.49C2748.72 1089.52 2743.62 1086.27 2743.65 1080.93ZM2748.04 1096.81V1092.65H2781.97V1104.84H2753.61V1109.23H2783.79V1113.45H2748.16V1100.91H2776.46V1096.81H2748.04ZM2749.04 1080.93C2748.98 1083.78 2751.88 1085.45 2756.42 1085.45C2760.93 1085.45 2763.86 1083.78 2763.92 1080.93C2763.86 1078.09 2760.93 1076.33 2756.42 1076.3C2751.88 1076.33 2748.98 1078.09 2749.04 1080.93ZM2810.41 1076.95C2810.38 1085.74 2816.15 1094.82 2824.24 1098.28L2821.19 1102.61C2815.01 1099.89 2810.09 1094.09 2807.66 1087.09C2805.22 1094.59 2800.3 1100.97 2794.18 1103.96L2790.96 1099.57C2798.87 1095.85 2804.73 1086 2804.79 1076.95V1071.38H2792.77V1066.75H2822.36V1071.38H2810.41V1076.95ZM2828.98 1113.98V1061.48H2834.55V1113.98H2828.98ZM2897.06 1066.52V1071.68C2897.03 1078.15 2897.03 1085.42 2895.07 1096.17L2889.44 1095.58C2891.46 1085.42 2891.46 1077.97 2891.49 1071.68V1071.03H2859.62V1066.52H2897.06ZM2854.58 1106.89V1102.26H2872.8V1083.75H2878.31V1102.26H2902.45V1106.89H2854.58ZM2932.65 1065.93V1090.6H2907.69V1065.93H2932.65ZM2913.14 1086.15H2927.14V1070.45H2913.14V1086.15ZM2914.13 1112.4V1095.52H2919.76V1107.83H2950.05V1112.4H2914.13ZM2942.9 1099.16V1061.54H2948.47V1099.16H2942.9ZM2996.19 1061.48V1082.75H3004.62V1087.38H2996.19V1113.98H2990.68V1061.48H2996.19ZM2955 1074.25V1069.68H2967.95V1062.18H2973.51V1069.68H2986.11V1074.25H2955ZM2957.69 1090.31C2957.69 1083.16 2963.2 1078.12 2970.76 1078.12C2978.29 1078.12 2983.79 1083.16 2983.82 1090.31C2983.79 1097.52 2978.29 1102.53 2970.76 1102.55C2963.2 1102.53 2957.69 1097.52 2957.69 1090.31ZM2963.02 1090.31C2962.99 1094.88 2966.28 1097.93 2970.76 1097.87C2975.21 1097.93 2978.46 1094.88 2978.49 1090.31C2978.46 1085.83 2975.21 1082.72 2970.76 1082.69C2966.28 1082.72 2962.99 1085.83 2963.02 1090.31ZM3048.12 1076.83V1081.29H3011.97V1063.36H3017.48V1076.83H3048.12ZM3005.59 1092.36V1087.91H3053.63V1092.36H3005.59ZM3011.56 1112.75V1097.34H3017.13V1108.18H3048.48V1112.75H3011.56ZM3112.57 1061.48V1113.98H3107V1061.48H3112.57ZM3069.44 1099.68C3073.78 1099.65 3078.7 1099.62 3083.86 1099.51V1094.23C3077.73 1093.41 3073.75 1089.81 3073.78 1084.68C3073.75 1078.77 3078.9 1074.87 3086.49 1074.84C3094.17 1074.87 3099.41 1078.77 3099.44 1084.68C3099.41 1089.75 3095.46 1093.33 3089.36 1094.21V1099.3C3094.23 1099.07 3099.15 1098.72 3103.78 1098.1L3104.19 1102.26C3092.53 1104.2 3079.81 1104.34 3070.2 1104.31L3069.44 1099.68ZM3070.55 1072.2V1067.75H3083.86V1061.6H3089.42V1067.75H3102.61V1072.2H3070.55ZM3079.05 1084.68C3078.99 1088.02 3082.1 1090.1 3086.49 1090.07C3091.03 1090.1 3094.11 1088.02 3094.11 1084.68C3094.11 1081.31 3091.03 1079.18 3086.49 1079.18C3082.1 1079.18 3078.99 1081.31 3079.05 1084.68ZM3163.16 1061.54V1101.32H3157.59V1096.29H3147.04V1092.36H3157.59V1061.54H3163.16ZM3119.27 1085.5C3128.97 1085.42 3142.06 1085.33 3153.25 1083.92L3153.61 1087.91C3149.12 1088.67 3144.41 1089.14 3139.78 1089.46V1099.68H3134.21V1089.75C3129.11 1089.96 3124.22 1089.96 3119.97 1089.96L3119.27 1085.5ZM3123.37 1072.79C3123.34 1067.22 3128.64 1063.53 3136.44 1063.53C3144.11 1063.53 3149.45 1067.22 3149.45 1072.79C3149.45 1078.38 3144.11 1081.93 3136.44 1081.93C3128.67 1081.93 3123.34 1078.38 3123.37 1072.79ZM3126.54 1112.87V1097.46H3132.04V1108.36H3164.45V1112.87H3126.54ZM3128.64 1072.79C3128.62 1075.89 3131.78 1077.83 3136.44 1077.83C3140.92 1077.83 3144.14 1075.89 3144.17 1072.79C3144.14 1069.65 3140.92 1067.63 3136.44 1067.69C3131.78 1067.63 3128.62 1069.65 3128.64 1072.79ZM3213.34 1061.48V1091.13H3207.83V1061.48H3213.34ZM3173.08 1087.61V1064.53H3178.65V1082.93C3187.12 1082.87 3194.53 1082.28 3202.44 1080.58L3203.2 1085.21C3194.53 1086.97 3186.62 1087.58 3177.42 1087.61H3173.08ZM3178.94 1113.28V1093.53H3213.34V1113.28H3178.94ZM3184.39 1108.82H3207.89V1097.93H3184.39V1108.82ZM3244.12 1062.36C3255.96 1062.33 3262.84 1065.52 3262.87 1071.38C3262.84 1077.27 3255.96 1080.46 3244.12 1080.46C3232.29 1080.46 3225.34 1077.27 3225.37 1071.38C3225.34 1065.52 3232.29 1062.33 3244.12 1062.36ZM3220.21 1088.14V1083.69H3268.09V1088.14H3220.21ZM3225.96 1096.34V1092.18H3262.05V1104.49H3231.46V1109.18H3263.52V1113.45H3226.02V1100.45H3256.54V1096.34H3225.96ZM3231.17 1071.38C3231.14 1074.63 3235.77 1076.3 3244.12 1076.3C3252.53 1076.3 3257.16 1074.63 3257.13 1071.38C3257.16 1068.28 3252.53 1066.46 3244.12 1066.46C3235.77 1066.46 3231.14 1068.28 3231.17 1071.38ZM3300.95 1063.88C3308.86 1063.85 3314.57 1068.28 3314.6 1074.78C3314.57 1081.23 3308.86 1085.68 3300.95 1085.62C3293.06 1085.68 3287.38 1081.23 3287.41 1074.78C3287.38 1068.28 3293.06 1063.85 3300.95 1063.88ZM3283.66 1089.72C3293.36 1089.72 3306.75 1089.52 3318.23 1087.79L3318.64 1091.95C3313.84 1092.86 3308.88 1093.41 3304.05 1093.74V1112.34H3298.48V1094.06C3293.39 1094.29 3288.58 1094.32 3284.42 1094.35L3283.66 1089.72ZM3292.8 1074.78C3292.74 1078.59 3296.17 1081.11 3300.95 1081.05C3305.84 1081.11 3309.27 1078.59 3309.27 1074.78C3309.27 1070.94 3305.84 1068.37 3300.95 1068.39C3296.17 1068.37 3292.74 1070.94 3292.8 1074.78ZM3321.86 1113.98V1061.54H3327.37V1113.98H3321.86ZM3360.03 1070.15V1074.66H3333.96V1070.15H3344.27V1063H3349.78V1070.15H3360.03ZM3335.66 1089.9C3335.63 1082.84 3340.43 1077.83 3347.02 1077.83C3353.67 1077.83 3358.42 1082.84 3358.45 1089.9C3358.42 1097.08 3353.67 1102.12 3347.02 1102.09C3340.43 1102.12 3335.63 1097.08 3335.66 1089.9ZM3340.58 1089.9C3340.55 1094.35 3343.24 1097.34 3347.02 1097.34C3350.8 1097.34 3353.53 1094.35 3353.53 1089.9C3353.53 1085.53 3350.8 1082.49 3347.02 1082.46C3343.24 1082.49 3340.55 1085.53 3340.58 1089.9ZM3362.43 1111.52V1062.65H3367.71V1083.34H3373.74V1061.48H3379.02V1113.98H3373.74V1087.91H3367.71V1111.52H3362.43ZM2404.47 1169.68V1174.13H2388.59V1186.96H2409.98V1191.54H2361.93V1186.96H2383.09V1174.13H2367.91V1149.52H2404V1154.04H2373.48V1169.68H2404.47ZM2431.21 1158.84C2431.21 1168.45 2436.61 1178.03 2444.63 1181.63L2441.23 1186.09C2435.29 1183.1 2430.78 1177.18 2428.46 1170C2426.15 1177.56 2421.58 1183.95 2415.51 1187.08L2412 1182.57C2420.14 1178.67 2425.56 1168.57 2425.59 1158.84V1149.88H2431.21V1158.84ZM2438.83 1167.45V1162.94H2450.55V1145.48H2456.06V1198.1H2450.55V1167.45H2438.83ZM2523.66 1177.12V1181.69H2502.45V1198.04H2496.95V1181.69H2475.79V1177.12H2523.66ZM2478.61 1169.04C2488.57 1167.78 2496.59 1162.21 2496.95 1156.32H2480.3V1151.81H2496.95V1145.48H2502.45V1151.81H2519.09V1156.32H2502.51C2502.8 1162.15 2510.74 1167.78 2520.73 1169.04L2518.74 1173.49C2510.3 1172.32 2503.13 1168.36 2499.73 1163C2496.33 1168.42 2489.12 1172.32 2480.66 1173.49L2478.61 1169.04ZM2544.55 1157.96C2544.55 1164.58 2549.5 1170.68 2557.55 1173.2L2554.86 1177.59C2548.82 1175.69 2544.28 1171.7 2541.88 1166.57C2539.6 1172.05 2535.05 1176.36 2528.84 1178.41L2526.15 1174.07C2534.18 1171.5 2539.04 1165.02 2539.04 1157.96V1156.73H2527.61V1152.22H2539.04V1145.83H2544.61V1152.22H2555.97V1156.73H2544.55V1157.96ZM2535.82 1196.87V1181.16H2541.38V1192.36H2571.32V1196.87H2535.82ZM2554.16 1165.93V1161.42H2564.35V1145.54H2569.92V1184.62H2564.35V1165.93H2554.16ZM2631.72 1147.82V1152.45C2631.72 1157.4 2631.72 1162.68 2630.26 1169.86L2624.75 1169.39C2625.34 1166.54 2625.72 1164.03 2625.92 1161.68L2594.69 1163.12L2593.93 1158.43L2626.16 1157.55C2626.21 1155.76 2626.21 1154.09 2626.21 1152.45V1152.34H2595.28V1147.82H2631.72ZM2589.71 1177.53V1173.08H2608.64V1165.7H2614.26V1173.08H2637.46V1177.53H2589.71ZM2595.63 1197.16V1181.57H2601.2V1192.65H2632.84V1197.16H2595.63ZM2684.77 1145.54V1184.8H2679.5V1145.54H2684.77ZM2642.35 1176.54V1149.7H2662.33V1154.21H2647.68V1160.77H2660.28V1165.11H2647.68V1171.96C2654.63 1171.94 2659.17 1171.76 2664.56 1170.68L2665.09 1175.13C2659.05 1176.27 2654.04 1176.51 2645.75 1176.54H2642.35ZM2650.2 1196.87V1180.46H2655.83V1192.36H2686.3V1196.87H2650.2ZM2662.68 1164.7V1160.19H2669.19V1146.54H2674.46V1183.51H2669.19V1164.7H2662.68ZM2738.41 1186.85V1191.42H2690.36V1186.85H2738.41ZM2692.88 1174.19C2703.52 1172.46 2711.25 1165.93 2711.52 1158.08H2694.7V1153.57H2711.57V1146.59H2717.08V1153.57H2733.96V1158.08H2717.14C2717.4 1165.93 2725.08 1172.46 2735.83 1174.19L2733.61 1178.64C2724.9 1177.06 2717.7 1172.64 2714.3 1166.22C2710.93 1172.64 2703.72 1177.06 2695.05 1178.64L2692.88 1174.19ZM2788.71 1169.56V1173.84H2740.66V1169.56H2788.71ZM2746.34 1181.52V1177.53H2782.79V1189.07H2751.97V1193.41H2784.43V1197.34H2746.4V1185.38H2777.28V1181.52H2746.34ZM2746.7 1150.75V1146.83H2782.67V1158.2H2752.32V1162.18H2783.55V1166.11H2746.81V1154.5H2777.11V1150.75H2746.7ZM2849.28 1145.48V1197.98H2843.95V1145.48H2849.28ZM2803.46 1183.51C2810.9 1179.03 2814.68 1169.47 2814.71 1160.13V1155.91H2805.04V1151.4H2829.07V1155.91H2820.04V1160.13C2820.04 1169.09 2823.68 1178.09 2831.06 1182.34L2827.72 1186.44C2822.71 1183.45 2819.28 1178.09 2817.44 1171.76C2815.56 1178.62 2811.99 1184.47 2806.86 1187.67L2803.46 1183.51ZM2825.2 1168.62V1164.05H2833.34V1146.59H2838.62V1195.34H2833.34V1168.62H2825.2ZM2878.25 1178.47C2889.62 1178.47 2896.79 1182.07 2896.82 1188.2C2896.79 1194.29 2889.62 1197.89 2878.25 1197.86C2867 1197.89 2859.79 1194.29 2859.79 1188.2C2859.79 1182.07 2867 1178.47 2878.25 1178.47ZM2854.64 1174.13V1169.62H2873.8V1159.78H2879.25V1169.62H2902.39V1174.13H2854.64ZM2860.2 1152.51V1148.06H2896.41V1152.45C2896.44 1156.64 2896.44 1160.98 2894.95 1166.4L2889.5 1165.81C2890.91 1160.45 2890.91 1156.58 2890.91 1152.51H2860.2ZM2865.36 1188.2C2865.3 1191.59 2870.31 1193.56 2878.25 1193.59C2886.28 1193.56 2891.26 1191.59 2891.32 1188.2C2891.26 1184.74 2886.28 1182.72 2878.25 1182.69C2870.31 1182.72 2865.3 1184.74 2865.36 1188.2ZM2930.89 1154.15V1158.66H2904.82V1154.15H2915.13V1147H2920.64V1154.15H2930.89ZM2906.52 1173.9C2906.49 1166.84 2911.29 1161.83 2917.88 1161.83C2924.53 1161.83 2929.28 1166.84 2929.31 1173.9C2929.28 1181.08 2924.53 1186.12 2917.88 1186.09C2911.29 1186.12 2906.49 1181.08 2906.52 1173.9ZM2911.44 1173.9C2911.41 1178.35 2914.1 1181.34 2917.88 1181.34C2921.66 1181.34 2924.39 1178.35 2924.39 1173.9C2924.39 1169.53 2921.66 1166.49 2917.88 1166.46C2914.1 1166.49 2911.41 1169.53 2911.44 1173.9ZM2933.29 1195.52V1146.65H2938.57V1167.34H2944.6V1145.48H2949.88V1197.98H2944.6V1171.91H2938.57V1195.52H2933.29ZM2997.83 1170.38V1174.95H2961.27V1150.17H2997.36V1154.74H2966.77V1170.38H2997.83ZM2955.29 1191.07V1186.44H3003.34V1191.07H2955.29ZM3049.36 1145.48V1198.1H3043.85V1176.12H3033.59V1171.5H3043.85V1161.77H3033.89V1157.2H3043.85V1145.48H3049.36ZM3007.46 1154.62V1150.11H3030.72V1169.27H3013.14V1181.34C3020.56 1181.31 3026.83 1180.96 3034.3 1179.88L3034.77 1184.45C3026.56 1185.73 3019.85 1185.97 3011.56 1185.97H3007.58V1164.88H3025.27V1154.62H3007.46ZM3104.05 1186.79V1191.42H3056V1186.79H3067.48V1173.08C3063.18 1170.71 3060.54 1166.96 3060.57 1162.24C3060.54 1153.98 3068.66 1148.56 3079.91 1148.53C3091.19 1148.56 3099.3 1153.98 3099.3 1162.24C3099.3 1166.87 3096.78 1170.59 3092.56 1172.96V1186.79H3104.05ZM3065.96 1162.24C3065.96 1167.86 3071.67 1171.53 3079.91 1171.55C3088.08 1171.53 3093.88 1167.86 3093.91 1162.24C3093.88 1156.58 3088.08 1152.98 3079.91 1152.98C3071.67 1152.98 3065.96 1156.58 3065.96 1162.24ZM3072.99 1186.79H3086.94V1175.13C3084.8 1175.63 3082.43 1175.89 3079.91 1175.89C3077.45 1175.89 3075.1 1175.63 3072.99 1175.13V1186.79Z" fill="#6B7684"/>
<rect x="2320" y="1334" width="1100" height="240" rx="120" fill="url(#paint1_linear_6245_6493)"/>
<path d="M2677.33 1460.44V1466.48H2653.56V1484.48H2646.26V1466.48H2622.62V1460.44H2677.33ZM2625.6 1450.94C2637.59 1449.48 2645.46 1443.34 2646.19 1437.33H2627.66V1431.48H2646.26V1424.45H2653.56V1431.48H2672.22V1437.33H2653.69C2654.39 1443.27 2662.23 1449.48 2674.21 1450.94L2671.49 1456.79C2661.56 1455.52 2653.86 1451.17 2649.97 1445.4C2646.06 1451.24 2638.25 1455.52 2628.26 1456.79L2625.6 1450.94ZM2702.97 1438.59C2702.93 1445.73 2707.95 1452.67 2717.44 1455.59L2713.86 1461.37C2707.05 1459.34 2702.1 1454.99 2699.38 1449.48C2696.72 1455.42 2691.78 1460.11 2684.77 1462.36L2681.19 1456.59C2690.65 1453.63 2695.6 1446.29 2695.6 1438.59V1437.66H2683.04V1431.82H2695.6V1424.78H2703.03V1431.82H2715.52V1437.66H2702.97V1438.59ZM2692.28 1483.21V1465.15H2699.65V1477.24H2733.18V1483.21H2692.28ZM2713.53 1448.22V1442.31H2724.28V1424.45H2731.65V1469H2724.28V1448.22H2713.53ZM2803.31 1424.38V1447.22H2812.54V1453.46H2803.31V1484.41H2795.94V1424.38H2803.31ZM2758.42 1470.33V1429.29H2765.72V1444.3H2779.87V1429.29H2787.24V1470.33H2758.42ZM2765.72 1464.29H2779.87V1450.08H2765.72V1464.29ZM2869.91 1471.33V1477.44H2815.06V1471.33H2838.7V1461.57H2821.57V1441.91H2856.1V1434.47H2821.44V1428.5H2863.4V1447.75H2828.94V1455.52H2864.8V1461.57H2846.01V1471.33H2869.91ZM2920.85 1424.38V1447.82H2929.74V1454H2920.85V1484.28H2913.47V1424.38H2920.85ZM2873.5 1467.88C2888.11 1460.57 2896.01 1450.41 2897.47 1436.73H2876.75V1430.62H2904.97C2904.94 1448.25 2897.64 1463.76 2877.68 1473.59L2873.5 1467.88ZM2982.74 1424.38V1484.41H2975.3V1424.38H2982.74ZM2933 1467.88C2948.74 1460.4 2955.97 1450.24 2957.3 1436.6H2936.05V1430.75H2964.81C2964.81 1448.62 2957.87 1463.79 2936.85 1473.79L2933 1467.88Z" fill="white"/>
<path d="M3039.5 1454H3116.72" stroke="white" stroke-width="6" stroke-linecap="round"/>
<path d="M3097.27 1433.16L3119.5 1454L3097.27 1474.84" stroke="white" stroke-width="6" stroke-linecap="round" stroke-linejoin="round"/>
</g>
<defs>
<filter id="filter0_f_6245_6493" x="2528" y="114" width="2192" height="2192" filterUnits="userSpaceOnUse" color-interpolation-filters="sRGB">
<feFlood flood-opacity="0" result="BackgroundImageFix"/>
<feBlend mode="normal" in="SourceGraphic" in2="BackgroundImageFix" result="shape"/>
<feGaussianBlur stdDeviation="400" result="effect1_foregroundBlur_6245_6493"/>
</filter>
<filter id="filter1_f_6245_6493" x="-734" y="-620" width="2954" height="2954" filterUnits="userSpaceOnUse" color-interpolation-filters="sRGB">
<feFlood flood-opacity="0" result="BackgroundImageFix"/>
<feBlend mode="normal" in="SourceGraphic" in2="BackgroundImageFix" result="shape"/>
<feGaussianBlur stdDeviation="500" result="effect1_foregroundBlur_6245_6493"/>
</filter>
<filter id="filter2_f_6245_6493" x="-1380" y="-442" width="4803" height="4803" filterUnits="userSpaceOnUse" color-interpolation-filters="sRGB">
<feFlood flood-opacity="0" result="BackgroundImageFix"/>
<feBlend mode="normal" in="SourceGraphic" in2="BackgroundImageFix" result="shape"/>
<feGaussianBlur stdDeviation="750" result="effect1_foregroundBlur_6245_6493"/>
</filter>
<linearGradient id="paint0_linear_6245_6493" x1="112" y1="79.5" x2="518.45" y2="2662.92" gradientUnits="userSpaceOnUse">
<stop stop-color="#FEBCEB"/>
<stop offset="0.5" stop-color="white" stop-opacity="0.8"/>
<stop offset="1" stop-color="#8ED6FF"/>
</linearGradient>
<linearGradient id="paint1_linear_6245_6493" x1="2462" y1="1334" x2="3330.7" y2="1488.58" gradientUnits="userSpaceOnUse">
<stop stop-color="#2C80FF"/>
<stop offset="1" stop-color="#7B39D8"/>
</linearGradient>
<clipPath id="clip0_6245_6493">
<rect width="3840" height="2160" fill="white"/>
</clipPath>
</defs>
</svg>
