<svg xmlns="http://www.w3.org/2000/svg" width="13" height="13" viewBox="0 0 13 13" fill="none">
    <path d="M3.67157 3.39082C3.58423 3.39084 3.49889 3.41691 3.42644 3.46571C3.354 3.51451 3.29775 3.5838 3.26489 3.66474C3.23202 3.74568 3.22404 3.83459 3.24195 3.92009C3.25986 4.00559 3.30286 4.08381 3.36545 4.14474L6.12825 6.90828L3.36545 9.67182C3.32332 9.71229 3.28968 9.76076 3.2665 9.81439C3.24333 9.86802 3.23109 9.92574 3.23049 9.98416C3.2299 10.0426 3.24096 10.1005 3.26304 10.1546C3.28512 10.2087 3.31777 10.2579 3.35907 10.2992C3.40037 10.3405 3.4495 10.3732 3.50358 10.3952C3.55766 10.4173 3.6156 10.4284 3.67401 10.4278C3.73242 10.4272 3.79012 10.415 3.84374 10.3918C3.89736 10.3686 3.94581 10.3349 3.98627 10.2928L6.74907 7.52926L9.51187 10.2928C9.55232 10.335 9.60078 10.3686 9.6544 10.3918C9.70801 10.415 9.76572 10.4272 9.82413 10.4278C9.88254 10.4284 9.94048 10.4173 9.99455 10.3952C10.0486 10.3732 10.0978 10.3405 10.1391 10.2992C10.1804 10.2579 10.213 10.2087 10.2351 10.1546C10.2572 10.1005 10.2682 10.0426 10.2676 9.98416C10.2671 9.92574 10.2548 9.86802 10.2316 9.81439C10.2085 9.76075 10.1748 9.71229 10.1327 9.67182L7.36988 6.90828L10.1327 4.14474C10.1961 4.08306 10.2395 4.00364 10.257 3.9169C10.2745 3.83016 10.2655 3.74014 10.231 3.65864C10.1965 3.57715 10.1382 3.50797 10.0638 3.46017C9.9893 3.41238 9.90214 3.38821 9.8137 3.39082C9.69964 3.39422 9.59139 3.4419 9.51187 3.52376L6.74907 6.2873L3.98627 3.52376C3.94535 3.48169 3.89643 3.44825 3.84238 3.42542C3.78832 3.40259 3.73025 3.39082 3.67157 3.39082Z" fill="#ADB5BD"/>
</svg>