<svg xmlns="http://www.w3.org/2000/svg" width="13" height="13" viewBox="0 0 13 13" fill="none">
    <path d="M5.22319 7.61787L3.92345 6.31813C3.81389 6.20857 3.67944 6.1538 3.52008 6.1538C3.36072 6.1538 3.22129 6.21355 3.10177 6.33307C2.99222 6.44263 2.93744 6.58206 2.93744 6.75138C2.93744 6.92069 2.99222 7.06013 3.10177 7.16969L4.80488 8.87279C4.91444 8.98235 5.05387 9.03713 5.22319 9.03713C5.3925 9.03713 5.53194 8.98235 5.6415 8.87279L9.03277 5.48152C9.14233 5.37196 9.19711 5.2375 9.19711 5.07815C9.19711 4.91879 9.13735 4.77936 9.01783 4.65984C8.90828 4.55029 8.76884 4.49551 8.59953 4.49551C8.43021 4.49551 8.29078 4.55029 8.18122 4.65984L5.22319 7.61787ZM6.0598 12.518C5.23315 12.518 4.45629 12.3611 3.72923 12.0471C3.00218 11.7336 2.36974 11.3079 1.83191 10.7701C1.29409 10.2323 0.86841 9.59985 0.554879 8.87279C0.240949 8.14574 0.0839844 7.36888 0.0839844 6.54222C0.0839844 5.71557 0.240949 4.93871 0.554879 4.21166C0.86841 3.4846 1.29409 2.85216 1.83191 2.31433C2.36974 1.77651 3.00218 1.35063 3.72923 1.0367C4.45629 0.723172 5.23315 0.566406 6.0598 0.566406C6.88646 0.566406 7.66331 0.723172 8.39037 1.0367C9.11743 1.35063 9.74987 1.77651 10.2877 2.31433C10.8255 2.85216 11.2512 3.4846 11.5647 4.21166C11.8787 4.93871 12.0356 5.71557 12.0356 6.54222C12.0356 7.36888 11.8787 8.14574 11.5647 8.87279C11.2512 9.59985 10.8255 10.2323 10.2877 10.7701C9.74987 11.3079 9.11743 11.7336 8.39037 12.0471C7.66331 12.3611 6.88646 12.518 6.0598 12.518Z" fill="#ADB5BD"/>
</svg>