<svg xmlns="http://www.w3.org/2000/svg" width="43" height="29" viewBox="0 0 43 29" fill="none">
    <g filter="url(#filter0_d_5778_8324)">
        <circle cx="19.6681" cy="14.0744" r="14.0744" fill="white"/>
        <mask id="mask0_5778_8324" style="mask-type:alpha" maskUnits="userSpaceOnUse" x="10" y="5" width="19" height="18">
            <rect x="10.8711" y="5.27734" width="17.593" height="17.593" fill="#D9D9D9"/>
        </mask>
        <g mask="url(#mask0_5778_8324)">
            <path d="M15.2675 19.09H17.7205V15.3966C17.7205 15.2089 17.7839 15.0516 17.9109 14.9245C18.0379 14.7976 18.1953 14.7341 18.383 14.7341H20.9486C21.1363 14.7341 21.2936 14.7976 21.4207 14.9245C21.5476 15.0516 21.6111 15.2089 21.6111 15.3966V19.09H24.064V12.6053C24.064 12.5678 24.0558 12.5338 24.0393 12.5033C24.0229 12.4727 24.0006 12.4457 23.9724 12.4221L19.7997 9.28558C19.7621 9.25271 19.7175 9.23628 19.6658 9.23628C19.6141 9.23628 19.5694 9.25271 19.5318 9.28558L15.3592 12.4221C15.3309 12.4457 15.3086 12.4727 15.2923 12.5033C15.2758 12.5338 15.2675 12.5678 15.2675 12.6053V19.09ZM14.168 19.09V12.6053C14.168 12.3956 14.2149 12.1969 14.3087 12.0092C14.4027 11.8214 14.5324 11.6668 14.698 11.5454L18.8708 8.40171C19.1023 8.22505 19.3669 8.13672 19.6647 8.13672C19.9624 8.13672 20.2278 8.22505 20.4608 8.40171L24.6336 11.5454C24.7991 11.6668 24.9289 11.8214 25.0229 12.0092C25.1167 12.1969 25.1636 12.3956 25.1636 12.6053V19.09C25.1636 19.3898 25.0553 19.648 24.8387 19.8647C24.6221 20.0813 24.3638 20.1896 24.064 20.1896H21.1742C20.9864 20.1896 20.8291 20.126 20.7021 19.999C20.5751 19.872 20.5115 19.7147 20.5115 19.5269V15.8337H18.82V19.5269C18.82 19.7147 18.7565 19.872 18.6294 19.999C18.5025 20.126 18.3451 20.1896 18.1574 20.1896H15.2675C14.9677 20.1896 14.7095 20.0813 14.4929 19.8647C14.2763 19.648 14.168 19.3898 14.168 19.09Z" fill="#8B95A1"/>
        </g>
    </g>
    <defs>
        <filter id="filter0_d_5778_8324" x="0.31585" y="-5.2779" width="42.2228" height="42.2228" filterUnits="userSpaceOnUse" color-interpolation-filters="sRGB">
            <feFlood flood-opacity="0" result="BackgroundImageFix"/>
            <feColorMatrix in="SourceAlpha" type="matrix" values="0 0 0 0 0 0 0 0 0 0 0 0 0 0 0 0 0 0 127 0" result="hardAlpha"/>
            <feOffset dx="1.7593" dy="1.7593"/>
            <feGaussianBlur stdDeviation="3.5186"/>
            <feComposite in2="hardAlpha" operator="out"/>
            <feColorMatrix type="matrix" values="0 0 0 0 0 0 0 0 0 0 0 0 0 0 0 0 0 0 0.1 0"/>
            <feBlend mode="normal" in2="BackgroundImageFix" result="effect1_dropShadow_5778_8324"/>
            <feBlend mode="normal" in="SourceGraphic" in2="effect1_dropShadow_5778_8324" result="shape"/>
        </filter>
    </defs>
</svg>