<svg width="83" height="36" viewBox="0 0 83 36" fill="none" xmlns="http://www.w3.org/2000/svg">
<g filter="url(#filter0_d_6319_1127)">
<rect x="5.45703" y="6.00781" width="68.3268" height="21.108" rx="10.554" fill="white"/>
<g clip-path="url(#clip0_6319_1127)">
<circle cx="15.658" cy="16.5604" r="8.4432" fill="#FFEBE7"/>
<g clip-path="url(#clip1_6319_1127)">
<path d="M12.2481 13.0938C12.2481 13.0938 10.2098 18.6502 13.8264 20.3354L15.1478 19.8122L15.8101 17.5385C15.8101 17.5385 13.0699 13.419 13.0699 13.4415C13.0699 13.464 12.2481 13.0938 12.2481 13.0938Z" fill="#642718"/>
<path d="M19.1724 13.0938C19.1724 13.0938 21.2107 18.6502 17.5942 20.3354L16.2728 19.8122L15.6094 17.5385C15.6094 17.5385 18.3496 13.419 18.3496 13.4415C18.3496 13.464 19.1724 13.0938 19.1724 13.0938Z" fill="#642718"/>
<path d="M14.1484 17.6758V19.972L11.4648 20.9446L15.7095 24.513L19.8493 20.9446L17.1657 19.972V17.6758H14.1484Z" fill="#F5CCC1"/>
<path d="M14.1121 11.4558C15.0922 10.8481 16.3323 10.8481 17.3124 11.4558C18.3813 12.1181 18.9313 13.3711 18.6959 14.6059L18.2529 16.5361C18.086 17.2658 17.628 17.895 16.986 18.2791L16.5495 18.5402C16.0348 18.8483 15.3918 18.8483 14.876 18.5402L14.4395 18.2791C13.7975 17.895 13.3395 17.2658 13.1726 16.5361L12.7296 14.6059C12.4942 13.37 13.0442 12.1181 14.1121 11.4558Z" fill="#F5CCC1"/>
<path d="M14.7773 15.0273V15.2339" stroke="#300021" stroke-width="0.5277" stroke-miterlimit="10" stroke-linecap="round"/>
<path d="M16.6484 15.0273V15.2339" stroke="#300021" stroke-width="0.5277" stroke-miterlimit="10" stroke-linecap="round"/>
<path d="M14.3789 14.4158C14.4495 14.3826 14.5683 14.359 14.6999 14.3558C14.8326 14.3526 14.9503 14.3708 15.022 14.4008" stroke="#642718" stroke-width="0.3518" stroke-miterlimit="10" stroke-linecap="round" stroke-linejoin="round"/>
<path d="M17.0454 14.4158C16.9748 14.3826 16.856 14.359 16.7244 14.3558C16.5917 14.3526 16.474 14.3708 16.4023 14.4008" stroke="#642718" stroke-width="0.3518" stroke-miterlimit="10" stroke-linecap="round" stroke-linejoin="round"/>
<path d="M16.3901 16.6211C16.2393 16.7249 15.9889 16.7923 15.7096 16.7923C15.4304 16.7923 15.1832 16.7249 15.0312 16.6211" stroke="#C0655E" stroke-width="0.3518" stroke-miterlimit="10" stroke-linecap="round" stroke-linejoin="round"/>
<path d="M15.9731 15.9144C15.9731 15.9967 15.8565 16.0631 15.7131 16.0631C15.5698 16.0631 15.4531 15.9967 15.4531 15.9144C15.4531 15.832 15.5698 15.7656 15.7131 15.7656C15.8565 15.7656 15.9731 15.832 15.9731 15.9144Z" fill="#DD7766"/>
<path d="M12.8202 15.5845C12.8202 15.5845 13.2365 15.2571 13.291 14.6108C13.3456 13.9645 13.795 13.2188 13.795 13.2188L12.6737 13.2648C12.6737 13.2658 12.2617 14.0191 12.8202 15.5845Z" fill="#642718"/>
<path d="M18.6019 15.5848C18.6019 15.5848 18.1857 15.2574 18.1311 14.6111C18.0766 13.9649 17.5352 12.9805 17.5352 12.9805L18.7485 13.264C18.7496 13.2662 19.1605 14.0194 18.6019 15.5848Z" fill="#642718"/>
<path d="M16.9841 18.2773L16.5475 18.5384C16.0328 18.8466 15.3898 18.8466 14.8741 18.5384L14.4375 18.2773" stroke="#C0655E" stroke-width="0.21108" stroke-miterlimit="10" stroke-linecap="round" stroke-linejoin="round"/>
<path d="M14.1482 19.9297L15.6569 21.8054L17.1655 19.9297L20.7136 20.8606C21.6648 21.0724 22.3411 21.9167 22.3411 22.8914V25.2261H8.97266V22.8914C8.97266 21.9167 9.64889 21.0735 10.6001 20.8606L14.1482 19.9297Z" fill="#FFC238"/>
<path d="M13.2461 14.471C13.2461 14.471 14.9517 14.3148 15.4513 12.5237L15.813 11L13.5863 12.7355L13.2461 14.471Z" fill="#642718"/>
<path d="M18.8939 15.3644C18.4894 15.8684 18.2605 14.5737 18.2605 14.5737C18.2605 14.5737 18.1 13.7723 17.8367 13.3496C17.7832 13.2629 17.6998 13.1773 17.5939 13.095H17.5928C17.183 12.7782 16.4318 12.5247 15.7107 12.5247C15.6358 12.5247 15.5609 12.5279 15.486 12.5332C14.6493 12.591 13.8264 12.9612 13.5846 13.3496C13.3203 13.7723 13.1609 14.5737 13.1609 14.5737C13.1609 14.5737 12.9319 15.8684 12.5275 15.3644C12.123 14.8604 11.9465 13.4983 12.444 12.6167C12.9416 11.735 14.1678 10.5559 15.027 10.4179C15.3276 10.3697 15.5491 10.4393 15.7107 10.5495C15.8722 10.4393 16.0927 10.3697 16.3944 10.4179C17.2525 10.5559 18.4798 11.735 18.9763 12.6167C19.4738 13.4983 19.2973 14.8604 18.8939 15.3644Z" fill="#642718"/>
<path d="M13.4176 15.4285C13.5224 15.9411 13.3587 16.4279 13.0527 16.5156C12.7467 16.6034 12.4139 16.2588 12.3091 15.7453C12.2042 15.2327 12.3679 14.7459 12.6739 14.6581C12.9799 14.5704 13.3127 14.916 13.4176 15.4285Z" fill="#F5CCC1"/>
<path d="M12.969 16.1125C12.9615 16.1147 12.953 16.1157 12.9444 16.1168C12.8289 16.1254 12.6662 15.9531 12.6063 15.661C12.5753 15.5069 12.5795 15.3496 12.6202 15.2298C12.6384 15.1763 12.6791 15.0843 12.754 15.0629C12.7614 15.0607 12.77 15.0597 12.7786 15.0586" stroke="#C0655E" stroke-width="0.21108" stroke-miterlimit="10" stroke-linecap="round" stroke-linejoin="round"/>
<path d="M19.125 15.6779C19.2069 15.1595 19.0196 14.6993 18.7067 14.6499C18.3938 14.6004 18.0738 14.9806 17.992 15.4989C17.9101 16.0173 18.0974 16.4776 18.4103 16.527C18.7231 16.5764 19.0431 16.1962 19.125 15.6779Z" fill="#F5CCC1"/>
<path d="M18.4492 16.1125C18.4567 16.1147 18.4653 16.1157 18.4738 16.1168C18.5894 16.1254 18.752 15.9531 18.8119 15.661C18.843 15.5069 18.8387 15.3496 18.798 15.2298C18.7798 15.1763 18.7392 15.0843 18.6643 15.0629C18.6568 15.0607 18.6482 15.0597 18.6407 15.0586" stroke="#C0655E" stroke-width="0.21108" stroke-miterlimit="10" stroke-linecap="round" stroke-linejoin="round"/>
<path d="M17.5962 13.0971H17.5951C17.1853 12.7804 16.4341 12.5268 15.713 12.5268C15.6381 12.5268 15.5632 12.53 15.4883 12.5354L15.4958 12.4616C15.4958 12.4616 15.6659 11.8923 16.019 11.8249C16.3721 11.7564 17.3073 12.4658 17.5962 13.0971Z" fill="#300021"/>
<path d="M13.4258 13.9226C13.4258 13.9226 14.4326 13.4508 14.7408 12.6194C15.0479 11.788 15.4523 11.6211 15.4523 11.6211" stroke="#300021" stroke-width="0.21108" stroke-miterlimit="10" stroke-linecap="round"/>
<path d="M13.5508 13.1364C13.5508 13.1364 14.1896 12.7673 14.3447 12.2504C14.4999 11.7347 14.7652 11.5742 14.7652 11.5742" stroke="#300021" stroke-width="0.21108" stroke-miterlimit="10" stroke-linecap="round"/>
<path d="M18.0586 12.668C18.2351 12.99 18.3443 13.3495 18.3753 13.7144" stroke="#300021" stroke-width="0.21108" stroke-miterlimit="10" stroke-linecap="round"/>
<path d="M18.625 12.9062C18.7138 13.254 18.7448 13.6167 18.7138 13.9752" stroke="#300021" stroke-width="0.21108" stroke-miterlimit="10" stroke-linecap="round"/>
<path d="M14.1485 19.2305C14.1485 19.2305 13.3203 19.3268 12.6719 20.3614L14.249 22.5442C14.401 22.755 14.7048 22.7807 14.89 22.5988L15.6561 21.8498L14.1474 19.9741V19.2305H14.1485Z" fill="#F7EFEE"/>
<path d="M17.1688 19.2305C17.1688 19.2305 17.997 19.3268 18.6454 20.3614L17.0265 22.6009C16.896 22.7807 16.636 22.8032 16.4766 22.648L15.6602 21.8498L17.1688 19.9741V19.2305Z" fill="#F7EFEE"/>
</g>
</g>
<path d="M34.5394 16.6848H33.7479V13.5063H34.5394V16.6848ZM29.9138 15.1203C29.9138 14.8564 29.9808 14.6215 30.1148 14.4153C30.2488 14.2092 30.4322 14.0484 30.6652 13.933C30.9001 13.8175 31.163 13.7598 31.4536 13.7598C31.7422 13.7598 32.003 13.8175 32.2359 13.933C32.4709 14.0484 32.6554 14.2092 32.7894 14.4153C32.9254 14.6215 32.9934 14.8564 32.9934 15.1203C32.9934 15.3738 32.9254 15.6026 32.7894 15.8067C32.6554 16.0108 32.4709 16.1716 32.2359 16.2891C32.003 16.4045 31.7422 16.4622 31.4536 16.4622C31.165 16.4622 30.9032 16.4045 30.6682 16.2891C30.4333 16.1716 30.2488 16.0108 30.1148 15.8067C29.9808 15.6026 29.9138 15.3738 29.9138 15.1203ZM30.6868 15.1203C30.6847 15.2563 30.7157 15.3759 30.7796 15.479C30.8455 15.582 30.9362 15.6614 31.0517 15.7171C31.1691 15.7727 31.3031 15.8005 31.4536 15.8005C31.6 15.8005 31.7298 15.7727 31.8432 15.7171C31.9586 15.6614 32.0493 15.582 32.1153 15.479C32.1813 15.3759 32.2142 15.2563 32.2142 15.1203C32.2142 14.976 32.1813 14.8513 32.1153 14.7462C32.0493 14.641 31.9586 14.5606 31.8432 14.505C31.7298 14.4493 31.6 14.4215 31.4536 14.4215C31.3031 14.4215 31.1691 14.4493 31.0517 14.505C30.9362 14.5606 30.8455 14.641 30.7796 14.7462C30.7157 14.8513 30.6847 14.976 30.6868 15.1203ZM30.7672 16.9384H34.5394V19.0657H30.7672V16.9384ZM33.7664 18.4349V17.563H31.5464V18.4349H33.7664ZM37.4892 14.774C37.4871 15.1265 37.5397 15.4666 37.6469 15.7944C37.7541 16.1221 37.9148 16.4138 38.1292 16.6694C38.3436 16.925 38.6044 17.1177 38.9115 17.2476L38.4477 17.8784C38.1344 17.7361 37.8643 17.5321 37.6376 17.2661C37.4129 17.0002 37.2346 16.6879 37.1027 16.3293C36.9728 16.7209 36.7904 17.0621 36.5554 17.3527C36.3204 17.6413 36.0359 17.8619 35.702 18.0144L35.2258 17.3589C35.5433 17.2249 35.8113 17.026 36.0298 16.7621C36.2503 16.4962 36.4152 16.1922 36.5245 15.85C36.6337 15.5058 36.6894 15.1471 36.6914 14.774V13.933H37.4892V14.774ZM39.2145 13.5001H40.0122V19.1399H39.2145V13.5001ZM42.3374 13.8031C42.56 13.8031 42.7672 13.8412 42.9589 13.9175C43.1527 13.9938 43.3176 14.102 43.4536 14.2422H44.7306V13.5001H45.516V16.7962H44.7306V16.1221H43.4474C43.3114 16.2602 43.1475 16.3674 42.9558 16.4437C42.7641 16.5179 42.558 16.555 42.3374 16.555C42.0571 16.555 41.8025 16.4962 41.5737 16.3787C41.347 16.2592 41.1687 16.0953 41.0388 15.8871C40.9089 15.6769 40.845 15.4419 40.8471 15.1821C40.845 14.9203 40.9089 14.6843 41.0388 14.4741C41.1687 14.2638 41.347 14.0999 41.5737 13.9824C41.8025 13.8629 42.0571 13.8031 42.3374 13.8031ZM41.5953 15.1821C41.5953 15.3244 41.6263 15.4491 41.6881 15.5563C41.752 15.6635 41.8406 15.7459 41.954 15.8036C42.0674 15.8593 42.1973 15.8871 42.3436 15.8871C42.4838 15.8871 42.6095 15.8593 42.7208 15.8036C42.8321 15.7459 42.9197 15.6635 42.9837 15.5563C43.0476 15.4491 43.0795 15.3244 43.0795 15.1821C43.0795 15.0358 43.0476 14.91 42.9837 14.8049C42.9197 14.6977 42.8321 14.6163 42.7208 14.5606C42.6116 14.5029 42.4858 14.4751 42.3436 14.4772C42.1973 14.4751 42.0674 14.5029 41.954 14.5606C41.8406 14.6163 41.752 14.6977 41.6881 14.8049C41.6263 14.91 41.5953 15.0358 41.5953 15.1821ZM41.6572 18.0206C41.6572 17.7897 41.7355 17.5908 41.8922 17.4238C42.0488 17.2569 42.2725 17.1301 42.5631 17.0435C42.8538 16.9569 43.197 16.9137 43.5928 16.9137C43.9885 16.9137 44.3318 16.9569 44.6224 17.0435C44.9151 17.1301 45.1398 17.2569 45.2965 17.4238C45.4552 17.5908 45.5345 17.7897 45.5345 18.0206C45.5345 18.2515 45.4552 18.4504 45.2965 18.6173C45.1398 18.7843 44.9151 18.9111 44.6224 18.9977C44.3318 19.0842 43.9885 19.1275 43.5928 19.1275C43.197 19.1275 42.8538 19.0842 42.5631 18.9977C42.2725 18.9111 42.0488 18.7843 41.8922 18.6173C41.7355 18.4504 41.6572 18.2515 41.6572 18.0206ZM42.4302 18.0206C42.4302 18.1834 42.5302 18.3071 42.7301 18.3916C42.9301 18.4741 43.2176 18.5153 43.5928 18.5153C43.9741 18.5153 44.2637 18.4741 44.4616 18.3916C44.6595 18.3071 44.7595 18.1834 44.7615 18.0206C44.7595 17.8536 44.6595 17.7279 44.4616 17.6434C44.2658 17.5588 43.9762 17.5156 43.5928 17.5135C43.2155 17.5156 42.927 17.5588 42.727 17.6434C42.5291 17.7279 42.4302 17.8536 42.4302 18.0206ZM43.7907 14.8668C43.8154 14.9657 43.8278 15.0708 43.8278 15.1821C43.8278 15.2852 43.8164 15.3883 43.7938 15.4913H44.7306V14.8668H43.7907ZM52.3802 16.6848H51.904V13.5619H52.3802V16.6848ZM48.1937 13.8897H48.6822V15.85C49.1625 15.8459 49.6108 15.8253 50.0272 15.7882C50.4436 15.749 50.861 15.6851 51.2795 15.5965L51.3537 16.0046C50.9064 16.0953 50.4663 16.1602 50.0334 16.1994C49.6005 16.2386 49.1357 16.2602 48.6389 16.2643H48.1937V13.8897ZM48.8121 16.9384H52.3802V18.9853H48.8121V16.9384ZM51.904 18.5895V17.328H49.2882V18.5895H51.904Z" fill="#191F28"/>
<g clip-path="url(#clip2_6319_1127)">
<path d="M65.125 15.3438L66.3631 16.5774L65.125 17.811" stroke="#6B7684" stroke-width="0.7036" stroke-miterlimit="10" stroke-linecap="round" stroke-linejoin="round"/>
<path d="M66.3661 16.5781H61.6758" stroke="#6B7684" stroke-width="0.7036" stroke-miterlimit="10" stroke-linecap="round" stroke-linejoin="round"/>
<path d="M63.8881 18.4052V18.7924C63.8881 19.3057 63.4633 19.7289 62.9482 19.7289H59.966C59.4599 19.7289 59.0352 19.3057 59.0352 18.7924V14.3622C59.0352 13.849 59.4599 13.4258 59.975 13.4258H62.9573C63.4633 13.4258 63.8881 13.849 63.8881 14.3622V14.7224" stroke="#6B7684" stroke-width="0.7036" stroke-miterlimit="10" stroke-linecap="round" stroke-linejoin="round"/>
</g>
</g>
<defs>
<filter id="filter0_d_6319_1127" x="0.180031" y="0.730813" width="82.4001" height="35.1814" filterUnits="userSpaceOnUse" color-interpolation-filters="sRGB">
<feFlood flood-opacity="0" result="BackgroundImageFix"/>
<feColorMatrix in="SourceAlpha" type="matrix" values="0 0 0 0 0 0 0 0 0 0 0 0 0 0 0 0 0 0 127 0" result="hardAlpha"/>
<feOffset dx="1.759" dy="1.759"/>
<feGaussianBlur stdDeviation="3.518"/>
<feComposite in2="hardAlpha" operator="out"/>
<feColorMatrix type="matrix" values="0 0 0 0 0 0 0 0 0 0 0 0 0 0 0 0 0 0 0.1 0"/>
<feBlend mode="normal" in2="BackgroundImageFix" result="effect1_dropShadow_6319_1127"/>
<feBlend mode="normal" in="SourceGraphic" in2="effect1_dropShadow_6319_1127" result="shape"/>
</filter>
<clipPath id="clip0_6319_1127">
<rect x="7.21484" y="8.11719" width="16.8864" height="16.8864" rx="8.4432" fill="white"/>
</clipPath>
<clipPath id="clip1_6319_1127">
<rect width="13.3684" height="14.8653" fill="white" transform="translate(8.97266 10.4023)"/>
</clipPath>
<clipPath id="clip2_6319_1127">
<rect width="8.0914" height="7.2119" fill="white" transform="translate(58.6562 12.9531)"/>
</clipPath>
</defs>
</svg>
