<svg width="75" height="29" viewBox="0 0 75 29" fill="none" xmlns="http://www.w3.org/2000/svg">
<g filter="url(#filter0_d_5778_8330)">
<rect x="5.59766" y="3.51953" width="60.2788" height="21.1116" rx="10.5558" fill="white" shape-rendering="crispEdges"/>
<g clip-path="url(#clip0_5778_8330)">
<circle cx="15.8001" cy="14.0735" r="8.44464" fill="#ADB5BD"/>
<g clip-path="url(#clip1_5778_8330)">
<path d="M17.1823 14.2899C17.5723 13.9831 17.8569 13.5623 17.9966 13.0862C18.1364 12.61 18.1242 12.1022 17.9619 11.6332C17.7995 11.1643 17.495 10.7577 17.0908 10.4698C16.6866 10.182 16.2027 10.0273 15.7064 10.0273C15.2102 10.0273 14.7263 10.182 14.3221 10.4698C13.9178 10.7577 13.6134 11.1643 13.451 11.6332C13.2887 12.1022 13.2765 12.61 13.4162 13.0862C13.5559 13.5623 13.8406 13.9831 14.2306 14.2899C13.5623 14.5577 12.9792 15.0017 12.5435 15.5748C12.1078 16.1478 11.8357 16.8284 11.7563 17.5439C11.7506 17.5962 11.7552 17.649 11.7698 17.6995C11.7845 17.7499 11.809 17.797 11.8419 17.838C11.9083 17.9208 12.0048 17.9739 12.1103 17.9855C12.2158 17.9971 12.3216 17.9663 12.4044 17.8999C12.4873 17.8335 12.5403 17.7369 12.5519 17.6314C12.6393 16.8538 13.01 16.1356 13.5934 15.6141C14.1768 15.0926 14.9319 14.8043 15.7144 14.8043C16.4969 14.8043 17.252 15.0926 17.8354 15.6141C18.4187 16.1356 18.7895 16.8538 18.8769 17.6314C18.8877 17.7292 18.9343 17.8195 19.0078 17.8848C19.0813 17.9502 19.1763 17.9861 19.2747 17.9855H19.3184C19.4227 17.9735 19.518 17.9207 19.5836 17.8388C19.6492 17.7568 19.6797 17.6523 19.6685 17.5479C19.5887 16.8304 19.3152 16.148 18.8772 15.5741C18.4392 15.0002 17.8533 14.5563 17.1823 14.2899ZM15.7064 14.0075C15.3917 14.0075 15.0841 13.9142 14.8224 13.7393C14.5607 13.5645 14.3568 13.316 14.2364 13.0252C14.1159 12.7345 14.0844 12.4145 14.1458 12.1059C14.2072 11.7972 14.3588 11.5137 14.5813 11.2912C14.8038 11.0686 15.0873 10.9171 15.396 10.8557C15.7047 10.7943 16.0246 10.8258 16.3154 10.9462C16.6061 11.0667 16.8546 11.2706 17.0295 11.5323C17.2043 11.794 17.2976 12.1016 17.2976 12.4163C17.2976 12.8383 17.13 13.243 16.8316 13.5415C16.5332 13.8399 16.1284 14.0075 15.7064 14.0075Z" fill="white"/>
</g>
</g>
<path d="M40.366 15.9381H35.2942V15.4433H37.527V14.4723H35.9128V12.7096H39.1661V11.9302H35.9004V11.4478H39.7475V13.1796H36.4941V13.9899H39.8774V14.4723H38.1084V15.4433H40.366V15.9381ZM45.1594 12.2148C45.1594 12.5384 45.1553 12.8188 45.147 13.0559C45.1408 13.291 45.1233 13.5641 45.0944 13.8754C45.0656 14.1868 45.0192 14.5259 44.9553 14.8929L44.3553 14.8372C44.4234 14.4929 44.4739 14.1682 44.5069 13.8631C44.5399 13.5579 44.5594 13.2868 44.5656 13.0497C44.5739 12.8126 44.578 12.5343 44.578 12.2148V12.1034H41.3123V11.621H45.1594V12.2148ZM40.768 15.3258H45.8212V15.8144H40.768V15.3258ZM50.8373 15.0908H50.2497V11.0643H50.8373V15.0908ZM46.3531 12.8085C46.3531 12.5467 46.418 12.3117 46.5479 12.1034C46.6778 11.8952 46.8551 11.7323 47.0798 11.6148C47.3046 11.4952 47.5551 11.4354 47.8313 11.4354C48.1076 11.4354 48.3571 11.4952 48.5797 11.6148C48.8044 11.7323 48.9807 11.8952 49.1085 12.1034C49.2384 12.3117 49.3034 12.5467 49.3034 12.8085C49.3034 13.0745 49.2384 13.3126 49.1085 13.5229C48.9807 13.7311 48.8044 13.894 48.5797 14.0115C48.3571 14.129 48.1076 14.1878 47.8313 14.1878C47.5551 14.1878 47.3046 14.129 47.0798 14.0115C46.8551 13.894 46.6778 13.7311 46.5479 13.5229C46.418 13.3126 46.3531 13.0745 46.3531 12.8085ZM46.9283 12.8085C46.9283 12.9796 46.9664 13.1312 47.0427 13.2631C47.1211 13.393 47.2293 13.494 47.3674 13.5662C47.5056 13.6383 47.6602 13.6744 47.8313 13.6744C48.0004 13.6744 48.1529 13.6383 48.289 13.5662C48.4251 13.494 48.5323 13.393 48.6106 13.2631C48.689 13.1312 48.7282 12.9796 48.7282 12.8085C48.7282 12.6415 48.689 12.4931 48.6106 12.3632C48.5323 12.2312 48.4251 12.1292 48.289 12.057C48.1529 11.9849 48.0004 11.9488 47.8313 11.9488C47.6602 11.9488 47.5056 11.9849 47.3674 12.057C47.2293 12.1292 47.1211 12.2312 47.0427 12.3632C46.9664 12.4931 46.9283 12.6415 46.9283 12.8085ZM47.2128 14.6826H47.8066V16.0062H51.0042V16.4824H47.2128V14.6826Z" fill="#191F28"/>
</g>
<defs>
<filter id="filter0_d_5778_8330" x="0.319756" y="-1.75837" width="74.3517" height="35.1877" filterUnits="userSpaceOnUse" color-interpolation-filters="sRGB">
<feFlood flood-opacity="0" result="BackgroundImageFix"/>
<feColorMatrix in="SourceAlpha" type="matrix" values="0 0 0 0 0 0 0 0 0 0 0 0 0 0 0 0 0 0 127 0" result="hardAlpha"/>
<feOffset dx="1.7593" dy="1.7593"/>
<feGaussianBlur stdDeviation="3.5186"/>
<feComposite in2="hardAlpha" operator="out"/>
<feColorMatrix type="matrix" values="0 0 0 0 0 0 0 0 0 0 0 0 0 0 0 0 0 0 0.1 0"/>
<feBlend mode="normal" in2="BackgroundImageFix" result="effect1_dropShadow_5778_8330"/>
<feBlend mode="normal" in="SourceGraphic" in2="effect1_dropShadow_5778_8330" result="shape"/>
</filter>
<clipPath id="clip0_5778_8330">
<rect x="7.35547" y="5.62891" width="16.8893" height="16.8893" rx="8.44464" fill="white"/>
</clipPath>
<clipPath id="clip1_5778_8330">
<rect width="8.7965" height="8.7965" fill="white" transform="translate(11.4023 9.67578)"/>
</clipPath>
</defs>
</svg>
