<svg width="48" height="48" viewBox="0 0 48 48" fill="none" xmlns="http://www.w3.org/2000/svg">
<rect x="0.5" y="0.5" width="47" height="47" rx="23.5" stroke="white"/>
<g clip-path="url(#clip0_408_1503)">
<path d="M28.48 14.52C31.75 16.07 34.09 19.24 34.45 23H35.95C35.44 16.84 30.29 12 24 12L23.34 12.03L27.15 15.84L28.48 14.52ZM22.23 13.75C21.64 13.16 20.69 13.16 20.11 13.75L13.75 20.11C13.16 20.7 13.16 21.65 13.75 22.23L25.77 34.25C26.36 34.84 27.31 34.84 27.89 34.25L34.25 27.89C34.84 27.3 34.84 26.35 34.25 25.77L22.23 13.75ZM26.83 33.19L14.81 21.17L21.17 14.81L33.19 26.83L26.83 33.19ZM19.52 33.48C16.25 31.94 13.91 28.76 13.55 25H12.05C12.56 31.16 17.71 36 24 36L24.66 35.97L20.85 32.16L19.52 33.48Z" fill="white"/>
</g>
<defs>
<clipPath id="clip0_408_1503">
<rect width="24" height="24" fill="white" transform="translate(12 12)"/>
</clipPath>
</defs>
</svg>
